<?xml version="1.0" encoding="UTF-8" standalone="no"?>
<!DOCTYPE svg PUBLIC "-//W3C//DTD SVG 1.0//EN"
 "http://www.w3.org/TR/2001/REC-SVG-20010904/DTD/svg10.dtd" [
 <!ATTLIST svg xmlns:xlink CDATA #FIXED "http://www.w3.org/1999/xlink">
]>
<!-- Generated by Graphviz version 2.20.2 (Wed Sep 16 11:12:11 UTC 2009)
     For user: (cain) Scott Cain,,, -->
<!-- Title: test Pages: 1 -->
<svg width="719pt" height="495pt"
 viewBox="0.00 0.00 719.00 495.00" xmlns="http://www.w3.org/2000/svg" xmlns:xlink="http://www.w3.org/1999/xlink">
<g id="graph0" class="graph" transform="scale(1 1) rotate(0) translate(4 491)">
<title>test</title>
<polygon style="fill:lightgoldenrodyellow;stroke:lightgoldenrodyellow;" points="-4,4 -4,-491 715,-491 715,4 -4,4"/>
<!-- node1 -->
<g id="node1" class="node"><title>node1</title>
<polygon style="fill:white;stroke:black;" points="311,-382 311,-483 434,-483 434,-382 311,-382"/>
<text text-anchor="middle" x="372" y="-465.9" style="font-family:Times New Roman;font-size:14.00;">expression</text>
<polyline style="fill:none;stroke:black;" points="311,-458 434,-458 "/>
<text text-anchor="start" x="318.5" y="-441.4" style="font-family:Times New Roman;font-size:14.00;">&#45; expression_id</text>
<text text-anchor="start" x="318.5" y="-424.4" style="font-family:Times New Roman;font-size:14.00;">&#45; uniquename</text>
<text text-anchor="start" x="318.5" y="-407.4" style="font-family:Times New Roman;font-size:14.00;">&#45; md5checksum</text>
<text text-anchor="start" x="318.5" y="-390.4" style="font-family:Times New Roman;font-size:14.00;">&#45; description</text>
</g>
<!-- node2 -->
<g id="node2" class="node"><title>node2</title>
<polygon style="fill:white;stroke:black;" points="536,-206 536,-324 710,-324 710,-206 536,-206"/>
<text text-anchor="middle" x="623" y="-306.9" style="font-family:Times New Roman;font-size:14.00;">expression_cvterm</text>
<polyline style="fill:none;stroke:black;" points="536,-299 710,-299 "/>
<text text-anchor="start" x="544" y="-281.9" style="font-family:Times New Roman;font-size:14.00;">&#45; expression_cvterm_id</text>
<text text-anchor="start" x="544" y="-264.9" style="font-family:Times New Roman;font-size:14.00;">&#45; expression_id</text>
<text text-anchor="start" x="544" y="-247.9" style="font-family:Times New Roman;font-size:14.00;">&#45; cvterm_id</text>
<text text-anchor="start" x="544" y="-230.9" style="font-family:Times New Roman;font-size:14.00;">&#45; rank</text>
<text text-anchor="start" x="544" y="-213.9" style="font-family:Times New Roman;font-size:14.00;">&#45; cvterm_type_id</text>
</g>
<!-- node1&#45;&gt;node2 -->
<g id="edge4" class="edge"><title>node1&#45;&gt;node2</title>
<path style="fill:none;stroke:black;" d="M434,-391C462,-373 496,-350 528,-329"/>
<polygon style="fill:black;stroke:black;" points="530.1,-331.8 536,-323 525.9,-326.2 530.1,-331.8"/>
</g>
<!-- node4 -->
<g id="node4" class="node"><title>node4</title>
<polygon style="fill:white;stroke:black;" points="44,-355 44,-473 194,-473 194,-355 44,-355"/>
<text text-anchor="middle" x="119" y="-455.9" style="font-family:Times New Roman;font-size:14.00;">expressionprop</text>
<polyline style="fill:none;stroke:black;" points="44,-448 194,-448 "/>
<text text-anchor="start" x="52" y="-430.9" style="font-family:Times New Roman;font-size:14.00;">&#45; expressionprop_id</text>
<text text-anchor="start" x="52" y="-413.9" style="font-family:Times New Roman;font-size:14.00;">&#45; expression_id</text>
<text text-anchor="start" x="52" y="-396.9" style="font-family:Times New Roman;font-size:14.00;">&#45; type_id</text>
<text text-anchor="start" x="52" y="-379.9" style="font-family:Times New Roman;font-size:14.00;">&#45; value</text>
<text text-anchor="start" x="52" y="-362.9" style="font-family:Times New Roman;font-size:14.00;">&#45; rank</text>
</g>
<!-- node1&#45;&gt;node4 -->
<g id="edge10" class="edge"><title>node1&#45;&gt;node4</title>
<path style="fill:none;stroke:black;" d="M311,-428C279,-426 239,-423 204,-421"/>
<polygon style="fill:black;stroke:black;" points="204.299,-417.512 194,-420 203.602,-424.478 204.299,-417.512"/>
</g>
<!-- node5 -->
<g id="node5" class="node"><title>node5</title>
<polygon style="fill:white;stroke:black;" points="528,-402 528,-486 680,-486 680,-402 528,-402"/>
<text text-anchor="middle" x="604" y="-468.9" style="font-family:Times New Roman;font-size:14.00;">expression_pub</text>
<polyline style="fill:none;stroke:black;" points="528,-461 680,-461 "/>
<text text-anchor="start" x="536" y="-443.9" style="font-family:Times New Roman;font-size:14.00;">&#45; expression_pub_id</text>
<text text-anchor="start" x="536" y="-426.9" style="font-family:Times New Roman;font-size:14.00;">&#45; expression_id</text>
<text text-anchor="start" x="536" y="-409.9" style="font-family:Times New Roman;font-size:14.00;">&#45; pub_id</text>
</g>
<!-- node1&#45;&gt;node5 -->
<g id="edge8" class="edge"><title>node1&#45;&gt;node5</title>
<path style="fill:none;stroke:black;" d="M434,-436C460,-437 490,-439 518,-440"/>
<polygon style="fill:black;stroke:black;" points="518,-443.5 528,-440 518,-436.5 518,-443.5"/>
</g>
<!-- node6 -->
<g id="node6" class="node"><title>node6</title>
<polygon style="fill:white;stroke:black;" points="168,-208 168,-309 345,-309 345,-208 168,-208"/>
<text text-anchor="middle" x="256" y="-291.9" style="font-family:Times New Roman;font-size:14.00;">feature_expression</text>
<polyline style="fill:none;stroke:black;" points="168,-284 345,-284 "/>
<text text-anchor="start" x="175.5" y="-267.4" style="font-family:Times New Roman;font-size:14.00;">&#45; feature_expression_id</text>
<text text-anchor="start" x="175.5" y="-250.4" style="font-family:Times New Roman;font-size:14.00;">&#45; expression_id</text>
<text text-anchor="start" x="175.5" y="-233.4" style="font-family:Times New Roman;font-size:14.00;">&#45; feature_id</text>
<text text-anchor="start" x="175.5" y="-216.4" style="font-family:Times New Roman;font-size:14.00;">&#45; pub_id</text>
</g>
<!-- node1&#45;&gt;node6 -->
<g id="edge12" class="edge"><title>node1&#45;&gt;node6</title>
<path style="fill:none;stroke:black;" d="M338,-382C325,-362 309,-338 296,-318"/>
<polygon style="fill:black;stroke:black;" points="298.459,-315.379 290,-309 292.635,-319.262 298.459,-315.379"/>
</g>
<!-- node9 -->
<g id="node9" class="node"><title>node9</title>
<polygon style="fill:white;stroke:black;" points="353,-177 353,-261 521,-261 521,-177 353,-177"/>
<text text-anchor="middle" x="437" y="-243.9" style="font-family:Times New Roman;font-size:14.00;">expression_image</text>
<polyline style="fill:none;stroke:black;" points="353,-236 521,-236 "/>
<text text-anchor="start" x="361" y="-218.9" style="font-family:Times New Roman;font-size:14.00;">&#45; expression_image_id</text>
<text text-anchor="start" x="361" y="-201.9" style="font-family:Times New Roman;font-size:14.00;">&#45; expression_id</text>
<text text-anchor="start" x="361" y="-184.9" style="font-family:Times New Roman;font-size:14.00;">&#45; eimage_id</text>
</g>
<!-- node1&#45;&gt;node9 -->
<g id="edge6" class="edge"><title>node1&#45;&gt;node9</title>
<path style="fill:none;stroke:black;" d="M388,-382C398,-348 411,-305 421,-271"/>
<polygon style="fill:black;stroke:black;" points="424.479,-271.584 424,-261 417.774,-269.573 424.479,-271.584"/>
</g>
<!-- node3 -->
<g id="node3" class="node"><title>node3</title>
<polygon style="fill:white;stroke:black;" points="233,-1 233,-119 438,-119 438,-1 233,-1"/>
<text text-anchor="middle" x="335" y="-101.9" style="font-family:Times New Roman;font-size:14.00;">expression_cvtermprop</text>
<polyline style="fill:none;stroke:black;" points="233,-94 438,-94 "/>
<text text-anchor="start" x="240.5" y="-76.9" style="font-family:Times New Roman;font-size:14.00;">&#45; expression_cvtermprop_id</text>
<text text-anchor="start" x="240.5" y="-59.9" style="font-family:Times New Roman;font-size:14.00;">&#45; expression_cvterm_id</text>
<text text-anchor="start" x="240.5" y="-42.9" style="font-family:Times New Roman;font-size:14.00;">&#45; type_id</text>
<text text-anchor="start" x="240.5" y="-25.9" style="font-family:Times New Roman;font-size:14.00;">&#45; value</text>
<text text-anchor="start" x="240.5" y="-8.9" style="font-family:Times New Roman;font-size:14.00;">&#45; rank</text>
</g>
<!-- node2&#45;&gt;node3 -->
<g id="edge14" class="edge"><title>node2&#45;&gt;node3</title>
<path style="fill:none;stroke:black;" d="M540,-206C505,-181 463,-151 426,-125"/>
<polygon style="fill:black;stroke:black;" points="428.1,-122.2 418,-119 423.9,-127.8 428.1,-122.2"/>
</g>
<!-- node7 -->
<g id="node7" class="node"><title>node7</title>
<polygon style="fill:white;stroke:black;" points="1,-56 1,-174 208,-174 208,-56 1,-56"/>
<text text-anchor="middle" x="104" y="-156.9" style="font-family:Times New Roman;font-size:14.00;">feature_expressionprop</text>
<polyline style="fill:none;stroke:black;" points="1,-149 208,-149 "/>
<text text-anchor="start" x="8.5" y="-131.9" style="font-family:Times New Roman;font-size:14.00;">&#45; feature_expressionprop_id</text>
<text text-anchor="start" x="8.5" y="-114.9" style="font-family:Times New Roman;font-size:14.00;">&#45; feature_expression_id</text>
<text text-anchor="start" x="8.5" y="-97.9" style="font-family:Times New Roman;font-size:14.00;">&#45; type_id</text>
<text text-anchor="start" x="8.5" y="-80.9" style="font-family:Times New Roman;font-size:14.00;">&#45; value</text>
<text text-anchor="start" x="8.5" y="-63.9" style="font-family:Times New Roman;font-size:14.00;">&#45; rank</text>
</g>
<!-- node6&#45;&gt;node7 -->
<g id="edge16" class="edge"><title>node6&#45;&gt;node7</title>
<path style="fill:none;stroke:black;" d="M202,-208C193,-199 183,-190 174,-181"/>
<polygon style="fill:black;stroke:black;" points="175.831,-177.951 166,-174 171.221,-183.219 175.831,-177.951"/>
</g>
<!-- node8 -->
<g id="node8" class="node"><title>node8</title>
<polygon style="fill:white;stroke:black;" points="544,-21 544,-122 658,-122 658,-21 544,-21"/>
<text text-anchor="middle" x="601" y="-104.9" style="font-family:Times New Roman;font-size:14.00;">eimage</text>
<polyline style="fill:none;stroke:black;" points="544,-97 658,-97 "/>
<text text-anchor="start" x="552" y="-80.4" style="font-family:Times New Roman;font-size:14.00;">&#45; eimage_id</text>
<text text-anchor="start" x="552" y="-63.4" style="font-family:Times New Roman;font-size:14.00;">&#45; eimage_data</text>
<text text-anchor="start" x="552" y="-46.4" style="font-family:Times New Roman;font-size:14.00;">&#45; eimage_type</text>
<text text-anchor="start" x="552" y="-29.4" style="font-family:Times New Roman;font-size:14.00;">&#45; image_uri</text>
</g>
<!-- node8&#45;&gt;node9 -->
<g id="edge2" class="edge"><title>node8&#45;&gt;node9</title>
<path style="fill:none;stroke:black;" d="M545,-122C528,-138 509,-155 492,-170"/>
<polygon style="fill:black;stroke:black;" points="489.221,-167.781 484,-177 493.831,-173.049 489.221,-167.781"/>
</g>
</g>
</svg>
