<?xml version="1.0" encoding="UTF-8" standalone="no"?>
<!DOCTYPE svg PUBLIC "-//W3C//DTD SVG 1.0//EN"
 "http://www.w3.org/TR/2001/REC-SVG-20010904/DTD/svg10.dtd" [
 <!ATTLIST svg xmlns:xlink CDATA #FIXED "http://www.w3.org/1999/xlink">
]>
<!-- Generated by Graphviz version 2.20.2 (Wed Sep 16 11:12:11 UTC 2009)
     For user: (cain) Scott Cain,,, -->
<!-- Title: test Pages: 1 -->
<svg width="396pt" height="313pt"
 viewBox="0.00 0.00 396.00 313.00" xmlns="http://www.w3.org/2000/svg" xmlns:xlink="http://www.w3.org/1999/xlink">
<g id="graph0" class="graph" transform="scale(1 1) rotate(0) translate(4 309)">
<title>test</title>
<polygon style="fill:lightgoldenrodyellow;stroke:lightgoldenrodyellow;" points="-4,4 -4,-309 392,-309 392,4 -4,4"/>
<!-- node1 -->
<g id="node1" class="node"><title>node1</title>
<polygon style="fill:white;stroke:black;" points="215,-203 215,-304 340,-304 340,-203 215,-203"/>
<text text-anchor="middle" x="277" y="-286.9" style="font-family:Times New Roman;font-size:14.00;">featuremap</text>
<polyline style="fill:none;stroke:black;" points="215,-279 340,-279 "/>
<text text-anchor="start" x="222.5" y="-262.4" style="font-family:Times New Roman;font-size:14.00;">&#45; featuremap_id</text>
<text text-anchor="start" x="222.5" y="-245.4" style="font-family:Times New Roman;font-size:14.00;">&#45; name</text>
<text text-anchor="start" x="222.5" y="-228.4" style="font-family:Times New Roman;font-size:14.00;">&#45; description</text>
<text text-anchor="start" x="222.5" y="-211.4" style="font-family:Times New Roman;font-size:14.00;">&#45; unittype_id</text>
</g>
<!-- node2 -->
<g id="node2" class="node"><title>node2</title>
<polygon style="fill:white;stroke:black;" points="253,-0 253,-169 388,-169 388,-0 253,-0"/>
<text text-anchor="middle" x="320" y="-151.9" style="font-family:Times New Roman;font-size:14.00;">featurerange</text>
<polyline style="fill:none;stroke:black;" points="253,-144 388,-144 "/>
<text text-anchor="start" x="260.5" y="-127.4" style="font-family:Times New Roman;font-size:14.00;">&#45; featurerange_id</text>
<text text-anchor="start" x="260.5" y="-110.4" style="font-family:Times New Roman;font-size:14.00;">&#45; featuremap_id</text>
<text text-anchor="start" x="260.5" y="-93.4" style="font-family:Times New Roman;font-size:14.00;">&#45; feature_id</text>
<text text-anchor="start" x="260.5" y="-76.4" style="font-family:Times New Roman;font-size:14.00;">&#45; leftstartf_id</text>
<text text-anchor="start" x="260.5" y="-59.4" style="font-family:Times New Roman;font-size:14.00;">&#45; leftendf_id</text>
<text text-anchor="start" x="260.5" y="-42.4" style="font-family:Times New Roman;font-size:14.00;">&#45; rightstartf_id</text>
<text text-anchor="start" x="260.5" y="-25.4" style="font-family:Times New Roman;font-size:14.00;">&#45; rightendf_id</text>
<text text-anchor="start" x="260.5" y="-8.4" style="font-family:Times New Roman;font-size:14.00;">&#45; rangestr</text>
</g>
<!-- node1&#45;&gt;node2 -->
<g id="edge6" class="edge"><title>node1&#45;&gt;node2</title>
<path style="fill:none;stroke:black;" d="M290,-203C292,-195 294,-187 296,-179"/>
<polygon style="fill:black;stroke:black;" points="299.479,-179.584 299,-169 292.774,-177.573 299.479,-179.584"/>
</g>
<!-- node3 -->
<g id="node3" class="node"><title>node3</title>
<polygon style="fill:white;stroke:black;" points="50,-1 50,-119 182,-119 182,-1 50,-1"/>
<text text-anchor="middle" x="116" y="-101.9" style="font-family:Times New Roman;font-size:14.00;">featurepos</text>
<polyline style="fill:none;stroke:black;" points="50,-94 182,-94 "/>
<text text-anchor="start" x="58" y="-76.9" style="font-family:Times New Roman;font-size:14.00;">&#45; featurepos_id</text>
<text text-anchor="start" x="58" y="-59.9" style="font-family:Times New Roman;font-size:14.00;">&#45; featuremap_id</text>
<text text-anchor="start" x="58" y="-42.9" style="font-family:Times New Roman;font-size:14.00;">&#45; feature_id</text>
<text text-anchor="start" x="58" y="-25.9" style="font-family:Times New Roman;font-size:14.00;">&#45; map_feature_id</text>
<text text-anchor="start" x="58" y="-8.9" style="font-family:Times New Roman;font-size:14.00;">&#45; mappos</text>
</g>
<!-- node1&#45;&gt;node3 -->
<g id="edge4" class="edge"><title>node1&#45;&gt;node3</title>
<path style="fill:none;stroke:black;" d="M234,-203C215,-180 192,-152 172,-127"/>
<polygon style="fill:black;stroke:black;" points="174.219,-124.221 165,-119 168.951,-128.831 174.219,-124.221"/>
</g>
<!-- node4 -->
<g id="node4" class="node"><title>node4</title>
<polygon style="fill:white;stroke:black;" points="1,-192 1,-276 159,-276 159,-192 1,-192"/>
<text text-anchor="middle" x="80" y="-258.9" style="font-family:Times New Roman;font-size:14.00;">featuremap_pub</text>
<polyline style="fill:none;stroke:black;" points="1,-251 159,-251 "/>
<text text-anchor="start" x="9" y="-233.9" style="font-family:Times New Roman;font-size:14.00;">&#45; featuremap_pub_id</text>
<text text-anchor="start" x="9" y="-216.9" style="font-family:Times New Roman;font-size:14.00;">&#45; featuremap_id</text>
<text text-anchor="start" x="9" y="-199.9" style="font-family:Times New Roman;font-size:14.00;">&#45; pub_id</text>
</g>
<!-- node1&#45;&gt;node4 -->
<g id="edge2" class="edge"><title>node1&#45;&gt;node4</title>
<path style="fill:none;stroke:black;" d="M215,-248C200,-246 185,-245 169,-243"/>
<polygon style="fill:black;stroke:black;" points="169.299,-239.512 159,-242 168.602,-246.478 169.299,-239.512"/>
</g>
</g>
</svg>
