<?xml version="1.0" encoding="UTF-8" standalone="no"?>
<!DOCTYPE svg PUBLIC "-//W3C//DTD SVG 1.0//EN"
 "http://www.w3.org/TR/2001/REC-SVG-20010904/DTD/svg10.dtd">
<!-- Generated by neato version 2.2.1 (Wed Apr 13 22:41:22 UTC 2005)
     For user: (allenday) Allen Day            Title: test    Pages: 1 -->
<svg width="731pt" height="587pt"
 viewBox = "-1 -1 730 586"
 xmlns="http://www.w3.org/2000/svg">
<g id="graph0" class="graph" style="font-family:Times-Roman;font-size:14.00;">
<title>test</title>
<g id="node1" class="node"><title>analysis</title>
<polygon style="fill:white;stroke:black;" points="67,253 212,253 212,69 67,69 67,253"/>
<text text-anchor="start" x="75" y="86">{analysis|&#45; analysis_id </text>
<text text-anchor="start" x="75" y="102">&#45; name </text>
<text text-anchor="start" x="75" y="118">&#45; description </text>
<text text-anchor="start" x="75" y="134">&#45; program </text>
<text text-anchor="start" x="75" y="150">&#45; programversion </text>
<text text-anchor="start" x="75" y="166">&#45; algorithm </text>
<text text-anchor="start" x="75" y="182">&#45; sourcename </text>
<text text-anchor="start" x="75" y="198">&#45; sourceversion </text>
<text text-anchor="start" x="75" y="214">&#45; sourceuri </text>
<text text-anchor="start" x="75" y="230">&#45; timeexecuted </text>
<text text-anchor="middle" x="139" y="246">}</text>
</g>
<g id="node2" class="node"><title>analysisprop</title>
<polygon style="fill:white;stroke:black;" points="449,256 644,256 644,168 449,168 449,256"/>
<text text-anchor="start" x="457" y="185">{analysisprop|&#45; analysisprop_id </text>
<text text-anchor="start" x="457" y="201">&#45; analysis_id </text>
<text text-anchor="start" x="457" y="217">&#45; type_id </text>
<text text-anchor="start" x="457" y="233">&#45; value </text>
<text text-anchor="middle" x="546" y="249">}</text>
</g>
<g id="edge4" class="edge"><title>analysis&#45;&gt;analysisprop</title>
<path style="fill:none;stroke:black;" d="M212,170C275,178 367,190 439,199"/>
<polygon style="fill:black;stroke:black;" points="439,196 449,200 439,202 439,196"/>
</g>
<g id="node3" class="node"><title>analysisfeature</title>
<polygon style="fill:white;stroke:black;" points="173,529 394,529 394,393 173,393 173,529"/>
<text text-anchor="start" x="181" y="410">{analysisfeature|&#45; analysisfeature_id </text>
<text text-anchor="start" x="181" y="426">&#45; feature_id </text>
<text text-anchor="start" x="181" y="442">&#45; analysis_id </text>
<text text-anchor="start" x="181" y="458">&#45; rawscore </text>
<text text-anchor="start" x="181" y="474">&#45; normscore </text>
<text text-anchor="start" x="181" y="490">&#45; significance </text>
<text text-anchor="start" x="181" y="506">&#45; identity </text>
<text text-anchor="middle" x="283" y="522">}</text>
</g>
<g id="edge2" class="edge"><title>analysis&#45;&gt;analysisfeature</title>
<path style="fill:none;stroke:black;" d="M183,253C203,295 227,343 246,384"/>
<polygon style="fill:black;stroke:black;" points="249,382 250,393 243,385 249,382"/>
</g>
</g>
</svg>
