<?xml version="1.0" encoding="UTF-8" standalone="no"?>
<!DOCTYPE svg PUBLIC "-//W3C//DTD SVG 1.0//EN"
 "http://www.w3.org/TR/2001/REC-SVG-20010904/DTD/svg10.dtd" [
 <!ATTLIST svg xmlns:xlink CDATA #FIXED "http://www.w3.org/1999/xlink">
]>
<!-- Generated by Graphviz version 2.12 (Tue Sep  4 16:56:48 UTC 2007)
     For user: (scott) Scott Cain,,, -->
<!-- Title: test Pages: 1 -->
<svg width="9.99in" height="7.99in"
 xmlns="http://www.w3.org/2000/svg" xmlns:xlink="http://www.w3.org/1999/xlink">
<g id="graph0" class="graph" transform="scale(1.31732 1.31732) rotate(0) translate(4 579)">
<title>test</title>
<polygon style="fill:white;stroke:white;" points="-4,4 -4,-579 724,-579 724,4 -4,4"/>
<!-- analysis -->
<g id="node1" class="node"><title>analysis</title>
<polygon style="fill:white;stroke:black;" points="83,-307 83,-543 201,-543 201,-307 83,-307"/>
<text text-anchor="middle" x="142" y="-525" style="font-family:Nimbus Roman No9 L;font-weight:regular;font-size:11.34pt;">analysis</text>
<polyline style="fill:none;stroke:black;" points="83,-515 201,-515 "/>
<text text-anchor="start" x="91" y="-497" style="font-family:Nimbus Roman No9 L;font-weight:regular;font-size:11.34pt;">&#45; analysis_id </text>
<text text-anchor="start" x="91" y="-477" style="font-family:Nimbus Roman No9 L;font-weight:regular;font-size:11.34pt;">&#45; name </text>
<text text-anchor="start" x="91" y="-457" style="font-family:Nimbus Roman No9 L;font-weight:regular;font-size:11.34pt;">&#45; description </text>
<text text-anchor="start" x="91" y="-437" style="font-family:Nimbus Roman No9 L;font-weight:regular;font-size:11.34pt;">&#45; program </text>
<text text-anchor="start" x="91" y="-417" style="font-family:Nimbus Roman No9 L;font-weight:regular;font-size:11.34pt;">&#45; programversion </text>
<text text-anchor="start" x="91" y="-397" style="font-family:Nimbus Roman No9 L;font-weight:regular;font-size:11.34pt;">&#45; algorithm </text>
<text text-anchor="start" x="91" y="-377" style="font-family:Nimbus Roman No9 L;font-weight:regular;font-size:11.34pt;">&#45; sourcename </text>
<text text-anchor="start" x="91" y="-357" style="font-family:Nimbus Roman No9 L;font-weight:regular;font-size:11.34pt;">&#45; sourceversion </text>
<text text-anchor="start" x="91" y="-337" style="font-family:Nimbus Roman No9 L;font-weight:regular;font-size:11.34pt;">&#45; sourceuri </text>
<text text-anchor="start" x="91" y="-317" style="font-family:Nimbus Roman No9 L;font-weight:regular;font-size:11.34pt;">&#45; timeexecuted </text>
</g>
<!-- analysisprop -->
<g id="node2" class="node"><title>analysisprop</title>
<polygon style="fill:white;stroke:black;" points="523,-397 523,-513 640,-513 640,-397 523,-397"/>
<text text-anchor="middle" x="581" y="-495" style="font-family:Nimbus Roman No9 L;font-weight:regular;font-size:11.34pt;">analysisprop</text>
<polyline style="fill:none;stroke:black;" points="523,-485 640,-485 "/>
<text text-anchor="start" x="531" y="-467" style="font-family:Nimbus Roman No9 L;font-weight:regular;font-size:11.34pt;">&#45; analysisprop_id </text>
<text text-anchor="start" x="531" y="-447" style="font-family:Nimbus Roman No9 L;font-weight:regular;font-size:11.34pt;">&#45; analysis_id </text>
<text text-anchor="start" x="531" y="-427" style="font-family:Nimbus Roman No9 L;font-weight:regular;font-size:11.34pt;">&#45; type_id </text>
<text text-anchor="start" x="531" y="-407" style="font-family:Nimbus Roman No9 L;font-weight:regular;font-size:11.34pt;">&#45; value </text>
</g>
<!-- analysis&#45;&gt;analysisprop -->
<g id="edge4" class="edge"><title>analysis&#45;&gt;analysisprop</title>
<path style="fill:none;stroke:black;" d="M201,-429C282,-435 427,-444 513,-450"/>
<polygon style="fill:black;stroke:black;" points="512.701,-453.488 523,-451 513.398,-446.522 512.701,-453.488"/>
</g>
<!-- analysisfeature -->
<g id="node3" class="node"><title>analysisfeature</title>
<polygon style="fill:white;stroke:black;" points="324,-24 324,-200 454,-200 454,-24 324,-24"/>
<text text-anchor="middle" x="389" y="-182" style="font-family:Nimbus Roman No9 L;font-weight:regular;font-size:11.34pt;">analysisfeature</text>
<polyline style="fill:none;stroke:black;" points="324,-172 454,-172 "/>
<text text-anchor="start" x="332" y="-154" style="font-family:Nimbus Roman No9 L;font-weight:regular;font-size:11.34pt;">&#45; analysisfeature_id </text>
<text text-anchor="start" x="332" y="-134" style="font-family:Nimbus Roman No9 L;font-weight:regular;font-size:11.34pt;">&#45; feature_id </text>
<text text-anchor="start" x="332" y="-114" style="font-family:Nimbus Roman No9 L;font-weight:regular;font-size:11.34pt;">&#45; analysis_id </text>
<text text-anchor="start" x="332" y="-94" style="font-family:Nimbus Roman No9 L;font-weight:regular;font-size:11.34pt;">&#45; rawscore </text>
<text text-anchor="start" x="332" y="-74" style="font-family:Nimbus Roman No9 L;font-weight:regular;font-size:11.34pt;">&#45; normscore </text>
<text text-anchor="start" x="332" y="-54" style="font-family:Nimbus Roman No9 L;font-weight:regular;font-size:11.34pt;">&#45; significance </text>
<text text-anchor="start" x="332" y="-34" style="font-family:Nimbus Roman No9 L;font-weight:regular;font-size:11.34pt;">&#45; identity </text>
</g>
<!-- analysis&#45;&gt;analysisfeature -->
<g id="edge2" class="edge"><title>analysis&#45;&gt;analysisfeature</title>
<path style="fill:none;stroke:black;" d="M201,-350C236,-306 281,-249 318,-202"/>
<polygon style="fill:black;stroke:black;" points="320.8,-204.1 324,-194 315.2,-199.9 320.8,-204.1"/>
</g>
</g>
</svg>
