<?xml version="1.0" encoding="UTF-8" standalone="no"?>
<!DOCTYPE svg PUBLIC "-//W3C//DTD SVG 1.1//EN"
 "http://www.w3.org/Graphics/SVG/1.1/DTD/svg11.dtd">
<!-- Generated by graphviz version 2.38.0 (20140413.2041)
 -->
<!-- Title: test Pages: 1 -->
<svg width="718pt" height="499pt"
 viewBox="0.00 0.00 717.53 498.69" xmlns="http://www.w3.org/2000/svg" xmlns:xlink="http://www.w3.org/1999/xlink">
<g id="graph0" class="graph" transform="scale(1 1) rotate(0) translate(4 494.694)">
<title>test</title>
<polygon fill="lightgoldenrodyellow" stroke="none" points="-4,4 -4,-494.694 713.53,-494.694 713.53,4 -4,4"/>
<!-- node1 -->
<g id="node1" class="node"><title>node1</title>
<polygon fill="white" stroke="black" points="386.831,-157.992 386.831,-338.992 497.831,-338.992 497.831,-157.992 386.831,-157.992"/>
<text text-anchor="middle" x="442.331" y="-323.792" font-family="Times,serif" font-size="14.00">analysis</text>
<polyline fill="none" stroke="black" points="386.831,-315.992 497.831,-315.992 "/>
<text text-anchor="start" x="394.831" y="-300.792" font-family="Times,serif" font-size="14.00">&#45; analysis_id</text>
<text text-anchor="start" x="394.831" y="-285.792" font-family="Times,serif" font-size="14.00">&#45; name</text>
<text text-anchor="start" x="394.831" y="-270.792" font-family="Times,serif" font-size="14.00">&#45; description</text>
<text text-anchor="start" x="394.831" y="-255.792" font-family="Times,serif" font-size="14.00">&#45; program</text>
<text text-anchor="start" x="394.831" y="-240.792" font-family="Times,serif" font-size="14.00">&#45; programversion</text>
<text text-anchor="start" x="394.831" y="-225.792" font-family="Times,serif" font-size="14.00">&#45; algorithm</text>
<text text-anchor="start" x="394.831" y="-210.792" font-family="Times,serif" font-size="14.00">&#45; sourcename</text>
<text text-anchor="start" x="394.831" y="-195.792" font-family="Times,serif" font-size="14.00">&#45; sourceversion</text>
<text text-anchor="start" x="394.831" y="-180.792" font-family="Times,serif" font-size="14.00">&#45; sourceuri</text>
<text text-anchor="start" x="394.831" y="-165.792" font-family="Times,serif" font-size="14.00">&#45; timeexecuted</text>
</g>
<!-- node2 -->
<g id="node2" class="node"><title>node2</title>
<polygon fill="white" stroke="black" points="599.53,-71.5259 599.53,-177.526 709.53,-177.526 709.53,-71.5259 599.53,-71.5259"/>
<text text-anchor="middle" x="654.53" y="-162.326" font-family="Times,serif" font-size="14.00">analysisprop</text>
<polyline fill="none" stroke="black" points="599.53,-154.526 709.53,-154.526 "/>
<text text-anchor="start" x="607.53" y="-139.326" font-family="Times,serif" font-size="14.00">&#45; analysisprop_id</text>
<text text-anchor="start" x="607.53" y="-124.326" font-family="Times,serif" font-size="14.00">&#45; analysis_id</text>
<text text-anchor="start" x="607.53" y="-109.326" font-family="Times,serif" font-size="14.00">&#45; type_id</text>
<text text-anchor="start" x="607.53" y="-94.3259" font-family="Times,serif" font-size="14.00">&#45; value</text>
<text text-anchor="start" x="607.53" y="-79.3259" font-family="Times,serif" font-size="14.00">&#45; rank</text>
</g>
<!-- node1&#45;&gt;node2 -->
<g id="edge6" class="edge"><title>node1&#45;&gt;node2</title>
<path fill="none" stroke="black" d="M498.084,-215.921C526.461,-199.343 561.093,-179.111 590.553,-161.901"/>
<polygon fill="black" stroke="black" points="592.648,-164.731 599.517,-156.664 589.117,-158.687 592.648,-164.731"/>
</g>
<!-- node3 -->
<g id="node3" class="node"><title>node3</title>
<polygon fill="white" stroke="black" points="195.269,-133.821 195.269,-269.821 318.269,-269.821 318.269,-133.821 195.269,-133.821"/>
<text text-anchor="middle" x="256.769" y="-254.621" font-family="Times,serif" font-size="14.00">analysisfeature</text>
<polyline fill="none" stroke="black" points="195.269,-246.821 318.269,-246.821 "/>
<text text-anchor="start" x="203.269" y="-231.621" font-family="Times,serif" font-size="14.00">&#45; analysisfeature_id</text>
<text text-anchor="start" x="203.269" y="-216.621" font-family="Times,serif" font-size="14.00">&#45; feature_id</text>
<text text-anchor="start" x="203.269" y="-201.621" font-family="Times,serif" font-size="14.00">&#45; analysis_id</text>
<text text-anchor="start" x="203.269" y="-186.621" font-family="Times,serif" font-size="14.00">&#45; rawscore</text>
<text text-anchor="start" x="203.269" y="-171.621" font-family="Times,serif" font-size="14.00">&#45; normscore</text>
<text text-anchor="start" x="203.269" y="-156.621" font-family="Times,serif" font-size="14.00">&#45; significance</text>
<text text-anchor="start" x="203.269" y="-141.621" font-family="Times,serif" font-size="14.00">&#45; identity</text>
</g>
<!-- node1&#45;&gt;node3 -->
<g id="edge5" class="edge"><title>node1&#45;&gt;node3</title>
<path fill="none" stroke="black" d="M386.656,-234.489C368.384,-229.893 347.812,-224.719 328.521,-219.867"/>
<polygon fill="black" stroke="black" points="329.12,-216.409 318.568,-217.364 327.412,-223.198 329.12,-216.409"/>
</g>
<!-- node5 -->
<g id="node5" class="node"><title>node5</title>
<polygon fill="white" stroke="black" points="551.248,-370.373 551.248,-461.373 679.248,-461.373 679.248,-370.373 551.248,-370.373"/>
<text text-anchor="middle" x="615.248" y="-446.173" font-family="Times,serif" font-size="14.00">analysis_dbxref</text>
<polyline fill="none" stroke="black" points="551.248,-438.373 679.248,-438.373 "/>
<text text-anchor="start" x="559.248" y="-423.173" font-family="Times,serif" font-size="14.00">&#45; analysis_dbxref_id</text>
<text text-anchor="start" x="559.248" y="-408.173" font-family="Times,serif" font-size="14.00">&#45; analysis_id</text>
<text text-anchor="start" x="559.248" y="-393.173" font-family="Times,serif" font-size="14.00">&#45; dbxref_id</text>
<text text-anchor="start" x="559.248" y="-378.173" font-family="Times,serif" font-size="14.00">&#45; is_current</text>
</g>
<!-- node1&#45;&gt;node5 -->
<g id="edge2" class="edge"><title>node1&#45;&gt;node5</title>
<path fill="none" stroke="black" d="M497.995,-302.374C518.131,-321.865 540.83,-343.838 560.856,-363.222"/>
<polygon fill="black" stroke="black" points="558.483,-365.797 568.103,-370.237 563.352,-360.767 558.483,-365.797"/>
</g>
<!-- node6 -->
<g id="node6" class="node"><title>node6</title>
<polygon fill="white" stroke="black" points="266.368,-384.194 266.368,-490.194 397.368,-490.194 397.368,-384.194 266.368,-384.194"/>
<text text-anchor="middle" x="331.868" y="-474.994" font-family="Times,serif" font-size="14.00">analysis_cvterm</text>
<polyline fill="none" stroke="black" points="266.368,-467.194 397.368,-467.194 "/>
<text text-anchor="start" x="274.368" y="-451.994" font-family="Times,serif" font-size="14.00">&#45; analysis_cvterm_id</text>
<text text-anchor="start" x="274.368" y="-436.994" font-family="Times,serif" font-size="14.00">&#45; analysis_id</text>
<text text-anchor="start" x="274.368" y="-421.994" font-family="Times,serif" font-size="14.00">&#45; cvterm_id</text>
<text text-anchor="start" x="274.368" y="-406.994" font-family="Times,serif" font-size="14.00">&#45; is_not</text>
<text text-anchor="start" x="274.368" y="-391.994" font-family="Times,serif" font-size="14.00">&#45; rank</text>
</g>
<!-- node1&#45;&gt;node6 -->
<g id="edge1" class="edge"><title>node1&#45;&gt;node6</title>
<path fill="none" stroke="black" d="M389.202,-339.25C382.023,-351.514 374.797,-363.859 368.009,-375.455"/>
<polygon fill="black" stroke="black" points="364.943,-373.764 362.911,-384.162 370.984,-377.301 364.943,-373.764"/>
</g>
<!-- node7 -->
<g id="node7" class="node"><title>node7</title>
<polygon fill="white" stroke="black" points="13.0022,-16.8423 13.0022,-137.842 169.002,-137.842 169.002,-16.8423 13.0022,-16.8423"/>
<text text-anchor="middle" x="91.0022" y="-122.642" font-family="Times,serif" font-size="14.00">analysis_relationship</text>
<polyline fill="none" stroke="black" points="13.0022,-114.842 169.002,-114.842 "/>
<text text-anchor="start" x="21.0022" y="-99.6423" font-family="Times,serif" font-size="14.00">&#45; analysis_relationship_id</text>
<text text-anchor="start" x="21.0022" y="-84.6423" font-family="Times,serif" font-size="14.00">&#45; subject_id</text>
<text text-anchor="start" x="21.0022" y="-69.6423" font-family="Times,serif" font-size="14.00">&#45; object_id</text>
<text text-anchor="start" x="21.0022" y="-54.6423" font-family="Times,serif" font-size="14.00">&#45; type_id</text>
<text text-anchor="start" x="21.0022" y="-39.6423" font-family="Times,serif" font-size="14.00">&#45; value</text>
<text text-anchor="start" x="21.0022" y="-24.6423" font-family="Times,serif" font-size="14.00">&#45; rank</text>
</g>
<!-- node1&#45;&gt;node7 -->
<g id="edge4" class="edge"><title>node1&#45;&gt;node7</title>
<path fill="none" stroke="black" d="M386.662,-221.373C330.669,-194.096 243.519,-151.641 178.32,-119.879"/>
<polygon fill="black" stroke="black" points="179.795,-116.704 169.272,-115.471 176.729,-122.997 179.795,-116.704"/>
</g>
<!-- node8 -->
<g id="node8" class="node"><title>node8</title>
<polygon fill="white" stroke="black" points="371.625,-0.5 371.625,-76.5 484.625,-76.5 484.625,-0.5 371.625,-0.5"/>
<text text-anchor="middle" x="428.125" y="-61.3" font-family="Times,serif" font-size="14.00">analysis_pub</text>
<polyline fill="none" stroke="black" points="371.625,-53.5 484.625,-53.5 "/>
<text text-anchor="start" x="379.625" y="-38.3" font-family="Times,serif" font-size="14.00">&#45; analysis_pub_id</text>
<text text-anchor="start" x="379.625" y="-23.3" font-family="Times,serif" font-size="14.00">&#45; analysis_id</text>
<text text-anchor="start" x="379.625" y="-8.3" font-family="Times,serif" font-size="14.00">&#45; pub_id</text>
</g>
<!-- node1&#45;&gt;node8 -->
<g id="edge3" class="edge"><title>node1&#45;&gt;node8</title>
<path fill="none" stroke="black" d="M436.203,-157.913C434.545,-133.396 432.814,-107.811 431.382,-86.6412"/>
<polygon fill="black" stroke="black" points="434.871,-86.3682 430.704,-76.6273 427.887,-86.8408 434.871,-86.3682"/>
</g>
<!-- node4 -->
<g id="node4" class="node"><title>node4</title>
<polygon fill="white" stroke="black" points="0,-335.853 0,-441.853 148,-441.853 148,-335.853 0,-335.853"/>
<text text-anchor="middle" x="74" y="-426.653" font-family="Times,serif" font-size="14.00">analysisfeatureprop</text>
<polyline fill="none" stroke="black" points="0,-418.853 148,-418.853 "/>
<text text-anchor="start" x="8" y="-403.653" font-family="Times,serif" font-size="14.00">&#45; analysisfeatureprop_id</text>
<text text-anchor="start" x="8" y="-388.653" font-family="Times,serif" font-size="14.00">&#45; analysisfeature_id</text>
<text text-anchor="start" x="8" y="-373.653" font-family="Times,serif" font-size="14.00">&#45; type_id</text>
<text text-anchor="start" x="8" y="-358.653" font-family="Times,serif" font-size="14.00">&#45; value</text>
<text text-anchor="start" x="8" y="-343.653" font-family="Times,serif" font-size="14.00">&#45; rank</text>
</g>
<!-- node3&#45;&gt;node4 -->
<g id="edge7" class="edge"><title>node3&#45;&gt;node4</title>
<path fill="none" stroke="black" d="M195.146,-264.881C175.118,-285.376 152.948,-308.063 133.107,-328.367"/>
<polygon fill="black" stroke="black" points="130.397,-326.132 125.911,-335.731 135.404,-331.025 130.397,-326.132"/>
</g>
</g>
</svg>
