<?xml version="1.0" encoding="UTF-8" standalone="no"?>
<!DOCTYPE svg PUBLIC "-//W3C//DTD SVG 1.1//EN"
 "http://www.w3.org/Graphics/SVG/1.1/DTD/svg11.dtd">
<!-- Generated by graphviz version 2.38.0 (20140413.2041)
 -->
<!-- Title: test Pages: 1 -->
<svg width="214pt" height="265pt"
 viewBox="0.00 0.00 213.51 264.71" xmlns="http://www.w3.org/2000/svg" xmlns:xlink="http://www.w3.org/1999/xlink">
<g id="graph0" class="graph" transform="scale(1 1) rotate(0) translate(4 260.713)">
<title>test</title>
<polygon fill="lightgoldenrodyellow" stroke="none" points="-4,4 -4,-260.713 209.511,-260.713 209.511,4 -4,4"/>
<!-- node1 -->
<g id="node1" class="node"><title>node1</title>
<polygon fill="white" stroke="black" points="-1.42109e-14,-123.448 -1.42109e-14,-214.448 85,-214.448 85,-123.448 -1.42109e-14,-123.448"/>
<text text-anchor="middle" x="42.5" y="-199.248" font-family="Times,serif" font-size="14.00">contact</text>
<polyline fill="none" stroke="black" points="-1.42109e-14,-191.448 85,-191.448 "/>
<text text-anchor="start" x="8" y="-176.248" font-family="Times,serif" font-size="14.00">&#45; contact_id</text>
<text text-anchor="start" x="8" y="-161.248" font-family="Times,serif" font-size="14.00">&#45; type_id</text>
<text text-anchor="start" x="8" y="-146.248" font-family="Times,serif" font-size="14.00">&#45; name</text>
<text text-anchor="start" x="8" y="-131.248" font-family="Times,serif" font-size="14.00">&#45; description</text>
</g>
<!-- node2 -->
<g id="node2" class="node"><title>node2</title>
<polygon fill="white" stroke="black" points="99.5111,-150.213 99.5111,-256.213 205.511,-256.213 205.511,-150.213 99.5111,-150.213"/>
<text text-anchor="middle" x="152.511" y="-241.013" font-family="Times,serif" font-size="14.00">contactprop</text>
<polyline fill="none" stroke="black" points="99.5111,-233.213 205.511,-233.213 "/>
<text text-anchor="start" x="107.511" y="-218.013" font-family="Times,serif" font-size="14.00">&#45; contactprop_id</text>
<text text-anchor="start" x="107.511" y="-203.013" font-family="Times,serif" font-size="14.00">&#45; contact_id</text>
<text text-anchor="start" x="107.511" y="-188.013" font-family="Times,serif" font-size="14.00">&#45; type_id</text>
<text text-anchor="start" x="107.511" y="-173.013" font-family="Times,serif" font-size="14.00">&#45; value</text>
<text text-anchor="start" x="107.511" y="-158.013" font-family="Times,serif" font-size="14.00">&#45; rank</text>
</g>
<!-- node1&#45;&gt;node2 -->
<g id="edge2" class="edge"><title>node1&#45;&gt;node2</title>
<path fill="none" stroke="black" d="M85.0332,-182.196C86.5069,-182.655 87.9933,-183.118 89.4878,-183.584"/>
<polygon fill="black" stroke="black" points="88.8317,-187.045 99.4201,-186.677 90.9133,-180.362 88.8317,-187.045"/>
</g>
<!-- node3 -->
<g id="node3" class="node"><title>node3</title>
<polygon fill="white" stroke="black" points="21.3535,-0.5 21.3535,-91.5 173.353,-91.5 173.353,-0.5 21.3535,-0.5"/>
<text text-anchor="middle" x="97.3535" y="-76.3" font-family="Times,serif" font-size="14.00">contact_relationship</text>
<polyline fill="none" stroke="black" points="21.3535,-68.5 173.353,-68.5 "/>
<text text-anchor="start" x="29.3535" y="-53.3" font-family="Times,serif" font-size="14.00">&#45; contact_relationship_id</text>
<text text-anchor="start" x="29.3535" y="-38.3" font-family="Times,serif" font-size="14.00">&#45; type_id</text>
<text text-anchor="start" x="29.3535" y="-23.3" font-family="Times,serif" font-size="14.00">&#45; subject_id</text>
<text text-anchor="start" x="29.3535" y="-8.3" font-family="Times,serif" font-size="14.00">&#45; object_id</text>
</g>
<!-- node1&#45;&gt;node3 -->
<g id="edge1" class="edge"><title>node1&#45;&gt;node3</title>
<path fill="none" stroke="black" d="M62.9254,-123.167C66.138,-115.966 69.488,-108.458 72.7824,-101.074"/>
<polygon fill="black" stroke="black" points="76.0329,-102.378 76.911,-91.8197 69.6403,-99.526 76.0329,-102.378"/>
</g>
</g>
</svg>
