<?xml version="1.0" encoding="UTF-8" standalone="no"?>
<!DOCTYPE svg PUBLIC "-//W3C//DTD SVG 1.1//EN"
 "http://www.w3.org/Graphics/SVG/1.1/DTD/svg11.dtd">
<!-- Generated by graphviz version 2.38.0 (20140413.2041)
 -->
<!-- Title: test Pages: 1 -->
<svg width="524pt" height="547pt"
 viewBox="0.00 0.00 523.89 547.10" xmlns="http://www.w3.org/2000/svg" xmlns:xlink="http://www.w3.org/1999/xlink">
<g id="graph0" class="graph" transform="scale(1 1) rotate(0) translate(4 543.101)">
<title>test</title>
<polygon fill="lightgoldenrodyellow" stroke="none" points="-4,4 -4,-543.101 519.891,-543.101 519.891,4 -4,4"/>
<!-- node1 -->
<g id="node1" class="node"><title>node1</title>
<polygon fill="white" stroke="black" points="38.9967,-298.138 38.9967,-374.138 115.997,-374.138 115.997,-298.138 38.9967,-298.138"/>
<text text-anchor="middle" x="77.4967" y="-358.938" font-family="Times,serif" font-size="14.00">cv</text>
<polyline fill="none" stroke="black" points="38.9967,-351.138 115.997,-351.138 "/>
<text text-anchor="start" x="46.9967" y="-335.938" font-family="Times,serif" font-size="14.00">&#45; cv_id</text>
<text text-anchor="start" x="46.9967" y="-320.938" font-family="Times,serif" font-size="14.00">&#45; name</text>
<text text-anchor="start" x="46.9967" y="-305.938" font-family="Times,serif" font-size="14.00">&#45; definition</text>
</g>
<!-- node2 -->
<g id="node2" class="node"><title>node2</title>
<polygon fill="white" stroke="black" points="194.601,-195.938 194.601,-331.938 322.601,-331.938 322.601,-195.938 194.601,-195.938"/>
<text text-anchor="middle" x="258.601" y="-316.738" font-family="Times,serif" font-size="14.00">cvterm</text>
<polyline fill="none" stroke="black" points="194.601,-308.938 322.601,-308.938 "/>
<text text-anchor="start" x="202.601" y="-293.738" font-family="Times,serif" font-size="14.00">&#45; cvterm_id</text>
<text text-anchor="start" x="202.601" y="-278.738" font-family="Times,serif" font-size="14.00">&#45; cv_id</text>
<text text-anchor="start" x="202.601" y="-263.738" font-family="Times,serif" font-size="14.00">&#45; name</text>
<text text-anchor="start" x="202.601" y="-248.738" font-family="Times,serif" font-size="14.00">&#45; definition</text>
<text text-anchor="start" x="202.601" y="-233.738" font-family="Times,serif" font-size="14.00">&#45; dbxref_id</text>
<text text-anchor="start" x="202.601" y="-218.738" font-family="Times,serif" font-size="14.00">&#45; is_obsolete</text>
<text text-anchor="start" x="202.601" y="-203.738" font-family="Times,serif" font-size="14.00">&#45; is_relationshiptype</text>
</g>
<!-- node1&#45;&gt;node2 -->
<g id="edge2" class="edge"><title>node1&#45;&gt;node2</title>
<path fill="none" stroke="black" d="M116.348,-320.649C136.442,-312.638 161.645,-302.591 185.232,-293.188"/>
<polygon fill="black" stroke="black" points="186.531,-296.438 194.524,-289.483 183.939,-289.935 186.531,-296.438"/>
</g>
<!-- node4 -->
<g id="node4" class="node"><title>node4</title>
<polygon fill="white" stroke="black" points="22.2604,-417.601 22.2604,-538.601 126.26,-538.601 126.26,-417.601 22.2604,-417.601"/>
<text text-anchor="middle" x="74.2604" y="-523.401" font-family="Times,serif" font-size="14.00">cvtermpath</text>
<polyline fill="none" stroke="black" points="22.2604,-515.601 126.26,-515.601 "/>
<text text-anchor="start" x="30.2604" y="-500.401" font-family="Times,serif" font-size="14.00">&#45; cvtermpath_id</text>
<text text-anchor="start" x="30.2604" y="-485.401" font-family="Times,serif" font-size="14.00">&#45; type_id</text>
<text text-anchor="start" x="30.2604" y="-470.401" font-family="Times,serif" font-size="14.00">&#45; subject_id</text>
<text text-anchor="start" x="30.2604" y="-455.401" font-family="Times,serif" font-size="14.00">&#45; object_id</text>
<text text-anchor="start" x="30.2604" y="-440.401" font-family="Times,serif" font-size="14.00">&#45; cv_id</text>
<text text-anchor="start" x="30.2604" y="-425.401" font-family="Times,serif" font-size="14.00">&#45; pathdistance</text>
</g>
<!-- node1&#45;&gt;node4 -->
<g id="edge3" class="edge"><title>node1&#45;&gt;node4</title>
<path fill="none" stroke="black" d="M76.6294,-374.181C76.3948,-384.472 76.1332,-395.95 75.8718,-407.417"/>
<polygon fill="black" stroke="black" points="72.3717,-407.384 75.6428,-417.462 79.3699,-407.544 72.3717,-407.384"/>
</g>
<!-- node9 -->
<g id="node9" class="node"><title>node9</title>
<polygon fill="white" stroke="black" points="30.321,-154.68 30.321,-260.68 110.321,-260.68 110.321,-154.68 30.321,-154.68"/>
<text text-anchor="middle" x="70.321" y="-245.48" font-family="Times,serif" font-size="14.00">cvprop</text>
<polyline fill="none" stroke="black" points="30.321,-237.68 110.321,-237.68 "/>
<text text-anchor="start" x="38.321" y="-222.48" font-family="Times,serif" font-size="14.00">&#45; cvprop_id</text>
<text text-anchor="start" x="38.321" y="-207.48" font-family="Times,serif" font-size="14.00">&#45; cv_id</text>
<text text-anchor="start" x="38.321" y="-192.48" font-family="Times,serif" font-size="14.00">&#45; type_id</text>
<text text-anchor="start" x="38.321" y="-177.48" font-family="Times,serif" font-size="14.00">&#45; value</text>
<text text-anchor="start" x="38.321" y="-162.48" font-family="Times,serif" font-size="14.00">&#45; rank</text>
</g>
<!-- node1&#45;&gt;node9 -->
<g id="edge1" class="edge"><title>node1&#45;&gt;node9</title>
<path fill="none" stroke="black" d="M75.3632,-297.944C74.8838,-289.363 74.3628,-280.035 73.8436,-270.74"/>
<polygon fill="black" stroke="black" points="77.3353,-270.493 73.2829,-260.704 70.3462,-270.883 77.3353,-270.493"/>
</g>
<!-- node3 -->
<g id="node3" class="node"><title>node3</title>
<polygon fill="white" stroke="black" points="127.031,-25.2196 127.031,-116.22 278.031,-116.22 278.031,-25.2196 127.031,-25.2196"/>
<text text-anchor="middle" x="202.531" y="-101.02" font-family="Times,serif" font-size="14.00">cvterm_relationship</text>
<polyline fill="none" stroke="black" points="127.031,-93.2196 278.031,-93.2196 "/>
<text text-anchor="start" x="135.031" y="-78.0196" font-family="Times,serif" font-size="14.00">&#45; cvterm_relationship_id</text>
<text text-anchor="start" x="135.031" y="-63.0196" font-family="Times,serif" font-size="14.00">&#45; type_id</text>
<text text-anchor="start" x="135.031" y="-48.0196" font-family="Times,serif" font-size="14.00">&#45; subject_id</text>
<text text-anchor="start" x="135.031" y="-33.0196" font-family="Times,serif" font-size="14.00">&#45; object_id</text>
</g>
<!-- node2&#45;&gt;node3 -->
<g id="edge7" class="edge"><title>node2&#45;&gt;node3</title>
<path fill="none" stroke="black" d="M238.833,-195.816C232.216,-173.015 224.925,-147.889 218.623,-126.174"/>
<polygon fill="black" stroke="black" points="221.952,-125.086 215.804,-116.458 215.229,-127.037 221.952,-125.086"/>
</g>
<!-- node2&#45;&gt;node4 -->
<g id="edge8" class="edge"><title>node2&#45;&gt;node4</title>
<path fill="none" stroke="black" d="M200.021,-331.995C178.62,-356.858 154.42,-384.974 133.004,-409.854"/>
<polygon fill="none" stroke="black" points="130.325,-407.602 126.454,-417.464 135.63,-412.168 130.325,-407.602"/>
</g>
<!-- node5 -->
<g id="node5" class="node"><title>node5</title>
<polygon fill="white" stroke="black" points="379.89,-409.78 379.89,-500.78 510.89,-500.78 510.89,-409.78 379.89,-409.78"/>
<text text-anchor="middle" x="445.39" y="-485.58" font-family="Times,serif" font-size="14.00">cvtermsynonym</text>
<polyline fill="none" stroke="black" points="379.89,-477.78 510.89,-477.78 "/>
<text text-anchor="start" x="387.89" y="-462.58" font-family="Times,serif" font-size="14.00">&#45; cvtermsynonym_id</text>
<text text-anchor="start" x="387.89" y="-447.58" font-family="Times,serif" font-size="14.00">&#45; cvterm_id</text>
<text text-anchor="start" x="387.89" y="-432.58" font-family="Times,serif" font-size="14.00">&#45; synonym</text>
<text text-anchor="start" x="387.89" y="-417.58" font-family="Times,serif" font-size="14.00">&#45; type_id</text>
</g>
<!-- node2&#45;&gt;node5 -->
<g id="edge10" class="edge"><title>node2&#45;&gt;node5</title>
<path fill="none" stroke="black" d="M322.622,-329.519C345.874,-353.338 371.83,-379.928 393.866,-402.5"/>
<polygon fill="black" stroke="black" points="391.384,-404.968 400.874,-409.679 396.393,-400.078 391.384,-404.968"/>
</g>
<!-- node6 -->
<g id="node6" class="node"><title>node6</title>
<polygon fill="white" stroke="black" points="203.145,-406.455 203.145,-497.455 325.145,-497.455 325.145,-406.455 203.145,-406.455"/>
<text text-anchor="middle" x="264.145" y="-482.255" font-family="Times,serif" font-size="14.00">cvterm_dbxref</text>
<polyline fill="none" stroke="black" points="203.145,-474.455 325.145,-474.455 "/>
<text text-anchor="start" x="211.145" y="-459.255" font-family="Times,serif" font-size="14.00">&#45; cvterm_dbxref_id</text>
<text text-anchor="start" x="211.145" y="-444.255" font-family="Times,serif" font-size="14.00">&#45; cvterm_id</text>
<text text-anchor="start" x="211.145" y="-429.255" font-family="Times,serif" font-size="14.00">&#45; dbxref_id</text>
<text text-anchor="start" x="211.145" y="-414.255" font-family="Times,serif" font-size="14.00">&#45; is_for_definition</text>
</g>
<!-- node2&#45;&gt;node6 -->
<g id="edge6" class="edge"><title>node2&#45;&gt;node6</title>
<path fill="none" stroke="black" d="M260.61,-332.082C261.231,-353.113 261.906,-376.016 262.499,-396.116"/>
<polygon fill="black" stroke="black" points="259.007,-396.453 262.8,-406.346 266.004,-396.247 259.007,-396.453"/>
</g>
<!-- node7 -->
<g id="node7" class="node"><title>node7</title>
<polygon fill="white" stroke="black" points="-1.42109e-14,-0.5 -1.42109e-14,-106.5 105,-106.5 105,-0.5 -1.42109e-14,-0.5"/>
<text text-anchor="middle" x="52.5" y="-91.3" font-family="Times,serif" font-size="14.00">cvtermprop</text>
<polyline fill="none" stroke="black" points="-1.42109e-14,-83.5 105,-83.5 "/>
<text text-anchor="start" x="8" y="-68.3" font-family="Times,serif" font-size="14.00">&#45; cvtermprop_id</text>
<text text-anchor="start" x="8" y="-53.3" font-family="Times,serif" font-size="14.00">&#45; cvterm_id</text>
<text text-anchor="start" x="8" y="-38.3" font-family="Times,serif" font-size="14.00">&#45; type_id</text>
<text text-anchor="start" x="8" y="-23.3" font-family="Times,serif" font-size="14.00">&#45; value</text>
<text text-anchor="start" x="8" y="-8.3" font-family="Times,serif" font-size="14.00">&#45; rank</text>
</g>
<!-- node2&#45;&gt;node7 -->
<g id="edge9" class="edge"><title>node2&#45;&gt;node7</title>
<path fill="none" stroke="black" d="M194.519,-198.508C168.056,-171.488 137.573,-140.363 111.648,-113.893"/>
<polygon fill="black" stroke="black" points="113.962,-111.253 104.464,-106.558 108.961,-116.151 113.962,-111.253"/>
</g>
<!-- node8 -->
<g id="node8" class="node"><title>node8</title>
<polygon fill="white" stroke="black" points="391.113,-215.781 391.113,-321.781 493.113,-321.781 493.113,-215.781 391.113,-215.781"/>
<text text-anchor="middle" x="442.113" y="-306.581" font-family="Times,serif" font-size="14.00">dbxrefprop</text>
<polyline fill="none" stroke="black" points="391.113,-298.781 493.113,-298.781 "/>
<text text-anchor="start" x="399.113" y="-283.581" font-family="Times,serif" font-size="14.00">&#45; dbxrefprop_id</text>
<text text-anchor="start" x="399.113" y="-268.581" font-family="Times,serif" font-size="14.00">&#45; dbxref_id</text>
<text text-anchor="start" x="399.113" y="-253.581" font-family="Times,serif" font-size="14.00">&#45; type_id</text>
<text text-anchor="start" x="399.113" y="-238.581" font-family="Times,serif" font-size="14.00">&#45; value</text>
<text text-anchor="start" x="399.113" y="-223.581" font-family="Times,serif" font-size="14.00">&#45; rank</text>
</g>
<!-- node2&#45;&gt;node8 -->
<g id="edge12" class="edge"><title>node2&#45;&gt;node8</title>
<path fill="none" stroke="black" d="M322.784,-265.632C341.622,-266.129 362.168,-266.671 380.82,-267.164"/>
<polygon fill="black" stroke="black" points="380.875,-270.666 390.964,-267.431 381.06,-263.669 380.875,-270.666"/>
</g>
<!-- node2&#45;&gt;node9 -->
<g id="edge5" class="edge"><title>node2&#45;&gt;node9</title>
<path fill="none" stroke="black" d="M194.595,-244.813C170.358,-237.571 143.141,-229.439 120.37,-222.635"/>
<polygon fill="black" stroke="black" points="121.16,-219.218 110.577,-219.709 119.156,-225.925 121.16,-219.218"/>
</g>
<!-- node10 -->
<g id="node10" class="node"><title>node10</title>
<polygon fill="white" stroke="black" points="416.891,-28.9371 416.891,-119.937 515.891,-119.937 515.891,-28.9371 416.891,-28.9371"/>
<text text-anchor="middle" x="466.391" y="-104.737" font-family="Times,serif" font-size="14.00">chadoprop</text>
<polyline fill="none" stroke="black" points="416.891,-96.9371 515.891,-96.9371 "/>
<text text-anchor="start" x="424.891" y="-81.7371" font-family="Times,serif" font-size="14.00">&#45; chadoprop_id</text>
<text text-anchor="start" x="424.891" y="-66.7371" font-family="Times,serif" font-size="14.00">&#45; type_id</text>
<text text-anchor="start" x="424.891" y="-51.7371" font-family="Times,serif" font-size="14.00">&#45; value</text>
<text text-anchor="start" x="424.891" y="-36.7371" font-family="Times,serif" font-size="14.00">&#45; rank</text>
</g>
<!-- node2&#45;&gt;node10 -->
<g id="edge4" class="edge"><title>node2&#45;&gt;node10</title>
<path fill="none" stroke="black" d="M322.64,-205.535C350.326,-180.287 382.462,-150.979 409.319,-126.486"/>
<polygon fill="black" stroke="black" points="411.716,-129.037 416.746,-119.713 406.999,-123.865 411.716,-129.037"/>
</g>
<!-- node11 -->
<g id="node11" class="node"><title>node11</title>
<polygon fill="white" stroke="black" points="287.343,-25.8522 287.343,-131.852 367.343,-131.852 367.343,-25.8522 287.343,-25.8522"/>
<text text-anchor="middle" x="327.343" y="-116.652" font-family="Times,serif" font-size="14.00">dbprop</text>
<polyline fill="none" stroke="black" points="287.343,-108.852 367.343,-108.852 "/>
<text text-anchor="start" x="295.343" y="-93.6522" font-family="Times,serif" font-size="14.00">&#45; dbprop_id</text>
<text text-anchor="start" x="295.343" y="-78.6522" font-family="Times,serif" font-size="14.00">&#45; db_id</text>
<text text-anchor="start" x="295.343" y="-63.6522" font-family="Times,serif" font-size="14.00">&#45; type_id</text>
<text text-anchor="start" x="295.343" y="-48.6522" font-family="Times,serif" font-size="14.00">&#45; value</text>
<text text-anchor="start" x="295.343" y="-33.6522" font-family="Times,serif" font-size="14.00">&#45; rank</text>
</g>
<!-- node2&#45;&gt;node11 -->
<g id="edge11" class="edge"><title>node2&#45;&gt;node11</title>
<path fill="none" stroke="black" d="M283.905,-195.807C290.495,-178.066 297.563,-159.035 304.043,-141.587"/>
<polygon fill="black" stroke="black" points="307.375,-142.667 307.576,-132.074 300.813,-140.23 307.375,-142.667"/>
</g>
</g>
</svg>
