<?xml version="1.0" encoding="UTF-8" standalone="no"?>
<!DOCTYPE svg PUBLIC "-//W3C//DTD SVG 1.0//EN"
 "http://www.w3.org/TR/2001/REC-SVG-20010904/DTD/svg10.dtd" [
 <!ATTLIST svg xmlns:xlink CDATA #FIXED "http://www.w3.org/1999/xlink">
]>
<!-- Generated by Graphviz version 2.20.2 (Wed Sep 16 11:12:11 UTC 2009)
     For user: (cain) Scott Cain,,, -->
<!-- Title: test Pages: 1 -->
<svg width="520pt" height="481pt"
 viewBox="0.00 0.00 520.00 481.00" xmlns="http://www.w3.org/2000/svg" xmlns:xlink="http://www.w3.org/1999/xlink">
<g id="graph0" class="graph" transform="scale(1 1) rotate(0) translate(4 477)">
<title>test</title>
<polygon style="fill:lightgoldenrodyellow;stroke:lightgoldenrodyellow;" points="-4,4 -4,-477 516,-477 516,4 -4,4"/>
<!-- node1 -->
<g id="node1" class="node"><title>node1</title>
<polygon style="fill:white;stroke:black;" points="22,-191 22,-275 112,-275 112,-191 22,-191"/>
<text text-anchor="middle" x="67" y="-257.9" style="font-family:Times New Roman;font-size:14.00;">cv</text>
<polyline style="fill:none;stroke:black;" points="22,-250 112,-250 "/>
<text text-anchor="start" x="30" y="-232.9" style="font-family:Times New Roman;font-size:14.00;">&#45; cv_id</text>
<text text-anchor="start" x="30" y="-215.9" style="font-family:Times New Roman;font-size:14.00;">&#45; name</text>
<text text-anchor="start" x="30" y="-198.9" style="font-family:Times New Roman;font-size:14.00;">&#45; definition</text>
</g>
<!-- node2 -->
<g id="node2" class="node"><title>node2</title>
<polygon style="fill:white;stroke:black;" points="189,-156 189,-308 345,-308 345,-156 189,-156"/>
<text text-anchor="middle" x="267" y="-290.9" style="font-family:Times New Roman;font-size:14.00;">cvterm</text>
<polyline style="fill:none;stroke:black;" points="189,-283 345,-283 "/>
<text text-anchor="start" x="197" y="-265.9" style="font-family:Times New Roman;font-size:14.00;">&#45; cvterm_id</text>
<text text-anchor="start" x="197" y="-248.9" style="font-family:Times New Roman;font-size:14.00;">&#45; cv_id</text>
<text text-anchor="start" x="197" y="-231.9" style="font-family:Times New Roman;font-size:14.00;">&#45; name</text>
<text text-anchor="start" x="197" y="-214.9" style="font-family:Times New Roman;font-size:14.00;">&#45; definition</text>
<text text-anchor="start" x="197" y="-197.9" style="font-family:Times New Roman;font-size:14.00;">&#45; dbxref_id</text>
<text text-anchor="start" x="197" y="-180.9" style="font-family:Times New Roman;font-size:14.00;">&#45; is_obsolete</text>
<text text-anchor="start" x="197" y="-163.9" style="font-family:Times New Roman;font-size:14.00;">&#45; is_relationshiptype</text>
</g>
<!-- node1&#45;&gt;node2 -->
<g id="edge2" class="edge"><title>node1&#45;&gt;node2</title>
<path style="fill:none;stroke:black;" d="M112,-233C132,-233 156,-232 179,-232"/>
<polygon style="fill:black;stroke:black;" points="179,-235.5 189,-232 179,-228.5 179,-235.5"/>
</g>
<!-- node4 -->
<g id="node4" class="node"><title>node4</title>
<polygon style="fill:white;stroke:black;" points="1,-337 1,-472 126,-472 126,-337 1,-337"/>
<text text-anchor="middle" x="63" y="-454.9" style="font-family:Times New Roman;font-size:14.00;">cvtermpath</text>
<polyline style="fill:none;stroke:black;" points="1,-447 126,-447 "/>
<text text-anchor="start" x="8.5" y="-430.4" style="font-family:Times New Roman;font-size:14.00;">&#45; cvtermpath_id</text>
<text text-anchor="start" x="8.5" y="-413.4" style="font-family:Times New Roman;font-size:14.00;">&#45; type_id</text>
<text text-anchor="start" x="8.5" y="-396.4" style="font-family:Times New Roman;font-size:14.00;">&#45; subject_id</text>
<text text-anchor="start" x="8.5" y="-379.4" style="font-family:Times New Roman;font-size:14.00;">&#45; object_id</text>
<text text-anchor="start" x="8.5" y="-362.4" style="font-family:Times New Roman;font-size:14.00;">&#45; cv_id</text>
<text text-anchor="start" x="8.5" y="-345.4" style="font-family:Times New Roman;font-size:14.00;">&#45; pathdistance</text>
</g>
<!-- node1&#45;&gt;node4 -->
<g id="edge4" class="edge"><title>node1&#45;&gt;node4</title>
<path style="fill:none;stroke:black;" d="M66,-275C66,-291 65,-309 65,-327"/>
<polygon style="fill:black;stroke:black;" points="61.5001,-327 65,-337 68.5001,-327 61.5001,-327"/>
</g>
<!-- node3 -->
<g id="node3" class="node"><title>node3</title>
<polygon style="fill:white;stroke:black;" points="164,-3 164,-104 346,-104 346,-3 164,-3"/>
<text text-anchor="middle" x="255" y="-86.9" style="font-family:Times New Roman;font-size:14.00;">cvterm_relationship</text>
<polyline style="fill:none;stroke:black;" points="164,-79 346,-79 "/>
<text text-anchor="start" x="172" y="-62.4" style="font-family:Times New Roman;font-size:14.00;">&#45; cvterm_relationship_id</text>
<text text-anchor="start" x="172" y="-45.4" style="font-family:Times New Roman;font-size:14.00;">&#45; type_id</text>
<text text-anchor="start" x="172" y="-28.4" style="font-family:Times New Roman;font-size:14.00;">&#45; subject_id</text>
<text text-anchor="start" x="172" y="-11.4" style="font-family:Times New Roman;font-size:14.00;">&#45; object_id</text>
</g>
<!-- node2&#45;&gt;node3 -->
<g id="edge8" class="edge"><title>node2&#45;&gt;node3</title>
<path style="fill:none;stroke:black;" d="M262,-156C261,-142 260,-128 260,-114"/>
<polygon style="fill:black;stroke:black;" points="263.478,-113.602 259,-104 256.512,-114.299 263.478,-113.602"/>
</g>
<!-- node2&#45;&gt;node4 -->
<g id="edge10" class="edge"><title>node2&#45;&gt;node4</title>
<path style="fill:none;stroke:black;" d="M189,-298C171,-314 152,-329 134,-344"/>
<polygon style="fill:none;stroke:black;" points="131.221,-341.781 126,-351 135.831,-347.049 131.221,-341.781"/>
</g>
<!-- node5 -->
<g id="node5" class="node"><title>node5</title>
<polygon style="fill:white;stroke:black;" points="355,-315 355,-416 511,-416 511,-315 355,-315"/>
<text text-anchor="middle" x="433" y="-398.9" style="font-family:Times New Roman;font-size:14.00;">cvtermsynonym</text>
<polyline style="fill:none;stroke:black;" points="355,-391 511,-391 "/>
<text text-anchor="start" x="363" y="-374.4" style="font-family:Times New Roman;font-size:14.00;">&#45; cvtermsynonym_id</text>
<text text-anchor="start" x="363" y="-357.4" style="font-family:Times New Roman;font-size:14.00;">&#45; cvterm_id</text>
<text text-anchor="start" x="363" y="-340.4" style="font-family:Times New Roman;font-size:14.00;">&#45; synonym</text>
<text text-anchor="start" x="363" y="-323.4" style="font-family:Times New Roman;font-size:14.00;">&#45; type_id</text>
</g>
<!-- node2&#45;&gt;node5 -->
<g id="edge14" class="edge"><title>node2&#45;&gt;node5</title>
<path style="fill:none;stroke:black;" d="M345,-295C350,-300 356,-304 362,-308"/>
<polygon style="fill:black;stroke:black;" points="360.169,-311.049 370,-315 364.779,-305.781 360.169,-311.049"/>
</g>
<!-- node6 -->
<g id="node6" class="node"><title>node6</title>
<polygon style="fill:white;stroke:black;" points="182,-360 182,-461 326,-461 326,-360 182,-360"/>
<text text-anchor="middle" x="254" y="-443.9" style="font-family:Times New Roman;font-size:14.00;">cvterm_dbxref</text>
<polyline style="fill:none;stroke:black;" points="182,-436 326,-436 "/>
<text text-anchor="start" x="190" y="-419.4" style="font-family:Times New Roman;font-size:14.00;">&#45; cvterm_dbxref_id</text>
<text text-anchor="start" x="190" y="-402.4" style="font-family:Times New Roman;font-size:14.00;">&#45; cvterm_id</text>
<text text-anchor="start" x="190" y="-385.4" style="font-family:Times New Roman;font-size:14.00;">&#45; dbxref_id</text>
<text text-anchor="start" x="190" y="-368.4" style="font-family:Times New Roman;font-size:14.00;">&#45; is_for_definition</text>
</g>
<!-- node2&#45;&gt;node6 -->
<g id="edge6" class="edge"><title>node2&#45;&gt;node6</title>
<path style="fill:none;stroke:black;" d="M261,-308C260,-322 259,-336 259,-350"/>
<polygon style="fill:black;stroke:black;" points="255.512,-349.701 258,-360 262.478,-350.398 255.512,-349.701"/>
</g>
<!-- node7 -->
<g id="node7" class="node"><title>node7</title>
<polygon style="fill:white;stroke:black;" points="1,-1 1,-119 125,-119 125,-1 1,-1"/>
<text text-anchor="middle" x="63" y="-101.9" style="font-family:Times New Roman;font-size:14.00;">cvtermprop</text>
<polyline style="fill:none;stroke:black;" points="1,-94 125,-94 "/>
<text text-anchor="start" x="9" y="-76.9" style="font-family:Times New Roman;font-size:14.00;">&#45; cvtermprop_id</text>
<text text-anchor="start" x="9" y="-59.9" style="font-family:Times New Roman;font-size:14.00;">&#45; cvterm_id</text>
<text text-anchor="start" x="9" y="-42.9" style="font-family:Times New Roman;font-size:14.00;">&#45; type_id</text>
<text text-anchor="start" x="9" y="-25.9" style="font-family:Times New Roman;font-size:14.00;">&#45; value</text>
<text text-anchor="start" x="9" y="-8.9" style="font-family:Times New Roman;font-size:14.00;">&#45; rank</text>
</g>
<!-- node2&#45;&gt;node7 -->
<g id="edge12" class="edge"><title>node2&#45;&gt;node7</title>
<path style="fill:none;stroke:black;" d="M189,-166C171,-150 151,-134 133,-119"/>
<polygon style="fill:black;stroke:black;" points="134.831,-115.951 125,-112 130.221,-121.219 134.831,-115.951"/>
</g>
<!-- node8 -->
<g id="node8" class="node"><title>node8</title>
<polygon style="fill:white;stroke:black;" points="374,-41 374,-159 494,-159 494,-41 374,-41"/>
<text text-anchor="middle" x="434" y="-141.9" style="font-family:Times New Roman;font-size:14.00;">dbxrefprop</text>
<polyline style="fill:none;stroke:black;" points="374,-134 494,-134 "/>
<text text-anchor="start" x="382" y="-116.9" style="font-family:Times New Roman;font-size:14.00;">&#45; dbxrefprop_id</text>
<text text-anchor="start" x="382" y="-99.9" style="font-family:Times New Roman;font-size:14.00;">&#45; dbxref_id</text>
<text text-anchor="start" x="382" y="-82.9" style="font-family:Times New Roman;font-size:14.00;">&#45; type_id</text>
<text text-anchor="start" x="382" y="-65.9" style="font-family:Times New Roman;font-size:14.00;">&#45; value</text>
<text text-anchor="start" x="382" y="-48.9" style="font-family:Times New Roman;font-size:14.00;">&#45; rank</text>
</g>
<!-- node2&#45;&gt;node8 -->
<g id="edge16" class="edge"><title>node2&#45;&gt;node8</title>
<path style="fill:none;stroke:black;" d="M345,-170C352,-165 359,-159 366,-154"/>
<polygon style="fill:black;stroke:black;" points="368.1,-156.8 374,-148 363.9,-151.2 368.1,-156.8"/>
</g>
</g>
</svg>
