<?xml version="1.0" encoding="UTF-8" standalone="no"?>
<!DOCTYPE svg PUBLIC "-//W3C//DTD SVG 1.0//EN"
 "http://www.w3.org/TR/2001/REC-SVG-20010904/DTD/svg10.dtd">
<!-- Generated by neato version 2.2.1 (Wed Apr 13 22:41:22 UTC 2005)
     For user: (allenday) Allen Day            Title: test    Pages: 1 -->
<svg width="731pt" height="588pt"
 viewBox = "-1 -1 730 587"
 xmlns="http://www.w3.org/2000/svg">
<g id="graph0" class="graph" style="font-family:Times-Roman;font-size:14.00;">
<title>test</title>
<g id="node1" class="node"><title>cv</title>
<polygon style="fill:white;stroke:black;" points="48,333 131,333 131,261 48,261 48,333"/>
<text text-anchor="start" x="56" y="278">{cv|&#45; cv_id </text>
<text text-anchor="start" x="56" y="294">&#45; name </text>
<text text-anchor="start" x="56" y="310">&#45; definition </text>
<text text-anchor="middle" x="89" y="326">}</text>
</g>
<g id="node2" class="node"><title>cvterm</title>
<polygon style="fill:white;stroke:black;" points="287,365 421,365 421,229 287,229 287,365"/>
<text text-anchor="start" x="295" y="246">{cvterm|&#45; cvterm_id </text>
<text text-anchor="start" x="295" y="262">&#45; cv_id </text>
<text text-anchor="start" x="295" y="278">&#45; name </text>
<text text-anchor="start" x="295" y="294">&#45; definition </text>
<text text-anchor="start" x="295" y="310">&#45; dbxref_id </text>
<text text-anchor="start" x="295" y="326">&#45; is_obsolete </text>
<text text-anchor="start" x="295" y="342">&#45; is_relationshiptype </text>
<text text-anchor="middle" x="354" y="358">}</text>
</g>
<g id="edge2" class="edge"><title>cv&#45;&gt;cvterm</title>
<path style="fill:none;stroke:black;" d="M131,297C170,297 229,297 277,297"/>
<polygon style="fill:black;stroke:black;" points="277,293 287,297 277,300 277,293"/>
</g>
<g id="node4" class="node"><title>cvtermpath</title>
<polygon style="fill:white;stroke:black;" points="10,139 192,139 192,19 10,19 10,139"/>
<text text-anchor="start" x="18" y="36">{cvtermpath|&#45; cvtermpath_id </text>
<text text-anchor="start" x="18" y="52">&#45; type_id </text>
<text text-anchor="start" x="18" y="68">&#45; subject_id </text>
<text text-anchor="start" x="18" y="84">&#45; object_id </text>
<text text-anchor="start" x="18" y="100">&#45; cv_id </text>
<text text-anchor="start" x="18" y="116">&#45; pathdistance </text>
<text text-anchor="middle" x="101" y="132">}</text>
</g>
<g id="edge4" class="edge"><title>cv&#45;&gt;cvtermpath</title>
<path style="fill:none;stroke:black;" d="M91,261C93,231 95,186 97,149"/>
<polygon style="fill:black;stroke:black;" points="94,149 98,139 100,149 94,149"/>
</g>
<g id="node3" class="node"><title>cvterm_relationship</title>
<polygon style="fill:white;stroke:black;" points="221,563 500,563 500,475 221,475 221,563"/>
<text text-anchor="start" x="229" y="492">{cvterm_relationship|&#45; cvterm_relationship_id </text>
<text text-anchor="start" x="229" y="508">&#45; type_id </text>
<text text-anchor="start" x="229" y="524">&#45; subject_id </text>
<text text-anchor="start" x="229" y="540">&#45; object_id </text>
<text text-anchor="middle" x="360" y="556">}</text>
</g>
<g id="edge8" class="edge"><title>cvterm&#45;&gt;cvterm_relationship</title>
<path style="fill:none;stroke:black;" d="M356,365C357,397 358,435 359,465"/>
<polygon style="fill:black;stroke:black;" points="363,465 359,475 356,465 363,465"/>
</g>
<g id="edge10" class="edge"><title>cvterm&#45;&gt;cvtermpath</title>
<path style="fill:none;stroke:black;" d="M287,239C254,210 213,175 179,146"/>
<polygon style="fill:black;stroke:black;" points="176,148 171,139 181,143 176,148"/>
</g>
<g id="node5" class="node"><title>cvtermsynonym</title>
<polygon style="fill:white;stroke:black;" points="486,177 721,177 721,89 486,89 486,177"/>
<text text-anchor="start" x="494" y="106">{cvtermsynonym|&#45; cvtermsynonym_id </text>
<text text-anchor="start" x="494" y="122">&#45; cvterm_id </text>
<text text-anchor="start" x="494" y="138">&#45; synonym </text>
<text text-anchor="start" x="494" y="154">&#45; type_id </text>
<text text-anchor="middle" x="603" y="170">}</text>
</g>
<g id="edge14" class="edge"><title>cvterm&#45;&gt;cvtermsynonym</title>
<path style="fill:none;stroke:black;" d="M421,253C454,231 493,205 527,183"/>
<polygon style="fill:black;stroke:black;" points="526,180 536,177 530,185 526,180"/>
</g>
<g id="node6" class="node"><title>cvterm_dbxref</title>
<polygon style="fill:white;stroke:black;" points="249,119 469,119 469,31 249,31 249,119"/>
<text text-anchor="start" x="257" y="48">{cvterm_dbxref|&#45; cvterm_dbxref_id </text>
<text text-anchor="start" x="257" y="64">&#45; cvterm_id </text>
<text text-anchor="start" x="257" y="80">&#45; dbxref_id </text>
<text text-anchor="start" x="257" y="96">&#45; is_for_definition </text>
<text text-anchor="middle" x="359" y="112">}</text>
</g>
<g id="edge6" class="edge"><title>cvterm&#45;&gt;cvterm_dbxref</title>
<path style="fill:none;stroke:black;" d="M356,229C357,197 357,159 358,129"/>
<polygon style="fill:black;stroke:black;" points="355,129 358,119 362,129 355,129"/>
</g>
<g id="node7" class="node"><title>cvtermprop</title>
<polygon style="fill:white;stroke:black;" points="9,567 193,567 193,463 9,463 9,567"/>
<text text-anchor="start" x="17" y="480">{cvtermprop|&#45; cvtermprop_id </text>
<text text-anchor="start" x="17" y="496">&#45; cvterm_id </text>
<text text-anchor="start" x="17" y="512">&#45; type_id </text>
<text text-anchor="start" x="17" y="528">&#45; value </text>
<text text-anchor="start" x="17" y="544">&#45; rank </text>
<text text-anchor="middle" x="101" y="560">}</text>
</g>
<g id="edge12" class="edge"><title>cvterm&#45;&gt;cvtermprop</title>
<path style="fill:none;stroke:black;" d="M287,355C251,386 205,424 170,456"/>
<polygon style="fill:black;stroke:black;" points="172,459 162,463 167,454 172,459"/>
</g>
<g id="node8" class="node"><title>dbxrefprop</title>
<polygon style="fill:white;stroke:black;" points="514,513 693,513 693,409 514,409 514,513"/>
<text text-anchor="start" x="522" y="426">{dbxrefprop|&#45; dbxrefprop_id </text>
<text text-anchor="start" x="522" y="442">&#45; dbxref_id </text>
<text text-anchor="start" x="522" y="458">&#45; type_id </text>
<text text-anchor="start" x="522" y="474">&#45; value </text>
<text text-anchor="start" x="522" y="490">&#45; rank </text>
<text text-anchor="middle" x="603" y="506">}</text>
</g>
<g id="edge16" class="edge"><title>cvterm&#45;&gt;dbxrefprop</title>
<path style="fill:none;stroke:black;" d="M421,341C450,360 485,383 515,403"/>
<polygon style="fill:black;stroke:black;" points="518,401 524,409 514,406 518,401"/>
</g>
</g>
</svg>
