<?xml version="1.0" encoding="UTF-8" standalone="no"?>
<!DOCTYPE svg PUBLIC "-//W3C//DTD SVG 1.0//EN"
 "http://www.w3.org/TR/2001/REC-SVG-20010904/DTD/svg10.dtd" [
 <!ATTLIST svg xmlns:xlink CDATA #FIXED "http://www.w3.org/1999/xlink">
]>
<!-- Generated by dot version 2.8 (Thu Sep 14 20:34:11 UTC 2006)
     For user: (scott) Scott Cain -->
<!-- Title: test Pages: 1 -->
<svg width="728pt" height="584pt"
 viewBox = "0 0 728 584"
 xmlns="http://www.w3.org/2000/svg" xmlns:xlink="http://www.w3.org/1999/xlink">
<g id="graph0" class="graph" style="font-family:Times-Roman;font-size:14.00;">
<title>test</title>
<polygon style="fill:white;stroke:white;" points="-2,586 -2,-3 730,-3 730,586 -2,586"/>
<!-- cv -->
<g id="node1" class="node"><title>cv</title>
<polygon style="fill:white;stroke:black;" points="36,330 114,330 114,262 36,262 36,330"/>
<text text-anchor="start" x="44" y="278" style="font-size:13.19pt;">{cv|&#45; cv_id </text>
<text text-anchor="start" x="44" y="293" style="font-size:13.19pt;">&#45; name </text>
<text text-anchor="start" x="44" y="308" style="font-size:13.19pt;">&#45; definition </text>
<text text-anchor="middle" x="75" y="324" style="font-size:13.19pt;">}</text>
</g>
<!-- cvterm -->
<g id="node2" class="node"><title>cvterm</title>
<polygon style="fill:white;stroke:black;" points="286,360 413,360 413,232 286,232 286,360"/>
<text text-anchor="start" x="293" y="248" style="font-size:13.19pt;">{cvterm|&#45; cvterm_id </text>
<text text-anchor="start" x="293" y="263" style="font-size:13.19pt;">&#45; cv_id </text>
<text text-anchor="start" x="293" y="278" style="font-size:13.19pt;">&#45; name </text>
<text text-anchor="start" x="293" y="293" style="font-size:13.19pt;">&#45; definition </text>
<text text-anchor="start" x="293" y="308" style="font-size:13.19pt;">&#45; dbxref_id </text>
<text text-anchor="start" x="293" y="324" style="font-size:13.19pt;">&#45; is_obsolete </text>
<text text-anchor="start" x="293" y="339" style="font-size:13.19pt;">&#45; is_relationshiptype </text>
<text text-anchor="middle" x="349" y="354" style="font-size:13.19pt;">}</text>
</g>
<!-- cv&#45;&gt;cvterm -->
<g id="edge2" class="edge"><title>cv&#45;&gt;cvterm</title>
<path style="fill:none;stroke:black;" d="M114,296C157,296 225,296 276,296"/>
<polygon style="fill:black;stroke:black;" points="276,292 286,296 276,299 276,292"/>
</g>
<!-- cvtermpath -->
<g id="node4" class="node"><title>cvtermpath</title>
<polygon style="fill:white;stroke:black;" points="6,128 177,128 177,15 6,15 6,128"/>
<text text-anchor="start" x="13" y="31" style="font-size:13.19pt;">{cvtermpath|&#45; cvtermpath_id </text>
<text text-anchor="start" x="13" y="47" style="font-size:13.19pt;">&#45; type_id </text>
<text text-anchor="start" x="13" y="62" style="font-size:13.19pt;">&#45; subject_id </text>
<text text-anchor="start" x="13" y="77" style="font-size:13.19pt;">&#45; object_id </text>
<text text-anchor="start" x="13" y="92" style="font-size:13.19pt;">&#45; cv_id </text>
<text text-anchor="start" x="13" y="107" style="font-size:13.19pt;">&#45; pathdistance </text>
<text text-anchor="middle" x="92" y="122" style="font-size:13.19pt;">}</text>
</g>
<!-- cv&#45;&gt;cvtermpath -->
<g id="edge4" class="edge"><title>cv&#45;&gt;cvtermpath</title>
<path style="fill:none;stroke:black;" d="M78,262C80,229 83,179 87,138"/>
<polygon style="fill:black;stroke:black;" points="84,138 88,128 90,138 84,138"/>
</g>
<!-- cvterm_relationship -->
<g id="node3" class="node"><title>cvterm_relationship</title>
<polygon style="fill:white;stroke:black;" points="230,566 494,566 494,483 230,483 230,566"/>
<text text-anchor="start" x="238" y="499" style="font-size:13.19pt;">{cvterm_relationship|&#45; cvterm_relationship_id </text>
<text text-anchor="start" x="238" y="514" style="font-size:13.19pt;">&#45; type_id </text>
<text text-anchor="start" x="238" y="529" style="font-size:13.19pt;">&#45; subject_id </text>
<text text-anchor="start" x="238" y="544" style="font-size:13.19pt;">&#45; object_id </text>
<text text-anchor="middle" x="362" y="559" style="font-size:13.19pt;">}</text>
</g>
<!-- cvterm&#45;&gt;cvterm_relationship -->
<g id="edge8" class="edge"><title>cvterm&#45;&gt;cvterm_relationship</title>
<path style="fill:none;stroke:black;" d="M353,360C355,396 356,440 358,473"/>
<polygon style="fill:black;stroke:black;" points="361,473 359,483 356,473 361,473"/>
</g>
<!-- cvterm&#45;&gt;cvtermpath -->
<g id="edge10" class="edge"><title>cvterm&#45;&gt;cvtermpath</title>
<path style="fill:none;stroke:black;" d="M286,241C249,209 202,169 164,135"/>
<polygon style="fill:black;stroke:black;" points="161,137 157,128 166,132 161,137"/>
</g>
<!-- cvtermsynonym -->
<g id="node5" class="node"><title>cvtermsynonym</title>
<polygon style="fill:white;stroke:black;" points="503,168 724,168 724,85 503,85 503,168"/>
<text text-anchor="start" x="510" y="101" style="font-size:13.19pt;">{cvtermsynonym|&#45; cvtermsynonym_id </text>
<text text-anchor="start" x="510" y="116" style="font-size:13.19pt;">&#45; cvterm_id </text>
<text text-anchor="start" x="510" y="131" style="font-size:13.19pt;">&#45; synonym </text>
<text text-anchor="start" x="510" y="146" style="font-size:13.19pt;">&#45; type_id </text>
<text text-anchor="middle" x="613" y="161" style="font-size:13.19pt;">}</text>
</g>
<!-- cvterm&#45;&gt;cvtermsynonym -->
<g id="edge14" class="edge"><title>cvterm&#45;&gt;cvtermsynonym</title>
<path style="fill:none;stroke:black;" d="M413,255C452,230 501,199 540,174"/>
<polygon style="fill:black;stroke:black;" points="539,171 549,168 543,176 539,171"/>
</g>
<!-- cvterm_dbxref -->
<g id="node6" class="node"><title>cvterm_dbxref</title>
<polygon style="fill:white;stroke:black;" points="258,110 466,110 466,27 258,27 258,110"/>
<text text-anchor="start" x="265" y="43" style="font-size:13.19pt;">{cvterm_dbxref|&#45; cvterm_dbxref_id </text>
<text text-anchor="start" x="265" y="58" style="font-size:13.19pt;">&#45; cvterm_id </text>
<text text-anchor="start" x="265" y="73" style="font-size:13.19pt;">&#45; dbxref_id </text>
<text text-anchor="start" x="265" y="88" style="font-size:13.19pt;">&#45; is_for_definition </text>
<text text-anchor="middle" x="361" y="103" style="font-size:13.19pt;">}</text>
</g>
<!-- cvterm&#45;&gt;cvterm_dbxref -->
<g id="edge6" class="edge"><title>cvterm&#45;&gt;cvterm_dbxref</title>
<path style="fill:none;stroke:black;" d="M353,232C355,196 356,152 358,119"/>
<polygon style="fill:black;stroke:black;" points="356,119 359,110 361,119 356,119"/>
</g>
<!-- cvtermprop -->
<g id="node7" class="node"><title>cvtermprop</title>
<polygon style="fill:white;stroke:black;" points="5,570 179,570 179,472 5,472 5,570"/>
<text text-anchor="start" x="12" y="488" style="font-size:13.19pt;">{cvtermprop|&#45; cvtermprop_id </text>
<text text-anchor="start" x="12" y="503" style="font-size:13.19pt;">&#45; cvterm_id </text>
<text text-anchor="start" x="12" y="518" style="font-size:13.19pt;">&#45; type_id </text>
<text text-anchor="start" x="12" y="533" style="font-size:13.19pt;">&#45; value </text>
<text text-anchor="start" x="12" y="548" style="font-size:13.19pt;">&#45; rank </text>
<text text-anchor="middle" x="92" y="563" style="font-size:13.19pt;">}</text>
</g>
<!-- cvterm&#45;&gt;cvtermprop -->
<g id="edge12" class="edge"><title>cvterm&#45;&gt;cvtermprop</title>
<path style="fill:none;stroke:black;" d="M286,352C246,387 195,430 156,465"/>
<polygon style="fill:black;stroke:black;" points="158,468 148,472 153,463 158,468"/>
</g>
<!-- dbxrefprop -->
<g id="node8" class="node"><title>dbxrefprop</title>
<polygon style="fill:white;stroke:black;" points="528,515 698,515 698,417 528,417 528,515"/>
<text text-anchor="start" x="536" y="433" style="font-size:13.19pt;">{dbxrefprop|&#45; dbxrefprop_id </text>
<text text-anchor="start" x="536" y="448" style="font-size:13.19pt;">&#45; dbxref_id </text>
<text text-anchor="start" x="536" y="463" style="font-size:13.19pt;">&#45; type_id </text>
<text text-anchor="start" x="536" y="478" style="font-size:13.19pt;">&#45; value </text>
<text text-anchor="start" x="536" y="493" style="font-size:13.19pt;">&#45; rank </text>
<text text-anchor="middle" x="613" y="508" style="font-size:13.19pt;">}</text>
</g>
<!-- cvterm&#45;&gt;dbxrefprop -->
<g id="edge16" class="edge"><title>cvterm&#45;&gt;dbxrefprop</title>
<path style="fill:none;stroke:black;" d="M413,338C448,359 491,388 528,411"/>
<polygon style="fill:black;stroke:black;" points="531,409 536,417 527,414 531,409"/>
</g>
</g>
</svg>
