<?xml version="1.0" encoding="UTF-8" standalone="no"?>
<!DOCTYPE svg PUBLIC "-//W3C//DTD SVG 1.1//EN"
 "http://www.w3.org/Graphics/SVG/1.1/DTD/svg11.dtd">
<!-- Generated by graphviz version 2.38.0 (20140413.2041)
 -->
<!-- Title: test Pages: 1 -->
<svg width="192pt" height="117pt"
 viewBox="0.00 0.00 191.68 117.24" xmlns="http://www.w3.org/2000/svg" xmlns:xlink="http://www.w3.org/1999/xlink">
<g id="graph0" class="graph" transform="scale(1 1) rotate(0) translate(4 113.24)">
<title>test</title>
<polygon fill="lightgoldenrodyellow" stroke="none" points="-4,4 -4,-113.24 187.676,-113.24 187.676,4 -4,4"/>
<!-- node1 -->
<g id="node1" class="node"><title>node1</title>
<polygon fill="white" stroke="black" points="0,-2.73979 0,-108.74 85,-108.74 85,-2.73979 0,-2.73979"/>
<text text-anchor="middle" x="42.5" y="-93.5398" font-family="Times,serif" font-size="14.00">db</text>
<polyline fill="none" stroke="black" points="0,-85.7398 85,-85.7398 "/>
<text text-anchor="start" x="8" y="-70.5398" font-family="Times,serif" font-size="14.00">&#45; db_id</text>
<text text-anchor="start" x="8" y="-55.5398" font-family="Times,serif" font-size="14.00">&#45; name</text>
<text text-anchor="start" x="8" y="-40.5398" font-family="Times,serif" font-size="14.00">&#45; description</text>
<text text-anchor="start" x="8" y="-25.5398" font-family="Times,serif" font-size="14.00">&#45; urlprefix</text>
<text text-anchor="start" x="8" y="-10.5398" font-family="Times,serif" font-size="14.00">&#45; url</text>
</g>
<!-- node2 -->
<g id="node2" class="node"><title>node2</title>
<polygon fill="white" stroke="black" points="98.6765,-0.5 98.6765,-106.5 183.676,-106.5 183.676,-0.5 98.6765,-0.5"/>
<text text-anchor="middle" x="141.176" y="-91.3" font-family="Times,serif" font-size="14.00">dbxref</text>
<polyline fill="none" stroke="black" points="98.6765,-83.5 183.676,-83.5 "/>
<text text-anchor="start" x="106.676" y="-68.3" font-family="Times,serif" font-size="14.00">&#45; dbxref_id</text>
<text text-anchor="start" x="106.676" y="-53.3" font-family="Times,serif" font-size="14.00">&#45; db_id</text>
<text text-anchor="start" x="106.676" y="-38.3" font-family="Times,serif" font-size="14.00">&#45; accession</text>
<text text-anchor="start" x="106.676" y="-23.3" font-family="Times,serif" font-size="14.00">&#45; version</text>
<text text-anchor="start" x="106.676" y="-8.3" font-family="Times,serif" font-size="14.00">&#45; description</text>
</g>
<!-- node1&#45;&gt;node2 -->
<g id="edge1" class="edge"><title>node1&#45;&gt;node2</title>
<path fill="none" stroke="black" d="M85.207,-54.7704C86.1641,-54.7487 87.1246,-54.7269 88.087,-54.705"/>
<polygon fill="black" stroke="black" points="88.4865,-58.197 98.4045,-54.4709 88.3276,-51.1988 88.4865,-58.197"/>
</g>
</g>
</svg>
