<?xml version="1.0" encoding="UTF-8" standalone="no"?>
<!DOCTYPE svg PUBLIC "-//W3C//DTD SVG 1.0//EN"
 "http://www.w3.org/TR/2001/REC-SVG-20010904/DTD/svg10.dtd" [
 <!ATTLIST svg xmlns:xlink CDATA #FIXED "http://www.w3.org/1999/xlink">
]>
<!-- Generated by dot version 2.8 (Thu Sep 14 20:34:11 UTC 2006)
     For user: (scott) Scott Cain -->
<!-- Title: test Pages: 1 -->
<svg width="728pt" height="584pt"
 viewBox = "0 0 728 584"
 xmlns="http://www.w3.org/2000/svg" xmlns:xlink="http://www.w3.org/1999/xlink">
<g id="graph0" class="graph" style="font-family:Times-Roman;font-size:14.00;">
<title>test</title>
<polygon style="fill:white;stroke:white;" points="-2,586 -2,-2 730,-2 730,586 -2,586"/>
<!-- expression -->
<g id="node1" class="node"><title>expression</title>
<polygon style="fill:white;stroke:black;" points="346,66 442,66 442,18 346,18 346,66"/>
<text text-anchor="start" x="350" y="27" style="font-size:7.71pt;">{expression|&#45; expression_id </text>
<text text-anchor="start" x="350" y="36" style="font-size:7.71pt;">&#45; uniquename </text>
<text text-anchor="start" x="350" y="45" style="font-size:7.71pt;">&#45; md5checksum </text>
<text text-anchor="start" x="350" y="54" style="font-size:7.71pt;">&#45; description </text>
<text text-anchor="middle" x="393" y="63" style="font-size:7.71pt;">}</text>
</g>
<!-- expression_cvterm -->
<g id="node2" class="node"><title>expression_cvterm</title>
<polygon style="fill:white;stroke:black;" points="424,301 571,301 571,244 424,244 424,301"/>
<text text-anchor="start" x="428" y="253" style="font-size:7.71pt;">{expression_cvterm|&#45; expression_cvterm_id </text>
<text text-anchor="start" x="428" y="262" style="font-size:7.71pt;">&#45; expression_id </text>
<text text-anchor="start" x="428" y="271" style="font-size:7.71pt;">&#45; cvterm_id </text>
<text text-anchor="start" x="428" y="280" style="font-size:7.71pt;">&#45; rank </text>
<text text-anchor="start" x="428" y="288" style="font-size:7.71pt;">&#45; cvterm_type_id </text>
<text text-anchor="middle" x="497" y="297" style="font-size:7.71pt;">}</text>
</g>
<!-- expression&#45;&gt;expression_cvterm -->
<g id="edge4" class="edge"><title>expression&#45;&gt;expression_cvterm</title>
<path style="fill:none;stroke:black;" d="M404,66C423,108 461,191 482,239"/>
<polygon style="fill:black;stroke:black;" points="484,238 484,244 481,239 484,238"/>
</g>
<!-- expressionprop -->
<g id="node4" class="node"><title>expressionprop</title>
<polygon style="fill:white;stroke:black;" points="58,123 182,123 182,65 58,65 58,123"/>
<text text-anchor="start" x="62" y="75" style="font-size:7.71pt;">{expressionprop|&#45; expressionprop_id </text>
<text text-anchor="start" x="62" y="83" style="font-size:7.71pt;">&#45; expression_id </text>
<text text-anchor="start" x="62" y="92" style="font-size:7.71pt;">&#45; type_id </text>
<text text-anchor="start" x="62" y="101" style="font-size:7.71pt;">&#45; value </text>
<text text-anchor="start" x="62" y="110" style="font-size:7.71pt;">&#45; rank </text>
<text text-anchor="middle" x="120" y="119" style="font-size:7.71pt;">}</text>
</g>
<!-- expression&#45;&gt;expressionprop -->
<g id="edge10" class="edge"><title>expression&#45;&gt;expressionprop</title>
<path style="fill:none;stroke:black;" d="M346,52C301,60 237,72 188,81"/>
<polygon style="fill:black;stroke:black;" points="188,83 182,82 187,80 188,83"/>
</g>
<!-- expression_pub -->
<g id="node5" class="node"><title>expression_pub</title>
<polygon style="fill:white;stroke:black;" points="597,118 723,118 723,79 597,79 597,118"/>
<text text-anchor="start" x="601" y="88" style="font-size:7.71pt;">{expression_pub|&#45; expression_pub_id </text>
<text text-anchor="start" x="601" y="97" style="font-size:7.71pt;">&#45; expression_id </text>
<text text-anchor="start" x="601" y="106" style="font-size:7.71pt;">&#45; pub_id </text>
<text text-anchor="middle" x="660" y="114" style="font-size:7.71pt;">}</text>
</g>
<!-- expression&#45;&gt;expression_pub -->
<g id="edge8" class="edge"><title>expression&#45;&gt;expression_pub</title>
<path style="fill:none;stroke:black;" d="M442,53C484,61 544,74 591,84"/>
<polygon style="fill:black;stroke:black;" points="592,82 597,85 591,86 592,82"/>
</g>
<!-- feature_expression -->
<g id="node6" class="node"><title>feature_expression</title>
<polygon style="fill:white;stroke:black;" points="206,564 352,564 352,515 206,515 206,564"/>
<text text-anchor="start" x="210" y="525" style="font-size:7.71pt;">{feature_expression|&#45; feature_expression_id </text>
<text text-anchor="start" x="210" y="534" style="font-size:7.71pt;">&#45; expression_id </text>
<text text-anchor="start" x="210" y="542" style="font-size:7.71pt;">&#45; feature_id </text>
<text text-anchor="start" x="210" y="551" style="font-size:7.71pt;">&#45; pub_id </text>
<text text-anchor="middle" x="279" y="560" style="font-size:7.71pt;">}</text>
</g>
<!-- expression&#45;&gt;feature_expression -->
<g id="edge12" class="edge"><title>expression&#45;&gt;feature_expression</title>
<path style="fill:none;stroke:black;" d="M388,66C369,149 306,420 285,510"/>
<polygon style="fill:black;stroke:black;" points="287,510 284,515 284,510 287,510"/>
</g>
<!-- expression_image -->
<g id="node9" class="node"><title>expression_image</title>
<polygon style="fill:white;stroke:black;" points="230,292 371,292 371,253 230,253 230,292"/>
<text text-anchor="start" x="234" y="262" style="font-size:7.71pt;">{expression_image|&#45; expression_image_id </text>
<text text-anchor="start" x="234" y="271" style="font-size:7.71pt;">&#45; expression_id </text>
<text text-anchor="start" x="234" y="280" style="font-size:7.71pt;">&#45; eimage_id </text>
<text text-anchor="middle" x="300" y="288" style="font-size:7.71pt;">}</text>
</g>
<!-- expression&#45;&gt;expression_image -->
<g id="edge6" class="edge"><title>expression&#45;&gt;expression_image</title>
<path style="fill:none;stroke:black;" d="M384,66C366,111 329,203 311,248"/>
<polygon style="fill:black;stroke:black;" points="312,248 309,253 309,247 312,248"/>
</g>
<!-- expression_cvtermprop -->
<g id="node3" class="node"><title>expression_cvtermprop</title>
<polygon style="fill:white;stroke:black;" points="373,564 548,564 548,507 373,507 373,564"/>
<text text-anchor="start" x="377" y="516" style="font-size:7.71pt;">{expression_cvtermprop|&#45; expression_cvtermprop_id </text>
<text text-anchor="start" x="377" y="525" style="font-size:7.71pt;">&#45; expression_cvterm_id </text>
<text text-anchor="start" x="377" y="534" style="font-size:7.71pt;">&#45; type_id </text>
<text text-anchor="start" x="377" y="542" style="font-size:7.71pt;">&#45; value </text>
<text text-anchor="start" x="377" y="551" style="font-size:7.71pt;">&#45; rank </text>
<text text-anchor="middle" x="461" y="560" style="font-size:7.71pt;">}</text>
</g>
<!-- expression_cvterm&#45;&gt;expression_cvtermprop -->
<g id="edge14" class="edge"><title>expression_cvterm&#45;&gt;expression_cvtermprop</title>
<path style="fill:none;stroke:black;" d="M493,301C486,350 473,449 465,501"/>
<polygon style="fill:black;stroke:black;" points="467,501 465,507 463,501 467,501"/>
</g>
<!-- feature_expressionprop -->
<g id="node7" class="node"><title>feature_expressionprop</title>
<polygon style="fill:white;stroke:black;" points="5,496 179,496 179,439 5,439 5,496"/>
<text text-anchor="start" x="9" y="448" style="font-size:7.71pt;">{feature_expressionprop|&#45; feature_expressionprop_id </text>
<text text-anchor="start" x="9" y="457" style="font-size:7.71pt;">&#45; feature_expression_id </text>
<text text-anchor="start" x="9" y="466" style="font-size:7.71pt;">&#45; type_id </text>
<text text-anchor="start" x="9" y="475" style="font-size:7.71pt;">&#45; value </text>
<text text-anchor="start" x="9" y="483" style="font-size:7.71pt;">&#45; rank </text>
<text text-anchor="middle" x="92" y="492" style="font-size:7.71pt;">}</text>
</g>
<!-- feature_expression&#45;&gt;feature_expressionprop -->
<g id="edge16" class="edge"><title>feature_expression&#45;&gt;feature_expressionprop</title>
<path style="fill:none;stroke:black;" d="M216,515C201,510 186,504 171,498"/>
<polygon style="fill:black;stroke:black;" points="170,500 166,496 172,496 170,500"/>
</g>
<!-- eimage -->
<g id="node8" class="node"><title>eimage</title>
<polygon style="fill:white;stroke:black;" points="634,508 709,508 709,460 634,460 634,508"/>
<text text-anchor="start" x="639" y="469" style="font-size:7.71pt;">{eimage|&#45; eimage_id </text>
<text text-anchor="start" x="639" y="478" style="font-size:7.71pt;">&#45; eimage_data </text>
<text text-anchor="start" x="639" y="487" style="font-size:7.71pt;">&#45; eimage_type </text>
<text text-anchor="start" x="639" y="496" style="font-size:7.71pt;">&#45; image_uri </text>
<text text-anchor="middle" x="672" y="504" style="font-size:7.71pt;">}</text>
</g>
<!-- eimage&#45;&gt;expression_image -->
<g id="edge2" class="edge"><title>eimage&#45;&gt;expression_image</title>
<path style="fill:none;stroke:black;" d="M634,462C564,423 412,336 340,295"/>
<polygon style="fill:black;stroke:black;" points="339,297 335,292 341,293 339,297"/>
</g>
</g>
</svg>
