<?xml version="1.0" encoding="UTF-8" standalone="no"?>
<!DOCTYPE svg PUBLIC "-//W3C//DTD SVG 1.1//EN"
 "http://www.w3.org/Graphics/SVG/1.1/DTD/svg11.dtd">
<!-- Generated by graphviz version 2.38.0 (20140413.2041)
 -->
<!-- Title: test Pages: 1 -->
<svg width="610pt" height="435pt"
 viewBox="0.00 0.00 609.96 434.53" xmlns="http://www.w3.org/2000/svg" xmlns:xlink="http://www.w3.org/1999/xlink">
<g id="graph0" class="graph" transform="scale(1 1) rotate(0) translate(4 430.525)">
<title>test</title>
<polygon fill="lightgoldenrodyellow" stroke="none" points="-4,4 -4,-430.525 605.955,-430.525 605.955,4 -4,4"/>
<!-- node1 -->
<g id="node1" class="node"><title>node1</title>
<polygon fill="white" stroke="black" points="257.193,-334.602 257.193,-425.602 361.193,-425.602 361.193,-334.602 257.193,-334.602"/>
<text text-anchor="middle" x="309.193" y="-410.402" font-family="Times,serif" font-size="14.00">expression</text>
<polyline fill="none" stroke="black" points="257.193,-402.602 361.193,-402.602 "/>
<text text-anchor="start" x="265.193" y="-387.402" font-family="Times,serif" font-size="14.00">&#45; expression_id</text>
<text text-anchor="start" x="265.193" y="-372.402" font-family="Times,serif" font-size="14.00">&#45; uniquename</text>
<text text-anchor="start" x="265.193" y="-357.402" font-family="Times,serif" font-size="14.00">&#45; md5checksum</text>
<text text-anchor="start" x="265.193" y="-342.402" font-family="Times,serif" font-size="14.00">&#45; description</text>
</g>
<!-- node2 -->
<g id="node2" class="node"><title>node2</title>
<polygon fill="white" stroke="black" points="456.955,-177.203 456.955,-283.203 601.955,-283.203 601.955,-177.203 456.955,-177.203"/>
<text text-anchor="middle" x="529.455" y="-268.003" font-family="Times,serif" font-size="14.00">expression_cvterm</text>
<polyline fill="none" stroke="black" points="456.955,-260.203 601.955,-260.203 "/>
<text text-anchor="start" x="464.955" y="-245.003" font-family="Times,serif" font-size="14.00">&#45; expression_cvterm_id</text>
<text text-anchor="start" x="464.955" y="-230.003" font-family="Times,serif" font-size="14.00">&#45; expression_id</text>
<text text-anchor="start" x="464.955" y="-215.003" font-family="Times,serif" font-size="14.00">&#45; cvterm_id</text>
<text text-anchor="start" x="464.955" y="-200.003" font-family="Times,serif" font-size="14.00">&#45; rank</text>
<text text-anchor="start" x="464.955" y="-185.003" font-family="Times,serif" font-size="14.00">&#45; cvterm_type_id</text>
</g>
<!-- node1&#45;&gt;node2 -->
<g id="edge2" class="edge"><title>node1&#45;&gt;node2</title>
<path fill="none" stroke="black" d="M361.392,-344.578C387.328,-326.928 419.257,-305.199 448.293,-285.438"/>
<polygon fill="black" stroke="black" points="450.501,-288.169 456.799,-279.649 446.563,-282.382 450.501,-288.169"/>
</g>
<!-- node4 -->
<g id="node4" class="node"><title>node4</title>
<polygon fill="white" stroke="black" points="32.6959,-309.3 32.6959,-415.3 157.696,-415.3 157.696,-309.3 32.6959,-309.3"/>
<text text-anchor="middle" x="95.1959" y="-400.1" font-family="Times,serif" font-size="14.00">expressionprop</text>
<polyline fill="none" stroke="black" points="32.6959,-392.3 157.696,-392.3 "/>
<text text-anchor="start" x="40.6959" y="-377.1" font-family="Times,serif" font-size="14.00">&#45; expressionprop_id</text>
<text text-anchor="start" x="40.6959" y="-362.1" font-family="Times,serif" font-size="14.00">&#45; expression_id</text>
<text text-anchor="start" x="40.6959" y="-347.1" font-family="Times,serif" font-size="14.00">&#45; type_id</text>
<text text-anchor="start" x="40.6959" y="-332.1" font-family="Times,serif" font-size="14.00">&#45; value</text>
<text text-anchor="start" x="40.6959" y="-317.1" font-family="Times,serif" font-size="14.00">&#45; rank</text>
</g>
<!-- node1&#45;&gt;node4 -->
<g id="edge5" class="edge"><title>node1&#45;&gt;node4</title>
<path fill="none" stroke="black" d="M257.117,-375.77C230.335,-373.542 197.254,-370.79 167.989,-368.356"/>
<polygon fill="black" stroke="black" points="168.069,-364.851 157.813,-367.509 167.488,-371.826 168.069,-364.851"/>
</g>
<!-- node5 -->
<g id="node5" class="node"><title>node5</title>
<polygon fill="white" stroke="black" points="444.581,-350.025 444.581,-426.025 571.581,-426.025 571.581,-350.025 444.581,-350.025"/>
<text text-anchor="middle" x="508.081" y="-410.825" font-family="Times,serif" font-size="14.00">expression_pub</text>
<polyline fill="none" stroke="black" points="444.581,-403.025 571.581,-403.025 "/>
<text text-anchor="start" x="452.581" y="-387.825" font-family="Times,serif" font-size="14.00">&#45; expression_pub_id</text>
<text text-anchor="start" x="452.581" y="-372.825" font-family="Times,serif" font-size="14.00">&#45; expression_id</text>
<text text-anchor="start" x="452.581" y="-357.825" font-family="Times,serif" font-size="14.00">&#45; pub_id</text>
</g>
<!-- node1&#45;&gt;node5 -->
<g id="edge4" class="edge"><title>node1&#45;&gt;node5</title>
<path fill="none" stroke="black" d="M361.448,-382.184C383.704,-383.071 410.065,-384.121 434.256,-385.084"/>
<polygon fill="black" stroke="black" points="434.34,-388.59 444.472,-385.491 434.619,-381.596 434.34,-388.59"/>
</g>
<!-- node6 -->
<g id="node6" class="node"><title>node6</title>
<polygon fill="white" stroke="black" points="133.621,-181.376 133.621,-272.376 277.621,-272.376 277.621,-181.376 133.621,-181.376"/>
<text text-anchor="middle" x="205.621" y="-257.176" font-family="Times,serif" font-size="14.00">feature_expression</text>
<polyline fill="none" stroke="black" points="133.621,-249.376 277.621,-249.376 "/>
<text text-anchor="start" x="141.621" y="-234.176" font-family="Times,serif" font-size="14.00">&#45; feature_expression_id</text>
<text text-anchor="start" x="141.621" y="-219.176" font-family="Times,serif" font-size="14.00">&#45; expression_id</text>
<text text-anchor="start" x="141.621" y="-204.176" font-family="Times,serif" font-size="14.00">&#45; feature_id</text>
<text text-anchor="start" x="141.621" y="-189.176" font-family="Times,serif" font-size="14.00">&#45; pub_id</text>
</g>
<!-- node1&#45;&gt;node6 -->
<g id="edge6" class="edge"><title>node1&#45;&gt;node6</title>
<path fill="none" stroke="black" d="M278.398,-334.544C267.022,-317.714 254.019,-298.477 242.181,-280.964"/>
<polygon fill="black" stroke="black" points="244.976,-278.848 236.476,-272.523 239.176,-282.768 244.976,-278.848"/>
</g>
<!-- node9 -->
<g id="node9" class="node"><title>node9</title>
<polygon fill="white" stroke="black" points="297.14,-158.763 297.14,-234.763 437.14,-234.763 437.14,-158.763 297.14,-158.763"/>
<text text-anchor="middle" x="367.14" y="-219.563" font-family="Times,serif" font-size="14.00">expression_image</text>
<polyline fill="none" stroke="black" points="297.14,-211.763 437.14,-211.763 "/>
<text text-anchor="start" x="305.14" y="-196.563" font-family="Times,serif" font-size="14.00">&#45; expression_image_id</text>
<text text-anchor="start" x="305.14" y="-181.563" font-family="Times,serif" font-size="14.00">&#45; expression_id</text>
<text text-anchor="start" x="305.14" y="-166.563" font-family="Times,serif" font-size="14.00">&#45; eimage_id</text>
</g>
<!-- node1&#45;&gt;node9 -->
<g id="edge3" class="edge"><title>node1&#45;&gt;node9</title>
<path fill="none" stroke="black" d="M323.666,-334.311C332.294,-307.012 343.234,-272.398 351.981,-244.724"/>
<polygon fill="black" stroke="black" points="355.42,-245.458 355.096,-234.868 348.745,-243.349 355.42,-245.458"/>
</g>
<!-- node3 -->
<g id="node3" class="node"><title>node3</title>
<polygon fill="white" stroke="black" points="196.327,-0.5 196.327,-106.5 366.327,-106.5 366.327,-0.5 196.327,-0.5"/>
<text text-anchor="middle" x="281.327" y="-91.3" font-family="Times,serif" font-size="14.00">expression_cvtermprop</text>
<polyline fill="none" stroke="black" points="196.327,-83.5 366.327,-83.5 "/>
<text text-anchor="start" x="204.327" y="-68.3" font-family="Times,serif" font-size="14.00">&#45; expression_cvtermprop_id</text>
<text text-anchor="start" x="204.327" y="-53.3" font-family="Times,serif" font-size="14.00">&#45; expression_cvterm_id</text>
<text text-anchor="start" x="204.327" y="-38.3" font-family="Times,serif" font-size="14.00">&#45; type_id</text>
<text text-anchor="start" x="204.327" y="-23.3" font-family="Times,serif" font-size="14.00">&#45; value</text>
<text text-anchor="start" x="204.327" y="-8.3" font-family="Times,serif" font-size="14.00">&#45; rank</text>
</g>
<!-- node2&#45;&gt;node3 -->
<g id="edge7" class="edge"><title>node2&#45;&gt;node3</title>
<path fill="none" stroke="black" d="M456.685,-178.381C427.667,-157.716 394.106,-133.815 364.16,-112.49"/>
<polygon fill="black" stroke="black" points="365.993,-109.498 355.817,-106.548 361.932,-115.2 365.993,-109.498"/>
</g>
<!-- node7 -->
<g id="node7" class="node"><title>node7</title>
<polygon fill="white" stroke="black" points="0,-43.6581 0,-149.658 169,-149.658 169,-43.6581 0,-43.6581"/>
<text text-anchor="middle" x="84.5" y="-134.458" font-family="Times,serif" font-size="14.00">feature_expressionprop</text>
<polyline fill="none" stroke="black" points="0,-126.658 169,-126.658 "/>
<text text-anchor="start" x="8" y="-111.458" font-family="Times,serif" font-size="14.00">&#45; feature_expressionprop_id</text>
<text text-anchor="start" x="8" y="-96.4581" font-family="Times,serif" font-size="14.00">&#45; feature_expression_id</text>
<text text-anchor="start" x="8" y="-81.4581" font-family="Times,serif" font-size="14.00">&#45; type_id</text>
<text text-anchor="start" x="8" y="-66.4581" font-family="Times,serif" font-size="14.00">&#45; value</text>
<text text-anchor="start" x="8" y="-51.4581" font-family="Times,serif" font-size="14.00">&#45; rank</text>
</g>
<!-- node6&#45;&gt;node7 -->
<g id="edge8" class="edge"><title>node6&#45;&gt;node7</title>
<path fill="none" stroke="black" d="M163.259,-181.332C156.051,-173.583 148.464,-165.426 140.962,-157.36"/>
<polygon fill="black" stroke="black" points="143.482,-154.931 134.109,-149.993 138.357,-159.698 143.482,-154.931"/>
</g>
<!-- node8 -->
<g id="node8" class="node"><title>node8</title>
<polygon fill="white" stroke="black" points="458.79,-15.6904 458.79,-106.69 553.79,-106.69 553.79,-15.6904 458.79,-15.6904"/>
<text text-anchor="middle" x="506.29" y="-91.4904" font-family="Times,serif" font-size="14.00">eimage</text>
<polyline fill="none" stroke="black" points="458.79,-83.6904 553.79,-83.6904 "/>
<text text-anchor="start" x="466.79" y="-68.4904" font-family="Times,serif" font-size="14.00">&#45; eimage_id</text>
<text text-anchor="start" x="466.79" y="-53.4904" font-family="Times,serif" font-size="14.00">&#45; eimage_data</text>
<text text-anchor="start" x="466.79" y="-38.4904" font-family="Times,serif" font-size="14.00">&#45; eimage_type</text>
<text text-anchor="start" x="466.79" y="-23.4904" font-family="Times,serif" font-size="14.00">&#45; image_uri</text>
</g>
<!-- node8&#45;&gt;node9 -->
<g id="edge1" class="edge"><title>node8&#45;&gt;node9</title>
<path fill="none" stroke="black" d="M459.568,-106.711C444.911,-120.992 428.732,-136.755 414.061,-151.049"/>
<polygon fill="black" stroke="black" points="411.263,-148.888 406.542,-158.374 416.147,-153.902 411.263,-148.888"/>
</g>
</g>
</svg>
