<?xml version="1.0" encoding="UTF-8" standalone="no"?>
<!DOCTYPE svg PUBLIC "-//W3C//DTD SVG 1.0//EN"
 "http://www.w3.org/TR/2001/REC-SVG-20010904/DTD/svg10.dtd">
<!-- Generated by neato version 1.10 (Tue Nov 11 16:12:26 EST 2003)
     For user: (allenday) Allen Day   Title: test    Pages: 1 -->
<svg width="974px" height="782px"
 viewBox = "-1 -1 730 586"
 xmlns="http://www.w3.org/2000/svg">
<g id="graph0" class="graph" style="font-family:Times-Roman;font-size:14.00;">
<title>test</title>
<polygon style="fill:white;stroke:white;" points="0,584 0,-1 729,-1 729,584 0,584"/>
<g id="node1" class="node"><title>expression</title>
<polygon style="fill:white;stroke:black;" points="277,407 385,407 385,351 277,351 277,407"/>
<text text-anchor="middle" x="331" y="366">expression</text>
<polyline style="fill:none;stroke:black;" points="277,371 385,371 "/>
<text text-anchor="start" x="277" y="386">expression_id</text>
<text text-anchor="middle" x="331" y="402">description</text>
</g>
<g id="node2" class="node"><title>feature_expression</title>
<polygon style="fill:white;stroke:black;" points="499,550 667,550 667,478 499,478 499,550"/>
<text text-anchor="middle" x="583" y="493">feature_expression</text>
<polyline style="fill:none;stroke:black;" points="499,498 667,498 "/>
<text text-anchor="start" x="499" y="513">feature_expression_id</text>
<text text-anchor="start" x="499" y="529">expression_id</text>
<text text-anchor="middle" x="583" y="545">feature_id</text>
</g>
<g id="edge10" class="edge"><title>expression-&gt;feature_expression</title>
<path style="fill:none;stroke:black;" d="M384,407C425,429 466,451 507,473"/>
<polygon style="fill:black;stroke:black;" points="508,471 516,478 506,475 508,471"/>
</g>
<g id="node3" class="node"><title>expression_cvterm</title>
<polygon style="fill:white;stroke:black;" points="63,554 229,554 229,450 63,450 63,554"/>
<text text-anchor="middle" x="146" y="465">expression_cvterm</text>
<polyline style="fill:none;stroke:black;" points="63,470 229,470 "/>
<text text-anchor="start" x="63" y="485">expression_cvterm_id</text>
<text text-anchor="start" x="63" y="501">expression_id</text>
<text text-anchor="start" x="63" y="517">cvterm_id</text>
<text text-anchor="start" x="63" y="533">rank</text>
<text text-anchor="middle" x="146" y="549">cvterm_type</text>
</g>
<g id="edge4" class="edge"><title>expression-&gt;expression_cvterm</title>
<path style="fill:none;stroke:black;" d="M289,407C270,419 251,432 232,445"/>
<polygon style="fill:black;stroke:black;" points="234,447 224,450 231,443 234,447"/>
</g>
<g id="node4" class="node"><title>expression_pub</title>
<polygon style="fill:white;stroke:black;" points="92,165 237,165 237,93 92,93 92,165"/>
<text text-anchor="middle" x="164" y="108">expression_pub</text>
<polyline style="fill:none;stroke:black;" points="92,113 237,113 "/>
<text text-anchor="start" x="92" y="128">expression_pub_id</text>
<text text-anchor="start" x="92" y="144">expression_id</text>
<text text-anchor="middle" x="164" y="160">pub_id</text>
</g>
<g id="edge8" class="edge"><title>expression-&gt;expression_pub</title>
<path style="fill:none;stroke:black;" d="M312,351C273,291 232,232 193,172"/>
<polygon style="fill:black;stroke:black;" points="192,175 188,165 196,172 192,175"/>
</g>
<g id="node6" class="node"><title>expression_image</title>
<polygon style="fill:white;stroke:black;" points="481,300 640,300 640,228 481,228 481,300"/>
<text text-anchor="middle" x="560" y="243">expression_image</text>
<polyline style="fill:none;stroke:black;" points="481,248 640,248 "/>
<text text-anchor="start" x="481" y="263">expression_image_id</text>
<text text-anchor="start" x="481" y="279">expression_id</text>
<text text-anchor="middle" x="560" y="295">eimage_id</text>
</g>
<g id="edge6" class="edge"><title>expression-&gt;expression_image</title>
<path style="fill:none;stroke:black;" d="M385,352C417,336 449,320 481,304"/>
<polygon style="fill:black;stroke:black;" points="478,303 488,300 481,307 478,303"/>
</g>
<g id="node5" class="node"><title>eimage</title>
<polygon style="fill:white;stroke:black;" points="506,113 608,113 608,25 506,25 506,113"/>
<text text-anchor="middle" x="557" y="40">eimage</text>
<polyline style="fill:none;stroke:black;" points="506,45 608,45 "/>
<text text-anchor="start" x="506" y="60">eimage_id</text>
<text text-anchor="start" x="506" y="76">eimage_data</text>
<text text-anchor="start" x="506" y="92">eimage_type</text>
<text text-anchor="middle" x="557" y="108">image_uri</text>
</g>
<g id="edge2" class="edge"><title>eimage-&gt;expression_image</title>
<path style="fill:none;stroke:black;" d="M558,113C558,148 559,184 559,219"/>
<polygon style="fill:black;stroke:black;" points="562,218 559,228 557,218 562,218"/>
</g>
</g></svg>
