<?xml version="1.0" encoding="UTF-8" standalone="no"?>
<!DOCTYPE svg PUBLIC "-//W3C//DTD SVG 1.1//EN"
 "http://www.w3.org/Graphics/SVG/1.1/DTD/svg11.dtd">
<!-- Generated by graphviz version 2.27.20091228.0545 (20091228.0545)
 -->
<!-- Title: test Pages: 1 -->
<svg width="770pt" height="696pt"
 viewBox="0.00 0.00 770.00 696.00" xmlns="http://www.w3.org/2000/svg" xmlns:xlink="http://www.w3.org/1999/xlink">
<g id="graph1" class="graph" transform="scale(1 1) rotate(0) translate(4 692)">
<title>test</title>
<polygon fill="lightgoldenrodyellow" stroke="lightgoldenrodyellow" points="-4,5 -4,-692 767,-692 767,5 -4,5"/>
<!-- node1 -->
<g id="node1" class="node"><title>node1</title>
<polygon fill="white" stroke="black" points="507,-595.5 507,-686.5 616,-686.5 616,-595.5 507,-595.5"/>
<text text-anchor="middle" x="561.5" y="-669.9" font-family="Times,serif" font-size="14.00">expression</text>
<polyline fill="none" stroke="black" points="507,-663.5 616,-663.5 "/>
<text text-anchor="start" x="515" y="-646.9" font-family="Times,serif" font-size="14.00">&#45; expression_id</text>
<text text-anchor="start" x="515" y="-631.9" font-family="Times,serif" font-size="14.00">&#45; uniquename</text>
<text text-anchor="start" x="515" y="-616.9" font-family="Times,serif" font-size="14.00">&#45; md5checksum</text>
<text text-anchor="start" x="515" y="-601.9" font-family="Times,serif" font-size="14.00">&#45; description</text>
</g>
<!-- node2 -->
<g id="node2" class="node"><title>node2</title>
<polygon fill="white" stroke="black" points="89,-551.5 89,-657.5 241,-657.5 241,-551.5 89,-551.5"/>
<text text-anchor="middle" x="165" y="-640.9" font-family="Times,serif" font-size="14.00">expression_cvterm</text>
<polyline fill="none" stroke="black" points="89,-634.5 241,-634.5 "/>
<text text-anchor="start" x="97" y="-617.9" font-family="Times,serif" font-size="14.00">&#45; expression_cvterm_id</text>
<text text-anchor="start" x="97" y="-602.9" font-family="Times,serif" font-size="14.00">&#45; expression_id</text>
<text text-anchor="start" x="97" y="-587.9" font-family="Times,serif" font-size="14.00">&#45; cvterm_id</text>
<text text-anchor="start" x="97" y="-572.9" font-family="Times,serif" font-size="14.00">&#45; rank</text>
<text text-anchor="start" x="97" y="-557.9" font-family="Times,serif" font-size="14.00">&#45; cvterm_type_id</text>
</g>
<!-- node3 -->
<g id="node3" class="node"><title>node3</title>
<polygon fill="white" stroke="black" points="287,-485.5 287,-591.5 464,-591.5 464,-485.5 287,-485.5"/>
<text text-anchor="middle" x="375.5" y="-574.9" font-family="Times,serif" font-size="14.00">expression_cvtermprop</text>
<polyline fill="none" stroke="black" points="287,-568.5 464,-568.5 "/>
<text text-anchor="start" x="295" y="-551.9" font-family="Times,serif" font-size="14.00">&#45; expression_cvtermprop_id</text>
<text text-anchor="start" x="295" y="-536.9" font-family="Times,serif" font-size="14.00">&#45; expression_cvterm_id</text>
<text text-anchor="start" x="295" y="-521.9" font-family="Times,serif" font-size="14.00">&#45; type_id</text>
<text text-anchor="start" x="295" y="-506.9" font-family="Times,serif" font-size="14.00">&#45; value</text>
<text text-anchor="start" x="295" y="-491.9" font-family="Times,serif" font-size="14.00">&#45; rank</text>
</g>
<!-- node4 -->
<g id="node4" class="node"><title>node4</title>
<polygon fill="white" stroke="black" points="353,-1.5 353,-107.5 484,-107.5 484,-1.5 353,-1.5"/>
<text text-anchor="middle" x="418.5" y="-90.9" font-family="Times,serif" font-size="14.00">expressionprop</text>
<polyline fill="none" stroke="black" points="353,-84.5 484,-84.5 "/>
<text text-anchor="start" x="361" y="-67.9" font-family="Times,serif" font-size="14.00">&#45; expressionprop_id</text>
<text text-anchor="start" x="361" y="-52.9" font-family="Times,serif" font-size="14.00">&#45; expression_id</text>
<text text-anchor="start" x="361" y="-37.9" font-family="Times,serif" font-size="14.00">&#45; type_id</text>
<text text-anchor="start" x="361" y="-22.9" font-family="Times,serif" font-size="14.00">&#45; value</text>
<text text-anchor="start" x="361" y="-7.9" font-family="Times,serif" font-size="14.00">&#45; rank</text>
</g>
<!-- node5 -->
<g id="node5" class="node"><title>node5</title>
<polygon fill="white" stroke="black" points="67,-1.5 67,-77.5 199,-77.5 199,-1.5 67,-1.5"/>
<text text-anchor="middle" x="133" y="-60.9" font-family="Times,serif" font-size="14.00">expression_pub</text>
<polyline fill="none" stroke="black" points="67,-54.5 199,-54.5 "/>
<text text-anchor="start" x="75" y="-37.9" font-family="Times,serif" font-size="14.00">&#45; expression_pub_id</text>
<text text-anchor="start" x="75" y="-22.9" font-family="Times,serif" font-size="14.00">&#45; expression_id</text>
<text text-anchor="start" x="75" y="-7.9" font-family="Times,serif" font-size="14.00">&#45; pub_id</text>
</g>
<!-- node6 -->
<g id="node6" class="node"><title>node6</title>
<polygon fill="white" stroke="black" points="507,-243.5 507,-334.5 658,-334.5 658,-243.5 507,-243.5"/>
<text text-anchor="middle" x="582.5" y="-317.9" font-family="Times,serif" font-size="14.00">feature_expression</text>
<polyline fill="none" stroke="black" points="507,-311.5 658,-311.5 "/>
<text text-anchor="start" x="515" y="-294.9" font-family="Times,serif" font-size="14.00">&#45; feature_expression_id</text>
<text text-anchor="start" x="515" y="-279.9" font-family="Times,serif" font-size="14.00">&#45; expression_id</text>
<text text-anchor="start" x="515" y="-264.9" font-family="Times,serif" font-size="14.00">&#45; feature_id</text>
<text text-anchor="start" x="515" y="-249.9" font-family="Times,serif" font-size="14.00">&#45; pub_id</text>
</g>
<!-- node7 -->
<g id="node7" class="node"><title>node7</title>
<polygon fill="white" stroke="black" points="507,-441.5 507,-547.5 683,-547.5 683,-441.5 507,-441.5"/>
<text text-anchor="middle" x="595" y="-530.9" font-family="Times,serif" font-size="14.00">feature_expressionprop</text>
<polyline fill="none" stroke="black" points="507,-524.5 683,-524.5 "/>
<text text-anchor="start" x="515" y="-507.9" font-family="Times,serif" font-size="14.00">&#45; feature_expressionprop_id</text>
<text text-anchor="start" x="515" y="-492.9" font-family="Times,serif" font-size="14.00">&#45; feature_expression_id</text>
<text text-anchor="start" x="515" y="-477.9" font-family="Times,serif" font-size="14.00">&#45; type_id</text>
<text text-anchor="start" x="515" y="-462.9" font-family="Times,serif" font-size="14.00">&#45; value</text>
<text text-anchor="start" x="515" y="-447.9" font-family="Times,serif" font-size="14.00">&#45; rank</text>
</g>
<!-- node8 -->
<g id="node8" class="node"><title>node8</title>
<polygon fill="white" stroke="black" points="661,-595.5 661,-686.5 761,-686.5 761,-595.5 661,-595.5"/>
<text text-anchor="middle" x="711" y="-669.9" font-family="Times,serif" font-size="14.00">eimage</text>
<polyline fill="none" stroke="black" points="661,-663.5 761,-663.5 "/>
<text text-anchor="start" x="669" y="-646.9" font-family="Times,serif" font-size="14.00">&#45; eimage_id</text>
<text text-anchor="start" x="669" y="-631.9" font-family="Times,serif" font-size="14.00">&#45; eimage_data</text>
<text text-anchor="start" x="669" y="-616.9" font-family="Times,serif" font-size="14.00">&#45; eimage_type</text>
<text text-anchor="start" x="669" y="-601.9" font-family="Times,serif" font-size="14.00">&#45; image_uri</text>
</g>
<!-- node9 -->
<g id="node9" class="node"><title>node9</title>
<polygon fill="white" stroke="black" points="529,-45.5 529,-121.5 677,-121.5 677,-45.5 529,-45.5"/>
<text text-anchor="middle" x="603" y="-104.9" font-family="Times,serif" font-size="14.00">expression_image</text>
<polyline fill="none" stroke="black" points="529,-98.5 677,-98.5 "/>
<text text-anchor="start" x="537" y="-81.9" font-family="Times,serif" font-size="14.00">&#45; expression_image_id</text>
<text text-anchor="start" x="537" y="-66.9" font-family="Times,serif" font-size="14.00">&#45; expression_id</text>
<text text-anchor="start" x="537" y="-51.9" font-family="Times,serif" font-size="14.00">&#45; eimage_id</text>
</g>
<!-- expression -->
<g id="node10" class="node"><title>expression</title>
<polygon fill="white" stroke="black" points="366.256,-349.493 366.256,-385.493 443.256,-385.493 443.256,-349.493 366.256,-349.493"/>
<text text-anchor="middle" x="404.756" y="-362.393" font-family="Times,serif" font-size="14.00">expression</text>
</g>
<!-- expression_cvterm -->
<g id="node11" class="node"><title>expression_cvterm</title>
<polygon fill="white" stroke="black" points="412.722,-142.261 412.722,-178.261 536.722,-178.261 536.722,-142.261 412.722,-142.261"/>
<text text-anchor="middle" x="474.722" y="-155.161" font-family="Times,serif" font-size="14.00">expression_cvterm</text>
</g>
<!-- expression&#45;&gt;expression_cvterm -->
<g id="edge4" class="edge"><title>expression&#45;&gt;expression_cvterm</title>
<path fill="none" stroke="black" d="M410.843,-349.465C423.093,-313.181 450.794,-231.133 465.363,-187.98"/>
<polygon fill="black" stroke="black" points="468.717,-188.989 468.599,-178.395 462.085,-186.75 468.717,-188.989"/>
</g>
<!-- expressionprop -->
<g id="node13" class="node"><title>expressionprop</title>
<polygon fill="white" stroke="black" points="158.198,-399.803 158.198,-435.803 261.198,-435.803 261.198,-399.803 158.198,-399.803"/>
<text text-anchor="middle" x="209.698" y="-412.703" font-family="Times,serif" font-size="14.00">expressionprop</text>
</g>
<!-- expression&#45;&gt;expressionprop -->
<g id="edge10" class="edge"><title>expression&#45;&gt;expressionprop</title>
<path fill="none" stroke="black" d="M366.219,-377.432C339.169,-384.409 302.421,-393.887 271.33,-401.906"/>
<polygon fill="black" stroke="black" points="270.263,-398.567 261.454,-404.454 272.011,-405.345 270.263,-398.567"/>
</g>
<!-- expression_pub -->
<g id="node14" class="node"><title>expression_pub</title>
<polygon fill="white" stroke="black" points="539.125,-360.806 539.125,-396.806 643.125,-396.806 643.125,-360.806 539.125,-360.806"/>
<text text-anchor="middle" x="591.125" y="-373.706" font-family="Times,serif" font-size="14.00">expression_pub</text>
</g>
<!-- expression&#45;&gt;expression_pub -->
<g id="edge8" class="edge"><title>expression&#45;&gt;expression_pub</title>
<path fill="none" stroke="black" d="M443.372,-369.837C467.966,-371.33 500.39,-373.298 528.596,-375.01"/>
<polygon fill="black" stroke="black" points="528.581,-378.516 538.775,-375.628 529.005,-371.528 528.581,-378.516"/>
</g>
<!-- feature_expression -->
<g id="node15" class="node"><title>feature_expression</title>
<polygon fill="white" stroke="black" points="180.425,-260.557 180.425,-296.557 303.425,-296.557 303.425,-260.557 180.425,-260.557"/>
<text text-anchor="middle" x="241.925" y="-273.457" font-family="Times,serif" font-size="14.00">feature_expression</text>
</g>
<!-- expression&#45;&gt;feature_expression -->
<g id="edge12" class="edge"><title>expression&#45;&gt;feature_expression</title>
<path fill="none" stroke="black" d="M371.412,-349.281C346.083,-335.446 311.083,-316.33 283.856,-301.459"/>
<polygon fill="black" stroke="black" points="285.4,-298.314 274.946,-296.592 282.045,-304.457 285.4,-298.314"/>
</g>
<!-- expression_image -->
<g id="node17" class="node"><title>expression_image</title>
<polygon fill="white" stroke="black" points="276.727,-141.662 276.727,-177.662 396.727,-177.662 396.727,-141.662 276.727,-141.662"/>
<text text-anchor="middle" x="336.727" y="-154.562" font-family="Times,serif" font-size="14.00">expression_image</text>
</g>
<!-- expression&#45;&gt;expression_image -->
<g id="edge6" class="edge"><title>expression&#45;&gt;expression_image</title>
<path fill="none" stroke="black" d="M398.838,-349.413C386.927,-313.024 359.992,-230.738 345.826,-187.461"/>
<polygon fill="black" stroke="black" points="349.117,-186.263 342.68,-177.848 342.464,-188.441 349.117,-186.263"/>
</g>
<!-- expression_cvtermprop -->
<g id="node12" class="node"><title>expression_cvtermprop</title>
<polygon fill="white" stroke="black" points="546.732,-158.478 546.732,-194.478 695.732,-194.478 695.732,-158.478 546.732,-158.478"/>
<text text-anchor="middle" x="621.232" y="-171.378" font-family="Times,serif" font-size="14.00">expression_cvtermprop</text>
</g>
<!-- expression_cvterm&#45;&gt;expression_cvtermprop -->
<g id="edge14" class="edge"><title>expression_cvterm&#45;&gt;expression_cvtermprop</title>
<path fill="none" stroke="black" d="M536.855,-167.138C536.953,-167.149 537.05,-167.16 537.148,-167.171"/>
<polygon fill="black" stroke="black" points="535.949,-170.559 546.273,-168.181 536.719,-163.602 535.949,-170.559"/>
</g>
<!-- feature_expressionprop -->
<g id="node16" class="node"><title>feature_expressionprop</title>
<polygon fill="white" stroke="black" points="1,-296.295 1,-332.295 150,-332.295 150,-296.295 1,-296.295"/>
<text text-anchor="middle" x="75.5" y="-309.195" font-family="Times,serif" font-size="14.00">feature_expressionprop</text>
</g>
<!-- feature_expression&#45;&gt;feature_expressionprop -->
<g id="edge16" class="edge"><title>feature_expression&#45;&gt;feature_expressionprop</title>
<path fill="none" stroke="black" d="M179.954,-291.864C173.435,-293.264 166.729,-294.704 160.011,-296.147"/>
<polygon fill="black" stroke="black" points="159.224,-292.736 150.182,-298.258 160.694,-299.58 159.224,-292.736"/>
</g>
<!-- eimage -->
<g id="node18" class="node"><title>eimage</title>
<polygon fill="white" stroke="black" points="112.556,-111.5 112.556,-147.5 171.556,-147.5 171.556,-111.5 112.556,-111.5"/>
<text text-anchor="middle" x="142.056" y="-124.4" font-family="Times,serif" font-size="14.00">eimage</text>
</g>
<!-- eimage&#45;&gt;expression_image -->
<g id="edge2" class="edge"><title>eimage&#45;&gt;expression_image</title>
<path fill="none" stroke="black" d="M171.623,-134.081C196.781,-137.979 233.931,-143.735 266.624,-148.8"/>
<polygon fill="black" stroke="black" points="266.19,-152.275 276.608,-150.347 267.262,-145.357 266.19,-152.275"/>
</g>
</g>
</svg>
