<?xml version="1.0" encoding="UTF-8" standalone="no"?>
<!DOCTYPE svg PUBLIC "-//W3C//DTD SVG 1.0//EN"
 "http://www.w3.org/TR/2001/REC-SVG-20010904/DTD/svg10.dtd" [
 <!ATTLIST svg xmlns:xlink CDATA #FIXED "http://www.w3.org/1999/xlink">
]>
<!-- Generated by Graphviz version 2.12 (Tue Sep  4 16:56:48 UTC 2007)
     For user: (scott) Scott Cain,,, -->
<!-- Title: test Pages: 1 -->
<svg width="9.99in" height="7.99in"
 xmlns="http://www.w3.org/2000/svg" xmlns:xlink="http://www.w3.org/1999/xlink">
<g id="graph0" class="graph" transform="scale(1.31732 1.31732) rotate(0) translate(4 579)">
<title>test</title>
<polygon style="fill:white;stroke:white;" points="-4,4 -4,-579 724,-579 724,4 -4,4"/>
<!-- expression -->
<g id="node1" class="node"><title>expression</title>
<polygon style="fill:white;stroke:black;" points="325,-444 325,-560 434,-560 434,-444 325,-444"/>
<text text-anchor="middle" x="379" y="-542" style="font-family:Nimbus Roman No9 L;font-weight:regular;font-size:11.34pt;">expression</text>
<polyline style="fill:none;stroke:black;" points="325,-532 434,-532 "/>
<text text-anchor="start" x="333" y="-514" style="font-family:Nimbus Roman No9 L;font-weight:regular;font-size:11.34pt;">&#45; expression_id </text>
<text text-anchor="start" x="333" y="-494" style="font-family:Nimbus Roman No9 L;font-weight:regular;font-size:11.34pt;">&#45; uniquename </text>
<text text-anchor="start" x="333" y="-474" style="font-family:Nimbus Roman No9 L;font-weight:regular;font-size:11.34pt;">&#45; md5checksum </text>
<text text-anchor="start" x="333" y="-454" style="font-family:Nimbus Roman No9 L;font-weight:regular;font-size:11.34pt;">&#45; description </text>
</g>
<!-- expression_cvterm -->
<g id="node2" class="node"><title>expression_cvterm</title>
<polygon style="fill:white;stroke:black;" points="554,-250 554,-386 706,-386 706,-250 554,-250"/>
<text text-anchor="middle" x="630" y="-368" style="font-family:Nimbus Roman No9 L;font-weight:regular;font-size:11.34pt;">expression_cvterm</text>
<polyline style="fill:none;stroke:black;" points="554,-358 706,-358 "/>
<text text-anchor="start" x="562" y="-340" style="font-family:Nimbus Roman No9 L;font-weight:regular;font-size:11.34pt;">&#45; expression_cvterm_id </text>
<text text-anchor="start" x="562" y="-320" style="font-family:Nimbus Roman No9 L;font-weight:regular;font-size:11.34pt;">&#45; expression_id </text>
<text text-anchor="start" x="562" y="-300" style="font-family:Nimbus Roman No9 L;font-weight:regular;font-size:11.34pt;">&#45; cvterm_id </text>
<text text-anchor="start" x="562" y="-280" style="font-family:Nimbus Roman No9 L;font-weight:regular;font-size:11.34pt;">&#45; rank </text>
<text text-anchor="start" x="562" y="-260" style="font-family:Nimbus Roman No9 L;font-weight:regular;font-size:11.34pt;">&#45; cvterm_type_id </text>
</g>
<!-- expression&#45;&gt;expression_cvterm -->
<g id="edge4" class="edge"><title>expression&#45;&gt;expression_cvterm</title>
<path style="fill:none;stroke:black;" d="M434,-462C467,-438 509,-407 546,-380"/>
<polygon style="fill:black;stroke:black;" points="548.1,-382.8 554,-374 543.9,-377.2 548.1,-382.8"/>
</g>
<!-- expressionprop -->
<g id="node4" class="node"><title>expressionprop</title>
<polygon style="fill:white;stroke:black;" points="55,-419 55,-555 187,-555 187,-419 55,-419"/>
<text text-anchor="middle" x="121" y="-537" style="font-family:Nimbus Roman No9 L;font-weight:regular;font-size:11.34pt;">expressionprop</text>
<polyline style="fill:none;stroke:black;" points="55,-527 187,-527 "/>
<text text-anchor="start" x="63" y="-509" style="font-family:Nimbus Roman No9 L;font-weight:regular;font-size:11.34pt;">&#45; expressionprop_id </text>
<text text-anchor="start" x="63" y="-489" style="font-family:Nimbus Roman No9 L;font-weight:regular;font-size:11.34pt;">&#45; expression_id </text>
<text text-anchor="start" x="63" y="-469" style="font-family:Nimbus Roman No9 L;font-weight:regular;font-size:11.34pt;">&#45; type_id </text>
<text text-anchor="start" x="63" y="-449" style="font-family:Nimbus Roman No9 L;font-weight:regular;font-size:11.34pt;">&#45; value </text>
<text text-anchor="start" x="63" y="-429" style="font-family:Nimbus Roman No9 L;font-weight:regular;font-size:11.34pt;">&#45; rank </text>
</g>
<!-- expression&#45;&gt;expressionprop -->
<g id="edge10" class="edge"><title>expression&#45;&gt;expressionprop</title>
<path style="fill:none;stroke:black;" d="M325,-499C288,-496 238,-493 197,-491"/>
<polygon style="fill:black;stroke:black;" points="197,-487.5 187,-491 197,-494.5 197,-487.5"/>
</g>
<!-- expression_pub -->
<g id="node5" class="node"><title>expression_pub</title>
<polygon style="fill:white;stroke:black;" points="548,-471 548,-567 682,-567 682,-471 548,-471"/>
<text text-anchor="middle" x="615" y="-549" style="font-family:Nimbus Roman No9 L;font-weight:regular;font-size:11.34pt;">expression_pub</text>
<polyline style="fill:none;stroke:black;" points="548,-539 682,-539 "/>
<text text-anchor="start" x="556" y="-521" style="font-family:Nimbus Roman No9 L;font-weight:regular;font-size:11.34pt;">&#45; expression_pub_id </text>
<text text-anchor="start" x="556" y="-501" style="font-family:Nimbus Roman No9 L;font-weight:regular;font-size:11.34pt;">&#45; expression_id </text>
<text text-anchor="start" x="556" y="-481" style="font-family:Nimbus Roman No9 L;font-weight:regular;font-size:11.34pt;">&#45; pub_id </text>
</g>
<!-- expression&#45;&gt;expression_pub -->
<g id="edge8" class="edge"><title>expression&#45;&gt;expression_pub</title>
<path style="fill:none;stroke:black;" d="M434,-506C465,-508 504,-511 538,-513"/>
<polygon style="fill:black;stroke:black;" points="537.701,-516.488 548,-514 538.398,-509.522 537.701,-516.488"/>
</g>
<!-- feature_expression -->
<g id="node6" class="node"><title>feature_expression</title>
<polygon style="fill:white;stroke:black;" points="169,-251 169,-367 321,-367 321,-251 169,-251"/>
<text text-anchor="middle" x="245" y="-349" style="font-family:Nimbus Roman No9 L;font-weight:regular;font-size:11.34pt;">feature_expression</text>
<polyline style="fill:none;stroke:black;" points="169,-339 321,-339 "/>
<text text-anchor="start" x="177" y="-321" style="font-family:Nimbus Roman No9 L;font-weight:regular;font-size:11.34pt;">&#45; feature_expression_id </text>
<text text-anchor="start" x="177" y="-301" style="font-family:Nimbus Roman No9 L;font-weight:regular;font-size:11.34pt;">&#45; expression_id </text>
<text text-anchor="start" x="177" y="-281" style="font-family:Nimbus Roman No9 L;font-weight:regular;font-size:11.34pt;">&#45; feature_id </text>
<text text-anchor="start" x="177" y="-261" style="font-family:Nimbus Roman No9 L;font-weight:regular;font-size:11.34pt;">&#45; pub_id </text>
</g>
<!-- expression&#45;&gt;feature_expression -->
<g id="edge12" class="edge"><title>expression&#45;&gt;feature_expression</title>
<path style="fill:none;stroke:black;" d="M339,-444C324,-423 306,-398 291,-375"/>
<polygon style="fill:black;stroke:black;" points="293.8,-372.9 285,-367 288.2,-377.1 293.8,-372.9"/>
</g>
<!-- expression_image -->
<g id="node9" class="node"><title>expression_image</title>
<polygon style="fill:white;stroke:black;" points="364,-212 364,-308 511,-308 511,-212 364,-212"/>
<text text-anchor="middle" x="437" y="-290" style="font-family:Nimbus Roman No9 L;font-weight:regular;font-size:11.34pt;">expression_image</text>
<polyline style="fill:none;stroke:black;" points="364,-280 511,-280 "/>
<text text-anchor="start" x="372" y="-262" style="font-family:Nimbus Roman No9 L;font-weight:regular;font-size:11.34pt;">&#45; expression_image_id </text>
<text text-anchor="start" x="372" y="-242" style="font-family:Nimbus Roman No9 L;font-weight:regular;font-size:11.34pt;">&#45; expression_id </text>
<text text-anchor="start" x="372" y="-222" style="font-family:Nimbus Roman No9 L;font-weight:regular;font-size:11.34pt;">&#45; eimage_id </text>
</g>
<!-- expression&#45;&gt;expression_image -->
<g id="edge6" class="edge"><title>expression&#45;&gt;expression_image</title>
<path style="fill:none;stroke:black;" d="M393,-444C402,-405 414,-356 423,-318"/>
<polygon style="fill:black;stroke:black;" points="426.471,-318.492 425,-308 419.607,-317.119 426.471,-318.492"/>
</g>
<!-- expression_cvtermprop -->
<g id="node3" class="node"><title>expression_cvtermprop</title>
<polygon style="fill:white;stroke:black;" points="251,-13 251,-149 429,-149 429,-13 251,-13"/>
<text text-anchor="middle" x="340" y="-131" style="font-family:Nimbus Roman No9 L;font-weight:regular;font-size:11.34pt;">expression_cvtermprop</text>
<polyline style="fill:none;stroke:black;" points="251,-121 429,-121 "/>
<text text-anchor="start" x="259" y="-103" style="font-family:Nimbus Roman No9 L;font-weight:regular;font-size:11.34pt;">&#45; expression_cvtermprop_id </text>
<text text-anchor="start" x="259" y="-83" style="font-family:Nimbus Roman No9 L;font-weight:regular;font-size:11.34pt;">&#45; expression_cvterm_id </text>
<text text-anchor="start" x="259" y="-63" style="font-family:Nimbus Roman No9 L;font-weight:regular;font-size:11.34pt;">&#45; type_id </text>
<text text-anchor="start" x="259" y="-43" style="font-family:Nimbus Roman No9 L;font-weight:regular;font-size:11.34pt;">&#45; value </text>
<text text-anchor="start" x="259" y="-23" style="font-family:Nimbus Roman No9 L;font-weight:regular;font-size:11.34pt;">&#45; rank </text>
</g>
<!-- expression_cvterm&#45;&gt;expression_cvtermprop -->
<g id="edge14" class="edge"><title>expression_cvterm&#45;&gt;expression_cvtermprop</title>
<path style="fill:none;stroke:black;" d="M554,-256C517,-225 470,-188 431,-155"/>
<polygon style="fill:black;stroke:black;" points="433.1,-152.2 423,-149 428.9,-157.8 433.1,-152.2"/>
</g>
<!-- feature_expressionprop -->
<g id="node7" class="node"><title>feature_expressionprop</title>
<polygon style="fill:white;stroke:black;" points="15,-73 15,-209 193,-209 193,-73 15,-73"/>
<text text-anchor="middle" x="104" y="-191" style="font-family:Nimbus Roman No9 L;font-weight:regular;font-size:11.34pt;">feature_expressionprop</text>
<polyline style="fill:none;stroke:black;" points="15,-181 193,-181 "/>
<text text-anchor="start" x="23" y="-163" style="font-family:Nimbus Roman No9 L;font-weight:regular;font-size:11.34pt;">&#45; feature_expressionprop_id </text>
<text text-anchor="start" x="23" y="-143" style="font-family:Nimbus Roman No9 L;font-weight:regular;font-size:11.34pt;">&#45; feature_expression_id </text>
<text text-anchor="start" x="23" y="-123" style="font-family:Nimbus Roman No9 L;font-weight:regular;font-size:11.34pt;">&#45; type_id </text>
<text text-anchor="start" x="23" y="-103" style="font-family:Nimbus Roman No9 L;font-weight:regular;font-size:11.34pt;">&#45; value </text>
<text text-anchor="start" x="23" y="-83" style="font-family:Nimbus Roman No9 L;font-weight:regular;font-size:11.34pt;">&#45; rank </text>
</g>
<!-- feature_expression&#45;&gt;feature_expressionprop -->
<g id="edge16" class="edge"><title>feature_expression&#45;&gt;feature_expressionprop</title>
<path style="fill:none;stroke:black;" d="M196,-251C187,-240 177,-228 167,-217"/>
<polygon style="fill:black;stroke:black;" points="169.8,-214.9 161,-209 164.2,-219.1 169.8,-214.9"/>
</g>
<!-- eimage -->
<g id="node8" class="node"><title>eimage</title>
<polygon style="fill:white;stroke:black;" points="563,-39 563,-155 663,-155 663,-39 563,-39"/>
<text text-anchor="middle" x="613" y="-137" style="font-family:Nimbus Roman No9 L;font-weight:regular;font-size:11.34pt;">eimage</text>
<polyline style="fill:none;stroke:black;" points="563,-127 663,-127 "/>
<text text-anchor="start" x="571" y="-109" style="font-family:Nimbus Roman No9 L;font-weight:regular;font-size:11.34pt;">&#45; eimage_id </text>
<text text-anchor="start" x="571" y="-89" style="font-family:Nimbus Roman No9 L;font-weight:regular;font-size:11.34pt;">&#45; eimage_data </text>
<text text-anchor="start" x="571" y="-69" style="font-family:Nimbus Roman No9 L;font-weight:regular;font-size:11.34pt;">&#45; eimage_type </text>
<text text-anchor="start" x="571" y="-49" style="font-family:Nimbus Roman No9 L;font-weight:regular;font-size:11.34pt;">&#45; image_uri </text>
</g>
<!-- eimage&#45;&gt;expression_image -->
<g id="edge2" class="edge"><title>eimage&#45;&gt;expression_image</title>
<path style="fill:none;stroke:black;" d="M563,-144C542,-163 518,-185 496,-205"/>
<polygon style="fill:black;stroke:black;" points="493.596,-202.454 489,-212 498.546,-207.404 493.596,-202.454"/>
</g>
</g>
</svg>
