<?xml version="1.0" encoding="UTF-8" standalone="no"?>
<!DOCTYPE svg PUBLIC "-//W3C//DTD SVG 1.0//EN"
 "http://www.w3.org/TR/2001/REC-SVG-20010904/DTD/svg10.dtd" [
 <!ATTLIST svg xmlns:xlink CDATA #FIXED "http://www.w3.org/1999/xlink">
]>
<!-- Generated by Graphviz version 2.20.2 (Wed Sep 16 11:12:11 UTC 2009)
     For user: (cain) Scott Cain,,, -->
<!-- Title: test Pages: 1 -->
<svg width="718pt" height="530pt"
 viewBox="0.00 0.00 718.00 530.00" xmlns="http://www.w3.org/2000/svg" xmlns:xlink="http://www.w3.org/1999/xlink">
<g id="graph0" class="graph" transform="scale(1 1) rotate(0) translate(4 526)">
<title>test</title>
<polygon style="fill:lightgoldenrodyellow;stroke:lightgoldenrodyellow;" points="-4,4 -4,-526 714,-526 714,4 -4,4"/>
<!-- node1 -->
<g id="node1" class="node"><title>node1</title>
<polygon style="fill:white;stroke:black;" points="416,-238 416,-339 527,-339 527,-238 416,-238"/>
<text text-anchor="middle" x="471" y="-321.9" style="font-family:Times New Roman;font-size:14.00;">genotype</text>
<polyline style="fill:none;stroke:black;" points="416,-314 527,-314 "/>
<text text-anchor="start" x="423.5" y="-297.4" style="font-family:Times New Roman;font-size:14.00;">&#45; genotype_id</text>
<text text-anchor="start" x="423.5" y="-280.4" style="font-family:Times New Roman;font-size:14.00;">&#45; name</text>
<text text-anchor="start" x="423.5" y="-263.4" style="font-family:Times New Roman;font-size:14.00;">&#45; uniquename</text>
<text text-anchor="start" x="423.5" y="-246.4" style="font-family:Times New Roman;font-size:14.00;">&#45; description</text>
</g>
<!-- node2 -->
<g id="node2" class="node"><title>node2</title>
<polygon style="fill:white;stroke:black;" points="541,-60 541,-212 709,-212 709,-60 541,-60"/>
<text text-anchor="middle" x="625" y="-194.9" style="font-family:Times New Roman;font-size:14.00;">feature_genotype</text>
<polyline style="fill:none;stroke:black;" points="541,-187 709,-187 "/>
<text text-anchor="start" x="549" y="-169.9" style="font-family:Times New Roman;font-size:14.00;">&#45; feature_genotype_id</text>
<text text-anchor="start" x="549" y="-152.9" style="font-family:Times New Roman;font-size:14.00;">&#45; feature_id</text>
<text text-anchor="start" x="549" y="-135.9" style="font-family:Times New Roman;font-size:14.00;">&#45; genotype_id</text>
<text text-anchor="start" x="549" y="-118.9" style="font-family:Times New Roman;font-size:14.00;">&#45; chromosome_id</text>
<text text-anchor="start" x="549" y="-101.9" style="font-family:Times New Roman;font-size:14.00;">&#45; rank</text>
<text text-anchor="start" x="549" y="-84.9" style="font-family:Times New Roman;font-size:14.00;">&#45; cgroup</text>
<text text-anchor="start" x="549" y="-67.9" style="font-family:Times New Roman;font-size:14.00;">&#45; cvterm_id</text>
</g>
<!-- node1&#45;&gt;node2 -->
<g id="edge10" class="edge"><title>node1&#45;&gt;node2</title>
<path style="fill:none;stroke:black;" d="M523,-238C529,-232 535,-226 541,-220"/>
<polygon style="fill:black;stroke:black;" points="544.049,-221.831 548,-212 538.781,-217.221 544.049,-221.831"/>
</g>
<!-- node5 -->
<g id="node5" class="node"><title>node5</title>
<polygon style="fill:white;stroke:black;" points="542,-353 542,-488 693,-488 693,-353 542,-353"/>
<text text-anchor="middle" x="617" y="-470.9" style="font-family:Times New Roman;font-size:14.00;">phenstatement</text>
<polyline style="fill:none;stroke:black;" points="542,-463 693,-463 "/>
<text text-anchor="start" x="549.5" y="-446.4" style="font-family:Times New Roman;font-size:14.00;">&#45; phenstatement_id</text>
<text text-anchor="start" x="549.5" y="-429.4" style="font-family:Times New Roman;font-size:14.00;">&#45; genotype_id</text>
<text text-anchor="start" x="549.5" y="-412.4" style="font-family:Times New Roman;font-size:14.00;">&#45; environment_id</text>
<text text-anchor="start" x="549.5" y="-395.4" style="font-family:Times New Roman;font-size:14.00;">&#45; phenotype_id</text>
<text text-anchor="start" x="549.5" y="-378.4" style="font-family:Times New Roman;font-size:14.00;">&#45; type_id</text>
<text text-anchor="start" x="549.5" y="-361.4" style="font-family:Times New Roman;font-size:14.00;">&#45; pub_id</text>
</g>
<!-- node1&#45;&gt;node5 -->
<g id="edge16" class="edge"><title>node1&#45;&gt;node5</title>
<path style="fill:none;stroke:black;" d="M527,-339C530,-342 532,-344 535,-346"/>
<polygon style="fill:black;stroke:black;" points="532.454,-348.404 542,-353 537.404,-343.454 532.454,-348.404"/>
</g>
<!-- node6 -->
<g id="node6" class="node"><title>node6</title>
<polygon style="fill:white;stroke:black;" points="285,-386 285,-521 419,-521 419,-386 285,-386"/>
<text text-anchor="middle" x="352" y="-503.9" style="font-family:Times New Roman;font-size:14.00;">phendesc</text>
<polyline style="fill:none;stroke:black;" points="285,-496 419,-496 "/>
<text text-anchor="start" x="293" y="-479.4" style="font-family:Times New Roman;font-size:14.00;">&#45; phendesc_id</text>
<text text-anchor="start" x="293" y="-462.4" style="font-family:Times New Roman;font-size:14.00;">&#45; genotype_id</text>
<text text-anchor="start" x="293" y="-445.4" style="font-family:Times New Roman;font-size:14.00;">&#45; environment_id</text>
<text text-anchor="start" x="293" y="-428.4" style="font-family:Times New Roman;font-size:14.00;">&#45; description</text>
<text text-anchor="start" x="293" y="-411.4" style="font-family:Times New Roman;font-size:14.00;">&#45; type_id</text>
<text text-anchor="start" x="293" y="-394.4" style="font-family:Times New Roman;font-size:14.00;">&#45; pub_id</text>
</g>
<!-- node1&#45;&gt;node6 -->
<g id="edge12" class="edge"><title>node1&#45;&gt;node6</title>
<path style="fill:none;stroke:black;" d="M435,-339C426,-351 417,-365 407,-378"/>
<polygon style="fill:black;stroke:black;" points="404.2,-375.9 401,-386 409.8,-380.1 404.2,-375.9"/>
</g>
<!-- node7 -->
<g id="node7" class="node"><title>node7</title>
<polygon style="fill:white;stroke:black;" points="287,-1 287,-187 491,-187 491,-1 287,-1"/>
<text text-anchor="middle" x="389" y="-169.9" style="font-family:Times New Roman;font-size:14.00;">phenotype_comparison</text>
<polyline style="fill:none;stroke:black;" points="287,-162 491,-162 "/>
<text text-anchor="start" x="295" y="-144.9" style="font-family:Times New Roman;font-size:14.00;">&#45; phenotype_comparison_id</text>
<text text-anchor="start" x="295" y="-127.9" style="font-family:Times New Roman;font-size:14.00;">&#45; genotype1_id</text>
<text text-anchor="start" x="295" y="-110.9" style="font-family:Times New Roman;font-size:14.00;">&#45; environment1_id</text>
<text text-anchor="start" x="295" y="-93.9" style="font-family:Times New Roman;font-size:14.00;">&#45; genotype2_id</text>
<text text-anchor="start" x="295" y="-76.9" style="font-family:Times New Roman;font-size:14.00;">&#45; environment2_id</text>
<text text-anchor="start" x="295" y="-59.9" style="font-family:Times New Roman;font-size:14.00;">&#45; phenotype1_id</text>
<text text-anchor="start" x="295" y="-42.9" style="font-family:Times New Roman;font-size:14.00;">&#45; phenotype2_id</text>
<text text-anchor="start" x="295" y="-25.9" style="font-family:Times New Roman;font-size:14.00;">&#45; pub_id</text>
<text text-anchor="start" x="295" y="-8.9" style="font-family:Times New Roman;font-size:14.00;">&#45; organism_id</text>
</g>
<!-- node1&#45;&gt;node7 -->
<g id="edge14" class="edge"><title>node1&#45;&gt;node7</title>
<path style="fill:none;stroke:black;" d="M449,-238C444,-225 438,-211 432,-197"/>
<polygon style="fill:black;stroke:black;" points="434.964,-194.985 428,-187 428.464,-197.585 434.964,-194.985"/>
</g>
<!-- node3 -->
<g id="node3" class="node"><title>node3</title>
<polygon style="fill:white;stroke:black;" points="209,-221 209,-305 343,-305 343,-221 209,-221"/>
<text text-anchor="middle" x="276" y="-287.9" style="font-family:Times New Roman;font-size:14.00;">environment</text>
<polyline style="fill:none;stroke:black;" points="209,-280 343,-280 "/>
<text text-anchor="start" x="217" y="-262.9" style="font-family:Times New Roman;font-size:14.00;">&#45; environment_id</text>
<text text-anchor="start" x="217" y="-245.9" style="font-family:Times New Roman;font-size:14.00;">&#45; uniquename</text>
<text text-anchor="start" x="217" y="-228.9" style="font-family:Times New Roman;font-size:14.00;">&#45; description</text>
</g>
<!-- node4 -->
<g id="node4" class="node"><title>node4</title>
<polygon style="fill:white;stroke:black;" points="25,-365 25,-449 214,-449 214,-365 25,-365"/>
<text text-anchor="middle" x="119" y="-431.9" style="font-family:Times New Roman;font-size:14.00;">environment_cvterm</text>
<polyline style="fill:none;stroke:black;" points="25,-424 214,-424 "/>
<text text-anchor="start" x="32.5" y="-406.9" style="font-family:Times New Roman;font-size:14.00;">&#45; environment_cvterm_id</text>
<text text-anchor="start" x="32.5" y="-389.9" style="font-family:Times New Roman;font-size:14.00;">&#45; environment_id</text>
<text text-anchor="start" x="32.5" y="-372.9" style="font-family:Times New Roman;font-size:14.00;">&#45; cvterm_id</text>
</g>
<!-- node3&#45;&gt;node4 -->
<g id="edge2" class="edge"><title>node3&#45;&gt;node4</title>
<path style="fill:none;stroke:black;" d="M230,-305C212,-322 192,-341 172,-358"/>
<polygon style="fill:black;stroke:black;" points="169.596,-355.454 165,-365 174.546,-360.404 169.596,-355.454"/>
</g>
<!-- node3&#45;&gt;node5 -->
<g id="edge8" class="edge"><title>node3&#45;&gt;node5</title>
<path style="fill:none;stroke:black;" d="M343,-294C398,-319 475,-354 533,-382"/>
<polygon style="fill:black;stroke:black;" points="531.44,-385.137 542,-386 534.283,-378.74 531.44,-385.137"/>
</g>
<!-- node3&#45;&gt;node6 -->
<g id="edge4" class="edge"><title>node3&#45;&gt;node6</title>
<path style="fill:none;stroke:black;" d="M293,-305C301,-326 311,-352 321,-377"/>
<polygon style="fill:black;stroke:black;" points="317.74,-378.283 325,-386 324.137,-375.44 317.74,-378.283"/>
</g>
<!-- node3&#45;&gt;node7 -->
<g id="edge6" class="edge"><title>node3&#45;&gt;node7</title>
<path style="fill:none;stroke:black;" d="M304,-221C309,-213 315,-205 321,-195"/>
<polygon style="fill:black;stroke:black;" points="323.8,-197.1 327,-187 318.2,-192.9 323.8,-197.1"/>
</g>
<!-- node8 -->
<g id="node8" class="node"><title>node8</title>
<polygon style="fill:white;stroke:black;" points="1,-64 1,-182 261,-182 261,-64 1,-64"/>
<text text-anchor="middle" x="131" y="-164.9" style="font-family:Times New Roman;font-size:14.00;">phenotype_comparison_cvterm</text>
<polyline style="fill:none;stroke:black;" points="1,-157 261,-157 "/>
<text text-anchor="start" x="9" y="-139.9" style="font-family:Times New Roman;font-size:14.00;">&#45; phenotype_comparison_cvterm_id</text>
<text text-anchor="start" x="9" y="-122.9" style="font-family:Times New Roman;font-size:14.00;">&#45; phenotype_comparison_id</text>
<text text-anchor="start" x="9" y="-105.9" style="font-family:Times New Roman;font-size:14.00;">&#45; cvterm_id</text>
<text text-anchor="start" x="9" y="-88.9" style="font-family:Times New Roman;font-size:14.00;">&#45; pub_id</text>
<text text-anchor="start" x="9" y="-71.9" style="font-family:Times New Roman;font-size:14.00;">&#45; rank</text>
</g>
<!-- node7&#45;&gt;node8 -->
<g id="edge18" class="edge"><title>node7&#45;&gt;node8</title>
<path style="fill:none;stroke:black;" d="M287,-106C282,-107 277,-107 271,-108"/>
<polygon style="fill:black;stroke:black;" points="270.602,-104.522 261,-109 271.299,-111.488 270.602,-104.522"/>
</g>
</g>
</svg>
