<?xml version="1.0" encoding="UTF-8" standalone="no"?>
<!DOCTYPE svg PUBLIC "-//W3C//DTD SVG 1.0//EN"
 "http://www.w3.org/TR/2001/REC-SVG-20010904/DTD/svg10.dtd" [
 <!ATTLIST svg xmlns:xlink CDATA #FIXED "http://www.w3.org/1999/xlink">
]>
<!-- Generated by Graphviz version 2.20.2 (Wed Sep 16 11:12:11 UTC 2009)
     For user: (cain) Scott Cain,,, -->
<!-- Title: test Pages: 1 -->
<svg width="410pt" height="238pt"
 viewBox="0.00 0.00 410.00 238.00" xmlns="http://www.w3.org/2000/svg" xmlns:xlink="http://www.w3.org/1999/xlink">
<g id="graph0" class="graph" transform="scale(1 1) rotate(0) translate(4 234)">
<title>test</title>
<polygon style="fill:lightgoldenrodyellow;stroke:lightgoldenrodyellow;" points="-4,4 -4,-234 406,-234 406,4 -4,4"/>
<!-- node1 -->
<g id="node1" class="node"><title>node1</title>
<polygon style="fill:white;stroke:black;" points="1,-0 1,-169 169,-169 169,-0 1,-0"/>
<text text-anchor="middle" x="85" y="-151.9" style="font-family:Times New Roman;font-size:14.00;">tableinfo</text>
<polyline style="fill:none;stroke:black;" points="1,-144 169,-144 "/>
<text text-anchor="start" x="9" y="-127.4" style="font-family:Times New Roman;font-size:14.00;">&#45; tableinfo_id</text>
<text text-anchor="start" x="9" y="-110.4" style="font-family:Times New Roman;font-size:14.00;">&#45; name</text>
<text text-anchor="start" x="9" y="-93.4" style="font-family:Times New Roman;font-size:14.00;">&#45; primary_key_column</text>
<text text-anchor="start" x="9" y="-76.4" style="font-family:Times New Roman;font-size:14.00;">&#45; is_view</text>
<text text-anchor="start" x="9" y="-59.4" style="font-family:Times New Roman;font-size:14.00;">&#45; view_on_table_id</text>
<text text-anchor="start" x="9" y="-42.4" style="font-family:Times New Roman;font-size:14.00;">&#45; superclass_table_id</text>
<text text-anchor="start" x="9" y="-25.4" style="font-family:Times New Roman;font-size:14.00;">&#45; is_updateable</text>
<text text-anchor="start" x="9" y="-8.4" style="font-family:Times New Roman;font-size:14.00;">&#45; modification_date</text>
</g>
<!-- node2 -->
<g id="node2" class="node"><title>node2</title>
<polygon style="fill:white;stroke:black;" points="181,-3 181,-121 282,-121 282,-3 181,-3"/>
<text text-anchor="middle" x="231" y="-103.9" style="font-family:Times New Roman;font-size:14.00;">db</text>
<polyline style="fill:none;stroke:black;" points="181,-96 282,-96 "/>
<text text-anchor="start" x="188.5" y="-78.9" style="font-family:Times New Roman;font-size:14.00;">&#45; db_id</text>
<text text-anchor="start" x="188.5" y="-61.9" style="font-family:Times New Roman;font-size:14.00;">&#45; name</text>
<text text-anchor="start" x="188.5" y="-44.9" style="font-family:Times New Roman;font-size:14.00;">&#45; description</text>
<text text-anchor="start" x="188.5" y="-27.9" style="font-family:Times New Roman;font-size:14.00;">&#45; urlprefix</text>
<text text-anchor="start" x="188.5" y="-10.9" style="font-family:Times New Roman;font-size:14.00;">&#45; url</text>
</g>
<!-- node3 -->
<g id="node3" class="node"><title>node3</title>
<polygon style="fill:white;stroke:black;" points="301,-1 301,-119 402,-119 402,-1 301,-1"/>
<text text-anchor="middle" x="351" y="-101.9" style="font-family:Times New Roman;font-size:14.00;">dbxref</text>
<polyline style="fill:none;stroke:black;" points="301,-94 402,-94 "/>
<text text-anchor="start" x="308.5" y="-76.9" style="font-family:Times New Roman;font-size:14.00;">&#45; dbxref_id</text>
<text text-anchor="start" x="308.5" y="-59.9" style="font-family:Times New Roman;font-size:14.00;">&#45; db_id</text>
<text text-anchor="start" x="308.5" y="-42.9" style="font-family:Times New Roman;font-size:14.00;">&#45; accession</text>
<text text-anchor="start" x="308.5" y="-25.9" style="font-family:Times New Roman;font-size:14.00;">&#45; version</text>
<text text-anchor="start" x="308.5" y="-8.9" style="font-family:Times New Roman;font-size:14.00;">&#45; description</text>
</g>
<!-- node2&#45;&gt;node3 -->
<g id="edge2" class="edge"><title>node2&#45;&gt;node3</title>
<path style="fill:none;stroke:black;" d="M282,-61C285,-61 288,-61 291,-61"/>
<polygon style="fill:black;stroke:black;" points="291,-64.5001 301,-61 291,-57.5001 291,-64.5001"/>
</g>
<!-- node4 -->
<g id="node4" class="node"><title>node4</title>
<polygon style="fill:white;stroke:black;" points="181,-145 181,-229 282,-229 282,-145 181,-145"/>
<text text-anchor="middle" x="231" y="-211.9" style="font-family:Times New Roman;font-size:14.00;">project</text>
<polyline style="fill:none;stroke:black;" points="181,-204 282,-204 "/>
<text text-anchor="start" x="188.5" y="-186.9" style="font-family:Times New Roman;font-size:14.00;">&#45; project_id</text>
<text text-anchor="start" x="188.5" y="-169.9" style="font-family:Times New Roman;font-size:14.00;">&#45; name</text>
<text text-anchor="start" x="188.5" y="-152.9" style="font-family:Times New Roman;font-size:14.00;">&#45; description</text>
</g>
</g>
</svg>
