<?xml version="1.0" encoding="UTF-8" standalone="no"?>
<!DOCTYPE svg PUBLIC "-//W3C//DTD SVG 1.0//EN"
 "http://www.w3.org/TR/2001/REC-SVG-20010904/DTD/svg10.dtd" [
 <!ATTLIST svg xmlns:xlink CDATA #FIXED "http://www.w3.org/1999/xlink">
]>
<!-- Generated by Graphviz version 2.12 (Tue Sep  4 16:56:48 UTC 2007)
     For user: (scott) Scott Cain,,, -->
<!-- Title: test Pages: 1 -->
<svg width="9.96in" height="7.99in"
 xmlns="http://www.w3.org/2000/svg" xmlns:xlink="http://www.w3.org/1999/xlink">
<g id="graph0" class="graph" transform="scale(1.31507 1.31507) rotate(0) translate(4 580)">
<title>test</title>
<polygon style="fill:white;stroke:white;" points="-4,4 -4,-580 723,-580 723,4 -4,4"/>
<!-- genotype -->
<g id="node1" class="node"><title>genotype</title>
<polygon style="fill:white;stroke:black;" points="442,-254 442,-370 540,-370 540,-254 442,-254"/>
<text text-anchor="middle" x="491" y="-352" style="font-family:Nimbus Roman No9 L;font-weight:regular;font-size:11.34pt;">genotype</text>
<polyline style="fill:none;stroke:black;" points="442,-342 540,-342 "/>
<text text-anchor="start" x="450" y="-324" style="font-family:Nimbus Roman No9 L;font-weight:regular;font-size:11.34pt;">&#45; genotype_id </text>
<text text-anchor="start" x="450" y="-304" style="font-family:Nimbus Roman No9 L;font-weight:regular;font-size:11.34pt;">&#45; name </text>
<text text-anchor="start" x="450" y="-284" style="font-family:Nimbus Roman No9 L;font-weight:regular;font-size:11.34pt;">&#45; uniquename </text>
<text text-anchor="start" x="450" y="-264" style="font-family:Nimbus Roman No9 L;font-weight:regular;font-size:11.34pt;">&#45; description </text>
</g>
<!-- feature_genotype -->
<g id="node2" class="node"><title>feature_genotype</title>
<polygon style="fill:white;stroke:black;" points="569,-62 569,-238 713,-238 713,-62 569,-62"/>
<text text-anchor="middle" x="641" y="-220" style="font-family:Nimbus Roman No9 L;font-weight:regular;font-size:11.34pt;">feature_genotype</text>
<polyline style="fill:none;stroke:black;" points="569,-210 713,-210 "/>
<text text-anchor="start" x="577" y="-192" style="font-family:Nimbus Roman No9 L;font-weight:regular;font-size:11.34pt;">&#45; feature_genotype_id </text>
<text text-anchor="start" x="577" y="-172" style="font-family:Nimbus Roman No9 L;font-weight:regular;font-size:11.34pt;">&#45; feature_id </text>
<text text-anchor="start" x="577" y="-152" style="font-family:Nimbus Roman No9 L;font-weight:regular;font-size:11.34pt;">&#45; genotype_id </text>
<text text-anchor="start" x="577" y="-132" style="font-family:Nimbus Roman No9 L;font-weight:regular;font-size:11.34pt;">&#45; chromosome_id </text>
<text text-anchor="start" x="577" y="-112" style="font-family:Nimbus Roman No9 L;font-weight:regular;font-size:11.34pt;">&#45; rank </text>
<text text-anchor="start" x="577" y="-92" style="font-family:Nimbus Roman No9 L;font-weight:regular;font-size:11.34pt;">&#45; cgroup </text>
<text text-anchor="start" x="577" y="-72" style="font-family:Nimbus Roman No9 L;font-weight:regular;font-size:11.34pt;">&#45; cvterm_id </text>
</g>
<!-- genotype&#45;&gt;feature_genotype -->
<g id="edge10" class="edge"><title>genotype&#45;&gt;feature_genotype</title>
<path style="fill:none;stroke:black;" d="M540,-259C547,-251 554,-244 562,-236"/>
<polygon style="fill:black;stroke:black;" points="565.049,-237.831 569,-228 559.781,-233.221 565.049,-237.831"/>
</g>
<!-- phenstatement -->
<g id="node5" class="node"><title>phenstatement</title>
<polygon style="fill:white;stroke:black;" points="571,-386 571,-542 698,-542 698,-386 571,-386"/>
<text text-anchor="middle" x="634" y="-524" style="font-family:Nimbus Roman No9 L;font-weight:regular;font-size:11.34pt;">phenstatement</text>
<polyline style="fill:none;stroke:black;" points="571,-514 698,-514 "/>
<text text-anchor="start" x="579" y="-496" style="font-family:Nimbus Roman No9 L;font-weight:regular;font-size:11.34pt;">&#45; phenstatement_id </text>
<text text-anchor="start" x="579" y="-476" style="font-family:Nimbus Roman No9 L;font-weight:regular;font-size:11.34pt;">&#45; genotype_id </text>
<text text-anchor="start" x="579" y="-456" style="font-family:Nimbus Roman No9 L;font-weight:regular;font-size:11.34pt;">&#45; environment_id </text>
<text text-anchor="start" x="579" y="-436" style="font-family:Nimbus Roman No9 L;font-weight:regular;font-size:11.34pt;">&#45; phenotype_id </text>
<text text-anchor="start" x="579" y="-416" style="font-family:Nimbus Roman No9 L;font-weight:regular;font-size:11.34pt;">&#45; type_id </text>
<text text-anchor="start" x="579" y="-396" style="font-family:Nimbus Roman No9 L;font-weight:regular;font-size:11.34pt;">&#45; pub_id </text>
</g>
<!-- genotype&#45;&gt;phenstatement -->
<g id="edge16" class="edge"><title>genotype&#45;&gt;phenstatement</title>
<path style="fill:none;stroke:black;" d="M540,-364C548,-372 556,-381 564,-389"/>
<polygon style="fill:black;stroke:black;" points="561.781,-391.779 571,-397 567.049,-387.169 561.781,-391.779"/>
</g>
<!-- phendesc -->
<g id="node6" class="node"><title>phendesc</title>
<polygon style="fill:white;stroke:black;" points="305,-419 305,-575 423,-575 423,-419 305,-419"/>
<text text-anchor="middle" x="364" y="-557" style="font-family:Nimbus Roman No9 L;font-weight:regular;font-size:11.34pt;">phendesc</text>
<polyline style="fill:none;stroke:black;" points="305,-547 423,-547 "/>
<text text-anchor="start" x="313" y="-529" style="font-family:Nimbus Roman No9 L;font-weight:regular;font-size:11.34pt;">&#45; phendesc_id </text>
<text text-anchor="start" x="313" y="-509" style="font-family:Nimbus Roman No9 L;font-weight:regular;font-size:11.34pt;">&#45; genotype_id </text>
<text text-anchor="start" x="313" y="-489" style="font-family:Nimbus Roman No9 L;font-weight:regular;font-size:11.34pt;">&#45; environment_id </text>
<text text-anchor="start" x="313" y="-469" style="font-family:Nimbus Roman No9 L;font-weight:regular;font-size:11.34pt;">&#45; description </text>
<text text-anchor="start" x="313" y="-449" style="font-family:Nimbus Roman No9 L;font-weight:regular;font-size:11.34pt;">&#45; type_id </text>
<text text-anchor="start" x="313" y="-429" style="font-family:Nimbus Roman No9 L;font-weight:regular;font-size:11.34pt;">&#45; pub_id </text>
</g>
<!-- genotype&#45;&gt;phendesc -->
<g id="edge12" class="edge"><title>genotype&#45;&gt;phendesc</title>
<path style="fill:none;stroke:black;" d="M451,-370C442,-382 433,-396 424,-410"/>
<polygon style="fill:black;stroke:black;" points="420.635,-408.738 418,-419 426.459,-412.621 420.635,-408.738"/>
</g>
<!-- phenotype_comparison -->
<g id="node7" class="node"><title>phenotype_comparison</title>
<polygon style="fill:white;stroke:black;" points="301,-1 301,-217 478,-217 478,-1 301,-1"/>
<text text-anchor="middle" x="389" y="-199" style="font-family:Nimbus Roman No9 L;font-weight:regular;font-size:11.34pt;">phenotype_comparison</text>
<polyline style="fill:none;stroke:black;" points="301,-189 478,-189 "/>
<text text-anchor="start" x="309" y="-171" style="font-family:Nimbus Roman No9 L;font-weight:regular;font-size:11.34pt;">&#45; phenotype_comparison_id </text>
<text text-anchor="start" x="309" y="-151" style="font-family:Nimbus Roman No9 L;font-weight:regular;font-size:11.34pt;">&#45; genotype1_id </text>
<text text-anchor="start" x="309" y="-131" style="font-family:Nimbus Roman No9 L;font-weight:regular;font-size:11.34pt;">&#45; environment1_id </text>
<text text-anchor="start" x="309" y="-111" style="font-family:Nimbus Roman No9 L;font-weight:regular;font-size:11.34pt;">&#45; genotype2_id </text>
<text text-anchor="start" x="309" y="-91" style="font-family:Nimbus Roman No9 L;font-weight:regular;font-size:11.34pt;">&#45; environment2_id </text>
<text text-anchor="start" x="309" y="-71" style="font-family:Nimbus Roman No9 L;font-weight:regular;font-size:11.34pt;">&#45; phenotype1_id </text>
<text text-anchor="start" x="309" y="-51" style="font-family:Nimbus Roman No9 L;font-weight:regular;font-size:11.34pt;">&#45; phenotype2_id </text>
<text text-anchor="start" x="309" y="-31" style="font-family:Nimbus Roman No9 L;font-weight:regular;font-size:11.34pt;">&#45; pub_id </text>
<text text-anchor="start" x="309" y="-11" style="font-family:Nimbus Roman No9 L;font-weight:regular;font-size:11.34pt;">&#45; organism_id </text>
</g>
<!-- genotype&#45;&gt;phenotype_comparison -->
<g id="edge14" class="edge"><title>genotype&#45;&gt;phenotype_comparison</title>
<path style="fill:none;stroke:black;" d="M462,-254C457,-245 453,-236 448,-226"/>
<polygon style="fill:black;stroke:black;" points="451.26,-224.717 444,-217 444.863,-227.56 451.26,-224.717"/>
</g>
<!-- environment -->
<g id="node3" class="node"><title>environment</title>
<polygon style="fill:white;stroke:black;" points="211,-248 211,-344 329,-344 329,-248 211,-248"/>
<text text-anchor="middle" x="270" y="-326" style="font-family:Nimbus Roman No9 L;font-weight:regular;font-size:11.34pt;">environment</text>
<polyline style="fill:none;stroke:black;" points="211,-316 329,-316 "/>
<text text-anchor="start" x="219" y="-298" style="font-family:Nimbus Roman No9 L;font-weight:regular;font-size:11.34pt;">&#45; environment_id </text>
<text text-anchor="start" x="219" y="-278" style="font-family:Nimbus Roman No9 L;font-weight:regular;font-size:11.34pt;">&#45; uniquename </text>
<text text-anchor="start" x="219" y="-258" style="font-family:Nimbus Roman No9 L;font-weight:regular;font-size:11.34pt;">&#45; description </text>
</g>
<!-- environment_cvterm -->
<g id="node4" class="node"><title>environment_cvterm</title>
<polygon style="fill:white;stroke:black;" points="31,-404 31,-500 195,-500 195,-404 31,-404"/>
<text text-anchor="middle" x="113" y="-482" style="font-family:Nimbus Roman No9 L;font-weight:regular;font-size:11.34pt;">environment_cvterm</text>
<polyline style="fill:none;stroke:black;" points="31,-472 195,-472 "/>
<text text-anchor="start" x="39" y="-454" style="font-family:Nimbus Roman No9 L;font-weight:regular;font-size:11.34pt;">&#45; environment_cvterm_id </text>
<text text-anchor="start" x="39" y="-434" style="font-family:Nimbus Roman No9 L;font-weight:regular;font-size:11.34pt;">&#45; environment_id </text>
<text text-anchor="start" x="39" y="-414" style="font-family:Nimbus Roman No9 L;font-weight:regular;font-size:11.34pt;">&#45; cvterm_id </text>
</g>
<!-- environment&#45;&gt;environment_cvterm -->
<g id="edge2" class="edge"><title>environment&#45;&gt;environment_cvterm</title>
<path style="fill:none;stroke:black;" d="M222,-344C205,-361 186,-380 169,-397"/>
<polygon style="fill:black;stroke:black;" points="166.221,-394.781 161,-404 170.831,-400.049 166.221,-394.781"/>
</g>
<!-- environment&#45;&gt;phenstatement -->
<g id="edge8" class="edge"><title>environment&#45;&gt;phenstatement</title>
<path style="fill:none;stroke:black;" d="M329,-323C392,-353 493,-400 562,-431"/>
<polygon style="fill:black;stroke:black;" points="560.44,-434.137 571,-435 563.283,-427.74 560.44,-434.137"/>
</g>
<!-- environment&#45;&gt;phendesc -->
<g id="edge4" class="edge"><title>environment&#45;&gt;phendesc</title>
<path style="fill:none;stroke:black;" d="M293,-344C302,-364 313,-388 323,-410"/>
<polygon style="fill:black;stroke:black;" points="319.74,-411.283 327,-419 326.137,-408.44 319.74,-411.283"/>
</g>
<!-- environment&#45;&gt;phenotype_comparison -->
<g id="edge6" class="edge"><title>environment&#45;&gt;phenotype_comparison</title>
<path style="fill:none;stroke:black;" d="M301,-248C305,-241 310,-234 315,-226"/>
<polygon style="fill:black;stroke:black;" points="318.203,-227.441 320,-217 312.084,-224.042 318.203,-227.441"/>
</g>
<!-- phenotype_comparison_cvterm -->
<g id="node8" class="node"><title>phenotype_comparison_cvterm</title>
<polygon style="fill:white;stroke:black;" points="11,-73 11,-209 234,-209 234,-73 11,-73"/>
<text text-anchor="middle" x="122" y="-191" style="font-family:Nimbus Roman No9 L;font-weight:regular;font-size:11.34pt;">phenotype_comparison_cvterm</text>
<polyline style="fill:none;stroke:black;" points="11,-181 234,-181 "/>
<text text-anchor="start" x="19" y="-163" style="font-family:Nimbus Roman No9 L;font-weight:regular;font-size:11.34pt;">&#45; pub_id </text>
<text text-anchor="start" x="19" y="-143" style="font-family:Nimbus Roman No9 L;font-weight:regular;font-size:11.34pt;">&#45; phenotype_comparison_cvterm_id </text>
<text text-anchor="start" x="19" y="-123" style="font-family:Nimbus Roman No9 L;font-weight:regular;font-size:11.34pt;">&#45; phenotype_comparison_id </text>
<text text-anchor="start" x="19" y="-103" style="font-family:Nimbus Roman No9 L;font-weight:regular;font-size:11.34pt;">&#45; cvterm_id </text>
<text text-anchor="start" x="19" y="-83" style="font-family:Nimbus Roman No9 L;font-weight:regular;font-size:11.34pt;">&#45; rank </text>
</g>
<!-- phenotype_comparison&#45;&gt;phenotype_comparison_cvterm -->
<g id="edge18" class="edge"><title>phenotype_comparison&#45;&gt;phenotype_comparison_cvterm</title>
<path style="fill:none;stroke:black;" d="M301,-120C283,-122 264,-124 244,-127"/>
<polygon style="fill:black;stroke:black;" points="243.602,-123.522 234,-128 244.299,-130.488 243.602,-123.522"/>
</g>
</g>
</svg>
