<?xml version="1.0" encoding="UTF-8" standalone="no"?>
<!DOCTYPE svg PUBLIC "-//W3C//DTD SVG 1.0//EN"
 "http://www.w3.org/TR/2001/REC-SVG-20010904/DTD/svg10.dtd" [
 <!ATTLIST svg xmlns:xlink CDATA #FIXED "http://www.w3.org/1999/xlink">
]>
<!-- Generated by dot version 2.8 (Thu Sep 14 20:34:11 UTC 2006)
     For user: (scott) Scott Cain -->
<!-- Title: test Pages: 1 -->
<svg width="728pt" height="584pt"
 viewBox = "0 0 728 584"
 xmlns="http://www.w3.org/2000/svg" xmlns:xlink="http://www.w3.org/1999/xlink">
<g id="graph0" class="graph" style="font-family:Times-Roman;font-size:14.00;">
<title>test</title>
<polygon style="fill:white;stroke:white;" points="-2,586 -2,-2 730,-2 730,586 -2,586"/>
<!-- genotype -->
<g id="node1" class="node"><title>genotype</title>
<polygon style="fill:white;stroke:black;" points="330,502 439,502 439,441 330,441 330,502"/>
<text text-anchor="start" x="335" y="453" style="font-size:9.75pt;">{genotype|&#45; genotype_id </text>
<text text-anchor="start" x="335" y="464" style="font-size:9.75pt;">&#45; name </text>
<text text-anchor="start" x="335" y="475" style="font-size:9.75pt;">&#45; uniquename </text>
<text text-anchor="start" x="335" y="486" style="font-size:9.75pt;">&#45; description </text>
<text text-anchor="middle" x="384" y="497" style="font-size:9.75pt;">}</text>
</g>
<!-- feature_genotype -->
<g id="node2" class="node"><title>feature_genotype</title>
<polygon style="fill:white;stroke:black;" points="536,513 709,513 709,418 536,418 536,513"/>
<text text-anchor="start" x="542" y="430" style="font-size:9.75pt;">{feature_genotype|&#45; feature_genotype_id </text>
<text text-anchor="start" x="542" y="441" style="font-size:9.75pt;">&#45; feature_id </text>
<text text-anchor="start" x="542" y="453" style="font-size:9.75pt;">&#45; genotype_id </text>
<text text-anchor="start" x="542" y="464" style="font-size:9.75pt;">&#45; chromosome_id </text>
<text text-anchor="start" x="542" y="475" style="font-size:9.75pt;">&#45; rank </text>
<text text-anchor="start" x="542" y="486" style="font-size:9.75pt;">&#45; cgroup </text>
<text text-anchor="start" x="542" y="497" style="font-size:9.75pt;">&#45; cvterm_id </text>
<text text-anchor="middle" x="622" y="508" style="font-size:9.75pt;">}</text>
</g>
<!-- genotype&#45;&gt;feature_genotype -->
<g id="edge10" class="edge"><title>genotype&#45;&gt;feature_genotype</title>
<path style="fill:none;stroke:black;" d="M439,470C466,469 498,469 529,468"/>
<polygon style="fill:black;stroke:black;" points="529,465 536,468 529,470 529,465"/>
</g>
<!-- phenstatement -->
<g id="node5" class="node"><title>phenstatement</title>
<polygon style="fill:white;stroke:black;" points="573,124 724,124 724,40 573,40 573,124"/>
<text text-anchor="start" x="578" y="52" style="font-size:9.75pt;">{phenstatement|&#45; phenstatement_id </text>
<text text-anchor="start" x="578" y="63" style="font-size:9.75pt;">&#45; genotype_id </text>
<text text-anchor="start" x="578" y="74" style="font-size:9.75pt;">&#45; environment_id </text>
<text text-anchor="start" x="578" y="86" style="font-size:9.75pt;">&#45; phenotype_id </text>
<text text-anchor="start" x="578" y="97" style="font-size:9.75pt;">&#45; type_id </text>
<text text-anchor="start" x="578" y="108" style="font-size:9.75pt;">&#45; pub_id </text>
<text text-anchor="middle" x="648" y="119" style="font-size:9.75pt;">}</text>
</g>
<!-- genotype&#45;&gt;phenstatement -->
<g id="edge16" class="edge"><title>genotype&#45;&gt;phenstatement</title>
<path style="fill:none;stroke:black;" d="M405,441C451,372 560,212 615,130"/>
<polygon style="fill:black;stroke:black;" points="614,128 620,124 617,131 614,128"/>
</g>
<!-- phendesc -->
<g id="node6" class="node"><title>phendesc</title>
<polygon style="fill:white;stroke:black;" points="402,128 513,128 513,44 402,44 402,128"/>
<text text-anchor="start" x="407" y="56" style="font-size:9.75pt;">{phendesc|&#45; phendesc_id </text>
<text text-anchor="start" x="407" y="67" style="font-size:9.75pt;">&#45; genotype_id </text>
<text text-anchor="start" x="407" y="79" style="font-size:9.75pt;">&#45; environment_id </text>
<text text-anchor="start" x="407" y="90" style="font-size:9.75pt;">&#45; description </text>
<text text-anchor="start" x="407" y="101" style="font-size:9.75pt;">&#45; type_id </text>
<text text-anchor="start" x="407" y="112" style="font-size:9.75pt;">&#45; pub_id </text>
<text text-anchor="middle" x="457" y="123" style="font-size:9.75pt;">}</text>
</g>
<!-- genotype&#45;&gt;phendesc -->
<g id="edge12" class="edge"><title>genotype&#45;&gt;phendesc</title>
<path style="fill:none;stroke:black;" d="M390,441C402,374 432,216 448,135"/>
<polygon style="fill:black;stroke:black;" points="446,134 450,128 450,135 446,134"/>
</g>
<!-- phenotype_comparison -->
<g id="node7" class="node"><title>phenotype_comparison</title>
<polygon style="fill:white;stroke:black;" points="29,530 249,530 249,413 29,413 29,530"/>
<text text-anchor="start" x="35" y="425" style="font-size:9.75pt;">{phenotype_comparison|&#45; phenotype_comparison_id </text>
<text text-anchor="start" x="35" y="436" style="font-size:9.75pt;">&#45; genotype1_id </text>
<text text-anchor="start" x="35" y="447" style="font-size:9.75pt;">&#45; environment1_id </text>
<text text-anchor="start" x="35" y="458" style="font-size:9.75pt;">&#45; genotype2_id </text>
<text text-anchor="start" x="35" y="469" style="font-size:9.75pt;">&#45; environment2_id </text>
<text text-anchor="start" x="35" y="480" style="font-size:9.75pt;">&#45; phenotype1_id </text>
<text text-anchor="start" x="35" y="491" style="font-size:9.75pt;">&#45; phenotype2_id </text>
<text text-anchor="start" x="35" y="503" style="font-size:9.75pt;">&#45; type_id </text>
<text text-anchor="start" x="35" y="514" style="font-size:9.75pt;">&#45; pub_id </text>
<text text-anchor="middle" x="139" y="525" style="font-size:9.75pt;">}</text>
</g>
<!-- genotype&#45;&gt;phenotype_comparison -->
<g id="edge14" class="edge"><title>genotype&#45;&gt;phenotype_comparison</title>
<path style="fill:none;stroke:black;" d="M330,471C308,471 282,471 256,471"/>
<polygon style="fill:black;stroke:black;" points="256,473 249,471 256,469 256,473"/>
</g>
<!-- environment -->
<g id="node3" class="node"><title>environment</title>
<polygon style="fill:white;stroke:black;" points="224,121 361,121 361,71 224,71 224,121"/>
<text text-anchor="start" x="230" y="83" style="font-size:9.75pt;">{environment|&#45; environment_id </text>
<text text-anchor="start" x="230" y="94" style="font-size:9.75pt;">&#45; uniquename </text>
<text text-anchor="start" x="230" y="105" style="font-size:9.75pt;">&#45; description </text>
<text text-anchor="middle" x="292" y="116" style="font-size:9.75pt;">}</text>
</g>
<!-- environment_cvterm -->
<g id="node4" class="node"><title>environment_cvterm</title>
<polygon style="fill:white;stroke:black;" points="5,112 205,112 205,62 5,62 5,112"/>
<text text-anchor="start" x="10" y="74" style="font-size:9.75pt;">{environment_cvterm|&#45; environment_cvterm_id </text>
<text text-anchor="start" x="10" y="85" style="font-size:9.75pt;">&#45; environment_id </text>
<text text-anchor="start" x="10" y="96" style="font-size:9.75pt;">&#45; cvterm_id </text>
<text text-anchor="middle" x="105" y="107" style="font-size:9.75pt;">}</text>
</g>
<!-- environment&#45;&gt;environment_cvterm -->
<g id="edge2" class="edge"><title>environment&#45;&gt;environment_cvterm</title>
<path style="fill:none;stroke:black;" d="M224,93C220,93 216,93 212,92"/>
<polygon style="fill:black;stroke:black;" points="212,94 205,92 212,89 212,94"/>
</g>
<!-- environment&#45;&gt;phenstatement -->
<g id="edge8" class="edge"><title>environment&#45;&gt;phenstatement</title>
<path style="fill:none;stroke:black;" d="M361,93C419,90 504,88 566,85"/>
<polygon style="fill:black;stroke:black;" points="566,82 573,85 566,87 566,82"/>
</g>
<!-- environment&#45;&gt;phendesc -->
<g id="edge4" class="edge"><title>environment&#45;&gt;phendesc</title>
<path style="fill:none;stroke:black;" d="M361,92C372,91 383,90 395,90"/>
<polygon style="fill:black;stroke:black;" points="395,88 402,89 395,92 395,88"/>
</g>
<!-- environment&#45;&gt;phenotype_comparison -->
<g id="edge6" class="edge"><title>environment&#45;&gt;phenotype_comparison</title>
<path style="fill:none;stroke:black;" d="M282,121C259,179 200,322 166,407"/>
<polygon style="fill:black;stroke:black;" points="168,407 163,413 163,405 168,407"/>
</g>
</g>
</svg>
