<?xml version="1.0" encoding="UTF-8" standalone="no"?>
<!DOCTYPE svg PUBLIC "-//W3C//DTD SVG 1.1//EN"
 "http://www.w3.org/Graphics/SVG/1.1/DTD/svg11.dtd">
<!-- Generated by graphviz version 2.38.0 (20140413.2041)
 -->
<!-- Title: test Pages: 1 -->
<svg width="605pt" height="463pt"
 viewBox="0.00 0.00 604.90 462.70" xmlns="http://www.w3.org/2000/svg" xmlns:xlink="http://www.w3.org/1999/xlink">
<g id="graph0" class="graph" transform="scale(1 1) rotate(0) translate(4 458.704)">
<title>test</title>
<polygon fill="lightgoldenrodyellow" stroke="none" points="-4,4 -4,-458.704 600.899,-458.704 600.899,4 -4,4"/>
<!-- node1 -->
<g id="node1" class="node"><title>node1</title>
<polygon fill="white" stroke="black" points="443.935,-171.38 443.935,-277.38 535.935,-277.38 535.935,-171.38 443.935,-171.38"/>
<text text-anchor="middle" x="489.935" y="-262.18" font-family="Times,serif" font-size="14.00">genotype</text>
<polyline fill="none" stroke="black" points="443.935,-254.38 535.935,-254.38 "/>
<text text-anchor="start" x="451.935" y="-239.18" font-family="Times,serif" font-size="14.00">&#45; genotype_id</text>
<text text-anchor="start" x="451.935" y="-224.18" font-family="Times,serif" font-size="14.00">&#45; name</text>
<text text-anchor="start" x="451.935" y="-209.18" font-family="Times,serif" font-size="14.00">&#45; uniquename</text>
<text text-anchor="start" x="451.935" y="-194.18" font-family="Times,serif" font-size="14.00">&#45; description</text>
<text text-anchor="start" x="451.935" y="-179.18" font-family="Times,serif" font-size="14.00">&#45; type_id</text>
</g>
<!-- node2 -->
<g id="node2" class="node"><title>node2</title>
<polygon fill="white" stroke="black" points="460.899,-302.658 460.899,-438.658 596.899,-438.658 596.899,-302.658 460.899,-302.658"/>
<text text-anchor="middle" x="528.899" y="-423.458" font-family="Times,serif" font-size="14.00">feature_genotype</text>
<polyline fill="none" stroke="black" points="460.899,-415.658 596.899,-415.658 "/>
<text text-anchor="start" x="468.899" y="-400.458" font-family="Times,serif" font-size="14.00">&#45; feature_genotype_id</text>
<text text-anchor="start" x="468.899" y="-385.458" font-family="Times,serif" font-size="14.00">&#45; feature_id</text>
<text text-anchor="start" x="468.899" y="-370.458" font-family="Times,serif" font-size="14.00">&#45; genotype_id</text>
<text text-anchor="start" x="468.899" y="-355.458" font-family="Times,serif" font-size="14.00">&#45; chromosome_id</text>
<text text-anchor="start" x="468.899" y="-340.458" font-family="Times,serif" font-size="14.00">&#45; rank</text>
<text text-anchor="start" x="468.899" y="-325.458" font-family="Times,serif" font-size="14.00">&#45; cgroup</text>
<text text-anchor="start" x="468.899" y="-310.458" font-family="Times,serif" font-size="14.00">&#45; cvterm_id</text>
</g>
<!-- node1&#45;&gt;node2 -->
<g id="edge5" class="edge"><title>node1&#45;&gt;node2</title>
<path fill="none" stroke="black" d="M504.112,-277.603C505.425,-282.532 506.772,-287.59 508.128,-292.68"/>
<polygon fill="black" stroke="black" points="504.783,-293.719 510.739,-302.482 511.547,-291.918 504.783,-293.719"/>
</g>
<!-- node5 -->
<g id="node5" class="node"><title>node5</title>
<polygon fill="white" stroke="black" points="260.904,-333.204 260.904,-454.204 381.904,-454.204 381.904,-333.204 260.904,-333.204"/>
<text text-anchor="middle" x="321.404" y="-439.004" font-family="Times,serif" font-size="14.00">phenstatement</text>
<polyline fill="none" stroke="black" points="260.904,-431.204 381.904,-431.204 "/>
<text text-anchor="start" x="268.904" y="-416.004" font-family="Times,serif" font-size="14.00">&#45; phenstatement_id</text>
<text text-anchor="start" x="268.904" y="-401.004" font-family="Times,serif" font-size="14.00">&#45; genotype_id</text>
<text text-anchor="start" x="268.904" y="-386.004" font-family="Times,serif" font-size="14.00">&#45; environment_id</text>
<text text-anchor="start" x="268.904" y="-371.004" font-family="Times,serif" font-size="14.00">&#45; phenotype_id</text>
<text text-anchor="start" x="268.904" y="-356.004" font-family="Times,serif" font-size="14.00">&#45; type_id</text>
<text text-anchor="start" x="268.904" y="-341.004" font-family="Times,serif" font-size="14.00">&#45; pub_id</text>
</g>
<!-- node1&#45;&gt;node5 -->
<g id="edge9" class="edge"><title>node1&#45;&gt;node5</title>
<path fill="none" stroke="black" d="M443.883,-270.648C426.934,-287.678 407.367,-307.336 388.917,-325.873"/>
<polygon fill="black" stroke="black" points="386.212,-323.63 381.638,-333.187 391.173,-328.568 386.212,-323.63"/>
</g>
<!-- node6 -->
<g id="node6" class="node"><title>node6</title>
<polygon fill="white" stroke="black" points="282.105,-186.82 282.105,-307.82 393.105,-307.82 393.105,-186.82 282.105,-186.82"/>
<text text-anchor="middle" x="337.605" y="-292.62" font-family="Times,serif" font-size="14.00">phendesc</text>
<polyline fill="none" stroke="black" points="282.105,-284.82 393.105,-284.82 "/>
<text text-anchor="start" x="290.105" y="-269.62" font-family="Times,serif" font-size="14.00">&#45; phendesc_id</text>
<text text-anchor="start" x="290.105" y="-254.62" font-family="Times,serif" font-size="14.00">&#45; genotype_id</text>
<text text-anchor="start" x="290.105" y="-239.62" font-family="Times,serif" font-size="14.00">&#45; environment_id</text>
<text text-anchor="start" x="290.105" y="-224.62" font-family="Times,serif" font-size="14.00">&#45; description</text>
<text text-anchor="start" x="290.105" y="-209.62" font-family="Times,serif" font-size="14.00">&#45; type_id</text>
<text text-anchor="start" x="290.105" y="-194.62" font-family="Times,serif" font-size="14.00">&#45; pub_id</text>
</g>
<!-- node1&#45;&gt;node6 -->
<g id="edge7" class="edge"><title>node1&#45;&gt;node6</title>
<path fill="none" stroke="black" d="M443.818,-231.325C431.118,-233.238 417.09,-235.35 403.507,-237.396"/>
<polygon fill="black" stroke="black" points="402.602,-233.992 393.235,-238.943 403.645,-240.914 402.602,-233.992"/>
</g>
<!-- node7 -->
<g id="node7" class="node"><title>node7</title>
<polygon fill="white" stroke="black" points="229.739,-0.5 229.739,-166.5 398.739,-166.5 398.739,-0.5 229.739,-0.5"/>
<text text-anchor="middle" x="314.239" y="-151.3" font-family="Times,serif" font-size="14.00">phenotype_comparison</text>
<polyline fill="none" stroke="black" points="229.739,-143.5 398.739,-143.5 "/>
<text text-anchor="start" x="237.739" y="-128.3" font-family="Times,serif" font-size="14.00">&#45; phenotype_comparison_id</text>
<text text-anchor="start" x="237.739" y="-113.3" font-family="Times,serif" font-size="14.00">&#45; genotype1_id</text>
<text text-anchor="start" x="237.739" y="-98.3" font-family="Times,serif" font-size="14.00">&#45; environment1_id</text>
<text text-anchor="start" x="237.739" y="-83.3" font-family="Times,serif" font-size="14.00">&#45; genotype2_id</text>
<text text-anchor="start" x="237.739" y="-68.3" font-family="Times,serif" font-size="14.00">&#45; environment2_id</text>
<text text-anchor="start" x="237.739" y="-53.3" font-family="Times,serif" font-size="14.00">&#45; phenotype1_id</text>
<text text-anchor="start" x="237.739" y="-38.3" font-family="Times,serif" font-size="14.00">&#45; phenotype2_id</text>
<text text-anchor="start" x="237.739" y="-23.3" font-family="Times,serif" font-size="14.00">&#45; pub_id</text>
<text text-anchor="start" x="237.739" y="-8.3" font-family="Times,serif" font-size="14.00">&#45; organism_id</text>
</g>
<!-- node1&#45;&gt;node7 -->
<g id="edge8" class="edge"><title>node1&#45;&gt;node7</title>
<path fill="none" stroke="black" d="M443.773,-187.365C432.322,-178.184 419.641,-168.016 406.826,-157.739"/>
<polygon fill="black" stroke="black" points="408.83,-154.86 398.838,-151.335 404.451,-160.321 408.83,-154.86"/>
</g>
<!-- node9 -->
<g id="node9" class="node"><title>node9</title>
<polygon fill="white" stroke="black" points="468.235,-35.029 468.235,-141.029 584.235,-141.029 584.235,-35.029 468.235,-35.029"/>
<text text-anchor="middle" x="526.235" y="-125.829" font-family="Times,serif" font-size="14.00">genotypeprop</text>
<polyline fill="none" stroke="black" points="468.235,-118.029 584.235,-118.029 "/>
<text text-anchor="start" x="476.235" y="-102.829" font-family="Times,serif" font-size="14.00">&#45; genotypeprop_id</text>
<text text-anchor="start" x="476.235" y="-87.829" font-family="Times,serif" font-size="14.00">&#45; genotype_id</text>
<text text-anchor="start" x="476.235" y="-72.829" font-family="Times,serif" font-size="14.00">&#45; type_id</text>
<text text-anchor="start" x="476.235" y="-57.829" font-family="Times,serif" font-size="14.00">&#45; value</text>
<text text-anchor="start" x="476.235" y="-42.829" font-family="Times,serif" font-size="14.00">&#45; rank</text>
</g>
<!-- node1&#45;&gt;node9 -->
<g id="edge6" class="edge"><title>node1&#45;&gt;node9</title>
<path fill="none" stroke="black" d="M504.074,-171.273C505.839,-164.641 507.658,-157.809 509.459,-151.045"/>
<polygon fill="black" stroke="black" points="512.885,-151.779 512.076,-141.216 506.121,-149.979 512.885,-151.779"/>
</g>
<!-- node3 -->
<g id="node3" class="node"><title>node3</title>
<polygon fill="white" stroke="black" points="136.983,-206.045 136.983,-282.045 247.983,-282.045 247.983,-206.045 136.983,-206.045"/>
<text text-anchor="middle" x="192.483" y="-266.845" font-family="Times,serif" font-size="14.00">environment</text>
<polyline fill="none" stroke="black" points="136.983,-259.045 247.983,-259.045 "/>
<text text-anchor="start" x="144.983" y="-243.845" font-family="Times,serif" font-size="14.00">&#45; environment_id</text>
<text text-anchor="start" x="144.983" y="-228.845" font-family="Times,serif" font-size="14.00">&#45; uniquename</text>
<text text-anchor="start" x="144.983" y="-213.845" font-family="Times,serif" font-size="14.00">&#45; description</text>
</g>
<!-- node4 -->
<g id="node4" class="node"><title>node4</title>
<polygon fill="white" stroke="black" points="26.9716,-328.166 26.9716,-404.166 182.972,-404.166 182.972,-328.166 26.9716,-328.166"/>
<text text-anchor="middle" x="104.972" y="-388.966" font-family="Times,serif" font-size="14.00">environment_cvterm</text>
<polyline fill="none" stroke="black" points="26.9716,-381.166 182.972,-381.166 "/>
<text text-anchor="start" x="34.9716" y="-365.966" font-family="Times,serif" font-size="14.00">&#45; environment_cvterm_id</text>
<text text-anchor="start" x="34.9716" y="-350.966" font-family="Times,serif" font-size="14.00">&#45; environment_id</text>
<text text-anchor="start" x="34.9716" y="-335.966" font-family="Times,serif" font-size="14.00">&#45; cvterm_id</text>
</g>
<!-- node3&#45;&gt;node4 -->
<g id="edge1" class="edge"><title>node3&#45;&gt;node4</title>
<path fill="none" stroke="black" d="M165.034,-282.35C156.563,-294.171 147.14,-307.321 138.317,-319.633"/>
<polygon fill="black" stroke="black" points="135.303,-317.83 132.323,-327.997 140.993,-321.907 135.303,-317.83"/>
</g>
<!-- node3&#45;&gt;node5 -->
<g id="edge4" class="edge"><title>node3&#45;&gt;node5</title>
<path fill="none" stroke="black" d="M225.349,-282.197C236.657,-295.324 249.688,-310.452 262.431,-325.245"/>
<polygon fill="black" stroke="black" points="259.88,-327.646 269.058,-332.938 265.184,-323.077 259.88,-327.646"/>
</g>
<!-- node3&#45;&gt;node6 -->
<g id="edge2" class="edge"><title>node3&#45;&gt;node6</title>
<path fill="none" stroke="black" d="M248.176,-245.302C255.846,-245.475 263.782,-245.654 271.615,-245.831"/>
<polygon fill="black" stroke="black" points="271.745,-249.335 281.822,-246.061 271.903,-242.336 271.745,-249.335"/>
</g>
<!-- node3&#45;&gt;node7 -->
<g id="edge3" class="edge"><title>node3&#45;&gt;node7</title>
<path fill="none" stroke="black" d="M221.338,-205.998C228.637,-196.373 236.796,-185.615 245.165,-174.58"/>
<polygon fill="black" stroke="black" points="248.033,-176.59 251.287,-166.508 242.455,-172.36 248.033,-176.59"/>
</g>
<!-- node8 -->
<g id="node8" class="node"><title>node8</title>
<polygon fill="white" stroke="black" points="-5.68434e-14,-52.589 -5.68434e-14,-158.589 214,-158.589 214,-52.589 -5.68434e-14,-52.589"/>
<text text-anchor="middle" x="107" y="-143.389" font-family="Times,serif" font-size="14.00">phenotype_comparison_cvterm</text>
<polyline fill="none" stroke="black" points="-5.68434e-14,-135.589 214,-135.589 "/>
<text text-anchor="start" x="8" y="-120.389" font-family="Times,serif" font-size="14.00">&#45; phenotype_comparison_cvterm_id</text>
<text text-anchor="start" x="8" y="-105.389" font-family="Times,serif" font-size="14.00">&#45; phenotype_comparison_id</text>
<text text-anchor="start" x="8" y="-90.389" font-family="Times,serif" font-size="14.00">&#45; cvterm_id</text>
<text text-anchor="start" x="8" y="-75.389" font-family="Times,serif" font-size="14.00">&#45; pub_id</text>
<text text-anchor="start" x="8" y="-60.389" font-family="Times,serif" font-size="14.00">&#45; rank</text>
</g>
<!-- node7&#45;&gt;node8 -->
<g id="edge10" class="edge"><title>node7&#45;&gt;node8</title>
<path fill="none" stroke="black" d="M229.648,-92.5163C227.878,-92.7049 226.101,-92.8944 224.318,-93.0844"/>
<polygon fill="black" stroke="black" points="223.634,-89.6374 214.061,-94.1776 224.376,-96.598 223.634,-89.6374"/>
</g>
</g>
</svg>
