<?xml version="1.0" encoding="UTF-8" standalone="no"?>
<!DOCTYPE svg PUBLIC "-//W3C//DTD SVG 1.0//EN"
 "http://www.w3.org/TR/2001/REC-SVG-20010904/DTD/svg10.dtd">
<!-- Generated by neato version 1.10 (Tue Nov 11 16:12:26 EST 2003)
     For user: (allenday) Allen Day   Title: test    Pages: 1 -->
<svg width="974px" height="782px"
 viewBox = "-1 -1 730 586"
 xmlns="http://www.w3.org/2000/svg">
<g id="graph0" class="graph" style="font-family:Times-Roman;font-size:14.00;">
<title>test</title>
<polygon style="fill:white;stroke:white;" points="0,584 0,-1 729,-1 729,584 0,584"/>
<g id="node1" class="node"><title>featuremap</title>
<polygon style="fill:white;stroke:black;" points="403,140 520,140 520,52 403,52 403,140"/>
<text text-anchor="middle" x="461" y="67">featuremap</text>
<polyline style="fill:none;stroke:black;" points="403,72 520,72 "/>
<text text-anchor="start" x="403" y="87">featuremap_id</text>
<text text-anchor="start" x="403" y="103">mapname</text>
<text text-anchor="start" x="403" y="119">mapdesc</text>
<text text-anchor="middle" x="461" y="135">mapunit</text>
</g>
<g id="node2" class="node"><title>featurerange</title>
<polygon style="fill:white;stroke:black;" points="544,436 669,436 669,284 544,284 544,436"/>
<text text-anchor="middle" x="606" y="299">featurerange</text>
<polyline style="fill:none;stroke:black;" points="544,304 669,304 "/>
<text text-anchor="start" x="544" y="319">featurerange_id</text>
<text text-anchor="start" x="544" y="335">featuremap_id</text>
<text text-anchor="start" x="544" y="351">feature_id</text>
<text text-anchor="start" x="544" y="367">leftstartf_id</text>
<text text-anchor="start" x="544" y="383">leftendf_id</text>
<text text-anchor="start" x="544" y="399">rightstartf_id</text>
<text text-anchor="start" x="544" y="415">rightendf_id</text>
<text text-anchor="middle" x="606" y="431">rangestr</text>
</g>
<g id="edge6" class="edge"><title>featuremap-&gt;featurerange</title>
<path style="fill:none;stroke:black;" d="M485,140C509,185 535,230 559,275"/>
<polygon style="fill:black;stroke:black;" points="561,274 564,284 557,276 561,274"/>
</g>
<g id="node3" class="node"><title>featurepos</title>
<polygon style="fill:white;stroke:black;" points="203,522 330,522 330,418 203,418 203,522"/>
<text text-anchor="middle" x="266" y="433">featurepos</text>
<polyline style="fill:none;stroke:black;" points="203,438 330,438 "/>
<text text-anchor="start" x="203" y="453">featurepos_id</text>
<text text-anchor="start" x="203" y="469">featuremap_id</text>
<text text-anchor="start" x="203" y="485">feature_id</text>
<text text-anchor="start" x="203" y="501">map_feature_id</text>
<text text-anchor="middle" x="266" y="517">mappos</text>
</g>
<g id="edge4" class="edge"><title>featuremap-&gt;featurepos</title>
<path style="fill:none;stroke:black;" d="M438,140C392,229 344,320 298,409"/>
<polygon style="fill:black;stroke:black;" points="300,410 293,418 296,408 300,410"/>
</g>
<g id="node4" class="node"><title>featuremap_pub</title>
<polygon style="fill:white;stroke:black;" points="76,200 230,200 230,128 76,128 76,200"/>
<text text-anchor="middle" x="153" y="143">featuremap_pub</text>
<polyline style="fill:none;stroke:black;" points="76,148 230,148 "/>
<text text-anchor="start" x="76" y="163">featuremap_pub_id</text>
<text text-anchor="start" x="76" y="179">featuremap_id</text>
<text text-anchor="middle" x="153" y="195">pub_id</text>
</g>
<g id="edge2" class="edge"><title>featuremap-&gt;featuremap_pub</title>
<path style="fill:none;stroke:black;" d="M402,109C348,120 293,133 239,145"/>
<polygon style="fill:black;stroke:black;" points="240,147 230,147 239,142 240,147"/>
</g>
</g></svg>
