<?xml version="1.0" encoding="UTF-8" standalone="no"?>
<!DOCTYPE svg PUBLIC "-//W3C//DTD SVG 1.0//EN"
 "http://www.w3.org/TR/2001/REC-SVG-20010904/DTD/svg10.dtd" [
 <!ATTLIST svg xmlns:xlink CDATA #FIXED "http://www.w3.org/1999/xlink">
]>
<!-- Generated by Graphviz version 2.12 (Tue Sep  4 16:56:48 UTC 2007)
     For user: (scott) Scott Cain,,, -->
<!-- Title: test Pages: 1 -->
<svg width="9.96in" height="7.99in"
 xmlns="http://www.w3.org/2000/svg" xmlns:xlink="http://www.w3.org/1999/xlink">
<g id="graph0" class="graph" transform="scale(1.31507 1.31507) rotate(0) translate(4 580)">
<title>test</title>
<polygon style="fill:white;stroke:white;" points="-4,4 -4,-580 723,-580 723,4 -4,4"/>
<!-- featuremap -->
<g id="node1" class="node"><title>featuremap</title>
<polygon style="fill:white;stroke:black;" points="433,-426 433,-542 543,-542 543,-426 433,-426"/>
<text text-anchor="middle" x="488" y="-524" style="font-family:Nimbus Roman No9 L;font-weight:regular;font-size:11.34pt;">featuremap</text>
<polyline style="fill:none;stroke:black;" points="433,-514 543,-514 "/>
<text text-anchor="start" x="441" y="-496" style="font-family:Nimbus Roman No9 L;font-weight:regular;font-size:11.34pt;">&#45; featuremap_id </text>
<text text-anchor="start" x="441" y="-476" style="font-family:Nimbus Roman No9 L;font-weight:regular;font-size:11.34pt;">&#45; name </text>
<text text-anchor="start" x="441" y="-456" style="font-family:Nimbus Roman No9 L;font-weight:regular;font-size:11.34pt;">&#45; description </text>
<text text-anchor="start" x="441" y="-436" style="font-family:Nimbus Roman No9 L;font-weight:regular;font-size:11.34pt;">&#45; unittype_id </text>
</g>
<!-- featurerange -->
<g id="node2" class="node"><title>featurerange</title>
<polygon style="fill:white;stroke:black;" points="554,-93 554,-289 671,-289 671,-93 554,-93"/>
<text text-anchor="middle" x="612" y="-271" style="font-family:Nimbus Roman No9 L;font-weight:regular;font-size:11.34pt;">featurerange</text>
<polyline style="fill:none;stroke:black;" points="554,-261 671,-261 "/>
<text text-anchor="start" x="562" y="-243" style="font-family:Nimbus Roman No9 L;font-weight:regular;font-size:11.34pt;">&#45; featurerange_id </text>
<text text-anchor="start" x="562" y="-223" style="font-family:Nimbus Roman No9 L;font-weight:regular;font-size:11.34pt;">&#45; featuremap_id </text>
<text text-anchor="start" x="562" y="-203" style="font-family:Nimbus Roman No9 L;font-weight:regular;font-size:11.34pt;">&#45; feature_id </text>
<text text-anchor="start" x="562" y="-183" style="font-family:Nimbus Roman No9 L;font-weight:regular;font-size:11.34pt;">&#45; leftstartf_id </text>
<text text-anchor="start" x="562" y="-163" style="font-family:Nimbus Roman No9 L;font-weight:regular;font-size:11.34pt;">&#45; leftendf_id </text>
<text text-anchor="start" x="562" y="-143" style="font-family:Nimbus Roman No9 L;font-weight:regular;font-size:11.34pt;">&#45; rightstartf_id </text>
<text text-anchor="start" x="562" y="-123" style="font-family:Nimbus Roman No9 L;font-weight:regular;font-size:11.34pt;">&#45; rightendf_id </text>
<text text-anchor="start" x="562" y="-103" style="font-family:Nimbus Roman No9 L;font-weight:regular;font-size:11.34pt;">&#45; rangestr </text>
</g>
<!-- featuremap&#45;&gt;featurerange -->
<g id="edge6" class="edge"><title>featuremap&#45;&gt;featurerange</title>
<path style="fill:none;stroke:black;" d="M513,-426C528,-390 548,-341 567,-298"/>
<polygon style="fill:black;stroke:black;" points="570.137,-299.56 571,-289 563.74,-296.717 570.137,-299.56"/>
</g>
<!-- featurepos -->
<g id="node3" class="node"><title>featurepos</title>
<polygon style="fill:white;stroke:black;" points="168,-40 168,-176 285,-176 285,-40 168,-40"/>
<text text-anchor="middle" x="226" y="-158" style="font-family:Nimbus Roman No9 L;font-weight:regular;font-size:11.34pt;">featurepos</text>
<polyline style="fill:none;stroke:black;" points="168,-148 285,-148 "/>
<text text-anchor="start" x="176" y="-130" style="font-family:Nimbus Roman No9 L;font-weight:regular;font-size:11.34pt;">&#45; featurepos_id </text>
<text text-anchor="start" x="176" y="-110" style="font-family:Nimbus Roman No9 L;font-weight:regular;font-size:11.34pt;">&#45; featuremap_id </text>
<text text-anchor="start" x="176" y="-90" style="font-family:Nimbus Roman No9 L;font-weight:regular;font-size:11.34pt;">&#45; feature_id </text>
<text text-anchor="start" x="176" y="-70" style="font-family:Nimbus Roman No9 L;font-weight:regular;font-size:11.34pt;">&#45; map_feature_id </text>
<text text-anchor="start" x="176" y="-50" style="font-family:Nimbus Roman No9 L;font-weight:regular;font-size:11.34pt;">&#45; mappos </text>
</g>
<!-- featuremap&#45;&gt;featurepos -->
<g id="edge4" class="edge"><title>featuremap&#45;&gt;featurepos</title>
<path style="fill:none;stroke:black;" d="M447,-426C402,-361 329,-256 279,-184"/>
<polygon style="fill:black;stroke:black;" points="281.8,-181.9 273,-176 276.2,-186.1 281.8,-181.9"/>
</g>
<!-- featuremap_pub -->
<g id="node4" class="node"><title>featuremap_pub</title>
<polygon style="fill:white;stroke:black;" points="58,-398 58,-494 196,-494 196,-398 58,-398"/>
<text text-anchor="middle" x="127" y="-476" style="font-family:Nimbus Roman No9 L;font-weight:regular;font-size:11.34pt;">featuremap_pub</text>
<polyline style="fill:none;stroke:black;" points="58,-466 196,-466 "/>
<text text-anchor="start" x="66" y="-448" style="font-family:Nimbus Roman No9 L;font-weight:regular;font-size:11.34pt;">&#45; featuremap_pub_id </text>
<text text-anchor="start" x="66" y="-428" style="font-family:Nimbus Roman No9 L;font-weight:regular;font-size:11.34pt;">&#45; featuremap_id </text>
<text text-anchor="start" x="66" y="-408" style="font-family:Nimbus Roman No9 L;font-weight:regular;font-size:11.34pt;">&#45; pub_id </text>
</g>
<!-- featuremap&#45;&gt;featuremap_pub -->
<g id="edge2" class="edge"><title>featuremap&#45;&gt;featuremap_pub</title>
<path style="fill:none;stroke:black;" d="M433,-478C373,-472 275,-462 206,-454"/>
<polygon style="fill:black;stroke:black;" points="206.299,-450.512 196,-453 205.602,-457.478 206.299,-450.512"/>
</g>
</g>
</svg>
