<?xml version="1.0" encoding="UTF-8" standalone="no"?>
<!DOCTYPE svg PUBLIC "-//W3C//DTD SVG 1.0//EN"
 "http://www.w3.org/TR/2001/REC-SVG-20010904/DTD/svg10.dtd" [
 <!ATTLIST svg xmlns:xlink CDATA #FIXED "http://www.w3.org/1999/xlink">
]>
<!-- Generated by dot version 2.8 (Thu Sep 14 20:34:11 UTC 2006)
     For user: (scott) Scott Cain -->
<!-- Title: test Pages: 1 -->
<svg width="728pt" height="583pt"
 viewBox = "0 0 728 583"
 xmlns="http://www.w3.org/2000/svg" xmlns:xlink="http://www.w3.org/1999/xlink">
<g id="graph0" class="graph" style="font-family:Times-Roman;font-size:14.00;">
<title>test</title>
<polygon style="fill:white;stroke:white;" points="-2,586 -2,-2 730,-2 730,586 -2,586"/>
<!-- organism -->
<g id="node1" class="node"><title>organism</title>
<polygon style="fill:white;stroke:black;" points="311,312 458,312 458,201 311,201 311,312"/>
<text text-anchor="start" x="318" y="217" style="font-size:12.91pt;">{organism|&#45; organism_id </text>
<text text-anchor="start" x="318" y="232" style="font-size:12.91pt;">&#45; abbreviation </text>
<text text-anchor="start" x="318" y="246" style="font-size:12.91pt;">&#45; genus </text>
<text text-anchor="start" x="318" y="261" style="font-size:12.91pt;">&#45; species </text>
<text text-anchor="start" x="318" y="276" style="font-size:12.91pt;">&#45; common_name </text>
<text text-anchor="start" x="318" y="291" style="font-size:12.91pt;">&#45; comment </text>
<text text-anchor="middle" x="384" y="305" style="font-size:12.91pt;">}</text>
</g>
<!-- organism_dbxref -->
<g id="node2" class="node"><title>organism_dbxref</title>
<polygon style="fill:white;stroke:black;" points="496,527 723,527 723,460 496,460 496,527"/>
<text text-anchor="start" x="504" y="476" style="font-size:12.91pt;">{organism_dbxref|&#45; organism_dbxref_id </text>
<text text-anchor="start" x="504" y="491" style="font-size:12.91pt;">&#45; organism_id </text>
<text text-anchor="start" x="504" y="505" style="font-size:12.91pt;">&#45; dbxref_id </text>
<text text-anchor="middle" x="610" y="520" style="font-size:12.91pt;">}</text>
</g>
<!-- organism&#45;&gt;organism_dbxref -->
<g id="edge2" class="edge"><title>organism&#45;&gt;organism_dbxref</title>
<path style="fill:none;stroke:black;" d="M436,312C478,355 535,414 572,454"/>
<polygon style="fill:black;stroke:black;" points="574,451 578,460 569,456 574,451"/>
</g>
<!-- organismprop -->
<g id="node3" class="node"><title>organismprop</title>
<polygon style="fill:white;stroke:black;" points="62,542 256,542 256,446 62,446 62,542"/>
<text text-anchor="start" x="69" y="462" style="font-size:12.91pt;">{organismprop|&#45; organismprop_id </text>
<text text-anchor="start" x="69" y="477" style="font-size:12.91pt;">&#45; organism_id </text>
<text text-anchor="start" x="69" y="492" style="font-size:12.91pt;">&#45; type_id </text>
<text text-anchor="start" x="69" y="506" style="font-size:12.91pt;">&#45; value </text>
<text text-anchor="start" x="69" y="521" style="font-size:12.91pt;">&#45; rank </text>
<text text-anchor="middle" x="159" y="536" style="font-size:12.91pt;">}</text>
</g>
<!-- organism&#45;&gt;organismprop -->
<g id="edge8" class="edge"><title>organism&#45;&gt;organismprop</title>
<path style="fill:none;stroke:black;" d="M331,312C294,351 246,401 211,440"/>
<polygon style="fill:black;stroke:black;" points="213,442 204,446 209,437 213,442"/>
</g>
<!-- organism_relationship -->
<g id="node4" class="node"><title>organism_relationship</title>
<polygon style="fill:white;stroke:black;" points="5,129 286,129 286,48 5,48 5,129"/>
<text text-anchor="start" x="12" y="64" style="font-size:12.91pt;">{organism_relationship|&#45; organism_relationship_id </text>
<text text-anchor="start" x="12" y="79" style="font-size:12.91pt;">&#45; subject_id </text>
<text text-anchor="start" x="12" y="93" style="font-size:12.91pt;">&#45; object_id </text>
<text text-anchor="start" x="12" y="108" style="font-size:12.91pt;">&#45; type_id </text>
<text text-anchor="middle" x="145" y="123" style="font-size:12.91pt;">}</text>
</g>
<!-- organism&#45;&gt;organism_relationship -->
<g id="edge4" class="edge"><title>organism&#45;&gt;organism_relationship</title>
<path style="fill:none;stroke:black;" d="M311,205C279,183 242,157 211,135"/>
<polygon style="fill:black;stroke:black;" points="209,138 203,129 212,132 209,138"/>
</g>
<!-- organismpath -->
<g id="node5" class="node"><title>organismpath</title>
<polygon style="fill:white;stroke:black;" points="528,136 718,136 718,40 528,40 528,136"/>
<text text-anchor="start" x="535" y="55" style="font-size:12.91pt;">{organismpath|&#45; organismpath_id </text>
<text text-anchor="start" x="535" y="70" style="font-size:12.91pt;">&#45; subject_id </text>
<text text-anchor="start" x="535" y="85" style="font-size:12.91pt;">&#45; object_id </text>
<text text-anchor="start" x="535" y="100" style="font-size:12.91pt;">&#45; type_id </text>
<text text-anchor="start" x="535" y="114" style="font-size:12.91pt;">&#45; pathdistance </text>
<text text-anchor="middle" x="623" y="129" style="font-size:12.91pt;">}</text>
</g>
<!-- organism&#45;&gt;organismpath -->
<g id="edge6" class="edge"><title>organism&#45;&gt;organismpath</title>
<path style="fill:none;stroke:black;" d="M458,204C486,185 518,162 547,141"/>
<polygon style="fill:black;stroke:black;" points="545,138 554,136 549,144 545,138"/>
</g>
</g>
</svg>
