<?xml version="1.0" encoding="UTF-8" standalone="no"?>
<!DOCTYPE svg PUBLIC "-//W3C//DTD SVG 1.0//EN"
 "http://www.w3.org/TR/2001/REC-SVG-20010904/DTD/svg10.dtd" [
 <!ATTLIST svg xmlns:xlink CDATA #FIXED "http://www.w3.org/1999/xlink">
]>
<!-- Generated by Graphviz version 2.12 (Tue Sep  4 16:56:48 UTC 2007)
     For user: (scott) Scott Cain,,, -->
<!-- Title: test Pages: 1 -->
<svg width="9.97in" height="7.99in"
 xmlns="http://www.w3.org/2000/svg" xmlns:xlink="http://www.w3.org/1999/xlink">
<g id="graph0" class="graph" transform="scale(1.31507 1.31507) rotate(0) translate(4 580)">
<title>test</title>
<polygon style="fill:white;stroke:white;" points="-4,4 -4,-580 724,-580 724,4 -4,4"/>
<!-- organism -->
<g id="node1" class="node"><title>organism</title>
<polygon style="fill:white;stroke:black;" points="85,-359 85,-515 200,-515 200,-359 85,-359"/>
<text text-anchor="middle" x="142" y="-497" style="font-family:Nimbus Roman No9 L;font-weight:regular;font-size:11.34pt;">organism</text>
<polyline style="fill:none;stroke:black;" points="85,-487 200,-487 "/>
<text text-anchor="start" x="93" y="-469" style="font-family:Nimbus Roman No9 L;font-weight:regular;font-size:11.34pt;">&#45; organism_id </text>
<text text-anchor="start" x="93" y="-449" style="font-family:Nimbus Roman No9 L;font-weight:regular;font-size:11.34pt;">&#45; abbreviation </text>
<text text-anchor="start" x="93" y="-429" style="font-family:Nimbus Roman No9 L;font-weight:regular;font-size:11.34pt;">&#45; genus </text>
<text text-anchor="start" x="93" y="-409" style="font-family:Nimbus Roman No9 L;font-weight:regular;font-size:11.34pt;">&#45; species </text>
<text text-anchor="start" x="93" y="-389" style="font-family:Nimbus Roman No9 L;font-weight:regular;font-size:11.34pt;">&#45; common_name </text>
<text text-anchor="start" x="93" y="-369" style="font-family:Nimbus Roman No9 L;font-weight:regular;font-size:11.34pt;">&#45; comment </text>
</g>
<!-- organism_dbxref -->
<g id="node2" class="node"><title>organism_dbxref</title>
<polygon style="fill:white;stroke:black;" points="475,-405 475,-501 618,-501 618,-405 475,-405"/>
<text text-anchor="middle" x="546" y="-483" style="font-family:Nimbus Roman No9 L;font-weight:regular;font-size:11.34pt;">organism_dbxref</text>
<polyline style="fill:none;stroke:black;" points="475,-473 618,-473 "/>
<text text-anchor="start" x="483" y="-455" style="font-family:Nimbus Roman No9 L;font-weight:regular;font-size:11.34pt;">&#45; organism_dbxref_id </text>
<text text-anchor="start" x="483" y="-435" style="font-family:Nimbus Roman No9 L;font-weight:regular;font-size:11.34pt;">&#45; organism_id </text>
<text text-anchor="start" x="483" y="-415" style="font-family:Nimbus Roman No9 L;font-weight:regular;font-size:11.34pt;">&#45; dbxref_id </text>
</g>
<!-- organism&#45;&gt;organism_dbxref -->
<g id="edge2" class="edge"><title>organism&#45;&gt;organism_dbxref</title>
<path style="fill:none;stroke:black;" d="M200,-439C270,-442 386,-447 465,-450"/>
<polygon style="fill:black;stroke:black;" points="465,-453.5 475,-450 465,-446.5 465,-453.5"/>
</g>
<!-- organismprop -->
<g id="node3" class="node"><title>organismprop</title>
<polygon style="fill:white;stroke:black;" points="297,-54 297,-190 422,-190 422,-54 297,-54"/>
<text text-anchor="middle" x="359" y="-172" style="font-family:Nimbus Roman No9 L;font-weight:regular;font-size:11.34pt;">organismprop</text>
<polyline style="fill:none;stroke:black;" points="297,-162 422,-162 "/>
<text text-anchor="start" x="305" y="-144" style="font-family:Nimbus Roman No9 L;font-weight:regular;font-size:11.34pt;">&#45; organismprop_id </text>
<text text-anchor="start" x="305" y="-124" style="font-family:Nimbus Roman No9 L;font-weight:regular;font-size:11.34pt;">&#45; organism_id </text>
<text text-anchor="start" x="305" y="-104" style="font-family:Nimbus Roman No9 L;font-weight:regular;font-size:11.34pt;">&#45; type_id </text>
<text text-anchor="start" x="305" y="-84" style="font-family:Nimbus Roman No9 L;font-weight:regular;font-size:11.34pt;">&#45; value </text>
<text text-anchor="start" x="305" y="-64" style="font-family:Nimbus Roman No9 L;font-weight:regular;font-size:11.34pt;">&#45; rank </text>
</g>
<!-- organism&#45;&gt;organismprop -->
<g id="edge4" class="edge"><title>organism&#45;&gt;organismprop</title>
<path style="fill:none;stroke:black;" d="M196,-359C230,-310 273,-247 306,-198"/>
<polygon style="fill:black;stroke:black;" points="308.8,-200.1 312,-190 303.2,-195.9 308.8,-200.1"/>
</g>
</g>
</svg>
