<?xml version="1.0" encoding="UTF-8" standalone="no"?>
<!DOCTYPE svg PUBLIC "-//W3C//DTD SVG 1.0//EN"
 "http://www.w3.org/TR/2001/REC-SVG-20010904/DTD/svg10.dtd" [
 <!ATTLIST svg xmlns:xlink CDATA #FIXED "http://www.w3.org/1999/xlink">
]>
<!-- Generated by dot version 2.8 (Thu Sep 14 20:34:11 UTC 2006)
     For user: (scott) Scott Cain -->
<!-- Title: test Pages: 1 -->
<svg width="727pt" height="583pt"
 viewBox = "0 0 727 583"
 xmlns="http://www.w3.org/2000/svg" xmlns:xlink="http://www.w3.org/1999/xlink">
<g id="graph0" class="graph" style="font-family:Times-Roman;font-size:14.00;">
<title>test</title>
<polygon style="fill:white;stroke:white;" points="-2,585 -2,-2 729,-2 729,585 -2,585"/>
<!-- pub -->
<g id="node1" class="node"><title>pub</title>
<polygon style="fill:white;stroke:black;" points="297,432 395,432 395,184 297,184 297,432"/>
<text text-anchor="start" x="305" y="201">{pub|&#45; pub_id </text>
<text text-anchor="start" x="305" y="217">&#45; title </text>
<text text-anchor="start" x="305" y="233">&#45; volumetitle </text>
<text text-anchor="start" x="305" y="249">&#45; volume </text>
<text text-anchor="start" x="305" y="265">&#45; series_name </text>
<text text-anchor="start" x="305" y="281">&#45; issue </text>
<text text-anchor="start" x="305" y="297">&#45; pyear </text>
<text text-anchor="start" x="305" y="313">&#45; pages </text>
<text text-anchor="start" x="305" y="329">&#45; miniref </text>
<text text-anchor="start" x="305" y="345">&#45; uniquename </text>
<text text-anchor="start" x="305" y="361">&#45; type_id </text>
<text text-anchor="start" x="305" y="377">&#45; is_obsolete </text>
<text text-anchor="start" x="305" y="393">&#45; publisher </text>
<text text-anchor="start" x="305" y="409">&#45; pubplace </text>
<text text-anchor="middle" x="346" y="425">}</text>
</g>
<!-- pub_relationship -->
<g id="node2" class="node"><title>pub_relationship</title>
<polygon style="fill:white;stroke:black;" points="459,557 702,557 702,469 459,469 459,557"/>
<text text-anchor="start" x="467" y="486">{pub_relationship|&#45; pub_relationship_id </text>
<text text-anchor="start" x="467" y="502">&#45; subject_id </text>
<text text-anchor="start" x="467" y="518">&#45; object_id </text>
<text text-anchor="start" x="467" y="534">&#45; type_id </text>
<text text-anchor="middle" x="580" y="550">}</text>
</g>
<!-- pub&#45;&gt;pub_relationship -->
<g id="edge4" class="edge"><title>pub&#45;&gt;pub_relationship</title>
<path style="fill:none;stroke:black;" d="M395,351C433,384 483,428 522,462"/>
<polygon style="fill:black;stroke:black;" points="525,460 530,469 520,465 525,460"/>
</g>
<!-- pub_dbxref -->
<g id="node3" class="node"><title>pub_dbxref</title>
<polygon style="fill:white;stroke:black;" points="22,558 206,558 206,470 22,470 22,558"/>
<text text-anchor="start" x="30" y="487">{pub_dbxref|&#45; pub_dbxref_id </text>
<text text-anchor="start" x="30" y="503">&#45; pub_id </text>
<text text-anchor="start" x="30" y="519">&#45; dbxref_id </text>
<text text-anchor="start" x="30" y="535">&#45; is_current </text>
<text text-anchor="middle" x="114" y="551">}</text>
</g>
<!-- pub&#45;&gt;pub_dbxref -->
<g id="edge2" class="edge"><title>pub&#45;&gt;pub_dbxref</title>
<path style="fill:none;stroke:black;" d="M297,352C260,385 210,429 171,463"/>
<polygon style="fill:black;stroke:black;" points="174,465 164,470 169,460 174,465"/>
</g>
<!-- pubauthor -->
<g id="node4" class="node"><title>pubauthor</title>
<polygon style="fill:white;stroke:black;" points="29,170 199,170 199,34 29,34 29,170"/>
<text text-anchor="start" x="37" y="51">{pubauthor|&#45; pubauthor_id </text>
<text text-anchor="start" x="37" y="67">&#45; pub_id </text>
<text text-anchor="start" x="37" y="83">&#45; rank </text>
<text text-anchor="start" x="37" y="99">&#45; editor </text>
<text text-anchor="start" x="37" y="115">&#45; surname </text>
<text text-anchor="start" x="37" y="131">&#45; givennames </text>
<text text-anchor="start" x="37" y="147">&#45; suffix </text>
<text text-anchor="middle" x="114" y="163">}</text>
</g>
<!-- pub&#45;&gt;pubauthor -->
<g id="edge6" class="edge"><title>pub&#45;&gt;pubauthor</title>
<path style="fill:none;stroke:black;" d="M297,264C268,239 232,206 199,177"/>
<polygon style="fill:black;stroke:black;" points="196,179 191,170 201,174 196,179"/>
</g>
<!-- pubprop -->
<g id="node5" class="node"><title>pubprop</title>
<polygon style="fill:white;stroke:black;" points="505,153 654,153 654,49 505,49 505,153"/>
<text text-anchor="start" x="513" y="66">{pubprop|&#45; pubprop_id </text>
<text text-anchor="start" x="513" y="82">&#45; pub_id </text>
<text text-anchor="start" x="513" y="98">&#45; type_id </text>
<text text-anchor="start" x="513" y="114">&#45; value </text>
<text text-anchor="start" x="513" y="130">&#45; rank </text>
<text text-anchor="middle" x="579" y="146">}</text>
</g>
<!-- pub&#45;&gt;pubprop -->
<g id="edge8" class="edge"><title>pub&#45;&gt;pubprop</title>
<path style="fill:none;stroke:black;" d="M395,264C429,234 475,193 512,160"/>
<polygon style="fill:black;stroke:black;" points="510,157 520,153 515,162 510,157"/>
</g>
</g>
</svg>
