<?xml version="1.0" encoding="UTF-8" standalone="no"?>
<!DOCTYPE svg PUBLIC "-//W3C//DTD SVG 1.0//EN"
 "http://www.w3.org/TR/2001/REC-SVG-20010904/DTD/svg10.dtd" [
 <!ATTLIST svg xmlns:xlink CDATA #FIXED "http://www.w3.org/1999/xlink">
]>
<!-- Generated by Graphviz version 2.20.2 (Wed Sep 16 11:12:11 UTC 2009)
     For user: (cain) Scott Cain,,, -->
<!-- Title: test Pages: 1 -->
<svg width="448pt" height="435pt"
 viewBox="0.00 0.00 448.00 435.00" xmlns="http://www.w3.org/2000/svg" xmlns:xlink="http://www.w3.org/1999/xlink">
<g id="graph0" class="graph" transform="scale(1 1) rotate(0) translate(4 431)">
<title>test</title>
<polygon style="fill:lightgoldenrodyellow;stroke:lightgoldenrodyellow;" points="-4,4 -4,-431 444,-431 444,4 -4,4"/>
<!-- node1 -->
<g id="node1" class="node"><title>node1</title>
<polygon style="fill:white;stroke:black;" points="154,-65 154,-336 265,-336 265,-65 154,-65"/>
<text text-anchor="middle" x="209" y="-318.9" style="font-family:Times New Roman;font-size:14.00;">pub</text>
<polyline style="fill:none;stroke:black;" points="154,-311 265,-311 "/>
<text text-anchor="start" x="161.5" y="-294.4" style="font-family:Times New Roman;font-size:14.00;">&#45; pub_id</text>
<text text-anchor="start" x="161.5" y="-277.4" style="font-family:Times New Roman;font-size:14.00;">&#45; title</text>
<text text-anchor="start" x="161.5" y="-260.4" style="font-family:Times New Roman;font-size:14.00;">&#45; volumetitle</text>
<text text-anchor="start" x="161.5" y="-243.4" style="font-family:Times New Roman;font-size:14.00;">&#45; volume</text>
<text text-anchor="start" x="161.5" y="-226.4" style="font-family:Times New Roman;font-size:14.00;">&#45; series_name</text>
<text text-anchor="start" x="161.5" y="-209.4" style="font-family:Times New Roman;font-size:14.00;">&#45; issue</text>
<text text-anchor="start" x="161.5" y="-192.4" style="font-family:Times New Roman;font-size:14.00;">&#45; pyear</text>
<text text-anchor="start" x="161.5" y="-175.4" style="font-family:Times New Roman;font-size:14.00;">&#45; pages</text>
<text text-anchor="start" x="161.5" y="-158.4" style="font-family:Times New Roman;font-size:14.00;">&#45; miniref</text>
<text text-anchor="start" x="161.5" y="-141.4" style="font-family:Times New Roman;font-size:14.00;">&#45; uniquename</text>
<text text-anchor="start" x="161.5" y="-124.4" style="font-family:Times New Roman;font-size:14.00;">&#45; type_id</text>
<text text-anchor="start" x="161.5" y="-107.4" style="font-family:Times New Roman;font-size:14.00;">&#45; is_obsolete</text>
<text text-anchor="start" x="161.5" y="-90.4" style="font-family:Times New Roman;font-size:14.00;">&#45; publisher</text>
<text text-anchor="start" x="161.5" y="-73.4" style="font-family:Times New Roman;font-size:14.00;">&#45; pubplace</text>
</g>
<!-- node2 -->
<g id="node2" class="node"><title>node2</title>
<polygon style="fill:white;stroke:black;" points="281,-1 281,-102 440,-102 440,-1 281,-1"/>
<text text-anchor="middle" x="360" y="-84.9" style="font-family:Times New Roman;font-size:14.00;">pub_relationship</text>
<polyline style="fill:none;stroke:black;" points="281,-77 440,-77 "/>
<text text-anchor="start" x="288.5" y="-60.4" style="font-family:Times New Roman;font-size:14.00;">&#45; pub_relationship_id</text>
<text text-anchor="start" x="288.5" y="-43.4" style="font-family:Times New Roman;font-size:14.00;">&#45; subject_id</text>
<text text-anchor="start" x="288.5" y="-26.4" style="font-family:Times New Roman;font-size:14.00;">&#45; object_id</text>
<text text-anchor="start" x="288.5" y="-9.4" style="font-family:Times New Roman;font-size:14.00;">&#45; type_id</text>
</g>
<!-- node1&#45;&gt;node2 -->
<g id="edge4" class="edge"><title>node1&#45;&gt;node2</title>
<path style="fill:none;stroke:black;" d="M265,-146C277,-134 290,-121 302,-109"/>
<polygon style="fill:black;stroke:black;" points="304.404,-111.546 309,-102 299.454,-106.596 304.404,-111.546"/>
</g>
<!-- node3 -->
<g id="node3" class="node"><title>node3</title>
<polygon style="fill:white;stroke:black;" points="1,-0 1,-101 123,-101 123,-0 1,-0"/>
<text text-anchor="middle" x="62" y="-83.9" style="font-family:Times New Roman;font-size:14.00;">pub_dbxref</text>
<polyline style="fill:none;stroke:black;" points="1,-76 123,-76 "/>
<text text-anchor="start" x="9" y="-59.4" style="font-family:Times New Roman;font-size:14.00;">&#45; pub_dbxref_id</text>
<text text-anchor="start" x="9" y="-42.4" style="font-family:Times New Roman;font-size:14.00;">&#45; pub_id</text>
<text text-anchor="start" x="9" y="-25.4" style="font-family:Times New Roman;font-size:14.00;">&#45; dbxref_id</text>
<text text-anchor="start" x="9" y="-8.4" style="font-family:Times New Roman;font-size:14.00;">&#45; is_current</text>
</g>
<!-- node1&#45;&gt;node3 -->
<g id="edge2" class="edge"><title>node1&#45;&gt;node3</title>
<path style="fill:none;stroke:black;" d="M154,-145C142,-133 130,-120 118,-108"/>
<polygon style="fill:black;stroke:black;" points="120.546,-105.596 111,-101 115.596,-110.546 120.546,-105.596"/>
</g>
<!-- node4 -->
<g id="node4" class="node"><title>node4</title>
<polygon style="fill:white;stroke:black;" points="3,-274 3,-426 120,-426 120,-274 3,-274"/>
<text text-anchor="middle" x="61" y="-408.9" style="font-family:Times New Roman;font-size:14.00;">pubauthor</text>
<polyline style="fill:none;stroke:black;" points="3,-401 120,-401 "/>
<text text-anchor="start" x="10.5" y="-383.9" style="font-family:Times New Roman;font-size:14.00;">&#45; pubauthor_id</text>
<text text-anchor="start" x="10.5" y="-366.9" style="font-family:Times New Roman;font-size:14.00;">&#45; pub_id</text>
<text text-anchor="start" x="10.5" y="-349.9" style="font-family:Times New Roman;font-size:14.00;">&#45; rank</text>
<text text-anchor="start" x="10.5" y="-332.9" style="font-family:Times New Roman;font-size:14.00;">&#45; editor</text>
<text text-anchor="start" x="10.5" y="-315.9" style="font-family:Times New Roman;font-size:14.00;">&#45; surname</text>
<text text-anchor="start" x="10.5" y="-298.9" style="font-family:Times New Roman;font-size:14.00;">&#45; givennames</text>
<text text-anchor="start" x="10.5" y="-281.9" style="font-family:Times New Roman;font-size:14.00;">&#45; suffix</text>
</g>
<!-- node1&#45;&gt;node4 -->
<g id="edge6" class="edge"><title>node1&#45;&gt;node4</title>
<path style="fill:none;stroke:black;" d="M154,-256C145,-265 136,-274 127,-283"/>
<polygon style="fill:black;stroke:black;" points="123.951,-281.169 120,-291 129.219,-285.779 123.951,-281.169"/>
</g>
<!-- node5 -->
<g id="node5" class="node"><title>node5</title>
<polygon style="fill:white;stroke:black;" points="309,-291 309,-409 411,-409 411,-291 309,-291"/>
<text text-anchor="middle" x="360" y="-391.9" style="font-family:Times New Roman;font-size:14.00;">pubprop</text>
<polyline style="fill:none;stroke:black;" points="309,-384 411,-384 "/>
<text text-anchor="start" x="317" y="-366.9" style="font-family:Times New Roman;font-size:14.00;">&#45; pubprop_id</text>
<text text-anchor="start" x="317" y="-349.9" style="font-family:Times New Roman;font-size:14.00;">&#45; pub_id</text>
<text text-anchor="start" x="317" y="-332.9" style="font-family:Times New Roman;font-size:14.00;">&#45; type_id</text>
<text text-anchor="start" x="317" y="-315.9" style="font-family:Times New Roman;font-size:14.00;">&#45; value</text>
<text text-anchor="start" x="317" y="-298.9" style="font-family:Times New Roman;font-size:14.00;">&#45; rank</text>
</g>
<!-- node1&#45;&gt;node5 -->
<g id="edge8" class="edge"><title>node1&#45;&gt;node5</title>
<path style="fill:none;stroke:black;" d="M265,-256C277,-268 290,-280 302,-292"/>
<polygon style="fill:black;stroke:black;" points="299.454,-294.404 309,-299 304.404,-289.454 299.454,-294.404"/>
</g>
</g>
</svg>
