<?xml version="1.0" encoding="UTF-8" standalone="no"?>
<!DOCTYPE svg PUBLIC "-//W3C//DTD SVG 1.0//EN"
 "http://www.w3.org/TR/2001/REC-SVG-20010904/DTD/svg10.dtd" [
 <!ATTLIST svg xmlns:xlink CDATA #FIXED "http://www.w3.org/1999/xlink">
]>
<!-- Generated by Graphviz version 2.12 (Tue Sep  4 16:56:48 UTC 2007)
     For user: (scott) Scott Cain,,, -->
<!-- Title: test Pages: 1 -->
<svg width="9.96in" height="7.99in"
 xmlns="http://www.w3.org/2000/svg" xmlns:xlink="http://www.w3.org/1999/xlink">
<g id="graph0" class="graph" transform="scale(1.1944 1.1944) rotate(0) translate(4 639)">
<title>test</title>
<polygon style="fill:white;stroke:white;" points="-4,4 -4,-639 797,-639 797,4 -4,4"/>
<!-- pub -->
<g id="node1" class="node"><title>pub</title>
<polygon style="fill:white;stroke:black;" points="237,-145 237,-461 334,-461 334,-145 237,-145"/>
<text text-anchor="middle" x="285" y="-443" style="font-family:Nimbus Roman No9 L;font-weight:regular;font-size:11.34pt;">pub</text>
<polyline style="fill:none;stroke:black;" points="237,-433 334,-433 "/>
<text text-anchor="start" x="245" y="-415" style="font-family:Nimbus Roman No9 L;font-weight:regular;font-size:11.34pt;">&#45; pub_id </text>
<text text-anchor="start" x="245" y="-395" style="font-family:Nimbus Roman No9 L;font-weight:regular;font-size:11.34pt;">&#45; title </text>
<text text-anchor="start" x="245" y="-375" style="font-family:Nimbus Roman No9 L;font-weight:regular;font-size:11.34pt;">&#45; volumetitle </text>
<text text-anchor="start" x="245" y="-355" style="font-family:Nimbus Roman No9 L;font-weight:regular;font-size:11.34pt;">&#45; volume </text>
<text text-anchor="start" x="245" y="-335" style="font-family:Nimbus Roman No9 L;font-weight:regular;font-size:11.34pt;">&#45; series_name </text>
<text text-anchor="start" x="245" y="-315" style="font-family:Nimbus Roman No9 L;font-weight:regular;font-size:11.34pt;">&#45; issue </text>
<text text-anchor="start" x="245" y="-295" style="font-family:Nimbus Roman No9 L;font-weight:regular;font-size:11.34pt;">&#45; pyear </text>
<text text-anchor="start" x="245" y="-275" style="font-family:Nimbus Roman No9 L;font-weight:regular;font-size:11.34pt;">&#45; pages </text>
<text text-anchor="start" x="245" y="-255" style="font-family:Nimbus Roman No9 L;font-weight:regular;font-size:11.34pt;">&#45; miniref </text>
<text text-anchor="start" x="245" y="-235" style="font-family:Nimbus Roman No9 L;font-weight:regular;font-size:11.34pt;">&#45; uniquename </text>
<text text-anchor="start" x="245" y="-215" style="font-family:Nimbus Roman No9 L;font-weight:regular;font-size:11.34pt;">&#45; type_id </text>
<text text-anchor="start" x="245" y="-195" style="font-family:Nimbus Roman No9 L;font-weight:regular;font-size:11.34pt;">&#45; is_obsolete </text>
<text text-anchor="start" x="245" y="-175" style="font-family:Nimbus Roman No9 L;font-weight:regular;font-size:11.34pt;">&#45; publisher </text>
<text text-anchor="start" x="245" y="-155" style="font-family:Nimbus Roman No9 L;font-weight:regular;font-size:11.34pt;">&#45; pubplace </text>
</g>
<!-- pub_relationship -->
<g id="node2" class="node"><title>pub_relationship</title>
<polygon style="fill:white;stroke:black;" points="603,-26 603,-142 744,-142 744,-26 603,-26"/>
<text text-anchor="middle" x="673" y="-124" style="font-family:Nimbus Roman No9 L;font-weight:regular;font-size:11.34pt;">pub_relationship</text>
<polyline style="fill:none;stroke:black;" points="603,-114 744,-114 "/>
<text text-anchor="start" x="611" y="-96" style="font-family:Nimbus Roman No9 L;font-weight:regular;font-size:11.34pt;">&#45; pub_relationship_id </text>
<text text-anchor="start" x="611" y="-76" style="font-family:Nimbus Roman No9 L;font-weight:regular;font-size:11.34pt;">&#45; subject_id </text>
<text text-anchor="start" x="611" y="-56" style="font-family:Nimbus Roman No9 L;font-weight:regular;font-size:11.34pt;">&#45; object_id </text>
<text text-anchor="start" x="611" y="-36" style="font-family:Nimbus Roman No9 L;font-weight:regular;font-size:11.34pt;">&#45; type_id </text>
</g>
<!-- pub&#45;&gt;pub_relationship -->
<g id="edge4" class="edge"><title>pub&#45;&gt;pub_relationship</title>
<path style="fill:none;stroke:black;" d="M334,-275C399,-238 516,-172 594,-129"/>
<polygon style="fill:black;stroke:black;" points="595.958,-131.916 603,-124 592.559,-125.797 595.958,-131.916"/>
</g>
<!-- pub_dbxref -->
<g id="node3" class="node"><title>pub_dbxref</title>
<polygon style="fill:white;stroke:black;" points="40,-1 40,-117 152,-117 152,-1 40,-1"/>
<text text-anchor="middle" x="96" y="-99" style="font-family:Nimbus Roman No9 L;font-weight:regular;font-size:11.34pt;">pub_dbxref</text>
<polyline style="fill:none;stroke:black;" points="40,-89 152,-89 "/>
<text text-anchor="start" x="48" y="-71" style="font-family:Nimbus Roman No9 L;font-weight:regular;font-size:11.34pt;">&#45; pub_dbxref_id </text>
<text text-anchor="start" x="48" y="-51" style="font-family:Nimbus Roman No9 L;font-weight:regular;font-size:11.34pt;">&#45; pub_id </text>
<text text-anchor="start" x="48" y="-31" style="font-family:Nimbus Roman No9 L;font-weight:regular;font-size:11.34pt;">&#45; dbxref_id </text>
<text text-anchor="start" x="48" y="-11" style="font-family:Nimbus Roman No9 L;font-weight:regular;font-size:11.34pt;">&#45; is_current </text>
</g>
<!-- pub&#45;&gt;pub_dbxref -->
<g id="edge2" class="edge"><title>pub&#45;&gt;pub_dbxref</title>
<path style="fill:none;stroke:black;" d="M237,-241C209,-206 175,-161 147,-125"/>
<polygon style="fill:black;stroke:black;" points="149.8,-122.9 141,-117 144.2,-127.1 149.8,-122.9"/>
</g>
<!-- pubauthor -->
<g id="node4" class="node"><title>pubauthor</title>
<polygon style="fill:white;stroke:black;" points="43,-458 43,-634 147,-634 147,-458 43,-458"/>
<text text-anchor="middle" x="95" y="-616" style="font-family:Nimbus Roman No9 L;font-weight:regular;font-size:11.34pt;">pubauthor</text>
<polyline style="fill:none;stroke:black;" points="43,-606 147,-606 "/>
<text text-anchor="start" x="51" y="-588" style="font-family:Nimbus Roman No9 L;font-weight:regular;font-size:11.34pt;">&#45; pubauthor_id </text>
<text text-anchor="start" x="51" y="-568" style="font-family:Nimbus Roman No9 L;font-weight:regular;font-size:11.34pt;">&#45; pub_id </text>
<text text-anchor="start" x="51" y="-548" style="font-family:Nimbus Roman No9 L;font-weight:regular;font-size:11.34pt;">&#45; rank </text>
<text text-anchor="start" x="51" y="-528" style="font-family:Nimbus Roman No9 L;font-weight:regular;font-size:11.34pt;">&#45; editor </text>
<text text-anchor="start" x="51" y="-508" style="font-family:Nimbus Roman No9 L;font-weight:regular;font-size:11.34pt;">&#45; surname </text>
<text text-anchor="start" x="51" y="-488" style="font-family:Nimbus Roman No9 L;font-weight:regular;font-size:11.34pt;">&#45; givennames </text>
<text text-anchor="start" x="51" y="-468" style="font-family:Nimbus Roman No9 L;font-weight:regular;font-size:11.34pt;">&#45; suffix </text>
</g>
<!-- pub&#45;&gt;pubauthor -->
<g id="edge6" class="edge"><title>pub&#45;&gt;pubauthor</title>
<path style="fill:none;stroke:black;" d="M237,-365C212,-397 180,-438 153,-472"/>
<polygon style="fill:black;stroke:black;" points="150.2,-469.9 147,-480 155.8,-474.1 150.2,-469.9"/>
</g>
<!-- pubprop -->
<g id="node5" class="node"><title>pubprop</title>
<polygon style="fill:white;stroke:black;" points="625,-454 625,-590 719,-590 719,-454 625,-454"/>
<text text-anchor="middle" x="672" y="-572" style="font-family:Nimbus Roman No9 L;font-weight:regular;font-size:11.34pt;">pubprop</text>
<polyline style="fill:none;stroke:black;" points="625,-562 719,-562 "/>
<text text-anchor="start" x="633" y="-544" style="font-family:Nimbus Roman No9 L;font-weight:regular;font-size:11.34pt;">&#45; pubprop_id </text>
<text text-anchor="start" x="633" y="-524" style="font-family:Nimbus Roman No9 L;font-weight:regular;font-size:11.34pt;">&#45; pub_id </text>
<text text-anchor="start" x="633" y="-504" style="font-family:Nimbus Roman No9 L;font-weight:regular;font-size:11.34pt;">&#45; type_id </text>
<text text-anchor="start" x="633" y="-484" style="font-family:Nimbus Roman No9 L;font-weight:regular;font-size:11.34pt;">&#45; value </text>
<text text-anchor="start" x="633" y="-464" style="font-family:Nimbus Roman No9 L;font-weight:regular;font-size:11.34pt;">&#45; rank </text>
</g>
<!-- pub&#45;&gt;pubprop -->
<g id="edge8" class="edge"><title>pub&#45;&gt;pubprop</title>
<path style="fill:none;stroke:black;" d="M334,-331C406,-371 540,-448 616,-490"/>
<polygon style="fill:black;stroke:black;" points="614.559,-493.203 625,-495 617.958,-487.084 614.559,-493.203"/>
</g>
</g>
</svg>
