<?xml version="1.0" encoding="UTF-8" standalone="no"?>
<!DOCTYPE svg PUBLIC "-//W3C//DTD SVG 1.0//EN"
 "http://www.w3.org/TR/2001/REC-SVG-20010904/DTD/svg10.dtd">
<!-- Generated by neato version 1.10 (Tue Nov 11 16:12:26 EST 2003)
     For user: (allenday) Allen Day   Title: test    Pages: 1 -->
<svg width="974px" height="783px"
 viewBox = "-1 -1 730 587"
 xmlns="http://www.w3.org/2000/svg">
<g id="graph0" class="graph" transform = "scale(0.279476)"
 style="font-family:Times-Roman;font-size:14.00;">
<title>test</title>
<polygon style="fill:white;stroke:white;" points="0,2095 0,24 2586,24 2586,2095 0,2095"/>
<g id="node1" class="node"><title>mageml</title>
<polygon style="fill:white;stroke:black;" points="207,2053 324,2053 324,1981 207,1981 207,2053"/>
<text text-anchor="middle" x="265" y="1996">mageml</text>
<polyline style="fill:none;stroke:black;" points="207,2001 324,2001 "/>
<text text-anchor="start" x="207" y="2016">mageml_id</text>
<text text-anchor="start" x="207" y="2032">mage_package</text>
<text text-anchor="middle" x="265" y="2048">mage_ml</text>
</g>
<g id="node2" class="node"><title>magedocumentation</title>
<polygon style="fill:white;stroke:black;" points="1580,2089 1757,2089 1757,1985 1580,1985 1580,2089"/>
<text text-anchor="middle" x="1668" y="2000">magedocumentation</text>
<polyline style="fill:none;stroke:black;" points="1580,2005 1757,2005 "/>
<text text-anchor="start" x="1580" y="2020">magedocumentation_id</text>
<text text-anchor="start" x="1580" y="2036">mageml_id</text>
<text text-anchor="start" x="1580" y="2052">tableinfo_id</text>
<text text-anchor="start" x="1580" y="2068">row_id</text>
<text text-anchor="middle" x="1668" y="2084">mageidentifier</text>
</g>
<g id="edge46" class="edge"><title>mageml-&gt;magedocumentation</title>
<path style="fill:none;stroke:black;" d="M324,2018C738,2024 1155,2030 1570,2036"/>
<polygon style="fill:black;stroke:black;" points="1569,2033 1579,2036 1569,2038 1569,2033"/>
</g>
<g id="node3" class="node"><title>protocol</title>
<polygon style="fill:white;stroke:black;" points="1272,982 1426,982 1426,814 1272,814 1272,982"/>
<text text-anchor="middle" x="1349" y="829">protocol</text>
<polyline style="fill:none;stroke:black;" points="1272,834 1426,834 "/>
<text text-anchor="start" x="1272" y="849">protocol_id</text>
<text text-anchor="start" x="1272" y="865">type_id</text>
<text text-anchor="start" x="1272" y="881">pub_id</text>
<text text-anchor="start" x="1272" y="897">dbxref_id</text>
<text text-anchor="start" x="1272" y="913">name</text>
<text text-anchor="start" x="1272" y="929">uri</text>
<text text-anchor="start" x="1272" y="945">protocoldescription</text>
<text text-anchor="start" x="1272" y="961">hardwaredescription</text>
<text text-anchor="middle" x="1349" y="977">softwaredescription</text>
</g>
<g id="node4" class="node"><title>protocolparam</title>
<polygon style="fill:white;stroke:black;" points="957,868 1094,868 1094,748 957,748 957,868"/>
<text text-anchor="middle" x="1025" y="763">protocolparam</text>
<polyline style="fill:none;stroke:black;" points="957,768 1094,768 "/>
<text text-anchor="start" x="957" y="783">protocolparam_id</text>
<text text-anchor="start" x="957" y="799">protocol_id</text>
<text text-anchor="start" x="957" y="815">name</text>
<text text-anchor="start" x="957" y="831">datatype_id</text>
<text text-anchor="start" x="957" y="847">unittype_id</text>
<text text-anchor="middle" x="1025" y="863">value</text>
</g>
<g id="edge54" class="edge"><title>protocol-&gt;protocolparam</title>
<path style="fill:none;stroke:black;" d="M1272,877C1216,861 1159,846 1103,830"/>
<polygon style="fill:black;stroke:black;" points="1103,833 1094,827 1104,828 1103,833"/>
</g>
<g id="node6" class="node"><title>arraydesign</title>
<polygon style="fill:white;stroke:black;" points="1042,1504 1204,1504 1204,1192 1042,1192 1042,1504"/>
<text text-anchor="middle" x="1123" y="1207">arraydesign</text>
<polyline style="fill:none;stroke:black;" points="1042,1212 1204,1212 "/>
<text text-anchor="start" x="1042" y="1227">arraydesign_id</text>
<text text-anchor="start" x="1042" y="1243">manufacturer_id</text>
<text text-anchor="start" x="1042" y="1259">platformtype_id</text>
<text text-anchor="start" x="1042" y="1275">substratetype_id</text>
<text text-anchor="start" x="1042" y="1291">protocol_id</text>
<text text-anchor="start" x="1042" y="1307">dbxref_id</text>
<text text-anchor="start" x="1042" y="1323">name</text>
<text text-anchor="start" x="1042" y="1339">version</text>
<text text-anchor="start" x="1042" y="1355">description</text>
<text text-anchor="start" x="1042" y="1371">array_dimensions</text>
<text text-anchor="start" x="1042" y="1387">element_dimensions</text>
<text text-anchor="start" x="1042" y="1403">num_of_elements</text>
<text text-anchor="start" x="1042" y="1419">num_array_columns</text>
<text text-anchor="start" x="1042" y="1435">num_array_rows</text>
<text text-anchor="start" x="1042" y="1451">num_grid_columns</text>
<text text-anchor="start" x="1042" y="1467">num_grid_rows</text>
<text text-anchor="start" x="1042" y="1483">num_sub_columns</text>
<text text-anchor="middle" x="1123" y="1499">num_sub_rows</text>
</g>
<g id="edge50" class="edge"><title>protocol-&gt;arraydesign</title>
<path style="fill:none;stroke:black;" d="M1307,982C1274,1049 1240,1116 1206,1183"/>
<polygon style="fill:black;stroke:black;" points="1208,1184 1201,1192 1204,1182 1208,1184"/>
</g>
<g id="node8" class="node"><title>assay</title>
<polygon style="fill:white;stroke:black;" points="1368,1309 1520,1309 1520,1125 1368,1125 1368,1309"/>
<text text-anchor="middle" x="1444" y="1140">assay</text>
<polyline style="fill:none;stroke:black;" points="1368,1145 1520,1145 "/>
<text text-anchor="start" x="1368" y="1160">assay_id</text>
<text text-anchor="start" x="1368" y="1176">arraydesign_id</text>
<text text-anchor="start" x="1368" y="1192">protocol_id</text>
<text text-anchor="start" x="1368" y="1208">assaydate</text>
<text text-anchor="start" x="1368" y="1224">arrayidentifier</text>
<text text-anchor="start" x="1368" y="1240">arraybatchidentifier</text>
<text text-anchor="start" x="1368" y="1256">operator_id</text>
<text text-anchor="start" x="1368" y="1272">dbxref_id</text>
<text text-anchor="start" x="1368" y="1288">name</text>
<text text-anchor="middle" x="1444" y="1304">description</text>
</g>
<g id="edge52" class="edge"><title>protocol-&gt;assay</title>
<path style="fill:none;stroke:black;" d="M1374,982C1387,1026 1400,1071 1414,1116"/>
<polygon style="fill:black;stroke:black;" points="1416,1115 1417,1125 1411,1116 1416,1115"/>
</g>
<g id="node14" class="node"><title>treatment</title>
<polygon style="fill:white;stroke:black;" points="1295,188 1409,188 1409,68 1295,68 1295,188"/>
<text text-anchor="middle" x="1352" y="83">treatment</text>
<polyline style="fill:none;stroke:black;" points="1295,88 1409,88 "/>
<text text-anchor="start" x="1295" y="103">treatment_id</text>
<text text-anchor="start" x="1295" y="119">rank</text>
<text text-anchor="start" x="1295" y="135">biomaterial_id</text>
<text text-anchor="start" x="1295" y="151">type_id</text>
<text text-anchor="start" x="1295" y="167">protocol_id</text>
<text text-anchor="middle" x="1352" y="183">name</text>
</g>
<g id="edge58" class="edge"><title>protocol-&gt;treatment</title>
<path style="fill:none;stroke:black;" d="M1349,814C1350,609 1351,402 1352,196"/>
<polygon style="fill:black;stroke:black;" points="1350,198 1352,188 1355,198 1350,198"/>
</g>
<g id="node17" class="node"><title>acquisition</title>
<polygon style="fill:white;stroke:black;" points="1009,1147 1124,1147 1124,1011 1009,1011 1009,1147"/>
<text text-anchor="middle" x="1066" y="1026">acquisition</text>
<polyline style="fill:none;stroke:black;" points="1009,1031 1124,1031 "/>
<text text-anchor="start" x="1009" y="1046">acquisition_id</text>
<text text-anchor="start" x="1009" y="1062">assay_id</text>
<text text-anchor="start" x="1009" y="1078">protocol_id</text>
<text text-anchor="start" x="1009" y="1094">channel_id</text>
<text text-anchor="start" x="1009" y="1110">acquisitiondate</text>
<text text-anchor="start" x="1009" y="1126">name</text>
<text text-anchor="middle" x="1066" y="1142">uri</text>
</g>
<g id="edge48" class="edge"><title>protocol-&gt;acquisition</title>
<path style="fill:none;stroke:black;" d="M1272,947C1225,977 1179,1006 1133,1036"/>
<polygon style="fill:black;stroke:black;" points="1134,1039 1124,1042 1131,1034 1134,1039"/>
</g>
<g id="node20" class="node"><title>quantification</title>
<polygon style="fill:white;stroke:black;" points="593,1010 732,1010 732,858 593,858 593,1010"/>
<text text-anchor="middle" x="662" y="873">quantification</text>
<polyline style="fill:none;stroke:black;" points="593,878 732,878 "/>
<text text-anchor="start" x="593" y="893">quantification_id</text>
<text text-anchor="start" x="593" y="909">acquisition_id</text>
<text text-anchor="start" x="593" y="925">operator_id</text>
<text text-anchor="start" x="593" y="941">protocol_id</text>
<text text-anchor="start" x="593" y="957">analysis_id</text>
<text text-anchor="start" x="593" y="973">quantificationdate</text>
<text text-anchor="start" x="593" y="989">name</text>
<text text-anchor="middle" x="662" y="1005">uri</text>
</g>
<g id="edge56" class="edge"><title>protocol-&gt;quantification</title>
<path style="fill:none;stroke:black;" d="M1272,902C1095,912 919,921 742,929"/>
<polygon style="fill:black;stroke:black;" points="742,931 732,930 742,927 742,931"/>
</g>
<g id="node5" class="node"><title>channel</title>
<polygon style="fill:white;stroke:black;" points="1114,560 1204,560 1204,488 1114,488 1114,560"/>
<text text-anchor="middle" x="1159" y="503">channel</text>
<polyline style="fill:none;stroke:black;" points="1114,508 1204,508 "/>
<text text-anchor="start" x="1114" y="523">channel_id</text>
<text text-anchor="start" x="1114" y="539">name</text>
<text text-anchor="middle" x="1159" y="555">definition</text>
</g>
<g id="node16" class="node"><title>assay_biomaterial</title>
<polygon style="fill:white;stroke:black;" points="1445,670 1605,670 1605,582 1445,582 1445,670"/>
<text text-anchor="middle" x="1525" y="597">assay_biomaterial</text>
<polyline style="fill:none;stroke:black;" points="1445,602 1605,602 "/>
<text text-anchor="start" x="1445" y="617">assay_biomaterial_id</text>
<text text-anchor="start" x="1445" y="633">assay_id</text>
<text text-anchor="start" x="1445" y="649">biomaterial_id</text>
<text text-anchor="middle" x="1525" y="665">channel_id</text>
</g>
<g id="edge40" class="edge"><title>channel-&gt;assay_biomaterial</title>
<path style="fill:none;stroke:black;" d="M1204,537C1281,558 1359,579 1437,602"/>
<polygon style="fill:black;stroke:black;" points="1436,599 1445,604 1435,604 1436,599"/>
</g>
<g id="edge38" class="edge"><title>channel-&gt;acquisition</title>
<path style="fill:none;stroke:black;" d="M1153,560C1129,707 1104,855 1079,1002"/>
<polygon style="fill:black;stroke:black;" points="1082,1002 1077,1011 1077,1001 1082,1002"/>
</g>
<g id="node7" class="node"><title>arrayprop</title>
<polygon style="fill:white;stroke:black;" points="973,2083 1090,2083 1090,1995 973,1995 973,2083"/>
<text text-anchor="middle" x="1031" y="2010">arrayprop</text>
<polyline style="fill:none;stroke:black;" points="973,2015 1090,2015 "/>
<text text-anchor="start" x="973" y="2030">arrayprop_id</text>
<text text-anchor="start" x="973" y="2046">arraydesign_id</text>
<text text-anchor="start" x="973" y="2062">type_id</text>
<text text-anchor="middle" x="1031" y="2078">value</text>
</g>
<g id="edge8" class="edge"><title>arraydesign-&gt;arrayprop</title>
<path style="fill:none;stroke:black;" d="M1102,1504C1081,1664 1059,1825 1038,1986"/>
<polygon style="fill:black;stroke:black;" points="1041,1985 1037,1995 1036,1985 1041,1985"/>
</g>
<g id="edge10" class="edge"><title>arraydesign-&gt;assay</title>
<path style="fill:none;stroke:black;" d="M1204,1315C1256,1294 1307,1272 1359,1252"/>
<polygon style="fill:black;stroke:black;" points="1358,1250 1368,1248 1360,1254 1358,1250"/>
</g>
<g id="node24" class="node"><title>element</title>
<polygon style="fill:white;stroke:black;" points="764,1797 881,1797 881,1437 764,1437 764,1797"/>
<text text-anchor="middle" x="822" y="1452">element</text>
<polyline style="fill:none;stroke:black;" points="764,1457 881,1457 "/>
<text text-anchor="start" x="764" y="1472">element_id</text>
<text text-anchor="start" x="764" y="1488">feature_id</text>
<text text-anchor="start" x="764" y="1504">arraydesign_id</text>
<text text-anchor="start" x="764" y="1520">type_id</text>
<text text-anchor="start" x="764" y="1536">dbxref_id</text>
<text text-anchor="start" x="764" y="1552">subclass_view</text>
<text text-anchor="start" x="764" y="1568">tinyint1</text>
<text text-anchor="start" x="764" y="1584">smallint1</text>
<text text-anchor="start" x="764" y="1600">char1</text>
<text text-anchor="start" x="764" y="1616">char2</text>
<text text-anchor="start" x="764" y="1632">char3</text>
<text text-anchor="start" x="764" y="1648">char4</text>
<text text-anchor="start" x="764" y="1664">char5</text>
<text text-anchor="start" x="764" y="1680">char6</text>
<text text-anchor="start" x="764" y="1696">char7</text>
<text text-anchor="start" x="764" y="1712">tinystring1</text>
<text text-anchor="start" x="764" y="1728">tinystring2</text>
<text text-anchor="start" x="764" y="1744">smallstring1</text>
<text text-anchor="start" x="764" y="1760">smallstring2</text>
<text text-anchor="start" x="764" y="1776">string1</text>
<text text-anchor="middle" x="822" y="1792">string2</text>
</g>
<g id="edge12" class="edge"><title>arraydesign-&gt;element</title>
<path style="fill:none;stroke:black;" d="M1042,1420C992,1466 940,1512 889,1558"/>
<polygon style="fill:black;stroke:black;" points="890,1560 881,1565 887,1557 890,1560"/>
</g>
<g id="node9" class="node"><title>assayprop</title>
<polygon style="fill:white;stroke:black;" points="1604,1025 1709,1025 1709,937 1604,937 1604,1025"/>
<text text-anchor="middle" x="1656" y="952">assayprop</text>
<polyline style="fill:none;stroke:black;" points="1604,957 1709,957 "/>
<text text-anchor="start" x="1604" y="972">assayprop_id</text>
<text text-anchor="start" x="1604" y="988">assay_id</text>
<text text-anchor="start" x="1604" y="1004">type_id</text>
<text text-anchor="middle" x="1656" y="1020">value</text>
</g>
<g id="edge20" class="edge"><title>assay-&gt;assayprop</title>
<path style="fill:none;stroke:black;" d="M1520,1132C1550,1099 1580,1065 1610,1031"/>
<polygon style="fill:black;stroke:black;" points="1607,1030 1616,1025 1611,1034 1607,1030"/>
</g>
<g id="node10" class="node"><title>assay_project</title>
<polygon style="fill:white;stroke:black;" points="1321,1627 1451,1627 1451,1555 1321,1555 1321,1627"/>
<text text-anchor="middle" x="1386" y="1570">assay_project</text>
<polyline style="fill:none;stroke:black;" points="1321,1575 1451,1575 "/>
<text text-anchor="start" x="1321" y="1590">assay_project_id</text>
<text text-anchor="start" x="1321" y="1606">assay_id</text>
<text text-anchor="middle" x="1386" y="1622">project_id</text>
</g>
<g id="edge18" class="edge"><title>assay-&gt;assay_project</title>
<path style="fill:none;stroke:black;" d="M1430,1309C1418,1388 1405,1468 1393,1546"/>
<polygon style="fill:black;stroke:black;" points="1396,1546 1391,1555 1391,1545 1396,1546"/>
</g>
<g id="edge16" class="edge"><title>assay-&gt;assay_biomaterial</title>
<path style="fill:none;stroke:black;" d="M1457,1125C1477,977 1497,828 1518,678"/>
<polygon style="fill:black;stroke:black;" points="1515,680 1519,670 1520,680 1515,680"/>
</g>
<g id="edge14" class="edge"><title>assay-&gt;acquisition</title>
<path style="fill:none;stroke:black;" d="M1368,1189C1289,1160 1211,1132 1133,1103"/>
<polygon style="fill:black;stroke:black;" points="1133,1106 1124,1100 1134,1101 1133,1106"/>
</g>
<g id="node23" class="node"><title>control</title>
<polygon style="fill:white;stroke:black;" points="1911,927 2009,927 2009,791 1911,791 1911,927"/>
<text text-anchor="middle" x="1960" y="806">control</text>
<polyline style="fill:none;stroke:black;" points="1911,811 2009,811 "/>
<text text-anchor="start" x="1911" y="826">control_id</text>
<text text-anchor="start" x="1911" y="842">type_id</text>
<text text-anchor="start" x="1911" y="858">assay_id</text>
<text text-anchor="start" x="1911" y="874">tableinfo_id</text>
<text text-anchor="start" x="1911" y="890">row_id</text>
<text text-anchor="start" x="1911" y="906">name</text>
<text text-anchor="middle" x="1960" y="922">value</text>
</g>
<g id="edge22" class="edge"><title>assay-&gt;control</title>
<path style="fill:none;stroke:black;" d="M1520,1164C1649,1076 1775,986 1904,898"/>
<polygon style="fill:black;stroke:black;" points="1901,897 1911,893 1904,901 1901,897"/>
</g>
<g id="node28" class="node"><title>study_assay</title>
<polygon style="fill:white;stroke:black;" points="1802,1282 1923,1282 1923,1210 1802,1210 1802,1282"/>
<text text-anchor="middle" x="1862" y="1225">study_assay</text>
<polyline style="fill:none;stroke:black;" points="1802,1230 1923,1230 "/>
<text text-anchor="start" x="1802" y="1245">study_assay_id</text>
<text text-anchor="start" x="1802" y="1261">study_id</text>
<text text-anchor="middle" x="1862" y="1277">assay_id</text>
</g>
<g id="edge24" class="edge"><title>assay-&gt;study_assay</title>
<path style="fill:none;stroke:black;" d="M1520,1222C1611,1229 1701,1236 1791,1241"/>
<polygon style="fill:black;stroke:black;" points="1791,1239 1801,1242 1791,1243 1791,1239"/>
</g>
<g id="node32" class="node"><title>studyfactorvalue</title>
<polygon style="fill:white;stroke:black;" points="2350,1141 2503,1141 2503,1037 2350,1037 2350,1141"/>
<text text-anchor="middle" x="2426" y="1052">studyfactorvalue</text>
<polyline style="fill:none;stroke:black;" points="2350,1057 2503,1057 "/>
<text text-anchor="start" x="2350" y="1072">studyfactorvalue_id</text>
<text text-anchor="start" x="2350" y="1088">studyfactor_id</text>
<text text-anchor="start" x="2350" y="1104">assay_id</text>
<text text-anchor="start" x="2350" y="1120">factorvalue</text>
<text text-anchor="middle" x="2426" y="1136">name</text>
</g>
<g id="edge26" class="edge"><title>assay-&gt;studyfactorvalue</title>
<path style="fill:none;stroke:black;" d="M1520,1207C1793,1171 2068,1136 2341,1100"/>
<polygon style="fill:black;stroke:black;" points="2339,1098 2349,1099 2339,1103 2339,1098"/>
</g>
<g id="node11" class="node"><title>biomaterial</title>
<polygon style="fill:white;stroke:black;" points="1833,574 1993,574 1993,454 1833,454 1833,574"/>
<text text-anchor="middle" x="1913" y="469">biomaterial</text>
<polyline style="fill:none;stroke:black;" points="1833,474 1993,474 "/>
<text text-anchor="start" x="1833" y="489">biomaterial_id</text>
<text text-anchor="start" x="1833" y="505">taxon_id</text>
<text text-anchor="start" x="1833" y="521">biosourceprovider_id</text>
<text text-anchor="start" x="1833" y="537">dbxref_id</text>
<text text-anchor="start" x="1833" y="553">name</text>
<text text-anchor="middle" x="1913" y="569">description</text>
</g>
<g id="node12" class="node"><title>biomaterial_relationship</title>
<polygon style="fill:white;stroke:black;" points="1728,119 1932,119 1932,31 1728,31 1728,119"/>
<text text-anchor="middle" x="1830" y="46">biomaterial_relationship</text>
<polyline style="fill:none;stroke:black;" points="1728,51 1932,51 "/>
<text text-anchor="start" x="1728" y="66">biomaterial_relationship_id</text>
<text text-anchor="start" x="1728" y="82">subject_id</text>
<text text-anchor="start" x="1728" y="98">type_id</text>
<text text-anchor="middle" x="1830" y="114">object_id</text>
</g>
<g id="edge30" class="edge"><title>biomaterial-&gt;biomaterial_relationship</title>
<path style="fill:none;stroke:black;" d="M1902,454C1882,346 1860,237 1840,128"/>
<polygon style="fill:black;stroke:black;" points="1838,129 1838,119 1843,128 1838,129"/>
</g>
<g id="node13" class="node"><title>biomaterialprop</title>
<polygon style="fill:white;stroke:black;" points="2389,197 2535,197 2535,109 2389,109 2389,197"/>
<text text-anchor="middle" x="2462" y="124">biomaterialprop</text>
<polyline style="fill:none;stroke:black;" points="2389,129 2535,129 "/>
<text text-anchor="start" x="2389" y="144">biomaterialprop_id</text>
<text text-anchor="start" x="2389" y="160">biomaterial_id</text>
<text text-anchor="start" x="2389" y="176">type_id</text>
<text text-anchor="middle" x="2462" y="192">value</text>
</g>
<g id="edge34" class="edge"><title>biomaterial-&gt;biomaterialprop</title>
<path style="fill:none;stroke:black;" d="M1993,461C2125,376 2256,288 2388,202"/>
<polygon style="fill:black;stroke:black;" points="2385,201 2395,197 2388,205 2385,201"/>
</g>
<g id="edge36" class="edge"><title>biomaterial-&gt;treatment</title>
<path style="fill:none;stroke:black;" d="M1833,459C1694,364 1556,268 1418,173"/>
<polygon style="fill:black;stroke:black;" points="1416,175 1409,167 1419,170 1416,175"/>
</g>
<g id="node15" class="node"><title>biomaterial_treatment</title>
<polygon style="fill:white;stroke:black;" points="757,150 948,150 948,30 757,30 757,150"/>
<text text-anchor="middle" x="852" y="45">biomaterial_treatment</text>
<polyline style="fill:none;stroke:black;" points="757,50 948,50 "/>
<text text-anchor="start" x="757" y="65">biomaterial_treatment_id</text>
<text text-anchor="start" x="757" y="81">biomaterial_id</text>
<text text-anchor="start" x="757" y="97">treatment_id</text>
<text text-anchor="start" x="757" y="113">unittype_id</text>
<text text-anchor="start" x="757" y="129">value</text>
<text text-anchor="middle" x="852" y="145">rank</text>
</g>
<g id="edge32" class="edge"><title>biomaterial-&gt;biomaterial_treatment</title>
<path style="fill:none;stroke:black;" d="M1833,482C1541,366 1248,249 958,132"/>
<polygon style="fill:black;stroke:black;" points="956,134 948,128 958,129 956,134"/>
</g>
<g id="edge28" class="edge"><title>biomaterial-&gt;assay_biomaterial</title>
<path style="fill:none;stroke:black;" d="M1833,537C1760,558 1688,579 1615,600"/>
<polygon style="fill:black;stroke:black;" points="1615,603 1605,603 1614,598 1615,603"/>
</g>
<g id="edge76" class="edge"><title>treatment-&gt;biomaterial_treatment</title>
<path style="fill:none;stroke:black;" d="M1295,124C1182,115 1070,107 958,98"/>
<polygon style="fill:black;stroke:black;" points="958,100 948,97 958,96 958,100"/>
</g>
<g id="node18" class="node"><title>acquisitionprop</title>
<polygon style="fill:white;stroke:black;" points="129,187 271,187 271,99 129,99 129,187"/>
<text text-anchor="middle" x="200" y="114">acquisitionprop</text>
<polyline style="fill:none;stroke:black;" points="129,119 271,119 "/>
<text text-anchor="start" x="129" y="134">acquisitionprop_id</text>
<text text-anchor="start" x="129" y="150">acquisition_id</text>
<text text-anchor="start" x="129" y="166">type_id</text>
<text text-anchor="middle" x="200" y="182">value</text>
</g>
<g id="edge4" class="edge"><title>acquisition-&gt;acquisitionprop</title>
<path style="fill:none;stroke:black;" d="M1008,1016C755,742 501,469 248,194"/>
<polygon style="fill:black;stroke:black;" points="246,196 241,187 250,192 246,196"/>
</g>
<g id="node19" class="node"><title>acquisition_relationship</title>
<polygon style="fill:white;stroke:black;" points="604,600 803,600 803,512 604,512 604,600"/>
<text text-anchor="middle" x="703" y="527">acquisition_relationship</text>
<polyline style="fill:none;stroke:black;" points="604,532 803,532 "/>
<text text-anchor="start" x="604" y="547">acquisition_relationship_id</text>
<text text-anchor="start" x="604" y="563">subject_id</text>
<text text-anchor="start" x="604" y="579">type_id</text>
<text text-anchor="middle" x="703" y="595">object_id</text>
</g>
<g id="edge2" class="edge"><title>acquisition-&gt;acquisition_relationship</title>
<path style="fill:none;stroke:black;" d="M1019,1011C925,877 832,742 739,608"/>
<polygon style="fill:black;stroke:black;" points="737,610 734,600 741,607 737,610"/>
</g>
<g id="edge6" class="edge"><title>acquisition-&gt;quantification</title>
<path style="fill:none;stroke:black;" d="M1008,1058C919,1026 830,994 742,962"/>
<polygon style="fill:black;stroke:black;" points="741,964 732,959 742,959 741,964"/>
</g>
<g id="node21" class="node"><title>quantificationprop</title>
<polygon style="fill:white;stroke:black;" points="618,1311 783,1311 783,1223 618,1223 618,1311"/>
<text text-anchor="middle" x="700" y="1238">quantificationprop</text>
<polyline style="fill:none;stroke:black;" points="618,1243 783,1243 "/>
<text text-anchor="start" x="618" y="1258">quantificationprop_id</text>
<text text-anchor="start" x="618" y="1274">quantification_id</text>
<text text-anchor="start" x="618" y="1290">type_id</text>
<text text-anchor="middle" x="700" y="1306">value</text>
</g>
<g id="edge64" class="edge"><title>quantification-&gt;quantificationprop</title>
<path style="fill:none;stroke:black;" d="M670,1010C678,1078 686,1146 694,1214"/>
<polygon style="fill:black;stroke:black;" points="696,1213 695,1223 691,1213 696,1213"/>
</g>
<g id="node22" class="node"><title>quantification_relationship</title>
<polygon style="fill:white;stroke:black;" points="38,725 261,725 261,637 38,637 38,725"/>
<text text-anchor="middle" x="149" y="652">quantification_relationship</text>
<polyline style="fill:none;stroke:black;" points="38,657 261,657 "/>
<text text-anchor="start" x="38" y="672">quantification_relationship_id</text>
<text text-anchor="start" x="38" y="688">subject_id</text>
<text text-anchor="start" x="38" y="704">type_id</text>
<text text-anchor="middle" x="149" y="720">object_id</text>
</g>
<g id="edge62" class="edge"><title>quantification-&gt;quantification_relationship</title>
<path style="fill:none;stroke:black;" d="M592,900C478,843 362,786 246,729"/>
<polygon style="fill:black;stroke:black;" points="246,732 238,725 248,727 246,732"/>
</g>
<g id="node25" class="node"><title>elementresult</title>
<polygon style="fill:white;stroke:black;" points="82,1452 215,1452 215,756 82,756 82,1452"/>
<text text-anchor="middle" x="148" y="771">elementresult</text>
<polyline style="fill:none;stroke:black;" points="82,776 215,776 "/>
<text text-anchor="start" x="82" y="791">elementresult_id</text>
<text text-anchor="start" x="82" y="807">element_id</text>
<text text-anchor="start" x="82" y="823">quantification_id</text>
<text text-anchor="start" x="82" y="839">subclass_view</text>
<text text-anchor="start" x="82" y="855">foreground</text>
<text text-anchor="start" x="82" y="871">background</text>
<text text-anchor="start" x="82" y="887">foreground_sd</text>
<text text-anchor="start" x="82" y="903">background_sd</text>
<text text-anchor="start" x="82" y="919">float1</text>
<text text-anchor="start" x="82" y="935">float2</text>
<text text-anchor="start" x="82" y="951">float3</text>
<text text-anchor="start" x="82" y="967">float4</text>
<text text-anchor="start" x="82" y="983">float5</text>
<text text-anchor="start" x="82" y="999">float6</text>
<text text-anchor="start" x="82" y="1015">float7</text>
<text text-anchor="start" x="82" y="1031">float8</text>
<text text-anchor="start" x="82" y="1047">float9</text>
<text text-anchor="start" x="82" y="1063">float10</text>
<text text-anchor="start" x="82" y="1079">int1</text>
<text text-anchor="start" x="82" y="1095">int2</text>
<text text-anchor="start" x="82" y="1111">int3</text>
<text text-anchor="start" x="82" y="1127">int4</text>
<text text-anchor="start" x="82" y="1143">int5</text>
<text text-anchor="start" x="82" y="1159">int6</text>
<text text-anchor="start" x="82" y="1175">tinyint1</text>
<text text-anchor="start" x="82" y="1191">tinyint2</text>
<text text-anchor="start" x="82" y="1207">tinyint3</text>
<text text-anchor="start" x="82" y="1223">smallint1</text>
<text text-anchor="start" x="82" y="1239">smallint2</text>
<text text-anchor="start" x="82" y="1255">char1</text>
<text text-anchor="start" x="82" y="1271">char2</text>
<text text-anchor="start" x="82" y="1287">char3</text>
<text text-anchor="start" x="82" y="1303">char4</text>
<text text-anchor="start" x="82" y="1319">char5</text>
<text text-anchor="start" x="82" y="1335">char6</text>
<text text-anchor="start" x="82" y="1351">tinystring1</text>
<text text-anchor="start" x="82" y="1367">tinystring2</text>
<text text-anchor="start" x="82" y="1383">tinystring3</text>
<text text-anchor="start" x="82" y="1399">smallstring1</text>
<text text-anchor="start" x="82" y="1415">smallstring2</text>
<text text-anchor="start" x="82" y="1431">string1</text>
<text text-anchor="middle" x="148" y="1447">string2</text>
</g>
<g id="edge60" class="edge"><title>quantification-&gt;elementresult</title>
<path style="fill:none;stroke:black;" d="M592,957C469,998 347,1039 225,1079"/>
<polygon style="fill:black;stroke:black;" points="225,1082 215,1082 224,1077 225,1082"/>
</g>
<g id="edge42" class="edge"><title>element-&gt;elementresult</title>
<path style="fill:none;stroke:black;" d="M763,1572C583,1435 402,1298 222,1161"/>
<polygon style="fill:black;stroke:black;" points="221,1163 215,1155 224,1160 221,1163"/>
</g>
<g id="node26" class="node"><title>elementresult_relationship</title>
<polygon style="fill:white;stroke:black;" points="66,1568 284,1568 284,1464 66,1464 66,1568"/>
<text text-anchor="middle" x="175" y="1479">elementresult_relationship</text>
<polyline style="fill:none;stroke:black;" points="66,1484 284,1484 "/>
<text text-anchor="start" x="66" y="1499">elementresult_relationship_id</text>
<text text-anchor="start" x="66" y="1515">subject_id</text>
<text text-anchor="start" x="66" y="1531">type_id</text>
<text text-anchor="start" x="66" y="1547">object_id</text>
<text text-anchor="middle" x="175" y="1563">value</text>
</g>
<g id="edge44" class="edge"><title>elementresult-&gt;elementresult_relationship</title>
<path style="fill:none;stroke:black;" d="M171,1452C171,1453 171,1453 171,1454"/>
<polygon style="fill:black;stroke:black;" points="173,1454 172,1464 169,1454 173,1454"/>
</g>
<g id="node27" class="node"><title>study</title>
<polygon style="fill:white;stroke:black;" points="1838,1646 1926,1646 1926,1526 1838,1526 1838,1646"/>
<text text-anchor="middle" x="1882" y="1541">study</text>
<polyline style="fill:none;stroke:black;" points="1838,1546 1926,1546 "/>
<text text-anchor="start" x="1838" y="1561">study_id</text>
<text text-anchor="start" x="1838" y="1577">contact_id</text>
<text text-anchor="start" x="1838" y="1593">pub_id</text>
<text text-anchor="start" x="1838" y="1609">dbxref_id</text>
<text text-anchor="start" x="1838" y="1625">name</text>
<text text-anchor="middle" x="1882" y="1641">description</text>
</g>
<g id="edge66" class="edge"><title>study-&gt;study_assay</title>
<path style="fill:none;stroke:black;" d="M1879,1526C1874,1448 1869,1369 1865,1291"/>
<polygon style="fill:black;stroke:black;" points="1863,1292 1864,1282 1868,1292 1863,1292"/>
</g>
<g id="node29" class="node"><title>studydesign</title>
<polygon style="fill:white;stroke:black;" points="2429,1504 2547,1504 2547,1432 2429,1432 2429,1504"/>
<text text-anchor="middle" x="2488" y="1447">studydesign</text>
<polyline style="fill:none;stroke:black;" points="2429,1452 2547,1452 "/>
<text text-anchor="start" x="2429" y="1467">studydesign_id</text>
<text text-anchor="start" x="2429" y="1483">study_id</text>
<text text-anchor="middle" x="2488" y="1499">description</text>
</g>
<g id="edge68" class="edge"><title>study-&gt;studydesign</title>
<path style="fill:none;stroke:black;" d="M1926,1577C2090,1546 2255,1513 2421,1481"/>
<polygon style="fill:black;stroke:black;" points="2419,1479 2429,1479 2420,1484 2419,1479"/>
</g>
<g id="node30" class="node"><title>studydesignprop</title>
<polygon style="fill:white;stroke:black;" points="2330,2043 2480,2043 2480,1955 2330,1955 2330,2043"/>
<text text-anchor="middle" x="2405" y="1970">studydesignprop</text>
<polyline style="fill:none;stroke:black;" points="2330,1975 2480,1975 "/>
<text text-anchor="start" x="2330" y="1990">studydesignprop_id</text>
<text text-anchor="start" x="2330" y="2006">studydesign_id</text>
<text text-anchor="start" x="2330" y="2022">type_id</text>
<text text-anchor="middle" x="2405" y="2038">value</text>
</g>
<g id="edge70" class="edge"><title>studydesign-&gt;studydesignprop</title>
<path style="fill:none;stroke:black;" d="M2482,1504C2459,1651 2436,1798 2413,1946"/>
<polygon style="fill:black;stroke:black;" points="2416,1945 2412,1955 2411,1945 2416,1945"/>
</g>
<g id="node31" class="node"><title>studyfactor</title>
<polygon style="fill:white;stroke:black;" points="2445,750 2563,750 2563,646 2445,646 2445,750"/>
<text text-anchor="middle" x="2504" y="661">studyfactor</text>
<polyline style="fill:none;stroke:black;" points="2445,666 2563,666 "/>
<text text-anchor="start" x="2445" y="681">studyfactor_id</text>
<text text-anchor="start" x="2445" y="697">studydesign_id</text>
<text text-anchor="start" x="2445" y="713">type_id</text>
<text text-anchor="start" x="2445" y="729">name</text>
<text text-anchor="middle" x="2504" y="745">description</text>
</g>
<g id="edge72" class="edge"><title>studydesign-&gt;studyfactor</title>
<path style="fill:none;stroke:black;" d="M2489,1432C2494,1208 2498,983 2503,758"/>
<polygon style="fill:black;stroke:black;" points="2501,760 2503,750 2506,760 2501,760"/>
</g>
<g id="edge74" class="edge"><title>studyfactor-&gt;studyfactorvalue</title>
<path style="fill:none;stroke:black;" d="M2494,750C2476,843 2457,935 2439,1028"/>
<polygon style="fill:black;stroke:black;" points="2442,1028 2437,1037 2437,1027 2442,1028"/>
</g>
</g></svg>
