<?xml version="1.0" encoding="UTF-8" standalone="no"?>
<!DOCTYPE svg PUBLIC "-//W3C//DTD SVG 1.0//EN"
 "http://www.w3.org/TR/2001/REC-SVG-20010904/DTD/svg10.dtd" [
 <!ATTLIST svg xmlns:xlink CDATA #FIXED "http://www.w3.org/1999/xlink">
]>
<!-- Generated by dot version 2.8 (Thu Sep 14 20:34:11 UTC 2006)
     For user: (scott) Scott Cain -->
<!-- Title: test Pages: 1 -->
<svg width="728pt" height="584pt"
 viewBox = "0 0 728 584"
 xmlns="http://www.w3.org/2000/svg" xmlns:xlink="http://www.w3.org/1999/xlink">
<g id="graph0" class="graph" style="font-family:Times-Roman;font-size:14.00;">
<title>test</title>
<polygon style="fill:white;stroke:white;" points="-2,586 -2,-2 730,-2 730,586 -2,586"/>
<!-- feature -->
<g id="node1" class="node"><title>feature</title>
<polygon style="fill:white;stroke:black;" points="372,239 420,239 420,155 372,155 372,239"/>
<text text-anchor="start" x="374" y="161" style="font-size:5.07pt;">{feature|&#45; feature_id </text>
<text text-anchor="start" x="374" y="167" style="font-size:5.07pt;">&#45; dbxref_id </text>
<text text-anchor="start" x="374" y="173" style="font-size:5.07pt;">&#45; organism_id </text>
<text text-anchor="start" x="374" y="178" style="font-size:5.07pt;">&#45; name </text>
<text text-anchor="start" x="374" y="184" style="font-size:5.07pt;">&#45; uniquename </text>
<text text-anchor="start" x="374" y="190" style="font-size:5.07pt;">&#45; residues </text>
<text text-anchor="start" x="374" y="196" style="font-size:5.07pt;">&#45; seqlen </text>
<text text-anchor="start" x="374" y="202" style="font-size:5.07pt;">&#45; md5checksum </text>
<text text-anchor="start" x="374" y="207" style="font-size:5.07pt;">&#45; type_id </text>
<text text-anchor="start" x="374" y="213" style="font-size:5.07pt;">&#45; is_analysis </text>
<text text-anchor="start" x="374" y="219" style="font-size:5.07pt;">&#45; is_obsolete </text>
<text text-anchor="start" x="374" y="225" style="font-size:5.07pt;">&#45; timeaccessioned </text>
<text text-anchor="start" x="374" y="230" style="font-size:5.07pt;">&#45; timelastmodified </text>
<text text-anchor="middle" x="395" y="236" style="font-size:5.07pt;">}</text>
</g>
<!-- featureloc -->
<g id="node2" class="node"><title>featureloc</title>
<polygon style="fill:white;stroke:black;" points="333,556 394,556 394,478 333,478 333,556"/>
<text text-anchor="start" x="336" y="484" style="font-size:5.07pt;">{featureloc|&#45; featureloc_id </text>
<text text-anchor="start" x="336" y="490" style="font-size:5.07pt;">&#45; feature_id </text>
<text text-anchor="start" x="336" y="496" style="font-size:5.07pt;">&#45; srcfeature_id </text>
<text text-anchor="start" x="336" y="502" style="font-size:5.07pt;">&#45; fmin </text>
<text text-anchor="start" x="336" y="508" style="font-size:5.07pt;">&#45; is_fmin_partial </text>
<text text-anchor="start" x="336" y="513" style="font-size:5.07pt;">&#45; fmax </text>
<text text-anchor="start" x="336" y="519" style="font-size:5.07pt;">&#45; is_fmax_partial </text>
<text text-anchor="start" x="336" y="525" style="font-size:5.07pt;">&#45; strand </text>
<text text-anchor="start" x="336" y="531" style="font-size:5.07pt;">&#45; phase </text>
<text text-anchor="start" x="336" y="537" style="font-size:5.07pt;">&#45; residue_info </text>
<text text-anchor="start" x="336" y="542" style="font-size:5.07pt;">&#45; locgroup </text>
<text text-anchor="start" x="336" y="548" style="font-size:5.07pt;">&#45; rank </text>
<text text-anchor="middle" x="363" y="554" style="font-size:5.07pt;">}</text>
</g>
<!-- feature&#45;&gt;featureloc -->
<g id="edge12" class="edge"><title>feature&#45;&gt;featureloc</title>
<path style="fill:none;stroke:black;" d="M391,239C385,300 374,413 368,475"/>
<polygon style="fill:black;stroke:black;" points="369,475 367,478 367,475 369,475"/>
</g>
<!-- feature_pub -->
<g id="node4" class="node"><title>feature_pub</title>
<polygon style="fill:white;stroke:black;" points="313,42 381,42 381,16 313,16 313,42"/>
<text text-anchor="start" x="316" y="22" style="font-size:5.07pt;">{feature_pub|&#45; feature_pub_id </text>
<text text-anchor="start" x="316" y="28" style="font-size:5.07pt;">&#45; feature_id </text>
<text text-anchor="start" x="316" y="34" style="font-size:5.07pt;">&#45; pub_id </text>
<text text-anchor="middle" x="347" y="40" style="font-size:5.07pt;">}</text>
</g>
<!-- feature&#45;&gt;feature_pub -->
<g id="edge6" class="edge"><title>feature&#45;&gt;feature_pub</title>
<path style="fill:none;stroke:black;" d="M383,155C373,120 359,71 352,46"/>
<polygon style="fill:black;stroke:black;" points="351,46 351,42 353,46 351,46"/>
</g>
<!-- featureprop -->
<g id="node6" class="node"><title>featureprop</title>
<polygon style="fill:white;stroke:black;" points="249,220 316,220 316,182 249,182 249,220"/>
<text text-anchor="start" x="252" y="188" style="font-size:5.07pt;">{featureprop|&#45; featureprop_id </text>
<text text-anchor="start" x="252" y="194" style="font-size:5.07pt;">&#45; feature_id </text>
<text text-anchor="start" x="252" y="200" style="font-size:5.07pt;">&#45; type_id </text>
<text text-anchor="start" x="252" y="206" style="font-size:5.07pt;">&#45; value </text>
<text text-anchor="start" x="252" y="211" style="font-size:5.07pt;">&#45; rank </text>
<text text-anchor="middle" x="282" y="217" style="font-size:5.07pt;">}</text>
</g>
<!-- feature&#45;&gt;featureprop -->
<g id="edge14" class="edge"><title>feature&#45;&gt;featureprop</title>
<path style="fill:none;stroke:black;" d="M372,198C356,198 337,199 319,200"/>
<polygon style="fill:black;stroke:black;" points="319,201 316,200 319,198 319,201"/>
</g>
<!-- feature_dbxref -->
<g id="node8" class="node"><title>feature_dbxref</title>
<polygon style="fill:white;stroke:black;" points="385,363 465,363 465,331 385,331 385,363"/>
<text text-anchor="start" x="388" y="337" style="font-size:5.07pt;">{feature_dbxref|&#45; feature_dbxref_id </text>
<text text-anchor="start" x="388" y="343" style="font-size:5.07pt;">&#45; feature_id </text>
<text text-anchor="start" x="388" y="348" style="font-size:5.07pt;">&#45; dbxref_id </text>
<text text-anchor="start" x="388" y="354" style="font-size:5.07pt;">&#45; is_current </text>
<text text-anchor="middle" x="425" y="360" style="font-size:5.07pt;">}</text>
</g>
<!-- feature&#45;&gt;feature_dbxref -->
<g id="edge4" class="edge"><title>feature&#45;&gt;feature_dbxref</title>
<path style="fill:none;stroke:black;" d="M404,239C410,268 417,305 421,327"/>
<polygon style="fill:black;stroke:black;" points="422,327 422,331 420,327 422,327"/>
</g>
<!-- feature_relationship -->
<g id="node9" class="node"><title>feature_relationship</title>
<polygon style="fill:white;stroke:black;" points="260,369 361,369 361,325 260,325 260,369"/>
<text text-anchor="start" x="263" y="331" style="font-size:5.07pt;">{feature_relationship|&#45; feature_relationship_id </text>
<text text-anchor="start" x="263" y="337" style="font-size:5.07pt;">&#45; subject_id </text>
<text text-anchor="start" x="263" y="343" style="font-size:5.07pt;">&#45; object_id </text>
<text text-anchor="start" x="263" y="349" style="font-size:5.07pt;">&#45; type_id </text>
<text text-anchor="start" x="263" y="355" style="font-size:5.07pt;">&#45; value </text>
<text text-anchor="start" x="263" y="360" style="font-size:5.07pt;">&#45; rank </text>
<text text-anchor="middle" x="310" y="366" style="font-size:5.07pt;">}</text>
</g>
<!-- feature&#45;&gt;feature_relationship -->
<g id="edge8" class="edge"><title>feature&#45;&gt;feature_relationship</title>
<path style="fill:none;stroke:black;" d="M372,239C356,266 337,300 325,322"/>
<polygon style="fill:black;stroke:black;" points="326,323 323,325 323,322 326,323"/>
</g>
<!-- feature_cvterm -->
<g id="node13" class="node"><title>feature_cvterm</title>
<polygon style="fill:white;stroke:black;" points="477,210 558,210 558,172 477,172 477,210"/>
<text text-anchor="start" x="480" y="178" style="font-size:5.07pt;">{feature_cvterm|&#45; feature_cvterm_id </text>
<text text-anchor="start" x="480" y="184" style="font-size:5.07pt;">&#45; feature_id </text>
<text text-anchor="start" x="480" y="190" style="font-size:5.07pt;">&#45; cvterm_id </text>
<text text-anchor="start" x="480" y="196" style="font-size:5.07pt;">&#45; pub_id </text>
<text text-anchor="start" x="480" y="202" style="font-size:5.07pt;">&#45; is_not </text>
<text text-anchor="middle" x="517" y="207" style="font-size:5.07pt;">}</text>
</g>
<!-- feature&#45;&gt;feature_cvterm -->
<g id="edge2" class="edge"><title>feature&#45;&gt;feature_cvterm</title>
<path style="fill:none;stroke:black;" d="M420,196C435,195 455,194 473,193"/>
<polygon style="fill:black;stroke:black;" points="473,192 477,193 473,194 473,192"/>
</g>
<!-- feature_synonym -->
<g id="node18" class="node"><title>feature_synonym</title>
<polygon style="fill:white;stroke:black;" points="493,372 583,372 583,329 493,329 493,372"/>
<text text-anchor="start" x="496" y="335" style="font-size:5.07pt;">{feature_synonym|&#45; feature_synonym_id </text>
<text text-anchor="start" x="496" y="341" style="font-size:5.07pt;">&#45; synonym_id </text>
<text text-anchor="start" x="496" y="347" style="font-size:5.07pt;">&#45; feature_id </text>
<text text-anchor="start" x="496" y="352" style="font-size:5.07pt;">&#45; pub_id </text>
<text text-anchor="start" x="496" y="358" style="font-size:5.07pt;">&#45; is_current </text>
<text text-anchor="start" x="496" y="364" style="font-size:5.07pt;">&#45; is_internal </text>
<text text-anchor="middle" x="538" y="370" style="font-size:5.07pt;">}</text>
</g>
<!-- feature&#45;&gt;feature_synonym -->
<g id="edge10" class="edge"><title>feature&#45;&gt;feature_synonym</title>
<path style="fill:none;stroke:black;" d="M420,223C446,252 489,298 515,326"/>
<polygon style="fill:black;stroke:black;" points="516,325 517,329 514,327 516,325"/>
</g>
<!-- featureloc_pub -->
<g id="node3" class="node"><title>featureloc_pub</title>
<polygon style="fill:white;stroke:black;" points="453,534 533,534 533,508 453,508 453,534"/>
<text text-anchor="start" x="456" y="514" style="font-size:5.07pt;">{featureloc_pub|&#45; featureloc_pub_id </text>
<text text-anchor="start" x="456" y="520" style="font-size:5.07pt;">&#45; featureloc_id </text>
<text text-anchor="start" x="456" y="526" style="font-size:5.07pt;">&#45; pub_id </text>
<text text-anchor="middle" x="493" y="532" style="font-size:5.07pt;">}</text>
</g>
<!-- featureloc&#45;&gt;featureloc_pub -->
<g id="edge30" class="edge"><title>featureloc&#45;&gt;featureloc_pub</title>
<path style="fill:none;stroke:black;" d="M394,518C410,518 431,519 449,520"/>
<polygon style="fill:black;stroke:black;" points="449,518 453,520 449,521 449,518"/>
</g>
<!-- feature_pubprop -->
<g id="node5" class="node"><title>feature_pubprop</title>
<polygon style="fill:white;stroke:black;" points="173,56 260,56 260,18 173,18 173,56"/>
<text text-anchor="start" x="176" y="25" style="font-size:5.07pt;">{feature_pubprop|&#45; feature_pubprop_id </text>
<text text-anchor="start" x="176" y="30" style="font-size:5.07pt;">&#45; feature_pub_id </text>
<text text-anchor="start" x="176" y="36" style="font-size:5.07pt;">&#45; type_id </text>
<text text-anchor="start" x="176" y="42" style="font-size:5.07pt;">&#45; value </text>
<text text-anchor="start" x="176" y="48" style="font-size:5.07pt;">&#45; rank </text>
<text text-anchor="middle" x="217" y="54" style="font-size:5.07pt;">}</text>
</g>
<!-- feature_pub&#45;&gt;feature_pubprop -->
<g id="edge22" class="edge"><title>feature_pub&#45;&gt;feature_pubprop</title>
<path style="fill:none;stroke:black;" d="M313,31C298,33 280,34 264,34"/>
<polygon style="fill:black;stroke:black;" points="264,35 260,35 264,33 264,35"/>
</g>
<!-- featureprop_pub -->
<g id="node7" class="node"><title>featureprop_pub</title>
<polygon style="fill:white;stroke:black;" points="27,112 114,112 114,86 27,86 27,112"/>
<text text-anchor="start" x="30" y="92" style="font-size:5.07pt;">{featureprop_pub|&#45; featureprop_pub_id </text>
<text text-anchor="start" x="30" y="98" style="font-size:5.07pt;">&#45; featureprop_id </text>
<text text-anchor="start" x="30" y="103" style="font-size:5.07pt;">&#45; pub_id </text>
<text text-anchor="middle" x="71" y="109" style="font-size:5.07pt;">}</text>
</g>
<!-- featureprop&#45;&gt;featureprop_pub -->
<g id="edge32" class="edge"><title>featureprop&#45;&gt;featureprop_pub</title>
<path style="fill:none;stroke:black;" d="M249,185C208,165 140,132 101,113"/>
<polygon style="fill:black;stroke:black;" points="101,114 98,112 102,112 101,114"/>
</g>
<!-- feature_relationship_pub -->
<g id="node10" class="node"><title>feature_relationship_pub</title>
<polygon style="fill:white;stroke:black;" points="170,518 291,518 291,492 170,492 170,518"/>
<text text-anchor="start" x="173" y="499" style="font-size:5.07pt;">{feature_relationship_pub|&#45; feature_relationship_pub_id </text>
<text text-anchor="start" x="173" y="504" style="font-size:5.07pt;">&#45; feature_relationship_id </text>
<text text-anchor="start" x="173" y="510" style="font-size:5.07pt;">&#45; pub_id </text>
<text text-anchor="middle" x="231" y="516" style="font-size:5.07pt;">}</text>
</g>
<!-- feature_relationship&#45;&gt;feature_relationship_pub -->
<g id="edge24" class="edge"><title>feature_relationship&#45;&gt;feature_relationship_pub</title>
<path style="fill:none;stroke:black;" d="M300,369C283,401 254,461 239,489"/>
<polygon style="fill:black;stroke:black;" points="240,490 237,492 238,489 240,490"/>
</g>
<!-- feature_relationshipprop -->
<g id="node11" class="node"><title>feature_relationshipprop</title>
<polygon style="fill:white;stroke:black;" points="115,301 234,301 234,263 115,263 115,301"/>
<text text-anchor="start" x="118" y="269" style="font-size:5.07pt;">{feature_relationshipprop|&#45; feature_relationshipprop_id </text>
<text text-anchor="start" x="118" y="275" style="font-size:5.07pt;">&#45; feature_relationship_id </text>
<text text-anchor="start" x="118" y="281" style="font-size:5.07pt;">&#45; type_id </text>
<text text-anchor="start" x="118" y="287" style="font-size:5.07pt;">&#45; value </text>
<text text-anchor="start" x="118" y="292" style="font-size:5.07pt;">&#45; rank </text>
<text text-anchor="middle" x="174" y="298" style="font-size:5.07pt;">}</text>
</g>
<!-- feature_relationship&#45;&gt;feature_relationshipprop -->
<g id="edge26" class="edge"><title>feature_relationship&#45;&gt;feature_relationshipprop</title>
<path style="fill:none;stroke:black;" d="M265,325C250,318 232,309 217,302"/>
<polygon style="fill:black;stroke:black;" points="216,303 213,301 217,301 216,303"/>
</g>
<!-- feature_relationshipprop_pub -->
<g id="node12" class="node"><title>feature_relationshipprop_pub</title>
<polygon style="fill:white;stroke:black;" points="4,470 144,470 144,444 4,444 4,470"/>
<text text-anchor="start" x="7" y="450" style="font-size:5.07pt;">{feature_relationshipprop_pub|&#45; feature_relationshipprop_pub_id </text>
<text text-anchor="start" x="7" y="456" style="font-size:5.07pt;">&#45; feature_relationshipprop_id </text>
<text text-anchor="start" x="7" y="462" style="font-size:5.07pt;">&#45; pub_id </text>
<text text-anchor="middle" x="74" y="467" style="font-size:5.07pt;">}</text>
</g>
<!-- feature_relationshipprop&#45;&gt;feature_relationshipprop_pub -->
<g id="edge28" class="edge"><title>feature_relationshipprop&#45;&gt;feature_relationshipprop_pub</title>
<path style="fill:none;stroke:black;" d="M164,301C144,335 102,408 84,441"/>
<polygon style="fill:black;stroke:black;" points="85,441 82,444 83,440 85,441"/>
</g>
<!-- feature_cvtermprop -->
<g id="node14" class="node"><title>feature_cvtermprop</title>
<polygon style="fill:white;stroke:black;" points="602,62 702,62 702,25 602,25 602,62"/>
<text text-anchor="start" x="605" y="31" style="font-size:5.07pt;">{feature_cvtermprop|&#45; feature_cvtermprop_id </text>
<text text-anchor="start" x="605" y="37" style="font-size:5.07pt;">&#45; feature_cvterm_id </text>
<text text-anchor="start" x="605" y="42" style="font-size:5.07pt;">&#45; type_id </text>
<text text-anchor="start" x="605" y="48" style="font-size:5.07pt;">&#45; value </text>
<text text-anchor="start" x="605" y="54" style="font-size:5.07pt;">&#45; rank </text>
<text text-anchor="middle" x="652" y="60" style="font-size:5.07pt;">}</text>
</g>
<!-- feature_cvterm&#45;&gt;feature_cvtermprop -->
<g id="edge20" class="edge"><title>feature_cvterm&#45;&gt;feature_cvtermprop</title>
<path style="fill:none;stroke:black;" d="M534,172C559,145 606,94 632,65"/>
<polygon style="fill:black;stroke:black;" points="631,64 635,62 633,66 631,64"/>
</g>
<!-- feature_cvterm_dbxref -->
<g id="node15" class="node"><title>feature_cvterm_dbxref</title>
<polygon style="fill:white;stroke:black;" points="422,38 535,38 535,12 422,12 422,38"/>
<text text-anchor="start" x="425" y="18" style="font-size:5.07pt;">{feature_cvterm_dbxref|&#45; feature_cvterm_dbxref_id </text>
<text text-anchor="start" x="425" y="24" style="font-size:5.07pt;">&#45; feature_cvterm_id </text>
<text text-anchor="start" x="425" y="30" style="font-size:5.07pt;">&#45; dbxref_id </text>
<text text-anchor="middle" x="478" y="36" style="font-size:5.07pt;">}</text>
</g>
<!-- feature_cvterm&#45;&gt;feature_cvterm_dbxref -->
<g id="edge16" class="edge"><title>feature_cvterm&#45;&gt;feature_cvterm_dbxref</title>
<path style="fill:none;stroke:black;" d="M513,172C505,140 489,73 482,42"/>
<polygon style="fill:black;stroke:black;" points="481,42 481,38 483,42 481,42"/>
</g>
<!-- feature_cvterm_pub -->
<g id="node16" class="node"><title>feature_cvterm_pub</title>
<polygon style="fill:white;stroke:black;" points="622,276 724,276 724,250 622,250 622,276"/>
<text text-anchor="start" x="625" y="256" style="font-size:5.07pt;">{feature_cvterm_pub|&#45; feature_cvterm_pub_id </text>
<text text-anchor="start" x="625" y="262" style="font-size:5.07pt;">&#45; feature_cvterm_id </text>
<text text-anchor="start" x="625" y="268" style="font-size:5.07pt;">&#45; pub_id </text>
<text text-anchor="middle" x="673" y="274" style="font-size:5.07pt;">}</text>
</g>
<!-- feature_cvterm&#45;&gt;feature_cvterm_pub -->
<g id="edge18" class="edge"><title>feature_cvterm&#45;&gt;feature_cvterm_pub</title>
<path style="fill:none;stroke:black;" d="M558,210C584,222 617,237 642,249"/>
<polygon style="fill:black;stroke:black;" points="642,247 645,250 641,250 642,247"/>
</g>
<!-- synonym -->
<g id="node17" class="node"><title>synonym</title>
<polygon style="fill:white;stroke:black;" points="632,512 689,512 689,480 632,480 632,512"/>
<text text-anchor="start" x="635" y="486" style="font-size:5.07pt;">{synonym|&#45; synonym_id </text>
<text text-anchor="start" x="635" y="492" style="font-size:5.07pt;">&#45; name </text>
<text text-anchor="start" x="635" y="498" style="font-size:5.07pt;">&#45; type_id </text>
<text text-anchor="start" x="635" y="504" style="font-size:5.07pt;">&#45; synonym_sgml </text>
<text text-anchor="middle" x="660" y="509" style="font-size:5.07pt;">}</text>
</g>
<!-- synonym&#45;&gt;feature_synonym -->
<g id="edge34" class="edge"><title>synonym&#45;&gt;feature_synonym</title>
<path style="fill:none;stroke:black;" d="M647,480C625,454 584,405 559,375"/>
<polygon style="fill:black;stroke:black;" points="558,376 556,372 559,374 558,376"/>
</g>
</g>
</svg>
