<?xml version="1.0" encoding="UTF-8" standalone="no"?>
<!DOCTYPE svg PUBLIC "-//W3C//DTD SVG 1.0//EN"
 "http://www.w3.org/TR/2001/REC-SVG-20010904/DTD/svg10.dtd" [
 <!ATTLIST svg xmlns:xlink CDATA #FIXED "http://www.w3.org/1999/xlink">
]>
<!-- Generated by Graphviz version 2.20.2 (Wed Sep 16 11:12:11 UTC 2009)
     For user: (cain) Scott Cain,,, -->
<!-- Title: test Pages: 1 -->
<svg width="1227pt" height="851pt"
 viewBox="0.00 0.00 1227.00 851.00" xmlns="http://www.w3.org/2000/svg" xmlns:xlink="http://www.w3.org/1999/xlink">
<g id="graph0" class="graph" transform="scale(1 1) rotate(0) translate(4 847)">
<title>test</title>
<polygon style="fill:lightgoldenrodyellow;stroke:lightgoldenrodyellow;" points="-4,4 -4,-847 1223,-847 1223,4 -4,4"/>
<!-- node1 -->
<g id="node1" class="node"><title>node1</title>
<polygon style="fill:white;stroke:black;" points="548,-414 548,-668 687,-668 687,-414 548,-414"/>
<text text-anchor="middle" x="617" y="-650.9" style="font-family:Times New Roman;font-size:14.00;">feature</text>
<polyline style="fill:none;stroke:black;" points="548,-643 687,-643 "/>
<text text-anchor="start" x="555.5" y="-625.9" style="font-family:Times New Roman;font-size:14.00;">&#45; feature_id</text>
<text text-anchor="start" x="555.5" y="-608.9" style="font-family:Times New Roman;font-size:14.00;">&#45; dbxref_id</text>
<text text-anchor="start" x="555.5" y="-591.9" style="font-family:Times New Roman;font-size:14.00;">&#45; organism_id</text>
<text text-anchor="start" x="555.5" y="-574.9" style="font-family:Times New Roman;font-size:14.00;">&#45; name</text>
<text text-anchor="start" x="555.5" y="-557.9" style="font-family:Times New Roman;font-size:14.00;">&#45; uniquename</text>
<text text-anchor="start" x="555.5" y="-540.9" style="font-family:Times New Roman;font-size:14.00;">&#45; residues</text>
<text text-anchor="start" x="555.5" y="-523.9" style="font-family:Times New Roman;font-size:14.00;">&#45; seqlen</text>
<text text-anchor="start" x="555.5" y="-506.9" style="font-family:Times New Roman;font-size:14.00;">&#45; md5checksum</text>
<text text-anchor="start" x="555.5" y="-489.9" style="font-family:Times New Roman;font-size:14.00;">&#45; type_id</text>
<text text-anchor="start" x="555.5" y="-472.9" style="font-family:Times New Roman;font-size:14.00;">&#45; is_analysis</text>
<text text-anchor="start" x="555.5" y="-455.9" style="font-family:Times New Roman;font-size:14.00;">&#45; is_obsolete</text>
<text text-anchor="start" x="555.5" y="-438.9" style="font-family:Times New Roman;font-size:14.00;">&#45; timeaccessioned</text>
<text text-anchor="start" x="555.5" y="-421.9" style="font-family:Times New Roman;font-size:14.00;">&#45; timelastmodified</text>
</g>
<!-- node2 -->
<g id="node2" class="node"><title>node2</title>
<polygon style="fill:white;stroke:black;" points="542,-0 542,-237 671,-237 671,-0 542,-0"/>
<text text-anchor="middle" x="606" y="-219.9" style="font-family:Times New Roman;font-size:14.00;">featureloc</text>
<polyline style="fill:none;stroke:black;" points="542,-212 671,-212 "/>
<text text-anchor="start" x="549.5" y="-195.4" style="font-family:Times New Roman;font-size:14.00;">&#45; featureloc_id</text>
<text text-anchor="start" x="549.5" y="-178.4" style="font-family:Times New Roman;font-size:14.00;">&#45; feature_id</text>
<text text-anchor="start" x="549.5" y="-161.4" style="font-family:Times New Roman;font-size:14.00;">&#45; srcfeature_id</text>
<text text-anchor="start" x="549.5" y="-144.4" style="font-family:Times New Roman;font-size:14.00;">&#45; fmin</text>
<text text-anchor="start" x="549.5" y="-127.4" style="font-family:Times New Roman;font-size:14.00;">&#45; is_fmin_partial</text>
<text text-anchor="start" x="549.5" y="-110.4" style="font-family:Times New Roman;font-size:14.00;">&#45; fmax</text>
<text text-anchor="start" x="549.5" y="-93.4" style="font-family:Times New Roman;font-size:14.00;">&#45; is_fmax_partial</text>
<text text-anchor="start" x="549.5" y="-76.4" style="font-family:Times New Roman;font-size:14.00;">&#45; strand</text>
<text text-anchor="start" x="549.5" y="-59.4" style="font-family:Times New Roman;font-size:14.00;">&#45; phase</text>
<text text-anchor="start" x="549.5" y="-42.4" style="font-family:Times New Roman;font-size:14.00;">&#45; residue_info</text>
<text text-anchor="start" x="549.5" y="-25.4" style="font-family:Times New Roman;font-size:14.00;">&#45; locgroup</text>
<text text-anchor="start" x="549.5" y="-8.4" style="font-family:Times New Roman;font-size:14.00;">&#45; rank</text>
</g>
<!-- node1&#45;&gt;node2 -->
<g id="edge12" class="edge"><title>node1&#45;&gt;node2</title>
<path style="fill:none;stroke:black;" d="M614,-414C612,-361 610,-300 609,-247"/>
<polygon style="fill:black;stroke:black;" points="612.5,-247 609,-237 605.5,-247 612.5,-247"/>
</g>
<!-- node4 -->
<g id="node4" class="node"><title>node4</title>
<polygon style="fill:white;stroke:black;" points="532,-728 532,-812 661,-812 661,-728 532,-728"/>
<text text-anchor="middle" x="596" y="-794.9" style="font-family:Times New Roman;font-size:14.00;">feature_pub</text>
<polyline style="fill:none;stroke:black;" points="532,-787 661,-787 "/>
<text text-anchor="start" x="539.5" y="-769.9" style="font-family:Times New Roman;font-size:14.00;">&#45; feature_pub_id</text>
<text text-anchor="start" x="539.5" y="-752.9" style="font-family:Times New Roman;font-size:14.00;">&#45; feature_id</text>
<text text-anchor="start" x="539.5" y="-735.9" style="font-family:Times New Roman;font-size:14.00;">&#45; pub_id</text>
</g>
<!-- node1&#45;&gt;node4 -->
<g id="edge6" class="edge"><title>node1&#45;&gt;node4</title>
<path style="fill:none;stroke:black;" d="M605,-668C603,-686 602,-702 601,-718"/>
<polygon style="fill:black;stroke:black;" points="597.512,-717.701 600,-728 604.478,-718.398 597.512,-717.701"/>
</g>
<!-- node6 -->
<g id="node6" class="node"><title>node6</title>
<polygon style="fill:white;stroke:black;" points="310,-492 310,-610 436,-610 436,-492 310,-492"/>
<text text-anchor="middle" x="373" y="-592.9" style="font-family:Times New Roman;font-size:14.00;">featureprop</text>
<polyline style="fill:none;stroke:black;" points="310,-585 436,-585 "/>
<text text-anchor="start" x="318" y="-567.9" style="font-family:Times New Roman;font-size:14.00;">&#45; featureprop_id</text>
<text text-anchor="start" x="318" y="-550.9" style="font-family:Times New Roman;font-size:14.00;">&#45; feature_id</text>
<text text-anchor="start" x="318" y="-533.9" style="font-family:Times New Roman;font-size:14.00;">&#45; type_id</text>
<text text-anchor="start" x="318" y="-516.9" style="font-family:Times New Roman;font-size:14.00;">&#45; value</text>
<text text-anchor="start" x="318" y="-499.9" style="font-family:Times New Roman;font-size:14.00;">&#45; rank</text>
</g>
<!-- node1&#45;&gt;node6 -->
<g id="edge14" class="edge"><title>node1&#45;&gt;node6</title>
<path style="fill:none;stroke:black;" d="M548,-544C516,-545 479,-547 446,-548"/>
<polygon style="fill:black;stroke:black;" points="445.602,-544.522 436,-549 446.299,-551.488 445.602,-544.522"/>
</g>
<!-- node8 -->
<g id="node8" class="node"><title>node8</title>
<polygon style="fill:white;stroke:black;" points="619,-291 619,-392 766,-392 766,-291 619,-291"/>
<text text-anchor="middle" x="692" y="-374.9" style="font-family:Times New Roman;font-size:14.00;">feature_dbxref</text>
<polyline style="fill:none;stroke:black;" points="619,-367 766,-367 "/>
<text text-anchor="start" x="626.5" y="-350.4" style="font-family:Times New Roman;font-size:14.00;">&#45; feature_dbxref_id</text>
<text text-anchor="start" x="626.5" y="-333.4" style="font-family:Times New Roman;font-size:14.00;">&#45; feature_id</text>
<text text-anchor="start" x="626.5" y="-316.4" style="font-family:Times New Roman;font-size:14.00;">&#45; dbxref_id</text>
<text text-anchor="start" x="626.5" y="-299.4" style="font-family:Times New Roman;font-size:14.00;">&#45; is_current</text>
</g>
<!-- node1&#45;&gt;node8 -->
<g id="edge4" class="edge"><title>node1&#45;&gt;node8</title>
<path style="fill:none;stroke:black;" d="M665,-414C667,-410 668,-406 670,-402"/>
<polygon style="fill:black;stroke:black;" points="673.479,-402.584 673,-392 666.774,-400.573 673.479,-402.584"/>
</g>
<!-- node9 -->
<g id="node9" class="node"><title>node9</title>
<polygon style="fill:white;stroke:black;" points="345,-276 345,-411 529,-411 529,-276 345,-276"/>
<text text-anchor="middle" x="437" y="-393.9" style="font-family:Times New Roman;font-size:14.00;">feature_relationship</text>
<polyline style="fill:none;stroke:black;" points="345,-386 529,-386 "/>
<text text-anchor="start" x="353" y="-369.4" style="font-family:Times New Roman;font-size:14.00;">&#45; feature_relationship_id</text>
<text text-anchor="start" x="353" y="-352.4" style="font-family:Times New Roman;font-size:14.00;">&#45; subject_id</text>
<text text-anchor="start" x="353" y="-335.4" style="font-family:Times New Roman;font-size:14.00;">&#45; object_id</text>
<text text-anchor="start" x="353" y="-318.4" style="font-family:Times New Roman;font-size:14.00;">&#45; type_id</text>
<text text-anchor="start" x="353" y="-301.4" style="font-family:Times New Roman;font-size:14.00;">&#45; value</text>
<text text-anchor="start" x="353" y="-284.4" style="font-family:Times New Roman;font-size:14.00;">&#45; rank</text>
</g>
<!-- node1&#45;&gt;node9 -->
<g id="edge8" class="edge"><title>node1&#45;&gt;node9</title>
<path style="fill:none;stroke:black;" d="M548,-465C534,-450 519,-434 505,-419"/>
<polygon style="fill:black;stroke:black;" points="507.219,-416.221 498,-411 501.951,-420.831 507.219,-416.221"/>
</g>
<!-- node13 -->
<g id="node13" class="node"><title>node13</title>
<polygon style="fill:white;stroke:black;" points="787,-484 787,-619 938,-619 938,-484 787,-484"/>
<text text-anchor="middle" x="862" y="-601.9" style="font-family:Times New Roman;font-size:14.00;">feature_cvterm</text>
<polyline style="fill:none;stroke:black;" points="787,-594 938,-594 "/>
<text text-anchor="start" x="794.5" y="-577.4" style="font-family:Times New Roman;font-size:14.00;">&#45; feature_cvterm_id</text>
<text text-anchor="start" x="794.5" y="-560.4" style="font-family:Times New Roman;font-size:14.00;">&#45; feature_id</text>
<text text-anchor="start" x="794.5" y="-543.4" style="font-family:Times New Roman;font-size:14.00;">&#45; cvterm_id</text>
<text text-anchor="start" x="794.5" y="-526.4" style="font-family:Times New Roman;font-size:14.00;">&#45; pub_id</text>
<text text-anchor="start" x="794.5" y="-509.4" style="font-family:Times New Roman;font-size:14.00;">&#45; is_not</text>
<text text-anchor="start" x="794.5" y="-492.4" style="font-family:Times New Roman;font-size:14.00;">&#45; rank</text>
</g>
<!-- node1&#45;&gt;node13 -->
<g id="edge2" class="edge"><title>node1&#45;&gt;node13</title>
<path style="fill:none;stroke:black;" d="M687,-544C715,-545 747,-547 777,-548"/>
<polygon style="fill:black;stroke:black;" points="777,-551.5 787,-548 777,-544.5 777,-551.5"/>
</g>
<!-- node18 -->
<g id="node18" class="node"><title>node18</title>
<polygon style="fill:white;stroke:black;" points="835,-269 835,-404 1000,-404 1000,-269 835,-269"/>
<text text-anchor="middle" x="917" y="-386.9" style="font-family:Times New Roman;font-size:14.00;">feature_synonym</text>
<polyline style="fill:none;stroke:black;" points="835,-379 1000,-379 "/>
<text text-anchor="start" x="842.5" y="-362.4" style="font-family:Times New Roman;font-size:14.00;">&#45; feature_synonym_id</text>
<text text-anchor="start" x="842.5" y="-345.4" style="font-family:Times New Roman;font-size:14.00;">&#45; synonym_id</text>
<text text-anchor="start" x="842.5" y="-328.4" style="font-family:Times New Roman;font-size:14.00;">&#45; feature_id</text>
<text text-anchor="start" x="842.5" y="-311.4" style="font-family:Times New Roman;font-size:14.00;">&#45; pub_id</text>
<text text-anchor="start" x="842.5" y="-294.4" style="font-family:Times New Roman;font-size:14.00;">&#45; is_current</text>
<text text-anchor="start" x="842.5" y="-277.4" style="font-family:Times New Roman;font-size:14.00;">&#45; is_internal</text>
</g>
<!-- node1&#45;&gt;node18 -->
<g id="edge10" class="edge"><title>node1&#45;&gt;node18</title>
<path style="fill:none;stroke:black;" d="M687,-493C728,-465 782,-429 827,-399"/>
<polygon style="fill:black;stroke:black;" points="829.1,-401.8 835,-393 824.9,-396.2 829.1,-401.8"/>
</g>
<!-- node3 -->
<g id="node3" class="node"><title>node3</title>
<polygon style="fill:white;stroke:black;" points="772,-69 772,-153 919,-153 919,-69 772,-69"/>
<text text-anchor="middle" x="845" y="-135.9" style="font-family:Times New Roman;font-size:14.00;">featureloc_pub</text>
<polyline style="fill:none;stroke:black;" points="772,-128 919,-128 "/>
<text text-anchor="start" x="779.5" y="-110.9" style="font-family:Times New Roman;font-size:14.00;">&#45; featureloc_pub_id</text>
<text text-anchor="start" x="779.5" y="-93.9" style="font-family:Times New Roman;font-size:14.00;">&#45; featureloc_id</text>
<text text-anchor="start" x="779.5" y="-76.9" style="font-family:Times New Roman;font-size:14.00;">&#45; pub_id</text>
</g>
<!-- node2&#45;&gt;node3 -->
<g id="edge30" class="edge"><title>node2&#45;&gt;node3</title>
<path style="fill:none;stroke:black;" d="M671,-117C699,-116 732,-114 762,-113"/>
<polygon style="fill:black;stroke:black;" points="762,-116.5 772,-113 762,-109.5 762,-116.5"/>
</g>
<!-- node5 -->
<g id="node5" class="node"><title>node5</title>
<polygon style="fill:white;stroke:black;" points="291,-724 291,-842 450,-842 450,-724 291,-724"/>
<text text-anchor="middle" x="370" y="-824.9" style="font-family:Times New Roman;font-size:14.00;">feature_pubprop</text>
<polyline style="fill:none;stroke:black;" points="291,-817 450,-817 "/>
<text text-anchor="start" x="298.5" y="-799.9" style="font-family:Times New Roman;font-size:14.00;">&#45; feature_pubprop_id</text>
<text text-anchor="start" x="298.5" y="-782.9" style="font-family:Times New Roman;font-size:14.00;">&#45; feature_pub_id</text>
<text text-anchor="start" x="298.5" y="-765.9" style="font-family:Times New Roman;font-size:14.00;">&#45; type_id</text>
<text text-anchor="start" x="298.5" y="-748.9" style="font-family:Times New Roman;font-size:14.00;">&#45; value</text>
<text text-anchor="start" x="298.5" y="-731.9" style="font-family:Times New Roman;font-size:14.00;">&#45; rank</text>
</g>
<!-- node4&#45;&gt;node5 -->
<g id="edge22" class="edge"><title>node4&#45;&gt;node5</title>
<path style="fill:none;stroke:black;" d="M532,-774C509,-776 484,-777 460,-778"/>
<polygon style="fill:black;stroke:black;" points="459.602,-774.522 450,-779 460.299,-781.488 459.602,-774.522"/>
</g>
<!-- node7 -->
<g id="node7" class="node"><title>node7</title>
<polygon style="fill:white;stroke:black;" points="40,-690 40,-774 199,-774 199,-690 40,-690"/>
<text text-anchor="middle" x="119" y="-756.9" style="font-family:Times New Roman;font-size:14.00;">featureprop_pub</text>
<polyline style="fill:none;stroke:black;" points="40,-749 199,-749 "/>
<text text-anchor="start" x="47.5" y="-731.9" style="font-family:Times New Roman;font-size:14.00;">&#45; featureprop_pub_id</text>
<text text-anchor="start" x="47.5" y="-714.9" style="font-family:Times New Roman;font-size:14.00;">&#45; featureprop_id</text>
<text text-anchor="start" x="47.5" y="-697.9" style="font-family:Times New Roman;font-size:14.00;">&#45; pub_id</text>
</g>
<!-- node6&#45;&gt;node7 -->
<g id="edge32" class="edge"><title>node6&#45;&gt;node7</title>
<path style="fill:none;stroke:black;" d="M310,-596C273,-623 225,-657 187,-684"/>
<polygon style="fill:black;stroke:black;" points="184.379,-681.541 178,-690 188.262,-687.365 184.379,-681.541"/>
</g>
<!-- node10 -->
<g id="node10" class="node"><title>node10</title>
<polygon style="fill:white;stroke:black;" points="266,-77 266,-161 483,-161 483,-77 266,-77"/>
<text text-anchor="middle" x="374" y="-143.9" style="font-family:Times New Roman;font-size:14.00;">feature_relationship_pub</text>
<polyline style="fill:none;stroke:black;" points="266,-136 483,-136 "/>
<text text-anchor="start" x="273.5" y="-118.9" style="font-family:Times New Roman;font-size:14.00;">&#45; feature_relationship_pub_id</text>
<text text-anchor="start" x="273.5" y="-101.9" style="font-family:Times New Roman;font-size:14.00;">&#45; feature_relationship_id</text>
<text text-anchor="start" x="273.5" y="-84.9" style="font-family:Times New Roman;font-size:14.00;">&#45; pub_id</text>
</g>
<!-- node9&#45;&gt;node10 -->
<g id="edge24" class="edge"><title>node9&#45;&gt;node10</title>
<path style="fill:none;stroke:black;" d="M418,-276C408,-243 397,-203 389,-171"/>
<polygon style="fill:black;stroke:black;" points="392.226,-169.573 386,-161 385.521,-171.584 392.226,-169.573"/>
</g>
<!-- node11 -->
<g id="node11" class="node"><title>node11</title>
<polygon style="fill:white;stroke:black;" points="28,-370 28,-488 243,-488 243,-370 28,-370"/>
<text text-anchor="middle" x="135" y="-470.9" style="font-family:Times New Roman;font-size:14.00;">feature_relationshipprop</text>
<polyline style="fill:none;stroke:black;" points="28,-463 243,-463 "/>
<text text-anchor="start" x="35.5" y="-445.9" style="font-family:Times New Roman;font-size:14.00;">&#45; feature_relationshipprop_id</text>
<text text-anchor="start" x="35.5" y="-428.9" style="font-family:Times New Roman;font-size:14.00;">&#45; feature_relationship_id</text>
<text text-anchor="start" x="35.5" y="-411.9" style="font-family:Times New Roman;font-size:14.00;">&#45; type_id</text>
<text text-anchor="start" x="35.5" y="-394.9" style="font-family:Times New Roman;font-size:14.00;">&#45; value</text>
<text text-anchor="start" x="35.5" y="-377.9" style="font-family:Times New Roman;font-size:14.00;">&#45; rank</text>
</g>
<!-- node9&#45;&gt;node11 -->
<g id="edge26" class="edge"><title>node9&#45;&gt;node11</title>
<path style="fill:none;stroke:black;" d="M345,-370C316,-378 284,-387 253,-396"/>
<polygon style="fill:black;stroke:black;" points="251.573,-392.774 243,-399 253.584,-399.479 251.573,-392.774"/>
</g>
<!-- node12 -->
<g id="node12" class="node"><title>node12</title>
<polygon style="fill:white;stroke:black;" points="1,-106 1,-190 249,-190 249,-106 1,-106"/>
<text text-anchor="middle" x="125" y="-172.9" style="font-family:Times New Roman;font-size:14.00;">feature_relationshipprop_pub</text>
<polyline style="fill:none;stroke:black;" points="1,-165 249,-165 "/>
<text text-anchor="start" x="9" y="-147.9" style="font-family:Times New Roman;font-size:14.00;">&#45; feature_relationshipprop_pub_id</text>
<text text-anchor="start" x="9" y="-130.9" style="font-family:Times New Roman;font-size:14.00;">&#45; feature_relationshipprop_id</text>
<text text-anchor="start" x="9" y="-113.9" style="font-family:Times New Roman;font-size:14.00;">&#45; pub_id</text>
</g>
<!-- node11&#45;&gt;node12 -->
<g id="edge28" class="edge"><title>node11&#45;&gt;node12</title>
<path style="fill:none;stroke:black;" d="M133,-370C131,-320 128,-249 127,-200"/>
<polygon style="fill:black;stroke:black;" points="130.5,-200 127,-190 123.5,-200 130.5,-200"/>
</g>
<!-- node14 -->
<g id="node14" class="node"><title>node14</title>
<polygon style="fill:white;stroke:black;" points="1012,-692 1012,-810 1194,-810 1194,-692 1012,-692"/>
<text text-anchor="middle" x="1103" y="-792.9" style="font-family:Times New Roman;font-size:14.00;">feature_cvtermprop</text>
<polyline style="fill:none;stroke:black;" points="1012,-785 1194,-785 "/>
<text text-anchor="start" x="1020" y="-767.9" style="font-family:Times New Roman;font-size:14.00;">&#45; feature_cvtermprop_id</text>
<text text-anchor="start" x="1020" y="-750.9" style="font-family:Times New Roman;font-size:14.00;">&#45; feature_cvterm_id</text>
<text text-anchor="start" x="1020" y="-733.9" style="font-family:Times New Roman;font-size:14.00;">&#45; type_id</text>
<text text-anchor="start" x="1020" y="-716.9" style="font-family:Times New Roman;font-size:14.00;">&#45; value</text>
<text text-anchor="start" x="1020" y="-699.9" style="font-family:Times New Roman;font-size:14.00;">&#45; rank</text>
</g>
<!-- node13&#45;&gt;node14 -->
<g id="edge20" class="edge"><title>node13&#45;&gt;node14</title>
<path style="fill:none;stroke:black;" d="M938,-615C965,-637 996,-662 1023,-685"/>
<polygon style="fill:black;stroke:black;" points="1021.17,-688.049 1031,-692 1025.78,-682.781 1021.17,-688.049"/>
</g>
<!-- node15 -->
<g id="node15" class="node"><title>node15</title>
<polygon style="fill:white;stroke:black;" points="726,-738 726,-822 928,-822 928,-738 726,-738"/>
<text text-anchor="middle" x="827" y="-804.9" style="font-family:Times New Roman;font-size:14.00;">feature_cvterm_dbxref</text>
<polyline style="fill:none;stroke:black;" points="726,-797 928,-797 "/>
<text text-anchor="start" x="734" y="-779.9" style="font-family:Times New Roman;font-size:14.00;">&#45; feature_cvterm_dbxref_id</text>
<text text-anchor="start" x="734" y="-762.9" style="font-family:Times New Roman;font-size:14.00;">&#45; feature_cvterm_id</text>
<text text-anchor="start" x="734" y="-745.9" style="font-family:Times New Roman;font-size:14.00;">&#45; dbxref_id</text>
</g>
<!-- node13&#45;&gt;node15 -->
<g id="edge16" class="edge"><title>node13&#45;&gt;node15</title>
<path style="fill:none;stroke:black;" d="M852,-619C847,-653 840,-696 835,-728"/>
<polygon style="fill:black;stroke:black;" points="831.529,-727.508 833,-738 838.393,-728.881 831.529,-727.508"/>
</g>
<!-- node16 -->
<g id="node16" class="node"><title>node16</title>
<polygon style="fill:white;stroke:black;" points="1034,-421 1034,-505 1218,-505 1218,-421 1034,-421"/>
<text text-anchor="middle" x="1126" y="-487.9" style="font-family:Times New Roman;font-size:14.00;">feature_cvterm_pub</text>
<polyline style="fill:none;stroke:black;" points="1034,-480 1218,-480 "/>
<text text-anchor="start" x="1042" y="-462.9" style="font-family:Times New Roman;font-size:14.00;">&#45; feature_cvterm_pub_id</text>
<text text-anchor="start" x="1042" y="-445.9" style="font-family:Times New Roman;font-size:14.00;">&#45; feature_cvterm_id</text>
<text text-anchor="start" x="1042" y="-428.9" style="font-family:Times New Roman;font-size:14.00;">&#45; pub_id</text>
</g>
<!-- node13&#45;&gt;node16 -->
<g id="edge18" class="edge"><title>node13&#45;&gt;node16</title>
<path style="fill:none;stroke:black;" d="M938,-526C965,-517 995,-506 1024,-497"/>
<polygon style="fill:black;stroke:black;" points="1025.43,-500.226 1034,-494 1023.42,-493.521 1025.43,-500.226"/>
</g>
<!-- node17 -->
<g id="node17" class="node"><title>node17</title>
<polygon style="fill:white;stroke:black;" points="1053,-97 1053,-198 1180,-198 1180,-97 1053,-97"/>
<text text-anchor="middle" x="1116" y="-180.9" style="font-family:Times New Roman;font-size:14.00;">synonym</text>
<polyline style="fill:none;stroke:black;" points="1053,-173 1180,-173 "/>
<text text-anchor="start" x="1060.5" y="-156.4" style="font-family:Times New Roman;font-size:14.00;">&#45; synonym_id</text>
<text text-anchor="start" x="1060.5" y="-139.4" style="font-family:Times New Roman;font-size:14.00;">&#45; name</text>
<text text-anchor="start" x="1060.5" y="-122.4" style="font-family:Times New Roman;font-size:14.00;">&#45; type_id</text>
<text text-anchor="start" x="1060.5" y="-105.4" style="font-family:Times New Roman;font-size:14.00;">&#45; synonym_sgml</text>
</g>
<!-- node17&#45;&gt;node18 -->
<g id="edge34" class="edge"><title>node17&#45;&gt;node18</title>
<path style="fill:none;stroke:black;" d="M1063,-198C1042,-218 1018,-240 996,-262"/>
<polygon style="fill:black;stroke:black;" points="993.596,-259.454 989,-269 998.546,-264.404 993.596,-259.454"/>
</g>
</g>
</svg>
