<?xml version="1.0" encoding="UTF-8" standalone="no"?>
<!DOCTYPE svg PUBLIC "-//W3C//DTD SVG 1.0//EN"
 "http://www.w3.org/TR/2001/REC-SVG-20010904/DTD/svg10.dtd" [
 <!ATTLIST svg xmlns:xlink CDATA #FIXED "http://www.w3.org/1999/xlink">
]>
<!-- Generated by Graphviz version 2.12 (Tue Sep  4 16:56:48 UTC 2007)
     For user: (scott) Scott Cain,,, -->
<!-- Title: test Pages: 1 -->
<svg width="9.97in" height="7.99in"
 xmlns="http://www.w3.org/2000/svg" xmlns:xlink="http://www.w3.org/1999/xlink">
<g id="graph0" class="graph" transform="scale(0.815287 0.815287) rotate(0) translate(4 938)">
<title>test</title>
<polygon style="fill:white;stroke:white;" points="-4,4 -4,-938 1171,-938 1171,4 -4,4"/>
<!-- feature -->
<g id="node1" class="node"><title>feature</title>
<polygon style="fill:white;stroke:black;" points="512,-389 512,-685 636,-685 636,-389 512,-389"/>
<text text-anchor="middle" x="574" y="-667" style="font-family:Nimbus Roman No9 L;font-weight:regular;font-size:11.34pt;">feature</text>
<polyline style="fill:none;stroke:black;" points="512,-657 636,-657 "/>
<text text-anchor="start" x="520" y="-639" style="font-family:Nimbus Roman No9 L;font-weight:regular;font-size:11.34pt;">&#45; feature_id </text>
<text text-anchor="start" x="520" y="-619" style="font-family:Nimbus Roman No9 L;font-weight:regular;font-size:11.34pt;">&#45; dbxref_id </text>
<text text-anchor="start" x="520" y="-599" style="font-family:Nimbus Roman No9 L;font-weight:regular;font-size:11.34pt;">&#45; organism_id </text>
<text text-anchor="start" x="520" y="-579" style="font-family:Nimbus Roman No9 L;font-weight:regular;font-size:11.34pt;">&#45; name </text>
<text text-anchor="start" x="520" y="-559" style="font-family:Nimbus Roman No9 L;font-weight:regular;font-size:11.34pt;">&#45; uniquename </text>
<text text-anchor="start" x="520" y="-539" style="font-family:Nimbus Roman No9 L;font-weight:regular;font-size:11.34pt;">&#45; residues </text>
<text text-anchor="start" x="520" y="-519" style="font-family:Nimbus Roman No9 L;font-weight:regular;font-size:11.34pt;">&#45; seqlen </text>
<text text-anchor="start" x="520" y="-499" style="font-family:Nimbus Roman No9 L;font-weight:regular;font-size:11.34pt;">&#45; md5checksum </text>
<text text-anchor="start" x="520" y="-479" style="font-family:Nimbus Roman No9 L;font-weight:regular;font-size:11.34pt;">&#45; type_id </text>
<text text-anchor="start" x="520" y="-459" style="font-family:Nimbus Roman No9 L;font-weight:regular;font-size:11.34pt;">&#45; is_analysis </text>
<text text-anchor="start" x="520" y="-439" style="font-family:Nimbus Roman No9 L;font-weight:regular;font-size:11.34pt;">&#45; is_obsolete </text>
<text text-anchor="start" x="520" y="-419" style="font-family:Nimbus Roman No9 L;font-weight:regular;font-size:11.34pt;">&#45; timeaccessioned </text>
<text text-anchor="start" x="520" y="-399" style="font-family:Nimbus Roman No9 L;font-weight:regular;font-size:11.34pt;">&#45; timelastmodified </text>
</g>
<!-- featureloc -->
<g id="node2" class="node"><title>featureloc</title>
<polygon style="fill:white;stroke:black;" points="534,-1 534,-277 651,-277 651,-1 534,-1"/>
<text text-anchor="middle" x="592" y="-259" style="font-family:Nimbus Roman No9 L;font-weight:regular;font-size:11.34pt;">featureloc</text>
<polyline style="fill:none;stroke:black;" points="534,-249 651,-249 "/>
<text text-anchor="start" x="542" y="-231" style="font-family:Nimbus Roman No9 L;font-weight:regular;font-size:11.34pt;">&#45; featureloc_id </text>
<text text-anchor="start" x="542" y="-211" style="font-family:Nimbus Roman No9 L;font-weight:regular;font-size:11.34pt;">&#45; feature_id </text>
<text text-anchor="start" x="542" y="-191" style="font-family:Nimbus Roman No9 L;font-weight:regular;font-size:11.34pt;">&#45; srcfeature_id </text>
<text text-anchor="start" x="542" y="-171" style="font-family:Nimbus Roman No9 L;font-weight:regular;font-size:11.34pt;">&#45; fmin </text>
<text text-anchor="start" x="542" y="-151" style="font-family:Nimbus Roman No9 L;font-weight:regular;font-size:11.34pt;">&#45; is_fmin_partial </text>
<text text-anchor="start" x="542" y="-131" style="font-family:Nimbus Roman No9 L;font-weight:regular;font-size:11.34pt;">&#45; fmax </text>
<text text-anchor="start" x="542" y="-111" style="font-family:Nimbus Roman No9 L;font-weight:regular;font-size:11.34pt;">&#45; is_fmax_partial </text>
<text text-anchor="start" x="542" y="-91" style="font-family:Nimbus Roman No9 L;font-weight:regular;font-size:11.34pt;">&#45; strand </text>
<text text-anchor="start" x="542" y="-71" style="font-family:Nimbus Roman No9 L;font-weight:regular;font-size:11.34pt;">&#45; phase </text>
<text text-anchor="start" x="542" y="-51" style="font-family:Nimbus Roman No9 L;font-weight:regular;font-size:11.34pt;">&#45; residue_info </text>
<text text-anchor="start" x="542" y="-31" style="font-family:Nimbus Roman No9 L;font-weight:regular;font-size:11.34pt;">&#45; locgroup </text>
<text text-anchor="start" x="542" y="-11" style="font-family:Nimbus Roman No9 L;font-weight:regular;font-size:11.34pt;">&#45; rank </text>
</g>
<!-- feature&#45;&gt;featureloc -->
<g id="edge12" class="edge"><title>feature&#45;&gt;featureloc</title>
<path style="fill:none;stroke:black;" d="M581,-389C583,-355 584,-320 585,-287"/>
<polygon style="fill:black;stroke:black;" points="588.488,-287.299 586,-277 581.522,-286.602 588.488,-287.299"/>
</g>
<!-- feature_pub -->
<g id="node4" class="node"><title>feature_pub</title>
<polygon style="fill:white;stroke:black;" points="524,-754 524,-850 638,-850 638,-754 524,-754"/>
<text text-anchor="middle" x="581" y="-832" style="font-family:Nimbus Roman No9 L;font-weight:regular;font-size:11.34pt;">feature_pub</text>
<polyline style="fill:none;stroke:black;" points="524,-822 638,-822 "/>
<text text-anchor="start" x="532" y="-804" style="font-family:Nimbus Roman No9 L;font-weight:regular;font-size:11.34pt;">&#45; feature_pub_id </text>
<text text-anchor="start" x="532" y="-784" style="font-family:Nimbus Roman No9 L;font-weight:regular;font-size:11.34pt;">&#45; feature_id </text>
<text text-anchor="start" x="532" y="-764" style="font-family:Nimbus Roman No9 L;font-weight:regular;font-size:11.34pt;">&#45; pub_id </text>
</g>
<!-- feature&#45;&gt;feature_pub -->
<g id="edge6" class="edge"><title>feature&#45;&gt;feature_pub</title>
<path style="fill:none;stroke:black;" d="M578,-685C579,-706 579,-726 580,-744"/>
<polygon style="fill:black;stroke:black;" points="576.5,-744 580,-754 583.5,-744 576.5,-744"/>
</g>
<!-- featureprop -->
<g id="node6" class="node"><title>featureprop</title>
<polygon style="fill:white;stroke:black;" points="289,-540 289,-676 401,-676 401,-540 289,-540"/>
<text text-anchor="middle" x="345" y="-658" style="font-family:Nimbus Roman No9 L;font-weight:regular;font-size:11.34pt;">featureprop</text>
<polyline style="fill:none;stroke:black;" points="289,-648 401,-648 "/>
<text text-anchor="start" x="297" y="-630" style="font-family:Nimbus Roman No9 L;font-weight:regular;font-size:11.34pt;">&#45; featureprop_id </text>
<text text-anchor="start" x="297" y="-610" style="font-family:Nimbus Roman No9 L;font-weight:regular;font-size:11.34pt;">&#45; feature_id </text>
<text text-anchor="start" x="297" y="-590" style="font-family:Nimbus Roman No9 L;font-weight:regular;font-size:11.34pt;">&#45; type_id </text>
<text text-anchor="start" x="297" y="-570" style="font-family:Nimbus Roman No9 L;font-weight:regular;font-size:11.34pt;">&#45; value </text>
<text text-anchor="start" x="297" y="-550" style="font-family:Nimbus Roman No9 L;font-weight:regular;font-size:11.34pt;">&#45; rank </text>
</g>
<!-- feature&#45;&gt;featureprop -->
<g id="edge14" class="edge"><title>feature&#45;&gt;featureprop</title>
<path style="fill:none;stroke:black;" d="M512,-556C480,-566 443,-578 411,-587"/>
<polygon style="fill:black;stroke:black;" points="409.573,-583.774 401,-590 411.584,-590.479 409.573,-583.774"/>
</g>
<!-- feature_dbxref -->
<g id="node8" class="node"><title>feature_dbxref</title>
<polygon style="fill:white;stroke:black;" points="661,-308 661,-424 791,-424 791,-308 661,-308"/>
<text text-anchor="middle" x="726" y="-406" style="font-family:Nimbus Roman No9 L;font-weight:regular;font-size:11.34pt;">feature_dbxref</text>
<polyline style="fill:none;stroke:black;" points="661,-396 791,-396 "/>
<text text-anchor="start" x="669" y="-378" style="font-family:Nimbus Roman No9 L;font-weight:regular;font-size:11.34pt;">&#45; feature_dbxref_id </text>
<text text-anchor="start" x="669" y="-358" style="font-family:Nimbus Roman No9 L;font-weight:regular;font-size:11.34pt;">&#45; feature_id </text>
<text text-anchor="start" x="669" y="-338" style="font-family:Nimbus Roman No9 L;font-weight:regular;font-size:11.34pt;">&#45; dbxref_id </text>
<text text-anchor="start" x="669" y="-318" style="font-family:Nimbus Roman No9 L;font-weight:regular;font-size:11.34pt;">&#45; is_current </text>
</g>
<!-- feature&#45;&gt;feature_dbxref -->
<g id="edge4" class="edge"><title>feature&#45;&gt;feature_dbxref</title>
<path style="fill:none;stroke:black;" d="M636,-467C647,-456 657,-443 667,-432"/>
<polygon style="fill:black;stroke:black;" points="670.049,-433.831 674,-424 664.781,-429.221 670.049,-433.831"/>
</g>
<!-- feature_relationship -->
<g id="node9" class="node"><title>feature_relationship</title>
<polygon style="fill:white;stroke:black;" points="321,-283 321,-439 480,-439 480,-283 321,-283"/>
<text text-anchor="middle" x="400" y="-421" style="font-family:Nimbus Roman No9 L;font-weight:regular;font-size:11.34pt;">feature_relationship</text>
<polyline style="fill:none;stroke:black;" points="321,-411 480,-411 "/>
<text text-anchor="start" x="329" y="-393" style="font-family:Nimbus Roman No9 L;font-weight:regular;font-size:11.34pt;">&#45; feature_relationship_id </text>
<text text-anchor="start" x="329" y="-373" style="font-family:Nimbus Roman No9 L;font-weight:regular;font-size:11.34pt;">&#45; subject_id </text>
<text text-anchor="start" x="329" y="-353" style="font-family:Nimbus Roman No9 L;font-weight:regular;font-size:11.34pt;">&#45; object_id </text>
<text text-anchor="start" x="329" y="-333" style="font-family:Nimbus Roman No9 L;font-weight:regular;font-size:11.34pt;">&#45; type_id </text>
<text text-anchor="start" x="329" y="-313" style="font-family:Nimbus Roman No9 L;font-weight:regular;font-size:11.34pt;">&#45; value </text>
<text text-anchor="start" x="329" y="-293" style="font-family:Nimbus Roman No9 L;font-weight:regular;font-size:11.34pt;">&#45; rank </text>
</g>
<!-- feature&#45;&gt;feature_relationship -->
<g id="edge8" class="edge"><title>feature&#45;&gt;feature_relationship</title>
<path style="fill:none;stroke:black;" d="M512,-474C503,-465 494,-456 485,-447"/>
<polygon style="fill:black;stroke:black;" points="487.219,-444.221 478,-439 481.951,-448.831 487.219,-444.221"/>
</g>
<!-- feature_cvterm -->
<g id="node13" class="node"><title>feature_cvterm</title>
<polygon style="fill:white;stroke:black;" points="748,-529 748,-665 880,-665 880,-529 748,-529"/>
<text text-anchor="middle" x="814" y="-647" style="font-family:Nimbus Roman No9 L;font-weight:regular;font-size:11.34pt;">feature_cvterm</text>
<polyline style="fill:none;stroke:black;" points="748,-637 880,-637 "/>
<text text-anchor="start" x="756" y="-619" style="font-family:Nimbus Roman No9 L;font-weight:regular;font-size:11.34pt;">&#45; feature_cvterm_id </text>
<text text-anchor="start" x="756" y="-599" style="font-family:Nimbus Roman No9 L;font-weight:regular;font-size:11.34pt;">&#45; feature_id </text>
<text text-anchor="start" x="756" y="-579" style="font-family:Nimbus Roman No9 L;font-weight:regular;font-size:11.34pt;">&#45; cvterm_id </text>
<text text-anchor="start" x="756" y="-559" style="font-family:Nimbus Roman No9 L;font-weight:regular;font-size:11.34pt;">&#45; pub_id </text>
<text text-anchor="start" x="756" y="-539" style="font-family:Nimbus Roman No9 L;font-weight:regular;font-size:11.34pt;">&#45; is_not </text>
</g>
<!-- feature&#45;&gt;feature_cvterm -->
<g id="edge2" class="edge"><title>feature&#45;&gt;feature_cvterm</title>
<path style="fill:none;stroke:black;" d="M636,-553C667,-560 705,-570 738,-578"/>
<polygon style="fill:black;stroke:black;" points="737.508,-581.471 748,-580 738.881,-574.607 737.508,-581.471"/>
</g>
<!-- feature_synonym -->
<g id="node18" class="node"><title>feature_synonym</title>
<polygon style="fill:white;stroke:black;" points="960,-295 960,-451 1104,-451 1104,-295 960,-295"/>
<text text-anchor="middle" x="1032" y="-433" style="font-family:Nimbus Roman No9 L;font-weight:regular;font-size:11.34pt;">feature_synonym</text>
<polyline style="fill:none;stroke:black;" points="960,-423 1104,-423 "/>
<text text-anchor="start" x="968" y="-405" style="font-family:Nimbus Roman No9 L;font-weight:regular;font-size:11.34pt;">&#45; feature_synonym_id </text>
<text text-anchor="start" x="968" y="-385" style="font-family:Nimbus Roman No9 L;font-weight:regular;font-size:11.34pt;">&#45; synonym_id </text>
<text text-anchor="start" x="968" y="-365" style="font-family:Nimbus Roman No9 L;font-weight:regular;font-size:11.34pt;">&#45; feature_id </text>
<text text-anchor="start" x="968" y="-345" style="font-family:Nimbus Roman No9 L;font-weight:regular;font-size:11.34pt;">&#45; pub_id </text>
<text text-anchor="start" x="968" y="-325" style="font-family:Nimbus Roman No9 L;font-weight:regular;font-size:11.34pt;">&#45; is_current </text>
<text text-anchor="start" x="968" y="-305" style="font-family:Nimbus Roman No9 L;font-weight:regular;font-size:11.34pt;">&#45; is_internal </text>
</g>
<!-- feature&#45;&gt;feature_synonym -->
<g id="edge10" class="edge"><title>feature&#45;&gt;feature_synonym</title>
<path style="fill:none;stroke:black;" d="M636,-515C717,-486 860,-435 950,-402"/>
<polygon style="fill:black;stroke:black;" points="951.427,-405.226 960,-399 949.416,-398.521 951.427,-405.226"/>
</g>
<!-- featureloc_pub -->
<g id="node3" class="node"><title>featureloc_pub</title>
<polygon style="fill:white;stroke:black;" points="757,-79 757,-175 888,-175 888,-79 757,-79"/>
<text text-anchor="middle" x="822" y="-157" style="font-family:Nimbus Roman No9 L;font-weight:regular;font-size:11.34pt;">featureloc_pub</text>
<polyline style="fill:none;stroke:black;" points="757,-147 888,-147 "/>
<text text-anchor="start" x="765" y="-129" style="font-family:Nimbus Roman No9 L;font-weight:regular;font-size:11.34pt;">&#45; featureloc_pub_id </text>
<text text-anchor="start" x="765" y="-109" style="font-family:Nimbus Roman No9 L;font-weight:regular;font-size:11.34pt;">&#45; featureloc_id </text>
<text text-anchor="start" x="765" y="-89" style="font-family:Nimbus Roman No9 L;font-weight:regular;font-size:11.34pt;">&#45; pub_id </text>
</g>
<!-- featureloc&#45;&gt;featureloc_pub -->
<g id="edge30" class="edge"><title>featureloc&#45;&gt;featureloc_pub</title>
<path style="fill:none;stroke:black;" d="M651,-136C680,-134 715,-132 747,-131"/>
<polygon style="fill:black;stroke:black;" points="747.398,-134.478 757,-130 746.701,-127.512 747.398,-134.478"/>
</g>
<!-- feature_pubprop -->
<g id="node5" class="node"><title>feature_pubprop</title>
<polygon style="fill:white;stroke:black;" points="300,-797 300,-933 440,-933 440,-797 300,-797"/>
<text text-anchor="middle" x="370" y="-915" style="font-family:Nimbus Roman No9 L;font-weight:regular;font-size:11.34pt;">feature_pubprop</text>
<polyline style="fill:none;stroke:black;" points="300,-905 440,-905 "/>
<text text-anchor="start" x="308" y="-887" style="font-family:Nimbus Roman No9 L;font-weight:regular;font-size:11.34pt;">&#45; feature_pubprop_id </text>
<text text-anchor="start" x="308" y="-867" style="font-family:Nimbus Roman No9 L;font-weight:regular;font-size:11.34pt;">&#45; feature_pub_id </text>
<text text-anchor="start" x="308" y="-847" style="font-family:Nimbus Roman No9 L;font-weight:regular;font-size:11.34pt;">&#45; type_id </text>
<text text-anchor="start" x="308" y="-827" style="font-family:Nimbus Roman No9 L;font-weight:regular;font-size:11.34pt;">&#45; value </text>
<text text-anchor="start" x="308" y="-807" style="font-family:Nimbus Roman No9 L;font-weight:regular;font-size:11.34pt;">&#45; rank </text>
</g>
<!-- feature_pub&#45;&gt;feature_pubprop -->
<g id="edge22" class="edge"><title>feature_pub&#45;&gt;feature_pubprop</title>
<path style="fill:none;stroke:black;" d="M524,-819C501,-826 474,-834 450,-841"/>
<polygon style="fill:black;stroke:black;" points="448.573,-837.774 440,-844 450.584,-844.479 448.573,-837.774"/>
</g>
<!-- featureprop_pub -->
<g id="node7" class="node"><title>featureprop_pub</title>
<polygon style="fill:white;stroke:black;" points="36,-757 36,-853 176,-853 176,-757 36,-757"/>
<text text-anchor="middle" x="106" y="-835" style="font-family:Nimbus Roman No9 L;font-weight:regular;font-size:11.34pt;">featureprop_pub</text>
<polyline style="fill:none;stroke:black;" points="36,-825 176,-825 "/>
<text text-anchor="start" x="44" y="-807" style="font-family:Nimbus Roman No9 L;font-weight:regular;font-size:11.34pt;">&#45; featureprop_pub_id </text>
<text text-anchor="start" x="44" y="-787" style="font-family:Nimbus Roman No9 L;font-weight:regular;font-size:11.34pt;">&#45; featureprop_id </text>
<text text-anchor="start" x="44" y="-767" style="font-family:Nimbus Roman No9 L;font-weight:regular;font-size:11.34pt;">&#45; pub_id </text>
</g>
<!-- featureprop&#45;&gt;featureprop_pub -->
<g id="edge32" class="edge"><title>featureprop&#45;&gt;featureprop_pub</title>
<path style="fill:none;stroke:black;" d="M289,-654C254,-683 209,-720 172,-750"/>
<polygon style="fill:black;stroke:black;" points="169.221,-747.781 164,-757 173.831,-753.049 169.221,-747.781"/>
</g>
<!-- feature_relationship_pub -->
<g id="node10" class="node"><title>feature_relationship_pub</title>
<polygon style="fill:white;stroke:black;" points="271,-64 271,-160 458,-160 458,-64 271,-64"/>
<text text-anchor="middle" x="364" y="-142" style="font-family:Nimbus Roman No9 L;font-weight:regular;font-size:11.34pt;">feature_relationship_pub</text>
<polyline style="fill:none;stroke:black;" points="271,-132 458,-132 "/>
<text text-anchor="start" x="279" y="-114" style="font-family:Nimbus Roman No9 L;font-weight:regular;font-size:11.34pt;">&#45; feature_relationship_pub_id </text>
<text text-anchor="start" x="279" y="-94" style="font-family:Nimbus Roman No9 L;font-weight:regular;font-size:11.34pt;">&#45; feature_relationship_id </text>
<text text-anchor="start" x="279" y="-74" style="font-family:Nimbus Roman No9 L;font-weight:regular;font-size:11.34pt;">&#45; pub_id </text>
</g>
<!-- feature_relationship&#45;&gt;feature_relationship_pub -->
<g id="edge24" class="edge"><title>feature_relationship&#45;&gt;feature_relationship_pub</title>
<path style="fill:none;stroke:black;" d="M389,-283C384,-247 377,-204 372,-170"/>
<polygon style="fill:black;stroke:black;" points="375.478,-169.602 371,-160 368.512,-170.299 375.478,-169.602"/>
</g>
<!-- feature_relationshipprop -->
<g id="node11" class="node"><title>feature_relationshipprop</title>
<polygon style="fill:white;stroke:black;" points="20,-406 20,-542 205,-542 205,-406 20,-406"/>
<text text-anchor="middle" x="112" y="-524" style="font-family:Nimbus Roman No9 L;font-weight:regular;font-size:11.34pt;">feature_relationshipprop</text>
<polyline style="fill:none;stroke:black;" points="20,-514 205,-514 "/>
<text text-anchor="start" x="28" y="-496" style="font-family:Nimbus Roman No9 L;font-weight:regular;font-size:11.34pt;">&#45; feature_relationshipprop_id </text>
<text text-anchor="start" x="28" y="-476" style="font-family:Nimbus Roman No9 L;font-weight:regular;font-size:11.34pt;">&#45; feature_relationship_id </text>
<text text-anchor="start" x="28" y="-456" style="font-family:Nimbus Roman No9 L;font-weight:regular;font-size:11.34pt;">&#45; type_id </text>
<text text-anchor="start" x="28" y="-436" style="font-family:Nimbus Roman No9 L;font-weight:regular;font-size:11.34pt;">&#45; value </text>
<text text-anchor="start" x="28" y="-416" style="font-family:Nimbus Roman No9 L;font-weight:regular;font-size:11.34pt;">&#45; rank </text>
</g>
<!-- feature_relationship&#45;&gt;feature_relationshipprop -->
<g id="edge26" class="edge"><title>feature_relationship&#45;&gt;feature_relationshipprop</title>
<path style="fill:none;stroke:black;" d="M321,-392C288,-405 250,-420 214,-433"/>
<polygon style="fill:black;stroke:black;" points="212.717,-429.74 205,-437 215.56,-436.137 212.717,-429.74"/>
</g>
<!-- feature_relationshipprop_pub -->
<g id="node12" class="node"><title>feature_relationshipprop_pub</title>
<polygon style="fill:white;stroke:black;" points="4,-115 4,-211 217,-211 217,-115 4,-115"/>
<text text-anchor="middle" x="110" y="-193" style="font-family:Nimbus Roman No9 L;font-weight:regular;font-size:11.34pt;">feature_relationshipprop_pub</text>
<polyline style="fill:none;stroke:black;" points="4,-183 217,-183 "/>
<text text-anchor="start" x="12" y="-165" style="font-family:Nimbus Roman No9 L;font-weight:regular;font-size:11.34pt;">&#45; feature_relationshipprop_pub_id </text>
<text text-anchor="start" x="12" y="-145" style="font-family:Nimbus Roman No9 L;font-weight:regular;font-size:11.34pt;">&#45; feature_relationshipprop_id </text>
<text text-anchor="start" x="12" y="-125" style="font-family:Nimbus Roman No9 L;font-weight:regular;font-size:11.34pt;">&#45; pub_id </text>
</g>
<!-- feature_relationshipprop&#45;&gt;feature_relationshipprop_pub -->
<g id="edge28" class="edge"><title>feature_relationshipprop&#45;&gt;feature_relationshipprop_pub</title>
<path style="fill:none;stroke:black;" d="M112,-406C111,-351 111,-273 110,-221"/>
<polygon style="fill:black;stroke:black;" points="113.5,-221 110,-211 106.5,-221 113.5,-221"/>
</g>
<!-- feature_cvtermprop -->
<g id="node14" class="node"><title>feature_cvtermprop</title>
<polygon style="fill:white;stroke:black;" points="986,-776 986,-912 1144,-912 1144,-776 986,-776"/>
<text text-anchor="middle" x="1065" y="-894" style="font-family:Nimbus Roman No9 L;font-weight:regular;font-size:11.34pt;">feature_cvtermprop</text>
<polyline style="fill:none;stroke:black;" points="986,-884 1144,-884 "/>
<text text-anchor="start" x="994" y="-866" style="font-family:Nimbus Roman No9 L;font-weight:regular;font-size:11.34pt;">&#45; feature_cvtermprop_id </text>
<text text-anchor="start" x="994" y="-846" style="font-family:Nimbus Roman No9 L;font-weight:regular;font-size:11.34pt;">&#45; feature_cvterm_id </text>
<text text-anchor="start" x="994" y="-826" style="font-family:Nimbus Roman No9 L;font-weight:regular;font-size:11.34pt;">&#45; type_id </text>
<text text-anchor="start" x="994" y="-806" style="font-family:Nimbus Roman No9 L;font-weight:regular;font-size:11.34pt;">&#45; value </text>
<text text-anchor="start" x="994" y="-786" style="font-family:Nimbus Roman No9 L;font-weight:regular;font-size:11.34pt;">&#45; rank </text>
</g>
<!-- feature_cvterm&#45;&gt;feature_cvtermprop -->
<g id="edge20" class="edge"><title>feature_cvterm&#45;&gt;feature_cvtermprop</title>
<path style="fill:none;stroke:black;" d="M880,-662C914,-695 954,-734 989,-769"/>
<polygon style="fill:black;stroke:black;" points="986.454,-771.404 996,-776 991.404,-766.454 986.454,-771.404"/>
</g>
<!-- feature_cvterm_dbxref -->
<g id="node15" class="node"><title>feature_cvterm_dbxref</title>
<polygon style="fill:white;stroke:black;" points="703,-809 703,-905 879,-905 879,-809 703,-809"/>
<text text-anchor="middle" x="791" y="-887" style="font-family:Nimbus Roman No9 L;font-weight:regular;font-size:11.34pt;">feature_cvterm_dbxref</text>
<polyline style="fill:none;stroke:black;" points="703,-877 879,-877 "/>
<text text-anchor="start" x="711" y="-859" style="font-family:Nimbus Roman No9 L;font-weight:regular;font-size:11.34pt;">&#45; feature_cvterm_dbxref_id </text>
<text text-anchor="start" x="711" y="-839" style="font-family:Nimbus Roman No9 L;font-weight:regular;font-size:11.34pt;">&#45; feature_cvterm_id </text>
<text text-anchor="start" x="711" y="-819" style="font-family:Nimbus Roman No9 L;font-weight:regular;font-size:11.34pt;">&#45; dbxref_id </text>
</g>
<!-- feature_cvterm&#45;&gt;feature_cvterm_dbxref -->
<g id="edge16" class="edge"><title>feature_cvterm&#45;&gt;feature_cvterm_dbxref</title>
<path style="fill:none;stroke:black;" d="M808,-665C804,-706 800,-759 796,-799"/>
<polygon style="fill:black;stroke:black;" points="792.512,-798.701 795,-809 799.478,-799.398 792.512,-798.701"/>
</g>
<!-- feature_cvterm_pub -->
<g id="node16" class="node"><title>feature_cvterm_pub</title>
<polygon style="fill:white;stroke:black;" points="1005,-540 1005,-636 1165,-636 1165,-540 1005,-540"/>
<text text-anchor="middle" x="1085" y="-618" style="font-family:Nimbus Roman No9 L;font-weight:regular;font-size:11.34pt;">feature_cvterm_pub</text>
<polyline style="fill:none;stroke:black;" points="1005,-608 1165,-608 "/>
<text text-anchor="start" x="1013" y="-590" style="font-family:Nimbus Roman No9 L;font-weight:regular;font-size:11.34pt;">&#45; feature_cvterm_pub_id </text>
<text text-anchor="start" x="1013" y="-570" style="font-family:Nimbus Roman No9 L;font-weight:regular;font-size:11.34pt;">&#45; feature_cvterm_id </text>
<text text-anchor="start" x="1013" y="-550" style="font-family:Nimbus Roman No9 L;font-weight:regular;font-size:11.34pt;">&#45; pub_id </text>
</g>
<!-- feature_cvterm&#45;&gt;feature_cvterm_pub -->
<g id="edge18" class="edge"><title>feature_cvterm&#45;&gt;feature_cvterm_pub</title>
<path style="fill:none;stroke:black;" d="M880,-595C915,-594 957,-592 995,-591"/>
<polygon style="fill:black;stroke:black;" points="995,-594.5 1005,-591 995,-587.5 995,-594.5"/>
</g>
<!-- synonym -->
<g id="node17" class="node"><title>synonym</title>
<polygon style="fill:white;stroke:black;" points="1026,-73 1026,-189 1140,-189 1140,-73 1026,-73"/>
<text text-anchor="middle" x="1083" y="-171" style="font-family:Nimbus Roman No9 L;font-weight:regular;font-size:11.34pt;">synonym</text>
<polyline style="fill:none;stroke:black;" points="1026,-161 1140,-161 "/>
<text text-anchor="start" x="1034" y="-143" style="font-family:Nimbus Roman No9 L;font-weight:regular;font-size:11.34pt;">&#45; synonym_id </text>
<text text-anchor="start" x="1034" y="-123" style="font-family:Nimbus Roman No9 L;font-weight:regular;font-size:11.34pt;">&#45; name </text>
<text text-anchor="start" x="1034" y="-103" style="font-family:Nimbus Roman No9 L;font-weight:regular;font-size:11.34pt;">&#45; type_id </text>
<text text-anchor="start" x="1034" y="-83" style="font-family:Nimbus Roman No9 L;font-weight:regular;font-size:11.34pt;">&#45; synonym_sgml </text>
</g>
<!-- synonym&#45;&gt;feature_synonym -->
<g id="edge34" class="edge"><title>synonym&#45;&gt;feature_synonym</title>
<path style="fill:none;stroke:black;" d="M1071,-189C1065,-218 1057,-253 1051,-285"/>
<polygon style="fill:black;stroke:black;" points="1047.53,-284.508 1049,-295 1054.39,-285.881 1047.53,-284.508"/>
</g>
</g>
</svg>
