<?xml version="1.0" encoding="UTF-8" standalone="no"?>
<!DOCTYPE svg PUBLIC "-//W3C//DTD SVG 1.0//EN"
 "http://www.w3.org/TR/2001/REC-SVG-20010904/DTD/svg10.dtd">
<!-- Generated by neato version 1.10 (Tue Nov 11 16:12:26 EST 2003)
     For user: (allenday) Allen Day   Title: test    Pages: 1 -->
<svg width="974px" height="783px"
 viewBox = "-1 -1 730 587"
 xmlns="http://www.w3.org/2000/svg">
<g id="graph0" class="graph" transform = "scale(0.868778)"
 style="font-family:Times-Roman;font-size:14.00;">
<title>test</title>
<polygon style="fill:white;stroke:white;" points="0,673 0,0 838,0 838,673 0,673"/>
<g id="node1" class="node"><title>feature</title>
<polygon style="fill:white;stroke:black;" points="357,365 486,365 486,149 357,149 357,365"/>
<text text-anchor="middle" x="421" y="164">feature</text>
<polyline style="fill:none;stroke:black;" points="357,169 486,169 "/>
<text text-anchor="start" x="357" y="184">feature_id</text>
<text text-anchor="start" x="357" y="200">dbxref_id</text>
<text text-anchor="start" x="357" y="216">organism_id</text>
<text text-anchor="start" x="357" y="232">name</text>
<text text-anchor="start" x="357" y="248">uniquename</text>
<text text-anchor="start" x="357" y="264">residues</text>
<text text-anchor="start" x="357" y="280">seqlen</text>
<text text-anchor="start" x="357" y="296">md5checksum</text>
<text text-anchor="start" x="357" y="312">type_id</text>
<text text-anchor="start" x="357" y="328">is_analysis</text>
<text text-anchor="start" x="357" y="344">timeaccessioned</text>
<text text-anchor="middle" x="421" y="360">timelastmodified</text>
</g>
<g id="node2" class="node"><title>featureloc</title>
<polygon style="fill:white;stroke:black;" points="658,430 784,430 784,214 658,214 658,430"/>
<text text-anchor="middle" x="721" y="229">featureloc</text>
<polyline style="fill:none;stroke:black;" points="658,234 784,234 "/>
<text text-anchor="start" x="658" y="249">featureloc_id</text>
<text text-anchor="start" x="658" y="265">feature_id</text>
<text text-anchor="start" x="658" y="281">srcfeature_id</text>
<text text-anchor="start" x="658" y="297">fmin</text>
<text text-anchor="start" x="658" y="313">is_fmin_partial</text>
<text text-anchor="start" x="658" y="329">fmax</text>
<text text-anchor="start" x="658" y="345">is_fmax_partial</text>
<text text-anchor="start" x="658" y="361">strand</text>
<text text-anchor="start" x="658" y="377">phase</text>
<text text-anchor="start" x="658" y="393">residue_info</text>
<text text-anchor="start" x="658" y="409">locgroup</text>
<text text-anchor="middle" x="721" y="425">rank</text>
</g>
<g id="edge12" class="edge"><title>feature-&gt;featureloc</title>
<path style="fill:none;stroke:black;" d="M486,271C540,282 595,295 650,307"/>
<polygon style="fill:black;stroke:black;" points="649,304 658,309 648,309 649,304"/>
</g>
<g id="node3" class="node"><title>feature_pub</title>
<polygon style="fill:white;stroke:black;" points="72,612 195,612 195,540 72,540 72,612"/>
<text text-anchor="middle" x="133" y="555">feature_pub</text>
<polyline style="fill:none;stroke:black;" points="72,560 195,560 "/>
<text text-anchor="start" x="72" y="575">feature_pub_id</text>
<text text-anchor="start" x="72" y="591">feature_id</text>
<text text-anchor="middle" x="133" y="607">pub_id</text>
</g>
<g id="edge6" class="edge"><title>feature-&gt;feature_pub</title>
<path style="fill:none;stroke:black;" d="M356,329C295,397 233,465 173,533"/>
<polygon style="fill:black;stroke:black;" points="175,535 166,540 171,531 175,535"/>
</g>
<g id="node4" class="node"><title>featureprop</title>
<polygon style="fill:white;stroke:black;" points="374,110 492,110 492,6 374,6 374,110"/>
<text text-anchor="middle" x="433" y="21">featureprop</text>
<polyline style="fill:none;stroke:black;" points="374,26 492,26 "/>
<text text-anchor="start" x="374" y="41">featureprop_id</text>
<text text-anchor="start" x="374" y="57">feature_id</text>
<text text-anchor="start" x="374" y="73">type_id</text>
<text text-anchor="start" x="374" y="89">value</text>
<text text-anchor="middle" x="433" y="105">rank</text>
</g>
<g id="edge14" class="edge"><title>feature-&gt;featureprop</title>
<path style="fill:none;stroke:black;" d="M428,149C428,139 429,129 429,119"/>
<polygon style="fill:black;stroke:black;" points="426,120 430,110 431,120 426,120"/>
</g>
<g id="node6" class="node"><title>feature_dbxref</title>
<polygon style="fill:white;stroke:black;" points="68,123 212,123 212,35 68,35 68,123"/>
<text text-anchor="middle" x="140" y="50">feature_dbxref</text>
<polyline style="fill:none;stroke:black;" points="68,55 212,55 "/>
<text text-anchor="start" x="68" y="70">feature_dbxref_id</text>
<text text-anchor="start" x="68" y="86">feature_id</text>
<text text-anchor="start" x="68" y="102">dbxref_id</text>
<text text-anchor="middle" x="140" y="118">is_current</text>
</g>
<g id="edge4" class="edge"><title>feature-&gt;feature_dbxref</title>
<path style="fill:none;stroke:black;" d="M356,216C310,187 265,158 219,128"/>
<polygon style="fill:black;stroke:black;" points="218,130 210,123 220,126 218,130"/>
</g>
<g id="node7" class="node"><title>feature_relationship</title>
<polygon style="fill:white;stroke:black;" points="45,378 221,378 221,274 45,274 45,378"/>
<text text-anchor="middle" x="133" y="289">feature_relationship</text>
<polyline style="fill:none;stroke:black;" points="45,294 221,294 "/>
<text text-anchor="start" x="45" y="309">feature_relationship_id</text>
<text text-anchor="start" x="45" y="325">subject_id</text>
<text text-anchor="start" x="45" y="341">object_id</text>
<text text-anchor="start" x="45" y="357">type_id</text>
<text text-anchor="middle" x="133" y="373">rank</text>
</g>
<g id="edge8" class="edge"><title>feature-&gt;feature_relationship</title>
<path style="fill:none;stroke:black;" d="M356,272C314,282 273,292 231,303"/>
<polygon style="fill:black;stroke:black;" points="231,305 221,305 230,301 231,305"/>
</g>
<g id="node8" class="node"><title>feature_cvterm</title>
<polygon style="fill:white;stroke:black;" points="654,618 799,618 799,530 654,530 654,618"/>
<text text-anchor="middle" x="726" y="545">feature_cvterm</text>
<polyline style="fill:none;stroke:black;" points="654,550 799,550 "/>
<text text-anchor="start" x="654" y="565">feature_cvterm_id</text>
<text text-anchor="start" x="654" y="581">feature_id</text>
<text text-anchor="start" x="654" y="597">cvterm_id</text>
<text text-anchor="middle" x="726" y="613">pub_id</text>
</g>
<g id="edge2" class="edge"><title>feature-&gt;feature_cvterm</title>
<path style="fill:none;stroke:black;" d="M486,324C550,390 613,456 677,523"/>
<polygon style="fill:black;stroke:black;" points="679,521 684,530 675,525 679,521"/>
</g>
<g id="node10" class="node"><title>feature_synonym</title>
<polygon style="fill:white;stroke:black;" points="351,491 513,491 513,371 351,371 351,491"/>
<text text-anchor="middle" x="432" y="386">feature_synonym</text>
<polyline style="fill:none;stroke:black;" points="351,391 513,391 "/>
<text text-anchor="start" x="351" y="406">feature_synonym_id</text>
<text text-anchor="start" x="351" y="422">synonym_id</text>
<text text-anchor="start" x="351" y="438">feature_id</text>
<text text-anchor="start" x="351" y="454">pub_id</text>
<text text-anchor="start" x="351" y="470">is_current</text>
<text text-anchor="middle" x="432" y="486">is_internal</text>
</g>
<g id="edge10" class="edge"><title>feature-&gt;feature_synonym</title>
<path style="fill:none;stroke:black;" d="M428,365C428,365 428,365 428,365"/>
<polygon style="fill:black;stroke:black;" points="431,361 428,371 426,361 431,361"/>
</g>
<g id="node5" class="node"><title>featureprop_pub</title>
<polygon style="fill:white;stroke:black;" points="643,116 799,116 799,44 643,44 643,116"/>
<text text-anchor="middle" x="721" y="59">featureprop_pub</text>
<polyline style="fill:none;stroke:black;" points="643,64 799,64 "/>
<text text-anchor="start" x="643" y="79">featureprop_pub_id</text>
<text text-anchor="start" x="643" y="95">featureprop_id</text>
<text text-anchor="middle" x="721" y="111">pub_id</text>
</g>
<g id="edge16" class="edge"><title>featureprop-&gt;featureprop_pub</title>
<path style="fill:none;stroke:black;" d="M492,62C539,66 586,70 634,73"/>
<polygon style="fill:black;stroke:black;" points="633,70 643,74 633,75 633,70"/>
</g>
<g id="node9" class="node"><title>synonym</title>
<polygon style="fill:white;stroke:black;" points="369,667 491,667 491,579 369,579 369,667"/>
<text text-anchor="middle" x="430" y="594">synonym</text>
<polyline style="fill:none;stroke:black;" points="369,599 491,599 "/>
<text text-anchor="start" x="369" y="614">synonym_id</text>
<text text-anchor="start" x="369" y="630">name</text>
<text text-anchor="start" x="369" y="646">type_id</text>
<text text-anchor="middle" x="430" y="662">synonym_sgml</text>
</g>
<g id="edge18" class="edge"><title>synonym-&gt;feature_synonym</title>
<path style="fill:none;stroke:black;" d="M430,579C431,552 431,526 432,500"/>
<polygon style="fill:black;stroke:black;" points="430,501 432,491 435,501 430,501"/>
</g>
</g></svg>
