<?xml version="1.0" encoding="UTF-8" standalone="no"?>
<!DOCTYPE svg PUBLIC "-//W3C//DTD SVG 1.0//EN"
 "http://www.w3.org/TR/2001/REC-SVG-20010904/DTD/svg10.dtd" [
 <!ATTLIST svg xmlns:xlink CDATA #FIXED "http://www.w3.org/1999/xlink">
]>
<!-- Generated by Graphviz version 2.16 (Fri Feb  8 12:52:03 UTC 2008)
     For user: (scott) Scott Cain,,, -->
<!-- Title: test Pages: 1 -->
<svg width="719pt" height="576pt"
 viewBox="0.00 0.00 718.75 576.00" xmlns="http://www.w3.org/2000/svg" xmlns:xlink="http://www.w3.org/1999/xlink">
<g id="graph0" class="graph" transform="scale(0.623377 0.623377) rotate(0) translate(4 920)">
<title>test</title>
<polygon style="fill:white;stroke:white;" points="-4,4 -4,-920 1149.4,-920 1149.4,4 -4,4"/>
<!-- feature -->
<g id="node1" class="node"><title>feature</title>
<polygon style="fill:white;stroke:black;" points="507,-448 507,-696 627,-696 627,-448 507,-448"/>
<text text-anchor="middle" x="567" y="-678.65" style="font-family:Times New Roman;font-size:14.00;">feature</text>
<polyline style="fill:none;stroke:black;" points="507,-671 627,-671 "/>
<text text-anchor="start" x="515.25" y="-653.65" style="font-family:Times New Roman;font-size:14.00;">&#45; feature_id </text>
<text text-anchor="start" x="515.25" y="-637.15" style="font-family:Times New Roman;font-size:14.00;">&#45; dbxref_id </text>
<text text-anchor="start" x="515.25" y="-620.65" style="font-family:Times New Roman;font-size:14.00;">&#45; organism_id </text>
<text text-anchor="start" x="515.25" y="-604.15" style="font-family:Times New Roman;font-size:14.00;">&#45; name </text>
<text text-anchor="start" x="515.25" y="-587.65" style="font-family:Times New Roman;font-size:14.00;">&#45; uniquename </text>
<text text-anchor="start" x="515.25" y="-571.15" style="font-family:Times New Roman;font-size:14.00;">&#45; residues </text>
<text text-anchor="start" x="515.25" y="-554.65" style="font-family:Times New Roman;font-size:14.00;">&#45; seqlen </text>
<text text-anchor="start" x="515.25" y="-538.15" style="font-family:Times New Roman;font-size:14.00;">&#45; md5checksum </text>
<text text-anchor="start" x="515.25" y="-521.65" style="font-family:Times New Roman;font-size:14.00;">&#45; type_id </text>
<text text-anchor="start" x="515.25" y="-505.15" style="font-family:Times New Roman;font-size:14.00;">&#45; is_analysis </text>
<text text-anchor="start" x="515.25" y="-488.65" style="font-family:Times New Roman;font-size:14.00;">&#45; is_obsolete </text>
<text text-anchor="start" x="515.25" y="-472.15" style="font-family:Times New Roman;font-size:14.00;">&#45; timeaccessioned </text>
<text text-anchor="start" x="515.25" y="-455.65" style="font-family:Times New Roman;font-size:14.00;">&#45; timelastmodified </text>
</g>
<!-- featureloc -->
<g id="node2" class="node"><title>featureloc</title>
<polygon style="fill:white;stroke:black;" points="516,-10 516,-241 630,-241 630,-10 516,-10"/>
<text text-anchor="middle" x="573" y="-223.65" style="font-family:Times New Roman;font-size:14.00;">featureloc</text>
<polyline style="fill:none;stroke:black;" points="516,-216 630,-216 "/>
<text text-anchor="start" x="524.25" y="-199.4" style="font-family:Times New Roman;font-size:14.00;">&#45; featureloc_id </text>
<text text-anchor="start" x="524.25" y="-182.9" style="font-family:Times New Roman;font-size:14.00;">&#45; feature_id </text>
<text text-anchor="start" x="524.25" y="-166.4" style="font-family:Times New Roman;font-size:14.00;">&#45; srcfeature_id </text>
<text text-anchor="start" x="524.25" y="-149.9" style="font-family:Times New Roman;font-size:14.00;">&#45; fmin </text>
<text text-anchor="start" x="524.25" y="-133.4" style="font-family:Times New Roman;font-size:14.00;">&#45; is_fmin_partial </text>
<text text-anchor="start" x="524.25" y="-116.9" style="font-family:Times New Roman;font-size:14.00;">&#45; fmax </text>
<text text-anchor="start" x="524.25" y="-100.4" style="font-family:Times New Roman;font-size:14.00;">&#45; is_fmax_partial </text>
<text text-anchor="start" x="524.25" y="-83.9" style="font-family:Times New Roman;font-size:14.00;">&#45; strand </text>
<text text-anchor="start" x="524.25" y="-67.4" style="font-family:Times New Roman;font-size:14.00;">&#45; phase </text>
<text text-anchor="start" x="524.25" y="-50.9" style="font-family:Times New Roman;font-size:14.00;">&#45; residue_info </text>
<text text-anchor="start" x="524.25" y="-34.4" style="font-family:Times New Roman;font-size:14.00;">&#45; locgroup </text>
<text text-anchor="start" x="524.25" y="-17.9" style="font-family:Times New Roman;font-size:14.00;">&#45; rank </text>
</g>
<!-- feature&#45;&gt;featureloc -->
<g id="edge12" class="edge"><title>feature&#45;&gt;featureloc</title>
<path style="fill:none;stroke:black;" d="M569,-448C569,-386 570,-313 571,-251"/>
<polygon style="fill:black;stroke:black;" points="574.5,-251 571,-241 567.5,-251 574.5,-251"/>
</g>
<!-- feature_pub -->
<g id="node4" class="node"><title>feature_pub</title>
<polygon style="fill:white;stroke:black;" points="507,-785 507,-868 620,-868 620,-785 507,-785"/>
<text text-anchor="middle" x="563" y="-850.65" style="font-family:Times New Roman;font-size:14.00;">feature_pub</text>
<polyline style="fill:none;stroke:black;" points="507,-843 620,-843 "/>
<text text-anchor="start" x="514.625" y="-826.15" style="font-family:Times New Roman;font-size:14.00;">&#45; feature_pub_id </text>
<text text-anchor="start" x="514.625" y="-809.65" style="font-family:Times New Roman;font-size:14.00;">&#45; feature_id </text>
<text text-anchor="start" x="514.625" y="-793.15" style="font-family:Times New Roman;font-size:14.00;">&#45; pub_id </text>
</g>
<!-- feature&#45;&gt;feature_pub -->
<g id="edge6" class="edge"><title>feature&#45;&gt;feature_pub</title>
<path style="fill:none;stroke:black;" d="M565,-696C565,-724 564,-752 564,-775"/>
<polygon style="fill:black;stroke:black;" points="560.5,-775 564,-785 567.5,-775 560.5,-775"/>
</g>
<!-- featureprop -->
<g id="node6" class="node"><title>featureprop</title>
<polygon style="fill:white;stroke:black;" points="286,-539 286,-655 397,-655 397,-539 286,-539"/>
<text text-anchor="middle" x="341" y="-637.65" style="font-family:Times New Roman;font-size:14.00;">featureprop</text>
<polyline style="fill:none;stroke:black;" points="286,-630 397,-630 "/>
<text text-anchor="start" x="293.75" y="-612.65" style="font-family:Times New Roman;font-size:14.00;">&#45; featureprop_id </text>
<text text-anchor="start" x="293.75" y="-596.15" style="font-family:Times New Roman;font-size:14.00;">&#45; feature_id </text>
<text text-anchor="start" x="293.75" y="-579.65" style="font-family:Times New Roman;font-size:14.00;">&#45; type_id </text>
<text text-anchor="start" x="293.75" y="-563.15" style="font-family:Times New Roman;font-size:14.00;">&#45; value </text>
<text text-anchor="start" x="293.75" y="-546.65" style="font-family:Times New Roman;font-size:14.00;">&#45; rank </text>
</g>
<!-- feature&#45;&gt;featureprop -->
<g id="edge14" class="edge"><title>feature&#45;&gt;featureprop</title>
<path style="fill:none;stroke:black;" d="M507,-579C476,-583 439,-586 407,-590"/>
<polygon style="fill:black;stroke:black;" points="406.602,-586.522 397,-591 407.299,-593.488 406.602,-586.522"/>
</g>
<!-- feature_dbxref -->
<g id="node8" class="node"><title>feature_dbxref</title>
<polygon style="fill:white;stroke:black;" points="584,-316 584,-415 712,-415 712,-316 584,-316"/>
<text text-anchor="middle" x="648" y="-397.65" style="font-family:Times New Roman;font-size:14.00;">feature_dbxref</text>
<polyline style="fill:none;stroke:black;" points="584,-390 712,-390 "/>
<text text-anchor="start" x="592.125" y="-373.4" style="font-family:Times New Roman;font-size:14.00;">&#45; feature_dbxref_id </text>
<text text-anchor="start" x="592.125" y="-356.9" style="font-family:Times New Roman;font-size:14.00;">&#45; feature_id </text>
<text text-anchor="start" x="592.125" y="-340.4" style="font-family:Times New Roman;font-size:14.00;">&#45; dbxref_id </text>
<text text-anchor="start" x="592.125" y="-323.9" style="font-family:Times New Roman;font-size:14.00;">&#45; is_current </text>
</g>
<!-- feature&#45;&gt;feature_dbxref -->
<g id="edge4" class="edge"><title>feature&#45;&gt;feature_dbxref</title>
<path style="fill:none;stroke:black;" d="M616,-448C619,-440 622,-432 625,-425"/>
<polygon style="fill:black;stroke:black;" points="628.536,-425.585 629,-415 622.036,-422.985 628.536,-425.585"/>
</g>
<!-- feature_relationship -->
<g id="node9" class="node"><title>feature_relationship</title>
<polygon style="fill:white;stroke:black;" points="319,-300 319,-432 474,-432 474,-300 319,-300"/>
<text text-anchor="middle" x="396" y="-414.65" style="font-family:Times New Roman;font-size:14.00;">feature_relationship</text>
<polyline style="fill:none;stroke:black;" points="319,-407 474,-407 "/>
<text text-anchor="start" x="326.625" y="-389.9" style="font-family:Times New Roman;font-size:14.00;">&#45; feature_relationship_id </text>
<text text-anchor="start" x="326.625" y="-373.4" style="font-family:Times New Roman;font-size:14.00;">&#45; subject_id </text>
<text text-anchor="start" x="326.625" y="-356.9" style="font-family:Times New Roman;font-size:14.00;">&#45; object_id </text>
<text text-anchor="start" x="326.625" y="-340.4" style="font-family:Times New Roman;font-size:14.00;">&#45; type_id </text>
<text text-anchor="start" x="326.625" y="-323.9" style="font-family:Times New Roman;font-size:14.00;">&#45; value </text>
<text text-anchor="start" x="326.625" y="-307.4" style="font-family:Times New Roman;font-size:14.00;">&#45; rank </text>
</g>
<!-- feature&#45;&gt;feature_relationship -->
<g id="edge8" class="edge"><title>feature&#45;&gt;feature_relationship</title>
<path style="fill:none;stroke:black;" d="M507,-500C491,-481 474,-460 457,-440"/>
<polygon style="fill:black;stroke:black;" points="459.8,-437.9 451,-432 454.2,-442.1 459.8,-437.9"/>
</g>
<!-- feature_cvterm -->
<g id="node13" class="node"><title>feature_cvterm</title>
<polygon style="fill:white;stroke:black;" points="736,-533 736,-665 865,-665 865,-533 736,-533"/>
<text text-anchor="middle" x="800" y="-647.65" style="font-family:Times New Roman;font-size:14.00;">feature_cvterm</text>
<polyline style="fill:none;stroke:black;" points="736,-640 865,-640 "/>
<text text-anchor="start" x="743.375" y="-622.9" style="font-family:Times New Roman;font-size:14.00;">&#45; feature_cvterm_id </text>
<text text-anchor="start" x="743.375" y="-606.4" style="font-family:Times New Roman;font-size:14.00;">&#45; feature_id </text>
<text text-anchor="start" x="743.375" y="-589.9" style="font-family:Times New Roman;font-size:14.00;">&#45; cvterm_id </text>
<text text-anchor="start" x="743.375" y="-573.4" style="font-family:Times New Roman;font-size:14.00;">&#45; pub_id </text>
<text text-anchor="start" x="743.375" y="-556.9" style="font-family:Times New Roman;font-size:14.00;">&#45; is_not </text>
<text text-anchor="start" x="743.375" y="-540.4" style="font-family:Times New Roman;font-size:14.00;">&#45; rank </text>
</g>
<!-- feature&#45;&gt;feature_cvterm -->
<g id="edge2" class="edge"><title>feature&#45;&gt;feature_cvterm</title>
<path style="fill:none;stroke:black;" d="M627,-579C657,-583 694,-587 726,-591"/>
<polygon style="fill:black;stroke:black;" points="725.701,-594.488 736,-592 726.398,-587.522 725.701,-594.488"/>
</g>
<!-- feature_synonym -->
<g id="node18" class="node"><title>feature_synonym</title>
<polygon style="fill:white;stroke:black;" points="795,-301 795,-433 937,-433 937,-301 795,-301"/>
<text text-anchor="middle" x="866" y="-415.65" style="font-family:Times New Roman;font-size:14.00;">feature_synonym</text>
<polyline style="fill:none;stroke:black;" points="795,-408 937,-408 "/>
<text text-anchor="start" x="803" y="-390.9" style="font-family:Times New Roman;font-size:14.00;">&#45; feature_synonym_id </text>
<text text-anchor="start" x="803" y="-374.4" style="font-family:Times New Roman;font-size:14.00;">&#45; synonym_id </text>
<text text-anchor="start" x="803" y="-357.9" style="font-family:Times New Roman;font-size:14.00;">&#45; feature_id </text>
<text text-anchor="start" x="803" y="-341.4" style="font-family:Times New Roman;font-size:14.00;">&#45; pub_id </text>
<text text-anchor="start" x="803" y="-324.9" style="font-family:Times New Roman;font-size:14.00;">&#45; is_current </text>
<text text-anchor="start" x="803" y="-308.4" style="font-family:Times New Roman;font-size:14.00;">&#45; is_internal </text>
</g>
<!-- feature&#45;&gt;feature_synonym -->
<g id="edge10" class="edge"><title>feature&#45;&gt;feature_synonym</title>
<path style="fill:none;stroke:black;" d="M627,-531C672,-500 737,-456 786,-422"/>
<polygon style="fill:black;stroke:black;" points="788.621,-424.459 795,-416 784.738,-418.635 788.621,-424.459"/>
</g>
<!-- featureloc_pub -->
<g id="node3" class="node"><title>featureloc_pub</title>
<polygon style="fill:white;stroke:black;" points="734,-73 734,-156 864,-156 864,-73 734,-73"/>
<text text-anchor="middle" x="799" y="-138.65" style="font-family:Times New Roman;font-size:14.00;">featureloc_pub</text>
<polyline style="fill:none;stroke:black;" points="734,-131 864,-131 "/>
<text text-anchor="start" x="742" y="-114.15" style="font-family:Times New Roman;font-size:14.00;">&#45; featureloc_pub_id </text>
<text text-anchor="start" x="742" y="-97.65" style="font-family:Times New Roman;font-size:14.00;">&#45; featureloc_id </text>
<text text-anchor="start" x="742" y="-81.15" style="font-family:Times New Roman;font-size:14.00;">&#45; pub_id </text>
</g>
<!-- featureloc&#45;&gt;featureloc_pub -->
<g id="edge30" class="edge"><title>featureloc&#45;&gt;featureloc_pub</title>
<path style="fill:none;stroke:black;" d="M630,-123C659,-122 693,-120 724,-119"/>
<polygon style="fill:black;stroke:black;" points="724.398,-122.478 734,-118 723.701,-115.512 724.398,-122.478"/>
</g>
<!-- feature_pubprop -->
<g id="node5" class="node"><title>feature_pubprop</title>
<polygon style="fill:white;stroke:black;" points="277,-794 277,-910 417,-910 417,-794 277,-794"/>
<text text-anchor="middle" x="347" y="-892.65" style="font-family:Times New Roman;font-size:14.00;">feature_pubprop</text>
<polyline style="fill:none;stroke:black;" points="277,-885 417,-885 "/>
<text text-anchor="start" x="285.125" y="-867.65" style="font-family:Times New Roman;font-size:14.00;">&#45; feature_pubprop_id </text>
<text text-anchor="start" x="285.125" y="-851.15" style="font-family:Times New Roman;font-size:14.00;">&#45; feature_pub_id </text>
<text text-anchor="start" x="285.125" y="-834.65" style="font-family:Times New Roman;font-size:14.00;">&#45; type_id </text>
<text text-anchor="start" x="285.125" y="-818.15" style="font-family:Times New Roman;font-size:14.00;">&#45; value </text>
<text text-anchor="start" x="285.125" y="-801.65" style="font-family:Times New Roman;font-size:14.00;">&#45; rank </text>
</g>
<!-- feature_pub&#45;&gt;feature_pubprop -->
<g id="edge22" class="edge"><title>feature_pub&#45;&gt;feature_pubprop</title>
<path style="fill:none;stroke:black;" d="M507,-834C483,-837 454,-840 427,-843"/>
<polygon style="fill:black;stroke:black;" points="426.602,-839.522 417,-844 427.299,-846.488 426.602,-839.522"/>
</g>
<!-- featureprop_pub -->
<g id="node7" class="node"><title>featureprop_pub</title>
<polygon style="fill:white;stroke:black;" points="29,-754 29,-837 169,-837 169,-754 29,-754"/>
<text text-anchor="middle" x="99" y="-819.65" style="font-family:Times New Roman;font-size:14.00;">featureprop_pub</text>
<polyline style="fill:none;stroke:black;" points="29,-812 169,-812 "/>
<text text-anchor="start" x="37.125" y="-795.15" style="font-family:Times New Roman;font-size:14.00;">&#45; featureprop_pub_id </text>
<text text-anchor="start" x="37.125" y="-778.65" style="font-family:Times New Roman;font-size:14.00;">&#45; featureprop_id </text>
<text text-anchor="start" x="37.125" y="-762.15" style="font-family:Times New Roman;font-size:14.00;">&#45; pub_id </text>
</g>
<!-- featureprop&#45;&gt;featureprop_pub -->
<g id="edge32" class="edge"><title>featureprop&#45;&gt;featureprop_pub</title>
<path style="fill:none;stroke:black;" d="M286,-642C248,-674 197,-715 158,-747"/>
<polygon style="fill:black;stroke:black;" points="155.221,-744.781 150,-754 159.831,-750.049 155.221,-744.781"/>
</g>
<!-- feature_relationship_pub -->
<g id="node10" class="node"><title>feature_relationship_pub</title>
<polygon style="fill:white;stroke:black;" points="261,-75 261,-158 445,-158 445,-75 261,-75"/>
<text text-anchor="middle" x="353" y="-140.65" style="font-family:Times New Roman;font-size:14.00;">feature_relationship_pub</text>
<polyline style="fill:none;stroke:black;" points="261,-133 445,-133 "/>
<text text-anchor="start" x="269" y="-116.15" style="font-family:Times New Roman;font-size:14.00;">&#45; feature_relationship_pub_id </text>
<text text-anchor="start" x="269" y="-99.65" style="font-family:Times New Roman;font-size:14.00;">&#45; feature_relationship_id </text>
<text text-anchor="start" x="269" y="-83.15" style="font-family:Times New Roman;font-size:14.00;">&#45; pub_id </text>
</g>
<!-- feature_relationship&#45;&gt;feature_relationship_pub -->
<g id="edge24" class="edge"><title>feature_relationship&#45;&gt;feature_relationship_pub</title>
<path style="fill:none;stroke:black;" d="M385,-300C378,-259 369,-206 362,-168"/>
<polygon style="fill:black;stroke:black;" points="365.393,-167.119 360,-158 358.529,-168.492 365.393,-167.119"/>
</g>
<!-- feature_relationshipprop -->
<g id="node11" class="node"><title>feature_relationshipprop</title>
<polygon style="fill:white;stroke:black;" points="19,-408 19,-524 201,-524 201,-408 19,-408"/>
<text text-anchor="middle" x="110" y="-506.65" style="font-family:Times New Roman;font-size:14.00;">feature_relationshipprop</text>
<polyline style="fill:none;stroke:black;" points="19,-499 201,-499 "/>
<text text-anchor="start" x="27.125" y="-481.65" style="font-family:Times New Roman;font-size:14.00;">&#45; feature_relationshipprop_id </text>
<text text-anchor="start" x="27.125" y="-465.15" style="font-family:Times New Roman;font-size:14.00;">&#45; feature_relationship_id </text>
<text text-anchor="start" x="27.125" y="-448.65" style="font-family:Times New Roman;font-size:14.00;">&#45; type_id </text>
<text text-anchor="start" x="27.125" y="-432.15" style="font-family:Times New Roman;font-size:14.00;">&#45; value </text>
<text text-anchor="start" x="27.125" y="-415.65" style="font-family:Times New Roman;font-size:14.00;">&#45; rank </text>
</g>
<!-- feature_relationship&#45;&gt;feature_relationshipprop -->
<g id="edge26" class="edge"><title>feature_relationship&#45;&gt;feature_relationshipprop</title>
<path style="fill:none;stroke:black;" d="M319,-393C286,-405 246,-419 210,-431"/>
<polygon style="fill:black;stroke:black;" points="209.38,-427.517 201,-434 211.594,-434.158 209.38,-427.517"/>
</g>
<!-- feature_relationshipprop_pub -->
<g id="node12" class="node"><title>feature_relationshipprop_pub</title>
<polygon style="fill:white;stroke:black;" points="1,-115 1,-198 212,-198 212,-115 1,-115"/>
<text text-anchor="middle" x="106" y="-180.65" style="font-family:Times New Roman;font-size:14.00;">feature_relationshipprop_pub</text>
<polyline style="fill:none;stroke:black;" points="1,-173 212,-173 "/>
<text text-anchor="start" x="8.5" y="-156.15" style="font-family:Times New Roman;font-size:14.00;">&#45; feature_relationshipprop_pub_id </text>
<text text-anchor="start" x="8.5" y="-139.65" style="font-family:Times New Roman;font-size:14.00;">&#45; feature_relationshipprop_id </text>
<text text-anchor="start" x="8.5" y="-123.15" style="font-family:Times New Roman;font-size:14.00;">&#45; pub_id </text>
</g>
<!-- feature_relationshipprop&#45;&gt;feature_relationshipprop_pub -->
<g id="edge28" class="edge"><title>feature_relationshipprop&#45;&gt;feature_relationshipprop_pub</title>
<path style="fill:none;stroke:black;" d="M109,-408C108,-350 107,-263 107,-208"/>
<polygon style="fill:black;stroke:black;" points="110.5,-208 107,-198 103.5,-208 110.5,-208"/>
</g>
<!-- feature_cvtermprop -->
<g id="node14" class="node"><title>feature_cvtermprop</title>
<polygon style="fill:white;stroke:black;" points="965,-757 965,-873 1121,-873 1121,-757 965,-757"/>
<text text-anchor="middle" x="1043" y="-855.65" style="font-family:Times New Roman;font-size:14.00;">feature_cvtermprop</text>
<polyline style="fill:none;stroke:black;" points="965,-848 1121,-848 "/>
<text text-anchor="start" x="972.875" y="-830.65" style="font-family:Times New Roman;font-size:14.00;">&#45; feature_cvtermprop_id </text>
<text text-anchor="start" x="972.875" y="-814.15" style="font-family:Times New Roman;font-size:14.00;">&#45; feature_cvterm_id </text>
<text text-anchor="start" x="972.875" y="-797.65" style="font-family:Times New Roman;font-size:14.00;">&#45; type_id </text>
<text text-anchor="start" x="972.875" y="-781.15" style="font-family:Times New Roman;font-size:14.00;">&#45; value </text>
<text text-anchor="start" x="972.875" y="-764.65" style="font-family:Times New Roman;font-size:14.00;">&#45; rank </text>
</g>
<!-- feature_cvterm&#45;&gt;feature_cvtermprop -->
<g id="edge20" class="edge"><title>feature_cvterm&#45;&gt;feature_cvtermprop</title>
<path style="fill:none;stroke:black;" d="M865,-657C898,-686 936,-721 970,-750"/>
<polygon style="fill:black;stroke:black;" points="967.454,-752.404 977,-757 972.404,-747.454 967.454,-752.404"/>
</g>
<!-- feature_cvterm_dbxref -->
<g id="node15" class="node"><title>feature_cvterm_dbxref</title>
<polygon style="fill:white;stroke:black;" points="692,-807 692,-890 866,-890 866,-807 692,-807"/>
<text text-anchor="middle" x="779" y="-872.65" style="font-family:Times New Roman;font-size:14.00;">feature_cvterm_dbxref</text>
<polyline style="fill:none;stroke:black;" points="692,-865 866,-865 "/>
<text text-anchor="start" x="700.25" y="-848.15" style="font-family:Times New Roman;font-size:14.00;">&#45; feature_cvterm_dbxref_id </text>
<text text-anchor="start" x="700.25" y="-831.65" style="font-family:Times New Roman;font-size:14.00;">&#45; feature_cvterm_id </text>
<text text-anchor="start" x="700.25" y="-815.15" style="font-family:Times New Roman;font-size:14.00;">&#45; dbxref_id </text>
</g>
<!-- feature_cvterm&#45;&gt;feature_cvterm_dbxref -->
<g id="edge16" class="edge"><title>feature_cvterm&#45;&gt;feature_cvterm_dbxref</title>
<path style="fill:none;stroke:black;" d="M794,-665C790,-706 787,-759 783,-797"/>
<polygon style="fill:black;stroke:black;" points="779.512,-796.701 782,-807 786.478,-797.398 779.512,-796.701"/>
</g>
<!-- feature_cvterm_pub -->
<g id="node16" class="node"><title>feature_cvterm_pub</title>
<polygon style="fill:white;stroke:black;" points="986,-463 986,-546 1145,-546 1145,-463 986,-463"/>
<text text-anchor="middle" x="1065" y="-528.65" style="font-family:Times New Roman;font-size:14.00;">feature_cvterm_pub</text>
<polyline style="fill:none;stroke:black;" points="986,-521 1145,-521 "/>
<text text-anchor="start" x="993.75" y="-504.15" style="font-family:Times New Roman;font-size:14.00;">&#45; feature_cvterm_pub_id </text>
<text text-anchor="start" x="993.75" y="-487.65" style="font-family:Times New Roman;font-size:14.00;">&#45; feature_cvterm_id </text>
<text text-anchor="start" x="993.75" y="-471.15" style="font-family:Times New Roman;font-size:14.00;">&#45; pub_id </text>
</g>
<!-- feature_cvterm&#45;&gt;feature_cvterm_pub -->
<g id="edge18" class="edge"><title>feature_cvterm&#45;&gt;feature_cvterm_pub</title>
<path style="fill:none;stroke:black;" d="M865,-576C899,-564 940,-550 976,-536"/>
<polygon style="fill:black;stroke:black;" points="977.427,-539.226 986,-533 975.416,-532.521 977.427,-539.226"/>
</g>
<!-- synonym -->
<g id="node17" class="node"><title>synonym</title>
<polygon style="fill:white;stroke:black;" points="1002,-108 1002,-207 1115,-207 1115,-108 1002,-108"/>
<text text-anchor="middle" x="1058" y="-189.65" style="font-family:Times New Roman;font-size:14.00;">synonym</text>
<polyline style="fill:none;stroke:black;" points="1002,-182 1115,-182 "/>
<text text-anchor="start" x="1009.62" y="-165.4" style="font-family:Times New Roman;font-size:14.00;">&#45; synonym_id </text>
<text text-anchor="start" x="1009.62" y="-148.9" style="font-family:Times New Roman;font-size:14.00;">&#45; name </text>
<text text-anchor="start" x="1009.62" y="-132.4" style="font-family:Times New Roman;font-size:14.00;">&#45; type_id </text>
<text text-anchor="start" x="1009.62" y="-115.9" style="font-family:Times New Roman;font-size:14.00;">&#45; synonym_sgml </text>
</g>
<!-- synonym&#45;&gt;feature_synonym -->
<g id="edge34" class="edge"><title>synonym&#45;&gt;feature_synonym</title>
<path style="fill:none;stroke:black;" d="M1013,-207C989,-233 960,-265 934,-294"/>
<polygon style="fill:black;stroke:black;" points="931.596,-291.454 927,-301 936.546,-296.404 931.596,-291.454"/>
</g>
</g>
</svg>
