<?xml version="1.0" encoding="UTF-8" standalone="no"?>
<!DOCTYPE svg PUBLIC "-//W3C//DTD SVG 1.0//EN"
 "http://www.w3.org/TR/2001/REC-SVG-20010904/DTD/svg10.dtd" [
 <!ATTLIST svg xmlns:xlink CDATA #FIXED "http://www.w3.org/1999/xlink">
]>
<!-- Generated by Graphviz version 2.20.2 (Wed Sep 16 11:12:11 UTC 2009)
     For user: (cain) Scott Cain,,, -->
<!-- Title: test Pages: 1 -->
<svg width="850pt" height="546pt"
 viewBox="0.00 0.00 850.00 546.00" xmlns="http://www.w3.org/2000/svg" xmlns:xlink="http://www.w3.org/1999/xlink">
<g id="graph0" class="graph" transform="scale(1 1) rotate(0) translate(4 542)">
<title>test</title>
<polygon style="fill:lightgoldenrodyellow;stroke:lightgoldenrodyellow;" points="-4,4 -4,-542 846,-542 846,4 -4,4"/>
<!-- node1 -->
<g id="node1" class="node"><title>node1</title>
<polygon style="fill:white;stroke:black;" points="438,-209 438,-327 552,-327 552,-209 438,-209"/>
<text text-anchor="middle" x="495" y="-309.9" style="font-family:Times New Roman;font-size:14.00;">wwwuser</text>
<polyline style="fill:none;stroke:black;" points="438,-302 552,-302 "/>
<text text-anchor="start" x="446" y="-284.9" style="font-family:Times New Roman;font-size:14.00;">&#45; wwwuser_id</text>
<text text-anchor="start" x="446" y="-267.9" style="font-family:Times New Roman;font-size:14.00;">&#45; username</text>
<text text-anchor="start" x="446" y="-250.9" style="font-family:Times New Roman;font-size:14.00;">&#45; password</text>
<text text-anchor="start" x="446" y="-233.9" style="font-family:Times New Roman;font-size:14.00;">&#45; email</text>
<text text-anchor="start" x="446" y="-216.9" style="font-family:Times New Roman;font-size:14.00;">&#45; profile</text>
</g>
<!-- node2 -->
<g id="node2" class="node"><title>node2</title>
<polygon style="fill:white;stroke:black;" points="673,-429 673,-530 841,-530 841,-429 673,-429"/>
<text text-anchor="middle" x="757" y="-512.9" style="font-family:Times New Roman;font-size:14.00;">wwwuser_project</text>
<polyline style="fill:none;stroke:black;" points="673,-505 841,-505 "/>
<text text-anchor="start" x="681" y="-488.4" style="font-family:Times New Roman;font-size:14.00;">&#45; wwwuser_project_id</text>
<text text-anchor="start" x="681" y="-471.4" style="font-family:Times New Roman;font-size:14.00;">&#45; wwwuser_id</text>
<text text-anchor="start" x="681" y="-454.4" style="font-family:Times New Roman;font-size:14.00;">&#45; project_id</text>
<text text-anchor="start" x="681" y="-437.4" style="font-family:Times New Roman;font-size:14.00;">&#45; world_read</text>
</g>
<!-- node1&#45;&gt;node2 -->
<g id="edge18" class="edge"><title>node1&#45;&gt;node2</title>
<path style="fill:none;stroke:black;" d="M552,-314C591,-346 643,-388 685,-423"/>
<polygon style="fill:black;stroke:black;" points="682.9,-425.8 693,-429 687.1,-420.2 682.9,-425.8"/>
</g>
<!-- node3 -->
<g id="node3" class="node"><title>node3</title>
<polygon style="fill:white;stroke:black;" points="261,-0 261,-101 429,-101 429,-0 261,-0"/>
<text text-anchor="middle" x="345" y="-83.9" style="font-family:Times New Roman;font-size:14.00;">wwwuser_author</text>
<polyline style="fill:none;stroke:black;" points="261,-76 429,-76 "/>
<text text-anchor="start" x="269" y="-59.4" style="font-family:Times New Roman;font-size:14.00;">&#45; wwwuser_author_id</text>
<text text-anchor="start" x="269" y="-42.4" style="font-family:Times New Roman;font-size:14.00;">&#45; wwwuser_id</text>
<text text-anchor="start" x="269" y="-25.4" style="font-family:Times New Roman;font-size:14.00;">&#45; author_id</text>
<text text-anchor="start" x="269" y="-8.4" style="font-family:Times New Roman;font-size:14.00;">&#45; world_read</text>
</g>
<!-- node1&#45;&gt;node3 -->
<g id="edge2" class="edge"><title>node1&#45;&gt;node3</title>
<path style="fill:none;stroke:black;" d="M454,-209C433,-178 407,-140 386,-109"/>
<polygon style="fill:black;stroke:black;" points="388.8,-106.9 380,-101 383.2,-111.1 388.8,-106.9"/>
</g>
<!-- node4 -->
<g id="node4" class="node"><title>node4</title>
<polygon style="fill:white;stroke:black;" points="38,-436 38,-537 207,-537 207,-436 38,-436"/>
<text text-anchor="middle" x="122" y="-519.9" style="font-family:Times New Roman;font-size:14.00;">wwwuser_cvterm</text>
<polyline style="fill:none;stroke:black;" points="38,-512 207,-512 "/>
<text text-anchor="start" x="45.5" y="-495.4" style="font-family:Times New Roman;font-size:14.00;">&#45; wwwuser_cvterm_id</text>
<text text-anchor="start" x="45.5" y="-478.4" style="font-family:Times New Roman;font-size:14.00;">&#45; wwwuser_id</text>
<text text-anchor="start" x="45.5" y="-461.4" style="font-family:Times New Roman;font-size:14.00;">&#45; cvterm_id</text>
<text text-anchor="start" x="45.5" y="-444.4" style="font-family:Times New Roman;font-size:14.00;">&#45; world_read</text>
</g>
<!-- node1&#45;&gt;node4 -->
<g id="edge4" class="edge"><title>node1&#45;&gt;node4</title>
<path style="fill:none;stroke:black;" d="M438,-301C379,-336 286,-390 216,-432"/>
<polygon style="fill:black;stroke:black;" points="214.042,-429.084 207,-437 217.441,-435.203 214.042,-429.084"/>
</g>
<!-- node5 -->
<g id="node5" class="node"><title>node5</title>
<polygon style="fill:white;stroke:black;" points="448,-429 448,-530 643,-530 643,-429 448,-429"/>
<text text-anchor="middle" x="545" y="-512.9" style="font-family:Times New Roman;font-size:14.00;">wwwuser_expression</text>
<polyline style="fill:none;stroke:black;" points="448,-505 643,-505 "/>
<text text-anchor="start" x="455.5" y="-488.4" style="font-family:Times New Roman;font-size:14.00;">&#45; wwwuser_expression_id</text>
<text text-anchor="start" x="455.5" y="-471.4" style="font-family:Times New Roman;font-size:14.00;">&#45; wwwuser_id</text>
<text text-anchor="start" x="455.5" y="-454.4" style="font-family:Times New Roman;font-size:14.00;">&#45; expression_id</text>
<text text-anchor="start" x="455.5" y="-437.4" style="font-family:Times New Roman;font-size:14.00;">&#45; world_read</text>
</g>
<!-- node1&#45;&gt;node5 -->
<g id="edge6" class="edge"><title>node1&#45;&gt;node5</title>
<path style="fill:none;stroke:black;" d="M509,-327C516,-356 524,-390 531,-419"/>
<polygon style="fill:black;stroke:black;" points="527.607,-419.881 533,-429 534.471,-418.508 527.607,-419.881"/>
</g>
<!-- node6 -->
<g id="node6" class="node"><title>node6</title>
<polygon style="fill:white;stroke:black;" points="261,-429 261,-530 432,-530 432,-429 261,-429"/>
<text text-anchor="middle" x="346" y="-512.9" style="font-family:Times New Roman;font-size:14.00;">wwwuser_feature</text>
<polyline style="fill:none;stroke:black;" points="261,-505 432,-505 "/>
<text text-anchor="start" x="268.5" y="-488.4" style="font-family:Times New Roman;font-size:14.00;">&#45; wwwuser_feature_id</text>
<text text-anchor="start" x="268.5" y="-471.4" style="font-family:Times New Roman;font-size:14.00;">&#45; wwwuser_id</text>
<text text-anchor="start" x="268.5" y="-454.4" style="font-family:Times New Roman;font-size:14.00;">&#45; feature_id</text>
<text text-anchor="start" x="268.5" y="-437.4" style="font-family:Times New Roman;font-size:14.00;">&#45; world_read</text>
</g>
<!-- node1&#45;&gt;node6 -->
<g id="edge8" class="edge"><title>node1&#45;&gt;node6</title>
<path style="fill:none;stroke:black;" d="M453,-327C433,-356 408,-391 388,-420"/>
<polygon style="fill:black;stroke:black;" points="384.635,-418.738 382,-429 390.459,-422.621 384.635,-418.738"/>
</g>
<!-- node7 -->
<g id="node7" class="node"><title>node7</title>
<polygon style="fill:white;stroke:black;" points="204,-211 204,-312 390,-312 390,-211 204,-211"/>
<text text-anchor="middle" x="297" y="-294.9" style="font-family:Times New Roman;font-size:14.00;">wwwuser_genotype</text>
<polyline style="fill:none;stroke:black;" points="204,-287 390,-287 "/>
<text text-anchor="start" x="212" y="-270.4" style="font-family:Times New Roman;font-size:14.00;">&#45; wwwuser_genotype_id</text>
<text text-anchor="start" x="212" y="-253.4" style="font-family:Times New Roman;font-size:14.00;">&#45; wwwuser_id</text>
<text text-anchor="start" x="212" y="-236.4" style="font-family:Times New Roman;font-size:14.00;">&#45; genotype_id</text>
<text text-anchor="start" x="212" y="-219.4" style="font-family:Times New Roman;font-size:14.00;">&#45; world_read</text>
</g>
<!-- node1&#45;&gt;node7 -->
<g id="edge10" class="edge"><title>node1&#45;&gt;node7</title>
<path style="fill:none;stroke:black;" d="M438,-266C426,-266 413,-265 400,-265"/>
<polygon style="fill:black;stroke:black;" points="400,-261.5 390,-265 400,-268.5 400,-261.5"/>
</g>
<!-- node8 -->
<g id="node8" class="node"><title>node8</title>
<polygon style="fill:white;stroke:black;" points="635,-217 635,-318 831,-318 831,-217 635,-217"/>
<text text-anchor="middle" x="733" y="-300.9" style="font-family:Times New Roman;font-size:14.00;">wwwuser_interaction</text>
<polyline style="fill:none;stroke:black;" points="635,-293 831,-293 "/>
<text text-anchor="start" x="643" y="-276.4" style="font-family:Times New Roman;font-size:14.00;">&#45; wwwuser_interaction_id</text>
<text text-anchor="start" x="643" y="-259.4" style="font-family:Times New Roman;font-size:14.00;">&#45; wwwuser_id</text>
<text text-anchor="start" x="643" y="-242.4" style="font-family:Times New Roman;font-size:14.00;">&#45; interaction_id</text>
<text text-anchor="start" x="643" y="-225.4" style="font-family:Times New Roman;font-size:14.00;">&#45; world_read</text>
</g>
<!-- node1&#45;&gt;node8 -->
<g id="edge12" class="edge"><title>node1&#45;&gt;node8</title>
<path style="fill:none;stroke:black;" d="M552,-268C574,-268 600,-268 625,-268"/>
<polygon style="fill:black;stroke:black;" points="625,-271.5 635,-268 625,-264.5 625,-271.5"/>
</g>
<!-- node9 -->
<g id="node9" class="node"><title>node9</title>
<polygon style="fill:white;stroke:black;" points="26,-4 26,-105 210,-105 210,-4 26,-4"/>
<text text-anchor="middle" x="118" y="-87.9" style="font-family:Times New Roman;font-size:14.00;">wwwuser_organism</text>
<polyline style="fill:none;stroke:black;" points="26,-80 210,-80 "/>
<text text-anchor="start" x="34" y="-63.4" style="font-family:Times New Roman;font-size:14.00;">&#45; wwwuser_organism_id</text>
<text text-anchor="start" x="34" y="-46.4" style="font-family:Times New Roman;font-size:14.00;">&#45; wwwuser_id</text>
<text text-anchor="start" x="34" y="-29.4" style="font-family:Times New Roman;font-size:14.00;">&#45; organism_id</text>
<text text-anchor="start" x="34" y="-12.4" style="font-family:Times New Roman;font-size:14.00;">&#45; world_read</text>
</g>
<!-- node1&#45;&gt;node9 -->
<g id="edge14" class="edge"><title>node1&#45;&gt;node9</title>
<path style="fill:none;stroke:black;" d="M438,-236C379,-202 286,-150 216,-110"/>
<polygon style="fill:black;stroke:black;" points="217.441,-106.797 207,-105 214.042,-112.916 217.441,-106.797"/>
</g>
<!-- node10 -->
<g id="node10" class="node"><title>node10</title>
<polygon style="fill:white;stroke:black;" points="447,-6 447,-107 642,-107 642,-6 447,-6"/>
<text text-anchor="middle" x="544" y="-89.9" style="font-family:Times New Roman;font-size:14.00;">wwwuser_phenotype</text>
<polyline style="fill:none;stroke:black;" points="447,-82 642,-82 "/>
<text text-anchor="start" x="454.5" y="-65.4" style="font-family:Times New Roman;font-size:14.00;">&#45; wwwuser_phenotype_id</text>
<text text-anchor="start" x="454.5" y="-48.4" style="font-family:Times New Roman;font-size:14.00;">&#45; wwwuser_id</text>
<text text-anchor="start" x="454.5" y="-31.4" style="font-family:Times New Roman;font-size:14.00;">&#45; phenotype_id</text>
<text text-anchor="start" x="454.5" y="-14.4" style="font-family:Times New Roman;font-size:14.00;">&#45; world_read</text>
</g>
<!-- node1&#45;&gt;node10 -->
<g id="edge16" class="edge"><title>node1&#45;&gt;node10</title>
<path style="fill:none;stroke:black;" d="M509,-209C515,-180 523,-146 530,-117"/>
<polygon style="fill:black;stroke:black;" points="533.471,-117.492 532,-107 526.607,-116.119 533.471,-117.492"/>
</g>
<!-- node11 -->
<g id="node11" class="node"><title>node11</title>
<polygon style="fill:white;stroke:black;" points="684,-5 684,-106 831,-106 831,-5 684,-5"/>
<text text-anchor="middle" x="757" y="-88.9" style="font-family:Times New Roman;font-size:14.00;">wwwuser_pub</text>
<polyline style="fill:none;stroke:black;" points="684,-81 831,-81 "/>
<text text-anchor="start" x="691.5" y="-64.4" style="font-family:Times New Roman;font-size:14.00;">&#45; wwwuser_pub_id</text>
<text text-anchor="start" x="691.5" y="-47.4" style="font-family:Times New Roman;font-size:14.00;">&#45; wwwuser_id</text>
<text text-anchor="start" x="691.5" y="-30.4" style="font-family:Times New Roman;font-size:14.00;">&#45; pub_id</text>
<text text-anchor="start" x="691.5" y="-13.4" style="font-family:Times New Roman;font-size:14.00;">&#45; world_read</text>
</g>
<!-- node1&#45;&gt;node11 -->
<g id="edge20" class="edge"><title>node1&#45;&gt;node11</title>
<path style="fill:none;stroke:black;" d="M552,-222C592,-190 644,-146 687,-112"/>
<polygon style="fill:black;stroke:black;" points="689.1,-114.8 695,-106 684.9,-109.2 689.1,-114.8"/>
</g>
<!-- node12 -->
<g id="node12" class="node"><title>node12</title>
<polygon style="fill:white;stroke:black;" points="1,-225 1,-326 196,-326 196,-225 1,-225"/>
<text text-anchor="middle" x="98" y="-308.9" style="font-family:Times New Roman;font-size:14.00;">wwwuserrelationship</text>
<polyline style="fill:none;stroke:black;" points="1,-301 196,-301 "/>
<text text-anchor="start" x="8.5" y="-284.4" style="font-family:Times New Roman;font-size:14.00;">&#45; wwwuserrelationship_id</text>
<text text-anchor="start" x="8.5" y="-267.4" style="font-family:Times New Roman;font-size:14.00;">&#45; objwwwuser_id</text>
<text text-anchor="start" x="8.5" y="-250.4" style="font-family:Times New Roman;font-size:14.00;">&#45; subjwwwuser_id</text>
<text text-anchor="start" x="8.5" y="-233.4" style="font-family:Times New Roman;font-size:14.00;">&#45; world_read</text>
</g>
<!-- node1&#45;&gt;node12 -->
<g id="edge22" class="edge"><title>node1&#45;&gt;node12</title>
<path style="fill:none;stroke:black;" d="M438,-269C378,-270 281,-272 206,-274"/>
<polygon style="fill:black;stroke:black;" points="206,-270.5 196,-274 206,-277.5 206,-270.5"/>
</g>
</g>
</svg>
