<?xml version="1.0" encoding="UTF-8" standalone="no"?>
<!DOCTYPE svg PUBLIC "-//W3C//DTD SVG 1.0//EN"
 "http://www.w3.org/TR/2001/REC-SVG-20010904/DTD/svg10.dtd" [
 <!ATTLIST svg xmlns:xlink CDATA #FIXED "http://www.w3.org/1999/xlink">
]>
<!-- Generated by dot version 2.8 (Thu Sep 14 20:34:11 UTC 2006)
     For user: (scott) Scott Cain -->
<!-- Title: test Pages: 1 -->
<svg width="728pt" height="584pt"
 viewBox = "0 0 728 584"
 xmlns="http://www.w3.org/2000/svg" xmlns:xlink="http://www.w3.org/1999/xlink">
<g id="graph0" class="graph" style="font-family:Times-Roman;font-size:14.00;">
<title>test</title>
<polygon style="fill:white;stroke:white;" points="-2,586 -2,-2 730,-2 730,586 -2,586"/>
<!-- wwwuser -->
<g id="node1" class="node"><title>wwwuser</title>
<polygon style="fill:white;stroke:black;" points="330,315 403,315 403,268 330,268 330,315"/>
<text text-anchor="start" x="333" y="276" style="font-size:6.28pt;">{wwwuser|&#45; wwwuser_id </text>
<text text-anchor="start" x="333" y="283" style="font-size:6.28pt;">&#45; username </text>
<text text-anchor="start" x="333" y="290" style="font-size:6.28pt;">&#45; password </text>
<text text-anchor="start" x="333" y="297" style="font-size:6.28pt;">&#45; email </text>
<text text-anchor="start" x="333" y="305" style="font-size:6.28pt;">&#45; profile </text>
<text text-anchor="middle" x="366" y="312" style="font-size:6.28pt;">}</text>
</g>
<!-- wwwuser_project -->
<g id="node2" class="node"><title>wwwuser_project</title>
<polygon style="fill:white;stroke:black;" points="610,72 724,72 724,32 610,32 610,72"/>
<text text-anchor="start" x="613" y="40" style="font-size:6.28pt;">{wwwuser_project|&#45; wwwuser_project_id </text>
<text text-anchor="start" x="613" y="47" style="font-size:6.28pt;">&#45; wwwuser_id </text>
<text text-anchor="start" x="613" y="54" style="font-size:6.28pt;">&#45; project_id </text>
<text text-anchor="start" x="613" y="61" style="font-size:6.28pt;">&#45; world_read </text>
<text text-anchor="middle" x="667" y="69" style="font-size:6.28pt;">}</text>
</g>
<!-- wwwuser&#45;&gt;wwwuser_project -->
<g id="edge18" class="edge"><title>wwwuser&#45;&gt;wwwuser_project</title>
<path style="fill:none;stroke:black;" d="M395,268C453,222 580,120 638,75"/>
<polygon style="fill:black;stroke:black;" points="637,74 641,72 639,76 637,74"/>
</g>
<!-- wwwuser_author -->
<g id="node3" class="node"><title>wwwuser_author</title>
<polygon style="fill:white;stroke:black;" points="303,565 415,565 415,525 303,525 303,565"/>
<text text-anchor="start" x="307" y="533" style="font-size:6.28pt;">{wwwuser_author|&#45; wwwuser_author_id </text>
<text text-anchor="start" x="307" y="540" style="font-size:6.28pt;">&#45; wwwuser_id </text>
<text text-anchor="start" x="307" y="547" style="font-size:6.28pt;">&#45; author_id </text>
<text text-anchor="start" x="307" y="554" style="font-size:6.28pt;">&#45; world_read </text>
<text text-anchor="middle" x="359" y="562" style="font-size:6.28pt;">}</text>
</g>
<!-- wwwuser&#45;&gt;wwwuser_author -->
<g id="edge2" class="edge"><title>wwwuser&#45;&gt;wwwuser_author</title>
<path style="fill:none;stroke:black;" d="M366,315C364,363 361,472 359,521"/>
<polygon style="fill:black;stroke:black;" points="361,521 359,525 358,521 361,521"/>
</g>
<!-- wwwuser_cvterm -->
<g id="node4" class="node"><title>wwwuser_cvterm</title>
<polygon style="fill:white;stroke:black;" points="165,129 280,129 280,90 165,90 165,129"/>
<text text-anchor="start" x="169" y="97" style="font-size:6.28pt;">{wwwuser_cvterm|&#45; wwwuser_cvterm_id </text>
<text text-anchor="start" x="169" y="104" style="font-size:6.28pt;">&#45; wwwuser_id </text>
<text text-anchor="start" x="169" y="112" style="font-size:6.28pt;">&#45; cvterm_id </text>
<text text-anchor="start" x="169" y="119" style="font-size:6.28pt;">&#45; world_read </text>
<text text-anchor="middle" x="222" y="126" style="font-size:6.28pt;">}</text>
</g>
<!-- wwwuser&#45;&gt;wwwuser_cvterm -->
<g id="edge4" class="edge"><title>wwwuser&#45;&gt;wwwuser_cvterm</title>
<path style="fill:none;stroke:black;" d="M348,268C320,233 268,168 241,133"/>
<polygon style="fill:black;stroke:black;" points="240,134 238,129 242,132 240,134"/>
</g>
<!-- wwwuser_expression -->
<g id="node5" class="node"><title>wwwuser_expression</title>
<polygon style="fill:white;stroke:black;" points="439,130 571,130 571,90 439,90 439,130"/>
<text text-anchor="start" x="442" y="98" style="font-size:6.28pt;">{wwwuser_expression|&#45; wwwuser_expression_id </text>
<text text-anchor="start" x="442" y="105" style="font-size:6.28pt;">&#45; wwwuser_id </text>
<text text-anchor="start" x="442" y="112" style="font-size:6.28pt;">&#45; expression_id </text>
<text text-anchor="start" x="442" y="119" style="font-size:6.28pt;">&#45; world_read </text>
<text text-anchor="middle" x="505" y="126" style="font-size:6.28pt;">}</text>
</g>
<!-- wwwuser&#45;&gt;wwwuser_expression -->
<g id="edge6" class="edge"><title>wwwuser&#45;&gt;wwwuser_expression</title>
<path style="fill:none;stroke:black;" d="M384,268C411,233 461,168 487,133"/>
<polygon style="fill:black;stroke:black;" points="486,132 490,130 488,134 486,132"/>
</g>
<!-- wwwuser_feature -->
<g id="node6" class="node"><title>wwwuser_feature</title>
<polygon style="fill:white;stroke:black;" points="308,59 422,59 422,19 308,19 308,59"/>
<text text-anchor="start" x="311" y="27" style="font-size:6.28pt;">{wwwuser_feature|&#45; wwwuser_feature_id </text>
<text text-anchor="start" x="311" y="34" style="font-size:6.28pt;">&#45; wwwuser_id </text>
<text text-anchor="start" x="311" y="41" style="font-size:6.28pt;">&#45; feature_id </text>
<text text-anchor="start" x="311" y="48" style="font-size:6.28pt;">&#45; world_read </text>
<text text-anchor="middle" x="365" y="56" style="font-size:6.28pt;">}</text>
</g>
<!-- wwwuser&#45;&gt;wwwuser_feature -->
<g id="edge8" class="edge"><title>wwwuser&#45;&gt;wwwuser_feature</title>
<path style="fill:none;stroke:black;" d="M366,268C366,220 365,112 365,63"/>
<polygon style="fill:black;stroke:black;" points="363,63 365,59 366,63 363,63"/>
</g>
<!-- wwwuser_genotype -->
<g id="node7" class="node"><title>wwwuser_genotype</title>
<polygon style="fill:white;stroke:black;" points="8,493 132,493 132,454 8,454 8,493"/>
<text text-anchor="start" x="11" y="462" style="font-size:6.28pt;">{wwwuser_genotype|&#45; wwwuser_genotype_id </text>
<text text-anchor="start" x="11" y="469" style="font-size:6.28pt;">&#45; wwwuser_id </text>
<text text-anchor="start" x="11" y="476" style="font-size:6.28pt;">&#45; genotype_id </text>
<text text-anchor="start" x="11" y="483" style="font-size:6.28pt;">&#45; world_read </text>
<text text-anchor="middle" x="70" y="490" style="font-size:6.28pt;">}</text>
</g>
<!-- wwwuser&#45;&gt;wwwuser_genotype -->
<g id="edge10" class="edge"><title>wwwuser&#45;&gt;wwwuser_genotype</title>
<path style="fill:none;stroke:black;" d="M330,314C272,349 163,417 106,452"/>
<polygon style="fill:black;stroke:black;" points="107,453 102,454 105,450 107,453"/>
</g>
<!-- wwwuser_interaction -->
<g id="node8" class="node"><title>wwwuser_interaction</title>
<polygon style="fill:white;stroke:black;" points="588,312 721,312 721,273 588,273 588,312"/>
<text text-anchor="start" x="591" y="280" style="font-size:6.28pt;">{wwwuser_interaction|&#45; wwwuser_interaction_id </text>
<text text-anchor="start" x="591" y="288" style="font-size:6.28pt;">&#45; wwwuser_id </text>
<text text-anchor="start" x="591" y="295" style="font-size:6.28pt;">&#45; interaction_id </text>
<text text-anchor="start" x="591" y="302" style="font-size:6.28pt;">&#45; world_read </text>
<text text-anchor="middle" x="654" y="309" style="font-size:6.28pt;">}</text>
</g>
<!-- wwwuser&#45;&gt;wwwuser_interaction -->
<g id="edge12" class="edge"><title>wwwuser&#45;&gt;wwwuser_interaction</title>
<path style="fill:none;stroke:black;" d="M403,292C448,292 526,292 583,292"/>
<polygon style="fill:black;stroke:black;" points="583,291 588,292 583,294 583,291"/>
</g>
<!-- wwwuser_organism -->
<g id="node9" class="node"><title>wwwuser_organism</title>
<polygon style="fill:white;stroke:black;" points="157,484 282,484 282,444 157,444 157,484"/>
<text text-anchor="start" x="160" y="452" style="font-size:6.28pt;">{wwwuser_organism|&#45; wwwuser_organism_id </text>
<text text-anchor="start" x="160" y="459" style="font-size:6.28pt;">&#45; wwwuser_id </text>
<text text-anchor="start" x="160" y="466" style="font-size:6.28pt;">&#45; organism_id </text>
<text text-anchor="start" x="160" y="473" style="font-size:6.28pt;">&#45; world_read </text>
<text text-anchor="middle" x="219" y="480" style="font-size:6.28pt;">}</text>
</g>
<!-- wwwuser&#45;&gt;wwwuser_organism -->
<g id="edge14" class="edge"><title>wwwuser&#45;&gt;wwwuser_organism</title>
<path style="fill:none;stroke:black;" d="M346,315C318,348 267,408 239,440"/>
<polygon style="fill:black;stroke:black;" points="240,442 236,444 238,440 240,442"/>
</g>
<!-- wwwuser_phenotype -->
<g id="node10" class="node"><title>wwwuser_phenotype</title>
<polygon style="fill:white;stroke:black;" points="437,497 569,497 569,457 437,457 437,497"/>
<text text-anchor="start" x="441" y="465" style="font-size:6.28pt;">{wwwuser_phenotype|&#45; wwwuser_phenotype_id </text>
<text text-anchor="start" x="441" y="472" style="font-size:6.28pt;">&#45; wwwuser_id </text>
<text text-anchor="start" x="441" y="479" style="font-size:6.28pt;">&#45; phenotype_id </text>
<text text-anchor="start" x="441" y="486" style="font-size:6.28pt;">&#45; world_read </text>
<text text-anchor="middle" x="503" y="493" style="font-size:6.28pt;">}</text>
</g>
<!-- wwwuser&#45;&gt;wwwuser_phenotype -->
<g id="edge16" class="edge"><title>wwwuser&#45;&gt;wwwuser_phenotype</title>
<path style="fill:none;stroke:black;" d="M384,315C410,350 459,418 486,453"/>
<polygon style="fill:black;stroke:black;" points="487,453 488,457 484,454 487,453"/>
</g>
<!-- wwwuser_pub -->
<g id="node11" class="node"><title>wwwuser_pub</title>
<polygon style="fill:white;stroke:black;" points="617,552 715,552 715,512 617,512 617,552"/>
<text text-anchor="start" x="621" y="520" style="font-size:6.28pt;">{wwwuser_pub|&#45; wwwuser_pub_id </text>
<text text-anchor="start" x="621" y="527" style="font-size:6.28pt;">&#45; wwwuser_id </text>
<text text-anchor="start" x="621" y="534" style="font-size:6.28pt;">&#45; pub_id </text>
<text text-anchor="start" x="621" y="541" style="font-size:6.28pt;">&#45; world_read </text>
<text text-anchor="middle" x="666" y="549" style="font-size:6.28pt;">}</text>
</g>
<!-- wwwuser&#45;&gt;wwwuser_pub -->
<g id="edge20" class="edge"><title>wwwuser&#45;&gt;wwwuser_pub</title>
<path style="fill:none;stroke:black;" d="M395,315C453,361 580,464 638,509"/>
<polygon style="fill:black;stroke:black;" points="639,508 641,512 637,510 639,508"/>
</g>
<!-- wwwuserrelationship -->
<g id="node12" class="node"><title>wwwuserrelationship</title>
<polygon style="fill:white;stroke:black;" points="4,133 137,133 137,93 4,93 4,133"/>
<text text-anchor="start" x="8" y="101" style="font-size:6.28pt;">{wwwuserrelationship|&#45; wwwuserrelationship_id </text>
<text text-anchor="start" x="8" y="108" style="font-size:6.28pt;">&#45; objwwwuser_id </text>
<text text-anchor="start" x="8" y="115" style="font-size:6.28pt;">&#45; subjwwwuser_id </text>
<text text-anchor="start" x="8" y="122" style="font-size:6.28pt;">&#45; world_read </text>
<text text-anchor="middle" x="71" y="130" style="font-size:6.28pt;">}</text>
</g>
<!-- wwwuser&#45;&gt;wwwuserrelationship -->
<g id="edge22" class="edge"><title>wwwuser&#45;&gt;wwwuserrelationship</title>
<path style="fill:none;stroke:black;" d="M330,270C273,235 164,170 108,135"/>
<polygon style="fill:black;stroke:black;" points="107,136 104,133 108,134 107,136"/>
</g>
</g>
</svg>
