<?xml version="1.0" encoding="UTF-8" standalone="no"?>
<!DOCTYPE svg PUBLIC "-//W3C//DTD SVG 1.0//EN"
 "http://www.w3.org/TR/2001/REC-SVG-20010904/DTD/svg10.dtd">
<!-- Generated by neato version 1.10 (Tue Nov 11 16:12:26 EST 2003)
     For user: (allenday) Allen Day   Title: test    Pages: 1 -->
<svg width="975px" height="782px"
 viewBox = "-1 -1 731 586"
 xmlns="http://www.w3.org/2000/svg">
<g id="graph0" class="graph" transform = "scale(0.696999)"
 style="font-family:Times-Roman;font-size:14.00;">
<title>test</title>
<polygon style="fill:white;stroke:white;" points="0,838 0,2 1043,2 1043,838 0,838"/>
<g id="node1" class="node"><title>wwwuser</title>
<polygon style="fill:white;stroke:black;" points="474,497 578,497 578,393 474,393 474,497"/>
<text text-anchor="middle" x="526" y="408">wwwuser</text>
<polyline style="fill:none;stroke:black;" points="474,413 578,413 "/>
<text text-anchor="start" x="474" y="428">wwwuser_id</text>
<text text-anchor="start" x="474" y="444">username</text>
<text text-anchor="start" x="474" y="460">password</text>
<text text-anchor="start" x="474" y="476">email</text>
<text text-anchor="middle" x="526" y="492">profile</text>
</g>
<g id="node2" class="node"><title>wwwuser_project</title>
<polygon style="fill:white;stroke:black;" points="633,202 795,202 795,114 633,114 633,202"/>
<text text-anchor="middle" x="714" y="129">wwwuser_project</text>
<polyline style="fill:none;stroke:black;" points="633,134 795,134 "/>
<text text-anchor="start" x="633" y="149">wwwuser_project_id</text>
<text text-anchor="start" x="633" y="165">wwwuser_id</text>
<text text-anchor="start" x="633" y="181">project_id</text>
<text text-anchor="middle" x="714" y="197">world_read</text>
</g>
<g id="edge18" class="edge"><title>wwwuser-&gt;wwwuser_project</title>
<path style="fill:none;stroke:black;" d="M560,393C599,332 640,271 680,209"/>
<polygon style="fill:black;stroke:black;" points="677,209 685,202 681,212 677,209"/>
</g>
<g id="node3" class="node"><title>wwwuser_author</title>
<polygon style="fill:white;stroke:black;" points="316,810 476,810 476,722 316,722 316,810"/>
<text text-anchor="middle" x="396" y="737">wwwuser_author</text>
<polyline style="fill:none;stroke:black;" points="316,742 476,742 "/>
<text text-anchor="start" x="316" y="757">wwwuser_author_id</text>
<text text-anchor="start" x="316" y="773">wwwuser_id</text>
<text text-anchor="start" x="316" y="789">author_id</text>
<text text-anchor="middle" x="396" y="805">world_read</text>
</g>
<g id="edge2" class="edge"><title>wwwuser-&gt;wwwuser_author</title>
<path style="fill:none;stroke:black;" d="M505,497C476,569 447,641 418,712"/>
<polygon style="fill:black;stroke:black;" points="420,714 414,722 415,712 420,714"/>
</g>
<g id="node4" class="node"><title>wwwuser_cvterm</title>
<polygon style="fill:white;stroke:black;" points="875,154 1038,154 1038,66 875,66 875,154"/>
<text text-anchor="middle" x="956" y="81">wwwuser_cvterm</text>
<polyline style="fill:none;stroke:black;" points="875,86 1038,86 "/>
<text text-anchor="start" x="875" y="101">wwwuser_cvterm_id</text>
<text text-anchor="start" x="875" y="117">wwwuser_id</text>
<text text-anchor="start" x="875" y="133">cvterm_id</text>
<text text-anchor="middle" x="956" y="149">world_read</text>
</g>
<g id="edge4" class="edge"><title>wwwuser-&gt;wwwuser_cvterm</title>
<path style="fill:none;stroke:black;" d="M578,404C683,323 787,241 892,160"/>
<polygon style="fill:black;stroke:black;" points="890,159 899,154 893,162 890,159"/>
</g>
<g id="node5" class="node"><title>wwwuser_expression</title>
<polygon style="fill:white;stroke:black;" points="432,107 618,107 618,19 432,19 432,107"/>
<text text-anchor="middle" x="525" y="34">wwwuser_expression</text>
<polyline style="fill:none;stroke:black;" points="432,39 618,39 "/>
<text text-anchor="start" x="432" y="54">wwwuser_expression_id</text>
<text text-anchor="start" x="432" y="70">wwwuser_id</text>
<text text-anchor="start" x="432" y="86">expression_id</text>
<text text-anchor="middle" x="525" y="102">world_read</text>
</g>
<g id="edge6" class="edge"><title>wwwuser-&gt;wwwuser_expression</title>
<path style="fill:none;stroke:black;" d="M526,393C526,301 525,209 525,117"/>
<polygon style="fill:black;stroke:black;" points="523,117 525,107 528,117 523,117"/>
</g>
<g id="node6" class="node"><title>wwwuser_feature</title>
<polygon style="fill:white;stroke:black;" points="254,202 418,202 418,114 254,114 254,202"/>
<text text-anchor="middle" x="336" y="129">wwwuser_feature</text>
<polyline style="fill:none;stroke:black;" points="254,134 418,134 "/>
<text text-anchor="start" x="254" y="149">wwwuser_feature_id</text>
<text text-anchor="start" x="254" y="165">wwwuser_id</text>
<text text-anchor="start" x="254" y="181">feature_id</text>
<text text-anchor="middle" x="336" y="197">world_read</text>
</g>
<g id="edge8" class="edge"><title>wwwuser-&gt;wwwuser_feature</title>
<path style="fill:none;stroke:black;" d="M491,393C452,332 410,271 370,209"/>
<polygon style="fill:black;stroke:black;" points="369,212 365,202 373,209 369,212"/>
</g>
<g id="node7" class="node"><title>wwwuser_genotype</title>
<polygon style="fill:white;stroke:black;" points="72,500 249,500 249,412 72,412 72,500"/>
<text text-anchor="middle" x="160" y="427">wwwuser_genotype</text>
<polyline style="fill:none;stroke:black;" points="72,432 249,432 "/>
<text text-anchor="start" x="72" y="447">wwwuser_genotype_id</text>
<text text-anchor="start" x="72" y="463">wwwuser_id</text>
<text text-anchor="start" x="72" y="479">genotype_id</text>
<text text-anchor="middle" x="160" y="495">world_read</text>
</g>
<g id="edge10" class="edge"><title>wwwuser-&gt;wwwuser_genotype</title>
<path style="fill:none;stroke:black;" d="M474,446C403,448 331,451 260,453"/>
<polygon style="fill:black;stroke:black;" points="259,455 249,453 259,450 259,455"/>
</g>
<g id="node8" class="node"><title>wwwuser_interaction</title>
<polygon style="fill:white;stroke:black;" points="804,496 991,496 991,408 804,408 804,496"/>
<text text-anchor="middle" x="897" y="423">wwwuser_interaction</text>
<polyline style="fill:none;stroke:black;" points="804,428 991,428 "/>
<text text-anchor="start" x="804" y="443">wwwuser_interaction_id</text>
<text text-anchor="start" x="804" y="459">wwwuser_id</text>
<text text-anchor="start" x="804" y="475">interaction_id</text>
<text text-anchor="middle" x="897" y="491">world_read</text>
</g>
<g id="edge12" class="edge"><title>wwwuser-&gt;wwwuser_interaction</title>
<path style="fill:none;stroke:black;" d="M578,446C650,447 722,449 793,450"/>
<polygon style="fill:black;stroke:black;" points="793,447 803,450 793,452 793,447"/>
</g>
<g id="node9" class="node"><title>wwwuser_organism</title>
<polygon style="fill:white;stroke:black;" points="25,820 203,820 203,732 25,732 25,820"/>
<text text-anchor="middle" x="114" y="747">wwwuser_organism</text>
<polyline style="fill:none;stroke:black;" points="25,752 203,752 "/>
<text text-anchor="start" x="25" y="767">wwwuser_organism_id</text>
<text text-anchor="start" x="25" y="783">wwwuser_id</text>
<text text-anchor="start" x="25" y="799">organism_id</text>
<text text-anchor="middle" x="114" y="815">world_read</text>
</g>
<g id="edge14" class="edge"><title>wwwuser-&gt;wwwuser_organism</title>
<path style="fill:none;stroke:black;" d="M474,487C375,566 277,645 178,725"/>
<polygon style="fill:black;stroke:black;" points="178,728 169,732 175,724 178,728"/>
</g>
<g id="node10" class="node"><title>wwwuser_phenotype</title>
<polygon style="fill:white;stroke:black;" points="851,819 1038,819 1038,731 851,731 851,819"/>
<text text-anchor="middle" x="944" y="746">wwwuser_phenotype</text>
<polyline style="fill:none;stroke:black;" points="851,751 1038,751 "/>
<text text-anchor="start" x="851" y="766">wwwuser_phenotype_id</text>
<text text-anchor="start" x="851" y="782">wwwuser_id</text>
<text text-anchor="start" x="851" y="798">phenotype_id</text>
<text text-anchor="middle" x="944" y="814">world_read</text>
</g>
<g id="edge16" class="edge"><title>wwwuser-&gt;wwwuser_phenotype</title>
<path style="fill:none;stroke:black;" d="M578,486C678,565 780,645 880,725"/>
<polygon style="fill:black;stroke:black;" points="882,723 888,731 878,727 882,723"/>
</g>
<g id="node11" class="node"><title>wwwuser_pub</title>
<polygon style="fill:white;stroke:black;" points="594,807 735,807 735,719 594,719 594,807"/>
<text text-anchor="middle" x="664" y="734">wwwuser_pub</text>
<polyline style="fill:none;stroke:black;" points="594,739 735,739 "/>
<text text-anchor="start" x="594" y="754">wwwuser_pub_id</text>
<text text-anchor="start" x="594" y="770">wwwuser_id</text>
<text text-anchor="start" x="594" y="786">pub_id</text>
<text text-anchor="middle" x="664" y="802">world_read</text>
</g>
<g id="edge20" class="edge"><title>wwwuser-&gt;wwwuser_pub</title>
<path style="fill:none;stroke:black;" d="M549,497C580,568 611,639 641,710"/>
<polygon style="fill:black;stroke:black;" points="643,709 645,719 639,711 643,709"/>
</g>
<g id="node12" class="node"><title>wwwuserrelationship</title>
<polygon style="fill:white;stroke:black;" points="6,156 190,156 190,68 6,68 6,156"/>
<text text-anchor="middle" x="98" y="83">wwwuserrelationship</text>
<polyline style="fill:none;stroke:black;" points="6,88 190,88 "/>
<text text-anchor="start" x="6" y="103">wwwuserrelationship_id</text>
<text text-anchor="start" x="6" y="119">objwwwuser_id</text>
<text text-anchor="start" x="6" y="135">subjwwwuser_id</text>
<text text-anchor="middle" x="98" y="151">world_read</text>
</g>
<g id="edge22" class="edge"><title>wwwuser-&gt;wwwuserrelationship</title>
<path style="fill:none;stroke:black;" d="M474,404C370,324 266,243 162,162"/>
<polygon style="fill:black;stroke:black;" points="161,164 155,156 164,161 161,164"/>
</g>
</g></svg>
