<?xml version="1.0" encoding="UTF-8" standalone="no"?>
<!DOCTYPE svg PUBLIC "-//W3C//DTD SVG 1.0//EN"
 "http://www.w3.org/TR/2001/REC-SVG-20010904/DTD/svg10.dtd" [
 <!ATTLIST svg xmlns:xlink CDATA #FIXED "http://www.w3.org/1999/xlink">
]>
<!-- Generated by dot version 2.8 (Thu Sep 14 20:34:11 UTC 2006)
     For user: (scott) Scott Cain -->
<!-- Title: test Pages: 1 -->
<svg width="728pt" height="584pt"
 viewBox = "0 0 728 584"
 xmlns="http://www.w3.org/2000/svg" xmlns:xlink="http://www.w3.org/1999/xlink">
<g id="graph0" class="graph" style="font-family:Times-Roman;font-size:14.00;">
<title>test</title>
<polygon style="fill:white;stroke:white;" points="-2,586 -2,-2 730,-2 730,586 -2,586"/>
<!-- analysis -->
<g id="node1" class="node"><title>analysis</title>
<polygon style="fill:white;stroke:black;" points="60,252 205,252 205,68 60,68 60,252"/>
<text text-anchor="start" x="68" y="85">{analysis|&#45; analysis_id </text>
<text text-anchor="start" x="68" y="101">&#45; name </text>
<text text-anchor="start" x="68" y="117">&#45; description </text>
<text text-anchor="start" x="68" y="133">&#45; program </text>
<text text-anchor="start" x="68" y="149">&#45; programversion </text>
<text text-anchor="start" x="68" y="165">&#45; algorithm </text>
<text text-anchor="start" x="68" y="181">&#45; sourcename </text>
<text text-anchor="start" x="68" y="197">&#45; sourceversion </text>
<text text-anchor="start" x="68" y="213">&#45; sourceuri </text>
<text text-anchor="start" x="68" y="229">&#45; timeexecuted </text>
<text text-anchor="middle" x="132" y="245">}</text>
</g>
<!-- analysisprop -->
<g id="node2" class="node"><title>analysisprop</title>
<polygon style="fill:white;stroke:black;" points="451,272 647,272 647,184 451,184 451,272"/>
<text text-anchor="start" x="459" y="201">{analysisprop|&#45; analysisprop_id </text>
<text text-anchor="start" x="459" y="217">&#45; analysis_id </text>
<text text-anchor="start" x="459" y="233">&#45; type_id </text>
<text text-anchor="start" x="459" y="249">&#45; value </text>
<text text-anchor="middle" x="549" y="265">}</text>
</g>
<!-- analysis&#45;&gt;analysisprop -->
<g id="edge4" class="edge"><title>analysis&#45;&gt;analysisprop</title>
<path style="fill:none;stroke:black;" d="M205,172C270,183 367,198 441,210"/>
<polygon style="fill:black;stroke:black;" points="442,207 451,212 441,213 442,207"/>
</g>
<!-- analysisfeature -->
<g id="node3" class="node"><title>analysisfeature</title>
<polygon style="fill:white;stroke:black;" points="149,533 370,533 370,397 149,397 149,533"/>
<text text-anchor="start" x="157" y="414">{analysisfeature|&#45; analysisfeature_id </text>
<text text-anchor="start" x="157" y="430">&#45; feature_id </text>
<text text-anchor="start" x="157" y="446">&#45; analysis_id </text>
<text text-anchor="start" x="157" y="462">&#45; rawscore </text>
<text text-anchor="start" x="157" y="478">&#45; normscore </text>
<text text-anchor="start" x="157" y="494">&#45; significance </text>
<text text-anchor="start" x="157" y="510">&#45; identity </text>
<text text-anchor="middle" x="259" y="526">}</text>
</g>
<!-- analysis&#45;&gt;analysisfeature -->
<g id="edge2" class="edge"><title>analysis&#45;&gt;analysisfeature</title>
<path style="fill:none;stroke:black;" d="M170,252C189,296 210,346 227,388"/>
<polygon style="fill:black;stroke:black;" points="230,386 231,397 224,389 230,386"/>
</g>
</g>
</svg>
