<?xml version="1.0" encoding="UTF-8" standalone="no"?>
<!DOCTYPE svg PUBLIC "-//W3C//DTD SVG 1.1//EN"
 "http://www.w3.org/Graphics/SVG/1.1/DTD/svg11.dtd">
<!-- Generated by graphviz version 2.27.20091228.0545 (20091228.0545)
 -->
<!-- Title: test Pages: 1 -->
<svg width="542pt" height="451pt"
 viewBox="0.00 0.00 542.00 451.00" xmlns="http://www.w3.org/2000/svg" xmlns:xlink="http://www.w3.org/1999/xlink">
<g id="graph1" class="graph" transform="scale(1 1) rotate(0) translate(4 447)">
<title>test</title>
<polygon fill="lightgoldenrodyellow" stroke="lightgoldenrodyellow" points="-4,5 -4,-447 539,-447 539,5 -4,5"/>
<!-- node1 -->
<g id="node1" class="node"><title>node1</title>
<polygon fill="white" stroke="black" points="273,-209.5 273,-390.5 389,-390.5 389,-209.5 273,-209.5"/>
<text text-anchor="middle" x="331" y="-373.9" font-family="Times,serif" font-size="14.00">analysis</text>
<polyline fill="none" stroke="black" points="273,-367.5 389,-367.5 "/>
<text text-anchor="start" x="281" y="-350.9" font-family="Times,serif" font-size="14.00">&#45; analysis_id</text>
<text text-anchor="start" x="281" y="-335.9" font-family="Times,serif" font-size="14.00">&#45; name</text>
<text text-anchor="start" x="281" y="-320.9" font-family="Times,serif" font-size="14.00">&#45; description</text>
<text text-anchor="start" x="281" y="-305.9" font-family="Times,serif" font-size="14.00">&#45; program</text>
<text text-anchor="start" x="281" y="-290.9" font-family="Times,serif" font-size="14.00">&#45; programversion</text>
<text text-anchor="start" x="281" y="-275.9" font-family="Times,serif" font-size="14.00">&#45; algorithm</text>
<text text-anchor="start" x="281" y="-260.9" font-family="Times,serif" font-size="14.00">&#45; sourcename</text>
<text text-anchor="start" x="281" y="-245.9" font-family="Times,serif" font-size="14.00">&#45; sourceversion</text>
<text text-anchor="start" x="281" y="-230.9" font-family="Times,serif" font-size="14.00">&#45; sourceuri</text>
<text text-anchor="start" x="281" y="-215.9" font-family="Times,serif" font-size="14.00">&#45; timeexecuted</text>
</g>
<!-- node2 -->
<g id="node2" class="node"><title>node2</title>
<polygon fill="white" stroke="black" points="417,-209.5 417,-315.5 533,-315.5 533,-209.5 417,-209.5"/>
<text text-anchor="middle" x="475" y="-298.9" font-family="Times,serif" font-size="14.00">analysisprop</text>
<polyline fill="none" stroke="black" points="417,-292.5 533,-292.5 "/>
<text text-anchor="start" x="425" y="-275.9" font-family="Times,serif" font-size="14.00">&#45; analysisprop_id</text>
<text text-anchor="start" x="425" y="-260.9" font-family="Times,serif" font-size="14.00">&#45; analysis_id</text>
<text text-anchor="start" x="425" y="-245.9" font-family="Times,serif" font-size="14.00">&#45; type_id</text>
<text text-anchor="start" x="425" y="-230.9" font-family="Times,serif" font-size="14.00">&#45; value</text>
<text text-anchor="start" x="425" y="-215.9" font-family="Times,serif" font-size="14.00">&#45; rank</text>
</g>
<!-- node3 -->
<g id="node3" class="node"><title>node3</title>
<polygon fill="white" stroke="black" points="113,-305.5 113,-441.5 242,-441.5 242,-305.5 113,-305.5"/>
<text text-anchor="middle" x="177.5" y="-424.9" font-family="Times,serif" font-size="14.00">analysisfeature</text>
<polyline fill="none" stroke="black" points="113,-418.5 242,-418.5 "/>
<text text-anchor="start" x="121" y="-401.9" font-family="Times,serif" font-size="14.00">&#45; analysisfeature_id</text>
<text text-anchor="start" x="121" y="-386.9" font-family="Times,serif" font-size="14.00">&#45; feature_id</text>
<text text-anchor="start" x="121" y="-371.9" font-family="Times,serif" font-size="14.00">&#45; analysis_id</text>
<text text-anchor="start" x="121" y="-356.9" font-family="Times,serif" font-size="14.00">&#45; rawscore</text>
<text text-anchor="start" x="121" y="-341.9" font-family="Times,serif" font-size="14.00">&#45; normscore</text>
<text text-anchor="start" x="121" y="-326.9" font-family="Times,serif" font-size="14.00">&#45; significance</text>
<text text-anchor="start" x="121" y="-311.9" font-family="Times,serif" font-size="14.00">&#45; identity</text>
</g>
<!-- node4 -->
<g id="node4" class="node"><title>node4</title>
<polygon fill="white" stroke="black" points="241,-1.5 241,-107.5 396,-107.5 396,-1.5 241,-1.5"/>
<text text-anchor="middle" x="318.5" y="-90.9" font-family="Times,serif" font-size="14.00">analysisfeatureprop</text>
<polyline fill="none" stroke="black" points="241,-84.5 396,-84.5 "/>
<text text-anchor="start" x="249" y="-67.9" font-family="Times,serif" font-size="14.00">&#45; analysisfeatureprop_id</text>
<text text-anchor="start" x="249" y="-52.9" font-family="Times,serif" font-size="14.00">&#45; analysisfeature_id</text>
<text text-anchor="start" x="249" y="-37.9" font-family="Times,serif" font-size="14.00">&#45; type_id</text>
<text text-anchor="start" x="249" y="-22.9" font-family="Times,serif" font-size="14.00">&#45; value</text>
<text text-anchor="start" x="249" y="-7.9" font-family="Times,serif" font-size="14.00">&#45; rank</text>
</g>
<!-- analysis -->
<g id="node5" class="node"><title>analysis</title>
<polygon fill="white" stroke="black" points="261.804,-145.5 261.804,-181.5 323.804,-181.5 323.804,-145.5 261.804,-145.5"/>
<text text-anchor="middle" x="292.804" y="-158.4" font-family="Times,serif" font-size="14.00">analysis</text>
</g>
<!-- analysisprop -->
<g id="node6" class="node"><title>analysisprop</title>
<polygon fill="white" stroke="black" points="366.97,-145.5 366.97,-181.5 454.97,-181.5 454.97,-145.5 366.97,-145.5"/>
<text text-anchor="middle" x="410.97" y="-158.4" font-family="Times,serif" font-size="14.00">analysisprop</text>
</g>
<!-- analysis&#45;&gt;analysisprop -->
<g id="edge4" class="edge"><title>analysis&#45;&gt;analysisprop</title>
<path fill="none" stroke="black" d="M323.851,-163.5C333.903,-163.5 345.364,-163.5 356.597,-163.5"/>
<polygon fill="black" stroke="black" points="356.801,-167 366.801,-163.5 356.801,-160 356.801,-167"/>
</g>
<!-- analysisfeature -->
<g id="node7" class="node"><title>analysisfeature</title>
<polygon fill="white" stroke="black" points="136.932,-145.5 136.932,-181.5 237.932,-181.5 237.932,-145.5 136.932,-145.5"/>
<text text-anchor="middle" x="187.432" y="-158.4" font-family="Times,serif" font-size="14.00">analysisfeature</text>
</g>
<!-- analysis&#45;&gt;analysisfeature -->
<g id="edge2" class="edge"><title>analysis&#45;&gt;analysisfeature</title>
<path fill="none" stroke="black" d="M261.759,-163.5C257.477,-163.5 252.965,-163.5 248.366,-163.5"/>
<polygon fill="black" stroke="black" points="248.218,-160 238.218,-163.5 248.218,-167 248.218,-160"/>
</g>
<!-- analysisfeatureprop -->
<g id="node8" class="node"><title>analysisfeatureprop</title>
<polygon fill="white" stroke="black" points="1,-145.5 1,-181.5 128,-181.5 128,-145.5 1,-145.5"/>
<text text-anchor="middle" x="64.5" y="-158.4" font-family="Times,serif" font-size="14.00">analysisfeatureprop</text>
</g>
<!-- analysisfeature&#45;&gt;analysisfeatureprop -->
<g id="edge6" class="edge"><title>analysisfeature&#45;&gt;analysisfeatureprop</title>
<path fill="none" stroke="black" d="M136.721,-163.5C136.635,-163.5 136.548,-163.5 136.461,-163.5"/>
<polygon fill="black" stroke="black" points="138.321,-160 128.321,-163.5 138.321,-167 138.321,-160"/>
</g>
</g>
</svg>
