<?xml version="1.0" encoding="UTF-8" standalone="no"?>
<!DOCTYPE svg PUBLIC "-//W3C//DTD SVG 1.0//EN"
 "http://www.w3.org/TR/2001/REC-SVG-20010904/DTD/svg10.dtd" [
 <!ATTLIST svg xmlns:xlink CDATA #FIXED "http://www.w3.org/1999/xlink">
]>
<!-- Generated by Graphviz version 2.20.2 (Wed Sep 16 11:12:11 UTC 2009)
     For user: (cain) Scott Cain,,, -->
<!-- Title: test Pages: 1 -->
<svg width="623pt" height="392pt"
 viewBox="0.00 0.00 623.00 392.00" xmlns="http://www.w3.org/2000/svg" xmlns:xlink="http://www.w3.org/1999/xlink">
<g id="graph0" class="graph" transform="scale(1 1) rotate(0) translate(4 388)">
<title>test</title>
<polygon style="fill:lightgoldenrodyellow;stroke:lightgoldenrodyellow;" points="-4,4 -4,-388 619,-388 619,4 -4,4"/>
<!-- node1 -->
<g id="node1" class="node"><title>node1</title>
<polygon style="fill:white;stroke:black;" points="281,-180 281,-383 415,-383 415,-180 281,-180"/>
<text text-anchor="middle" x="348" y="-365.9" style="font-family:Times New Roman;font-size:14.00;">analysis</text>
<polyline style="fill:none;stroke:black;" points="281,-358 415,-358 "/>
<text text-anchor="start" x="289" y="-341.4" style="font-family:Times New Roman;font-size:14.00;">&#45; analysis_id</text>
<text text-anchor="start" x="289" y="-324.4" style="font-family:Times New Roman;font-size:14.00;">&#45; name</text>
<text text-anchor="start" x="289" y="-307.4" style="font-family:Times New Roman;font-size:14.00;">&#45; description</text>
<text text-anchor="start" x="289" y="-290.4" style="font-family:Times New Roman;font-size:14.00;">&#45; program</text>
<text text-anchor="start" x="289" y="-273.4" style="font-family:Times New Roman;font-size:14.00;">&#45; programversion</text>
<text text-anchor="start" x="289" y="-256.4" style="font-family:Times New Roman;font-size:14.00;">&#45; algorithm</text>
<text text-anchor="start" x="289" y="-239.4" style="font-family:Times New Roman;font-size:14.00;">&#45; sourcename</text>
<text text-anchor="start" x="289" y="-222.4" style="font-family:Times New Roman;font-size:14.00;">&#45; sourceversion</text>
<text text-anchor="start" x="289" y="-205.4" style="font-family:Times New Roman;font-size:14.00;">&#45; sourceuri</text>
<text text-anchor="start" x="289" y="-188.4" style="font-family:Times New Roman;font-size:14.00;">&#45; timeexecuted</text>
</g>
<!-- node2 -->
<g id="node2" class="node"><title>node2</title>
<polygon style="fill:white;stroke:black;" points="484,-108 484,-226 615,-226 615,-108 484,-108"/>
<text text-anchor="middle" x="549" y="-208.9" style="font-family:Times New Roman;font-size:14.00;">analysisprop</text>
<polyline style="fill:none;stroke:black;" points="484,-201 615,-201 "/>
<text text-anchor="start" x="491.5" y="-183.9" style="font-family:Times New Roman;font-size:14.00;">&#45; analysisprop_id</text>
<text text-anchor="start" x="491.5" y="-166.9" style="font-family:Times New Roman;font-size:14.00;">&#45; analysis_id</text>
<text text-anchor="start" x="491.5" y="-149.9" style="font-family:Times New Roman;font-size:14.00;">&#45; type_id</text>
<text text-anchor="start" x="491.5" y="-132.9" style="font-family:Times New Roman;font-size:14.00;">&#45; value</text>
<text text-anchor="start" x="491.5" y="-115.9" style="font-family:Times New Roman;font-size:14.00;">&#45; rank</text>
</g>
<!-- node1&#45;&gt;node2 -->
<g id="edge4" class="edge"><title>node1&#45;&gt;node2</title>
<path style="fill:none;stroke:black;" d="M415,-244C434,-233 456,-221 475,-209"/>
<polygon style="fill:black;stroke:black;" points="476.958,-211.916 484,-204 473.559,-205.797 476.958,-211.916"/>
</g>
<!-- node3 -->
<g id="node3" class="node"><title>node3</title>
<polygon style="fill:white;stroke:black;" points="217,-1 217,-153 367,-153 367,-1 217,-1"/>
<text text-anchor="middle" x="292" y="-135.9" style="font-family:Times New Roman;font-size:14.00;">analysisfeature</text>
<polyline style="fill:none;stroke:black;" points="217,-128 367,-128 "/>
<text text-anchor="start" x="225" y="-110.9" style="font-family:Times New Roman;font-size:14.00;">&#45; analysisfeature_id</text>
<text text-anchor="start" x="225" y="-93.9" style="font-family:Times New Roman;font-size:14.00;">&#45; feature_id</text>
<text text-anchor="start" x="225" y="-76.9" style="font-family:Times New Roman;font-size:14.00;">&#45; analysis_id</text>
<text text-anchor="start" x="225" y="-59.9" style="font-family:Times New Roman;font-size:14.00;">&#45; rawscore</text>
<text text-anchor="start" x="225" y="-42.9" style="font-family:Times New Roman;font-size:14.00;">&#45; normscore</text>
<text text-anchor="start" x="225" y="-25.9" style="font-family:Times New Roman;font-size:14.00;">&#45; significance</text>
<text text-anchor="start" x="225" y="-8.9" style="font-family:Times New Roman;font-size:14.00;">&#45; identity</text>
</g>
<!-- node1&#45;&gt;node3 -->
<g id="edge2" class="edge"><title>node1&#45;&gt;node3</title>
<path style="fill:none;stroke:black;" d="M320,-180C319,-174 317,-168 315,-163"/>
<polygon style="fill:black;stroke:black;" points="318.393,-162.119 313,-153 311.529,-163.492 318.393,-162.119"/>
</g>
<!-- node4 -->
<g id="node4" class="node"><title>node4</title>
<polygon style="fill:white;stroke:black;" points="1,-133 1,-251 182,-251 182,-133 1,-133"/>
<text text-anchor="middle" x="91" y="-233.9" style="font-family:Times New Roman;font-size:14.00;">analysisfeatureprop</text>
<polyline style="fill:none;stroke:black;" points="1,-226 182,-226 "/>
<text text-anchor="start" x="8.5" y="-208.9" style="font-family:Times New Roman;font-size:14.00;">&#45; analysisfeatureprop_id</text>
<text text-anchor="start" x="8.5" y="-191.9" style="font-family:Times New Roman;font-size:14.00;">&#45; analysisfeature_id</text>
<text text-anchor="start" x="8.5" y="-174.9" style="font-family:Times New Roman;font-size:14.00;">&#45; type_id</text>
<text text-anchor="start" x="8.5" y="-157.9" style="font-family:Times New Roman;font-size:14.00;">&#45; value</text>
<text text-anchor="start" x="8.5" y="-140.9" style="font-family:Times New Roman;font-size:14.00;">&#45; rank</text>
</g>
<!-- node3&#45;&gt;node4 -->
<g id="edge6" class="edge"><title>node3&#45;&gt;node4</title>
<path style="fill:none;stroke:black;" d="M217,-120C209,-125 200,-130 191,-135"/>
<polygon style="fill:black;stroke:black;" points="189.042,-132.084 182,-140 192.441,-138.203 189.042,-132.084"/>
</g>
</g>
</svg>
