<?xml version="1.0" encoding="UTF-8" standalone="no"?>
<!DOCTYPE svg PUBLIC "-//W3C//DTD SVG 1.0//EN"
 "http://www.w3.org/TR/2001/REC-SVG-20010904/DTD/svg10.dtd">
<!-- Generated by neato version 1.10 (Tue Nov 11 16:12:26 EST 2003)
     For user: (allenday) Allen Day   Title: test    Pages: 1 -->
<svg width="975px" height="782px"
 viewBox = "-1 -1 731 586"
 xmlns="http://www.w3.org/2000/svg">
<g id="graph0" class="graph" style="font-family:Times-Roman;font-size:14.00;">
<title>test</title>
<polygon style="fill:white;stroke:white;" points="0,584 0,-1 730,-1 730,584 0,584"/>
<g id="node1" class="node"><title>analysis</title>
<polygon style="fill:white;stroke:black;" points="297,367 420,367 420,183 297,183 297,367"/>
<text text-anchor="middle" x="358" y="198">analysis</text>
<polyline style="fill:none;stroke:black;" points="297,203 420,203 "/>
<text text-anchor="start" x="297" y="218">analysis_id</text>
<text text-anchor="start" x="297" y="234">name</text>
<text text-anchor="start" x="297" y="250">description</text>
<text text-anchor="start" x="297" y="266">program</text>
<text text-anchor="start" x="297" y="282">programversion</text>
<text text-anchor="start" x="297" y="298">algorithm</text>
<text text-anchor="start" x="297" y="314">sourcename</text>
<text text-anchor="start" x="297" y="330">sourceversion</text>
<text text-anchor="start" x="297" y="346">sourceuri</text>
<text text-anchor="middle" x="358" y="362">timeexecuted</text>
</g>
<g id="node2" class="node"><title>analysisprop</title>
<polygon style="fill:white;stroke:black;" points="302,106 424,106 424,18 302,18 302,106"/>
<text text-anchor="middle" x="363" y="33">analysisprop</text>
<polyline style="fill:none;stroke:black;" points="302,38 424,38 "/>
<text text-anchor="start" x="302" y="53">analysisprop_id</text>
<text text-anchor="start" x="302" y="69">analysis_id</text>
<text text-anchor="start" x="302" y="85">type_id</text>
<text text-anchor="middle" x="363" y="101">value</text>
</g>
<g id="edge4" class="edge"><title>analysis-&gt;analysisprop</title>
<path style="fill:none;stroke:black;" d="M360,183C361,160 361,137 362,114"/>
<polygon style="fill:black;stroke:black;" points="360,116 362,106 365,116 360,116"/>
</g>
<g id="node3" class="node"><title>analysisfeature</title>
<polygon style="fill:white;stroke:black;" points="293,557 433,557 433,421 293,421 293,557"/>
<text text-anchor="middle" x="363" y="436">analysisfeature</text>
<polyline style="fill:none;stroke:black;" points="293,441 433,441 "/>
<text text-anchor="start" x="293" y="456">analysisfeature_id</text>
<text text-anchor="start" x="293" y="472">feature_id</text>
<text text-anchor="start" x="293" y="488">analysis_id</text>
<text text-anchor="start" x="293" y="504">rawscore</text>
<text text-anchor="start" x="293" y="520">normscore</text>
<text text-anchor="start" x="293" y="536">significance</text>
<text text-anchor="middle" x="363" y="552">identity</text>
</g>
<g id="edge2" class="edge"><title>analysis-&gt;analysisfeature</title>
<path style="fill:none;stroke:black;" d="M360,367C360,382 361,396 361,411"/>
<polygon style="fill:black;stroke:black;" points="364,411 361,421 359,411 364,411"/>
</g>
</g></svg>
