<?xml version="1.0" encoding="UTF-8" standalone="no"?>
<!DOCTYPE svg PUBLIC "-//W3C//DTD SVG 1.1//EN"
 "http://www.w3.org/Graphics/SVG/1.1/DTD/svg11.dtd">
<!-- Generated by graphviz version 2.27.20091228.0545 (20091228.0545)
 -->
<!-- Title: test Pages: 1 -->
<svg width="589pt" height="661pt"
 viewBox="0.00 0.00 589.00 661.00" xmlns="http://www.w3.org/2000/svg" xmlns:xlink="http://www.w3.org/1999/xlink">
<g id="graph1" class="graph" transform="scale(1 1) rotate(0) translate(4 657)">
<title>test</title>
<polygon fill="lightgoldenrodyellow" stroke="lightgoldenrodyellow" points="-4,5 -4,-657 586,-657 586,5 -4,5"/>
<!-- node1 -->
<g id="node1" class="node"><title>node1</title>
<polygon fill="white" stroke="black" points="1,-18.5 1,-94.5 84,-94.5 84,-18.5 1,-18.5"/>
<text text-anchor="middle" x="42.5" y="-77.9" font-family="Times,serif" font-size="14.00">cv</text>
<polyline fill="none" stroke="black" points="1,-71.5 84,-71.5 "/>
<text text-anchor="start" x="9" y="-54.9" font-family="Times,serif" font-size="14.00">&#45; cv_id</text>
<text text-anchor="start" x="9" y="-39.9" font-family="Times,serif" font-size="14.00">&#45; name</text>
<text text-anchor="start" x="9" y="-24.9" font-family="Times,serif" font-size="14.00">&#45; definition</text>
</g>
<!-- node2 -->
<g id="node2" class="node"><title>node2</title>
<polygon fill="white" stroke="black" points="392,-409.5 392,-545.5 526,-545.5 526,-409.5 392,-409.5"/>
<text text-anchor="middle" x="459" y="-528.9" font-family="Times,serif" font-size="14.00">cvterm</text>
<polyline fill="none" stroke="black" points="392,-522.5 526,-522.5 "/>
<text text-anchor="start" x="400" y="-505.9" font-family="Times,serif" font-size="14.00">&#45; cvterm_id</text>
<text text-anchor="start" x="400" y="-490.9" font-family="Times,serif" font-size="14.00">&#45; cv_id</text>
<text text-anchor="start" x="400" y="-475.9" font-family="Times,serif" font-size="14.00">&#45; name</text>
<text text-anchor="start" x="400" y="-460.9" font-family="Times,serif" font-size="14.00">&#45; definition</text>
<text text-anchor="start" x="400" y="-445.9" font-family="Times,serif" font-size="14.00">&#45; dbxref_id</text>
<text text-anchor="start" x="400" y="-430.9" font-family="Times,serif" font-size="14.00">&#45; is_obsolete</text>
<text text-anchor="start" x="400" y="-415.9" font-family="Times,serif" font-size="14.00">&#45; is_relationshiptype</text>
</g>
<!-- node3 -->
<g id="node3" class="node"><title>node3</title>
<polygon fill="white" stroke="black" points="205,-426.5 205,-517.5 363,-517.5 363,-426.5 205,-426.5"/>
<text text-anchor="middle" x="284" y="-500.9" font-family="Times,serif" font-size="14.00">cvterm_relationship</text>
<polyline fill="none" stroke="black" points="205,-494.5 363,-494.5 "/>
<text text-anchor="start" x="213" y="-477.9" font-family="Times,serif" font-size="14.00">&#45; cvterm_relationship_id</text>
<text text-anchor="start" x="213" y="-462.9" font-family="Times,serif" font-size="14.00">&#45; type_id</text>
<text text-anchor="start" x="213" y="-447.9" font-family="Times,serif" font-size="14.00">&#45; subject_id</text>
<text text-anchor="start" x="213" y="-432.9" font-family="Times,serif" font-size="14.00">&#45; object_id</text>
</g>
<!-- node4 -->
<g id="node4" class="node"><title>node4</title>
<polygon fill="white" stroke="black" points="69,-460.5 69,-581.5 176,-581.5 176,-460.5 69,-460.5"/>
<text text-anchor="middle" x="122.5" y="-564.9" font-family="Times,serif" font-size="14.00">cvtermpath</text>
<polyline fill="none" stroke="black" points="69,-558.5 176,-558.5 "/>
<text text-anchor="start" x="77" y="-541.9" font-family="Times,serif" font-size="14.00">&#45; cvtermpath_id</text>
<text text-anchor="start" x="77" y="-526.9" font-family="Times,serif" font-size="14.00">&#45; type_id</text>
<text text-anchor="start" x="77" y="-511.9" font-family="Times,serif" font-size="14.00">&#45; subject_id</text>
<text text-anchor="start" x="77" y="-496.9" font-family="Times,serif" font-size="14.00">&#45; object_id</text>
<text text-anchor="start" x="77" y="-481.9" font-family="Times,serif" font-size="14.00">&#45; cv_id</text>
<text text-anchor="start" x="77" y="-466.9" font-family="Times,serif" font-size="14.00">&#45; pathdistance</text>
</g>
<!-- node5 -->
<g id="node5" class="node"><title>node5</title>
<polygon fill="white" stroke="black" points="443,-86.5 443,-177.5 580,-177.5 580,-86.5 443,-86.5"/>
<text text-anchor="middle" x="511.5" y="-160.9" font-family="Times,serif" font-size="14.00">cvtermsynonym</text>
<polyline fill="none" stroke="black" points="443,-154.5 580,-154.5 "/>
<text text-anchor="start" x="451" y="-137.9" font-family="Times,serif" font-size="14.00">&#45; cvtermsynonym_id</text>
<text text-anchor="start" x="451" y="-122.9" font-family="Times,serif" font-size="14.00">&#45; cvterm_id</text>
<text text-anchor="start" x="451" y="-107.9" font-family="Times,serif" font-size="14.00">&#45; synonym</text>
<text text-anchor="start" x="451" y="-92.9" font-family="Times,serif" font-size="14.00">&#45; type_id</text>
</g>
<!-- node6 -->
<g id="node6" class="node"><title>node6</title>
<polygon fill="white" stroke="black" points="443,-205.5 443,-296.5 571,-296.5 571,-205.5 443,-205.5"/>
<text text-anchor="middle" x="507" y="-279.9" font-family="Times,serif" font-size="14.00">cvterm_dbxref</text>
<polyline fill="none" stroke="black" points="443,-273.5 571,-273.5 "/>
<text text-anchor="start" x="451" y="-256.9" font-family="Times,serif" font-size="14.00">&#45; cvterm_dbxref_id</text>
<text text-anchor="start" x="451" y="-241.9" font-family="Times,serif" font-size="14.00">&#45; cvterm_id</text>
<text text-anchor="start" x="451" y="-226.9" font-family="Times,serif" font-size="14.00">&#45; dbxref_id</text>
<text text-anchor="start" x="451" y="-211.9" font-family="Times,serif" font-size="14.00">&#45; is_for_definition</text>
</g>
<!-- node7 -->
<g id="node7" class="node"><title>node7</title>
<polygon fill="white" stroke="black" points="256,-1.5 256,-107.5 366,-107.5 366,-1.5 256,-1.5"/>
<text text-anchor="middle" x="311" y="-90.9" font-family="Times,serif" font-size="14.00">cvtermprop</text>
<polyline fill="none" stroke="black" points="256,-84.5 366,-84.5 "/>
<text text-anchor="start" x="264" y="-67.9" font-family="Times,serif" font-size="14.00">&#45; cvtermprop_id</text>
<text text-anchor="start" x="264" y="-52.9" font-family="Times,serif" font-size="14.00">&#45; cvterm_id</text>
<text text-anchor="start" x="264" y="-37.9" font-family="Times,serif" font-size="14.00">&#45; type_id</text>
<text text-anchor="start" x="264" y="-22.9" font-family="Times,serif" font-size="14.00">&#45; value</text>
<text text-anchor="start" x="264" y="-7.9" font-family="Times,serif" font-size="14.00">&#45; rank</text>
</g>
<!-- node8 -->
<g id="node8" class="node"><title>node8</title>
<polygon fill="white" stroke="black" points="256,-545.5 256,-651.5 363,-651.5 363,-545.5 256,-545.5"/>
<text text-anchor="middle" x="309.5" y="-634.9" font-family="Times,serif" font-size="14.00">dbxrefprop</text>
<polyline fill="none" stroke="black" points="256,-628.5 363,-628.5 "/>
<text text-anchor="start" x="264" y="-611.9" font-family="Times,serif" font-size="14.00">&#45; dbxrefprop_id</text>
<text text-anchor="start" x="264" y="-596.9" font-family="Times,serif" font-size="14.00">&#45; dbxref_id</text>
<text text-anchor="start" x="264" y="-581.9" font-family="Times,serif" font-size="14.00">&#45; type_id</text>
<text text-anchor="start" x="264" y="-566.9" font-family="Times,serif" font-size="14.00">&#45; value</text>
<text text-anchor="start" x="264" y="-551.9" font-family="Times,serif" font-size="14.00">&#45; rank</text>
</g>
<!-- cv -->
<g id="node9" class="node"><title>cv</title>
<polygon fill="white" stroke="black" points="71.2679,-251.468 71.2679,-287.468 125.268,-287.468 125.268,-251.468 71.2679,-251.468"/>
<text text-anchor="middle" x="98.2679" y="-264.368" font-family="Times,serif" font-size="14.00">cv</text>
</g>
<!-- cvterm -->
<g id="node10" class="node"><title>cvterm</title>
<polygon fill="white" stroke="black" points="204.674,-249.384 204.674,-285.384 260.674,-285.384 260.674,-249.384 204.674,-249.384"/>
<text text-anchor="middle" x="232.674" y="-262.284" font-family="Times,serif" font-size="14.00">cvterm</text>
</g>
<!-- cv&#45;&gt;cvterm -->
<g id="edge2" class="edge"><title>cv&#45;&gt;cvterm</title>
<path fill="none" stroke="black" d="M125.467,-269.046C145.333,-268.738 172.531,-268.316 194.562,-267.975"/>
<polygon fill="black" stroke="black" points="194.645,-271.474 204.59,-267.819 194.537,-264.475 194.645,-271.474"/>
</g>
<!-- cvtermpath -->
<g id="node12" class="node"><title>cvtermpath</title>
<polygon fill="white" stroke="black" points="69.1328,-360.209 69.1328,-396.209 149.133,-396.209 149.133,-360.209 69.1328,-360.209"/>
<text text-anchor="middle" x="109.133" y="-373.109" font-family="Times,serif" font-size="14.00">cvtermpath</text>
</g>
<!-- cv&#45;&gt;cvtermpath -->
<g id="edge4" class="edge"><title>cv&#45;&gt;cvtermpath</title>
<path fill="none" stroke="black" d="M100.111,-287.914C101.807,-304.888 104.348,-330.317 106.301,-349.869"/>
<polygon fill="black" stroke="black" points="102.84,-350.432 107.317,-360.035 109.805,-349.736 102.84,-350.432"/>
</g>
<!-- cvterm_relationship -->
<g id="node11" class="node"><title>cvterm_relationship</title>
<polygon fill="white" stroke="black" points="180.838,-137.5 180.838,-173.5 311.838,-173.5 311.838,-137.5 180.838,-137.5"/>
<text text-anchor="middle" x="246.338" y="-150.4" font-family="Times,serif" font-size="14.00">cvterm_relationship</text>
</g>
<!-- cvterm&#45;&gt;cvterm_relationship -->
<g id="edge8" class="edge"><title>cvterm&#45;&gt;cvterm_relationship</title>
<path fill="none" stroke="black" d="M234.93,-248.909C237.099,-231.15 240.407,-204.068 242.903,-183.629"/>
<polygon fill="black" stroke="black" points="246.386,-183.982 244.124,-173.632 239.437,-183.133 246.386,-183.982"/>
</g>
<!-- cvterm&#45;&gt;cvtermpath -->
<g id="edge10" class="edge"><title>cvterm&#45;&gt;cvtermpath</title>
<path fill="none" stroke="black" d="M212.55,-285.436C192,-303.871 159.938,-332.633 136.962,-353.244"/>
<polygon fill="none" stroke="black" points="134.355,-350.881 129.248,-360.164 139.029,-356.092 134.355,-350.881"/>
</g>
<!-- cvtermsynonym -->
<g id="node13" class="node"><title>cvtermsynonym</title>
<polygon fill="white" stroke="black" points="309.926,-333.403 309.926,-369.403 418.926,-369.403 418.926,-333.403 309.926,-333.403"/>
<text text-anchor="middle" x="364.426" y="-346.303" font-family="Times,serif" font-size="14.00">cvtermsynonym</text>
</g>
<!-- cvterm&#45;&gt;cvtermsynonym -->
<g id="edge14" class="edge"><title>cvterm&#45;&gt;cvtermsynonym</title>
<path fill="none" stroke="black" d="M260.938,-285.408C280.257,-297.728 306.065,-314.186 327.076,-327.585"/>
<polygon fill="black" stroke="black" points="325.44,-330.693 335.754,-333.118 329.204,-324.791 325.44,-330.693"/>
</g>
<!-- cvterm_dbxref -->
<g id="node14" class="node"><title>cvterm_dbxref</title>
<polygon fill="white" stroke="black" points="193.008,-361.76 193.008,-397.76 293.008,-397.76 293.008,-361.76 193.008,-361.76"/>
<text text-anchor="middle" x="243.008" y="-374.66" font-family="Times,serif" font-size="14.00">cvterm_dbxref</text>
</g>
<!-- cvterm&#45;&gt;cvterm_dbxref -->
<g id="edge6" class="edge"><title>cvterm&#45;&gt;cvterm_dbxref</title>
<path fill="none" stroke="black" d="M234.334,-285.439C235.976,-303.297 238.513,-330.884 240.42,-351.619"/>
<polygon fill="black" stroke="black" points="236.951,-352.112 241.352,-361.749 243.921,-351.471 236.951,-352.112"/>
</g>
<!-- cvtermprop -->
<g id="node15" class="node"><title>cvtermprop</title>
<polygon fill="white" stroke="black" points="69,-141.592 69,-177.592 151,-177.592 151,-141.592 69,-141.592"/>
<text text-anchor="middle" x="110" y="-154.492" font-family="Times,serif" font-size="14.00">cvtermprop</text>
</g>
<!-- cvterm&#45;&gt;cvtermprop -->
<g id="edge12" class="edge"><title>cvterm&#45;&gt;cvtermprop</title>
<path fill="none" stroke="black" d="M212.141,-249.342C191.884,-231.543 160.762,-204.196 138.194,-184.366"/>
<polygon fill="black" stroke="black" points="140.422,-181.665 130.6,-177.693 135.802,-186.923 140.422,-181.665"/>
</g>
<!-- dbxrefprop -->
<g id="node16" class="node"><title>dbxrefprop</title>
<polygon fill="white" stroke="black" points="326.305,-169.942 326.305,-205.942 405.305,-205.942 405.305,-169.942 326.305,-169.942"/>
<text text-anchor="middle" x="365.805" y="-182.842" font-family="Times,serif" font-size="14.00">dbxrefprop</text>
</g>
<!-- cvterm&#45;&gt;dbxrefprop -->
<g id="edge16" class="edge"><title>cvterm&#45;&gt;dbxrefprop</title>
<path fill="none" stroke="black" d="M260.907,-250.536C280.008,-239.138 305.497,-223.929 326.566,-211.357"/>
<polygon fill="black" stroke="black" points="328.499,-214.279 335.293,-206.149 324.912,-208.268 328.499,-214.279"/>
</g>
</g>
</svg>
