<?xml version="1.0" encoding="UTF-8" standalone="no"?>
<!DOCTYPE svg PUBLIC "-//W3C//DTD SVG 1.0//EN"
 "http://www.w3.org/TR/2001/REC-SVG-20010904/DTD/svg10.dtd">
<!-- Generated by neato version 1.10 (Tue Nov 11 16:12:26 EST 2003)
     For user: (allenday) Allen Day   Title: test    Pages: 1 -->
<svg width="975px" height="783px"
 viewBox = "-1 -1 731 587"
 xmlns="http://www.w3.org/2000/svg">
<g id="graph0" class="graph" style="font-family:Times-Roman;font-size:14.00;">
<title>test</title>
<polygon style="fill:white;stroke:white;" points="0,585 0,-1 730,-1 730,585 0,585"/>
<g id="node1" class="node"><title>cv</title>
<polygon style="fill:white;stroke:black;" points="38,340 119,340 119,268 38,268 38,340"/>
<text text-anchor="middle" x="78" y="283">cv</text>
<polyline style="fill:none;stroke:black;" points="38,288 119,288 "/>
<text text-anchor="start" x="38" y="303">cv_id</text>
<text text-anchor="start" x="38" y="319">name</text>
<text text-anchor="middle" x="78" y="335">definition</text>
</g>
<g id="node2" class="node"><title>cvterm</title>
<polygon style="fill:white;stroke:black;" points="290,351 375,351 375,247 290,247 290,351"/>
<text text-anchor="middle" x="332" y="262">cvterm</text>
<polyline style="fill:none;stroke:black;" points="290,267 375,267 "/>
<text text-anchor="start" x="290" y="282">cvterm_id</text>
<text text-anchor="start" x="290" y="298">cv_id</text>
<text text-anchor="start" x="290" y="314">name</text>
<text text-anchor="start" x="290" y="330">definition</text>
<text text-anchor="middle" x="332" y="346">dbxref_id</text>
</g>
<g id="edge2" class="edge"><title>cv-&gt;cvterm</title>
<path style="fill:none;stroke:black;" d="M119,303C173,302 227,301 280,300"/>
<polygon style="fill:black;stroke:black;" points="279,297 289,300 279,302 279,297"/>
</g>
<g id="node4" class="node"><title>cvtermpath</title>
<polygon style="fill:white;stroke:black;" points="88,163 204,163 204,43 88,43 88,163"/>
<text text-anchor="middle" x="146" y="58">cvtermpath</text>
<polyline style="fill:none;stroke:black;" points="88,63 204,63 "/>
<text text-anchor="start" x="88" y="78">cvtermpath_id</text>
<text text-anchor="start" x="88" y="94">type_id</text>
<text text-anchor="start" x="88" y="110">subject_id</text>
<text text-anchor="start" x="88" y="126">object_id</text>
<text text-anchor="start" x="88" y="142">cv_id</text>
<text text-anchor="middle" x="146" y="158">pathdistance</text>
</g>
<g id="edge4" class="edge"><title>cv-&gt;cvtermpath</title>
<path style="fill:none;stroke:black;" d="M90,268C101,236 112,204 123,172"/>
<polygon style="fill:black;stroke:black;" points="120,172 126,163 125,173 120,172"/>
</g>
<g id="node3" class="node"><title>cvterm_relationship</title>
<polygon style="fill:white;stroke:black;" points="433,527 608,527 608,439 433,439 433,527"/>
<text text-anchor="middle" x="520" y="454">cvterm_relationship</text>
<polyline style="fill:none;stroke:black;" points="433,459 608,459 "/>
<text text-anchor="start" x="433" y="474">cvterm_relationship_id</text>
<text text-anchor="start" x="433" y="490">type_id</text>
<text text-anchor="start" x="433" y="506">subject_id</text>
<text text-anchor="middle" x="520" y="522">object_id</text>
</g>
<g id="edge8" class="edge"><title>cvterm-&gt;cvterm_relationship</title>
<path style="fill:none;stroke:black;" d="M375,341C406,371 438,402 468,433"/>
<polygon style="fill:black;stroke:black;" points="469,431 475,439 466,434 469,431"/>
</g>
<g id="edge10" class="edge"><title>cvterm-&gt;cvtermpath</title>
<path style="fill:none;stroke:black;" d="M289,254C263,226 236,198 209,170"/>
<polygon style="fill:black;stroke:black;" points="208,172 203,163 211,169 208,172"/>
</g>
<g id="node5" class="node"><title>cvtermsynonym</title>
<polygon style="fill:white;stroke:black;" points="515,301 665,301 665,229 515,229 515,301"/>
<text text-anchor="middle" x="590" y="244">cvtermsynonym</text>
<polyline style="fill:none;stroke:black;" points="515,249 665,249 "/>
<text text-anchor="start" x="515" y="264">cvtermsynonym_id</text>
<text text-anchor="start" x="515" y="280">cvterm_id</text>
<text text-anchor="middle" x="590" y="296">synonym</text>
</g>
<g id="edge12" class="edge"><title>cvterm-&gt;cvtermsynonym</title>
<path style="fill:none;stroke:black;" d="M375,293C418,287 462,282 507,276"/>
<polygon style="fill:black;stroke:black;" points="505,274 515,275 505,279 505,274"/>
</g>
<g id="node6" class="node"><title>cvterm_dbxref</title>
<polygon style="fill:white;stroke:black;" points="418,127 560,127 560,55 418,55 418,127"/>
<text text-anchor="middle" x="489" y="70">cvterm_dbxref</text>
<polyline style="fill:none;stroke:black;" points="418,75 560,75 "/>
<text text-anchor="start" x="418" y="90">cvterm_dbxref_id</text>
<text text-anchor="start" x="418" y="106">cvterm_id</text>
<text text-anchor="middle" x="489" y="122">dbxref_id</text>
</g>
<g id="edge6" class="edge"><title>cvterm-&gt;cvterm_dbxref</title>
<path style="fill:none;stroke:black;" d="M371,247C400,210 428,172 456,135"/>
<polygon style="fill:black;stroke:black;" points="454,134 462,127 458,137 454,134"/>
</g>
<g id="node7" class="node"><title>dbxrefprop</title>
<polygon style="fill:white;stroke:black;" points="103,546 219,546 219,442 103,442 103,546"/>
<text text-anchor="middle" x="161" y="457">dbxrefprop</text>
<polyline style="fill:none;stroke:black;" points="103,462 219,462 "/>
<text text-anchor="start" x="103" y="477">dbxrefprop_id</text>
<text text-anchor="start" x="103" y="493">dbxref_id</text>
<text text-anchor="start" x="103" y="509">type_id</text>
<text text-anchor="start" x="103" y="525">value</text>
<text text-anchor="middle" x="161" y="541">rank</text>
</g>
<g id="edge14" class="edge"><title>cvterm-&gt;dbxrefprop</title>
<path style="fill:none;stroke:black;" d="M289,348C264,376 239,405 214,434"/>
<polygon style="fill:black;stroke:black;" points="215,436 207,442 212,433 215,436"/>
</g>
</g></svg>
