<?xml version="1.0" encoding="UTF-8" standalone="no"?>
<!DOCTYPE svg PUBLIC "-//W3C//DTD SVG 1.0//EN"
 "http://www.w3.org/TR/2001/REC-SVG-20010904/DTD/svg10.dtd" [
 <!ATTLIST svg xmlns:xlink CDATA #FIXED "http://www.w3.org/1999/xlink">
]>
<!-- Generated by Graphviz version 2.12 (Tue Sep  4 16:56:48 UTC 2007)
     For user: (scott) Scott Cain,,, -->
<!-- Title: test Pages: 1 -->
<svg width="9.97in" height="7.99in"
 xmlns="http://www.w3.org/2000/svg" xmlns:xlink="http://www.w3.org/1999/xlink">
<g id="graph0" class="graph" transform="scale(1.31732 1.31732) rotate(0) translate(4 579)">
<title>test</title>
<polygon style="fill:white;stroke:white;" points="-4,4 -4,-579 723,-579 723,4 -4,4"/>
<!-- cv -->
<g id="node1" class="node"><title>cv</title>
<polygon style="fill:white;stroke:black;" points="55,-234 55,-330 139,-330 139,-234 55,-234"/>
<text text-anchor="middle" x="97" y="-312" style="font-family:Nimbus Roman No9 L;font-weight:regular;font-size:11.34pt;">cv</text>
<polyline style="fill:none;stroke:black;" points="55,-302 139,-302 "/>
<text text-anchor="start" x="63" y="-284" style="font-family:Nimbus Roman No9 L;font-weight:regular;font-size:11.34pt;">&#45; cv_id </text>
<text text-anchor="start" x="63" y="-264" style="font-family:Nimbus Roman No9 L;font-weight:regular;font-size:11.34pt;">&#45; name </text>
<text text-anchor="start" x="63" y="-244" style="font-family:Nimbus Roman No9 L;font-weight:regular;font-size:11.34pt;">&#45; definition </text>
</g>
<!-- cvterm -->
<g id="node2" class="node"><title>cvterm</title>
<polygon style="fill:white;stroke:black;" points="325,-194 325,-370 460,-370 460,-194 325,-194"/>
<text text-anchor="middle" x="392" y="-352" style="font-family:Nimbus Roman No9 L;font-weight:regular;font-size:11.34pt;">cvterm</text>
<polyline style="fill:none;stroke:black;" points="325,-342 460,-342 "/>
<text text-anchor="start" x="333" y="-324" style="font-family:Nimbus Roman No9 L;font-weight:regular;font-size:11.34pt;">&#45; cvterm_id </text>
<text text-anchor="start" x="333" y="-304" style="font-family:Nimbus Roman No9 L;font-weight:regular;font-size:11.34pt;">&#45; cv_id </text>
<text text-anchor="start" x="333" y="-284" style="font-family:Nimbus Roman No9 L;font-weight:regular;font-size:11.34pt;">&#45; name </text>
<text text-anchor="start" x="333" y="-264" style="font-family:Nimbus Roman No9 L;font-weight:regular;font-size:11.34pt;">&#45; definition </text>
<text text-anchor="start" x="333" y="-244" style="font-family:Nimbus Roman No9 L;font-weight:regular;font-size:11.34pt;">&#45; dbxref_id </text>
<text text-anchor="start" x="333" y="-224" style="font-family:Nimbus Roman No9 L;font-weight:regular;font-size:11.34pt;">&#45; is_obsolete </text>
<text text-anchor="start" x="333" y="-204" style="font-family:Nimbus Roman No9 L;font-weight:regular;font-size:11.34pt;">&#45; is_relationshiptype </text>
</g>
<!-- cv&#45;&gt;cvterm -->
<g id="edge2" class="edge"><title>cv&#45;&gt;cvterm</title>
<path style="fill:none;stroke:black;" d="M139,-282C185,-282 259,-282 315,-282"/>
<polygon style="fill:black;stroke:black;" points="315,-285.5 325,-282 315,-278.5 315,-285.5"/>
</g>
<!-- cvtermpath -->
<g id="node4" class="node"><title>cvtermpath</title>
<polygon style="fill:white;stroke:black;" points="28,-410 28,-566 138,-566 138,-410 28,-410"/>
<text text-anchor="middle" x="83" y="-548" style="font-family:Nimbus Roman No9 L;font-weight:regular;font-size:11.34pt;">cvtermpath</text>
<polyline style="fill:none;stroke:black;" points="28,-538 138,-538 "/>
<text text-anchor="start" x="36" y="-520" style="font-family:Nimbus Roman No9 L;font-weight:regular;font-size:11.34pt;">&#45; cvtermpath_id </text>
<text text-anchor="start" x="36" y="-500" style="font-family:Nimbus Roman No9 L;font-weight:regular;font-size:11.34pt;">&#45; type_id </text>
<text text-anchor="start" x="36" y="-480" style="font-family:Nimbus Roman No9 L;font-weight:regular;font-size:11.34pt;">&#45; subject_id </text>
<text text-anchor="start" x="36" y="-460" style="font-family:Nimbus Roman No9 L;font-weight:regular;font-size:11.34pt;">&#45; object_id </text>
<text text-anchor="start" x="36" y="-440" style="font-family:Nimbus Roman No9 L;font-weight:regular;font-size:11.34pt;">&#45; cv_id </text>
<text text-anchor="start" x="36" y="-420" style="font-family:Nimbus Roman No9 L;font-weight:regular;font-size:11.34pt;">&#45; pathdistance </text>
</g>
<!-- cv&#45;&gt;cvtermpath -->
<g id="edge4" class="edge"><title>cv&#45;&gt;cvtermpath</title>
<path style="fill:none;stroke:black;" d="M94,-330C92,-351 91,-376 89,-400"/>
<polygon style="fill:black;stroke:black;" points="85.5001,-400 89,-410 92.5001,-400 85.5001,-400"/>
</g>
<!-- cvterm_relationship -->
<g id="node3" class="node"><title>cvterm_relationship</title>
<polygon style="fill:white;stroke:black;" points="283,-10 283,-126 442,-126 442,-10 283,-10"/>
<text text-anchor="middle" x="362" y="-108" style="font-family:Nimbus Roman No9 L;font-weight:regular;font-size:11.34pt;">cvterm_relationship</text>
<polyline style="fill:none;stroke:black;" points="283,-98 442,-98 "/>
<text text-anchor="start" x="291" y="-80" style="font-family:Nimbus Roman No9 L;font-weight:regular;font-size:11.34pt;">&#45; cvterm_relationship_id </text>
<text text-anchor="start" x="291" y="-60" style="font-family:Nimbus Roman No9 L;font-weight:regular;font-size:11.34pt;">&#45; type_id </text>
<text text-anchor="start" x="291" y="-40" style="font-family:Nimbus Roman No9 L;font-weight:regular;font-size:11.34pt;">&#45; subject_id </text>
<text text-anchor="start" x="291" y="-20" style="font-family:Nimbus Roman No9 L;font-weight:regular;font-size:11.34pt;">&#45; object_id </text>
</g>
<!-- cvterm&#45;&gt;cvterm_relationship -->
<g id="edge8" class="edge"><title>cvterm&#45;&gt;cvterm_relationship</title>
<path style="fill:none;stroke:black;" d="M380,-194C377,-175 374,-154 371,-136"/>
<polygon style="fill:black;stroke:black;" points="374.478,-135.602 370,-126 367.512,-136.299 374.478,-135.602"/>
</g>
<!-- cvterm&#45;&gt;cvtermpath -->
<g id="edge10" class="edge"><title>cvterm&#45;&gt;cvtermpath</title>
<path style="fill:none;stroke:black;" d="M325,-327C272,-362 198,-411 146,-445"/>
<polygon style="fill:black;stroke:black;" points="143.9,-442.2 138,-451 148.1,-447.8 143.9,-442.2"/>
</g>
<!-- cvtermsynonym -->
<g id="node5" class="node"><title>cvtermsynonym</title>
<polygon style="fill:white;stroke:black;" points="550,-385 550,-501 687,-501 687,-385 550,-385"/>
<text text-anchor="middle" x="618" y="-483" style="font-family:Nimbus Roman No9 L;font-weight:regular;font-size:11.34pt;">cvtermsynonym</text>
<polyline style="fill:none;stroke:black;" points="550,-473 687,-473 "/>
<text text-anchor="start" x="558" y="-455" style="font-family:Nimbus Roman No9 L;font-weight:regular;font-size:11.34pt;">&#45; cvtermsynonym_id </text>
<text text-anchor="start" x="558" y="-435" style="font-family:Nimbus Roman No9 L;font-weight:regular;font-size:11.34pt;">&#45; cvterm_id </text>
<text text-anchor="start" x="558" y="-415" style="font-family:Nimbus Roman No9 L;font-weight:regular;font-size:11.34pt;">&#45; synonym </text>
<text text-anchor="start" x="558" y="-395" style="font-family:Nimbus Roman No9 L;font-weight:regular;font-size:11.34pt;">&#45; type_id </text>
</g>
<!-- cvterm&#45;&gt;cvtermsynonym -->
<g id="edge14" class="edge"><title>cvterm&#45;&gt;cvtermsynonym</title>
<path style="fill:none;stroke:black;" d="M460,-331C486,-349 515,-370 542,-388"/>
<polygon style="fill:black;stroke:black;" points="539.9,-390.8 550,-394 544.1,-385.2 539.9,-390.8"/>
</g>
<!-- cvterm_dbxref -->
<g id="node6" class="node"><title>cvterm_dbxref</title>
<polygon style="fill:white;stroke:black;" points="295,-438 295,-554 425,-554 425,-438 295,-438"/>
<text text-anchor="middle" x="360" y="-536" style="font-family:Nimbus Roman No9 L;font-weight:regular;font-size:11.34pt;">cvterm_dbxref</text>
<polyline style="fill:none;stroke:black;" points="295,-526 425,-526 "/>
<text text-anchor="start" x="303" y="-508" style="font-family:Nimbus Roman No9 L;font-weight:regular;font-size:11.34pt;">&#45; cvterm_dbxref_id </text>
<text text-anchor="start" x="303" y="-488" style="font-family:Nimbus Roman No9 L;font-weight:regular;font-size:11.34pt;">&#45; cvterm_id </text>
<text text-anchor="start" x="303" y="-468" style="font-family:Nimbus Roman No9 L;font-weight:regular;font-size:11.34pt;">&#45; dbxref_id </text>
<text text-anchor="start" x="303" y="-448" style="font-family:Nimbus Roman No9 L;font-weight:regular;font-size:11.34pt;">&#45; is_for_definition </text>
</g>
<!-- cvterm&#45;&gt;cvterm_dbxref -->
<g id="edge6" class="edge"><title>cvterm&#45;&gt;cvterm_dbxref</title>
<path style="fill:none;stroke:black;" d="M379,-370C376,-389 373,-410 370,-428"/>
<polygon style="fill:black;stroke:black;" points="366.512,-427.701 369,-438 373.478,-428.398 366.512,-427.701"/>
</g>
<!-- cvtermprop -->
<g id="node7" class="node"><title>cvtermprop</title>
<polygon style="fill:white;stroke:black;" points="28,-9 28,-145 140,-145 140,-9 28,-9"/>
<text text-anchor="middle" x="84" y="-127" style="font-family:Nimbus Roman No9 L;font-weight:regular;font-size:11.34pt;">cvtermprop</text>
<polyline style="fill:none;stroke:black;" points="28,-117 140,-117 "/>
<text text-anchor="start" x="36" y="-99" style="font-family:Nimbus Roman No9 L;font-weight:regular;font-size:11.34pt;">&#45; cvtermprop_id </text>
<text text-anchor="start" x="36" y="-79" style="font-family:Nimbus Roman No9 L;font-weight:regular;font-size:11.34pt;">&#45; cvterm_id </text>
<text text-anchor="start" x="36" y="-59" style="font-family:Nimbus Roman No9 L;font-weight:regular;font-size:11.34pt;">&#45; type_id </text>
<text text-anchor="start" x="36" y="-39" style="font-family:Nimbus Roman No9 L;font-weight:regular;font-size:11.34pt;">&#45; value </text>
<text text-anchor="start" x="36" y="-19" style="font-family:Nimbus Roman No9 L;font-weight:regular;font-size:11.34pt;">&#45; rank </text>
</g>
<!-- cvterm&#45;&gt;cvtermprop -->
<g id="edge12" class="edge"><title>cvterm&#45;&gt;cvtermprop</title>
<path style="fill:none;stroke:black;" d="M325,-237C273,-202 200,-154 148,-120"/>
<polygon style="fill:black;stroke:black;" points="150.1,-117.2 140,-114 145.9,-122.8 150.1,-117.2"/>
</g>
<!-- dbxrefprop -->
<g id="node8" class="node"><title>dbxrefprop</title>
<polygon style="fill:white;stroke:black;" points="564,-54 564,-190 674,-190 674,-54 564,-54"/>
<text text-anchor="middle" x="619" y="-172" style="font-family:Nimbus Roman No9 L;font-weight:regular;font-size:11.34pt;">dbxrefprop</text>
<polyline style="fill:none;stroke:black;" points="564,-162 674,-162 "/>
<text text-anchor="start" x="572" y="-144" style="font-family:Nimbus Roman No9 L;font-weight:regular;font-size:11.34pt;">&#45; dbxrefprop_id </text>
<text text-anchor="start" x="572" y="-124" style="font-family:Nimbus Roman No9 L;font-weight:regular;font-size:11.34pt;">&#45; dbxref_id </text>
<text text-anchor="start" x="572" y="-104" style="font-family:Nimbus Roman No9 L;font-weight:regular;font-size:11.34pt;">&#45; type_id </text>
<text text-anchor="start" x="572" y="-84" style="font-family:Nimbus Roman No9 L;font-weight:regular;font-size:11.34pt;">&#45; value </text>
<text text-anchor="start" x="572" y="-64" style="font-family:Nimbus Roman No9 L;font-weight:regular;font-size:11.34pt;">&#45; rank </text>
</g>
<!-- cvterm&#45;&gt;dbxrefprop -->
<g id="edge16" class="edge"><title>cvterm&#45;&gt;dbxrefprop</title>
<path style="fill:none;stroke:black;" d="M460,-234C490,-213 526,-188 556,-167"/>
<polygon style="fill:black;stroke:black;" points="558.1,-169.8 564,-161 553.9,-164.2 558.1,-169.8"/>
</g>
</g>
</svg>
