<?xml version="1.0" encoding="UTF-8" standalone="no"?>
<!DOCTYPE svg PUBLIC "-//W3C//DTD SVG 1.0//EN"
 "http://www.w3.org/TR/2001/REC-SVG-20010904/DTD/svg10.dtd" [
 <!ATTLIST svg xmlns:xlink CDATA #FIXED "http://www.w3.org/1999/xlink">
]>
<!-- Generated by Graphviz version 2.20.2 (Wed Sep 16 11:12:11 UTC 2009)
     For user: (cain) Scott Cain,,, -->
<!-- Title: test Pages: 1 -->
<svg width="476pt" height="479pt"
 viewBox="0.00 0.00 476.00 479.00" xmlns="http://www.w3.org/2000/svg" xmlns:xlink="http://www.w3.org/1999/xlink">
<g id="graph0" class="graph" transform="scale(1 1) rotate(0) translate(4 475)">
<title>test</title>
<polygon style="fill:lightgoldenrodyellow;stroke:lightgoldenrodyellow;" points="-4,4 -4,-475 472,-475 472,4 -4,4"/>
<!-- node1 -->
<g id="node1" class="node"><title>node1</title>
<polygon style="fill:white;stroke:black;" points="20,-207 20,-291 110,-291 110,-207 20,-207"/>
<text text-anchor="middle" x="65" y="-273.9" style="font-family:Times New Roman;font-size:14.00;">cv</text>
<polyline style="fill:none;stroke:black;" points="20,-266 110,-266 "/>
<text text-anchor="start" x="28" y="-248.9" style="font-family:Times New Roman;font-size:14.00;">&#45; cv_id</text>
<text text-anchor="start" x="28" y="-231.9" style="font-family:Times New Roman;font-size:14.00;">&#45; name</text>
<text text-anchor="start" x="28" y="-214.9" style="font-family:Times New Roman;font-size:14.00;">&#45; definition</text>
</g>
<!-- node2 -->
<g id="node2" class="node"><title>node2</title>
<polygon style="fill:white;stroke:black;" points="152,-144 152,-296 308,-296 308,-144 152,-144"/>
<text text-anchor="middle" x="230" y="-278.9" style="font-family:Times New Roman;font-size:14.00;">cvterm</text>
<polyline style="fill:none;stroke:black;" points="152,-271 308,-271 "/>
<text text-anchor="start" x="160" y="-253.9" style="font-family:Times New Roman;font-size:14.00;">&#45; cvterm_id</text>
<text text-anchor="start" x="160" y="-236.9" style="font-family:Times New Roman;font-size:14.00;">&#45; cv_id</text>
<text text-anchor="start" x="160" y="-219.9" style="font-family:Times New Roman;font-size:14.00;">&#45; name</text>
<text text-anchor="start" x="160" y="-202.9" style="font-family:Times New Roman;font-size:14.00;">&#45; definition</text>
<text text-anchor="start" x="160" y="-185.9" style="font-family:Times New Roman;font-size:14.00;">&#45; dbxref_id</text>
<text text-anchor="start" x="160" y="-168.9" style="font-family:Times New Roman;font-size:14.00;">&#45; is_obsolete</text>
<text text-anchor="start" x="160" y="-151.9" style="font-family:Times New Roman;font-size:14.00;">&#45; is_relationshiptype</text>
</g>
<!-- node1&#45;&gt;node2 -->
<g id="edge4" class="edge"><title>node1&#45;&gt;node2</title>
<path style="fill:none;stroke:black;" d="M110,-241C120,-239 131,-237 142,-235"/>
<polygon style="fill:black;stroke:black;" points="142.881,-238.393 152,-233 141.508,-231.529 142.881,-238.393"/>
</g>
<!-- node4 -->
<g id="node4" class="node"><title>node4</title>
<polygon style="fill:white;stroke:black;" points="1,-335 1,-470 126,-470 126,-335 1,-335"/>
<text text-anchor="middle" x="63" y="-452.9" style="font-family:Times New Roman;font-size:14.00;">cvtermpath</text>
<polyline style="fill:none;stroke:black;" points="1,-445 126,-445 "/>
<text text-anchor="start" x="8.5" y="-428.4" style="font-family:Times New Roman;font-size:14.00;">&#45; cvtermpath_id</text>
<text text-anchor="start" x="8.5" y="-411.4" style="font-family:Times New Roman;font-size:14.00;">&#45; type_id</text>
<text text-anchor="start" x="8.5" y="-394.4" style="font-family:Times New Roman;font-size:14.00;">&#45; subject_id</text>
<text text-anchor="start" x="8.5" y="-377.4" style="font-family:Times New Roman;font-size:14.00;">&#45; object_id</text>
<text text-anchor="start" x="8.5" y="-360.4" style="font-family:Times New Roman;font-size:14.00;">&#45; cv_id</text>
<text text-anchor="start" x="8.5" y="-343.4" style="font-family:Times New Roman;font-size:14.00;">&#45; pathdistance</text>
</g>
<!-- node1&#45;&gt;node4 -->
<g id="edge6" class="edge"><title>node1&#45;&gt;node4</title>
<path style="fill:none;stroke:black;" d="M64,-291C64,-302 64,-313 64,-325"/>
<polygon style="fill:black;stroke:black;" points="60.5001,-325 64,-335 67.5001,-325 60.5001,-325"/>
</g>
<!-- node9 -->
<g id="node9" class="node"><title>node9</title>
<polygon style="fill:white;stroke:black;" points="2,-20 2,-138 93,-138 93,-20 2,-20"/>
<text text-anchor="middle" x="47" y="-120.9" style="font-family:Times New Roman;font-size:14.00;">cvprop</text>
<polyline style="fill:none;stroke:black;" points="2,-113 93,-113 "/>
<text text-anchor="start" x="9.5" y="-95.9" style="font-family:Times New Roman;font-size:14.00;">&#45; cvprop_id</text>
<text text-anchor="start" x="9.5" y="-78.9" style="font-family:Times New Roman;font-size:14.00;">&#45; cv_id</text>
<text text-anchor="start" x="9.5" y="-61.9" style="font-family:Times New Roman;font-size:14.00;">&#45; type_id</text>
<text text-anchor="start" x="9.5" y="-44.9" style="font-family:Times New Roman;font-size:14.00;">&#45; value</text>
<text text-anchor="start" x="9.5" y="-27.9" style="font-family:Times New Roman;font-size:14.00;">&#45; rank</text>
</g>
<!-- node1&#45;&gt;node9 -->
<g id="edge2" class="edge"><title>node1&#45;&gt;node9</title>
<path style="fill:none;stroke:black;" d="M61,-207C59,-189 57,-168 54,-148"/>
<polygon style="fill:black;stroke:black;" points="57.4778,-147.602 53,-138 50.5125,-148.299 57.4778,-147.602"/>
</g>
<!-- node3 -->
<g id="node3" class="node"><title>node3</title>
<polygon style="fill:white;stroke:black;" points="282,-8 282,-109 464,-109 464,-8 282,-8"/>
<text text-anchor="middle" x="373" y="-91.9" style="font-family:Times New Roman;font-size:14.00;">cvterm_relationship</text>
<polyline style="fill:none;stroke:black;" points="282,-84 464,-84 "/>
<text text-anchor="start" x="290" y="-67.4" style="font-family:Times New Roman;font-size:14.00;">&#45; cvterm_relationship_id</text>
<text text-anchor="start" x="290" y="-50.4" style="font-family:Times New Roman;font-size:14.00;">&#45; type_id</text>
<text text-anchor="start" x="290" y="-33.4" style="font-family:Times New Roman;font-size:14.00;">&#45; subject_id</text>
<text text-anchor="start" x="290" y="-16.4" style="font-family:Times New Roman;font-size:14.00;">&#45; object_id</text>
</g>
<!-- node2&#45;&gt;node3 -->
<g id="edge12" class="edge"><title>node2&#45;&gt;node3</title>
<path style="fill:none;stroke:black;" d="M298,-144C306,-135 314,-125 322,-117"/>
<polygon style="fill:black;stroke:black;" points="325.049,-118.831 329,-109 319.781,-114.221 325.049,-118.831"/>
</g>
<!-- node2&#45;&gt;node4 -->
<g id="edge14" class="edge"><title>node2&#45;&gt;node4</title>
<path style="fill:none;stroke:black;" d="M161,-296C151,-306 142,-317 132,-327"/>
<polygon style="fill:none;stroke:black;" points="128.951,-325.169 125,-335 134.219,-329.779 128.951,-325.169"/>
</g>
<!-- node5 -->
<g id="node5" class="node"><title>node5</title>
<polygon style="fill:white;stroke:black;" points="311,-338 311,-439 467,-439 467,-338 311,-338"/>
<text text-anchor="middle" x="389" y="-421.9" style="font-family:Times New Roman;font-size:14.00;">cvtermsynonym</text>
<polyline style="fill:none;stroke:black;" points="311,-414 467,-414 "/>
<text text-anchor="start" x="319" y="-397.4" style="font-family:Times New Roman;font-size:14.00;">&#45; cvtermsynonym_id</text>
<text text-anchor="start" x="319" y="-380.4" style="font-family:Times New Roman;font-size:14.00;">&#45; cvterm_id</text>
<text text-anchor="start" x="319" y="-363.4" style="font-family:Times New Roman;font-size:14.00;">&#45; synonym</text>
<text text-anchor="start" x="319" y="-346.4" style="font-family:Times New Roman;font-size:14.00;">&#45; type_id</text>
</g>
<!-- node2&#45;&gt;node5 -->
<g id="edge18" class="edge"><title>node2&#45;&gt;node5</title>
<path style="fill:none;stroke:black;" d="M302,-296C313,-307 324,-319 334,-330"/>
<polygon style="fill:black;stroke:black;" points="331.781,-332.779 341,-338 337.049,-328.169 331.781,-332.779"/>
</g>
<!-- node6 -->
<g id="node6" class="node"><title>node6</title>
<polygon style="fill:white;stroke:black;" points="157,-340 157,-441 301,-441 301,-340 157,-340"/>
<text text-anchor="middle" x="229" y="-423.9" style="font-family:Times New Roman;font-size:14.00;">cvterm_dbxref</text>
<polyline style="fill:none;stroke:black;" points="157,-416 301,-416 "/>
<text text-anchor="start" x="165" y="-399.4" style="font-family:Times New Roman;font-size:14.00;">&#45; cvterm_dbxref_id</text>
<text text-anchor="start" x="165" y="-382.4" style="font-family:Times New Roman;font-size:14.00;">&#45; cvterm_id</text>
<text text-anchor="start" x="165" y="-365.4" style="font-family:Times New Roman;font-size:14.00;">&#45; dbxref_id</text>
<text text-anchor="start" x="165" y="-348.4" style="font-family:Times New Roman;font-size:14.00;">&#45; is_for_definition</text>
</g>
<!-- node2&#45;&gt;node6 -->
<g id="edge10" class="edge"><title>node2&#45;&gt;node6</title>
<path style="fill:none;stroke:black;" d="M230,-296C230,-307 229,-319 229,-330"/>
<polygon style="fill:black;stroke:black;" points="225.5,-330 229,-340 232.5,-330 225.5,-330"/>
</g>
<!-- node7 -->
<g id="node7" class="node"><title>node7</title>
<polygon style="fill:white;stroke:black;" points="135,-1 135,-119 259,-119 259,-1 135,-1"/>
<text text-anchor="middle" x="197" y="-101.9" style="font-family:Times New Roman;font-size:14.00;">cvtermprop</text>
<polyline style="fill:none;stroke:black;" points="135,-94 259,-94 "/>
<text text-anchor="start" x="143" y="-76.9" style="font-family:Times New Roman;font-size:14.00;">&#45; cvtermprop_id</text>
<text text-anchor="start" x="143" y="-59.9" style="font-family:Times New Roman;font-size:14.00;">&#45; cvterm_id</text>
<text text-anchor="start" x="143" y="-42.9" style="font-family:Times New Roman;font-size:14.00;">&#45; type_id</text>
<text text-anchor="start" x="143" y="-25.9" style="font-family:Times New Roman;font-size:14.00;">&#45; value</text>
<text text-anchor="start" x="143" y="-8.9" style="font-family:Times New Roman;font-size:14.00;">&#45; rank</text>
</g>
<!-- node2&#45;&gt;node7 -->
<g id="edge16" class="edge"><title>node2&#45;&gt;node7</title>
<path style="fill:none;stroke:black;" d="M214,-144C213,-139 212,-134 211,-129"/>
<polygon style="fill:black;stroke:black;" points="214.393,-128.119 209,-119 207.529,-129.492 214.393,-128.119"/>
</g>
<!-- node8 -->
<g id="node8" class="node"><title>node8</title>
<polygon style="fill:white;stroke:black;" points="331,-158 331,-276 451,-276 451,-158 331,-158"/>
<text text-anchor="middle" x="391" y="-258.9" style="font-family:Times New Roman;font-size:14.00;">dbxrefprop</text>
<polyline style="fill:none;stroke:black;" points="331,-251 451,-251 "/>
<text text-anchor="start" x="339" y="-233.9" style="font-family:Times New Roman;font-size:14.00;">&#45; dbxrefprop_id</text>
<text text-anchor="start" x="339" y="-216.9" style="font-family:Times New Roman;font-size:14.00;">&#45; dbxref_id</text>
<text text-anchor="start" x="339" y="-199.9" style="font-family:Times New Roman;font-size:14.00;">&#45; type_id</text>
<text text-anchor="start" x="339" y="-182.9" style="font-family:Times New Roman;font-size:14.00;">&#45; value</text>
<text text-anchor="start" x="339" y="-165.9" style="font-family:Times New Roman;font-size:14.00;">&#45; rank</text>
</g>
<!-- node2&#45;&gt;node8 -->
<g id="edge20" class="edge"><title>node2&#45;&gt;node8</title>
<path style="fill:none;stroke:black;" d="M308,-219C313,-219 317,-219 321,-219"/>
<polygon style="fill:black;stroke:black;" points="321.398,-222.478 331,-218 320.701,-215.512 321.398,-222.478"/>
</g>
<!-- node2&#45;&gt;node9 -->
<g id="edge8" class="edge"><title>node2&#45;&gt;node9</title>
<path style="fill:none;stroke:black;" d="M152,-160C135,-146 117,-133 101,-120"/>
<polygon style="fill:black;stroke:black;" points="103.1,-117.2 93,-114 98.9,-122.8 103.1,-117.2"/>
</g>
</g>
</svg>
