<?xml version="1.0" encoding="UTF-8" standalone="no"?>
<!DOCTYPE svg PUBLIC "-//W3C//DTD SVG 1.0//EN"
 "http://www.w3.org/TR/2001/REC-SVG-20010904/DTD/svg10.dtd">
<!-- Generated by neato version 2.2.1 (Wed Apr 13 22:41:22 UTC 2005)
     For user: (allenday) Allen Day            Title: test    Pages: 1 -->
<svg width="732pt" height="587pt"
 viewBox = "-1 -1 731 586"
 xmlns="http://www.w3.org/2000/svg">
<g id="graph0" class="graph" transform = "scale(0.914867)"
 style="font-family:Times-Roman;font-size:14.00;">
<title>test</title>
<g id="node1" class="node"><title>expression</title>
<polygon style="fill:white;stroke:black;" points="310,568 484,568 484,512 310,512 310,568"/>
<text text-anchor="start" x="318" y="529">{expression|&#45; expression_id </text>
<text text-anchor="start" x="318" y="545">&#45; description </text>
<text text-anchor="middle" x="397" y="561">}</text>
</g>
<g id="node2" class="node"><title>feature_expression</title>
<polygon style="fill:white;stroke:black;" points="527,583 792,583 792,511 527,511 527,583"/>
<text text-anchor="start" x="535" y="528">{feature_expression|&#45; feature_expression_id </text>
<text text-anchor="start" x="535" y="544">&#45; expression_id </text>
<text text-anchor="start" x="535" y="560">&#45; feature_id </text>
<text text-anchor="middle" x="659" y="576">}</text>
</g>
<g id="edge10" class="edge"><title>expression&#45;&gt;feature_expression</title>
<path style="fill:none;stroke:black;" d="M484,542C495,542 506,543 517,543"/>
<polygon style="fill:black;stroke:black;" points="517,539 527,543 517,546 517,539"/>
</g>
<g id="node3" class="node"><title>expression_cvterm</title>
<polygon style="fill:white;stroke:black;" points="6,596 272,596 272,492 6,492 6,596"/>
<text text-anchor="start" x="14" y="509">{expression_cvterm|&#45; expression_cvterm_id </text>
<text text-anchor="start" x="14" y="525">&#45; expression_id </text>
<text text-anchor="start" x="14" y="541">&#45; cvterm_id </text>
<text text-anchor="start" x="14" y="557">&#45; rank </text>
<text text-anchor="start" x="14" y="573">&#45; cvterm_type </text>
<text text-anchor="middle" x="139" y="589">}</text>
</g>
<g id="edge4" class="edge"><title>expression&#45;&gt;expression_cvterm</title>
<path style="fill:none;stroke:black;" d="M310,541C301,541 292,542 282,542"/>
<polygon style="fill:black;stroke:black;" points="282,545 272,542 282,538 282,545"/>
</g>
<g id="node4" class="node"><title>expression_pub</title>
<polygon style="fill:white;stroke:black;" points="29,111 259,111 259,39 29,39 29,111"/>
<text text-anchor="start" x="37" y="56">{expression_pub|&#45; expression_pub_id </text>
<text text-anchor="start" x="37" y="72">&#45; expression_id </text>
<text text-anchor="start" x="37" y="88">&#45; pub_id </text>
<text text-anchor="middle" x="144" y="104">}</text>
</g>
<g id="edge8" class="edge"><title>expression&#45;&gt;expression_pub</title>
<path style="fill:none;stroke:black;" d="M382,512C339,434 220,215 169,120"/>
<polygon style="fill:black;stroke:black;" points="166,121 164,111 172,118 166,121"/>
</g>
<g id="node6" class="node"><title>expression_image</title>
<polygon style="fill:white;stroke:black;" points="280,107 536,107 536,35 280,35 280,107"/>
<text text-anchor="start" x="288" y="52">{expression_image|&#45; expression_image_id </text>
<text text-anchor="start" x="288" y="68">&#45; expression_id </text>
<text text-anchor="start" x="288" y="84">&#45; eimage_id </text>
<text text-anchor="middle" x="408" y="100">}</text>
</g>
<g id="edge6" class="edge"><title>expression&#45;&gt;expression_image</title>
<path style="fill:none;stroke:black;" d="M398,512C400,433 405,213 407,117"/>
<polygon style="fill:black;stroke:black;" points="404,117 407,107 411,117 404,117"/>
</g>
<g id="node5" class="node"><title>eimage</title>
<polygon style="fill:white;stroke:black;" points="597,122 733,122 733,34 597,34 597,122"/>
<text text-anchor="start" x="605" y="51">{eimage|&#45; eimage_id </text>
<text text-anchor="start" x="605" y="67">&#45; eimage_data </text>
<text text-anchor="start" x="605" y="83">&#45; eimage_type </text>
<text text-anchor="start" x="605" y="99">&#45; image_uri </text>
<text text-anchor="middle" x="665" y="115">}</text>
</g>
<g id="edge2" class="edge"><title>eimage&#45;&gt;expression_image</title>
<path style="fill:none;stroke:black;" d="M597,76C581,76 564,75 546,74"/>
<polygon style="fill:black;stroke:black;" points="546,77 536,74 546,70 546,77"/>
</g>
</g>
</svg>
