<?xml version="1.0" encoding="UTF-8" standalone="no"?>
<!DOCTYPE svg PUBLIC "-//W3C//DTD SVG 1.0//EN"
 "http://www.w3.org/TR/2001/REC-SVG-20010904/DTD/svg10.dtd" [
 <!ATTLIST svg xmlns:xlink CDATA #FIXED "http://www.w3.org/1999/xlink">
]>
<!-- Generated by dot version 2.8 (Thu Sep 14 20:34:11 UTC 2006)
     For user: (scott) Scott Cain -->
<!-- Title: test Pages: 1 -->
<svg width="728pt" height="583pt"
 viewBox = "0 0 728 583"
 xmlns="http://www.w3.org/2000/svg" xmlns:xlink="http://www.w3.org/1999/xlink">
<g id="graph0" class="graph" style="font-family:Times-Roman;font-size:14.00;">
<title>test</title>
<polygon style="fill:white;stroke:white;" points="-2,585 -2,-2 730,-2 730,585 -2,585"/>
<!-- expression -->
<g id="node1" class="node"><title>expression</title>
<polygon style="fill:white;stroke:black;" points="286,521 439,521 439,472 286,472 286,521"/>
<text text-anchor="start" x="293" y="487" style="font-size:12.28pt;">{expression|&#45; expression_id </text>
<text text-anchor="start" x="293" y="501" style="font-size:12.28pt;">&#45; description </text>
<text text-anchor="middle" x="362" y="515" style="font-size:12.28pt;">}</text>
</g>
<!-- feature_expression -->
<g id="node2" class="node"><title>feature_expression</title>
<polygon style="fill:white;stroke:black;" points="490,534 723,534 723,470 490,470 490,534"/>
<text text-anchor="start" x="497" y="485" style="font-size:12.28pt;">{feature_expression|&#45; feature_expression_id </text>
<text text-anchor="start" x="497" y="499" style="font-size:12.28pt;">&#45; expression_id </text>
<text text-anchor="start" x="497" y="513" style="font-size:12.28pt;">&#45; feature_id </text>
<text text-anchor="middle" x="606" y="527" style="font-size:12.28pt;">}</text>
</g>
<!-- expression&#45;&gt;feature_expression -->
<g id="edge10" class="edge"><title>expression&#45;&gt;feature_expression</title>
<path style="fill:none;stroke:black;" d="M439,498C452,498 466,499 481,499"/>
<polygon style="fill:black;stroke:black;" points="481,496 490,499 481,502 481,496"/>
</g>
<!-- expression_cvterm -->
<g id="node3" class="node"><title>expression_cvterm</title>
<polygon style="fill:white;stroke:black;" points="5,545 239,545 239,454 5,454 5,545"/>
<text text-anchor="start" x="12" y="469" style="font-size:12.28pt;">{expression_cvterm|&#45; expression_cvterm_id </text>
<text text-anchor="start" x="12" y="483" style="font-size:12.28pt;">&#45; expression_id </text>
<text text-anchor="start" x="12" y="497" style="font-size:12.28pt;">&#45; cvterm_id </text>
<text text-anchor="start" x="12" y="511" style="font-size:12.28pt;">&#45; rank </text>
<text text-anchor="start" x="12" y="525" style="font-size:12.28pt;">&#45; cvterm_type </text>
<text text-anchor="middle" x="122" y="539" style="font-size:12.28pt;">}</text>
</g>
<!-- expression&#45;&gt;expression_cvterm -->
<g id="edge4" class="edge"><title>expression&#45;&gt;expression_cvterm</title>
<path style="fill:none;stroke:black;" d="M286,498C273,498 261,498 248,498"/>
<polygon style="fill:black;stroke:black;" points="248,501 239,498 248,495 248,501"/>
</g>
<!-- expression_pub -->
<g id="node4" class="node"><title>expression_pub</title>
<polygon style="fill:white;stroke:black;" points="26,99 228,99 228,36 26,36 26,99"/>
<text text-anchor="start" x="33" y="51" style="font-size:12.28pt;">{expression_pub|&#45; expression_pub_id </text>
<text text-anchor="start" x="33" y="65" style="font-size:12.28pt;">&#45; expression_id </text>
<text text-anchor="start" x="33" y="79" style="font-size:12.28pt;">&#45; pub_id </text>
<text text-anchor="middle" x="127" y="93" style="font-size:12.28pt;">}</text>
</g>
<!-- expression&#45;&gt;expression_pub -->
<g id="edge8" class="edge"><title>expression&#45;&gt;expression_pub</title>
<path style="fill:none;stroke:black;" d="M349,472C309,401 196,195 149,107"/>
<polygon style="fill:black;stroke:black;" points="146,108 144,99 151,106 146,108"/>
</g>
<!-- expression_image -->
<g id="node6" class="node"><title>expression_image</title>
<polygon style="fill:white;stroke:black;" points="260,97 485,97 485,34 260,34 260,97"/>
<text text-anchor="start" x="267" y="49" style="font-size:12.28pt;">{expression_image|&#45; expression_image_id </text>
<text text-anchor="start" x="267" y="63" style="font-size:12.28pt;">&#45; expression_id </text>
<text text-anchor="start" x="267" y="77" style="font-size:12.28pt;">&#45; eimage_id </text>
<text text-anchor="middle" x="372" y="91" style="font-size:12.28pt;">}</text>
</g>
<!-- expression&#45;&gt;expression_image -->
<g id="edge6" class="edge"><title>expression&#45;&gt;expression_image</title>
<path style="fill:none;stroke:black;" d="M363,472C364,400 370,194 371,106"/>
<polygon style="fill:black;stroke:black;" points="369,106 371,97 375,106 369,106"/>
</g>
<!-- eimage -->
<g id="node5" class="node"><title>eimage</title>
<polygon style="fill:white;stroke:black;" points="553,109 672,109 672,32 553,32 553,109"/>
<text text-anchor="start" x="560" y="47" style="font-size:12.28pt;">{eimage|&#45; eimage_id </text>
<text text-anchor="start" x="560" y="61" style="font-size:12.28pt;">&#45; eimage_data </text>
<text text-anchor="start" x="560" y="75" style="font-size:12.28pt;">&#45; eimage_type </text>
<text text-anchor="start" x="560" y="89" style="font-size:12.28pt;">&#45; image_uri </text>
<text text-anchor="middle" x="613" y="103" style="font-size:12.28pt;">}</text>
</g>
<!-- eimage&#45;&gt;expression_image -->
<g id="edge2" class="edge"><title>eimage&#45;&gt;expression_image</title>
<path style="fill:none;stroke:black;" d="M553,70C535,69 514,69 493,68"/>
<polygon style="fill:black;stroke:black;" points="493,71 485,68 493,64 493,71"/>
</g>
</g>
</svg>
