<?xml version="1.0" encoding="UTF-8" standalone="no"?>
<!DOCTYPE svg PUBLIC "-//W3C//DTD SVG 1.0//EN"
 "http://www.w3.org/TR/2001/REC-SVG-20010904/DTD/svg10.dtd">
<!-- Generated by neato version 1.10 (Tue Nov 11 16:12:26 EST 2003)
     For user: (allenday) Allen Day   Title: test    Pages: 1 -->
<svg width="974px" height="782px"
 viewBox = "-1 -1 730 586"
 xmlns="http://www.w3.org/2000/svg">
<g id="graph0" class="graph" style="font-family:Times-Roman;font-size:14.00;">
<title>test</title>
<polygon style="fill:white;stroke:white;" points="0,584 0,-1 729,-1 729,584 0,584"/>
<g id="node1" class="node"><title>tableinfo</title>
<polygon style="fill:white;stroke:black;" points="99,210 267,210 267,58 99,58 99,210"/>
<text text-anchor="middle" x="183" y="73">tableinfo</text>
<polyline style="fill:none;stroke:black;" points="99,78 267,78 "/>
<text text-anchor="start" x="99" y="93">tableinfo_id</text>
<text text-anchor="start" x="99" y="109">name</text>
<text text-anchor="start" x="99" y="125">primary_key_column</text>
<text text-anchor="start" x="99" y="141">is_view</text>
<text text-anchor="start" x="99" y="157">view_on_table_id</text>
<text text-anchor="start" x="99" y="173">superclass_table_id</text>
<text text-anchor="start" x="99" y="189">is_updateable</text>
<text text-anchor="middle" x="183" y="205">modification_date</text>
</g>
<g id="node2" class="node"><title>contact</title>
<polygon style="fill:white;stroke:black;" points="563,505 651,505 651,433 563,433 563,505"/>
<text text-anchor="middle" x="607" y="448">contact</text>
<polyline style="fill:none;stroke:black;" points="563,453 651,453 "/>
<text text-anchor="start" x="563" y="468">contact_id</text>
<text text-anchor="start" x="563" y="484">name</text>
<text text-anchor="middle" x="607" y="500">description</text>
</g>
<g id="node3" class="node"><title>db</title>
<polygon style="fill:white;stroke:black;" points="350,536 438,536 438,416 350,416 350,536"/>
<text text-anchor="middle" x="394" y="431">db</text>
<polyline style="fill:none;stroke:black;" points="350,436 438,436 "/>
<text text-anchor="start" x="350" y="451">db_id</text>
<text text-anchor="start" x="350" y="467">name</text>
<text text-anchor="start" x="350" y="483">contact_id</text>
<text text-anchor="start" x="350" y="499">description</text>
<text text-anchor="start" x="350" y="515">urlprefix</text>
<text text-anchor="middle" x="394" y="531">url</text>
</g>
<g id="edge2" class="edge"><title>contact-&gt;db</title>
<path style="fill:none;stroke:black;" d="M563,470C525,471 487,473 448,474"/>
<polygon style="fill:black;stroke:black;" points="448,476 438,474 448,471 448,476"/>
</g>
<g id="node4" class="node"><title>dbxref</title>
<polygon style="fill:white;stroke:black;" points="109,517 197,517 197,413 109,413 109,517"/>
<text text-anchor="middle" x="153" y="428">dbxref</text>
<polyline style="fill:none;stroke:black;" points="109,433 197,433 "/>
<text text-anchor="start" x="109" y="448">dbxref_id</text>
<text text-anchor="start" x="109" y="464">db_id</text>
<text text-anchor="start" x="109" y="480">accession</text>
<text text-anchor="start" x="109" y="496">version</text>
<text text-anchor="middle" x="153" y="512">description</text>
</g>
<g id="edge4" class="edge"><title>db-&gt;dbxref</title>
<path style="fill:none;stroke:black;" d="M350,474C302,472 254,469 206,467"/>
<polygon style="fill:black;stroke:black;" points="207,469 197,467 207,464 207,469"/>
</g>
<g id="node5" class="node"><title>project</title>
<polygon style="fill:white;stroke:black;" points="586,180 674,180 674,108 586,108 586,180"/>
<text text-anchor="middle" x="630" y="123">project</text>
<polyline style="fill:none;stroke:black;" points="586,128 674,128 "/>
<text text-anchor="start" x="586" y="143">project_id</text>
<text text-anchor="start" x="586" y="159">name</text>
<text text-anchor="middle" x="630" y="175">description</text>
</g>
</g></svg>
