<?xml version="1.0" encoding="UTF-8" standalone="no"?>
<!DOCTYPE svg PUBLIC "-//W3C//DTD SVG 1.1//EN"
 "http://www.w3.org/Graphics/SVG/1.1/DTD/svg11.dtd">
<!-- Generated by graphviz version 2.27.20091228.0545 (20091228.0545)
 -->
<!-- Title: test Pages: 1 -->
<svg width="317pt" height="312pt"
 viewBox="0.00 0.00 317.21 312.00" xmlns="http://www.w3.org/2000/svg" xmlns:xlink="http://www.w3.org/1999/xlink">
<g id="graph1" class="graph" transform="scale(1 1) rotate(0) translate(4 308)">
<title>test</title>
<polygon fill="lightgoldenrodyellow" stroke="lightgoldenrodyellow" points="-4,5 -4,-308 314.21,-308 314.21,5 -4,5"/>
<!-- node1 -->
<g id="node1" class="node"><title>node1</title>
<polygon fill="white" stroke="black" points="1,-14.5 1,-165.5 150,-165.5 150,-14.5 1,-14.5"/>
<text text-anchor="middle" x="75.5" y="-148.9" font-family="Times,serif" font-size="14.00">tableinfo</text>
<polyline fill="none" stroke="black" points="1,-142.5 150,-142.5 "/>
<text text-anchor="start" x="9" y="-125.9" font-family="Times,serif" font-size="14.00">&#45; tableinfo_id</text>
<text text-anchor="start" x="9" y="-110.9" font-family="Times,serif" font-size="14.00">&#45; name</text>
<text text-anchor="start" x="9" y="-95.9" font-family="Times,serif" font-size="14.00">&#45; primary_key_column</text>
<text text-anchor="start" x="9" y="-80.9" font-family="Times,serif" font-size="14.00">&#45; is_view</text>
<text text-anchor="start" x="9" y="-65.9" font-family="Times,serif" font-size="14.00">&#45; view_on_table_id</text>
<text text-anchor="start" x="9" y="-50.9" font-family="Times,serif" font-size="14.00">&#45; superclass_table_id</text>
<text text-anchor="start" x="9" y="-35.9" font-family="Times,serif" font-size="14.00">&#45; is_updateable</text>
<text text-anchor="start" x="9" y="-20.9" font-family="Times,serif" font-size="14.00">&#45; modification_date</text>
</g>
<!-- node2 -->
<g id="node2" class="node"><title>node2</title>
<polygon fill="white" stroke="black" points="170,-196.5 170,-302.5 260,-302.5 260,-196.5 170,-196.5"/>
<text text-anchor="middle" x="215" y="-285.9" font-family="Times,serif" font-size="14.00">db</text>
<polyline fill="none" stroke="black" points="170,-279.5 260,-279.5 "/>
<text text-anchor="start" x="178" y="-262.9" font-family="Times,serif" font-size="14.00">&#45; db_id</text>
<text text-anchor="start" x="178" y="-247.9" font-family="Times,serif" font-size="14.00">&#45; name</text>
<text text-anchor="start" x="178" y="-232.9" font-family="Times,serif" font-size="14.00">&#45; description</text>
<text text-anchor="start" x="178" y="-217.9" font-family="Times,serif" font-size="14.00">&#45; urlprefix</text>
<text text-anchor="start" x="178" y="-202.9" font-family="Times,serif" font-size="14.00">&#45; url</text>
</g>
<!-- node3 -->
<g id="node3" class="node"><title>node3</title>
<polygon fill="white" stroke="black" points="53,-196.5 53,-302.5 143,-302.5 143,-196.5 53,-196.5"/>
<text text-anchor="middle" x="98" y="-285.9" font-family="Times,serif" font-size="14.00">dbxref</text>
<polyline fill="none" stroke="black" points="53,-279.5 143,-279.5 "/>
<text text-anchor="start" x="61" y="-262.9" font-family="Times,serif" font-size="14.00">&#45; dbxref_id</text>
<text text-anchor="start" x="61" y="-247.9" font-family="Times,serif" font-size="14.00">&#45; db_id</text>
<text text-anchor="start" x="61" y="-232.9" font-family="Times,serif" font-size="14.00">&#45; accession</text>
<text text-anchor="start" x="61" y="-217.9" font-family="Times,serif" font-size="14.00">&#45; version</text>
<text text-anchor="start" x="61" y="-202.9" font-family="Times,serif" font-size="14.00">&#45; description</text>
</g>
<!-- node4 -->
<g id="node4" class="node"><title>node4</title>
<polygon fill="white" stroke="black" points="183,-79.5 183,-155.5 273,-155.5 273,-79.5 183,-79.5"/>
<text text-anchor="middle" x="228" y="-138.9" font-family="Times,serif" font-size="14.00">project</text>
<polyline fill="none" stroke="black" points="183,-132.5 273,-132.5 "/>
<text text-anchor="start" x="191" y="-115.9" font-family="Times,serif" font-size="14.00">&#45; project_id</text>
<text text-anchor="start" x="191" y="-100.9" font-family="Times,serif" font-size="14.00">&#45; name</text>
<text text-anchor="start" x="191" y="-85.9" font-family="Times,serif" font-size="14.00">&#45; description</text>
</g>
<!-- db -->
<g id="node5" class="node"><title>db</title>
<polygon fill="white" stroke="black" points="183,-12.1391 183,-48.1391 237,-48.1391 237,-12.1391 183,-12.1391"/>
<text text-anchor="middle" x="210" y="-25.0391" font-family="Times,serif" font-size="14.00">db</text>
</g>
<!-- dbxref -->
<g id="node6" class="node"><title>dbxref</title>
<polygon fill="white" stroke="black" points="254.21,-1.5 254.21,-37.5 308.21,-37.5 308.21,-1.5 254.21,-1.5"/>
<text text-anchor="middle" x="281.21" y="-14.4" font-family="Times,serif" font-size="14.00">dbxref</text>
</g>
<!-- db&#45;&gt;dbxref -->
<g id="edge2" class="edge"><title>db&#45;&gt;dbxref</title>
<path fill="none" stroke="black" d="M237.328,-26.0562C239.559,-25.7229 241.835,-25.3828 244.12,-25.0414"/>
<polygon fill="black" stroke="black" points="244.699,-28.4938 254.072,-23.5544 243.665,-21.5706 244.699,-28.4938"/>
</g>
</g>
</svg>
