<?xml version="1.0" encoding="UTF-8" standalone="no"?>
<!DOCTYPE svg PUBLIC "-//W3C//DTD SVG 1.0//EN"
 "http://www.w3.org/TR/2001/REC-SVG-20010904/DTD/svg10.dtd">
<!-- Generated by neato version 2.2.1 (Wed Apr 13 22:41:22 UTC 2005)
     For user: (allenday) Allen Day            Title: test    Pages: 1 -->
<svg width="731pt" height="587pt"
 viewBox = "-1 -1 730 586"
 xmlns="http://www.w3.org/2000/svg">
<g id="graph0" class="graph" style="font-family:Times-Roman;font-size:14.00;">
<title>test</title>
<g id="node1" class="node"><title>tableinfo</title>
<polygon style="fill:white;stroke:black;" points="506,480 660,480 660,328 506,328 506,480"/>
<text text-anchor="start" x="514" y="345">{tableinfo|&#45; tableinfo_id </text>
<text text-anchor="start" x="514" y="361">&#45; name </text>
<text text-anchor="start" x="514" y="377">&#45; primary_key_column </text>
<text text-anchor="start" x="514" y="393">&#45; is_view </text>
<text text-anchor="start" x="514" y="409">&#45; view_on_table_id </text>
<text text-anchor="start" x="514" y="425">&#45; superclass_table_id </text>
<text text-anchor="start" x="514" y="441">&#45; is_updateable </text>
<text text-anchor="start" x="514" y="457">&#45; modification_date </text>
<text text-anchor="middle" x="583" y="473">}</text>
</g>
<g id="node2" class="node"><title>contact</title>
<polygon style="fill:white;stroke:black;" points="63,180 200,180 200,108 63,108 63,180"/>
<text text-anchor="start" x="71" y="125">{contact|&#45; contact_id </text>
<text text-anchor="start" x="71" y="141">&#45; name </text>
<text text-anchor="start" x="71" y="157">&#45; description </text>
<text text-anchor="middle" x="131" y="173">}</text>
</g>
<g id="node3" class="node"><title>db</title>
<polygon style="fill:white;stroke:black;" points="298,248 389,248 389,128 298,128 298,248"/>
<text text-anchor="start" x="306" y="145">{db|&#45; db_id </text>
<text text-anchor="start" x="306" y="161">&#45; name </text>
<text text-anchor="start" x="306" y="177">&#45; contact_id </text>
<text text-anchor="start" x="306" y="193">&#45; description </text>
<text text-anchor="start" x="306" y="209">&#45; urlprefix </text>
<text text-anchor="start" x="306" y="225">&#45; url </text>
<text text-anchor="middle" x="343" y="241">}</text>
</g>
<g id="edge2" class="edge"><title>contact&#45;&gt;db</title>
<path style="fill:none;stroke:black;" d="M200,158C228,164 261,171 288,177"/>
<polygon style="fill:black;stroke:black;" points="289,174 298,179 288,180 289,174"/>
</g>
<g id="node4" class="node"><title>dbxref</title>
<polygon style="fill:white;stroke:black;" points="182,512 310,512 310,408 182,408 182,512"/>
<text text-anchor="start" x="190" y="425">{dbxref|&#45; dbxref_id </text>
<text text-anchor="start" x="190" y="441">&#45; db_id </text>
<text text-anchor="start" x="190" y="457">&#45; accession </text>
<text text-anchor="start" x="190" y="473">&#45; version </text>
<text text-anchor="start" x="190" y="489">&#45; description </text>
<text text-anchor="middle" x="246" y="505">}</text>
</g>
<g id="edge4" class="edge"><title>db&#45;&gt;dbxref</title>
<path style="fill:none;stroke:black;" d="M322,248C306,293 284,353 268,398"/>
<polygon style="fill:black;stroke:black;" points="271,399 265,408 265,397 271,399"/>
</g>
<g id="node5" class="node"><title>project</title>
<polygon style="fill:white;stroke:black;" points="497,123 630,123 630,51 497,51 497,123"/>
<text text-anchor="start" x="505" y="68">{project|&#45; project_id </text>
<text text-anchor="start" x="505" y="84">&#45; name </text>
<text text-anchor="start" x="505" y="100">&#45; description </text>
<text text-anchor="middle" x="563" y="116">}</text>
</g>
</g>
</svg>
