<?xml version="1.0" encoding="UTF-8" standalone="no"?>
<!DOCTYPE svg PUBLIC "-//W3C//DTD SVG 1.0//EN"
 "http://www.w3.org/TR/2001/REC-SVG-20010904/DTD/svg10.dtd">
<!-- Generated by neato version 2.2.1 (Wed Apr 13 22:41:22 UTC 2005)
     For user: (allenday) Allen Day            Title: test    Pages: 1 -->
<svg width="732pt" height="587pt"
 viewBox = "-1 -1 731 586"
 xmlns="http://www.w3.org/2000/svg">
<g id="graph0" class="graph" transform = "scale(0.629921)"
 style="font-family:Times-Roman;font-size:14.00;">
<title>test</title>
<g id="node1" class="node"><title>genotype</title>
<polygon style="fill:white;stroke:black;" points="375,426 532,426 532,354 375,354 375,426"/>
<text text-anchor="start" x="383" y="371">{genotype|&#45; genotype_id </text>
<text text-anchor="start" x="383" y="387">&#45; uniquename </text>
<text text-anchor="start" x="383" y="403">&#45; description </text>
<text text-anchor="middle" x="453" y="419">}</text>
</g>
<g id="node2" class="node"><title>feature_genotype</title>
<polygon style="fill:white;stroke:black;" points="74,162 321,162 321,26 74,26 74,162"/>
<text text-anchor="start" x="82" y="43">{feature_genotype|&#45; feature_genotype_id </text>
<text text-anchor="start" x="82" y="59">&#45; feature_id </text>
<text text-anchor="start" x="82" y="75">&#45; genotype_id </text>
<text text-anchor="start" x="82" y="91">&#45; chromosome_id </text>
<text text-anchor="start" x="82" y="107">&#45; rank </text>
<text text-anchor="start" x="82" y="123">&#45; cgroup </text>
<text text-anchor="start" x="82" y="139">&#45; cvterm_id </text>
<text text-anchor="middle" x="197" y="155">}</text>
</g>
<g id="edge10" class="edge"><title>genotype&#45;&gt;feature_genotype</title>
<path style="fill:none;stroke:black;" d="M422,354C382,308 313,229 263,170"/>
<polygon style="fill:black;stroke:black;" points="260,172 256,162 265,167 260,172"/>
</g>
<g id="node7" class="node"><title>phenstatement</title>
<polygon style="fill:white;stroke:black;" points="508,150 725,150 725,30 508,30 508,150"/>
<text text-anchor="start" x="516" y="47">{phenstatement|&#45; phenstatement_id </text>
<text text-anchor="start" x="516" y="63">&#45; genotype_id </text>
<text text-anchor="start" x="516" y="79">&#45; environment_id </text>
<text text-anchor="start" x="516" y="95">&#45; phenotype_id </text>
<text text-anchor="start" x="516" y="111">&#45; type_id </text>
<text text-anchor="start" x="516" y="127">&#45; pub_id </text>
<text text-anchor="middle" x="616" y="143">}</text>
</g>
<g id="edge16" class="edge"><title>genotype&#45;&gt;phenstatement</title>
<path style="fill:none;stroke:black;" d="M473,354C499,305 545,220 578,159"/>
<polygon style="fill:black;stroke:black;" points="575,157 583,150 581,160 575,157"/>
</g>
<g id="node9" class="node"><title>phendesc</title>
<polygon style="fill:white;stroke:black;" points="57,489 217,489 217,385 57,385 57,489"/>
<text text-anchor="start" x="65" y="402">{phendesc|&#45; phendesc_id </text>
<text text-anchor="start" x="65" y="418">&#45; genotype_id </text>
<text text-anchor="start" x="65" y="434">&#45; environment_id </text>
<text text-anchor="start" x="65" y="450">&#45; description </text>
<text text-anchor="start" x="65" y="466">&#45; pub_id </text>
<text text-anchor="middle" x="137" y="482">}</text>
</g>
<g id="edge12" class="edge"><title>genotype&#45;&gt;phendesc</title>
<path style="fill:none;stroke:black;" d="M375,402C330,409 273,417 227,424"/>
<polygon style="fill:black;stroke:black;" points="227,427 217,425 227,421 227,427"/>
</g>
<g id="node10" class="node"><title>phenotype_comparison</title>
<polygon style="fill:white;stroke:black;" points="557,899 872,899 872,731 557,731 557,899"/>
<text text-anchor="start" x="565" y="748">{phenotype_comparison|&#45; phenotype_comparison_id </text>
<text text-anchor="start" x="565" y="764">&#45; genotype1_id </text>
<text text-anchor="start" x="565" y="780">&#45; environment1_id </text>
<text text-anchor="start" x="565" y="796">&#45; genotype2_id </text>
<text text-anchor="start" x="565" y="812">&#45; environment2_id </text>
<text text-anchor="start" x="565" y="828">&#45; phenotype1_id </text>
<text text-anchor="start" x="565" y="844">&#45; phenotype2_id </text>
<text text-anchor="start" x="565" y="860">&#45; type_id </text>
<text text-anchor="start" x="565" y="876">&#45; pub_id </text>
<text text-anchor="middle" x="714" y="892">}</text>
</g>
<g id="edge14" class="edge"><title>genotype&#45;&gt;phenotype_comparison</title>
<path style="fill:none;stroke:black;" d="M475,426C515,491 600,629 657,722"/>
<polygon style="fill:black;stroke:black;" points="660,721 662,731 654,724 660,721"/>
</g>
<g id="node3" class="node"><title>environment</title>
<polygon style="fill:white;stroke:black;" points="353,805 548,805 548,733 353,733 353,805"/>
<text text-anchor="start" x="361" y="750">{environment|&#45; environment_id </text>
<text text-anchor="start" x="361" y="766">&#45; uniquename </text>
<text text-anchor="start" x="361" y="782">&#45; description </text>
<text text-anchor="middle" x="450" y="798">}</text>
</g>
<g id="node4" class="node"><title>environment_cvterm</title>
<polygon style="fill:white;stroke:black;" points="6,836 293,836 293,764 6,764 6,836"/>
<text text-anchor="start" x="14" y="781">{environment_cvterm|&#45; environment_cvterm_id </text>
<text text-anchor="start" x="14" y="797">&#45; environment_id </text>
<text text-anchor="start" x="14" y="813">&#45; cvterm_id </text>
<text text-anchor="middle" x="149" y="829">}</text>
</g>
<g id="edge2" class="edge"><title>environment&#45;&gt;environment_cvterm</title>
<path style="fill:none;stroke:black;" d="M353,779C337,781 320,782 303,784"/>
<polygon style="fill:black;stroke:black;" points="303,787 293,785 303,781 303,787"/>
</g>
<g id="edge8" class="edge"><title>environment&#45;&gt;phenstatement</title>
<path style="fill:none;stroke:black;" d="M459,733C485,626 564,304 599,160"/>
<polygon style="fill:black;stroke:black;" points="596,159 601,150 602,160 596,159"/>
</g>
<g id="edge4" class="edge"><title>environment&#45;&gt;phendesc</title>
<path style="fill:none;stroke:black;" d="M416,733C363,676 258,565 193,496"/>
<polygon style="fill:black;stroke:black;" points="191,499 186,489 196,494 191,499"/>
</g>
<g id="edge6" class="edge"><title>environment&#45;&gt;phenotype_comparison</title>
<path style="fill:none;stroke:black;" d="M548,786C548,786 548,786 548,786"/>
<polygon style="fill:black;stroke:black;" points="548,782 557,788 546,789 548,782"/>
</g>
<g id="node5" class="node"><title>phenotype</title>
<polygon style="fill:white;stroke:black;" points="653,516 824,516 824,380 653,380 653,516"/>
<text text-anchor="start" x="661" y="397">{phenotype|&#45; phenotype_id </text>
<text text-anchor="start" x="661" y="413">&#45; uniquename </text>
<text text-anchor="start" x="661" y="429">&#45; observable_id </text>
<text text-anchor="start" x="661" y="445">&#45; attr_id </text>
<text text-anchor="start" x="661" y="461">&#45; value </text>
<text text-anchor="start" x="661" y="477">&#45; cvalue_id </text>
<text text-anchor="start" x="661" y="493">&#45; assay_id </text>
<text text-anchor="middle" x="738" y="509">}</text>
</g>
<g id="node6" class="node"><title>phenotype_cvterm</title>
<polygon style="fill:white;stroke:black;" points="862,210 1125,210 1125,138 862,138 862,210"/>
<text text-anchor="start" x="870" y="155">{phenotype_cvterm|&#45; phenotype_cvterm_id </text>
<text text-anchor="start" x="870" y="171">&#45; phenotype_id </text>
<text text-anchor="start" x="870" y="187">&#45; cvterm_id </text>
<text text-anchor="middle" x="993" y="203">}</text>
</g>
<g id="edge22" class="edge"><title>phenotype&#45;&gt;phenotype_cvterm</title>
<path style="fill:none;stroke:black;" d="M801,380C848,329 911,261 952,218"/>
<polygon style="fill:black;stroke:black;" points="950,215 959,210 955,220 950,215"/>
</g>
<g id="edge24" class="edge"><title>phenotype&#45;&gt;phenstatement</title>
<path style="fill:none;stroke:black;" d="M715,380C693,317 661,224 639,160"/>
<polygon style="fill:black;stroke:black;" points="636,161 636,150 642,159 636,161"/>
</g>
<g id="node8" class="node"><title>feature_phenotype</title>
<polygon style="fill:white;stroke:black;" points="885,753 1147,753 1147,681 885,681 885,753"/>
<text text-anchor="start" x="893" y="698">{feature_phenotype|&#45; feature_phenotype_id </text>
<text text-anchor="start" x="893" y="714">&#45; feature_id </text>
<text text-anchor="start" x="893" y="730">&#45; phenotype_id </text>
<text text-anchor="middle" x="1016" y="746">}</text>
</g>
<g id="edge18" class="edge"><title>phenotype&#45;&gt;feature_phenotype</title>
<path style="fill:none;stroke:black;" d="M809,516C860,565 927,631 972,674"/>
<polygon style="fill:black;stroke:black;" points="974,671 979,681 969,676 974,671"/>
</g>
<g id="edge20" class="edge"><title>phenotype&#45;&gt;phenotype_comparison</title>
<path style="fill:none;stroke:black;" d="M734,516C730,574 725,657 721,721"/>
<polygon style="fill:black;stroke:black;" points="724,721 720,731 718,721 724,721"/>
</g>
</g>
</svg>
