<?xml version="1.0" encoding="UTF-8" standalone="no"?>
<!DOCTYPE svg PUBLIC "-//W3C//DTD SVG 1.0//EN"
 "http://www.w3.org/TR/2001/REC-SVG-20010904/DTD/svg10.dtd" [
 <!ATTLIST svg xmlns:xlink CDATA #FIXED "http://www.w3.org/1999/xlink">
]>
<!-- Generated by Graphviz version 2.20.2 (Wed Sep 16 11:12:11 UTC 2009)
     For user: (cain) Scott Cain,,, -->
<!-- Title: test Pages: 1 -->
<svg width="410pt" height="178pt"
 viewBox="0.00 0.00 410.00 178.00" xmlns="http://www.w3.org/2000/svg" xmlns:xlink="http://www.w3.org/1999/xlink">
<g id="graph0" class="graph" transform="scale(1 1) rotate(0) translate(4 174)">
<title>test</title>
<polygon style="fill:lightgoldenrodyellow;stroke:lightgoldenrodyellow;" points="-4,4 -4,-174 406,-174 406,4 -4,4"/>
<!-- node1 -->
<g id="node1" class="node"><title>node1</title>
<polygon style="fill:white;stroke:black;" points="1,-0 1,-169 169,-169 169,-0 1,-0"/>
<text text-anchor="middle" x="85" y="-151.9" style="font-family:Times New Roman;font-size:14.00;">tableinfo</text>
<polyline style="fill:none;stroke:black;" points="1,-144 169,-144 "/>
<text text-anchor="start" x="9" y="-127.4" style="font-family:Times New Roman;font-size:14.00;">&#45; tableinfo_id</text>
<text text-anchor="start" x="9" y="-110.4" style="font-family:Times New Roman;font-size:14.00;">&#45; name</text>
<text text-anchor="start" x="9" y="-93.4" style="font-family:Times New Roman;font-size:14.00;">&#45; primary_key_column</text>
<text text-anchor="start" x="9" y="-76.4" style="font-family:Times New Roman;font-size:14.00;">&#45; is_view</text>
<text text-anchor="start" x="9" y="-59.4" style="font-family:Times New Roman;font-size:14.00;">&#45; view_on_table_id</text>
<text text-anchor="start" x="9" y="-42.4" style="font-family:Times New Roman;font-size:14.00;">&#45; superclass_table_id</text>
<text text-anchor="start" x="9" y="-25.4" style="font-family:Times New Roman;font-size:14.00;">&#45; is_updateable</text>
<text text-anchor="start" x="9" y="-8.4" style="font-family:Times New Roman;font-size:14.00;">&#45; modification_date</text>
</g>
<!-- node2 -->
<g id="node2" class="node"><title>node2</title>
<polygon style="fill:white;stroke:black;" points="181,-23 181,-141 282,-141 282,-23 181,-23"/>
<text text-anchor="middle" x="231" y="-123.9" style="font-family:Times New Roman;font-size:14.00;">db</text>
<polyline style="fill:none;stroke:black;" points="181,-116 282,-116 "/>
<text text-anchor="start" x="188.5" y="-98.9" style="font-family:Times New Roman;font-size:14.00;">&#45; db_id</text>
<text text-anchor="start" x="188.5" y="-81.9" style="font-family:Times New Roman;font-size:14.00;">&#45; name</text>
<text text-anchor="start" x="188.5" y="-64.9" style="font-family:Times New Roman;font-size:14.00;">&#45; description</text>
<text text-anchor="start" x="188.5" y="-47.9" style="font-family:Times New Roman;font-size:14.00;">&#45; urlprefix</text>
<text text-anchor="start" x="188.5" y="-30.9" style="font-family:Times New Roman;font-size:14.00;">&#45; url</text>
</g>
<!-- node3 -->
<g id="node3" class="node"><title>node3</title>
<polygon style="fill:white;stroke:black;" points="301,-21 301,-139 402,-139 402,-21 301,-21"/>
<text text-anchor="middle" x="351" y="-121.9" style="font-family:Times New Roman;font-size:14.00;">dbxref</text>
<polyline style="fill:none;stroke:black;" points="301,-114 402,-114 "/>
<text text-anchor="start" x="308.5" y="-96.9" style="font-family:Times New Roman;font-size:14.00;">&#45; dbxref_id</text>
<text text-anchor="start" x="308.5" y="-79.9" style="font-family:Times New Roman;font-size:14.00;">&#45; db_id</text>
<text text-anchor="start" x="308.5" y="-62.9" style="font-family:Times New Roman;font-size:14.00;">&#45; accession</text>
<text text-anchor="start" x="308.5" y="-45.9" style="font-family:Times New Roman;font-size:14.00;">&#45; version</text>
<text text-anchor="start" x="308.5" y="-28.9" style="font-family:Times New Roman;font-size:14.00;">&#45; description</text>
</g>
<!-- node2&#45;&gt;node3 -->
<g id="edge2" class="edge"><title>node2&#45;&gt;node3</title>
<path style="fill:none;stroke:black;" d="M282,-81C285,-81 288,-81 291,-81"/>
<polygon style="fill:black;stroke:black;" points="291,-84.5001 301,-81 291,-77.5001 291,-84.5001"/>
</g>
</g>
</svg>
