<?xml version="1.0" encoding="UTF-8" standalone="no"?>
<!DOCTYPE svg PUBLIC "-//W3C//DTD SVG 1.0//EN"
 "http://www.w3.org/TR/2001/REC-SVG-20010904/DTD/svg10.dtd" [
 <!ATTLIST svg xmlns:xlink CDATA #FIXED "http://www.w3.org/1999/xlink">
]>
<!-- Generated by Graphviz version 2.16 (Fri Feb  8 12:52:03 UTC 2008)
     For user: (scott) Scott Cain,,, -->
<!-- Title: test Pages: 1 -->
<svg width="717pt" height="576pt"
 viewBox="0.00 0.00 717.04 576.00" xmlns="http://www.w3.org/2000/svg" xmlns:xlink="http://www.w3.org/1999/xlink">
<g id="graph0" class="graph" transform="scale(0.986301 0.986301) rotate(0) translate(4 580)">
<title>test</title>
<polygon style="fill:white;stroke:white;" points="-4,4 -4,-580 722.958,-580 722.958,4 -4,4"/>
<!-- genotype -->
<g id="node1" class="node"><title>genotype</title>
<polygon style="fill:white;stroke:black;" points="432,-269 432,-368 529,-368 529,-269 432,-269"/>
<text text-anchor="middle" x="480" y="-350.65" style="font-family:Times New Roman;font-size:14.00;">genotype</text>
<polyline style="fill:none;stroke:black;" points="432,-343 529,-343 "/>
<text text-anchor="start" x="439.5" y="-326.4" style="font-family:Times New Roman;font-size:14.00;">&#45; genotype_id </text>
<text text-anchor="start" x="439.5" y="-309.9" style="font-family:Times New Roman;font-size:14.00;">&#45; name </text>
<text text-anchor="start" x="439.5" y="-293.4" style="font-family:Times New Roman;font-size:14.00;">&#45; uniquename </text>
<text text-anchor="start" x="439.5" y="-276.9" style="font-family:Times New Roman;font-size:14.00;">&#45; description </text>
</g>
<!-- feature_genotype -->
<g id="node2" class="node"><title>feature_genotype</title>
<polygon style="fill:white;stroke:black;" points="565,-78 565,-227 707,-227 707,-78 565,-78"/>
<text text-anchor="middle" x="636" y="-209.65" style="font-family:Times New Roman;font-size:14.00;">feature_genotype</text>
<polyline style="fill:none;stroke:black;" points="565,-202 707,-202 "/>
<text text-anchor="start" x="573" y="-185.15" style="font-family:Times New Roman;font-size:14.00;">&#45; feature_genotype_id </text>
<text text-anchor="start" x="573" y="-168.65" style="font-family:Times New Roman;font-size:14.00;">&#45; feature_id </text>
<text text-anchor="start" x="573" y="-152.15" style="font-family:Times New Roman;font-size:14.00;">&#45; genotype_id </text>
<text text-anchor="start" x="573" y="-135.65" style="font-family:Times New Roman;font-size:14.00;">&#45; chromosome_id </text>
<text text-anchor="start" x="573" y="-119.15" style="font-family:Times New Roman;font-size:14.00;">&#45; rank </text>
<text text-anchor="start" x="573" y="-102.65" style="font-family:Times New Roman;font-size:14.00;">&#45; cgroup </text>
<text text-anchor="start" x="573" y="-86.15" style="font-family:Times New Roman;font-size:14.00;">&#45; cvterm_id </text>
</g>
<!-- genotype&#45;&gt;feature_genotype -->
<g id="edge10" class="edge"><title>genotype&#45;&gt;feature_genotype</title>
<path style="fill:none;stroke:black;" d="M527,-269C537,-258 548,-246 559,-235"/>
<polygon style="fill:black;stroke:black;" points="562.049,-236.831 566,-227 556.781,-232.221 562.049,-236.831"/>
</g>
<!-- phenstatement -->
<g id="node5" class="node"><title>phenstatement</title>
<polygon style="fill:white;stroke:black;" points="563,-396 563,-528 689,-528 689,-396 563,-396"/>
<text text-anchor="middle" x="626" y="-510.65" style="font-family:Times New Roman;font-size:14.00;">phenstatement</text>
<polyline style="fill:none;stroke:black;" points="563,-503 689,-503 "/>
<text text-anchor="start" x="571.25" y="-485.9" style="font-family:Times New Roman;font-size:14.00;">&#45; phenstatement_id </text>
<text text-anchor="start" x="571.25" y="-469.4" style="font-family:Times New Roman;font-size:14.00;">&#45; genotype_id </text>
<text text-anchor="start" x="571.25" y="-452.9" style="font-family:Times New Roman;font-size:14.00;">&#45; environment_id </text>
<text text-anchor="start" x="571.25" y="-436.4" style="font-family:Times New Roman;font-size:14.00;">&#45; phenotype_id </text>
<text text-anchor="start" x="571.25" y="-419.9" style="font-family:Times New Roman;font-size:14.00;">&#45; type_id </text>
<text text-anchor="start" x="571.25" y="-403.4" style="font-family:Times New Roman;font-size:14.00;">&#45; pub_id </text>
</g>
<!-- genotype&#45;&gt;phenstatement -->
<g id="edge16" class="edge"><title>genotype&#45;&gt;phenstatement</title>
<path style="fill:none;stroke:black;" d="M529,-367C538,-376 547,-384 556,-394"/>
<polygon style="fill:black;stroke:black;" points="553.454,-396.404 563,-401 558.404,-391.454 553.454,-396.404"/>
</g>
<!-- phendesc -->
<g id="node6" class="node"><title>phendesc</title>
<polygon style="fill:white;stroke:black;" points="296,-431 296,-563 410,-563 410,-431 296,-431"/>
<text text-anchor="middle" x="353" y="-545.65" style="font-family:Times New Roman;font-size:14.00;">phendesc</text>
<polyline style="fill:none;stroke:black;" points="296,-538 410,-538 "/>
<text text-anchor="start" x="303.875" y="-520.9" style="font-family:Times New Roman;font-size:14.00;">&#45; phendesc_id </text>
<text text-anchor="start" x="303.875" y="-504.4" style="font-family:Times New Roman;font-size:14.00;">&#45; genotype_id </text>
<text text-anchor="start" x="303.875" y="-487.9" style="font-family:Times New Roman;font-size:14.00;">&#45; environment_id </text>
<text text-anchor="start" x="303.875" y="-471.4" style="font-family:Times New Roman;font-size:14.00;">&#45; description </text>
<text text-anchor="start" x="303.875" y="-454.9" style="font-family:Times New Roman;font-size:14.00;">&#45; type_id </text>
<text text-anchor="start" x="303.875" y="-438.4" style="font-family:Times New Roman;font-size:14.00;">&#45; pub_id </text>
</g>
<!-- genotype&#45;&gt;phendesc -->
<g id="edge12" class="edge"><title>genotype&#45;&gt;phendesc</title>
<path style="fill:none;stroke:black;" d="M445,-368C433,-385 419,-404 406,-423"/>
<polygon style="fill:black;stroke:black;" points="403.2,-420.9 400,-431 408.8,-425.1 403.2,-420.9"/>
</g>
<!-- phenotype_comparison -->
<g id="node7" class="node"><title>phenotype_comparison</title>
<polygon style="fill:white;stroke:black;" points="307,-17 307,-199 485,-199 485,-17 307,-17"/>
<text text-anchor="middle" x="396" y="-181.65" style="font-family:Times New Roman;font-size:14.00;">phenotype_comparison</text>
<polyline style="fill:none;stroke:black;" points="307,-174 485,-174 "/>
<text text-anchor="start" x="315" y="-156.65" style="font-family:Times New Roman;font-size:14.00;">&#45; phenotype_comparison_id </text>
<text text-anchor="start" x="315" y="-140.15" style="font-family:Times New Roman;font-size:14.00;">&#45; genotype1_id </text>
<text text-anchor="start" x="315" y="-123.65" style="font-family:Times New Roman;font-size:14.00;">&#45; environment1_id </text>
<text text-anchor="start" x="315" y="-107.15" style="font-family:Times New Roman;font-size:14.00;">&#45; genotype2_id </text>
<text text-anchor="start" x="315" y="-90.65" style="font-family:Times New Roman;font-size:14.00;">&#45; environment2_id </text>
<text text-anchor="start" x="315" y="-74.15" style="font-family:Times New Roman;font-size:14.00;">&#45; phenotype1_id </text>
<text text-anchor="start" x="315" y="-57.65" style="font-family:Times New Roman;font-size:14.00;">&#45; phenotype2_id </text>
<text text-anchor="start" x="315" y="-41.15" style="font-family:Times New Roman;font-size:14.00;">&#45; pub_id </text>
<text text-anchor="start" x="315" y="-24.65" style="font-family:Times New Roman;font-size:14.00;">&#45; organism_id </text>
</g>
<!-- genotype&#45;&gt;phenotype_comparison -->
<g id="edge14" class="edge"><title>genotype&#45;&gt;phenotype_comparison</title>
<path style="fill:none;stroke:black;" d="M460,-269C453,-251 445,-229 436,-208"/>
<polygon style="fill:black;stroke:black;" points="439.26,-206.717 432,-199 432.863,-209.56 439.26,-206.717"/>
</g>
<!-- environment -->
<g id="node3" class="node"><title>environment</title>
<polygon style="fill:white;stroke:black;" points="222,-250 222,-333 336,-333 336,-250 222,-250"/>
<text text-anchor="middle" x="279" y="-315.65" style="font-family:Times New Roman;font-size:14.00;">environment</text>
<polyline style="fill:none;stroke:black;" points="222,-308 336,-308 "/>
<text text-anchor="start" x="229.875" y="-291.15" style="font-family:Times New Roman;font-size:14.00;">&#45; environment_id </text>
<text text-anchor="start" x="229.875" y="-274.65" style="font-family:Times New Roman;font-size:14.00;">&#45; uniquename </text>
<text text-anchor="start" x="229.875" y="-258.15" style="font-family:Times New Roman;font-size:14.00;">&#45; description </text>
</g>
<!-- environment_cvterm -->
<g id="node4" class="node"><title>environment_cvterm</title>
<polygon style="fill:white;stroke:black;" points="37,-401 37,-484 197,-484 197,-401 37,-401"/>
<text text-anchor="middle" x="117" y="-466.65" style="font-family:Times New Roman;font-size:14.00;">environment_cvterm</text>
<polyline style="fill:none;stroke:black;" points="37,-459 197,-459 "/>
<text text-anchor="start" x="45" y="-442.15" style="font-family:Times New Roman;font-size:14.00;">&#45; environment_cvterm_id </text>
<text text-anchor="start" x="45" y="-425.65" style="font-family:Times New Roman;font-size:14.00;">&#45; environment_id </text>
<text text-anchor="start" x="45" y="-409.15" style="font-family:Times New Roman;font-size:14.00;">&#45; cvterm_id </text>
</g>
<!-- environment&#45;&gt;environment_cvterm -->
<g id="edge2" class="edge"><title>environment&#45;&gt;environment_cvterm</title>
<path style="fill:none;stroke:black;" d="M235,-333C214,-352 191,-375 169,-394"/>
<polygon style="fill:black;stroke:black;" points="166.596,-391.454 162,-401 171.546,-396.404 166.596,-391.454"/>
</g>
<!-- environment&#45;&gt;phenstatement -->
<g id="edge8" class="edge"><title>environment&#45;&gt;phenstatement</title>
<path style="fill:none;stroke:black;" d="M336,-320C396,-349 489,-394 554,-426"/>
<polygon style="fill:black;stroke:black;" points="552.559,-429.203 563,-431 555.958,-423.084 552.559,-429.203"/>
</g>
<!-- environment&#45;&gt;phendesc -->
<g id="edge4" class="edge"><title>environment&#45;&gt;phendesc</title>
<path style="fill:none;stroke:black;" d="M294,-333C303,-358 315,-392 326,-421"/>
<polygon style="fill:black;stroke:black;" points="322.774,-422.427 329,-431 329.479,-420.416 322.774,-422.427"/>
</g>
<!-- environment&#45;&gt;phenotype_comparison -->
<g id="edge6" class="edge"><title>environment&#45;&gt;phenotype_comparison</title>
<path style="fill:none;stroke:black;" d="M306,-250C314,-237 323,-223 333,-208"/>
<polygon style="fill:black;stroke:black;" points="336.203,-209.441 338,-199 330.084,-206.042 336.203,-209.441"/>
</g>
<!-- phenotype_comparison_cvterm -->
<g id="node8" class="node"><title>phenotype_comparison_cvterm</title>
<polygon style="fill:white;stroke:black;" points="21,-80 21,-196 245,-196 245,-80 21,-80"/>
<text text-anchor="middle" x="133" y="-178.65" style="font-family:Times New Roman;font-size:14.00;">phenotype_comparison_cvterm</text>
<polyline style="fill:none;stroke:black;" points="21,-171 245,-171 "/>
<text text-anchor="start" x="29.125" y="-153.65" style="font-family:Times New Roman;font-size:14.00;">&#45; phenotype_comparison_cvterm_id </text>
<text text-anchor="start" x="29.125" y="-137.15" style="font-family:Times New Roman;font-size:14.00;">&#45; phenotype_comparison_id </text>
<text text-anchor="start" x="29.125" y="-120.65" style="font-family:Times New Roman;font-size:14.00;">&#45; cvterm_id </text>
<text text-anchor="start" x="29.125" y="-104.15" style="font-family:Times New Roman;font-size:14.00;">&#45; pub_id </text>
<text text-anchor="start" x="29.125" y="-87.65" style="font-family:Times New Roman;font-size:14.00;">&#45; rank </text>
</g>
<!-- phenotype_comparison&#45;&gt;phenotype_comparison_cvterm -->
<g id="edge18" class="edge"><title>phenotype_comparison&#45;&gt;phenotype_comparison_cvterm</title>
<path style="fill:none;stroke:black;" d="M307,-118C290,-120 273,-122 255,-124"/>
<polygon style="fill:black;stroke:black;" points="254.602,-120.522 245,-125 255.299,-127.488 254.602,-120.522"/>
</g>
</g>
</svg>
