<?xml version="1.0" encoding="UTF-8" standalone="no"?>
<!DOCTYPE svg PUBLIC "-//W3C//DTD SVG 1.0//EN"
 "http://www.w3.org/TR/2001/REC-SVG-20010904/DTD/svg10.dtd" [
 <!ATTLIST svg xmlns:xlink CDATA #FIXED "http://www.w3.org/1999/xlink">
]>
<!-- Generated by Graphviz version 2.12 (Tue Sep  4 16:56:48 UTC 2007)
     For user: (scott) Scott Cain,,, -->
<!-- Title: test Pages: 1 -->
<svg width="9.96in" height="7.99in"
 xmlns="http://www.w3.org/2000/svg" xmlns:xlink="http://www.w3.org/1999/xlink">
<g id="graph0" class="graph" transform="scale(1.31507 1.31507) rotate(0) translate(4 580)">
<title>test</title>
<polygon style="fill:white;stroke:white;" points="-4,4 -4,-580 723,-580 723,4 -4,4"/>
<!-- tableinfo -->
<g id="node1" class="node"><title>tableinfo</title>
<polygon style="fill:white;stroke:black;" points="78,-95 78,-291 228,-291 228,-95 78,-95"/>
<text text-anchor="middle" x="153" y="-273" style="font-family:Nimbus Roman No9 L;font-weight:regular;font-size:11.34pt;">tableinfo</text>
<polyline style="fill:none;stroke:black;" points="78,-263 228,-263 "/>
<text text-anchor="start" x="86" y="-245" style="font-family:Nimbus Roman No9 L;font-weight:regular;font-size:11.34pt;">&#45; tableinfo_id </text>
<text text-anchor="start" x="86" y="-225" style="font-family:Nimbus Roman No9 L;font-weight:regular;font-size:11.34pt;">&#45; name </text>
<text text-anchor="start" x="86" y="-205" style="font-family:Nimbus Roman No9 L;font-weight:regular;font-size:11.34pt;">&#45; primary_key_column </text>
<text text-anchor="start" x="86" y="-185" style="font-family:Nimbus Roman No9 L;font-weight:regular;font-size:11.34pt;">&#45; is_view </text>
<text text-anchor="start" x="86" y="-165" style="font-family:Nimbus Roman No9 L;font-weight:regular;font-size:11.34pt;">&#45; view_on_table_id </text>
<text text-anchor="start" x="86" y="-145" style="font-family:Nimbus Roman No9 L;font-weight:regular;font-size:11.34pt;">&#45; superclass_table_id </text>
<text text-anchor="start" x="86" y="-125" style="font-family:Nimbus Roman No9 L;font-weight:regular;font-size:11.34pt;">&#45; is_updateable </text>
<text text-anchor="start" x="86" y="-105" style="font-family:Nimbus Roman No9 L;font-weight:regular;font-size:11.34pt;">&#45; modification_date </text>
</g>
<!-- db -->
<g id="node2" class="node"><title>db</title>
<polygon style="fill:white;stroke:black;" points="374,-147 374,-283 465,-283 465,-147 374,-147"/>
<text text-anchor="middle" x="419" y="-265" style="font-family:Nimbus Roman No9 L;font-weight:regular;font-size:11.34pt;">db</text>
<polyline style="fill:none;stroke:black;" points="374,-255 465,-255 "/>
<text text-anchor="start" x="382" y="-237" style="font-family:Nimbus Roman No9 L;font-weight:regular;font-size:11.34pt;">&#45; db_id </text>
<text text-anchor="start" x="382" y="-217" style="font-family:Nimbus Roman No9 L;font-weight:regular;font-size:11.34pt;">&#45; name </text>
<text text-anchor="start" x="382" y="-197" style="font-family:Nimbus Roman No9 L;font-weight:regular;font-size:11.34pt;">&#45; description </text>
<text text-anchor="start" x="382" y="-177" style="font-family:Nimbus Roman No9 L;font-weight:regular;font-size:11.34pt;">&#45; urlprefix </text>
<text text-anchor="start" x="382" y="-157" style="font-family:Nimbus Roman No9 L;font-weight:regular;font-size:11.34pt;">&#45; url </text>
</g>
<!-- dbxref -->
<g id="node3" class="node"><title>dbxref</title>
<polygon style="fill:white;stroke:black;" points="582,-137 582,-273 673,-273 673,-137 582,-137"/>
<text text-anchor="middle" x="627" y="-255" style="font-family:Nimbus Roman No9 L;font-weight:regular;font-size:11.34pt;">dbxref</text>
<polyline style="fill:none;stroke:black;" points="582,-245 673,-245 "/>
<text text-anchor="start" x="590" y="-227" style="font-family:Nimbus Roman No9 L;font-weight:regular;font-size:11.34pt;">&#45; dbxref_id </text>
<text text-anchor="start" x="590" y="-207" style="font-family:Nimbus Roman No9 L;font-weight:regular;font-size:11.34pt;">&#45; db_id </text>
<text text-anchor="start" x="590" y="-187" style="font-family:Nimbus Roman No9 L;font-weight:regular;font-size:11.34pt;">&#45; accession </text>
<text text-anchor="start" x="590" y="-167" style="font-family:Nimbus Roman No9 L;font-weight:regular;font-size:11.34pt;">&#45; version </text>
<text text-anchor="start" x="590" y="-147" style="font-family:Nimbus Roman No9 L;font-weight:regular;font-size:11.34pt;">&#45; description </text>
</g>
<!-- db&#45;&gt;dbxref -->
<g id="edge2" class="edge"><title>db&#45;&gt;dbxref</title>
<path style="fill:none;stroke:black;" d="M465,-213C497,-211 538,-209 572,-208"/>
<polygon style="fill:black;stroke:black;" points="572.398,-211.478 582,-207 571.701,-204.512 572.398,-211.478"/>
</g>
<!-- project -->
<g id="node4" class="node"><title>project</title>
<polygon style="fill:white;stroke:black;" points="411,-433 411,-529 502,-529 502,-433 411,-433"/>
<text text-anchor="middle" x="456" y="-511" style="font-family:Nimbus Roman No9 L;font-weight:regular;font-size:11.34pt;">project</text>
<polyline style="fill:none;stroke:black;" points="411,-501 502,-501 "/>
<text text-anchor="start" x="419" y="-483" style="font-family:Nimbus Roman No9 L;font-weight:regular;font-size:11.34pt;">&#45; project_id </text>
<text text-anchor="start" x="419" y="-463" style="font-family:Nimbus Roman No9 L;font-weight:regular;font-size:11.34pt;">&#45; name </text>
<text text-anchor="start" x="419" y="-443" style="font-family:Nimbus Roman No9 L;font-weight:regular;font-size:11.34pt;">&#45; description </text>
</g>
</g>
</svg>
