<?xml version="1.0" encoding="UTF-8" standalone="no"?>
<!DOCTYPE svg PUBLIC "-//W3C//DTD SVG 1.0//EN"
 "http://www.w3.org/TR/2001/REC-SVG-20010904/DTD/svg10.dtd" [
 <!ATTLIST svg xmlns:xlink CDATA #FIXED "http://www.w3.org/1999/xlink">
]>
<!-- Generated by dot version 2.8 (Thu Sep 14 20:34:11 UTC 2006)
     For user: (scott) Scott Cain -->
<!-- Title: test Pages: 1 -->
<svg width="728pt" height="584pt"
 viewBox = "0 0 728 584"
 xmlns="http://www.w3.org/2000/svg" xmlns:xlink="http://www.w3.org/1999/xlink">
<g id="graph0" class="graph" style="font-family:Times-Roman;font-size:14.00;">
<title>test</title>
<polygon style="fill:white;stroke:white;" points="-2,586 -2,-2 730,-2 730,586 -2,586"/>
<!-- tableinfo -->
<g id="node1" class="node"><title>tableinfo</title>
<polygon style="fill:white;stroke:black;" points="475,242 629,242 629,90 475,90 475,242"/>
<text text-anchor="start" x="483" y="107">{tableinfo|&#45; tableinfo_id </text>
<text text-anchor="start" x="483" y="123">&#45; name </text>
<text text-anchor="start" x="483" y="139">&#45; primary_key_column </text>
<text text-anchor="start" x="483" y="155">&#45; is_view </text>
<text text-anchor="start" x="483" y="171">&#45; view_on_table_id </text>
<text text-anchor="start" x="483" y="187">&#45; superclass_table_id </text>
<text text-anchor="start" x="483" y="203">&#45; is_updateable </text>
<text text-anchor="start" x="483" y="219">&#45; modification_date </text>
<text text-anchor="middle" x="552" y="235">}</text>
</g>
<!-- db -->
<g id="node2" class="node"><title>db</title>
<polygon style="fill:white;stroke:black;" points="60,520 151,520 151,416 60,416 60,520"/>
<text text-anchor="start" x="68" y="433">{db|&#45; db_id </text>
<text text-anchor="start" x="68" y="449">&#45; name </text>
<text text-anchor="start" x="68" y="465">&#45; description </text>
<text text-anchor="start" x="68" y="481">&#45; urlprefix </text>
<text text-anchor="start" x="68" y="497">&#45; url </text>
<text text-anchor="middle" x="105" y="513">}</text>
</g>
<!-- dbxref -->
<g id="node3" class="node"><title>dbxref</title>
<polygon style="fill:white;stroke:black;" points="323,521 452,521 452,417 323,417 323,521"/>
<text text-anchor="start" x="331" y="434">{dbxref|&#45; dbxref_id </text>
<text text-anchor="start" x="331" y="450">&#45; db_id </text>
<text text-anchor="start" x="331" y="466">&#45; accession </text>
<text text-anchor="start" x="331" y="482">&#45; version </text>
<text text-anchor="start" x="331" y="498">&#45; description </text>
<text text-anchor="middle" x="387" y="514">}</text>
</g>
<!-- db&#45;&gt;dbxref -->
<g id="edge2" class="edge"><title>db&#45;&gt;dbxref</title>
<path style="fill:none;stroke:black;" d="M151,468C195,468 262,468 313,469"/>
<polygon style="fill:black;stroke:black;" points="313,465 323,469 313,472 313,465"/>
</g>
<!-- project -->
<g id="node4" class="node"><title>project</title>
<polygon style="fill:white;stroke:black;" points="125,179 259,179 259,107 125,107 125,179"/>
<text text-anchor="start" x="133" y="124">{project|&#45; project_id </text>
<text text-anchor="start" x="133" y="140">&#45; name </text>
<text text-anchor="start" x="133" y="156">&#45; description </text>
<text text-anchor="middle" x="192" y="172">}</text>
</g>
</g>
</svg>
