<?xml version="1.0" encoding="UTF-8" standalone="no"?>
<!DOCTYPE svg PUBLIC "-//W3C//DTD SVG 1.0//EN"
 "http://www.w3.org/TR/2001/REC-SVG-20010904/DTD/svg10.dtd">
<!-- Generated by neato version 1.10 (Tue Nov 11 16:12:26 EST 2003)
     For user: (allenday) Allen Day   Title: test    Pages: 1 -->
<svg width="975px" height="783px"
 viewBox = "-1 -1 731 587"
 xmlns="http://www.w3.org/2000/svg">
<g id="graph0" class="graph" transform = "scale(0.979592)"
 style="font-family:Times-Roman;font-size:14.00;">
<title>test</title>
<polygon style="fill:white;stroke:white;" points="0,597 0,0 745,0 745,597 0,597"/>
<g id="node1" class="node"><title>gcontext</title>
<polygon style="fill:white;stroke:black;" points="240,275 340,275 340,187 240,187 240,275"/>
<text text-anchor="middle" x="290" y="202">gcontext</text>
<polyline style="fill:none;stroke:black;" points="240,207 340,207 "/>
<text text-anchor="start" x="240" y="222">gcontext_id</text>
<text text-anchor="start" x="240" y="238">uniquename</text>
<text text-anchor="start" x="240" y="254">description</text>
<text text-anchor="middle" x="290" y="270">pub_id</text>
</g>
<g id="node2" class="node"><title>gcontext_relationship</title>
<polygon style="fill:white;stroke:black;" points="538,168 723,168 723,80 538,80 538,168"/>
<text text-anchor="middle" x="630" y="95">gcontext_relationship</text>
<polyline style="fill:none;stroke:black;" points="538,100 723,100 "/>
<text text-anchor="start" x="538" y="115">gcontext_relationship_id</text>
<text text-anchor="start" x="538" y="131">subjectgc_id</text>
<text text-anchor="start" x="538" y="147">objectgc_id</text>
<text text-anchor="middle" x="630" y="163">type_id</text>
</g>
<g id="edge4" class="edge"><title>gcontext-&gt;gcontext_relationship</title>
<path style="fill:none;stroke:black;" d="M340,215C403,196 466,176 529,156"/>
<polygon style="fill:black;stroke:black;" points="527,154 537,153 529,159 527,154"/>
</g>
<g id="node3" class="node"><title>feature_gcontext</title>
<polygon style="fill:white;stroke:black;" points="6,379 161,379 161,243 6,243 6,379"/>
<text text-anchor="middle" x="83" y="258">feature_gcontext</text>
<polyline style="fill:none;stroke:black;" points="6,263 161,263 "/>
<text text-anchor="start" x="6" y="278">feature_gcontext_id</text>
<text text-anchor="start" x="6" y="294">feature_id</text>
<text text-anchor="start" x="6" y="310">gcontext_id</text>
<text text-anchor="start" x="6" y="326">chromosome_id</text>
<text text-anchor="start" x="6" y="342">rank</text>
<text text-anchor="start" x="6" y="358">cgroup</text>
<text text-anchor="middle" x="83" y="374">cvterm_id</text>
</g>
<g id="edge2" class="edge"><title>gcontext-&gt;feature_gcontext</title>
<path style="fill:none;stroke:black;" d="M240,250C217,259 193,268 170,277"/>
<polygon style="fill:black;stroke:black;" points="171,279 161,281 169,275 171,279"/>
</g>
<g id="node4" class="node"><title>gcontextprop</title>
<polygon style="fill:white;stroke:black;" points="328,93 455,93 455,5 328,5 328,93"/>
<text text-anchor="middle" x="391" y="20">gcontextprop</text>
<polyline style="fill:none;stroke:black;" points="328,25 455,25 "/>
<text text-anchor="start" x="328" y="40">gcontextprop_id</text>
<text text-anchor="start" x="328" y="56">gcontext_id</text>
<text text-anchor="start" x="328" y="72">type_id</text>
<text text-anchor="middle" x="391" y="88">value</text>
</g>
<g id="edge6" class="edge"><title>gcontext-&gt;gcontextprop</title>
<path style="fill:none;stroke:black;" d="M314,187C331,159 346,129 363,101"/>
<polygon style="fill:black;stroke:black;" points="360,101 367,93 365,103 360,101"/>
</g>
<g id="node5" class="node"><title>phenstatement</title>
<polygon style="fill:white;stroke:black;" points="357,416 494,416 494,264 357,264 357,416"/>
<text text-anchor="middle" x="425" y="279">phenstatement</text>
<polyline style="fill:none;stroke:black;" points="357,284 494,284 "/>
<text text-anchor="start" x="357" y="299">phenstatement_id</text>
<text text-anchor="start" x="357" y="315">gcontext_id</text>
<text text-anchor="start" x="357" y="331">dbxref_id</text>
<text text-anchor="start" x="357" y="347">observable_id</text>
<text text-anchor="start" x="357" y="363">attr_id</text>
<text text-anchor="start" x="357" y="379">value</text>
<text text-anchor="start" x="357" y="395">cvalue_id</text>
<text text-anchor="middle" x="425" y="411">assay_id</text>
</g>
<g id="edge10" class="edge"><title>gcontext-&gt;phenstatement</title>
<path style="fill:none;stroke:black;" d="M340,271C343,273 345,275 348,278"/>
<polygon style="fill:black;stroke:black;" points="350,276 356,284 346,280 350,276"/>
</g>
<g id="node6" class="node"><title>phendesc</title>
<polygon style="fill:white;stroke:black;" points="51,104 151,104 151,32 51,32 51,104"/>
<text text-anchor="middle" x="101" y="47">phendesc</text>
<polyline style="fill:none;stroke:black;" points="51,52 151,52 "/>
<text text-anchor="start" x="51" y="67">phendesc_id</text>
<text text-anchor="start" x="51" y="83">gcontext_id</text>
<text text-anchor="middle" x="101" y="99">description</text>
</g>
<g id="edge8" class="edge"><title>gcontext-&gt;phendesc</title>
<path style="fill:none;stroke:black;" d="M240,188C211,162 180,137 151,111"/>
<polygon style="fill:black;stroke:black;" points="149,112 143,104 152,109 149,112"/>
</g>
<g id="node7" class="node"><title>phenstatement_relationship</title>
<polygon style="fill:white;stroke:black;" points="6,581 233,581 233,477 6,477 6,581"/>
<text text-anchor="middle" x="119" y="492">phenstatement_relationship</text>
<polyline style="fill:none;stroke:black;" points="6,497 233,497 "/>
<text text-anchor="start" x="6" y="512">phenstatement_relationship_id</text>
<text text-anchor="start" x="6" y="528">subject_id</text>
<text text-anchor="start" x="6" y="544">object_id</text>
<text text-anchor="start" x="6" y="560">type_id</text>
<text text-anchor="middle" x="119" y="576">comment_id</text>
</g>
<g id="edge16" class="edge"><title>phenstatement-&gt;phenstatement_relationship</title>
<path style="fill:none;stroke:black;" d="M356,382C308,412 259,442 211,472"/>
<polygon style="fill:black;stroke:black;" points="213,474 203,477 210,470 213,474"/>
</g>
<g id="node8" class="node"><title>phenstatement_cvterm</title>
<polygon style="fill:white;stroke:black;" points="543,506 739,506 739,434 543,434 543,506"/>
<text text-anchor="middle" x="641" y="449">phenstatement_cvterm</text>
<polyline style="fill:none;stroke:black;" points="543,454 739,454 "/>
<text text-anchor="start" x="543" y="469">phenstatement_cvterm_id</text>
<text text-anchor="start" x="543" y="485">phenstatement_id</text>
<text text-anchor="middle" x="641" y="501">cvterm_id</text>
</g>
<g id="edge12" class="edge"><title>phenstatement-&gt;phenstatement_cvterm</title>
<path style="fill:none;stroke:black;" d="M494,381C520,397 547,413 573,429"/>
<polygon style="fill:black;stroke:black;" points="574,427 581,434 571,431 574,427"/>
</g>
<g id="node9" class="node"><title>phenstatement_prop</title>
<polygon style="fill:white;stroke:black;" points="307,591 486,591 486,503 307,503 307,591"/>
<text text-anchor="middle" x="396" y="518">phenstatement_prop</text>
<polyline style="fill:none;stroke:black;" points="307,523 486,523 "/>
<text text-anchor="start" x="307" y="538">phenstatement_prop_id</text>
<text text-anchor="start" x="307" y="554">phenstatement_id</text>
<text text-anchor="start" x="307" y="570">type_id</text>
<text text-anchor="middle" x="396" y="586">value</text>
</g>
<g id="edge14" class="edge"><title>phenstatement-&gt;phenstatement_prop</title>
<path style="fill:none;stroke:black;" d="M414,416C410,442 407,467 403,493"/>
<polygon style="fill:black;stroke:black;" points="405,493 402,503 401,493 405,493"/>
</g>
</g></svg>
