<?xml version="1.0" encoding="UTF-8" standalone="no"?>
<!DOCTYPE svg PUBLIC "-//W3C//DTD SVG 1.1//EN"
 "http://www.w3.org/Graphics/SVG/1.1/DTD/svg11.dtd">
<!-- Generated by graphviz version 2.27.20091228.0545 (20091228.0545)
 -->
<!-- Title: test Pages: 1 -->
<svg width="685pt" height="741pt"
 viewBox="0.00 0.00 685.00 741.00" xmlns="http://www.w3.org/2000/svg" xmlns:xlink="http://www.w3.org/1999/xlink">
<g id="graph1" class="graph" transform="scale(1 1) rotate(0) translate(4 737)">
<title>test</title>
<polygon fill="lightgoldenrodyellow" stroke="lightgoldenrodyellow" points="-4,5 -4,-737 682,-737 682,5 -4,5"/>
<!-- node1 -->
<g id="node1" class="node"><title>node1</title>
<polygon fill="white" stroke="black" points="1,-1.5 1,-92.5 99,-92.5 99,-1.5 1,-1.5"/>
<text text-anchor="middle" x="50" y="-75.9" font-family="Times,serif" font-size="14.00">genotype</text>
<polyline fill="none" stroke="black" points="1,-69.5 99,-69.5 "/>
<text text-anchor="start" x="9" y="-52.9" font-family="Times,serif" font-size="14.00">&#45; genotype_id</text>
<text text-anchor="start" x="9" y="-37.9" font-family="Times,serif" font-size="14.00">&#45; name</text>
<text text-anchor="start" x="9" y="-22.9" font-family="Times,serif" font-size="14.00">&#45; uniquename</text>
<text text-anchor="start" x="9" y="-7.9" font-family="Times,serif" font-size="14.00">&#45; description</text>
</g>
<!-- node2 -->
<g id="node2" class="node"><title>node2</title>
<polygon fill="white" stroke="black" points="23,-595.5 23,-731.5 166,-731.5 166,-595.5 23,-595.5"/>
<text text-anchor="middle" x="94.5" y="-714.9" font-family="Times,serif" font-size="14.00">feature_genotype</text>
<polyline fill="none" stroke="black" points="23,-708.5 166,-708.5 "/>
<text text-anchor="start" x="31" y="-691.9" font-family="Times,serif" font-size="14.00">&#45; feature_genotype_id</text>
<text text-anchor="start" x="31" y="-676.9" font-family="Times,serif" font-size="14.00">&#45; feature_id</text>
<text text-anchor="start" x="31" y="-661.9" font-family="Times,serif" font-size="14.00">&#45; genotype_id</text>
<text text-anchor="start" x="31" y="-646.9" font-family="Times,serif" font-size="14.00">&#45; chromosome_id</text>
<text text-anchor="start" x="31" y="-631.9" font-family="Times,serif" font-size="14.00">&#45; rank</text>
<text text-anchor="start" x="31" y="-616.9" font-family="Times,serif" font-size="14.00">&#45; cgroup</text>
<text text-anchor="start" x="31" y="-601.9" font-family="Times,serif" font-size="14.00">&#45; cvterm_id</text>
</g>
<!-- node3 -->
<g id="node3" class="node"><title>node3</title>
<polygon fill="white" stroke="black" points="529,-67.5 529,-143.5 645,-143.5 645,-67.5 529,-67.5"/>
<text text-anchor="middle" x="587" y="-126.9" font-family="Times,serif" font-size="14.00">environment</text>
<polyline fill="none" stroke="black" points="529,-120.5 645,-120.5 "/>
<text text-anchor="start" x="537" y="-103.9" font-family="Times,serif" font-size="14.00">&#45; environment_id</text>
<text text-anchor="start" x="537" y="-88.9" font-family="Times,serif" font-size="14.00">&#45; uniquename</text>
<text text-anchor="start" x="537" y="-73.9" font-family="Times,serif" font-size="14.00">&#45; description</text>
</g>
<!-- node4 -->
<g id="node4" class="node"><title>node4</title>
<polygon fill="white" stroke="black" points="331,-67.5 331,-143.5 494,-143.5 494,-67.5 331,-67.5"/>
<text text-anchor="middle" x="412.5" y="-126.9" font-family="Times,serif" font-size="14.00">environment_cvterm</text>
<polyline fill="none" stroke="black" points="331,-120.5 494,-120.5 "/>
<text text-anchor="start" x="339" y="-103.9" font-family="Times,serif" font-size="14.00">&#45; environment_cvterm_id</text>
<text text-anchor="start" x="339" y="-88.9" font-family="Times,serif" font-size="14.00">&#45; environment_id</text>
<text text-anchor="start" x="339" y="-73.9" font-family="Times,serif" font-size="14.00">&#45; cvterm_id</text>
</g>
<!-- node5 -->
<g id="node5" class="node"><title>node5</title>
<polygon fill="white" stroke="black" points="551,-243.5 551,-364.5 676,-364.5 676,-243.5 551,-243.5"/>
<text text-anchor="middle" x="613.5" y="-347.9" font-family="Times,serif" font-size="14.00">phenstatement</text>
<polyline fill="none" stroke="black" points="551,-341.5 676,-341.5 "/>
<text text-anchor="start" x="559" y="-324.9" font-family="Times,serif" font-size="14.00">&#45; phenstatement_id</text>
<text text-anchor="start" x="559" y="-309.9" font-family="Times,serif" font-size="14.00">&#45; genotype_id</text>
<text text-anchor="start" x="559" y="-294.9" font-family="Times,serif" font-size="14.00">&#45; environment_id</text>
<text text-anchor="start" x="559" y="-279.9" font-family="Times,serif" font-size="14.00">&#45; phenotype_id</text>
<text text-anchor="start" x="559" y="-264.9" font-family="Times,serif" font-size="14.00">&#45; type_id</text>
<text text-anchor="start" x="559" y="-249.9" font-family="Times,serif" font-size="14.00">&#45; pub_id</text>
</g>
<!-- node6 -->
<g id="node6" class="node"><title>node6</title>
<polygon fill="white" stroke="black" points="45,-441.5 45,-562.5 161,-562.5 161,-441.5 45,-441.5"/>
<text text-anchor="middle" x="103" y="-545.9" font-family="Times,serif" font-size="14.00">phendesc</text>
<polyline fill="none" stroke="black" points="45,-539.5 161,-539.5 "/>
<text text-anchor="start" x="53" y="-522.9" font-family="Times,serif" font-size="14.00">&#45; phendesc_id</text>
<text text-anchor="start" x="53" y="-507.9" font-family="Times,serif" font-size="14.00">&#45; genotype_id</text>
<text text-anchor="start" x="53" y="-492.9" font-family="Times,serif" font-size="14.00">&#45; environment_id</text>
<text text-anchor="start" x="53" y="-477.9" font-family="Times,serif" font-size="14.00">&#45; description</text>
<text text-anchor="start" x="53" y="-462.9" font-family="Times,serif" font-size="14.00">&#45; type_id</text>
<text text-anchor="start" x="53" y="-447.9" font-family="Times,serif" font-size="14.00">&#45; pub_id</text>
</g>
<!-- node7 -->
<g id="node7" class="node"><title>node7</title>
<polygon fill="white" stroke="black" points="463,-463.5 463,-629.5 640,-629.5 640,-463.5 463,-463.5"/>
<text text-anchor="middle" x="551.5" y="-612.9" font-family="Times,serif" font-size="14.00">phenotype_comparison</text>
<polyline fill="none" stroke="black" points="463,-606.5 640,-606.5 "/>
<text text-anchor="start" x="471" y="-589.9" font-family="Times,serif" font-size="14.00">&#45; phenotype_comparison_id</text>
<text text-anchor="start" x="471" y="-574.9" font-family="Times,serif" font-size="14.00">&#45; genotype1_id</text>
<text text-anchor="start" x="471" y="-559.9" font-family="Times,serif" font-size="14.00">&#45; environment1_id</text>
<text text-anchor="start" x="471" y="-544.9" font-family="Times,serif" font-size="14.00">&#45; genotype2_id</text>
<text text-anchor="start" x="471" y="-529.9" font-family="Times,serif" font-size="14.00">&#45; environment2_id</text>
<text text-anchor="start" x="471" y="-514.9" font-family="Times,serif" font-size="14.00">&#45; phenotype1_id</text>
<text text-anchor="start" x="471" y="-499.9" font-family="Times,serif" font-size="14.00">&#45; phenotype2_id</text>
<text text-anchor="start" x="471" y="-484.9" font-family="Times,serif" font-size="14.00">&#45; pub_id</text>
<text text-anchor="start" x="471" y="-469.9" font-family="Times,serif" font-size="14.00">&#45; organism_id</text>
</g>
<!-- node8 -->
<g id="node8" class="node"><title>node8</title>
<polygon fill="white" stroke="black" points="199,-485.5 199,-591.5 423,-591.5 423,-485.5 199,-485.5"/>
<text text-anchor="middle" x="311" y="-574.9" font-family="Times,serif" font-size="14.00">phenotype_comparison_cvterm</text>
<polyline fill="none" stroke="black" points="199,-568.5 423,-568.5 "/>
<text text-anchor="start" x="207" y="-551.9" font-family="Times,serif" font-size="14.00">&#45; phenotype_comparison_cvterm_id</text>
<text text-anchor="start" x="207" y="-536.9" font-family="Times,serif" font-size="14.00">&#45; phenotype_comparison_id</text>
<text text-anchor="start" x="207" y="-521.9" font-family="Times,serif" font-size="14.00">&#45; cvterm_id</text>
<text text-anchor="start" x="207" y="-506.9" font-family="Times,serif" font-size="14.00">&#45; pub_id</text>
<text text-anchor="start" x="207" y="-491.9" font-family="Times,serif" font-size="14.00">&#45; rank</text>
</g>
<!-- genotype -->
<g id="node9" class="node"><title>genotype</title>
<polygon fill="white" stroke="black" points="375.516,-259.342 375.516,-295.342 445.516,-295.342 445.516,-259.342 375.516,-259.342"/>
<text text-anchor="middle" x="410.516" y="-272.242" font-family="Times,serif" font-size="14.00">genotype</text>
</g>
<!-- feature_genotype -->
<g id="node10" class="node"><title>feature_genotype</title>
<polygon fill="white" stroke="black" points="480.479,-171.985 480.479,-207.985 596.479,-207.985 596.479,-171.985 480.479,-171.985"/>
<text text-anchor="middle" x="538.479" y="-184.885" font-family="Times,serif" font-size="14.00">feature_genotype</text>
</g>
<!-- genotype&#45;&gt;feature_genotype -->
<g id="edge10" class="edge"><title>genotype&#45;&gt;feature_genotype</title>
<path fill="none" stroke="black" d="M437.03,-259.242C456.332,-246.065 482.659,-228.092 503.656,-213.758"/>
<polygon fill="black" stroke="black" points="505.714,-216.591 511.999,-208.062 501.767,-210.81 505.714,-216.591"/>
</g>
<!-- phenstatement -->
<g id="node13" class="node"><title>phenstatement</title>
<polygon fill="white" stroke="black" points="466.956,-383.756 466.956,-419.756 564.956,-419.756 564.956,-383.756 466.956,-383.756"/>
<text text-anchor="middle" x="515.956" y="-396.656" font-family="Times,serif" font-size="14.00">phenstatement</text>
</g>
<!-- genotype&#45;&gt;phenstatement -->
<g id="edge16" class="edge"><title>genotype&#45;&gt;phenstatement</title>
<path fill="none" stroke="black" d="M425.848,-295.433C443.808,-316.626 473.696,-351.892 494.086,-375.951"/>
<polygon fill="black" stroke="black" points="491.47,-378.278 500.605,-383.644 496.81,-373.752 491.47,-378.278"/>
</g>
<!-- phendesc -->
<g id="node14" class="node"><title>phendesc</title>
<polygon fill="white" stroke="black" points="215.781,-410.706 215.781,-446.706 285.781,-446.706 285.781,-410.706 215.781,-410.706"/>
<text text-anchor="middle" x="250.781" y="-423.606" font-family="Times,serif" font-size="14.00">phendesc</text>
</g>
<!-- genotype&#45;&gt;phendesc -->
<g id="edge12" class="edge"><title>genotype&#45;&gt;phendesc</title>
<path fill="none" stroke="black" d="M391.248,-295.6C362.825,-322.534 309.562,-373.006 277.417,-403.466"/>
<polygon fill="black" stroke="black" points="274.968,-400.964 270.117,-410.383 279.783,-406.045 274.968,-400.964"/>
</g>
<!-- phenotype_comparison -->
<g id="node15" class="node"><title>phenotype_comparison</title>
<polygon fill="white" stroke="black" points="255.886,-196.301 255.886,-232.301 404.886,-232.301 404.886,-196.301 255.886,-196.301"/>
<text text-anchor="middle" x="330.386" y="-209.201" font-family="Times,serif" font-size="14.00">phenotype_comparison</text>
</g>
<!-- genotype&#45;&gt;phenotype_comparison -->
<g id="edge14" class="edge"><title>genotype&#45;&gt;phenotype_comparison</title>
<path fill="none" stroke="black" d="M387.339,-259.108C379.283,-252.77 370.112,-245.555 361.518,-238.794"/>
<polygon fill="black" stroke="black" points="363.534,-235.927 353.511,-232.495 359.206,-241.429 363.534,-235.927"/>
</g>
<!-- environment -->
<g id="node11" class="node"><title>environment</title>
<polygon fill="white" stroke="black" points="167.636,-296.495 167.636,-332.495 256.636,-332.495 256.636,-296.495 167.636,-296.495"/>
<text text-anchor="middle" x="212.136" y="-309.395" font-family="Times,serif" font-size="14.00">environment</text>
</g>
<!-- environment_cvterm -->
<g id="node12" class="node"><title>environment_cvterm</title>
<polygon fill="white" stroke="black" points="1,-280.749 1,-316.749 136,-316.749 136,-280.749 1,-280.749"/>
<text text-anchor="middle" x="68.5" y="-293.649" font-family="Times,serif" font-size="14.00">environment_cvterm</text>
</g>
<!-- environment&#45;&gt;environment_cvterm -->
<g id="edge2" class="edge"><title>environment&#45;&gt;environment_cvterm</title>
<path fill="none" stroke="black" d="M167.476,-309.599C160.625,-308.848 153.388,-308.055 146.071,-307.252"/>
<polygon fill="black" stroke="black" points="146.393,-303.767 136.071,-306.156 145.63,-310.725 146.393,-303.767"/>
</g>
<!-- environment&#45;&gt;phenstatement -->
<g id="edge8" class="edge"><title>environment&#45;&gt;phenstatement</title>
<path fill="none" stroke="black" d="M256.64,-327.277C309.614,-342.492 398.267,-367.954 456.929,-384.803"/>
<polygon fill="black" stroke="black" points="456.219,-388.24 466.796,-387.637 458.151,-381.512 456.219,-388.24"/>
</g>
<!-- environment&#45;&gt;phendesc -->
<g id="edge4" class="edge"><title>environment&#45;&gt;phendesc</title>
<path fill="none" stroke="black" d="M218.26,-332.592C224.478,-350.97 234.191,-379.674 241.384,-400.933"/>
<polygon fill="black" stroke="black" points="238.166,-402.343 244.686,-410.693 244.796,-400.099 238.166,-402.343"/>
</g>
<!-- environment&#45;&gt;phenotype_comparison -->
<g id="edge6" class="edge"><title>environment&#45;&gt;phenotype_comparison</title>
<path fill="none" stroke="black" d="M233.55,-296.35C252.554,-280.249 280.477,-256.59 301.462,-238.809"/>
<polygon fill="black" stroke="black" points="303.764,-241.446 309.131,-232.311 299.239,-236.105 303.764,-241.446"/>
</g>
<!-- phenotype_comparison_cvterm -->
<g id="node16" class="node"><title>phenotype_comparison_cvterm</title>
<polygon fill="white" stroke="black" points="101.834,-133.5 101.834,-169.5 297.834,-169.5 297.834,-133.5 101.834,-133.5"/>
<text text-anchor="middle" x="199.834" y="-146.4" font-family="Times,serif" font-size="14.00">phenotype_comparison_cvterm</text>
</g>
<!-- phenotype_comparison&#45;&gt;phenotype_comparison_cvterm -->
<g id="edge18" class="edge"><title>phenotype_comparison&#45;&gt;phenotype_comparison_cvterm</title>
<path fill="none" stroke="black" d="M292.625,-196.137C278.282,-189.237 261.768,-181.293 246.685,-174.037"/>
<polygon fill="black" stroke="black" points="248.039,-170.805 237.51,-169.624 245.005,-177.113 248.039,-170.805"/>
</g>
</g>
</svg>
