<?xml version="1.0" encoding="UTF-8" standalone="no"?>
<!DOCTYPE svg PUBLIC "-//W3C//DTD SVG 1.0//EN"
 "http://www.w3.org/TR/2001/REC-SVG-20010904/DTD/svg10.dtd">
<!-- Generated by neato version 2.2.1 (Wed Apr 13 22:41:22 UTC 2005)
     For user: (allenday) Allen Day            Title: test    Pages: 1 -->
<svg width="731pt" height="588pt"
 viewBox = "-1 -1 730 587"
 xmlns="http://www.w3.org/2000/svg">
<g id="graph0" class="graph" style="font-family:Times-Roman;font-size:14.00;">
<title>test</title>
<g id="node1" class="node"><title>featuremap</title>
<polygon style="fill:white;stroke:black;" points="346,139 526,139 526,51 346,51 346,139"/>
<text text-anchor="start" x="354" y="68">{featuremap|&#45; featuremap_id </text>
<text text-anchor="start" x="354" y="84">&#45; name </text>
<text text-anchor="start" x="354" y="100">&#45; description </text>
<text text-anchor="start" x="354" y="116">&#45; unittype_id </text>
<text text-anchor="middle" x="436" y="132">}</text>
</g>
<g id="node2" class="node"><title>featurerange</title>
<polygon style="fill:white;stroke:black;" points="505,417 699,417 699,265 505,265 505,417"/>
<text text-anchor="start" x="513" y="282">{featurerange|&#45; featurerange_id </text>
<text text-anchor="start" x="513" y="298">&#45; featuremap_id </text>
<text text-anchor="start" x="513" y="314">&#45; feature_id </text>
<text text-anchor="start" x="513" y="330">&#45; leftstartf_id </text>
<text text-anchor="start" x="513" y="346">&#45; leftendf_id </text>
<text text-anchor="start" x="513" y="362">&#45; rightstartf_id </text>
<text text-anchor="start" x="513" y="378">&#45; rightendf_id </text>
<text text-anchor="start" x="513" y="394">&#45; rangestr </text>
<text text-anchor="middle" x="602" y="410">}</text>
</g>
<g id="edge6" class="edge"><title>featuremap&#45;&gt;featurerange</title>
<path style="fill:none;stroke:black;" d="M466,139C488,172 519,217 545,257"/>
<polygon style="fill:black;stroke:black;" points="548,255 551,265 542,259 548,255"/>
</g>
<g id="node3" class="node"><title>featurepos</title>
<polygon style="fill:white;stroke:black;" points="152,525 323,525 323,421 152,421 152,525"/>
<text text-anchor="start" x="160" y="438">{featurepos|&#45; featurepos_id </text>
<text text-anchor="start" x="160" y="454">&#45; featuremap_id </text>
<text text-anchor="start" x="160" y="470">&#45; feature_id </text>
<text text-anchor="start" x="160" y="486">&#45; map_feature_id </text>
<text text-anchor="start" x="160" y="502">&#45; mappos </text>
<text text-anchor="middle" x="237" y="518">}</text>
</g>
<g id="edge4" class="edge"><title>featuremap&#45;&gt;featurepos</title>
<path style="fill:none;stroke:black;" d="M413,139C377,206 310,335 269,412"/>
<polygon style="fill:black;stroke:black;" points="272,414 264,421 266,411 272,414"/>
</g>
<g id="node4" class="node"><title>featuremap_pub</title>
<polygon style="fill:white;stroke:black;" points="37,155 273,155 273,83 37,83 37,155"/>
<text text-anchor="start" x="45" y="100">{featuremap_pub|&#45; featuremap_pub_id </text>
<text text-anchor="start" x="45" y="116">&#45; featuremap_id </text>
<text text-anchor="start" x="45" y="132">&#45; pub_id </text>
<text text-anchor="middle" x="155" y="148">}</text>
</g>
<g id="edge2" class="edge"><title>featuremap&#45;&gt;featuremap_pub</title>
<path style="fill:none;stroke:black;" d="M346,103C326,105 305,106 283,108"/>
<polygon style="fill:black;stroke:black;" points="283,111 273,109 283,105 283,111"/>
</g>
</g>
</svg>
