<?xml version="1.0" encoding="UTF-8" standalone="no"?>
<!DOCTYPE svg PUBLIC "-//W3C//DTD SVG 1.1//EN"
 "http://www.w3.org/Graphics/SVG/1.1/DTD/svg11.dtd">
<!-- Generated by graphviz version 2.27.20091228.0545 (20091228.0545)
 -->
<!-- Title: test Pages: 1 -->
<svg width="421pt" height="373pt"
 viewBox="0.00 0.00 421.00 373.00" xmlns="http://www.w3.org/2000/svg" xmlns:xlink="http://www.w3.org/1999/xlink">
<g id="graph1" class="graph" transform="scale(1 1) rotate(0) translate(4 369)">
<title>test</title>
<polygon fill="lightgoldenrodyellow" stroke="lightgoldenrodyellow" points="-4,5 -4,-369 418,-369 418,5 -4,5"/>
<!-- node1 -->
<g id="node1" class="node"><title>node1</title>
<polygon fill="white" stroke="black" points="305,-1.5 305,-92.5 412,-92.5 412,-1.5 305,-1.5"/>
<text text-anchor="middle" x="358.5" y="-75.9" font-family="Times,serif" font-size="14.00">featuremap</text>
<polyline fill="none" stroke="black" points="305,-69.5 412,-69.5 "/>
<text text-anchor="start" x="313" y="-52.9" font-family="Times,serif" font-size="14.00">&#45; featuremap_id</text>
<text text-anchor="start" x="313" y="-37.9" font-family="Times,serif" font-size="14.00">&#45; name</text>
<text text-anchor="start" x="313" y="-22.9" font-family="Times,serif" font-size="14.00">&#45; description</text>
<text text-anchor="start" x="313" y="-7.9" font-family="Times,serif" font-size="14.00">&#45; unittype_id</text>
</g>
<!-- node2 -->
<g id="node2" class="node"><title>node2</title>
<polygon fill="white" stroke="black" points="193,-209.5 193,-360.5 308,-360.5 308,-209.5 193,-209.5"/>
<text text-anchor="middle" x="250.5" y="-343.9" font-family="Times,serif" font-size="14.00">featurerange</text>
<polyline fill="none" stroke="black" points="193,-337.5 308,-337.5 "/>
<text text-anchor="start" x="201" y="-320.9" font-family="Times,serif" font-size="14.00">&#45; featurerange_id</text>
<text text-anchor="start" x="201" y="-305.9" font-family="Times,serif" font-size="14.00">&#45; featuremap_id</text>
<text text-anchor="start" x="201" y="-290.9" font-family="Times,serif" font-size="14.00">&#45; feature_id</text>
<text text-anchor="start" x="201" y="-275.9" font-family="Times,serif" font-size="14.00">&#45; leftstartf_id</text>
<text text-anchor="start" x="201" y="-260.9" font-family="Times,serif" font-size="14.00">&#45; leftendf_id</text>
<text text-anchor="start" x="201" y="-245.9" font-family="Times,serif" font-size="14.00">&#45; rightstartf_id</text>
<text text-anchor="start" x="201" y="-230.9" font-family="Times,serif" font-size="14.00">&#45; rightendf_id</text>
<text text-anchor="start" x="201" y="-215.9" font-family="Times,serif" font-size="14.00">&#45; rangestr</text>
</g>
<!-- node3 -->
<g id="node3" class="node"><title>node3</title>
<polygon fill="white" stroke="black" points="49,-257.5 49,-363.5 163,-363.5 163,-257.5 49,-257.5"/>
<text text-anchor="middle" x="106" y="-346.9" font-family="Times,serif" font-size="14.00">featurepos</text>
<polyline fill="none" stroke="black" points="49,-340.5 163,-340.5 "/>
<text text-anchor="start" x="57" y="-323.9" font-family="Times,serif" font-size="14.00">&#45; featurepos_id</text>
<text text-anchor="start" x="57" y="-308.9" font-family="Times,serif" font-size="14.00">&#45; featuremap_id</text>
<text text-anchor="start" x="57" y="-293.9" font-family="Times,serif" font-size="14.00">&#45; feature_id</text>
<text text-anchor="start" x="57" y="-278.9" font-family="Times,serif" font-size="14.00">&#45; map_feature_id</text>
<text text-anchor="start" x="57" y="-263.9" font-family="Times,serif" font-size="14.00">&#45; mappos</text>
</g>
<!-- node4 -->
<g id="node4" class="node"><title>node4</title>
<polygon fill="white" stroke="black" points="145,-17.5 145,-93.5 279,-93.5 279,-17.5 145,-17.5"/>
<text text-anchor="middle" x="212" y="-76.9" font-family="Times,serif" font-size="14.00">featuremap_pub</text>
<polyline fill="none" stroke="black" points="145,-70.5 279,-70.5 "/>
<text text-anchor="start" x="153" y="-53.9" font-family="Times,serif" font-size="14.00">&#45; featuremap_pub_id</text>
<text text-anchor="start" x="153" y="-38.9" font-family="Times,serif" font-size="14.00">&#45; featuremap_id</text>
<text text-anchor="start" x="153" y="-23.9" font-family="Times,serif" font-size="14.00">&#45; pub_id</text>
</g>
<!-- featuremap -->
<g id="node5" class="node"><title>featuremap</title>
<polygon fill="white" stroke="black" points="80.4543,-140.691 80.4543,-176.691 160.454,-176.691 160.454,-140.691 80.4543,-140.691"/>
<text text-anchor="middle" x="120.454" y="-153.591" font-family="Times,serif" font-size="14.00">featuremap</text>
</g>
<!-- featurerange -->
<g id="node6" class="node"><title>featurerange</title>
<polygon fill="white" stroke="black" points="170.701,-134.911 170.701,-170.911 257.701,-170.911 257.701,-134.911 170.701,-134.911"/>
<text text-anchor="middle" x="214.201" y="-147.811" font-family="Times,serif" font-size="14.00">featurerange</text>
</g>
<!-- featuremap&#45;&gt;featurerange -->
<g id="edge6" class="edge"><title>featuremap&#45;&gt;featurerange</title>
<path fill="none" stroke="black" d="M160.483,-156.223C160.586,-156.217 160.689,-156.21 160.792,-156.204"/>
<polygon fill="black" stroke="black" points="160.643,-159.72 170.408,-155.611 160.212,-152.733 160.643,-159.72"/>
</g>
<!-- featurepos -->
<g id="node7" class="node"><title>featurepos</title>
<polygon fill="white" stroke="black" points="36.0334,-65.5 36.0334,-101.5 111.033,-101.5 111.033,-65.5 36.0334,-65.5"/>
<text text-anchor="middle" x="73.5334" y="-78.4" font-family="Times,serif" font-size="14.00">featurepos</text>
</g>
<!-- featuremap&#45;&gt;featurepos -->
<g id="edge4" class="edge"><title>featuremap&#45;&gt;featurepos</title>
<path fill="none" stroke="black" d="M109.096,-140.49C103.448,-131.438 96.5111,-120.322 90.2683,-110.318"/>
<polygon fill="black" stroke="black" points="93.0504,-108.165 84.787,-101.534 87.1118,-111.871 93.0504,-108.165"/>
</g>
<!-- featuremap_pub -->
<g id="node8" class="node"><title>featuremap_pub</title>
<polygon fill="white" stroke="black" points="1,-190.134 1,-226.134 108,-226.134 108,-190.134 1,-190.134"/>
<text text-anchor="middle" x="54.5" y="-203.034" font-family="Times,serif" font-size="14.00">featuremap_pub</text>
</g>
<!-- featuremap&#45;&gt;featuremap_pub -->
<g id="edge2" class="edge"><title>featuremap&#45;&gt;featuremap_pub</title>
<path fill="none" stroke="black" d="M96.2699,-176.821C93.223,-179.105 90.0681,-181.471 86.92,-183.831"/>
<polygon fill="black" stroke="black" points="84.5834,-181.208 78.6815,-190.007 88.7822,-186.809 84.5834,-181.208"/>
</g>
</g>
</svg>
