<?xml version="1.0" encoding="UTF-8" standalone="no"?>
<!DOCTYPE svg PUBLIC "-//W3C//DTD SVG 1.0//EN"
 "http://www.w3.org/TR/2001/REC-SVG-20010904/DTD/svg10.dtd" [
 <!ATTLIST svg xmlns:xlink CDATA #FIXED "http://www.w3.org/1999/xlink">
]>
<!-- Generated by dot version 2.8 (Thu Sep 14 20:34:11 UTC 2006)
     For user: (scott) Scott Cain -->
<!-- Title: test Pages: 1 -->
<svg width="727pt" height="583pt"
 viewBox = "0 0 727 583"
 xmlns="http://www.w3.org/2000/svg" xmlns:xlink="http://www.w3.org/1999/xlink">
<g id="graph0" class="graph" style="font-family:Times-Roman;font-size:14.00;">
<title>test</title>
<polygon style="fill:white;stroke:white;" points="-2,585 -2,-2 729,-2 729,585 -2,585"/>
<!-- featuremap -->
<g id="node1" class="node"><title>featuremap</title>
<polygon style="fill:white;stroke:black;" points="342,130 523,130 523,42 342,42 342,130"/>
<text text-anchor="start" x="350" y="59">{featuremap|&#45; featuremap_id </text>
<text text-anchor="start" x="350" y="75">&#45; name </text>
<text text-anchor="start" x="350" y="91">&#45; description </text>
<text text-anchor="start" x="350" y="107">&#45; unittype_id </text>
<text text-anchor="middle" x="432" y="123">}</text>
</g>
<!-- featurerange -->
<g id="node2" class="node"><title>featurerange</title>
<polygon style="fill:white;stroke:black;" points="515,408 709,408 709,256 515,256 515,408"/>
<text text-anchor="start" x="523" y="273">{featurerange|&#45; featurerange_id </text>
<text text-anchor="start" x="523" y="289">&#45; featuremap_id </text>
<text text-anchor="start" x="523" y="305">&#45; feature_id </text>
<text text-anchor="start" x="523" y="321">&#45; leftstartf_id </text>
<text text-anchor="start" x="523" y="337">&#45; leftendf_id </text>
<text text-anchor="start" x="523" y="353">&#45; rightstartf_id </text>
<text text-anchor="start" x="523" y="369">&#45; rightendf_id </text>
<text text-anchor="start" x="523" y="385">&#45; rangestr </text>
<text text-anchor="middle" x="612" y="401">}</text>
</g>
<!-- featuremap&#45;&gt;featurerange -->
<g id="edge6" class="edge"><title>featuremap&#45;&gt;featurerange</title>
<path style="fill:none;stroke:black;" d="M464,130C488,163 521,208 550,248"/>
<polygon style="fill:black;stroke:black;" points="553,246 556,256 547,250 553,246"/>
</g>
<!-- featurepos -->
<g id="node3" class="node"><title>featurepos</title>
<polygon style="fill:white;stroke:black;" points="142,533 313,533 313,429 142,429 142,533"/>
<text text-anchor="start" x="150" y="446">{featurepos|&#45; featurepos_id </text>
<text text-anchor="start" x="150" y="462">&#45; featuremap_id </text>
<text text-anchor="start" x="150" y="478">&#45; feature_id </text>
<text text-anchor="start" x="150" y="494">&#45; map_feature_id </text>
<text text-anchor="start" x="150" y="510">&#45; mappos </text>
<text text-anchor="middle" x="227" y="526">}</text>
</g>
<!-- featuremap&#45;&gt;featurepos -->
<g id="edge4" class="edge"><title>featuremap&#45;&gt;featurepos</title>
<path style="fill:none;stroke:black;" d="M409,130C372,200 301,340 259,420"/>
<polygon style="fill:black;stroke:black;" points="262,422 254,429 256,419 262,422"/>
</g>
<!-- featuremap_pub -->
<g id="node4" class="node"><title>featuremap_pub</title>
<polygon style="fill:white;stroke:black;" points="23,149 259,149 259,77 23,77 23,149"/>
<text text-anchor="start" x="31" y="94">{featuremap_pub|&#45; featuremap_pub_id </text>
<text text-anchor="start" x="31" y="110">&#45; featuremap_id </text>
<text text-anchor="start" x="31" y="126">&#45; pub_id </text>
<text text-anchor="middle" x="141" y="142">}</text>
</g>
<!-- featuremap&#45;&gt;featuremap_pub -->
<g id="edge2" class="edge"><title>featuremap&#45;&gt;featuremap_pub</title>
<path style="fill:none;stroke:black;" d="M342,94C319,96 294,98 269,101"/>
<polygon style="fill:black;stroke:black;" points="269,104 259,102 269,98 269,104"/>
</g>
</g>
</svg>
