<?xml version="1.0" encoding="UTF-8" standalone="no"?>
<!DOCTYPE svg PUBLIC "-//W3C//DTD SVG 1.0//EN"
 "http://www.w3.org/TR/2001/REC-SVG-20010904/DTD/svg10.dtd" [
 <!ATTLIST svg xmlns:xlink CDATA #FIXED "http://www.w3.org/1999/xlink">
]>
<!-- Generated by Graphviz version 2.20.2 (Wed Sep 16 11:12:11 UTC 2009)
     For user: (cain) Scott Cain,,, -->
<!-- Title: test Pages: 1 -->
<svg width="1392pt" height="877pt"
 viewBox="0.00 0.00 1392.00 877.00" xmlns="http://www.w3.org/2000/svg" xmlns:xlink="http://www.w3.org/1999/xlink">
<g id="graph0" class="graph" transform="scale(1 1) rotate(0) translate(4 873)">
<title>test</title>
<polygon style="fill:lightgoldenrodyellow;stroke:lightgoldenrodyellow;" points="-4,4 -4,-873 1388,-873 1388,4 -4,4"/>
<!-- node1 -->
<g id="node1" class="node"><title>node1</title>
<polygon style="fill:white;stroke:black;" points="279,-517 279,-652 428,-652 428,-517 279,-517"/>
<text text-anchor="middle" x="353" y="-634.9" style="font-family:Times New Roman;font-size:14.00;">nd_geolocation</text>
<polyline style="fill:none;stroke:black;" points="279,-627 428,-627 "/>
<text text-anchor="start" x="286.5" y="-610.4" style="font-family:Times New Roman;font-size:14.00;">&#45; nd_geolocation_id</text>
<text text-anchor="start" x="286.5" y="-593.4" style="font-family:Times New Roman;font-size:14.00;">&#45; description</text>
<text text-anchor="start" x="286.5" y="-576.4" style="font-family:Times New Roman;font-size:14.00;">&#45; latitude</text>
<text text-anchor="start" x="286.5" y="-559.4" style="font-family:Times New Roman;font-size:14.00;">&#45; longitude</text>
<text text-anchor="start" x="286.5" y="-542.4" style="font-family:Times New Roman;font-size:14.00;">&#45; geodetic_datum</text>
<text text-anchor="start" x="286.5" y="-525.4" style="font-family:Times New Roman;font-size:14.00;">&#45; altitude</text>
</g>
<!-- node2 -->
<g id="node2" class="node"><title>node2</title>
<polygon style="fill:white;stroke:black;" points="530,-548 530,-632 679,-632 679,-548 530,-548"/>
<text text-anchor="middle" x="604" y="-614.9" style="font-family:Times New Roman;font-size:14.00;">nd_experiment</text>
<polyline style="fill:none;stroke:black;" points="530,-607 679,-607 "/>
<text text-anchor="start" x="537.5" y="-589.9" style="font-family:Times New Roman;font-size:14.00;">&#45; nd_experiment_id</text>
<text text-anchor="start" x="537.5" y="-572.9" style="font-family:Times New Roman;font-size:14.00;">&#45; nd_geolocation_id</text>
<text text-anchor="start" x="537.5" y="-555.9" style="font-family:Times New Roman;font-size:14.00;">&#45; type_id</text>
</g>
<!-- node1&#45;&gt;node2 -->
<g id="edge24" class="edge"><title>node1&#45;&gt;node2</title>
<path style="fill:none;stroke:black;" d="M428,-587C457,-587 490,-588 520,-589"/>
<polygon style="fill:black;stroke:black;" points="520,-592.5 530,-589 520,-585.5 520,-592.5"/>
</g>
<!-- node6 -->
<g id="node6" class="node"><title>node6</title>
<polygon style="fill:white;stroke:black;" points="37,-352 37,-470 217,-470 217,-352 37,-352"/>
<text text-anchor="middle" x="127" y="-452.9" style="font-family:Times New Roman;font-size:14.00;">nd_geolocationprop</text>
<polyline style="fill:none;stroke:black;" points="37,-445 217,-445 "/>
<text text-anchor="start" x="45" y="-427.9" style="font-family:Times New Roman;font-size:14.00;">&#45; nd_geolocationprop_id</text>
<text text-anchor="start" x="45" y="-410.9" style="font-family:Times New Roman;font-size:14.00;">&#45; nd_geolocation_id</text>
<text text-anchor="start" x="45" y="-393.9" style="font-family:Times New Roman;font-size:14.00;">&#45; cvterm_id</text>
<text text-anchor="start" x="45" y="-376.9" style="font-family:Times New Roman;font-size:14.00;">&#45; value</text>
<text text-anchor="start" x="45" y="-359.9" style="font-family:Times New Roman;font-size:14.00;">&#45; rank</text>
</g>
<!-- node1&#45;&gt;node6 -->
<g id="edge26" class="edge"><title>node1&#45;&gt;node6</title>
<path style="fill:none;stroke:black;" d="M279,-528C258,-511 234,-493 212,-476"/>
<polygon style="fill:black;stroke:black;" points="214.1,-473.2 204,-470 209.9,-478.8 214.1,-473.2"/>
</g>
<!-- node3 -->
<g id="node3" class="node"><title>node3</title>
<polygon style="fill:white;stroke:black;" points="342,-86 342,-170 546,-170 546,-86 342,-86"/>
<text text-anchor="middle" x="444" y="-152.9" style="font-family:Times New Roman;font-size:14.00;">nd_experiment_project</text>
<polyline style="fill:none;stroke:black;" points="342,-145 546,-145 "/>
<text text-anchor="start" x="350" y="-127.9" style="font-family:Times New Roman;font-size:14.00;">&#45; nd_experiment_project_id</text>
<text text-anchor="start" x="350" y="-110.9" style="font-family:Times New Roman;font-size:14.00;">&#45; project_id</text>
<text text-anchor="start" x="350" y="-93.9" style="font-family:Times New Roman;font-size:14.00;">&#45; nd_experiment_id</text>
</g>
<!-- node2&#45;&gt;node3 -->
<g id="edge10" class="edge"><title>node2&#45;&gt;node3</title>
<path style="fill:none;stroke:black;" d="M589,-548C560,-463 494,-272 462,-180"/>
<polygon style="fill:black;stroke:black;" points="465.226,-178.573 459,-170 458.521,-180.584 465.226,-178.573"/>
</g>
<!-- node4 -->
<g id="node4" class="node"><title>node4</title>
<polygon style="fill:white;stroke:black;" points="709,-750 709,-868 889,-868 889,-750 709,-750"/>
<text text-anchor="middle" x="799" y="-850.9" style="font-family:Times New Roman;font-size:14.00;">nd_experimentprop</text>
<polyline style="fill:none;stroke:black;" points="709,-843 889,-843 "/>
<text text-anchor="start" x="717" y="-825.9" style="font-family:Times New Roman;font-size:14.00;">&#45; nd_experimentprop_id</text>
<text text-anchor="start" x="717" y="-808.9" style="font-family:Times New Roman;font-size:14.00;">&#45; nd_experiment_id</text>
<text text-anchor="start" x="717" y="-791.9" style="font-family:Times New Roman;font-size:14.00;">&#45; cvterm_id</text>
<text text-anchor="start" x="717" y="-774.9" style="font-family:Times New Roman;font-size:14.00;">&#45; value</text>
<text text-anchor="start" x="717" y="-757.9" style="font-family:Times New Roman;font-size:14.00;">&#45; rank</text>
</g>
<!-- node2&#45;&gt;node4 -->
<g id="edge18" class="edge"><title>node2&#45;&gt;node4</title>
<path style="fill:none;stroke:black;" d="M642,-632C669,-664 707,-707 739,-743"/>
<polygon style="fill:black;stroke:black;" points="736.454,-745.404 746,-750 741.404,-740.454 736.454,-745.404"/>
</g>
<!-- node5 -->
<g id="node5" class="node"><title>node5</title>
<polygon style="fill:white;stroke:black;" points="1186,-731 1186,-815 1368,-815 1368,-731 1186,-731"/>
<text text-anchor="middle" x="1277" y="-797.9" style="font-family:Times New Roman;font-size:14.00;">nd_experiment_pub</text>
<polyline style="fill:none;stroke:black;" points="1186,-790 1368,-790 "/>
<text text-anchor="start" x="1194" y="-772.9" style="font-family:Times New Roman;font-size:14.00;">&#45; nd_experiment_pub_id</text>
<text text-anchor="start" x="1194" y="-755.9" style="font-family:Times New Roman;font-size:14.00;">&#45; nd_experiment_id</text>
<text text-anchor="start" x="1194" y="-738.9" style="font-family:Times New Roman;font-size:14.00;">&#45; pub_id</text>
</g>
<!-- node2&#45;&gt;node5 -->
<g id="edge14" class="edge"><title>node2&#45;&gt;node5</title>
<path style="fill:none;stroke:black;" d="M679,-610C801,-643 1040,-709 1176,-745"/>
<polygon style="fill:black;stroke:black;" points="1175.42,-748.479 1186,-748 1177.43,-741.774 1175.42,-748.479"/>
</g>
<!-- node11 -->
<g id="node11" class="node"><title>node11</title>
<polygon style="fill:white;stroke:black;" points="289,-309 289,-410 481,-410 481,-309 289,-309"/>
<text text-anchor="middle" x="385" y="-392.9" style="font-family:Times New Roman;font-size:14.00;">nd_experiment_stock</text>
<polyline style="fill:none;stroke:black;" points="289,-385 481,-385 "/>
<text text-anchor="start" x="297" y="-368.4" style="font-family:Times New Roman;font-size:14.00;">&#45; nd_experiment_stock_id</text>
<text text-anchor="start" x="297" y="-351.4" style="font-family:Times New Roman;font-size:14.00;">&#45; nd_experiment_id</text>
<text text-anchor="start" x="297" y="-334.4" style="font-family:Times New Roman;font-size:14.00;">&#45; stock_id</text>
<text text-anchor="start" x="297" y="-317.4" style="font-family:Times New Roman;font-size:14.00;">&#45; type_id</text>
</g>
<!-- node2&#45;&gt;node11 -->
<g id="edge16" class="edge"><title>node2&#45;&gt;node11</title>
<path style="fill:none;stroke:black;" d="M564,-548C529,-511 478,-458 440,-417"/>
<polygon style="fill:black;stroke:black;" points="442.546,-414.596 433,-410 437.596,-419.546 442.546,-414.596"/>
</g>
<!-- node12 -->
<g id="node12" class="node"><title>node12</title>
<polygon style="fill:white;stroke:black;" points="523,-332 523,-416 735,-416 735,-332 523,-332"/>
<text text-anchor="middle" x="629" y="-398.9" style="font-family:Times New Roman;font-size:14.00;">nd_experiment_protocol</text>
<polyline style="fill:none;stroke:black;" points="523,-391 735,-391 "/>
<text text-anchor="start" x="531" y="-373.9" style="font-family:Times New Roman;font-size:14.00;">&#45; nd_experiment_protocol_id</text>
<text text-anchor="start" x="531" y="-356.9" style="font-family:Times New Roman;font-size:14.00;">&#45; nd_experiment_id</text>
<text text-anchor="start" x="531" y="-339.9" style="font-family:Times New Roman;font-size:14.00;">&#45; nd_protocol_id</text>
</g>
<!-- node2&#45;&gt;node12 -->
<g id="edge12" class="edge"><title>node2&#45;&gt;node12</title>
<path style="fill:none;stroke:black;" d="M609,-548C613,-513 619,-463 623,-426"/>
<polygon style="fill:black;stroke:black;" points="626.488,-426.299 624,-416 619.522,-425.602 626.488,-426.299"/>
</g>
<!-- node13 -->
<g id="node13" class="node"><title>node13</title>
<polygon style="fill:white;stroke:black;" points="737,-507 737,-591 967,-591 967,-507 737,-507"/>
<text text-anchor="middle" x="852" y="-573.9" style="font-family:Times New Roman;font-size:14.00;">nd_experiment_phenotype</text>
<polyline style="fill:none;stroke:black;" points="737,-566 967,-566 "/>
<text text-anchor="start" x="745" y="-548.9" style="font-family:Times New Roman;font-size:14.00;">&#45; nd_experiment_phenotype_id</text>
<text text-anchor="start" x="745" y="-531.9" style="font-family:Times New Roman;font-size:14.00;">&#45; nd_experiment_id</text>
<text text-anchor="start" x="745" y="-514.9" style="font-family:Times New Roman;font-size:14.00;">&#45; phenotype_id</text>
</g>
<!-- node2&#45;&gt;node13 -->
<g id="edge8" class="edge"><title>node2&#45;&gt;node13</title>
<path style="fill:none;stroke:black;" d="M679,-578C694,-575 710,-573 727,-570"/>
<polygon style="fill:black;stroke:black;" points="727.881,-573.393 737,-568 726.508,-566.529 727.881,-573.393"/>
</g>
<!-- node14 -->
<g id="node14" class="node"><title>node14</title>
<polygon style="fill:white;stroke:black;" points="921,-720 921,-804 1142,-804 1142,-720 921,-720"/>
<text text-anchor="middle" x="1031" y="-786.9" style="font-family:Times New Roman;font-size:14.00;">nd_experiment_genotype</text>
<polyline style="fill:none;stroke:black;" points="921,-779 1142,-779 "/>
<text text-anchor="start" x="928.5" y="-761.9" style="font-family:Times New Roman;font-size:14.00;">&#45; nd_experiment_genotype_id</text>
<text text-anchor="start" x="928.5" y="-744.9" style="font-family:Times New Roman;font-size:14.00;">&#45; nd_experiment_id</text>
<text text-anchor="start" x="928.5" y="-727.9" style="font-family:Times New Roman;font-size:14.00;">&#45; genotype_id</text>
</g>
<!-- node2&#45;&gt;node14 -->
<g id="edge6" class="edge"><title>node2&#45;&gt;node14</title>
<path style="fill:none;stroke:black;" d="M679,-620C745,-647 842,-686 917,-716"/>
<polygon style="fill:black;stroke:black;" points="915.44,-719.137 926,-720 918.283,-712.74 915.44,-719.137"/>
</g>
<!-- node19 -->
<g id="node19" class="node"><title>node19</title>
<polygon style="fill:white;stroke:black;" points="254,-781 254,-865 454,-865 454,-781 254,-781"/>
<text text-anchor="middle" x="354" y="-847.9" style="font-family:Times New Roman;font-size:14.00;">nd_experiment_dbxref</text>
<polyline style="fill:none;stroke:black;" points="254,-840 454,-840 "/>
<text text-anchor="start" x="262" y="-822.9" style="font-family:Times New Roman;font-size:14.00;">&#45; nd_experiment_dbxref_id</text>
<text text-anchor="start" x="262" y="-805.9" style="font-family:Times New Roman;font-size:14.00;">&#45; nd_experiment_id</text>
<text text-anchor="start" x="262" y="-788.9" style="font-family:Times New Roman;font-size:14.00;">&#45; dbxref_id</text>
</g>
<!-- node2&#45;&gt;node19 -->
<g id="edge4" class="edge"><title>node2&#45;&gt;node19</title>
<path style="fill:none;stroke:black;" d="M559,-632C516,-672 452,-731 406,-774"/>
<polygon style="fill:black;stroke:black;" points="403.596,-771.454 399,-781 408.546,-776.404 403.596,-771.454"/>
</g>
<!-- node20 -->
<g id="node20" class="node"><title>node20</title>
<polygon style="fill:white;stroke:black;" points="474,-772 474,-856 681,-856 681,-772 474,-772"/>
<text text-anchor="middle" x="577" y="-838.9" style="font-family:Times New Roman;font-size:14.00;">nd_experiment_contact</text>
<polyline style="fill:none;stroke:black;" points="474,-831 681,-831 "/>
<text text-anchor="start" x="481.5" y="-813.9" style="font-family:Times New Roman;font-size:14.00;">&#45; nd_experiment_contact_id</text>
<text text-anchor="start" x="481.5" y="-796.9" style="font-family:Times New Roman;font-size:14.00;">&#45; nd_experiment_id</text>
<text text-anchor="start" x="481.5" y="-779.9" style="font-family:Times New Roman;font-size:14.00;">&#45; contact_id</text>
</g>
<!-- node2&#45;&gt;node20 -->
<g id="edge2" class="edge"><title>node2&#45;&gt;node20</title>
<path style="fill:none;stroke:black;" d="M599,-632C594,-669 588,-723 583,-762"/>
<polygon style="fill:black;stroke:black;" points="579.512,-761.701 582,-772 586.478,-762.398 579.512,-761.701"/>
</g>
<!-- node7 -->
<g id="node7" class="node"><title>node7</title>
<polygon style="fill:white;stroke:black;" points="742,-233 742,-300 868,-300 868,-233 742,-233"/>
<text text-anchor="middle" x="805" y="-282.9" style="font-family:Times New Roman;font-size:14.00;">nd_protocol</text>
<polyline style="fill:none;stroke:black;" points="742,-275 868,-275 "/>
<text text-anchor="start" x="750" y="-258.4" style="font-family:Times New Roman;font-size:14.00;">&#45; nd_protocol_id</text>
<text text-anchor="start" x="750" y="-241.4" style="font-family:Times New Roman;font-size:14.00;">&#45; name</text>
</g>
<!-- node9 -->
<g id="node9" class="node"><title>node9</title>
<polygon style="fill:white;stroke:black;" points="943,-336 943,-437 1130,-437 1130,-336 943,-336"/>
<text text-anchor="middle" x="1036" y="-419.9" style="font-family:Times New Roman;font-size:14.00;">nd_protocol_reagent</text>
<polyline style="fill:none;stroke:black;" points="943,-412 1130,-412 "/>
<text text-anchor="start" x="950.5" y="-395.4" style="font-family:Times New Roman;font-size:14.00;">&#45; nd_protocol_reagent_id</text>
<text text-anchor="start" x="950.5" y="-378.4" style="font-family:Times New Roman;font-size:14.00;">&#45; nd_protocol_id</text>
<text text-anchor="start" x="950.5" y="-361.4" style="font-family:Times New Roman;font-size:14.00;">&#45; reagent_id</text>
<text text-anchor="start" x="950.5" y="-344.4" style="font-family:Times New Roman;font-size:14.00;">&#45; type_id</text>
</g>
<!-- node7&#45;&gt;node9 -->
<g id="edge30" class="edge"><title>node7&#45;&gt;node9</title>
<path style="fill:none;stroke:black;" d="M868,-300C888,-311 912,-322 934,-333"/>
<polygon style="fill:black;stroke:black;" points="932.559,-336.203 943,-338 935.958,-330.084 932.559,-336.203"/>
</g>
<!-- node10 -->
<g id="node10" class="node"><title>node10</title>
<polygon style="fill:white;stroke:black;" points="578,-1 578,-119 734,-119 734,-1 578,-1"/>
<text text-anchor="middle" x="656" y="-101.9" style="font-family:Times New Roman;font-size:14.00;">nd_protocolprop</text>
<polyline style="fill:none;stroke:black;" points="578,-94 734,-94 "/>
<text text-anchor="start" x="586" y="-76.9" style="font-family:Times New Roman;font-size:14.00;">&#45; nd_protocolprop_id</text>
<text text-anchor="start" x="586" y="-59.9" style="font-family:Times New Roman;font-size:14.00;">&#45; nd_protocol_id</text>
<text text-anchor="start" x="586" y="-42.9" style="font-family:Times New Roman;font-size:14.00;">&#45; cvterm_id</text>
<text text-anchor="start" x="586" y="-25.9" style="font-family:Times New Roman;font-size:14.00;">&#45; value</text>
<text text-anchor="start" x="586" y="-8.9" style="font-family:Times New Roman;font-size:14.00;">&#45; rank</text>
</g>
<!-- node7&#45;&gt;node10 -->
<g id="edge32" class="edge"><title>node7&#45;&gt;node10</title>
<path style="fill:none;stroke:black;" d="M780,-233C760,-204 730,-163 705,-127"/>
<polygon style="fill:black;stroke:black;" points="707.8,-124.9 699,-119 702.2,-129.1 707.8,-124.9"/>
</g>
<!-- node7&#45;&gt;node12 -->
<g id="edge28" class="edge"><title>node7&#45;&gt;node12</title>
<path style="fill:none;stroke:black;" d="M750,-300C737,-308 722,-317 707,-327"/>
<polygon style="fill:black;stroke:black;" points="705.042,-324.084 698,-332 708.441,-330.203 705.042,-324.084"/>
</g>
<!-- node8 -->
<g id="node8" class="node"><title>node8</title>
<polygon style="fill:white;stroke:black;" points="897,-27 897,-128 1021,-128 1021,-27 897,-27"/>
<text text-anchor="middle" x="959" y="-110.9" style="font-family:Times New Roman;font-size:14.00;">nd_reagent</text>
<polyline style="fill:none;stroke:black;" points="897,-103 1021,-103 "/>
<text text-anchor="start" x="905" y="-86.4" style="font-family:Times New Roman;font-size:14.00;">&#45; nd_reagent_id</text>
<text text-anchor="start" x="905" y="-69.4" style="font-family:Times New Roman;font-size:14.00;">&#45; name</text>
<text text-anchor="start" x="905" y="-52.4" style="font-family:Times New Roman;font-size:14.00;">&#45; type_id</text>
<text text-anchor="start" x="905" y="-35.4" style="font-family:Times New Roman;font-size:14.00;">&#45; feature_id</text>
</g>
<!-- node8&#45;&gt;node9 -->
<g id="edge34" class="edge"><title>node8&#45;&gt;node9</title>
<path style="fill:none;stroke:black;" d="M972,-128C985,-182 1007,-268 1021,-326"/>
<polygon style="fill:black;stroke:black;" points="1017.61,-326.881 1023,-336 1024.47,-325.508 1017.61,-326.881"/>
</g>
<!-- node15 -->
<g id="node15" class="node"><title>node15</title>
<polygon style="fill:white;stroke:black;" points="1171,-403 1171,-504 1384,-504 1384,-403 1171,-403"/>
<text text-anchor="middle" x="1277" y="-486.9" style="font-family:Times New Roman;font-size:14.00;">nd_reagent_relationship</text>
<polyline style="fill:none;stroke:black;" points="1171,-479 1384,-479 "/>
<text text-anchor="start" x="1178.5" y="-462.4" style="font-family:Times New Roman;font-size:14.00;">&#45; nd_reagent_relationship_id</text>
<text text-anchor="start" x="1178.5" y="-445.4" style="font-family:Times New Roman;font-size:14.00;">&#45; subject_reagent_id</text>
<text text-anchor="start" x="1178.5" y="-428.4" style="font-family:Times New Roman;font-size:14.00;">&#45; object_reagent_id</text>
<text text-anchor="start" x="1178.5" y="-411.4" style="font-family:Times New Roman;font-size:14.00;">&#45; type_id</text>
</g>
<!-- node8&#45;&gt;node15 -->
<g id="edge36" class="edge"><title>node8&#45;&gt;node15</title>
<path style="fill:none;stroke:black;" d="M1002,-128C1060,-197 1165,-322 1227,-395"/>
<polygon style="fill:black;stroke:black;" points="1224.78,-397.779 1234,-403 1230.05,-393.169 1224.78,-397.779"/>
</g>
<!-- node16 -->
<g id="node16" class="node"><title>node16</title>
<polygon style="fill:white;stroke:black;" points="1181,-60 1181,-178 1336,-178 1336,-60 1181,-60"/>
<text text-anchor="middle" x="1258" y="-160.9" style="font-family:Times New Roman;font-size:14.00;">nd_reagentprop</text>
<polyline style="fill:none;stroke:black;" points="1181,-153 1336,-153 "/>
<text text-anchor="start" x="1188.5" y="-135.9" style="font-family:Times New Roman;font-size:14.00;">&#45; nd_reagentprop_id</text>
<text text-anchor="start" x="1188.5" y="-118.9" style="font-family:Times New Roman;font-size:14.00;">&#45; nd_reagent_id</text>
<text text-anchor="start" x="1188.5" y="-101.9" style="font-family:Times New Roman;font-size:14.00;">&#45; cvterm_id</text>
<text text-anchor="start" x="1188.5" y="-84.9" style="font-family:Times New Roman;font-size:14.00;">&#45; value</text>
<text text-anchor="start" x="1188.5" y="-67.9" style="font-family:Times New Roman;font-size:14.00;">&#45; rank</text>
</g>
<!-- node8&#45;&gt;node16 -->
<g id="edge38" class="edge"><title>node8&#45;&gt;node16</title>
<path style="fill:none;stroke:black;" d="M1021,-87C1065,-93 1123,-101 1171,-108"/>
<polygon style="fill:black;stroke:black;" points="1170.7,-111.488 1181,-109 1171.4,-104.522 1170.7,-111.488"/>
</g>
<!-- node17 -->
<g id="node17" class="node"><title>node17</title>
<polygon style="fill:white;stroke:black;" points="58,-38 58,-156 281,-156 281,-38 58,-38"/>
<text text-anchor="middle" x="169" y="-138.9" style="font-family:Times New Roman;font-size:14.00;">nd_experiment_stockprop</text>
<polyline style="fill:none;stroke:black;" points="58,-131 281,-131 "/>
<text text-anchor="start" x="65.5" y="-113.9" style="font-family:Times New Roman;font-size:14.00;">&#45; nd_experiment_stockprop_id</text>
<text text-anchor="start" x="65.5" y="-96.9" style="font-family:Times New Roman;font-size:14.00;">&#45; nd_experiment_stock_id</text>
<text text-anchor="start" x="65.5" y="-79.9" style="font-family:Times New Roman;font-size:14.00;">&#45; cvterm_id</text>
<text text-anchor="start" x="65.5" y="-62.9" style="font-family:Times New Roman;font-size:14.00;">&#45; value</text>
<text text-anchor="start" x="65.5" y="-45.9" style="font-family:Times New Roman;font-size:14.00;">&#45; rank</text>
</g>
<!-- node11&#45;&gt;node17 -->
<g id="edge22" class="edge"><title>node11&#45;&gt;node17</title>
<path style="fill:none;stroke:black;" d="M343,-309C309,-267 262,-209 225,-164"/>
<polygon style="fill:black;stroke:black;" points="227.219,-161.221 218,-156 221.951,-165.831 227.219,-161.221"/>
</g>
<!-- node18 -->
<g id="node18" class="node"><title>node18</title>
<polygon style="fill:white;stroke:black;" points="1,-714 1,-798 244,-798 244,-714 1,-714"/>
<text text-anchor="middle" x="122" y="-780.9" style="font-family:Times New Roman;font-size:14.00;">nd_experiment_stock_dbxref</text>
<polyline style="fill:none;stroke:black;" points="1,-773 244,-773 "/>
<text text-anchor="start" x="8.5" y="-755.9" style="font-family:Times New Roman;font-size:14.00;">&#45; nd_experiment_stock_dbxref_id</text>
<text text-anchor="start" x="8.5" y="-738.9" style="font-family:Times New Roman;font-size:14.00;">&#45; nd_experiment_stock_id</text>
<text text-anchor="start" x="8.5" y="-721.9" style="font-family:Times New Roman;font-size:14.00;">&#45; dbxref_id</text>
</g>
<!-- node11&#45;&gt;node18 -->
<g id="edge20" class="edge"><title>node11&#45;&gt;node18</title>
<path style="fill:none;stroke:black;" d="M352,-410C302,-486 206,-629 156,-705"/>
<polygon style="fill:black;stroke:black;" points="152.635,-703.738 150,-714 158.459,-707.621 152.635,-703.738"/>
</g>
</g>
</svg>
