<?xml version="1.0" encoding="UTF-8" standalone="no"?>
<!DOCTYPE svg PUBLIC "-//W3C//DTD SVG 1.0//EN"
 "http://www.w3.org/TR/2001/REC-SVG-20010904/DTD/svg10.dtd">
<!-- Generated by neato version 1.10 (Tue Nov 11 16:12:26 EST 2003)
     For user: (allenday) Allen Day   Title: test    Pages: 1 -->
<svg width="975px" height="783px"
 viewBox = "-1 -1 731 587"
 xmlns="http://www.w3.org/2000/svg">
<g id="graph0" class="graph" style="font-family:Times-Roman;font-size:14.00;">
<title>test</title>
<polygon style="fill:white;stroke:white;" points="0,585 0,-1 730,-1 730,585 0,585"/>
<g id="node1" class="node"><title>organism</title>
<polygon style="fill:white;stroke:black;" points="231,337 354,337 354,217 231,217 231,337"/>
<text text-anchor="middle" x="292" y="232">organism</text>
<polyline style="fill:none;stroke:black;" points="231,237 354,237 "/>
<text text-anchor="start" x="231" y="252">organism_id</text>
<text text-anchor="start" x="231" y="268">abbreviation</text>
<text text-anchor="start" x="231" y="284">genus</text>
<text text-anchor="start" x="231" y="300">species</text>
<text text-anchor="start" x="231" y="316">common_name</text>
<text text-anchor="middle" x="292" y="332">comment</text>
</g>
<g id="node2" class="node"><title>organism_dbxref</title>
<polygon style="fill:white;stroke:black;" points="285,105 443,105 443,33 285,33 285,105"/>
<text text-anchor="middle" x="364" y="48">organism_dbxref</text>
<polyline style="fill:none;stroke:black;" points="285,53 443,53 "/>
<text text-anchor="start" x="285" y="68">organism_dbxref_id</text>
<text text-anchor="start" x="285" y="84">organism_id</text>
<text text-anchor="middle" x="364" y="100">dbxref_id</text>
</g>
<g id="edge2" class="edge"><title>organism-&gt;organism_dbxref</title>
<path style="fill:none;stroke:black;" d="M313,217C325,183 337,148 349,113"/>
<polygon style="fill:black;stroke:black;" points="346,113 352,105 351,115 346,113"/>
</g>
<g id="node3" class="node"><title>organismprop</title>
<polygon style="fill:white;stroke:black;" points="296,540 429,540 429,436 296,436 296,540"/>
<text text-anchor="middle" x="362" y="451">organismprop</text>
<polyline style="fill:none;stroke:black;" points="296,456 429,456 "/>
<text text-anchor="start" x="296" y="471">organismprop_id</text>
<text text-anchor="start" x="296" y="487">organism_id</text>
<text text-anchor="start" x="296" y="503">type_id</text>
<text text-anchor="start" x="296" y="519">value</text>
<text text-anchor="middle" x="362" y="535">rank</text>
</g>
<g id="edge4" class="edge"><title>organism-&gt;organismprop</title>
<path style="fill:none;stroke:black;" d="M312,337C322,367 332,396 342,426"/>
<polygon style="fill:black;stroke:black;" points="345,426 345,436 340,427 345,426"/>
</g>
</g></svg>
