<?xml version="1.0" encoding="UTF-8" standalone="no"?>
<!DOCTYPE svg PUBLIC "-//W3C//DTD SVG 1.0//EN"
 "http://www.w3.org/TR/2001/REC-SVG-20010904/DTD/svg10.dtd">
<!-- Generated by neato version 2.2.1 (Wed Apr 13 22:41:22 UTC 2005)
     For user: (allenday) Allen Day            Title: test    Pages: 1 -->
<svg width="732pt" height="587pt"
 viewBox = "-1 -1 731 586"
 xmlns="http://www.w3.org/2000/svg">
<g id="graph0" class="graph" style="font-family:Times-Roman;font-size:14.00;">
<title>test</title>
<g id="node1" class="node"><title>organism</title>
<polygon style="fill:white;stroke:black;" points="65,198 223,198 223,78 65,78 65,198"/>
<text text-anchor="start" x="73" y="95">{organism|&#45; organism_id </text>
<text text-anchor="start" x="73" y="111">&#45; abbreviation </text>
<text text-anchor="start" x="73" y="127">&#45; genus </text>
<text text-anchor="start" x="73" y="143">&#45; species </text>
<text text-anchor="start" x="73" y="159">&#45; common_name </text>
<text text-anchor="start" x="73" y="175">&#45; comment </text>
<text text-anchor="middle" x="144" y="191">}</text>
</g>
<g id="node2" class="node"><title>organism_dbxref</title>
<polygon style="fill:white;stroke:black;" points="389,291 634,291 634,219 389,219 389,291"/>
<text text-anchor="start" x="397" y="236">{organism_dbxref|&#45; organism_dbxref_id </text>
<text text-anchor="start" x="397" y="252">&#45; organism_id </text>
<text text-anchor="start" x="397" y="268">&#45; dbxref_id </text>
<text text-anchor="middle" x="511" y="284">}</text>
</g>
<g id="edge2" class="edge"><title>organism&#45;&gt;organism_dbxref</title>
<path style="fill:none;stroke:black;" d="M223,163C271,179 333,199 387,216"/>
<polygon style="fill:black;stroke:black;" points="388,213 397,219 386,219 388,213"/>
</g>
<g id="node3" class="node"><title>organismprop</title>
<polygon style="fill:white;stroke:black;" points="103,512 312,512 312,408 103,408 103,512"/>
<text text-anchor="start" x="111" y="425">{organismprop|&#45; organismprop_id </text>
<text text-anchor="start" x="111" y="441">&#45; organism_id </text>
<text text-anchor="start" x="111" y="457">&#45; type_id </text>
<text text-anchor="start" x="111" y="473">&#45; value </text>
<text text-anchor="start" x="111" y="489">&#45; rank </text>
<text text-anchor="middle" x="207" y="505">}</text>
</g>
<g id="edge4" class="edge"><title>organism&#45;&gt;organismprop</title>
<path style="fill:none;stroke:black;" d="M156,198C167,255 184,341 195,398"/>
<polygon style="fill:black;stroke:black;" points="198,398 197,408 192,399 198,398"/>
</g>
</g>
</svg>
