<?xml version="1.0" encoding="UTF-8" standalone="no"?>
<!DOCTYPE svg PUBLIC "-//W3C//DTD SVG 1.0//EN"
 "http://www.w3.org/TR/2001/REC-SVG-20010904/DTD/svg10.dtd" [
 <!ATTLIST svg xmlns:xlink CDATA #FIXED "http://www.w3.org/1999/xlink">
]>
<!-- Generated by Graphviz version 2.20.2 (Wed Sep 16 11:12:11 UTC 2009)
     For user: (cain) Scott Cain,,, -->
<!-- Title: test Pages: 1 -->
<svg width="311pt" height="285pt"
 viewBox="0.00 0.00 311.00 285.00" xmlns="http://www.w3.org/2000/svg" xmlns:xlink="http://www.w3.org/1999/xlink">
<g id="graph0" class="graph" transform="scale(1 1) rotate(0) translate(4 281)">
<title>test</title>
<polygon style="fill:lightgoldenrodyellow;stroke:lightgoldenrodyellow;" points="-4,4 -4,-281 307,-281 307,4 -4,4"/>
<!-- node1 -->
<g id="node1" class="node"><title>node1</title>
<polygon style="fill:white;stroke:black;" points="1,-141 1,-276 130,-276 130,-141 1,-141"/>
<text text-anchor="middle" x="65" y="-258.9" style="font-family:Times New Roman;font-size:14.00;">organism</text>
<polyline style="fill:none;stroke:black;" points="1,-251 130,-251 "/>
<text text-anchor="start" x="8.5" y="-234.4" style="font-family:Times New Roman;font-size:14.00;">&#45; organism_id</text>
<text text-anchor="start" x="8.5" y="-217.4" style="font-family:Times New Roman;font-size:14.00;">&#45; abbreviation</text>
<text text-anchor="start" x="8.5" y="-200.4" style="font-family:Times New Roman;font-size:14.00;">&#45; genus</text>
<text text-anchor="start" x="8.5" y="-183.4" style="font-family:Times New Roman;font-size:14.00;">&#45; species</text>
<text text-anchor="start" x="8.5" y="-166.4" style="font-family:Times New Roman;font-size:14.00;">&#45; common_name</text>
<text text-anchor="start" x="8.5" y="-149.4" style="font-family:Times New Roman;font-size:14.00;">&#45; comment</text>
</g>
<!-- node2 -->
<g id="node2" class="node"><title>node2</title>
<polygon style="fill:white;stroke:black;" points="144,-175 144,-259 303,-259 303,-175 144,-175"/>
<text text-anchor="middle" x="223" y="-241.9" style="font-family:Times New Roman;font-size:14.00;">organism_dbxref</text>
<polyline style="fill:none;stroke:black;" points="144,-234 303,-234 "/>
<text text-anchor="start" x="151.5" y="-216.9" style="font-family:Times New Roman;font-size:14.00;">&#45; organism_dbxref_id</text>
<text text-anchor="start" x="151.5" y="-199.9" style="font-family:Times New Roman;font-size:14.00;">&#45; organism_id</text>
<text text-anchor="start" x="151.5" y="-182.9" style="font-family:Times New Roman;font-size:14.00;">&#45; dbxref_id</text>
</g>
<!-- node1&#45;&gt;node2 -->
<g id="edge2" class="edge"><title>node1&#45;&gt;node2</title>
<path style="fill:none;stroke:black;" d="M130,-212C131,-212 133,-212 134,-212"/>
<polygon style="fill:black;stroke:black;" points="133.701,-215.488 144,-213 134.398,-208.522 133.701,-215.488"/>
</g>
<!-- node3 -->
<g id="node3" class="node"><title>node3</title>
<polygon style="fill:white;stroke:black;" points="79,-1 79,-119 218,-119 218,-1 79,-1"/>
<text text-anchor="middle" x="148" y="-101.9" style="font-family:Times New Roman;font-size:14.00;">organismprop</text>
<polyline style="fill:none;stroke:black;" points="79,-94 218,-94 "/>
<text text-anchor="start" x="86.5" y="-76.9" style="font-family:Times New Roman;font-size:14.00;">&#45; organismprop_id</text>
<text text-anchor="start" x="86.5" y="-59.9" style="font-family:Times New Roman;font-size:14.00;">&#45; organism_id</text>
<text text-anchor="start" x="86.5" y="-42.9" style="font-family:Times New Roman;font-size:14.00;">&#45; type_id</text>
<text text-anchor="start" x="86.5" y="-25.9" style="font-family:Times New Roman;font-size:14.00;">&#45; value</text>
<text text-anchor="start" x="86.5" y="-8.9" style="font-family:Times New Roman;font-size:14.00;">&#45; rank</text>
</g>
<!-- node1&#45;&gt;node3 -->
<g id="edge4" class="edge"><title>node1&#45;&gt;node3</title>
<path style="fill:none;stroke:black;" d="M103,-141C105,-137 108,-132 110,-128"/>
<polygon style="fill:black;stroke:black;" points="113.203,-129.441 115,-119 107.084,-126.042 113.203,-129.441"/>
</g>
</g>
</svg>
