<?xml version="1.0" encoding="UTF-8" standalone="no"?>
<!DOCTYPE svg PUBLIC "-//W3C//DTD SVG 1.0//EN"
 "http://www.w3.org/TR/2001/REC-SVG-20010904/DTD/svg10.dtd" [
 <!ATTLIST svg xmlns:xlink CDATA #FIXED "http://www.w3.org/1999/xlink">
]>
<!-- Generated by dot version 2.8 (Thu Sep 14 20:34:11 UTC 2006)
     For user: (scott) Scott Cain -->
<!-- Title: test Pages: 1 -->
<svg width="727pt" height="583pt"
 viewBox = "0 0 727 583"
 xmlns="http://www.w3.org/2000/svg" xmlns:xlink="http://www.w3.org/1999/xlink">
<g id="graph0" class="graph" style="font-family:Times-Roman;font-size:14.00;">
<title>test</title>
<polygon style="fill:white;stroke:white;" points="-2,585 -2,-2 729,-2 729,585 -2,585"/>
<!-- organism -->
<g id="node1" class="node"><title>organism</title>
<polygon style="fill:white;stroke:black;" points="65,181 224,181 224,61 65,61 65,181"/>
<text text-anchor="start" x="73" y="78">{organism|&#45; organism_id </text>
<text text-anchor="start" x="73" y="94">&#45; abbreviation </text>
<text text-anchor="start" x="73" y="110">&#45; genus </text>
<text text-anchor="start" x="73" y="126">&#45; species </text>
<text text-anchor="start" x="73" y="142">&#45; common_name </text>
<text text-anchor="start" x="73" y="158">&#45; comment </text>
<text text-anchor="middle" x="144" y="174">}</text>
</g>
<!-- organism_dbxref -->
<g id="node2" class="node"><title>organism_dbxref</title>
<polygon style="fill:white;stroke:black;" points="414,322 660,322 660,250 414,250 414,322"/>
<text text-anchor="start" x="422" y="267">{organism_dbxref|&#45; organism_dbxref_id </text>
<text text-anchor="start" x="422" y="283">&#45; organism_id </text>
<text text-anchor="start" x="422" y="299">&#45; dbxref_id </text>
<text text-anchor="middle" x="537" y="315">}</text>
</g>
<!-- organism&#45;&gt;organism_dbxref -->
<g id="edge2" class="edge"><title>organism&#45;&gt;organism_dbxref</title>
<path style="fill:none;stroke:black;" d="M224,155C287,182 375,219 442,246"/>
<polygon style="fill:black;stroke:black;" points="443,243 451,250 440,249 443,243"/>
</g>
<!-- organismprop -->
<g id="node3" class="node"><title>organismprop</title>
<polygon style="fill:white;stroke:black;" points="59,529 269,529 269,425 59,425 59,529"/>
<text text-anchor="start" x="67" y="442">{organismprop|&#45; organismprop_id </text>
<text text-anchor="start" x="67" y="458">&#45; organism_id </text>
<text text-anchor="start" x="67" y="474">&#45; type_id </text>
<text text-anchor="start" x="67" y="490">&#45; value </text>
<text text-anchor="start" x="67" y="506">&#45; rank </text>
<text text-anchor="middle" x="164" y="522">}</text>
</g>
<!-- organism&#45;&gt;organismprop -->
<g id="edge4" class="edge"><title>organism&#45;&gt;organismprop</title>
<path style="fill:none;stroke:black;" d="M147,181C151,246 156,349 160,415"/>
<polygon style="fill:black;stroke:black;" points="163,415 161,425 157,415 163,415"/>
</g>
</g>
</svg>
