<?xml version="1.0" encoding="UTF-8" standalone="no"?>
<!DOCTYPE svg PUBLIC "-//W3C//DTD SVG 1.1//EN"
 "http://www.w3.org/Graphics/SVG/1.1/DTD/svg11.dtd">
<!-- Generated by graphviz version 2.27.20091228.0545 (20091228.0545)
 -->
<!-- Title: test Pages: 1 -->
<svg width="316pt" height="324pt"
 viewBox="0.00 0.00 316.00 324.00" xmlns="http://www.w3.org/2000/svg" xmlns:xlink="http://www.w3.org/1999/xlink">
<g id="graph1" class="graph" transform="scale(1 1) rotate(0) translate(4 320)">
<title>test</title>
<polygon fill="lightgoldenrodyellow" stroke="lightgoldenrodyellow" points="-4,5 -4,-320 313,-320 313,5 -4,5"/>
<!-- node1 -->
<g id="node1" class="node"><title>node1</title>
<polygon fill="white" stroke="black" points="193,-193.5 193,-314.5 307,-314.5 307,-193.5 193,-193.5"/>
<text text-anchor="middle" x="250" y="-297.9" font-family="Times,serif" font-size="14.00">organism</text>
<polyline fill="none" stroke="black" points="193,-291.5 307,-291.5 "/>
<text text-anchor="start" x="201" y="-274.9" font-family="Times,serif" font-size="14.00">&#45; organism_id</text>
<text text-anchor="start" x="201" y="-259.9" font-family="Times,serif" font-size="14.00">&#45; abbreviation</text>
<text text-anchor="start" x="201" y="-244.9" font-family="Times,serif" font-size="14.00">&#45; genus</text>
<text text-anchor="start" x="201" y="-229.9" font-family="Times,serif" font-size="14.00">&#45; species</text>
<text text-anchor="start" x="201" y="-214.9" font-family="Times,serif" font-size="14.00">&#45; common_name</text>
<text text-anchor="start" x="201" y="-199.9" font-family="Times,serif" font-size="14.00">&#45; comment</text>
</g>
<!-- node2 -->
<g id="node2" class="node"><title>node2</title>
<polygon fill="white" stroke="black" points="145,-17.5 145,-93.5 286,-93.5 286,-17.5 145,-17.5"/>
<text text-anchor="middle" x="215.5" y="-76.9" font-family="Times,serif" font-size="14.00">organism_dbxref</text>
<polyline fill="none" stroke="black" points="145,-70.5 286,-70.5 "/>
<text text-anchor="start" x="153" y="-53.9" font-family="Times,serif" font-size="14.00">&#45; organism_dbxref_id</text>
<text text-anchor="start" x="153" y="-38.9" font-family="Times,serif" font-size="14.00">&#45; organism_id</text>
<text text-anchor="start" x="153" y="-23.9" font-family="Times,serif" font-size="14.00">&#45; dbxref_id</text>
</g>
<!-- node3 -->
<g id="node3" class="node"><title>node3</title>
<polygon fill="white" stroke="black" points="33,-193.5 33,-299.5 156,-299.5 156,-193.5 33,-193.5"/>
<text text-anchor="middle" x="94.5" y="-282.9" font-family="Times,serif" font-size="14.00">organismprop</text>
<polyline fill="none" stroke="black" points="33,-276.5 156,-276.5 "/>
<text text-anchor="start" x="41" y="-259.9" font-family="Times,serif" font-size="14.00">&#45; organismprop_id</text>
<text text-anchor="start" x="41" y="-244.9" font-family="Times,serif" font-size="14.00">&#45; organism_id</text>
<text text-anchor="start" x="41" y="-229.9" font-family="Times,serif" font-size="14.00">&#45; type_id</text>
<text text-anchor="start" x="41" y="-214.9" font-family="Times,serif" font-size="14.00">&#45; value</text>
<text text-anchor="start" x="41" y="-199.9" font-family="Times,serif" font-size="14.00">&#45; rank</text>
</g>
<!-- organism -->
<g id="node4" class="node"><title>organism</title>
<polygon fill="white" stroke="black" points="37.457,-69.7063 37.457,-105.706 107.457,-105.706 107.457,-69.7063 37.457,-69.7063"/>
<text text-anchor="middle" x="72.457" y="-82.6063" font-family="Times,serif" font-size="14.00">organism</text>
</g>
<!-- organism_dbxref -->
<g id="node5" class="node"><title>organism_dbxref</title>
<polygon fill="white" stroke="black" points="59.8523,-127.125 59.8523,-163.125 172.852,-163.125 172.852,-127.125 59.8523,-127.125"/>
<text text-anchor="middle" x="116.352" y="-140.025" font-family="Times,serif" font-size="14.00">organism_dbxref</text>
</g>
<!-- organism&#45;&gt;organism_dbxref -->
<g id="edge2" class="edge"><title>organism&#45;&gt;organism_dbxref</title>
<path fill="none" stroke="black" d="M86.3458,-105.874C89.4681,-109.958 92.8432,-114.373 96.1642,-118.718"/>
<polygon fill="black" stroke="black" points="93.5493,-121.06 102.403,-126.879 99.1104,-116.809 93.5493,-121.06"/>
</g>
<!-- organismprop -->
<g id="node6" class="node"><title>organismprop</title>
<polygon fill="white" stroke="black" points="1,-1.5 1,-37.5 96,-37.5 96,-1.5 1,-1.5"/>
<text text-anchor="middle" x="48.5" y="-14.4" font-family="Times,serif" font-size="14.00">organismprop</text>
</g>
<!-- organism&#45;&gt;organismprop -->
<g id="edge4" class="edge"><title>organism&#45;&gt;organismprop</title>
<path fill="none" stroke="black" d="M66.037,-69.4283C63.647,-62.6239 60.8777,-54.7395 58.2556,-47.2744"/>
<polygon fill="black" stroke="black" points="61.554,-46.1035 54.9378,-37.8285 54.9496,-48.4233 61.554,-46.1035"/>
</g>
</g>
</svg>
