<?xml version="1.0" encoding="UTF-8" standalone="no"?>
<!DOCTYPE svg PUBLIC "-//W3C//DTD SVG 1.0//EN"
 "http://www.w3.org/TR/2001/REC-SVG-20010904/DTD/svg10.dtd">
<!-- Generated by neato version 2.2.1 (Wed Apr 13 22:41:22 UTC 2005)
     For user: (allenday) Allen Day            Title: test    Pages: 1 -->
<svg width="731pt" height="587pt"
 viewBox = "-1 -1 730 586"
 xmlns="http://www.w3.org/2000/svg">
<g id="graph0" class="graph" style="font-family:Times-Roman;font-size:14.00;">
<title>test</title>
<g id="node1" class="node"><title>pub</title>
<polygon style="fill:white;stroke:black;" points="298,436 396,436 396,188 298,188 298,436"/>
<text text-anchor="start" x="306" y="205">{pub|&#45; pub_id </text>
<text text-anchor="start" x="306" y="221">&#45; title </text>
<text text-anchor="start" x="306" y="237">&#45; volumetitle </text>
<text text-anchor="start" x="306" y="253">&#45; volume </text>
<text text-anchor="start" x="306" y="269">&#45; series_name </text>
<text text-anchor="start" x="306" y="285">&#45; issue </text>
<text text-anchor="start" x="306" y="301">&#45; pyear </text>
<text text-anchor="start" x="306" y="317">&#45; pages </text>
<text text-anchor="start" x="306" y="333">&#45; miniref </text>
<text text-anchor="start" x="306" y="349">&#45; uniquename </text>
<text text-anchor="start" x="306" y="365">&#45; type_id </text>
<text text-anchor="start" x="306" y="381">&#45; is_obsolete </text>
<text text-anchor="start" x="306" y="397">&#45; publisher </text>
<text text-anchor="start" x="306" y="413">&#45; pubplace </text>
<text text-anchor="middle" x="347" y="429">}</text>
</g>
<g id="node2" class="node"><title>pub_relationship</title>
<polygon style="fill:white;stroke:black;" points="455,554 698,554 698,466 455,466 455,554"/>
<text text-anchor="start" x="463" y="483">{pub_relationship|&#45; pub_relationship_id </text>
<text text-anchor="start" x="463" y="499">&#45; subject_id </text>
<text text-anchor="start" x="463" y="515">&#45; object_id </text>
<text text-anchor="start" x="463" y="531">&#45; type_id </text>
<text text-anchor="middle" x="576" y="547">}</text>
</g>
<g id="edge4" class="edge"><title>pub&#45;&gt;pub_relationship</title>
<path style="fill:none;stroke:black;" d="M396,354C431,385 479,427 517,459"/>
<polygon style="fill:black;stroke:black;" points="520,457 525,466 515,462 520,457"/>
</g>
<g id="node3" class="node"><title>pub_dbxref</title>
<polygon style="fill:white;stroke:black;" points="27,547 211,547 211,475 27,475 27,547"/>
<text text-anchor="start" x="35" y="492">{pub_dbxref|&#45; pub_dbxref_id </text>
<text text-anchor="start" x="35" y="508">&#45; pub_id </text>
<text text-anchor="start" x="35" y="524">&#45; dbxref_id </text>
<text text-anchor="middle" x="119" y="540">}</text>
</g>
<g id="edge2" class="edge"><title>pub&#45;&gt;pub_dbxref</title>
<path style="fill:none;stroke:black;" d="M298,355C260,388 207,434 169,468"/>
<polygon style="fill:black;stroke:black;" points="171,471 161,475 166,466 171,471"/>
</g>
<g id="node4" class="node"><title>pubauthor</title>
<polygon style="fill:white;stroke:black;" points="35,176 204,176 204,40 35,40 35,176"/>
<text text-anchor="start" x="43" y="57">{pubauthor|&#45; pubauthor_id </text>
<text text-anchor="start" x="43" y="73">&#45; pub_id </text>
<text text-anchor="start" x="43" y="89">&#45; rank </text>
<text text-anchor="start" x="43" y="105">&#45; editor </text>
<text text-anchor="start" x="43" y="121">&#45; surname </text>
<text text-anchor="start" x="43" y="137">&#45; givennames </text>
<text text-anchor="start" x="43" y="153">&#45; suffix </text>
<text text-anchor="middle" x="119" y="169">}</text>
</g>
<g id="edge6" class="edge"><title>pub&#45;&gt;pubauthor</title>
<path style="fill:none;stroke:black;" d="M298,268C270,243 235,211 203,183"/>
<polygon style="fill:black;stroke:black;" points="200,185 195,176 205,180 200,185"/>
</g>
<g id="node5" class="node"><title>pubprop</title>
<polygon style="fill:white;stroke:black;" points="501,159 649,159 649,55 501,55 501,159"/>
<text text-anchor="start" x="509" y="72">{pubprop|&#45; pubprop_id </text>
<text text-anchor="start" x="509" y="88">&#45; pub_id </text>
<text text-anchor="start" x="509" y="104">&#45; type_id </text>
<text text-anchor="start" x="509" y="120">&#45; value </text>
<text text-anchor="start" x="509" y="136">&#45; rank </text>
<text text-anchor="middle" x="575" y="152">}</text>
</g>
<g id="edge8" class="edge"><title>pub&#45;&gt;pubprop</title>
<path style="fill:none;stroke:black;" d="M396,268C429,238 474,199 509,166"/>
<polygon style="fill:black;stroke:black;" points="507,163 517,159 512,168 507,163"/>
</g>
</g>
</svg>
