<?xml version="1.0" encoding="UTF-8" standalone="no"?>
<!DOCTYPE svg PUBLIC "-//W3C//DTD SVG 1.1//EN"
 "http://www.w3.org/Graphics/SVG/1.1/DTD/svg11.dtd">
<!-- Generated by graphviz version 2.27.20091228.0545 (20091228.0545)
 -->
<!-- Title: test Pages: 1 -->
<svg width="433pt" height="474pt"
 viewBox="0.00 0.00 433.00 474.00" xmlns="http://www.w3.org/2000/svg" xmlns:xlink="http://www.w3.org/1999/xlink">
<g id="graph1" class="graph" transform="scale(1 1) rotate(0) translate(4 470)">
<title>test</title>
<polygon fill="lightgoldenrodyellow" stroke="lightgoldenrodyellow" points="-4,5 -4,-470 430,-470 430,5 -4,5"/>
<!-- node1 -->
<g id="node1" class="node"><title>node1</title>
<polygon fill="white" stroke="black" points="290,-188.5 290,-429.5 386,-429.5 386,-188.5 290,-188.5"/>
<text text-anchor="middle" x="338" y="-412.9" font-family="Times,serif" font-size="14.00">pub</text>
<polyline fill="none" stroke="black" points="290,-406.5 386,-406.5 "/>
<text text-anchor="start" x="298" y="-389.9" font-family="Times,serif" font-size="14.00">&#45; pub_id</text>
<text text-anchor="start" x="298" y="-374.9" font-family="Times,serif" font-size="14.00">&#45; title</text>
<text text-anchor="start" x="298" y="-359.9" font-family="Times,serif" font-size="14.00">&#45; volumetitle</text>
<text text-anchor="start" x="298" y="-344.9" font-family="Times,serif" font-size="14.00">&#45; volume</text>
<text text-anchor="start" x="298" y="-329.9" font-family="Times,serif" font-size="14.00">&#45; series_name</text>
<text text-anchor="start" x="298" y="-314.9" font-family="Times,serif" font-size="14.00">&#45; issue</text>
<text text-anchor="start" x="298" y="-299.9" font-family="Times,serif" font-size="14.00">&#45; pyear</text>
<text text-anchor="start" x="298" y="-284.9" font-family="Times,serif" font-size="14.00">&#45; pages</text>
<text text-anchor="start" x="298" y="-269.9" font-family="Times,serif" font-size="14.00">&#45; miniref</text>
<text text-anchor="start" x="298" y="-254.9" font-family="Times,serif" font-size="14.00">&#45; uniquename</text>
<text text-anchor="start" x="298" y="-239.9" font-family="Times,serif" font-size="14.00">&#45; type_id</text>
<text text-anchor="start" x="298" y="-224.9" font-family="Times,serif" font-size="14.00">&#45; is_obsolete</text>
<text text-anchor="start" x="298" y="-209.9" font-family="Times,serif" font-size="14.00">&#45; publisher</text>
<text text-anchor="start" x="298" y="-194.9" font-family="Times,serif" font-size="14.00">&#45; pubplace</text>
</g>
<!-- node2 -->
<g id="node2" class="node"><title>node2</title>
<polygon fill="white" stroke="black" points="120,-307.5 120,-398.5 259,-398.5 259,-307.5 120,-307.5"/>
<text text-anchor="middle" x="189.5" y="-381.9" font-family="Times,serif" font-size="14.00">pub_relationship</text>
<polyline fill="none" stroke="black" points="120,-375.5 259,-375.5 "/>
<text text-anchor="start" x="128" y="-358.9" font-family="Times,serif" font-size="14.00">&#45; pub_relationship_id</text>
<text text-anchor="start" x="128" y="-343.9" font-family="Times,serif" font-size="14.00">&#45; subject_id</text>
<text text-anchor="start" x="128" y="-328.9" font-family="Times,serif" font-size="14.00">&#45; object_id</text>
<text text-anchor="start" x="128" y="-313.9" font-family="Times,serif" font-size="14.00">&#45; type_id</text>
</g>
<!-- node3 -->
<g id="node3" class="node"><title>node3</title>
<polygon fill="white" stroke="black" points="171,-1.5 171,-92.5 279,-92.5 279,-1.5 171,-1.5"/>
<text text-anchor="middle" x="225" y="-75.9" font-family="Times,serif" font-size="14.00">pub_dbxref</text>
<polyline fill="none" stroke="black" points="171,-69.5 279,-69.5 "/>
<text text-anchor="start" x="179" y="-52.9" font-family="Times,serif" font-size="14.00">&#45; pub_dbxref_id</text>
<text text-anchor="start" x="179" y="-37.9" font-family="Times,serif" font-size="14.00">&#45; pub_id</text>
<text text-anchor="start" x="179" y="-22.9" font-family="Times,serif" font-size="14.00">&#45; dbxref_id</text>
<text text-anchor="start" x="179" y="-7.9" font-family="Times,serif" font-size="14.00">&#45; is_current</text>
</g>
<!-- node4 -->
<g id="node4" class="node"><title>node4</title>
<polygon fill="white" stroke="black" points="324,-18.5 324,-154.5 424,-154.5 424,-18.5 324,-18.5"/>
<text text-anchor="middle" x="374" y="-137.9" font-family="Times,serif" font-size="14.00">pubauthor</text>
<polyline fill="none" stroke="black" points="324,-131.5 424,-131.5 "/>
<text text-anchor="start" x="332" y="-114.9" font-family="Times,serif" font-size="14.00">&#45; pubauthor_id</text>
<text text-anchor="start" x="332" y="-99.9" font-family="Times,serif" font-size="14.00">&#45; pub_id</text>
<text text-anchor="start" x="332" y="-84.9" font-family="Times,serif" font-size="14.00">&#45; rank</text>
<text text-anchor="start" x="332" y="-69.9" font-family="Times,serif" font-size="14.00">&#45; editor</text>
<text text-anchor="start" x="332" y="-54.9" font-family="Times,serif" font-size="14.00">&#45; surname</text>
<text text-anchor="start" x="332" y="-39.9" font-family="Times,serif" font-size="14.00">&#45; givennames</text>
<text text-anchor="start" x="332" y="-24.9" font-family="Times,serif" font-size="14.00">&#45; suffix</text>
</g>
<!-- node5 -->
<g id="node5" class="node"><title>node5</title>
<polygon fill="white" stroke="black" points="1,-358.5 1,-464.5 91,-464.5 91,-358.5 1,-358.5"/>
<text text-anchor="middle" x="46" y="-447.9" font-family="Times,serif" font-size="14.00">pubprop</text>
<polyline fill="none" stroke="black" points="1,-441.5 91,-441.5 "/>
<text text-anchor="start" x="9" y="-424.9" font-family="Times,serif" font-size="14.00">&#45; pubprop_id</text>
<text text-anchor="start" x="9" y="-409.9" font-family="Times,serif" font-size="14.00">&#45; pub_id</text>
<text text-anchor="start" x="9" y="-394.9" font-family="Times,serif" font-size="14.00">&#45; type_id</text>
<text text-anchor="start" x="9" y="-379.9" font-family="Times,serif" font-size="14.00">&#45; value</text>
<text text-anchor="start" x="9" y="-364.9" font-family="Times,serif" font-size="14.00">&#45; rank</text>
</g>
<!-- pub -->
<g id="node6" class="node"><title>pub</title>
<polygon fill="white" stroke="black" points="124.942,-166.523 124.942,-202.523 178.942,-202.523 178.942,-166.523 124.942,-166.523"/>
<text text-anchor="middle" x="151.942" y="-179.423" font-family="Times,serif" font-size="14.00">pub</text>
</g>
<!-- pub_relationship -->
<g id="node7" class="node"><title>pub_relationship</title>
<polygon fill="white" stroke="black" points="186.23,-119.832 186.23,-155.832 297.23,-155.832 297.23,-119.832 186.23,-119.832"/>
<text text-anchor="middle" x="241.73" y="-132.732" font-family="Times,serif" font-size="14.00">pub_relationship</text>
</g>
<!-- pub&#45;&gt;pub_relationship -->
<g id="edge4" class="edge"><title>pub&#45;&gt;pub_relationship</title>
<path fill="none" stroke="black" d="M179.369,-170.261C185.19,-167.234 191.476,-163.965 197.738,-160.709"/>
<polygon fill="black" stroke="black" points="199.581,-163.695 206.839,-155.976 196.352,-157.485 199.581,-163.695"/>
</g>
<!-- pub_dbxref -->
<g id="node8" class="node"><title>pub_dbxref</title>
<polygon fill="white" stroke="black" points="45.639,-103.5 45.639,-139.5 125.639,-139.5 125.639,-103.5 45.639,-103.5"/>
<text text-anchor="middle" x="85.639" y="-116.4" font-family="Times,serif" font-size="14.00">pub_dbxref</text>
</g>
<!-- pub&#45;&gt;pub_dbxref -->
<g id="edge2" class="edge"><title>pub&#45;&gt;pub_dbxref</title>
<path fill="none" stroke="black" d="M132.764,-166.294C126.497,-160.337 119.414,-153.604 112.679,-147.203"/>
<polygon fill="black" stroke="black" points="114.663,-144.259 105.003,-139.906 109.84,-149.333 114.663,-144.259"/>
</g>
<!-- pubauthor -->
<g id="node9" class="node"><title>pubauthor</title>
<polygon fill="white" stroke="black" points="35,-219.799 35,-255.799 107,-255.799 107,-219.799 35,-219.799"/>
<text text-anchor="middle" x="71" y="-232.699" font-family="Times,serif" font-size="14.00">pubauthor</text>
</g>
<!-- pub&#45;&gt;pubauthor -->
<g id="edge6" class="edge"><title>pub&#45;&gt;pubauthor</title>
<path fill="none" stroke="black" d="M124.539,-202.56C118.869,-206.292 112.816,-210.276 106.895,-214.173"/>
<polygon fill="black" stroke="black" points="104.804,-211.359 98.3751,-219.781 108.652,-217.206 104.804,-211.359"/>
</g>
<!-- pubprop -->
<g id="node10" class="node"><title>pubprop</title>
<polygon fill="white" stroke="black" points="193.23,-233.429 193.23,-269.429 255.23,-269.429 255.23,-233.429 193.23,-233.429"/>
<text text-anchor="middle" x="224.23" y="-246.329" font-family="Times,serif" font-size="14.00">pubprop</text>
</g>
<!-- pub&#45;&gt;pubprop -->
<g id="edge8" class="edge"><title>pub&#45;&gt;pubprop</title>
<path fill="none" stroke="black" d="M171.695,-202.806C179.504,-210.033 188.609,-218.46 197.024,-226.248"/>
<polygon fill="black" stroke="black" points="194.785,-228.945 204.501,-233.169 199.539,-223.808 194.785,-228.945"/>
</g>
</g>
</svg>
