<?xml version="1.0" encoding="UTF-8" standalone="no"?>
<!DOCTYPE svg PUBLIC "-//W3C//DTD SVG 1.0//EN"
 "http://www.w3.org/TR/2001/REC-SVG-20010904/DTD/svg10.dtd">
<!-- Generated by neato version 1.10 (Tue Nov 11 16:12:26 EST 2003)
     For user: (allenday) Allen Day   Title: test    Pages: 1 -->
<svg width="975px" height="783px"
 viewBox = "-1 -1 731 587"
 xmlns="http://www.w3.org/2000/svg">
<g id="graph0" class="graph" style="font-family:Times-Roman;font-size:14.00;">
<title>test</title>
<polygon style="fill:white;stroke:white;" points="0,585 0,-1 730,-1 730,585 0,585"/>
<g id="node1" class="node"><title>pub</title>
<polygon style="fill:white;stroke:black;" points="246,450 346,450 346,202 246,202 246,450"/>
<text text-anchor="middle" x="296" y="217">pub</text>
<polyline style="fill:none;stroke:black;" points="246,222 346,222 "/>
<text text-anchor="start" x="246" y="237">pub_id</text>
<text text-anchor="start" x="246" y="253">title</text>
<text text-anchor="start" x="246" y="269">volumetitle</text>
<text text-anchor="start" x="246" y="285">volume</text>
<text text-anchor="start" x="246" y="301">series_name</text>
<text text-anchor="start" x="246" y="317">issue</text>
<text text-anchor="start" x="246" y="333">pyear</text>
<text text-anchor="start" x="246" y="349">pages</text>
<text text-anchor="start" x="246" y="365">miniref</text>
<text text-anchor="start" x="246" y="381">uniquename</text>
<text text-anchor="start" x="246" y="397">type_id</text>
<text text-anchor="start" x="246" y="413">is_obsolete</text>
<text text-anchor="start" x="246" y="429">publisher</text>
<text text-anchor="middle" x="296" y="445">pubplace</text>
</g>
<g id="node2" class="node"><title>pub_relationship</title>
<polygon style="fill:white;stroke:black;" points="483,571 636,571 636,483 483,483 483,571"/>
<text text-anchor="middle" x="559" y="498">pub_relationship</text>
<polyline style="fill:none;stroke:black;" points="483,503 636,503 "/>
<text text-anchor="start" x="483" y="518">pub_relationship_id</text>
<text text-anchor="start" x="483" y="534">subject_id</text>
<text text-anchor="start" x="483" y="550">object_id</text>
<text text-anchor="middle" x="559" y="566">type_id</text>
</g>
<g id="edge8" class="edge"><title>pub-&gt;pub_relationship</title>
<path style="fill:none;stroke:black;" d="M346,364C396,402 445,440 495,477"/>
<polygon style="fill:black;stroke:black;" points="496,475 502,483 493,478 496,475"/>
</g>
<g id="node3" class="node"><title>pub_dbxref</title>
<polygon style="fill:white;stroke:black;" points="47,545 168,545 168,473 47,473 47,545"/>
<text text-anchor="middle" x="107" y="488">pub_dbxref</text>
<polyline style="fill:none;stroke:black;" points="47,493 168,493 "/>
<text text-anchor="start" x="47" y="508">pub_dbxref_id</text>
<text text-anchor="start" x="47" y="524">pub_id</text>
<text text-anchor="middle" x="107" y="540">dbxref_id</text>
</g>
<g id="edge6" class="edge"><title>pub-&gt;pub_dbxref</title>
<path style="fill:none;stroke:black;" d="M246,375C214,405 183,435 151,466"/>
<polygon style="fill:black;stroke:black;" points="153,468 144,473 149,464 153,468"/>
</g>
<g id="node5" class="node"><title>pub_author</title>
<polygon style="fill:white;stroke:black;" points="566,320 685,320 685,216 566,216 566,320"/>
<text text-anchor="middle" x="625" y="231">pub_author</text>
<polyline style="fill:none;stroke:black;" points="566,236 685,236 "/>
<text text-anchor="start" x="566" y="251">pub_author_id</text>
<text text-anchor="start" x="566" y="267">author_id</text>
<text text-anchor="start" x="566" y="283">pub_id</text>
<text text-anchor="start" x="566" y="299">rank</text>
<text text-anchor="middle" x="625" y="315">editor</text>
</g>
<g id="edge4" class="edge"><title>pub-&gt;pub_author</title>
<path style="fill:none;stroke:black;" d="M346,317C416,305 487,292 557,280"/>
<polygon style="fill:black;stroke:black;" points="555,278 565,278 556,283 555,278"/>
</g>
<g id="node6" class="node"><title>pubprop</title>
<polygon style="fill:white;stroke:black;" points="44,180 140,180 140,76 44,76 44,180"/>
<text text-anchor="middle" x="92" y="91">pubprop</text>
<polyline style="fill:none;stroke:black;" points="44,96 140,96 "/>
<text text-anchor="start" x="44" y="111">pubprop_id</text>
<text text-anchor="start" x="44" y="127">pub_id</text>
<text text-anchor="start" x="44" y="143">type_id</text>
<text text-anchor="start" x="44" y="159">value</text>
<text text-anchor="middle" x="92" y="175">rank</text>
</g>
<g id="edge10" class="edge"><title>pub-&gt;pubprop</title>
<path style="fill:none;stroke:black;" d="M246,277C213,245 180,213 147,182"/>
<polygon style="fill:black;stroke:black;" points="145,184 140,175 149,180 145,184"/>
</g>
<g id="node4" class="node"><title>author</title>
<polygon style="fill:white;stroke:black;" points="460,118 556,118 556,14 460,14 460,118"/>
<text text-anchor="middle" x="508" y="29">author</text>
<polyline style="fill:none;stroke:black;" points="460,34 556,34 "/>
<text text-anchor="start" x="460" y="49">author_id</text>
<text text-anchor="start" x="460" y="65">contact_id</text>
<text text-anchor="start" x="460" y="81">surname</text>
<text text-anchor="start" x="460" y="97">givennames</text>
<text text-anchor="middle" x="508" y="113">suffix</text>
</g>
<g id="edge2" class="edge"><title>author-&gt;pub_author</title>
<path style="fill:none;stroke:black;" d="M538,118C555,148 573,177 590,207"/>
<polygon style="fill:black;stroke:black;" points="592,206 595,216 588,208 592,206"/>
</g>
</g></svg>
