<?xml version="1.0" encoding="UTF-8" standalone="no"?>
<!DOCTYPE svg PUBLIC "-//W3C//DTD SVG 1.0//EN"
 "http://www.w3.org/TR/2001/REC-SVG-20010904/DTD/svg10.dtd">
<!-- Generated by neato version 2.2.1 (Wed Apr 13 22:41:22 UTC 2005)
     For user: (allenday) Allen Day            Title: test    Pages: 1 -->
<svg width="732pt" height="587pt"
 viewBox = "-1 -1 731 586"
 xmlns="http://www.w3.org/2000/svg">
<g id="graph0" class="graph" transform = "scale(0.307167)"
 style="font-family:Times-Roman;font-size:14.00;">
<title>test</title>
<g id="node1" class="node"><title>mageml</title>
<polygon style="fill:white;stroke:black;" points="1904,632 2049,632 2049,560 1904,560 1904,632"/>
<text text-anchor="start" x="1912" y="577">{mageml|&#45; mageml_id </text>
<text text-anchor="start" x="1912" y="593">&#45; mage_package </text>
<text text-anchor="start" x="1912" y="609">&#45; mage_ml </text>
<text text-anchor="middle" x="1976" y="625">}</text>
</g>
<g id="node2" class="node"><title>magedocumentation</title>
<polygon style="fill:white;stroke:black;" points="2066,648 2348,648 2348,544 2066,544 2066,648"/>
<text text-anchor="start" x="2074" y="561">{magedocumentation|&#45; magedocumentation_id </text>
<text text-anchor="start" x="2074" y="577">&#45; mageml_id </text>
<text text-anchor="start" x="2074" y="593">&#45; tableinfo_id </text>
<text text-anchor="start" x="2074" y="609">&#45; row_id </text>
<text text-anchor="start" x="2074" y="625">&#45; mageidentifier </text>
<text text-anchor="middle" x="2207" y="641">}</text>
</g>
<g id="edge48" class="edge"><title>mageml&#45;&gt;magedocumentation</title>
<path style="fill:none;stroke:black;" d="M2049,596C2051,596 2053,596 2056,596"/>
<polygon style="fill:black;stroke:black;" points="2056,592 2066,596 2056,599 2056,592"/>
</g>
<g id="node3" class="node"><title>protocol</title>
<polygon style="fill:white;stroke:black;" points="1081,1023 1229,1023 1229,855 1081,855 1081,1023"/>
<text text-anchor="start" x="1089" y="872">{protocol|&#45; protocol_id </text>
<text text-anchor="start" x="1089" y="888">&#45; type_id </text>
<text text-anchor="start" x="1089" y="904">&#45; pub_id </text>
<text text-anchor="start" x="1089" y="920">&#45; dbxref_id </text>
<text text-anchor="start" x="1089" y="936">&#45; name </text>
<text text-anchor="start" x="1089" y="952">&#45; uri </text>
<text text-anchor="start" x="1089" y="968">&#45; protocoldescription </text>
<text text-anchor="start" x="1089" y="984">&#45; hardwaredescription </text>
<text text-anchor="start" x="1089" y="1000">&#45; softwaredescription </text>
<text text-anchor="middle" x="1155" y="1016">}</text>
</g>
<g id="node4" class="node"><title>protocolparam</title>
<polygon style="fill:white;stroke:black;" points="1045,634 1263,634 1263,498 1045,498 1045,634"/>
<text text-anchor="start" x="1053" y="515">{protocolparam|&#45; protocolparam_id </text>
<text text-anchor="start" x="1053" y="531">&#45; protocol_id </text>
<text text-anchor="start" x="1053" y="547">&#45; name </text>
<text text-anchor="start" x="1053" y="563">&#45; datatype_id </text>
<text text-anchor="start" x="1053" y="579">&#45; unittype_id </text>
<text text-anchor="start" x="1053" y="595">&#45; value </text>
<text text-anchor="start" x="1053" y="611">&#45; rank </text>
<text text-anchor="middle" x="1154" y="627">}</text>
</g>
<g id="edge56" class="edge"><title>protocol&#45;&gt;protocolparam</title>
<path style="fill:none;stroke:black;" d="M1155,855C1154,792 1154,706 1154,644"/>
<polygon style="fill:black;stroke:black;" points="1151,644 1154,634 1158,644 1151,644"/>
</g>
<g id="node6" class="node"><title>arraydesign</title>
<polygon style="fill:white;stroke:black;" points="1339,774 1525,774 1525,462 1339,462 1339,774"/>
<text text-anchor="start" x="1347" y="479">{arraydesign|&#45; arraydesign_id </text>
<text text-anchor="start" x="1347" y="495">&#45; manufacturer_id </text>
<text text-anchor="start" x="1347" y="511">&#45; platformtype_id </text>
<text text-anchor="start" x="1347" y="527">&#45; substratetype_id </text>
<text text-anchor="start" x="1347" y="543">&#45; protocol_id </text>
<text text-anchor="start" x="1347" y="559">&#45; dbxref_id </text>
<text text-anchor="start" x="1347" y="575">&#45; name </text>
<text text-anchor="start" x="1347" y="591">&#45; version </text>
<text text-anchor="start" x="1347" y="607">&#45; description </text>
<text text-anchor="start" x="1347" y="623">&#45; array_dimensions </text>
<text text-anchor="start" x="1347" y="639">&#45; element_dimensions </text>
<text text-anchor="start" x="1347" y="655">&#45; num_of_elements </text>
<text text-anchor="start" x="1347" y="671">&#45; num_array_columns </text>
<text text-anchor="start" x="1347" y="687">&#45; num_array_rows </text>
<text text-anchor="start" x="1347" y="703">&#45; num_grid_columns </text>
<text text-anchor="start" x="1347" y="719">&#45; num_grid_rows </text>
<text text-anchor="start" x="1347" y="735">&#45; num_sub_columns </text>
<text text-anchor="start" x="1347" y="751">&#45; num_sub_rows </text>
<text text-anchor="middle" x="1432" y="767">}</text>
</g>
<g id="edge52" class="edge"><title>protocol&#45;&gt;arraydesign</title>
<path style="fill:none;stroke:black;" d="M1228,855C1260,818 1298,774 1332,734"/>
<polygon style="fill:black;stroke:black;" points="1330,731 1339,726 1335,736 1330,731"/>
</g>
<g id="node8" class="node"><title>assay</title>
<polygon style="fill:white;stroke:black;" points="1348,1098 1486,1098 1486,914 1348,914 1348,1098"/>
<text text-anchor="start" x="1356" y="931">{assay|&#45; assay_id </text>
<text text-anchor="start" x="1356" y="947">&#45; arraydesign_id </text>
<text text-anchor="start" x="1356" y="963">&#45; protocol_id </text>
<text text-anchor="start" x="1356" y="979">&#45; assaydate </text>
<text text-anchor="start" x="1356" y="995">&#45; arrayidentifier </text>
<text text-anchor="start" x="1356" y="1011">&#45; arraybatchidentifier </text>
<text text-anchor="start" x="1356" y="1027">&#45; operator_id </text>
<text text-anchor="start" x="1356" y="1043">&#45; dbxref_id </text>
<text text-anchor="start" x="1356" y="1059">&#45; name </text>
<text text-anchor="start" x="1356" y="1075">&#45; description </text>
<text text-anchor="middle" x="1417" y="1091">}</text>
</g>
<g id="edge54" class="edge"><title>protocol&#45;&gt;assay</title>
<path style="fill:none;stroke:black;" d="M1229,958C1263,967 1303,977 1338,986"/>
<polygon style="fill:black;stroke:black;" points="1339,983 1348,988 1338,989 1339,983"/>
</g>
<g id="node14" class="node"><title>treatment</title>
<polygon style="fill:white;stroke:black;" points="825,1184 986,1184 986,1064 825,1064 825,1184"/>
<text text-anchor="start" x="833" y="1081">{treatment|&#45; treatment_id </text>
<text text-anchor="start" x="833" y="1097">&#45; rank </text>
<text text-anchor="start" x="833" y="1113">&#45; biomaterial_id </text>
<text text-anchor="start" x="833" y="1129">&#45; type_id </text>
<text text-anchor="start" x="833" y="1145">&#45; protocol_id </text>
<text text-anchor="start" x="833" y="1161">&#45; name </text>
<text text-anchor="middle" x="905" y="1177">}</text>
</g>
<g id="edge60" class="edge"><title>protocol&#45;&gt;treatment</title>
<path style="fill:none;stroke:black;" d="M1081,994C1054,1014 1023,1037 994,1058"/>
<polygon style="fill:black;stroke:black;" points="996,1061 986,1064 992,1055 996,1061"/>
</g>
<g id="node17" class="node"><title>acquisition</title>
<polygon style="fill:white;stroke:black;" points="787,876 965,876 965,740 787,740 787,876"/>
<text text-anchor="start" x="795" y="757">{acquisition|&#45; acquisition_id </text>
<text text-anchor="start" x="795" y="773">&#45; assay_id </text>
<text text-anchor="start" x="795" y="789">&#45; protocol_id </text>
<text text-anchor="start" x="795" y="805">&#45; channel_id </text>
<text text-anchor="start" x="795" y="821">&#45; acquisitiondate </text>
<text text-anchor="start" x="795" y="837">&#45; name </text>
<text text-anchor="start" x="795" y="853">&#45; uri </text>
<text text-anchor="middle" x="876" y="869">}</text>
</g>
<g id="edge50" class="edge"><title>protocol&#45;&gt;acquisition</title>
<path style="fill:none;stroke:black;" d="M1081,904C1048,888 1009,870 974,854"/>
<polygon style="fill:black;stroke:black;" points="973,857 965,850 976,851 973,857"/>
</g>
<g id="node20" class="node"><title>quantification</title>
<polygon style="fill:white;stroke:black;" points="459,649 669,649 669,497 459,497 459,649"/>
<text text-anchor="start" x="467" y="514">{quantification|&#45; quantification_id </text>
<text text-anchor="start" x="467" y="530">&#45; acquisition_id </text>
<text text-anchor="start" x="467" y="546">&#45; operator_id </text>
<text text-anchor="start" x="467" y="562">&#45; protocol_id </text>
<text text-anchor="start" x="467" y="578">&#45; analysis_id </text>
<text text-anchor="start" x="467" y="594">&#45; quantificationdate </text>
<text text-anchor="start" x="467" y="610">&#45; name </text>
<text text-anchor="start" x="467" y="626">&#45; uri </text>
<text text-anchor="middle" x="564" y="642">}</text>
</g>
<g id="edge58" class="edge"><title>protocol&#45;&gt;quantification</title>
<path style="fill:none;stroke:black;" d="M1081,893C980,831 796,717 678,643"/>
<polygon style="fill:black;stroke:black;" points="676,646 669,638 679,640 676,646"/>
</g>
<g id="node5" class="node"><title>channel</title>
<polygon style="fill:white;stroke:black;" points="503,1009 645,1009 645,937 503,937 503,1009"/>
<text text-anchor="start" x="511" y="954">{channel|&#45; channel_id </text>
<text text-anchor="start" x="511" y="970">&#45; name </text>
<text text-anchor="start" x="511" y="986">&#45; definition </text>
<text text-anchor="middle" x="574" y="1002">}</text>
</g>
<g id="node16" class="node"><title>assay_biomaterial</title>
<polygon style="fill:white;stroke:black;" points="815,1478 1072,1478 1072,1390 815,1390 815,1478"/>
<text text-anchor="start" x="823" y="1407">{assay_biomaterial|&#45; assay_biomaterial_id </text>
<text text-anchor="start" x="823" y="1423">&#45; assay_id </text>
<text text-anchor="start" x="823" y="1439">&#45; biomaterial_id </text>
<text text-anchor="start" x="823" y="1455">&#45; channel_id </text>
<text text-anchor="middle" x="943" y="1471">}</text>
</g>
<g id="edge40" class="edge"><title>channel&#45;&gt;assay_biomaterial</title>
<path style="fill:none;stroke:black;" d="M603,1009C668,1091 826,1287 902,1382"/>
<polygon style="fill:black;stroke:black;" points="905,1380 908,1390 899,1384 905,1380"/>
</g>
<g id="edge38" class="edge"><title>channel&#45;&gt;acquisition</title>
<path style="fill:none;stroke:black;" d="M640,937C680,914 733,886 778,862"/>
<polygon style="fill:black;stroke:black;" points="777,859 787,857 780,865 777,859"/>
</g>
<g id="node7" class="node"><title>arraydesignprop</title>
<polygon style="fill:white;stroke:black;" points="2010,211 2246,211 2246,107 2010,107 2010,211"/>
<text text-anchor="start" x="2018" y="124">{arraydesignprop|&#45; arraydesignprop_id </text>
<text text-anchor="start" x="2018" y="140">&#45; arraydesign_id </text>
<text text-anchor="start" x="2018" y="156">&#45; type_id </text>
<text text-anchor="start" x="2018" y="172">&#45; value </text>
<text text-anchor="start" x="2018" y="188">&#45; rank </text>
<text text-anchor="middle" x="2128" y="204">}</text>
</g>
<g id="edge8" class="edge"><title>arraydesign&#45;&gt;arraydesignprop</title>
<path style="fill:none;stroke:black;" d="M1525,557C1660,468 1909,304 2041,217"/>
<polygon style="fill:black;stroke:black;" points="2039,214 2049,211 2043,220 2039,214"/>
</g>
<g id="edge10" class="edge"><title>arraydesign&#45;&gt;assay</title>
<path style="fill:none;stroke:black;" d="M1426,774C1424,817 1422,864 1421,904"/>
<polygon style="fill:black;stroke:black;" points="1425,904 1421,914 1418,904 1425,904"/>
</g>
<g id="node24" class="node"><title>element</title>
<polygon style="fill:white;stroke:black;" points="1252,184 1396,184 1396,80 1252,80 1252,184"/>
<text text-anchor="start" x="1260" y="97">{element|&#45; element_id </text>
<text text-anchor="start" x="1260" y="113">&#45; feature_id </text>
<text text-anchor="start" x="1260" y="129">&#45; arraydesign_id </text>
<text text-anchor="start" x="1260" y="145">&#45; type_id </text>
<text text-anchor="start" x="1260" y="161">&#45; dbxref_id </text>
<text text-anchor="middle" x="1324" y="177">}</text>
</g>
<g id="edge12" class="edge"><title>arraydesign&#45;&gt;element</title>
<path style="fill:none;stroke:black;" d="M1397,462C1377,371 1353,261 1338,194"/>
<polygon style="fill:black;stroke:black;" points="1335,194 1336,184 1341,193 1335,194"/>
</g>
<g id="node9" class="node"><title>assayprop</title>
<polygon style="fill:white;stroke:black;" points="1166,1381 1333,1381 1333,1277 1166,1277 1166,1381"/>
<text text-anchor="start" x="1174" y="1294">{assayprop|&#45; assayprop_id </text>
<text text-anchor="start" x="1174" y="1310">&#45; assay_id </text>
<text text-anchor="start" x="1174" y="1326">&#45; type_id </text>
<text text-anchor="start" x="1174" y="1342">&#45; value </text>
<text text-anchor="start" x="1174" y="1358">&#45; rank </text>
<text text-anchor="middle" x="1249" y="1374">}</text>
</g>
<g id="edge20" class="edge"><title>assay&#45;&gt;assayprop</title>
<path style="fill:none;stroke:black;" d="M1369,1098C1341,1152 1306,1220 1281,1268"/>
<polygon style="fill:black;stroke:black;" points="1284,1270 1276,1277 1278,1267 1284,1270"/>
</g>
<g id="node10" class="node"><title>assay_project</title>
<polygon style="fill:white;stroke:black;" points="1642,597 1849,597 1849,525 1642,525 1642,597"/>
<text text-anchor="start" x="1650" y="542">{assay_project|&#45; assay_project_id </text>
<text text-anchor="start" x="1650" y="558">&#45; assay_id </text>
<text text-anchor="start" x="1650" y="574">&#45; project_id </text>
<text text-anchor="middle" x="1745" y="590">}</text>
</g>
<g id="edge18" class="edge"><title>assay&#45;&gt;assay_project</title>
<path style="fill:none;stroke:black;" d="M1485,914C1554,819 1659,678 1712,605"/>
<polygon style="fill:black;stroke:black;" points="1709,603 1718,597 1715,607 1709,603"/>
</g>
<g id="edge16" class="edge"><title>assay&#45;&gt;assay_biomaterial</title>
<path style="fill:none;stroke:black;" d="M1348,1068C1254,1153 1086,1304 1000,1383"/>
<polygon style="fill:black;stroke:black;" points="1002,1386 992,1390 997,1381 1002,1386"/>
</g>
<g id="edge14" class="edge"><title>assay&#45;&gt;acquisition</title>
<path style="fill:none;stroke:black;" d="M1348,981C1253,946 1083,884 975,844"/>
<polygon style="fill:black;stroke:black;" points="974,847 965,841 976,841 974,847"/>
</g>
<g id="node23" class="node"><title>control</title>
<polygon style="fill:white;stroke:black;" points="1305,1852 1439,1852 1439,1700 1305,1700 1305,1852"/>
<text text-anchor="start" x="1313" y="1717">{control|&#45; control_id </text>
<text text-anchor="start" x="1313" y="1733">&#45; type_id </text>
<text text-anchor="start" x="1313" y="1749">&#45; assay_id </text>
<text text-anchor="start" x="1313" y="1765">&#45; tableinfo_id </text>
<text text-anchor="start" x="1313" y="1781">&#45; row_id </text>
<text text-anchor="start" x="1313" y="1797">&#45; name </text>
<text text-anchor="start" x="1313" y="1813">&#45; value </text>
<text text-anchor="start" x="1313" y="1829">&#45; rank </text>
<text text-anchor="middle" x="1372" y="1845">}</text>
</g>
<g id="edge22" class="edge"><title>assay&#45;&gt;control</title>
<path style="fill:none;stroke:black;" d="M1412,1098C1403,1247 1386,1543 1377,1690"/>
<polygon style="fill:black;stroke:black;" points="1380,1690 1376,1700 1374,1690 1380,1690"/>
</g>
<g id="node29" class="node"><title>study_assay</title>
<polygon style="fill:white;stroke:black;" points="1530,1372 1720,1372 1720,1300 1530,1300 1530,1372"/>
<text text-anchor="start" x="1538" y="1317">{study_assay|&#45; study_assay_id </text>
<text text-anchor="start" x="1538" y="1333">&#45; study_id </text>
<text text-anchor="start" x="1538" y="1349">&#45; assay_id </text>
<text text-anchor="middle" x="1625" y="1365">}</text>
</g>
<g id="edge24" class="edge"><title>assay&#45;&gt;study_assay</title>
<path style="fill:none;stroke:black;" d="M1475,1098C1515,1161 1566,1242 1597,1291"/>
<polygon style="fill:black;stroke:black;" points="1600,1290 1602,1300 1594,1293 1600,1290"/>
</g>
<g id="node33" class="node"><title>studyfactorvalue</title>
<polygon style="fill:white;stroke:black;" points="1608,1019 1849,1019 1849,899 1608,899 1608,1019"/>
<text text-anchor="start" x="1616" y="916">{studyfactorvalue|&#45; studyfactorvalue_id </text>
<text text-anchor="start" x="1616" y="932">&#45; studyfactor_id </text>
<text text-anchor="start" x="1616" y="948">&#45; assay_id </text>
<text text-anchor="start" x="1616" y="964">&#45; factorvalue </text>
<text text-anchor="start" x="1616" y="980">&#45; name </text>
<text text-anchor="start" x="1616" y="996">&#45; rank </text>
<text text-anchor="middle" x="1728" y="1012">}</text>
</g>
<g id="edge26" class="edge"><title>assay&#45;&gt;studyfactorvalue</title>
<path style="fill:none;stroke:black;" d="M1486,996C1519,991 1560,985 1598,979"/>
<polygon style="fill:black;stroke:black;" points="1598,976 1608,977 1599,982 1598,976"/>
</g>
<g id="node11" class="node"><title>biomaterial</title>
<polygon style="fill:white;stroke:black;" points="505,1422 688,1422 688,1302 505,1302 505,1422"/>
<text text-anchor="start" x="513" y="1319">{biomaterial|&#45; biomaterial_id </text>
<text text-anchor="start" x="513" y="1335">&#45; taxon_id </text>
<text text-anchor="start" x="513" y="1351">&#45; biosourceprovider_id </text>
<text text-anchor="start" x="513" y="1367">&#45; dbxref_id </text>
<text text-anchor="start" x="513" y="1383">&#45; name </text>
<text text-anchor="start" x="513" y="1399">&#45; description </text>
<text text-anchor="middle" x="596" y="1415">}</text>
</g>
<g id="node12" class="node"><title>biomaterial_relationship</title>
<polygon style="fill:white;stroke:black;" points="516,1859 844,1859 844,1771 516,1771 516,1859"/>
<text text-anchor="start" x="524" y="1788">{biomaterial_relationship|&#45; biomaterial_relationship_id </text>
<text text-anchor="start" x="524" y="1804">&#45; subject_id </text>
<text text-anchor="start" x="524" y="1820">&#45; type_id </text>
<text text-anchor="start" x="524" y="1836">&#45; object_id </text>
<text text-anchor="middle" x="680" y="1852">}</text>
</g>
<g id="edge30" class="edge"><title>biomaterial&#45;&gt;biomaterial_relationship</title>
<path style="fill:none;stroke:black;" d="M607,1422C623,1510 654,1675 670,1761"/>
<polygon style="fill:black;stroke:black;" points="673,1761 672,1771 667,1762 673,1761"/>
</g>
<g id="node13" class="node"><title>biomaterialprop</title>
<polygon style="fill:white;stroke:black;" points="81,1814 315,1814 315,1710 81,1710 81,1814"/>
<text text-anchor="start" x="89" y="1727">{biomaterialprop|&#45; biomaterialprop_id </text>
<text text-anchor="start" x="89" y="1743">&#45; biomaterial_id </text>
<text text-anchor="start" x="89" y="1759">&#45; type_id </text>
<text text-anchor="start" x="89" y="1775">&#45; value </text>
<text text-anchor="start" x="89" y="1791">&#45; rank </text>
<text text-anchor="middle" x="198" y="1807">}</text>
</g>
<g id="edge34" class="edge"><title>biomaterial&#45;&gt;biomaterialprop</title>
<path style="fill:none;stroke:black;" d="M536,1422C460,1498 332,1628 257,1703"/>
<polygon style="fill:black;stroke:black;" points="260,1705 250,1710 255,1700 260,1705"/>
</g>
<g id="edge36" class="edge"><title>biomaterial&#45;&gt;treatment</title>
<path style="fill:none;stroke:black;" d="M674,1302C718,1268 773,1225 819,1190"/>
<polygon style="fill:black;stroke:black;" points="817,1187 827,1184 821,1193 817,1187"/>
</g>
<g id="node15" class="node"><title>biomaterial_treatment</title>
<polygon style="fill:white;stroke:black;" points="906,1884 1208,1884 1208,1764 906,1764 906,1884"/>
<text text-anchor="start" x="914" y="1781">{biomaterial_treatment|&#45; biomaterial_treatment_id </text>
<text text-anchor="start" x="914" y="1797">&#45; biomaterial_id </text>
<text text-anchor="start" x="914" y="1813">&#45; treatment_id </text>
<text text-anchor="start" x="914" y="1829">&#45; unittype_id </text>
<text text-anchor="start" x="914" y="1845">&#45; value </text>
<text text-anchor="start" x="914" y="1861">&#45; rank </text>
<text text-anchor="middle" x="1057" y="1877">}</text>
</g>
<g id="edge32" class="edge"><title>biomaterial&#45;&gt;biomaterial_treatment</title>
<path style="fill:none;stroke:black;" d="M656,1422C742,1509 899,1666 990,1757"/>
<polygon style="fill:black;stroke:black;" points="992,1754 997,1764 987,1759 992,1754"/>
</g>
<g id="edge28" class="edge"><title>biomaterial&#45;&gt;assay_biomaterial</title>
<path style="fill:none;stroke:black;" d="M688,1381C724,1388 766,1397 805,1405"/>
<polygon style="fill:black;stroke:black;" points="806,1402 815,1407 805,1408 806,1402"/>
</g>
<g id="edge78" class="edge"><title>treatment&#45;&gt;biomaterial_treatment</title>
<path style="fill:none;stroke:black;" d="M918,1184C946,1313 1012,1616 1042,1754"/>
<polygon style="fill:black;stroke:black;" points="1045,1754 1044,1764 1039,1755 1045,1754"/>
</g>
<g id="node18" class="node"><title>acquisitionprop</title>
<polygon style="fill:white;stroke:black;" points="51,1267 279,1267 279,1163 51,1163 51,1267"/>
<text text-anchor="start" x="59" y="1180">{acquisitionprop|&#45; acquisitionprop_id </text>
<text text-anchor="start" x="59" y="1196">&#45; acquisition_id </text>
<text text-anchor="start" x="59" y="1212">&#45; type_id </text>
<text text-anchor="start" x="59" y="1228">&#45; value </text>
<text text-anchor="start" x="59" y="1244">&#45; rank </text>
<text text-anchor="middle" x="165" y="1260">}</text>
</g>
<g id="edge4" class="edge"><title>acquisition&#45;&gt;acquisitionprop</title>
<path style="fill:none;stroke:black;" d="M787,859C654,935 404,1078 265,1158"/>
<polygon style="fill:black;stroke:black;" points="266,1161 256,1163 263,1155 266,1161"/>
</g>
<g id="node19" class="node"><title>acquisition_relationship</title>
<polygon style="fill:white;stroke:black;" points="715,540 1038,540 1038,420 715,420 715,540"/>
<text text-anchor="start" x="723" y="437">{acquisition_relationship|&#45; acquisition_relationship_id </text>
<text text-anchor="start" x="723" y="453">&#45; subject_id </text>
<text text-anchor="start" x="723" y="469">&#45; type_id </text>
<text text-anchor="start" x="723" y="485">&#45; object_id </text>
<text text-anchor="start" x="723" y="501">&#45; value </text>
<text text-anchor="start" x="723" y="517">&#45; rank </text>
<text text-anchor="middle" x="876" y="533">}</text>
</g>
<g id="edge2" class="edge"><title>acquisition&#45;&gt;acquisition_relationship</title>
<path style="fill:none;stroke:black;" d="M876,740C876,684 876,607 876,550"/>
<polygon style="fill:black;stroke:black;" points="873,550 876,540 880,550 873,550"/>
</g>
<g id="edge6" class="edge"><title>acquisition&#45;&gt;quantification</title>
<path style="fill:none;stroke:black;" d="M787,741C752,714 710,684 673,655"/>
<polygon style="fill:black;stroke:black;" points="671,658 665,649 675,652 671,658"/>
</g>
<g id="node21" class="node"><title>quantificationprop</title>
<polygon style="fill:white;stroke:black;" points="28,777 289,777 289,673 28,673 28,777"/>
<text text-anchor="start" x="36" y="690">{quantificationprop|&#45; quantificationprop_id </text>
<text text-anchor="start" x="36" y="706">&#45; quantification_id </text>
<text text-anchor="start" x="36" y="722">&#45; type_id </text>
<text text-anchor="start" x="36" y="738">&#45; value </text>
<text text-anchor="start" x="36" y="754">&#45; rank </text>
<text text-anchor="middle" x="158" y="770">}</text>
</g>
<g id="edge66" class="edge"><title>quantification&#45;&gt;quantificationprop</title>
<path style="fill:none;stroke:black;" d="M459,612C410,630 351,652 298,672"/>
<polygon style="fill:black;stroke:black;" points="300,675 289,676 297,669 300,675"/>
</g>
<g id="node22" class="node"><title>quantification_relationship</title>
<polygon style="fill:white;stroke:black;" points="6,203 362,203 362,115 6,115 6,203"/>
<text text-anchor="start" x="14" y="132">{quantification_relationship|&#45; quantification_relationship_id </text>
<text text-anchor="start" x="14" y="148">&#45; subject_id </text>
<text text-anchor="start" x="14" y="164">&#45; type_id </text>
<text text-anchor="start" x="14" y="180">&#45; object_id </text>
<text text-anchor="middle" x="184" y="196">}</text>
</g>
<g id="edge64" class="edge"><title>quantification&#45;&gt;quantification_relationship</title>
<path style="fill:none;stroke:black;" d="M494,497C418,414 298,283 231,211"/>
<polygon style="fill:black;stroke:black;" points="228,213 224,203 233,208 228,213"/>
</g>
<g id="node25" class="node"><title>elementresult</title>
<polygon style="fill:white;stroke:black;" points="909,122 1115,122 1115,50 909,50 909,122"/>
<text text-anchor="start" x="917" y="67">{elementresult|&#45; elementresult_id </text>
<text text-anchor="start" x="917" y="83">&#45; element_id </text>
<text text-anchor="start" x="917" y="99">&#45; quantification_id </text>
<text text-anchor="middle" x="1012" y="115">}</text>
</g>
<g id="edge62" class="edge"><title>quantification&#45;&gt;elementresult</title>
<path style="fill:none;stroke:black;" d="M634,497C729,394 895,213 972,130"/>
<polygon style="fill:black;stroke:black;" points="970,127 979,122 975,132 970,127"/>
</g>
<g id="edge44" class="edge"><title>element&#45;&gt;elementresult</title>
<path style="fill:none;stroke:black;" d="M1252,121C1214,115 1168,109 1125,103"/>
<polygon style="fill:black;stroke:black;" points="1124,106 1115,101 1125,100 1124,106"/>
</g>
<g id="node26" class="node"><title>element_relationship</title>
<polygon style="fill:white;stroke:black;" points="1514,163 1804,163 1804,43 1514,43 1514,163"/>
<text text-anchor="start" x="1522" y="60">{element_relationship|&#45; element_relationship_id </text>
<text text-anchor="start" x="1522" y="76">&#45; subject_id </text>
<text text-anchor="start" x="1522" y="92">&#45; type_id </text>
<text text-anchor="start" x="1522" y="108">&#45; object_id </text>
<text text-anchor="start" x="1522" y="124">&#45; value </text>
<text text-anchor="start" x="1522" y="140">&#45; rank </text>
<text text-anchor="middle" x="1659" y="156">}</text>
</g>
<g id="edge42" class="edge"><title>element&#45;&gt;element_relationship</title>
<path style="fill:none;stroke:black;" d="M1396,126C1428,123 1466,120 1504,117"/>
<polygon style="fill:black;stroke:black;" points="1504,114 1514,116 1504,120 1504,114"/>
</g>
<g id="node27" class="node"><title>elementresult_relationship</title>
<polygon style="fill:white;stroke:black;" points="470,156 821,156 821,36 470,36 470,156"/>
<text text-anchor="start" x="478" y="53">{elementresult_relationship|&#45; elementresult_relationship_id </text>
<text text-anchor="start" x="478" y="69">&#45; subject_id </text>
<text text-anchor="start" x="478" y="85">&#45; type_id </text>
<text text-anchor="start" x="478" y="101">&#45; object_id </text>
<text text-anchor="start" x="478" y="117">&#45; value </text>
<text text-anchor="start" x="478" y="133">&#45; rank </text>
<text text-anchor="middle" x="645" y="149">}</text>
</g>
<g id="edge46" class="edge"><title>elementresult&#45;&gt;elementresult_relationship</title>
<path style="fill:none;stroke:black;" d="M909,89C885,90 858,91 831,91"/>
<polygon style="fill:black;stroke:black;" points="831,94 821,91 831,87 831,94"/>
</g>
<g id="node28" class="node"><title>study</title>
<polygon style="fill:white;stroke:black;" points="1647,1851 1763,1851 1763,1731 1647,1731 1647,1851"/>
<text text-anchor="start" x="1655" y="1748">{study|&#45; study_id </text>
<text text-anchor="start" x="1655" y="1764">&#45; contact_id </text>
<text text-anchor="start" x="1655" y="1780">&#45; pub_id </text>
<text text-anchor="start" x="1655" y="1796">&#45; dbxref_id </text>
<text text-anchor="start" x="1655" y="1812">&#45; name </text>
<text text-anchor="start" x="1655" y="1828">&#45; description </text>
<text text-anchor="middle" x="1705" y="1844">}</text>
</g>
<g id="edge68" class="edge"><title>study&#45;&gt;study_assay</title>
<path style="fill:none;stroke:black;" d="M1694,1731C1679,1639 1648,1465 1633,1382"/>
<polygon style="fill:black;stroke:black;" points="1630,1382 1631,1372 1636,1381 1630,1382"/>
</g>
<g id="node30" class="node"><title>studydesign</title>
<polygon style="fill:white;stroke:black;" points="2022,1255 2211,1255 2211,1183 2022,1183 2022,1255"/>
<text text-anchor="start" x="2030" y="1200">{studydesign|&#45; studydesign_id </text>
<text text-anchor="start" x="2030" y="1216">&#45; study_id </text>
<text text-anchor="start" x="2030" y="1232">&#45; description </text>
<text text-anchor="middle" x="2116" y="1248">}</text>
</g>
<g id="edge70" class="edge"><title>study&#45;&gt;studydesign</title>
<path style="fill:none;stroke:black;" d="M1748,1731C1832,1615 2011,1365 2084,1263"/>
<polygon style="fill:black;stroke:black;" points="2081,1261 2090,1255 2087,1265 2081,1261"/>
</g>
<g id="node31" class="node"><title>studydesignprop</title>
<polygon style="fill:white;stroke:black;" points="2020,1800 2259,1800 2259,1696 2020,1696 2020,1800"/>
<text text-anchor="start" x="2028" y="1713">{studydesignprop|&#45; studydesignprop_id </text>
<text text-anchor="start" x="2028" y="1729">&#45; studydesign_id </text>
<text text-anchor="start" x="2028" y="1745">&#45; type_id </text>
<text text-anchor="start" x="2028" y="1761">&#45; value </text>
<text text-anchor="start" x="2028" y="1777">&#45; rank </text>
<text text-anchor="middle" x="2139" y="1793">}</text>
</g>
<g id="edge72" class="edge"><title>studydesign&#45;&gt;studydesignprop</title>
<path style="fill:none;stroke:black;" d="M2118,1255C2122,1344 2131,1574 2137,1686"/>
<polygon style="fill:black;stroke:black;" points="2141,1686 2137,1696 2134,1686 2141,1686"/>
</g>
<g id="node32" class="node"><title>studyfactor</title>
<polygon style="fill:white;stroke:black;" points="2069,788 2249,788 2249,684 2069,684 2069,788"/>
<text text-anchor="start" x="2077" y="701">{studyfactor|&#45; studyfactor_id </text>
<text text-anchor="start" x="2077" y="717">&#45; studydesign_id </text>
<text text-anchor="start" x="2077" y="733">&#45; type_id </text>
<text text-anchor="start" x="2077" y="749">&#45; name </text>
<text text-anchor="start" x="2077" y="765">&#45; description </text>
<text text-anchor="middle" x="2159" y="781">}</text>
</g>
<g id="edge74" class="edge"><title>studydesign&#45;&gt;studyfactor</title>
<path style="fill:none;stroke:black;" d="M2119,1183C2127,1101 2144,900 2153,798"/>
<polygon style="fill:black;stroke:black;" points="2150,798 2154,788 2156,798 2150,798"/>
</g>
<g id="edge76" class="edge"><title>studyfactor&#45;&gt;studyfactorvalue</title>
<path style="fill:none;stroke:black;" d="M2069,783C2007,816 1923,858 1853,894"/>
<polygon style="fill:black;stroke:black;" points="1854,897 1844,899 1851,891 1854,897"/>
</g>
</g>
</svg>
