<?xml version="1.0" encoding="UTF-8" standalone="no"?>
<!DOCTYPE svg PUBLIC "-//W3C//DTD SVG 1.0//EN"
 "http://www.w3.org/TR/2001/REC-SVG-20010904/DTD/svg10.dtd" [
 <!ATTLIST svg xmlns:xlink CDATA #FIXED "http://www.w3.org/1999/xlink">
]>
<!-- Generated by dot version 2.8 (Thu Sep 14 20:34:11 UTC 2006)
     For user: (scott) Scott Cain -->
<!-- Title: test Pages: 1 -->
<svg width="728pt" height="584pt"
 viewBox = "0 0 728 584"
 xmlns="http://www.w3.org/2000/svg" xmlns:xlink="http://www.w3.org/1999/xlink">
<g id="graph0" class="graph" style="font-family:Times-Roman;font-size:14.00;">
<title>test</title>
<polygon style="fill:white;stroke:white;" points="-2,586 -2,-2 730,-2 730,586 -2,586"/>
<!-- mageml -->
<g id="node1" class="node"><title>mageml</title>
<polygon style="fill:white;stroke:black;" points="409,514 453,514 453,492 409,492 409,514"/>
<text text-anchor="start" x="411" y="497" style="font-size:4.28pt;">{mageml|&#45; mageml_id </text>
<text text-anchor="start" x="411" y="502" style="font-size:4.28pt;">&#45; mage_package </text>
<text text-anchor="start" x="411" y="507" style="font-size:4.28pt;">&#45; mage_ml </text>
<text text-anchor="middle" x="431" y="512" style="font-size:4.28pt;">}</text>
</g>
<!-- magedocumentation -->
<g id="node2" class="node"><title>magedocumentation</title>
<polygon style="fill:white;stroke:black;" points="464,519 550,519 550,487 464,487 464,519"/>
<text text-anchor="start" x="466" y="492" style="font-size:4.28pt;">{magedocumentation|&#45; magedocumentation_id </text>
<text text-anchor="start" x="466" y="497" style="font-size:4.28pt;">&#45; mageml_id </text>
<text text-anchor="start" x="466" y="502" style="font-size:4.28pt;">&#45; tableinfo_id </text>
<text text-anchor="start" x="466" y="507" style="font-size:4.28pt;">&#45; row_id </text>
<text text-anchor="start" x="466" y="512" style="font-size:4.28pt;">&#45; mageidentifier </text>
<text text-anchor="middle" x="507" y="517" style="font-size:4.28pt;">}</text>
</g>
<!-- mageml&#45;&gt;magedocumentation -->
<g id="edge50" class="edge"><title>mageml&#45;&gt;magedocumentation</title>
<path style="fill:none;stroke:black;" d="M453,503C456,503 458,503 461,503"/>
<polygon style="fill:black;stroke:black;" points="461,502 464,503 461,504 461,502"/>
</g>
<!-- protocol -->
<g id="node3" class="node"><title>protocol</title>
<polygon style="fill:white;stroke:black;" points="326,318 372,318 372,266 326,266 326,318"/>
<text text-anchor="start" x="329" y="272" style="font-size:4.28pt;">{protocol|&#45; protocol_id </text>
<text text-anchor="start" x="329" y="277" style="font-size:4.28pt;">&#45; type_id </text>
<text text-anchor="start" x="329" y="281" style="font-size:4.28pt;">&#45; pub_id </text>
<text text-anchor="start" x="329" y="286" style="font-size:4.28pt;">&#45; dbxref_id </text>
<text text-anchor="start" x="329" y="291" style="font-size:4.28pt;">&#45; name </text>
<text text-anchor="start" x="329" y="296" style="font-size:4.28pt;">&#45; uri </text>
<text text-anchor="start" x="329" y="301" style="font-size:4.28pt;">&#45; protocoldescription </text>
<text text-anchor="start" x="329" y="306" style="font-size:4.28pt;">&#45; hardwaredescription </text>
<text text-anchor="start" x="329" y="311" style="font-size:4.28pt;">&#45; softwaredescription </text>
<text text-anchor="middle" x="349" y="316" style="font-size:4.28pt;">}</text>
</g>
<!-- protocolparam -->
<g id="node4" class="node"><title>protocolparam</title>
<polygon style="fill:white;stroke:black;" points="253,181 319,181 319,140 253,140 253,181"/>
<text text-anchor="start" x="255" y="145" style="font-size:4.28pt;">{protocolparam|&#45; protocolparam_id </text>
<text text-anchor="start" x="255" y="150" style="font-size:4.28pt;">&#45; protocol_id </text>
<text text-anchor="start" x="255" y="155" style="font-size:4.28pt;">&#45; name </text>
<text text-anchor="start" x="255" y="160" style="font-size:4.28pt;">&#45; datatype_id </text>
<text text-anchor="start" x="255" y="165" style="font-size:4.28pt;">&#45; unittype_id </text>
<text text-anchor="start" x="255" y="170" style="font-size:4.28pt;">&#45; value </text>
<text text-anchor="start" x="255" y="174" style="font-size:4.28pt;">&#45; rank </text>
<text text-anchor="middle" x="286" y="179" style="font-size:4.28pt;">}</text>
</g>
<!-- protocol&#45;&gt;protocolparam -->
<g id="edge58" class="edge"><title>protocol&#45;&gt;protocolparam</title>
<path style="fill:none;stroke:black;" d="M337,266C325,243 309,207 297,184"/>
<polygon style="fill:black;stroke:black;" points="296,185 296,181 298,184 296,185"/>
</g>
<!-- arraydesign -->
<g id="node6" class="node"><title>arraydesign</title>
<polygon style="fill:white;stroke:black;" points="348,218 406,218 406,122 348,122 348,218"/>
<text text-anchor="start" x="351" y="127" style="font-size:4.28pt;">{arraydesign|&#45; arraydesign_id </text>
<text text-anchor="start" x="351" y="132" style="font-size:4.28pt;">&#45; manufacturer_id </text>
<text text-anchor="start" x="351" y="137" style="font-size:4.28pt;">&#45; platformtype_id </text>
<text text-anchor="start" x="351" y="142" style="font-size:4.28pt;">&#45; substratetype_id </text>
<text text-anchor="start" x="351" y="147" style="font-size:4.28pt;">&#45; protocol_id </text>
<text text-anchor="start" x="351" y="152" style="font-size:4.28pt;">&#45; dbxref_id </text>
<text text-anchor="start" x="351" y="157" style="font-size:4.28pt;">&#45; name </text>
<text text-anchor="start" x="351" y="162" style="font-size:4.28pt;">&#45; version </text>
<text text-anchor="start" x="351" y="166" style="font-size:4.28pt;">&#45; description </text>
<text text-anchor="start" x="351" y="171" style="font-size:4.28pt;">&#45; array_dimensions </text>
<text text-anchor="start" x="351" y="176" style="font-size:4.28pt;">&#45; element_dimensions </text>
<text text-anchor="start" x="351" y="181" style="font-size:4.28pt;">&#45; num_of_elements </text>
<text text-anchor="start" x="351" y="186" style="font-size:4.28pt;">&#45; num_array_columns </text>
<text text-anchor="start" x="351" y="191" style="font-size:4.28pt;">&#45; num_array_rows </text>
<text text-anchor="start" x="351" y="196" style="font-size:4.28pt;">&#45; num_grid_columns </text>
<text text-anchor="start" x="351" y="201" style="font-size:4.28pt;">&#45; num_grid_rows </text>
<text text-anchor="start" x="351" y="206" style="font-size:4.28pt;">&#45; num_sub_columns </text>
<text text-anchor="start" x="351" y="210" style="font-size:4.28pt;">&#45; num_sub_rows </text>
<text text-anchor="middle" x="377" y="215" style="font-size:4.28pt;">}</text>
</g>
<!-- protocol&#45;&gt;arraydesign -->
<g id="edge54" class="edge"><title>protocol&#45;&gt;arraydesign</title>
<path style="fill:none;stroke:black;" d="M355,266C358,253 362,236 365,221"/>
<polygon style="fill:black;stroke:black;" points="364,220 366,218 366,221 364,220"/>
</g>
<!-- assay -->
<g id="node8" class="node"><title>assay</title>
<polygon style="fill:white;stroke:black;" points="416,320 458,320 458,264 416,264 416,320"/>
<text text-anchor="start" x="418" y="269" style="font-size:4.28pt;">{assay|&#45; assay_id </text>
<text text-anchor="start" x="418" y="274" style="font-size:4.28pt;">&#45; arraydesign_id </text>
<text text-anchor="start" x="418" y="279" style="font-size:4.28pt;">&#45; protocol_id </text>
<text text-anchor="start" x="418" y="284" style="font-size:4.28pt;">&#45; assaydate </text>
<text text-anchor="start" x="418" y="288" style="font-size:4.28pt;">&#45; arrayidentifier </text>
<text text-anchor="start" x="418" y="293" style="font-size:4.28pt;">&#45; arraybatchidentifier </text>
<text text-anchor="start" x="418" y="298" style="font-size:4.28pt;">&#45; operator_id </text>
<text text-anchor="start" x="418" y="303" style="font-size:4.28pt;">&#45; dbxref_id </text>
<text text-anchor="start" x="418" y="308" style="font-size:4.28pt;">&#45; name </text>
<text text-anchor="start" x="418" y="313" style="font-size:4.28pt;">&#45; description </text>
<text text-anchor="middle" x="437" y="318" style="font-size:4.28pt;">}</text>
</g>
<!-- protocol&#45;&gt;assay -->
<g id="edge56" class="edge"><title>protocol&#45;&gt;assay</title>
<path style="fill:none;stroke:black;" d="M372,292C384,292 400,292 413,292"/>
<polygon style="fill:black;stroke:black;" points="413,291 416,292 413,293 413,291"/>
</g>
<!-- treatment -->
<g id="node15" class="node"><title>treatment</title>
<polygon style="fill:white;stroke:black;" points="258,427 307,427 307,391 258,391 258,427"/>
<text text-anchor="start" x="261" y="396" style="font-size:4.28pt;">{treatment|&#45; treatment_id </text>
<text text-anchor="start" x="261" y="401" style="font-size:4.28pt;">&#45; rank </text>
<text text-anchor="start" x="261" y="406" style="font-size:4.28pt;">&#45; biomaterial_id </text>
<text text-anchor="start" x="261" y="411" style="font-size:4.28pt;">&#45; type_id </text>
<text text-anchor="start" x="261" y="415" style="font-size:4.28pt;">&#45; protocol_id </text>
<text text-anchor="start" x="261" y="420" style="font-size:4.28pt;">&#45; name </text>
<text text-anchor="middle" x="283" y="425" style="font-size:4.28pt;">}</text>
</g>
<!-- protocol&#45;&gt;treatment -->
<g id="edge62" class="edge"><title>protocol&#45;&gt;treatment</title>
<path style="fill:none;stroke:black;" d="M334,318C322,339 306,368 295,388"/>
<polygon style="fill:black;stroke:black;" points="295,388 293,391 294,388 295,388"/>
</g>
<!-- acquisition -->
<g id="node18" class="node"><title>acquisition</title>
<polygon style="fill:white;stroke:black;" points="240,300 295,300 295,259 240,259 240,300"/>
<text text-anchor="start" x="243" y="264" style="font-size:4.28pt;">{acquisition|&#45; acquisition_id </text>
<text text-anchor="start" x="243" y="269" style="font-size:4.28pt;">&#45; assay_id </text>
<text text-anchor="start" x="243" y="274" style="font-size:4.28pt;">&#45; protocol_id </text>
<text text-anchor="start" x="243" y="279" style="font-size:4.28pt;">&#45; channel_id </text>
<text text-anchor="start" x="243" y="284" style="font-size:4.28pt;">&#45; acquisitiondate </text>
<text text-anchor="start" x="243" y="288" style="font-size:4.28pt;">&#45; name </text>
<text text-anchor="start" x="243" y="293" style="font-size:4.28pt;">&#45; uri </text>
<text text-anchor="middle" x="267" y="298" style="font-size:4.28pt;">}</text>
</g>
<!-- protocol&#45;&gt;acquisition -->
<g id="edge52" class="edge"><title>protocol&#45;&gt;acquisition</title>
<path style="fill:none;stroke:black;" d="M326,289C318,287 307,286 298,284"/>
<polygon style="fill:black;stroke:black;" points="298,285 295,284 298,283 298,285"/>
</g>
<!-- quantification -->
<g id="node21" class="node"><title>quantification</title>
<polygon style="fill:white;stroke:black;" points="147,199 211,199 211,152 147,152 147,199"/>
<text text-anchor="start" x="150" y="157" style="font-size:4.28pt;">{quantification|&#45; quantification_id </text>
<text text-anchor="start" x="150" y="162" style="font-size:4.28pt;">&#45; acquisition_id </text>
<text text-anchor="start" x="150" y="167" style="font-size:4.28pt;">&#45; operator_id </text>
<text text-anchor="start" x="150" y="172" style="font-size:4.28pt;">&#45; protocol_id </text>
<text text-anchor="start" x="150" y="177" style="font-size:4.28pt;">&#45; analysis_id </text>
<text text-anchor="start" x="150" y="182" style="font-size:4.28pt;">&#45; quantificationdate </text>
<text text-anchor="start" x="150" y="187" style="font-size:4.28pt;">&#45; name </text>
<text text-anchor="start" x="150" y="192" style="font-size:4.28pt;">&#45; uri </text>
<text text-anchor="middle" x="179" y="196" style="font-size:4.28pt;">}</text>
</g>
<!-- protocol&#45;&gt;quantification -->
<g id="edge60" class="edge"><title>protocol&#45;&gt;quantification</title>
<path style="fill:none;stroke:black;" d="M326,277C297,257 248,222 214,199"/>
<polygon style="fill:black;stroke:black;" points="213,200 211,198 214,199 213,200"/>
</g>
<!-- channel -->
<g id="node5" class="node"><title>channel</title>
<polygon style="fill:white;stroke:black;" points="158,444 201,444 201,422 158,422 158,444"/>
<text text-anchor="start" x="160" y="427" style="font-size:4.28pt;">{channel|&#45; channel_id </text>
<text text-anchor="start" x="160" y="432" style="font-size:4.28pt;">&#45; name </text>
<text text-anchor="start" x="160" y="437" style="font-size:4.28pt;">&#45; definition </text>
<text text-anchor="middle" x="179" y="442" style="font-size:4.28pt;">}</text>
</g>
<!-- assay_biomaterial -->
<g id="node17" class="node"><title>assay_biomaterial</title>
<polygon style="fill:white;stroke:black;" points="336,430 414,430 414,399 336,399 336,430"/>
<text text-anchor="start" x="338" y="404" style="font-size:4.28pt;">{assay_biomaterial|&#45; assay_biomaterial_id </text>
<text text-anchor="start" x="338" y="409" style="font-size:4.28pt;">&#45; assay_id </text>
<text text-anchor="start" x="338" y="414" style="font-size:4.28pt;">&#45; biomaterial_id </text>
<text text-anchor="start" x="338" y="418" style="font-size:4.28pt;">&#45; channel_id </text>
<text text-anchor="start" x="338" y="423" style="font-size:4.28pt;">&#45; rank </text>
<text text-anchor="middle" x="375" y="428" style="font-size:4.28pt;">}</text>
</g>
<!-- channel&#45;&gt;assay_biomaterial -->
<g id="edge42" class="edge"><title>channel&#45;&gt;assay_biomaterial</title>
<path style="fill:none;stroke:black;" d="M201,431C232,428 292,422 333,418"/>
<polygon style="fill:black;stroke:black;" points="333,418 336,418 333,419 333,418"/>
</g>
<!-- channel&#45;&gt;acquisition -->
<g id="edge40" class="edge"><title>channel&#45;&gt;acquisition</title>
<path style="fill:none;stroke:black;" d="M186,422C200,397 235,337 254,303"/>
<polygon style="fill:black;stroke:black;" points="253,303 255,300 255,303 253,303"/>
</g>
<!-- arraydesignprop -->
<g id="node7" class="node"><title>arraydesignprop</title>
<polygon style="fill:white;stroke:black;" points="501,43 574,43 574,11 501,11 501,43"/>
<text text-anchor="start" x="504" y="17" style="font-size:4.28pt;">{arraydesignprop|&#45; arraydesignprop_id </text>
<text text-anchor="start" x="504" y="21" style="font-size:4.28pt;">&#45; arraydesign_id </text>
<text text-anchor="start" x="504" y="26" style="font-size:4.28pt;">&#45; type_id </text>
<text text-anchor="start" x="504" y="31" style="font-size:4.28pt;">&#45; value </text>
<text text-anchor="start" x="504" y="36" style="font-size:4.28pt;">&#45; rank </text>
<text text-anchor="middle" x="538" y="41" style="font-size:4.28pt;">}</text>
</g>
<!-- arraydesign&#45;&gt;arraydesignprop -->
<g id="edge8" class="edge"><title>arraydesign&#45;&gt;arraydesignprop</title>
<path style="fill:none;stroke:black;" d="M406,144C438,116 489,70 517,45"/>
<polygon style="fill:black;stroke:black;" points="517,44 520,43 518,46 517,44"/>
</g>
<!-- arraydesign&#45;&gt;assay -->
<g id="edge10" class="edge"><title>arraydesign&#45;&gt;assay</title>
<path style="fill:none;stroke:black;" d="M400,218C407,232 415,248 422,261"/>
<polygon style="fill:black;stroke:black;" points="423,260 423,264 421,261 423,260"/>
</g>
<!-- element -->
<g id="node25" class="node"><title>element</title>
<polygon style="fill:white;stroke:black;" points="301,43 345,43 345,12 301,12 301,43"/>
<text text-anchor="start" x="304" y="17" style="font-size:4.28pt;">{element|&#45; element_id </text>
<text text-anchor="start" x="304" y="22" style="font-size:4.28pt;">&#45; feature_id </text>
<text text-anchor="start" x="304" y="27" style="font-size:4.28pt;">&#45; arraydesign_id </text>
<text text-anchor="start" x="304" y="32" style="font-size:4.28pt;">&#45; type_id </text>
<text text-anchor="start" x="304" y="36" style="font-size:4.28pt;">&#45; dbxref_id </text>
<text text-anchor="middle" x="323" y="41" style="font-size:4.28pt;">}</text>
</g>
<!-- arraydesign&#45;&gt;element -->
<g id="edge12" class="edge"><title>arraydesign&#45;&gt;element</title>
<path style="fill:none;stroke:black;" d="M359,122C349,96 338,66 330,46"/>
<polygon style="fill:black;stroke:black;" points="329,47 329,43 331,46 329,47"/>
</g>
<!-- assayprop -->
<g id="node9" class="node"><title>assayprop</title>
<polygon style="fill:white;stroke:black;" points="441,429 492,429 492,397 441,397 441,429"/>
<text text-anchor="start" x="444" y="402" style="font-size:4.28pt;">{assayprop|&#45; assayprop_id </text>
<text text-anchor="start" x="444" y="407" style="font-size:4.28pt;">&#45; assay_id </text>
<text text-anchor="start" x="444" y="412" style="font-size:4.28pt;">&#45; type_id </text>
<text text-anchor="start" x="444" y="417" style="font-size:4.28pt;">&#45; value </text>
<text text-anchor="start" x="444" y="422" style="font-size:4.28pt;">&#45; rank </text>
<text text-anchor="middle" x="467" y="426" style="font-size:4.28pt;">}</text>
</g>
<!-- assay&#45;&gt;assayprop -->
<g id="edge20" class="edge"><title>assay&#45;&gt;assayprop</title>
<path style="fill:none;stroke:black;" d="M444,320C449,343 457,374 462,394"/>
<polygon style="fill:black;stroke:black;" points="463,393 463,397 461,394 463,393"/>
</g>
<!-- assay_project -->
<g id="node10" class="node"><title>assay_project</title>
<polygon style="fill:white;stroke:black;" points="538,429 601,429 601,407 538,407 538,429"/>
<text text-anchor="start" x="540" y="412" style="font-size:4.28pt;">{assay_project|&#45; assay_project_id </text>
<text text-anchor="start" x="540" y="417" style="font-size:4.28pt;">&#45; assay_id </text>
<text text-anchor="start" x="540" y="422" style="font-size:4.28pt;">&#45; project_id </text>
<text text-anchor="middle" x="570" y="427" style="font-size:4.28pt;">}</text>
</g>
<!-- assay&#45;&gt;assay_project -->
<g id="edge18" class="edge"><title>assay&#45;&gt;assay_project</title>
<path style="fill:none;stroke:black;" d="M458,312C486,338 532,383 555,405"/>
<polygon style="fill:black;stroke:black;" points="556,404 558,407 555,406 556,404"/>
</g>
<!-- assay&#45;&gt;assay_biomaterial -->
<g id="edge16" class="edge"><title>assay&#45;&gt;assay_biomaterial</title>
<path style="fill:none;stroke:black;" d="M423,320C411,343 395,376 384,396"/>
<polygon style="fill:black;stroke:black;" points="385,396 383,399 384,396 385,396"/>
</g>
<!-- assay&#45;&gt;acquisition -->
<g id="edge14" class="edge"><title>assay&#45;&gt;acquisition</title>
<path style="fill:none;stroke:black;" d="M416,290C386,288 332,284 298,282"/>
<polygon style="fill:black;stroke:black;" points="298,283 295,281 298,281 298,283"/>
</g>
<!-- control -->
<g id="node24" class="node"><title>control</title>
<polygon style="fill:white;stroke:black;" points="447,195 488,195 488,148 447,148 447,195"/>
<text text-anchor="start" x="450" y="154" style="font-size:4.28pt;">{control|&#45; control_id </text>
<text text-anchor="start" x="450" y="158" style="font-size:4.28pt;">&#45; type_id </text>
<text text-anchor="start" x="450" y="163" style="font-size:4.28pt;">&#45; assay_id </text>
<text text-anchor="start" x="450" y="168" style="font-size:4.28pt;">&#45; tableinfo_id </text>
<text text-anchor="start" x="450" y="173" style="font-size:4.28pt;">&#45; row_id </text>
<text text-anchor="start" x="450" y="178" style="font-size:4.28pt;">&#45; name </text>
<text text-anchor="start" x="450" y="183" style="font-size:4.28pt;">&#45; value </text>
<text text-anchor="start" x="450" y="188" style="font-size:4.28pt;">&#45; rank </text>
<text text-anchor="middle" x="468" y="193" style="font-size:4.28pt;">}</text>
</g>
<!-- assay&#45;&gt;control -->
<g id="edge22" class="edge"><title>assay&#45;&gt;control</title>
<path style="fill:none;stroke:black;" d="M444,264C449,244 456,217 461,198"/>
<polygon style="fill:black;stroke:black;" points="460,198 462,195 462,198 460,198"/>
</g>
<!-- study_assay -->
<g id="node30" class="node"><title>study_assay</title>
<polygon style="fill:white;stroke:black;" points="541,177 599,177 599,155 541,155 541,177"/>
<text text-anchor="start" x="544" y="161" style="font-size:4.28pt;">{study_assay|&#45; study_assay_id </text>
<text text-anchor="start" x="544" y="166" style="font-size:4.28pt;">&#45; study_id </text>
<text text-anchor="start" x="544" y="170" style="font-size:4.28pt;">&#45; assay_id </text>
<text text-anchor="middle" x="570" y="175" style="font-size:4.28pt;">}</text>
</g>
<!-- assay&#45;&gt;study_assay -->
<g id="edge24" class="edge"><title>assay&#45;&gt;study_assay</title>
<path style="fill:none;stroke:black;" d="M458,272C486,246 533,202 556,180"/>
<polygon style="fill:black;stroke:black;" points="555,179 559,177 557,180 555,179"/>
</g>
<!-- studyfactorvalue -->
<g id="node34" class="node"><title>studyfactorvalue</title>
<polygon style="fill:white;stroke:black;" points="510,311 584,311 584,274 510,274 510,311"/>
<text text-anchor="start" x="512" y="279" style="font-size:4.28pt;">{studyfactorvalue|&#45; studyfactorvalue_id </text>
<text text-anchor="start" x="512" y="284" style="font-size:4.28pt;">&#45; studyfactor_id </text>
<text text-anchor="start" x="512" y="289" style="font-size:4.28pt;">&#45; assay_id </text>
<text text-anchor="start" x="512" y="294" style="font-size:4.28pt;">&#45; factorvalue </text>
<text text-anchor="start" x="512" y="299" style="font-size:4.28pt;">&#45; name </text>
<text text-anchor="start" x="512" y="304" style="font-size:4.28pt;">&#45; rank </text>
<text text-anchor="middle" x="547" y="309" style="font-size:4.28pt;">}</text>
</g>
<!-- assay&#45;&gt;studyfactorvalue -->
<g id="edge26" class="edge"><title>assay&#45;&gt;studyfactorvalue</title>
<path style="fill:none;stroke:black;" d="M458,292C472,292 490,292 507,292"/>
<polygon style="fill:black;stroke:black;" points="507,291 510,292 507,293 507,291"/>
</g>
<!-- biomaterial -->
<g id="node11" class="node"><title>biomaterial</title>
<polygon style="fill:white;stroke:black;" points="297,570 353,570 353,533 297,533 297,570"/>
<text text-anchor="start" x="299" y="538" style="font-size:4.28pt;">{biomaterial|&#45; biomaterial_id </text>
<text text-anchor="start" x="299" y="543" style="font-size:4.28pt;">&#45; taxon_id </text>
<text text-anchor="start" x="299" y="548" style="font-size:4.28pt;">&#45; biosourceprovider_id </text>
<text text-anchor="start" x="299" y="553" style="font-size:4.28pt;">&#45; dbxref_id </text>
<text text-anchor="start" x="299" y="558" style="font-size:4.28pt;">&#45; name </text>
<text text-anchor="start" x="299" y="563" style="font-size:4.28pt;">&#45; description </text>
<text text-anchor="middle" x="325" y="567" style="font-size:4.28pt;">}</text>
</g>
<!-- biomaterial_relationship -->
<g id="node12" class="node"><title>biomaterial_relationship</title>
<polygon style="fill:white;stroke:black;" points="488,570 589,570 589,543 488,543 488,570"/>
<text text-anchor="start" x="490" y="548" style="font-size:4.28pt;">{biomaterial_relationship|&#45; biomaterial_relationship_id </text>
<text text-anchor="start" x="490" y="553" style="font-size:4.28pt;">&#45; subject_id </text>
<text text-anchor="start" x="490" y="558" style="font-size:4.28pt;">&#45; type_id </text>
<text text-anchor="start" x="490" y="563" style="font-size:4.28pt;">&#45; object_id </text>
<text text-anchor="middle" x="538" y="568" style="font-size:4.28pt;">}</text>
</g>
<!-- biomaterial&#45;&gt;biomaterial_relationship -->
<g id="edge32" class="edge"><title>biomaterial&#45;&gt;biomaterial_relationship</title>
<path style="fill:none;stroke:black;" d="M353,552C386,553 443,554 485,556"/>
<polygon style="fill:black;stroke:black;" points="485,554 488,556 485,556 485,554"/>
</g>
<!-- biomaterialprop -->
<g id="node13" class="node"><title>biomaterialprop</title>
<polygon style="fill:white;stroke:black;" points="178,575 250,575 250,544 178,544 178,575"/>
<text text-anchor="start" x="180" y="549" style="font-size:4.28pt;">{biomaterialprop|&#45; biomaterialprop_id </text>
<text text-anchor="start" x="180" y="554" style="font-size:4.28pt;">&#45; biomaterial_id </text>
<text text-anchor="start" x="180" y="559" style="font-size:4.28pt;">&#45; type_id </text>
<text text-anchor="start" x="180" y="563" style="font-size:4.28pt;">&#45; value </text>
<text text-anchor="start" x="180" y="568" style="font-size:4.28pt;">&#45; rank </text>
<text text-anchor="middle" x="214" y="573" style="font-size:4.28pt;">}</text>
</g>
<!-- biomaterial&#45;&gt;biomaterialprop -->
<g id="edge36" class="edge"><title>biomaterial&#45;&gt;biomaterialprop</title>
<path style="fill:none;stroke:black;" d="M297,553C283,554 267,556 253,556"/>
<polygon style="fill:black;stroke:black;" points="253,557 250,557 253,556 253,557"/>
</g>
<!-- biomaterial_dbxref -->
<g id="node14" class="node"><title>biomaterial_dbxref</title>
<polygon style="fill:white;stroke:black;" points="26,565 109,565 109,543 26,543 26,565"/>
<text text-anchor="start" x="28" y="548" style="font-size:4.28pt;">{biomaterial_dbxref|&#45; biomaterial_dbxref_id </text>
<text text-anchor="start" x="28" y="553" style="font-size:4.28pt;">&#45; biomaterial_id </text>
<text text-anchor="start" x="28" y="558" style="font-size:4.28pt;">&#45; dbxref_id </text>
<text text-anchor="middle" x="67" y="563" style="font-size:4.28pt;">}</text>
</g>
<!-- biomaterial&#45;&gt;biomaterial_dbxref -->
<g id="edge30" class="edge"><title>biomaterial&#45;&gt;biomaterial_dbxref</title>
<path style="fill:none;stroke:black;" d="M297,552C252,552 165,553 112,554"/>
<polygon style="fill:black;stroke:black;" points="112,555 109,554 112,552 112,555"/>
</g>
<!-- biomaterial&#45;&gt;treatment -->
<g id="edge38" class="edge"><title>biomaterial&#45;&gt;treatment</title>
<path style="fill:none;stroke:black;" d="M319,533C311,507 297,458 289,430"/>
<polygon style="fill:black;stroke:black;" points="288,431 288,427 290,430 288,431"/>
</g>
<!-- biomaterial_treatment -->
<g id="node16" class="node"><title>biomaterial_treatment</title>
<polygon style="fill:white;stroke:black;" points="379,571 472,571 472,535 379,535 379,571"/>
<text text-anchor="start" x="382" y="540" style="font-size:4.28pt;">{biomaterial_treatment|&#45; biomaterial_treatment_id </text>
<text text-anchor="start" x="382" y="545" style="font-size:4.28pt;">&#45; biomaterial_id </text>
<text text-anchor="start" x="382" y="550" style="font-size:4.28pt;">&#45; treatment_id </text>
<text text-anchor="start" x="382" y="555" style="font-size:4.28pt;">&#45; unittype_id </text>
<text text-anchor="start" x="382" y="559" style="font-size:4.28pt;">&#45; value </text>
<text text-anchor="start" x="382" y="564" style="font-size:4.28pt;">&#45; rank </text>
<text text-anchor="middle" x="425" y="569" style="font-size:4.28pt;">}</text>
</g>
<!-- biomaterial&#45;&gt;biomaterial_treatment -->
<g id="edge34" class="edge"><title>biomaterial&#45;&gt;biomaterial_treatment</title>
<path style="fill:none;stroke:black;" d="M353,552C360,552 368,552 376,552"/>
<polygon style="fill:black;stroke:black;" points="376,551 379,552 376,553 376,551"/>
</g>
<!-- biomaterial&#45;&gt;assay_biomaterial -->
<g id="edge28" class="edge"><title>biomaterial&#45;&gt;assay_biomaterial</title>
<path style="fill:none;stroke:black;" d="M331,533C341,507 358,460 368,433"/>
<polygon style="fill:black;stroke:black;" points="367,433 369,430 369,434 367,433"/>
</g>
<!-- treatment&#45;&gt;biomaterial_treatment -->
<g id="edge80" class="edge"><title>treatment&#45;&gt;biomaterial_treatment</title>
<path style="fill:none;stroke:black;" d="M301,427C328,454 377,504 405,533"/>
<polygon style="fill:black;stroke:black;" points="406,532 407,535 404,533 406,532"/>
</g>
<!-- acquisitionprop -->
<g id="node19" class="node"><title>acquisitionprop</title>
<polygon style="fill:white;stroke:black;" points="17,427 87,427 87,396 17,396 17,427"/>
<text text-anchor="start" x="19" y="401" style="font-size:4.28pt;">{acquisitionprop|&#45; acquisitionprop_id </text>
<text text-anchor="start" x="19" y="406" style="font-size:4.28pt;">&#45; acquisition_id </text>
<text text-anchor="start" x="19" y="411" style="font-size:4.28pt;">&#45; type_id </text>
<text text-anchor="start" x="19" y="415" style="font-size:4.28pt;">&#45; value </text>
<text text-anchor="start" x="19" y="420" style="font-size:4.28pt;">&#45; rank </text>
<text text-anchor="middle" x="51" y="425" style="font-size:4.28pt;">}</text>
</g>
<!-- acquisition&#45;&gt;acquisitionprop -->
<g id="edge4" class="edge"><title>acquisition&#45;&gt;acquisitionprop</title>
<path style="fill:none;stroke:black;" d="M240,296C199,321 122,368 80,394"/>
<polygon style="fill:black;stroke:black;" points="80,395 77,396 80,393 80,395"/>
</g>
<!-- acquisition_relationship -->
<g id="node20" class="node"><title>acquisition_relationship</title>
<polygon style="fill:white;stroke:black;" points="128,329 227,329 227,292 128,292 128,329"/>
<text text-anchor="start" x="131" y="297" style="font-size:4.28pt;">{acquisition_relationship|&#45; acquisition_relationship_id </text>
<text text-anchor="start" x="131" y="302" style="font-size:4.28pt;">&#45; subject_id </text>
<text text-anchor="start" x="131" y="307" style="font-size:4.28pt;">&#45; type_id </text>
<text text-anchor="start" x="131" y="312" style="font-size:4.28pt;">&#45; object_id </text>
<text text-anchor="start" x="131" y="317" style="font-size:4.28pt;">&#45; value </text>
<text text-anchor="start" x="131" y="322" style="font-size:4.28pt;">&#45; rank </text>
<text text-anchor="middle" x="178" y="326" style="font-size:4.28pt;">}</text>
</g>
<!-- acquisition&#45;&gt;acquisition_relationship -->
<g id="edge2" class="edge"><title>acquisition&#45;&gt;acquisition_relationship</title>
<path style="fill:none;stroke:black;" d="M240,289C237,290 234,291 230,292"/>
<polygon style="fill:black;stroke:black;" points="231,293 227,293 230,292 231,293"/>
</g>
<!-- acquisition&#45;&gt;quantification -->
<g id="edge6" class="edge"><title>acquisition&#45;&gt;quantification</title>
<path style="fill:none;stroke:black;" d="M250,259C236,242 216,219 201,201"/>
<polygon style="fill:black;stroke:black;" points="200,202 199,199 202,200 200,202"/>
</g>
<!-- quantificationprop -->
<g id="node22" class="node"><title>quantificationprop</title>
<polygon style="fill:white;stroke:black;" points="11,179 91,179 91,147 11,147 11,179"/>
<text text-anchor="start" x="14" y="152" style="font-size:4.28pt;">{quantificationprop|&#45; quantificationprop_id </text>
<text text-anchor="start" x="14" y="157" style="font-size:4.28pt;">&#45; quantification_id </text>
<text text-anchor="start" x="14" y="162" style="font-size:4.28pt;">&#45; type_id </text>
<text text-anchor="start" x="14" y="167" style="font-size:4.28pt;">&#45; value </text>
<text text-anchor="start" x="14" y="172" style="font-size:4.28pt;">&#45; rank </text>
<text text-anchor="middle" x="51" y="177" style="font-size:4.28pt;">}</text>
</g>
<!-- quantification&#45;&gt;quantificationprop -->
<g id="edge68" class="edge"><title>quantification&#45;&gt;quantificationprop</title>
<path style="fill:none;stroke:black;" d="M147,172C131,171 112,169 94,167"/>
<polygon style="fill:black;stroke:black;" points="94,168 91,167 94,166 94,168"/>
</g>
<!-- quantification_relationship -->
<g id="node23" class="node"><title>quantification_relationship</title>
<polygon style="fill:white;stroke:black;" points="4,299 113,299 113,273 4,273 4,299"/>
<text text-anchor="start" x="7" y="278" style="font-size:4.28pt;">{quantification_relationship|&#45; quantification_relationship_id </text>
<text text-anchor="start" x="7" y="283" style="font-size:4.28pt;">&#45; subject_id </text>
<text text-anchor="start" x="7" y="288" style="font-size:4.28pt;">&#45; type_id </text>
<text text-anchor="start" x="7" y="292" style="font-size:4.28pt;">&#45; object_id </text>
<text text-anchor="middle" x="59" y="297" style="font-size:4.28pt;">}</text>
</g>
<!-- quantification&#45;&gt;quantification_relationship -->
<g id="edge66" class="edge"><title>quantification&#45;&gt;quantification_relationship</title>
<path style="fill:none;stroke:black;" d="M154,199C130,220 96,252 76,270"/>
<polygon style="fill:black;stroke:black;" points="76,271 73,273 75,270 76,271"/>
</g>
<!-- elementresult -->
<g id="node26" class="node"><title>elementresult</title>
<polygon style="fill:white;stroke:black;" points="178,44 241,44 241,17 178,17 178,44"/>
<text text-anchor="start" x="180" y="23" style="font-size:4.28pt;">{elementresult|&#45; elementresult_id </text>
<text text-anchor="start" x="180" y="28" style="font-size:4.28pt;">&#45; element_id </text>
<text text-anchor="start" x="180" y="32" style="font-size:4.28pt;">&#45; quantification_id </text>
<text text-anchor="start" x="180" y="37" style="font-size:4.28pt;">&#45; signal </text>
<text text-anchor="middle" x="210" y="42" style="font-size:4.28pt;">}</text>
</g>
<!-- quantification&#45;&gt;elementresult -->
<g id="edge64" class="edge"><title>quantification&#45;&gt;elementresult</title>
<path style="fill:none;stroke:black;" d="M184,152C190,123 201,73 206,47"/>
<polygon style="fill:black;stroke:black;" points="205,47 207,44 207,47 205,47"/>
</g>
<!-- element&#45;&gt;elementresult -->
<g id="edge46" class="edge"><title>element&#45;&gt;elementresult</title>
<path style="fill:none;stroke:black;" d="M301,28C285,29 263,29 244,30"/>
<polygon style="fill:black;stroke:black;" points="244,31 241,30 244,29 244,31"/>
</g>
<!-- element_relationship -->
<g id="node27" class="node"><title>element_relationship</title>
<polygon style="fill:white;stroke:black;" points="381,50 469,50 469,13 381,13 381,50"/>
<text text-anchor="start" x="383" y="18" style="font-size:4.28pt;">{element_relationship|&#45; element_relationship_id </text>
<text text-anchor="start" x="383" y="23" style="font-size:4.28pt;">&#45; subject_id </text>
<text text-anchor="start" x="383" y="28" style="font-size:4.28pt;">&#45; type_id </text>
<text text-anchor="start" x="383" y="33" style="font-size:4.28pt;">&#45; object_id </text>
<text text-anchor="start" x="383" y="38" style="font-size:4.28pt;">&#45; value </text>
<text text-anchor="start" x="383" y="43" style="font-size:4.28pt;">&#45; rank </text>
<text text-anchor="middle" x="425" y="48" style="font-size:4.28pt;">}</text>
</g>
<!-- element&#45;&gt;element_relationship -->
<g id="edge44" class="edge"><title>element&#45;&gt;element_relationship</title>
<path style="fill:none;stroke:black;" d="M345,28C355,29 366,29 377,30"/>
<polygon style="fill:black;stroke:black;" points="377,29 381,30 377,31 377,29"/>
</g>
<!-- elementresult_relationship -->
<g id="node28" class="node"><title>elementresult_relationship</title>
<polygon style="fill:white;stroke:black;" points="15,46 122,46 122,9 15,9 15,46"/>
<text text-anchor="start" x="17" y="14" style="font-size:4.28pt;">{elementresult_relationship|&#45; elementresult_relationship_id </text>
<text text-anchor="start" x="17" y="19" style="font-size:4.28pt;">&#45; subject_id </text>
<text text-anchor="start" x="17" y="24" style="font-size:4.28pt;">&#45; type_id </text>
<text text-anchor="start" x="17" y="29" style="font-size:4.28pt;">&#45; object_id </text>
<text text-anchor="start" x="17" y="34" style="font-size:4.28pt;">&#45; value </text>
<text text-anchor="start" x="17" y="39" style="font-size:4.28pt;">&#45; rank </text>
<text text-anchor="middle" x="69" y="44" style="font-size:4.28pt;">}</text>
</g>
<!-- elementresult&#45;&gt;elementresult_relationship -->
<g id="edge48" class="edge"><title>elementresult&#45;&gt;elementresult_relationship</title>
<path style="fill:none;stroke:black;" d="M178,30C162,30 143,29 125,29"/>
<polygon style="fill:black;stroke:black;" points="125,30 122,29 125,28 125,30"/>
</g>
<!-- study -->
<g id="node29" class="node"><title>study</title>
<polygon style="fill:white;stroke:black;" points="662,559 697,559 697,522 662,522 662,559"/>
<text text-anchor="start" x="664" y="527" style="font-size:4.28pt;">{study|&#45; study_id </text>
<text text-anchor="start" x="664" y="532" style="font-size:4.28pt;">&#45; contact_id </text>
<text text-anchor="start" x="664" y="537" style="font-size:4.28pt;">&#45; pub_id </text>
<text text-anchor="start" x="664" y="542" style="font-size:4.28pt;">&#45; dbxref_id </text>
<text text-anchor="start" x="664" y="547" style="font-size:4.28pt;">&#45; name </text>
<text text-anchor="start" x="664" y="552" style="font-size:4.28pt;">&#45; description </text>
<text text-anchor="middle" x="680" y="557" style="font-size:4.28pt;">}</text>
</g>
<!-- study&#45;&gt;study_assay -->
<g id="edge70" class="edge"><title>study&#45;&gt;study_assay</title>
<path style="fill:none;stroke:black;" d="M674,522C655,457 591,238 574,181"/>
<polygon style="fill:black;stroke:black;" points="574,181 574,177 575,180 574,181"/>
</g>
<!-- studydesign -->
<g id="node31" class="node"><title>studydesign</title>
<polygon style="fill:white;stroke:black;" points="658,380 715,380 715,358 658,358 658,380"/>
<text text-anchor="start" x="660" y="363" style="font-size:4.28pt;">{studydesign|&#45; studydesign_id </text>
<text text-anchor="start" x="660" y="368" style="font-size:4.28pt;">&#45; study_id </text>
<text text-anchor="start" x="660" y="373" style="font-size:4.28pt;">&#45; description </text>
<text text-anchor="middle" x="686" y="378" style="font-size:4.28pt;">}</text>
</g>
<!-- study&#45;&gt;studydesign -->
<g id="edge72" class="edge"><title>study&#45;&gt;studydesign</title>
<path style="fill:none;stroke:black;" d="M680,522C682,488 685,414 686,383"/>
<polygon style="fill:black;stroke:black;" points="685,383 686,380 687,383 685,383"/>
</g>
<!-- studydesignprop -->
<g id="node32" class="node"><title>studydesignprop</title>
<polygon style="fill:white;stroke:black;" points="650,231 724,231 724,199 650,199 650,231"/>
<text text-anchor="start" x="653" y="204" style="font-size:4.28pt;">{studydesignprop|&#45; studydesignprop_id </text>
<text text-anchor="start" x="653" y="209" style="font-size:4.28pt;">&#45; studydesign_id </text>
<text text-anchor="start" x="653" y="214" style="font-size:4.28pt;">&#45; type_id </text>
<text text-anchor="start" x="653" y="219" style="font-size:4.28pt;">&#45; value </text>
<text text-anchor="start" x="653" y="224" style="font-size:4.28pt;">&#45; rank </text>
<text text-anchor="middle" x="687" y="229" style="font-size:4.28pt;">}</text>
</g>
<!-- studydesign&#45;&gt;studydesignprop -->
<g id="edge74" class="edge"><title>studydesign&#45;&gt;studydesignprop</title>
<path style="fill:none;stroke:black;" d="M686,358C687,332 687,266 687,234"/>
<polygon style="fill:black;stroke:black;" points="686,234 687,231 688,234 686,234"/>
</g>
<!-- studyfactor -->
<g id="node33" class="node"><title>studyfactor</title>
<polygon style="fill:white;stroke:black;" points="652,59 707,59 707,27 652,27 652,59"/>
<text text-anchor="start" x="654" y="32" style="font-size:4.28pt;">{studyfactor|&#45; studyfactor_id </text>
<text text-anchor="start" x="654" y="37" style="font-size:4.28pt;">&#45; studydesign_id </text>
<text text-anchor="start" x="654" y="42" style="font-size:4.28pt;">&#45; type_id </text>
<text text-anchor="start" x="654" y="47" style="font-size:4.28pt;">&#45; name </text>
<text text-anchor="start" x="654" y="52" style="font-size:4.28pt;">&#45; description </text>
<text text-anchor="middle" x="679" y="57" style="font-size:4.28pt;">}</text>
</g>
<!-- studydesign&#45;&gt;studyfactor -->
<g id="edge76" class="edge"><title>studydesign&#45;&gt;studyfactor</title>
<path style="fill:none;stroke:black;" d="M686,358C685,311 681,123 680,62"/>
<polygon style="fill:black;stroke:black;" points="679,62 680,59 681,62 679,62"/>
</g>
<!-- studyfactor&#45;&gt;studyfactorvalue -->
<g id="edge78" class="edge"><title>studyfactor&#45;&gt;studyfactorvalue</title>
<path style="fill:none;stroke:black;" d="M671,59C648,103 584,222 558,271"/>
<polygon style="fill:black;stroke:black;" points="559,272 556,274 557,271 559,272"/>
</g>
</g>
</svg>
