<?xml version="1.0" encoding="UTF-8" standalone="no"?>
<!DOCTYPE svg PUBLIC "-//W3C//DTD SVG 1.0//EN"
 "http://www.w3.org/TR/2001/REC-SVG-20010904/DTD/svg10.dtd" [
 <!ATTLIST svg xmlns:xlink CDATA #FIXED "http://www.w3.org/1999/xlink">
]>
<!-- Generated by dot version 2.8 (Thu Sep 14 20:34:11 UTC 2006)
     For user: (scott) Scott Cain -->
<!-- Title: test Pages: 1 -->
<svg width="728pt" height="584pt"
 viewBox = "0 0 728 584"
 xmlns="http://www.w3.org/2000/svg" xmlns:xlink="http://www.w3.org/1999/xlink">
<g id="graph0" class="graph" style="font-family:Times-Roman;font-size:14.00;">
<title>test</title>
<polygon style="fill:white;stroke:white;" points="-2,586 -2,-2 730,-2 730,586 -2,586"/>
<!-- mageml -->
<g id="node1" class="node"><title>mageml</title>
<polygon style="fill:white;stroke:black;" points="362,573 403,573 403,553 362,553 362,573"/>
<text text-anchor="start" x="364" y="557" style="font-size:3.98pt;">{mageml|&#45; mageml_id </text>
<text text-anchor="start" x="364" y="562" style="font-size:3.98pt;">&#45; mage_package </text>
<text text-anchor="start" x="364" y="567" style="font-size:3.98pt;">&#45; mage_ml </text>
<text text-anchor="middle" x="382" y="571" style="font-size:3.98pt;">}</text>
</g>
<!-- magedocumentation -->
<g id="node2" class="node"><title>magedocumentation</title>
<polygon style="fill:white;stroke:black;" points="413,578 493,578 493,548 413,548 413,578"/>
<text text-anchor="start" x="415" y="553" style="font-size:3.98pt;">{magedocumentation|&#45; magedocumentation_id </text>
<text text-anchor="start" x="415" y="557" style="font-size:3.98pt;">&#45; mageml_id </text>
<text text-anchor="start" x="415" y="562" style="font-size:3.98pt;">&#45; tableinfo_id </text>
<text text-anchor="start" x="415" y="567" style="font-size:3.98pt;">&#45; row_id </text>
<text text-anchor="start" x="415" y="571" style="font-size:3.98pt;">&#45; mageidentifier </text>
<text text-anchor="middle" x="453" y="576" style="font-size:3.98pt;">}</text>
</g>
<!-- mageml&#45;&gt;magedocumentation -->
<g id="edge54" class="edge"><title>mageml&#45;&gt;magedocumentation</title>
<path style="fill:none;stroke:black;" d="M403,563C405,563 407,563 410,563"/>
<polygon style="fill:black;stroke:black;" points="410,562 413,563 410,564 410,562"/>
</g>
<!-- protocol -->
<g id="node3" class="node"><title>protocol</title>
<polygon style="fill:white;stroke:black;" points="328,274 370,274 370,226 328,226 328,274"/>
<text text-anchor="start" x="330" y="231" style="font-size:3.98pt;">{protocol|&#45; protocol_id </text>
<text text-anchor="start" x="330" y="235" style="font-size:3.98pt;">&#45; type_id </text>
<text text-anchor="start" x="330" y="240" style="font-size:3.98pt;">&#45; pub_id </text>
<text text-anchor="start" x="330" y="244" style="font-size:3.98pt;">&#45; dbxref_id </text>
<text text-anchor="start" x="330" y="249" style="font-size:3.98pt;">&#45; name </text>
<text text-anchor="start" x="330" y="253" style="font-size:3.98pt;">&#45; uri </text>
<text text-anchor="start" x="330" y="258" style="font-size:3.98pt;">&#45; protocoldescription </text>
<text text-anchor="start" x="330" y="262" style="font-size:3.98pt;">&#45; hardwaredescription </text>
<text text-anchor="start" x="330" y="267" style="font-size:3.98pt;">&#45; softwaredescription </text>
<text text-anchor="middle" x="349" y="272" style="font-size:3.98pt;">}</text>
</g>
<!-- protocolparam -->
<g id="node4" class="node"><title>protocolparam</title>
<polygon style="fill:white;stroke:black;" points="274,163 336,163 336,124 274,124 274,163"/>
<text text-anchor="start" x="277" y="129" style="font-size:3.98pt;">{protocolparam|&#45; protocolparam_id </text>
<text text-anchor="start" x="277" y="134" style="font-size:3.98pt;">&#45; protocol_id </text>
<text text-anchor="start" x="277" y="138" style="font-size:3.98pt;">&#45; name </text>
<text text-anchor="start" x="277" y="143" style="font-size:3.98pt;">&#45; datatype_id </text>
<text text-anchor="start" x="277" y="147" style="font-size:3.98pt;">&#45; unittype_id </text>
<text text-anchor="start" x="277" y="152" style="font-size:3.98pt;">&#45; value </text>
<text text-anchor="start" x="277" y="157" style="font-size:3.98pt;">&#45; rank </text>
<text text-anchor="middle" x="305" y="161" style="font-size:3.98pt;">}</text>
</g>
<!-- protocol&#45;&gt;protocolparam -->
<g id="edge62" class="edge"><title>protocol&#45;&gt;protocolparam</title>
<path style="fill:none;stroke:black;" d="M339,226C331,208 321,183 314,166"/>
<polygon style="fill:black;stroke:black;" points="314,166 313,163 315,165 314,166"/>
</g>
<!-- arraydesign -->
<g id="node6" class="node"><title>arraydesign</title>
<polygon style="fill:white;stroke:black;" points="367,196 420,196 420,107 367,107 367,196"/>
<text text-anchor="start" x="369" y="112" style="font-size:3.98pt;">{arraydesign|&#45; arraydesign_id </text>
<text text-anchor="start" x="369" y="117" style="font-size:3.98pt;">&#45; manufacturer_id </text>
<text text-anchor="start" x="369" y="121" style="font-size:3.98pt;">&#45; platformtype_id </text>
<text text-anchor="start" x="369" y="126" style="font-size:3.98pt;">&#45; substratetype_id </text>
<text text-anchor="start" x="369" y="130" style="font-size:3.98pt;">&#45; protocol_id </text>
<text text-anchor="start" x="369" y="135" style="font-size:3.98pt;">&#45; dbxref_id </text>
<text text-anchor="start" x="369" y="140" style="font-size:3.98pt;">&#45; name </text>
<text text-anchor="start" x="369" y="144" style="font-size:3.98pt;">&#45; version </text>
<text text-anchor="start" x="369" y="149" style="font-size:3.98pt;">&#45; description </text>
<text text-anchor="start" x="369" y="153" style="font-size:3.98pt;">&#45; array_dimensions </text>
<text text-anchor="start" x="369" y="158" style="font-size:3.98pt;">&#45; element_dimensions </text>
<text text-anchor="start" x="369" y="162" style="font-size:3.98pt;">&#45; num_of_elements </text>
<text text-anchor="start" x="369" y="167" style="font-size:3.98pt;">&#45; num_array_columns </text>
<text text-anchor="start" x="369" y="171" style="font-size:3.98pt;">&#45; num_array_rows </text>
<text text-anchor="start" x="369" y="176" style="font-size:3.98pt;">&#45; num_grid_columns </text>
<text text-anchor="start" x="369" y="180" style="font-size:3.98pt;">&#45; num_grid_rows </text>
<text text-anchor="start" x="369" y="185" style="font-size:3.98pt;">&#45; num_sub_columns </text>
<text text-anchor="start" x="369" y="190" style="font-size:3.98pt;">&#45; num_sub_rows </text>
<text text-anchor="middle" x="393" y="194" style="font-size:3.98pt;">}</text>
</g>
<!-- protocol&#45;&gt;arraydesign -->
<g id="edge58" class="edge"><title>protocol&#45;&gt;arraydesign</title>
<path style="fill:none;stroke:black;" d="M360,226C363,218 368,208 372,199"/>
<polygon style="fill:black;stroke:black;" points="371,198 373,196 373,199 371,198"/>
</g>
<!-- assay -->
<g id="node8" class="node"><title>assay</title>
<polygon style="fill:white;stroke:black;" points="394,326 434,326 434,274 394,274 394,326"/>
<text text-anchor="start" x="396" y="279" style="font-size:3.98pt;">{assay|&#45; assay_id </text>
<text text-anchor="start" x="396" y="283" style="font-size:3.98pt;">&#45; arraydesign_id </text>
<text text-anchor="start" x="396" y="288" style="font-size:3.98pt;">&#45; protocol_id </text>
<text text-anchor="start" x="396" y="293" style="font-size:3.98pt;">&#45; assaydate </text>
<text text-anchor="start" x="396" y="297" style="font-size:3.98pt;">&#45; arrayidentifier </text>
<text text-anchor="start" x="396" y="302" style="font-size:3.98pt;">&#45; arraybatchidentifier </text>
<text text-anchor="start" x="396" y="306" style="font-size:3.98pt;">&#45; operator_id </text>
<text text-anchor="start" x="396" y="311" style="font-size:3.98pt;">&#45; dbxref_id </text>
<text text-anchor="start" x="396" y="315" style="font-size:3.98pt;">&#45; name </text>
<text text-anchor="start" x="396" y="320" style="font-size:3.98pt;">&#45; description </text>
<text text-anchor="middle" x="414" y="324" style="font-size:3.98pt;">}</text>
</g>
<!-- protocol&#45;&gt;assay -->
<g id="edge60" class="edge"><title>protocol&#45;&gt;assay</title>
<path style="fill:none;stroke:black;" d="M370,266C377,272 385,277 392,283"/>
<polygon style="fill:black;stroke:black;" points="392,282 394,285 391,284 392,282"/>
</g>
<!-- treatment -->
<g id="node15" class="node"><title>treatment</title>
<polygon style="fill:white;stroke:black;" points="255,330 301,330 301,296 255,296 255,330"/>
<text text-anchor="start" x="258" y="301" style="font-size:3.98pt;">{treatment|&#45; treatment_id </text>
<text text-anchor="start" x="258" y="306" style="font-size:3.98pt;">&#45; rank </text>
<text text-anchor="start" x="258" y="310" style="font-size:3.98pt;">&#45; biomaterial_id </text>
<text text-anchor="start" x="258" y="315" style="font-size:3.98pt;">&#45; type_id </text>
<text text-anchor="start" x="258" y="319" style="font-size:3.98pt;">&#45; protocol_id </text>
<text text-anchor="start" x="258" y="324" style="font-size:3.98pt;">&#45; name </text>
<text text-anchor="middle" x="278" y="328" style="font-size:3.98pt;">}</text>
</g>
<!-- protocol&#45;&gt;treatment -->
<g id="edge66" class="edge"><title>protocol&#45;&gt;treatment</title>
<path style="fill:none;stroke:black;" d="M328,269C319,277 308,286 299,294"/>
<polygon style="fill:black;stroke:black;" points="300,295 297,296 299,293 300,295"/>
</g>
<!-- acquisition -->
<g id="node18" class="node"><title>acquisition</title>
<polygon style="fill:white;stroke:black;" points="237,243 288,243 288,204 237,204 237,243"/>
<text text-anchor="start" x="240" y="209" style="font-size:3.98pt;">{acquisition|&#45; acquisition_id </text>
<text text-anchor="start" x="240" y="213" style="font-size:3.98pt;">&#45; assay_id </text>
<text text-anchor="start" x="240" y="218" style="font-size:3.98pt;">&#45; protocol_id </text>
<text text-anchor="start" x="240" y="223" style="font-size:3.98pt;">&#45; channel_id </text>
<text text-anchor="start" x="240" y="227" style="font-size:3.98pt;">&#45; acquisitiondate </text>
<text text-anchor="start" x="240" y="232" style="font-size:3.98pt;">&#45; name </text>
<text text-anchor="start" x="240" y="236" style="font-size:3.98pt;">&#45; uri </text>
<text text-anchor="middle" x="263" y="241" style="font-size:3.98pt;">}</text>
</g>
<!-- protocol&#45;&gt;acquisition -->
<g id="edge56" class="edge"><title>protocol&#45;&gt;acquisition</title>
<path style="fill:none;stroke:black;" d="M328,243C317,240 303,235 291,232"/>
<polygon style="fill:black;stroke:black;" points="290,233 288,231 291,231 290,233"/>
</g>
<!-- quantification -->
<g id="node21" class="node"><title>quantification</title>
<polygon style="fill:white;stroke:black;" points="159,172 219,172 219,129 159,129 159,172"/>
<text text-anchor="start" x="161" y="134" style="font-size:3.98pt;">{quantification|&#45; quantification_id </text>
<text text-anchor="start" x="161" y="138" style="font-size:3.98pt;">&#45; acquisition_id </text>
<text text-anchor="start" x="161" y="143" style="font-size:3.98pt;">&#45; operator_id </text>
<text text-anchor="start" x="161" y="147" style="font-size:3.98pt;">&#45; protocol_id </text>
<text text-anchor="start" x="161" y="152" style="font-size:3.98pt;">&#45; analysis_id </text>
<text text-anchor="start" x="161" y="157" style="font-size:3.98pt;">&#45; quantificationdate </text>
<text text-anchor="start" x="161" y="161" style="font-size:3.98pt;">&#45; name </text>
<text text-anchor="start" x="161" y="166" style="font-size:3.98pt;">&#45; uri </text>
<text text-anchor="middle" x="189" y="170" style="font-size:3.98pt;">}</text>
</g>
<!-- protocol&#45;&gt;quantification -->
<g id="edge64" class="edge"><title>protocol&#45;&gt;quantification</title>
<path style="fill:none;stroke:black;" d="M328,237C300,220 253,190 221,171"/>
<polygon style="fill:black;stroke:black;" points="221,171 219,169 222,170 221,171"/>
</g>
<!-- channel -->
<g id="node5" class="node"><title>channel</title>
<polygon style="fill:white;stroke:black;" points="159,390 199,390 199,369 159,369 159,390"/>
<text text-anchor="start" x="161" y="374" style="font-size:3.98pt;">{channel|&#45; channel_id </text>
<text text-anchor="start" x="161" y="379" style="font-size:3.98pt;">&#45; name </text>
<text text-anchor="start" x="161" y="383" style="font-size:3.98pt;">&#45; definition </text>
<text text-anchor="middle" x="179" y="388" style="font-size:3.98pt;">}</text>
</g>
<!-- assay_biomaterial -->
<g id="node17" class="node"><title>assay_biomaterial</title>
<polygon style="fill:white;stroke:black;" points="331,394 404,394 404,365 331,365 331,394"/>
<text text-anchor="start" x="333" y="370" style="font-size:3.98pt;">{assay_biomaterial|&#45; assay_biomaterial_id </text>
<text text-anchor="start" x="333" y="374" style="font-size:3.98pt;">&#45; assay_id </text>
<text text-anchor="start" x="333" y="379" style="font-size:3.98pt;">&#45; biomaterial_id </text>
<text text-anchor="start" x="333" y="383" style="font-size:3.98pt;">&#45; channel_id </text>
<text text-anchor="start" x="333" y="388" style="font-size:3.98pt;">&#45; rank </text>
<text text-anchor="middle" x="367" y="392" style="font-size:3.98pt;">}</text>
</g>
<!-- channel&#45;&gt;assay_biomaterial -->
<g id="edge44" class="edge"><title>channel&#45;&gt;assay_biomaterial</title>
<path style="fill:none;stroke:black;" d="M199,380C230,380 289,380 328,380"/>
<polygon style="fill:black;stroke:black;" points="328,378 331,380 328,380 328,378"/>
</g>
<!-- channel&#45;&gt;acquisition -->
<g id="edge42" class="edge"><title>channel&#45;&gt;acquisition</title>
<path style="fill:none;stroke:black;" d="M184,369C198,344 233,279 251,245"/>
<polygon style="fill:black;stroke:black;" points="250,245 252,243 252,246 250,245"/>
</g>
<!-- arraydesignprop -->
<g id="node7" class="node"><title>arraydesignprop</title>
<polygon style="fill:white;stroke:black;" points="527,44 594,44 594,15 527,15 527,44"/>
<text text-anchor="start" x="529" y="19" style="font-size:3.98pt;">{arraydesignprop|&#45; arraydesignprop_id </text>
<text text-anchor="start" x="529" y="24" style="font-size:3.98pt;">&#45; arraydesign_id </text>
<text text-anchor="start" x="529" y="29" style="font-size:3.98pt;">&#45; type_id </text>
<text text-anchor="start" x="529" y="33" style="font-size:3.98pt;">&#45; value </text>
<text text-anchor="start" x="529" y="38" style="font-size:3.98pt;">&#45; rank </text>
<text text-anchor="middle" x="560" y="42" style="font-size:3.98pt;">}</text>
</g>
<!-- arraydesign&#45;&gt;arraydesignprop -->
<g id="edge10" class="edge"><title>arraydesign&#45;&gt;arraydesignprop</title>
<path style="fill:none;stroke:black;" d="M420,132C453,108 507,68 538,46"/>
<polygon style="fill:black;stroke:black;" points="537,45 540,44 539,47 537,45"/>
</g>
<!-- arraydesign&#45;&gt;assay -->
<g id="edge12" class="edge"><title>arraydesign&#45;&gt;assay</title>
<path style="fill:none;stroke:black;" d="M399,196C403,220 407,250 410,271"/>
<polygon style="fill:black;stroke:black;" points="411,271 410,274 409,271 411,271"/>
</g>
<!-- element -->
<g id="node25" class="node"><title>element</title>
<polygon style="fill:white;stroke:black;" points="344,43 385,43 385,14 344,14 344,43"/>
<text text-anchor="start" x="347" y="19" style="font-size:3.98pt;">{element|&#45; element_id </text>
<text text-anchor="start" x="347" y="23" style="font-size:3.98pt;">&#45; feature_id </text>
<text text-anchor="start" x="347" y="28" style="font-size:3.98pt;">&#45; arraydesign_id </text>
<text text-anchor="start" x="347" y="32" style="font-size:3.98pt;">&#45; type_id </text>
<text text-anchor="start" x="347" y="37" style="font-size:3.98pt;">&#45; dbxref_id </text>
<text text-anchor="middle" x="365" y="41" style="font-size:3.98pt;">}</text>
</g>
<!-- arraydesign&#45;&gt;element -->
<g id="edge14" class="edge"><title>arraydesign&#45;&gt;element</title>
<path style="fill:none;stroke:black;" d="M383,107C378,86 372,62 369,46"/>
<polygon style="fill:black;stroke:black;" points="368,46 368,43 370,46 368,46"/>
</g>
<!-- arraydesign_element -->
<g id="node26" class="node"><title>arraydesign_element</title>
<polygon style="fill:white;stroke:black;" points="449,149 531,149 531,129 449,129 449,149"/>
<text text-anchor="start" x="451" y="134" style="font-size:3.98pt;">{arraydesign_element|&#45; arraydesign_element_id </text>
<text text-anchor="start" x="451" y="138" style="font-size:3.98pt;">&#45; arraydesign_id </text>
<text text-anchor="start" x="451" y="143" style="font-size:3.98pt;">&#45; element_id </text>
<text text-anchor="middle" x="490" y="147" style="font-size:3.98pt;">}</text>
</g>
<!-- arraydesign&#45;&gt;arraydesign_element -->
<g id="edge8" class="edge"><title>arraydesign&#45;&gt;arraydesign_element</title>
<path style="fill:none;stroke:black;" d="M420,148C428,147 437,146 446,145"/>
<polygon style="fill:black;stroke:black;" points="446,144 449,145 446,146 446,144"/>
</g>
<!-- assayprop -->
<g id="node9" class="node"><title>assayprop</title>
<polygon style="fill:white;stroke:black;" points="518,516 565,516 565,487 518,487 518,516"/>
<text text-anchor="start" x="520" y="491" style="font-size:3.98pt;">{assayprop|&#45; assayprop_id </text>
<text text-anchor="start" x="520" y="496" style="font-size:3.98pt;">&#45; assay_id </text>
<text text-anchor="start" x="520" y="501" style="font-size:3.98pt;">&#45; type_id </text>
<text text-anchor="start" x="520" y="505" style="font-size:3.98pt;">&#45; value </text>
<text text-anchor="start" x="520" y="510" style="font-size:3.98pt;">&#45; rank </text>
<text text-anchor="middle" x="541" y="514" style="font-size:3.98pt;">}</text>
</g>
<!-- assay&#45;&gt;assayprop -->
<g id="edge22" class="edge"><title>assay&#45;&gt;assayprop</title>
<path style="fill:none;stroke:black;" d="M430,326C457,368 508,449 530,484"/>
<polygon style="fill:black;stroke:black;" points="531,484 532,487 530,485 531,484"/>
</g>
<!-- assay_project -->
<g id="node10" class="node"><title>assay_project</title>
<polygon style="fill:white;stroke:black;" points="421,233 480,233 480,212 421,212 421,233"/>
<text text-anchor="start" x="423" y="217" style="font-size:3.98pt;">{assay_project|&#45; assay_project_id </text>
<text text-anchor="start" x="423" y="221" style="font-size:3.98pt;">&#45; assay_id </text>
<text text-anchor="start" x="423" y="226" style="font-size:3.98pt;">&#45; project_id </text>
<text text-anchor="middle" x="450" y="231" style="font-size:3.98pt;">}</text>
</g>
<!-- assay&#45;&gt;assay_project -->
<g id="edge20" class="edge"><title>assay&#45;&gt;assay_project</title>
<path style="fill:none;stroke:black;" d="M426,274C432,261 439,246 444,235"/>
<polygon style="fill:black;stroke:black;" points="444,235 446,233 446,236 444,235"/>
</g>
<!-- assay&#45;&gt;assay_biomaterial -->
<g id="edge18" class="edge"><title>assay&#45;&gt;assay_biomaterial</title>
<path style="fill:none;stroke:black;" d="M398,326C391,338 383,352 378,362"/>
<polygon style="fill:black;stroke:black;" points="378,363 376,365 377,362 378,363"/>
</g>
<!-- assay&#45;&gt;acquisition -->
<g id="edge16" class="edge"><title>assay&#45;&gt;acquisition</title>
<path style="fill:none;stroke:black;" d="M394,290C368,277 321,253 290,238"/>
<polygon style="fill:black;stroke:black;" points="290,239 288,236 291,237 290,239"/>
</g>
<!-- control -->
<g id="node24" class="node"><title>control</title>
<polygon style="fill:white;stroke:black;" points="449,408 488,408 488,365 449,365 449,408"/>
<text text-anchor="start" x="451" y="369" style="font-size:3.98pt;">{control|&#45; control_id </text>
<text text-anchor="start" x="451" y="374" style="font-size:3.98pt;">&#45; type_id </text>
<text text-anchor="start" x="451" y="378" style="font-size:3.98pt;">&#45; assay_id </text>
<text text-anchor="start" x="451" y="383" style="font-size:3.98pt;">&#45; tableinfo_id </text>
<text text-anchor="start" x="451" y="388" style="font-size:3.98pt;">&#45; row_id </text>
<text text-anchor="start" x="451" y="392" style="font-size:3.98pt;">&#45; name </text>
<text text-anchor="start" x="451" y="397" style="font-size:3.98pt;">&#45; value </text>
<text text-anchor="start" x="451" y="401" style="font-size:3.98pt;">&#45; rank </text>
<text text-anchor="middle" x="468" y="406" style="font-size:3.98pt;">}</text>
</g>
<!-- assay&#45;&gt;control -->
<g id="edge24" class="edge"><title>assay&#45;&gt;control</title>
<path style="fill:none;stroke:black;" d="M430,326C438,338 446,351 453,362"/>
<polygon style="fill:black;stroke:black;" points="454,362 455,365 452,363 454,362"/>
</g>
<!-- study_assay -->
<g id="node31" class="node"><title>study_assay</title>
<polygon style="fill:white;stroke:black;" points="555,201 609,201 609,180 555,180 555,201"/>
<text text-anchor="start" x="558" y="185" style="font-size:3.98pt;">{study_assay|&#45; study_assay_id </text>
<text text-anchor="start" x="558" y="190" style="font-size:3.98pt;">&#45; study_id </text>
<text text-anchor="start" x="558" y="194" style="font-size:3.98pt;">&#45; assay_id </text>
<text text-anchor="middle" x="582" y="199" style="font-size:3.98pt;">}</text>
</g>
<!-- assay&#45;&gt;study_assay -->
<g id="edge26" class="edge"><title>assay&#45;&gt;study_assay</title>
<path style="fill:none;stroke:black;" d="M434,287C467,266 532,223 564,202"/>
<polygon style="fill:black;stroke:black;" points="564,202 567,201 565,203 564,202"/>
</g>
<!-- studyfactorvalue -->
<g id="node35" class="node"><title>studyfactorvalue</title>
<polygon style="fill:white;stroke:black;" points="478,300 547,300 547,266 478,266 478,300"/>
<text text-anchor="start" x="480" y="270" style="font-size:3.98pt;">{studyfactorvalue|&#45; studyfactorvalue_id </text>
<text text-anchor="start" x="480" y="275" style="font-size:3.98pt;">&#45; studyfactor_id </text>
<text text-anchor="start" x="480" y="279" style="font-size:3.98pt;">&#45; assay_id </text>
<text text-anchor="start" x="480" y="284" style="font-size:3.98pt;">&#45; factorvalue </text>
<text text-anchor="start" x="480" y="289" style="font-size:3.98pt;">&#45; name </text>
<text text-anchor="start" x="480" y="293" style="font-size:3.98pt;">&#45; rank </text>
<text text-anchor="middle" x="512" y="298" style="font-size:3.98pt;">}</text>
</g>
<!-- assay&#45;&gt;studyfactorvalue -->
<g id="edge28" class="edge"><title>assay&#45;&gt;studyfactorvalue</title>
<path style="fill:none;stroke:black;" d="M434,297C446,294 461,292 475,289"/>
<polygon style="fill:black;stroke:black;" points="475,288 478,289 476,290 475,288"/>
</g>
<!-- biomaterial -->
<g id="node11" class="node"><title>biomaterial</title>
<polygon style="fill:white;stroke:black;" points="254,422 306,422 306,388 254,388 254,422"/>
<text text-anchor="start" x="256" y="392" style="font-size:3.98pt;">{biomaterial|&#45; biomaterial_id </text>
<text text-anchor="start" x="256" y="397" style="font-size:3.98pt;">&#45; taxon_id </text>
<text text-anchor="start" x="256" y="402" style="font-size:3.98pt;">&#45; biosourceprovider_id </text>
<text text-anchor="start" x="256" y="406" style="font-size:3.98pt;">&#45; dbxref_id </text>
<text text-anchor="start" x="256" y="411" style="font-size:3.98pt;">&#45; name </text>
<text text-anchor="start" x="256" y="415" style="font-size:3.98pt;">&#45; description </text>
<text text-anchor="middle" x="280" y="420" style="font-size:3.98pt;">}</text>
</g>
<!-- biomaterial_relationship -->
<g id="node12" class="node"><title>biomaterial_relationship</title>
<polygon style="fill:white;stroke:black;" points="381,516 474,516 474,491 381,491 381,516"/>
<text text-anchor="start" x="383" y="496" style="font-size:3.98pt;">{biomaterial_relationship|&#45; biomaterial_relationship_id </text>
<text text-anchor="start" x="383" y="500" style="font-size:3.98pt;">&#45; subject_id </text>
<text text-anchor="start" x="383" y="505" style="font-size:3.98pt;">&#45; type_id </text>
<text text-anchor="start" x="383" y="509" style="font-size:3.98pt;">&#45; object_id </text>
<text text-anchor="middle" x="427" y="514" style="font-size:3.98pt;">}</text>
</g>
<!-- biomaterial&#45;&gt;biomaterial_relationship -->
<g id="edge34" class="edge"><title>biomaterial&#45;&gt;biomaterial_relationship</title>
<path style="fill:none;stroke:black;" d="M305,422C334,441 380,471 406,489"/>
<polygon style="fill:black;stroke:black;" points="407,489 409,491 406,490 407,489"/>
</g>
<!-- biomaterialprop -->
<g id="node13" class="node"><title>biomaterialprop</title>
<polygon style="fill:white;stroke:black;" points="174,522 241,522 241,493 174,493 174,522"/>
<text text-anchor="start" x="176" y="498" style="font-size:3.98pt;">{biomaterialprop|&#45; biomaterialprop_id </text>
<text text-anchor="start" x="176" y="502" style="font-size:3.98pt;">&#45; biomaterial_id </text>
<text text-anchor="start" x="176" y="507" style="font-size:3.98pt;">&#45; type_id </text>
<text text-anchor="start" x="176" y="511" style="font-size:3.98pt;">&#45; value </text>
<text text-anchor="start" x="176" y="516" style="font-size:3.98pt;">&#45; rank </text>
<text text-anchor="middle" x="207" y="520" style="font-size:3.98pt;">}</text>
</g>
<!-- biomaterial&#45;&gt;biomaterialprop -->
<g id="edge38" class="edge"><title>biomaterial&#45;&gt;biomaterialprop</title>
<path style="fill:none;stroke:black;" d="M268,422C254,441 233,472 219,491"/>
<polygon style="fill:black;stroke:black;" points="220,491 218,493 218,490 220,491"/>
</g>
<!-- biomaterial_dbxref -->
<g id="node14" class="node"><title>biomaterial_dbxref</title>
<polygon style="fill:white;stroke:black;" points="23,501 100,501 100,481 23,481 23,501"/>
<text text-anchor="start" x="26" y="485" style="font-size:3.98pt;">{biomaterial_dbxref|&#45; biomaterial_dbxref_id </text>
<text text-anchor="start" x="26" y="490" style="font-size:3.98pt;">&#45; biomaterial_id </text>
<text text-anchor="start" x="26" y="495" style="font-size:3.98pt;">&#45; dbxref_id </text>
<text text-anchor="middle" x="62" y="499" style="font-size:3.98pt;">}</text>
</g>
<!-- biomaterial&#45;&gt;biomaterial_dbxref -->
<g id="edge32" class="edge"><title>biomaterial&#45;&gt;biomaterial_dbxref</title>
<path style="fill:none;stroke:black;" d="M254,415C213,431 133,463 90,479"/>
<polygon style="fill:black;stroke:black;" points="91,481 88,481 90,479 91,481"/>
</g>
<!-- biomaterial&#45;&gt;treatment -->
<g id="edge40" class="edge"><title>biomaterial&#45;&gt;treatment</title>
<path style="fill:none;stroke:black;" d="M279,388C279,372 279,350 279,333"/>
<polygon style="fill:black;stroke:black;" points="278,333 279,330 280,333 278,333"/>
</g>
<!-- biomaterial_treatment -->
<g id="node16" class="node"><title>biomaterial_treatment</title>
<polygon style="fill:white;stroke:black;" points="282,526 368,526 368,492 282,492 282,526"/>
<text text-anchor="start" x="284" y="497" style="font-size:3.98pt;">{biomaterial_treatment|&#45; biomaterial_treatment_id </text>
<text text-anchor="start" x="284" y="501" style="font-size:3.98pt;">&#45; biomaterial_id </text>
<text text-anchor="start" x="284" y="506" style="font-size:3.98pt;">&#45; treatment_id </text>
<text text-anchor="start" x="284" y="510" style="font-size:3.98pt;">&#45; unittype_id </text>
<text text-anchor="start" x="284" y="515" style="font-size:3.98pt;">&#45; value </text>
<text text-anchor="start" x="284" y="519" style="font-size:3.98pt;">&#45; rank </text>
<text text-anchor="middle" x="325" y="524" style="font-size:3.98pt;">}</text>
</g>
<!-- biomaterial&#45;&gt;biomaterial_treatment -->
<g id="edge36" class="edge"><title>biomaterial&#45;&gt;biomaterial_treatment</title>
<path style="fill:none;stroke:black;" d="M287,422C295,440 308,470 317,489"/>
<polygon style="fill:black;stroke:black;" points="317,489 318,492 316,489 317,489"/>
</g>
<!-- biomaterial&#45;&gt;assay_biomaterial -->
<g id="edge30" class="edge"><title>biomaterial&#45;&gt;assay_biomaterial</title>
<path style="fill:none;stroke:black;" d="M306,397C313,395 320,393 328,391"/>
<polygon style="fill:black;stroke:black;" points="328,390 331,390 328,392 328,390"/>
</g>
<!-- treatment&#45;&gt;biomaterial_treatment -->
<g id="edge84" class="edge"><title>treatment&#45;&gt;biomaterial_treatment</title>
<path style="fill:none;stroke:black;" d="M282,330C291,367 311,450 321,489"/>
<polygon style="fill:black;stroke:black;" points="321,489 321,492 320,489 321,489"/>
</g>
<!-- acquisitionprop -->
<g id="node19" class="node"><title>acquisitionprop</title>
<polygon style="fill:white;stroke:black;" points="18,351 83,351 83,321 18,321 18,351"/>
<text text-anchor="start" x="20" y="326" style="font-size:3.98pt;">{acquisitionprop|&#45; acquisitionprop_id </text>
<text text-anchor="start" x="20" y="331" style="font-size:3.98pt;">&#45; acquisition_id </text>
<text text-anchor="start" x="20" y="335" style="font-size:3.98pt;">&#45; type_id </text>
<text text-anchor="start" x="20" y="340" style="font-size:3.98pt;">&#45; value </text>
<text text-anchor="start" x="20" y="344" style="font-size:3.98pt;">&#45; rank </text>
<text text-anchor="middle" x="51" y="349" style="font-size:3.98pt;">}</text>
</g>
<!-- acquisition&#45;&gt;acquisitionprop -->
<g id="edge4" class="edge"><title>acquisition&#45;&gt;acquisitionprop</title>
<path style="fill:none;stroke:black;" d="M237,237C198,258 123,297 81,320"/>
<polygon style="fill:black;stroke:black;" points="81,321 79,321 81,319 81,321"/>
</g>
<!-- acquisition_relationship -->
<g id="node20" class="node"><title>acquisition_relationship</title>
<polygon style="fill:white;stroke:black;" points="128,284 220,284 220,250 128,250 128,284"/>
<text text-anchor="start" x="130" y="255" style="font-size:3.98pt;">{acquisition_relationship|&#45; acquisition_relationship_id </text>
<text text-anchor="start" x="130" y="259" style="font-size:3.98pt;">&#45; subject_id </text>
<text text-anchor="start" x="130" y="264" style="font-size:3.98pt;">&#45; type_id </text>
<text text-anchor="start" x="130" y="268" style="font-size:3.98pt;">&#45; object_id </text>
<text text-anchor="start" x="130" y="273" style="font-size:3.98pt;">&#45; value </text>
<text text-anchor="start" x="130" y="277" style="font-size:3.98pt;">&#45; rank </text>
<text text-anchor="middle" x="174" y="282" style="font-size:3.98pt;">}</text>
</g>
<!-- acquisition&#45;&gt;acquisition_relationship -->
<g id="edge2" class="edge"><title>acquisition&#45;&gt;acquisition_relationship</title>
<path style="fill:none;stroke:black;" d="M237,236C229,240 220,244 211,249"/>
<polygon style="fill:black;stroke:black;" points="212,250 209,250 211,248 212,250"/>
</g>
<!-- acquisition&#45;&gt;quantification -->
<g id="edge6" class="edge"><title>acquisition&#45;&gt;quantification</title>
<path style="fill:none;stroke:black;" d="M243,204C234,195 223,184 213,174"/>
<polygon style="fill:black;stroke:black;" points="212,175 211,172 214,174 212,175"/>
</g>
<!-- quantificationprop -->
<g id="node22" class="node"><title>quantificationprop</title>
<polygon style="fill:white;stroke:black;" points="17,58 92,58 92,29 17,29 17,58"/>
<text text-anchor="start" x="20" y="34" style="font-size:3.98pt;">{quantificationprop|&#45; quantificationprop_id </text>
<text text-anchor="start" x="20" y="38" style="font-size:3.98pt;">&#45; quantification_id </text>
<text text-anchor="start" x="20" y="43" style="font-size:3.98pt;">&#45; type_id </text>
<text text-anchor="start" x="20" y="47" style="font-size:3.98pt;">&#45; value </text>
<text text-anchor="start" x="20" y="52" style="font-size:3.98pt;">&#45; rank </text>
<text text-anchor="middle" x="54" y="56" style="font-size:3.98pt;">}</text>
</g>
<!-- quantification&#45;&gt;quantificationprop -->
<g id="edge72" class="edge"><title>quantification&#45;&gt;quantificationprop</title>
<path style="fill:none;stroke:black;" d="M162,129C136,109 98,79 75,60"/>
<polygon style="fill:black;stroke:black;" points="75,61 73,58 76,60 75,61"/>
</g>
<!-- quantification_relationship -->
<g id="node23" class="node"><title>quantification_relationship</title>
<polygon style="fill:white;stroke:black;" points="4,209 106,209 106,184 4,184 4,209"/>
<text text-anchor="start" x="7" y="189" style="font-size:3.98pt;">{quantification_relationship|&#45; quantification_relationship_id </text>
<text text-anchor="start" x="7" y="194" style="font-size:3.98pt;">&#45; subject_id </text>
<text text-anchor="start" x="7" y="198" style="font-size:3.98pt;">&#45; type_id </text>
<text text-anchor="start" x="7" y="203" style="font-size:3.98pt;">&#45; object_id </text>
<text text-anchor="middle" x="55" y="207" style="font-size:3.98pt;">}</text>
</g>
<!-- quantification&#45;&gt;quantification_relationship -->
<g id="edge70" class="edge"><title>quantification&#45;&gt;quantification_relationship</title>
<path style="fill:none;stroke:black;" d="M159,161C140,167 115,176 94,183"/>
<polygon style="fill:black;stroke:black;" points="94,184 91,184 94,182 94,184"/>
</g>
<!-- elementresult -->
<g id="node27" class="node"><title>elementresult</title>
<polygon style="fill:white;stroke:black;" points="249,41 308,41 308,16 249,16 249,41"/>
<text text-anchor="start" x="251" y="21" style="font-size:3.98pt;">{elementresult|&#45; elementresult_id </text>
<text text-anchor="start" x="251" y="25" style="font-size:3.98pt;">&#45; element_id </text>
<text text-anchor="start" x="251" y="30" style="font-size:3.98pt;">&#45; quantification_id </text>
<text text-anchor="start" x="251" y="35" style="font-size:3.98pt;">&#45; signal </text>
<text text-anchor="middle" x="279" y="39" style="font-size:3.98pt;">}</text>
</g>
<!-- quantification&#45;&gt;elementresult -->
<g id="edge68" class="edge"><title>quantification&#45;&gt;elementresult</title>
<path style="fill:none;stroke:black;" d="M205,129C223,104 252,65 268,43"/>
<polygon style="fill:black;stroke:black;" points="267,43 269,41 269,44 267,43"/>
</g>
<!-- element&#45;&gt;arraydesign_element -->
<g id="edge46" class="edge"><title>element&#45;&gt;arraydesign_element</title>
<path style="fill:none;stroke:black;" d="M381,43C407,65 453,107 476,127"/>
<polygon style="fill:black;stroke:black;" points="477,126 479,129 476,128 477,126"/>
</g>
<!-- element&#45;&gt;elementresult -->
<g id="edge50" class="edge"><title>element&#45;&gt;elementresult</title>
<path style="fill:none;stroke:black;" d="M344,29C334,29 322,29 311,29"/>
<polygon style="fill:black;stroke:black;" points="311,29 308,29 311,27 311,29"/>
</g>
<!-- element_relationship -->
<g id="node28" class="node"><title>element_relationship</title>
<polygon style="fill:white;stroke:black;" points="412,41 494,41 494,7 412,7 412,41"/>
<text text-anchor="start" x="414" y="12" style="font-size:3.98pt;">{element_relationship|&#45; element_relationship_id </text>
<text text-anchor="start" x="414" y="16" style="font-size:3.98pt;">&#45; subject_id </text>
<text text-anchor="start" x="414" y="21" style="font-size:3.98pt;">&#45; type_id </text>
<text text-anchor="start" x="414" y="25" style="font-size:3.98pt;">&#45; object_id </text>
<text text-anchor="start" x="414" y="30" style="font-size:3.98pt;">&#45; value </text>
<text text-anchor="start" x="414" y="34" style="font-size:3.98pt;">&#45; rank </text>
<text text-anchor="middle" x="453" y="39" style="font-size:3.98pt;">}</text>
</g>
<!-- element&#45;&gt;element_relationship -->
<g id="edge48" class="edge"><title>element&#45;&gt;element_relationship</title>
<path style="fill:none;stroke:black;" d="M385,27C392,27 401,27 409,26"/>
<polygon style="fill:black;stroke:black;" points="409,25 412,26 409,27 409,25"/>
</g>
<!-- elementresult_relationship -->
<g id="node29" class="node"><title>elementresult_relationship</title>
<polygon style="fill:white;stroke:black;" points="132,42 232,42 232,8 132,8 132,42"/>
<text text-anchor="start" x="135" y="13" style="font-size:3.98pt;">{elementresult_relationship|&#45; elementresult_relationship_id </text>
<text text-anchor="start" x="135" y="17" style="font-size:3.98pt;">&#45; subject_id </text>
<text text-anchor="start" x="135" y="22" style="font-size:3.98pt;">&#45; type_id </text>
<text text-anchor="start" x="135" y="26" style="font-size:3.98pt;">&#45; object_id </text>
<text text-anchor="start" x="135" y="31" style="font-size:3.98pt;">&#45; value </text>
<text text-anchor="start" x="135" y="35" style="font-size:3.98pt;">&#45; rank </text>
<text text-anchor="middle" x="182" y="40" style="font-size:3.98pt;">}</text>
</g>
<!-- elementresult&#45;&gt;elementresult_relationship -->
<g id="edge52" class="edge"><title>elementresult&#45;&gt;elementresult_relationship</title>
<path style="fill:none;stroke:black;" d="M249,27C245,27 240,27 235,27"/>
<polygon style="fill:black;stroke:black;" points="235,28 232,27 235,26 235,28"/>
</g>
<!-- study -->
<g id="node30" class="node"><title>study</title>
<polygon style="fill:white;stroke:black;" points="669,81 702,81 702,47 669,47 669,81"/>
<text text-anchor="start" x="671" y="52" style="font-size:3.98pt;">{study|&#45; study_id </text>
<text text-anchor="start" x="671" y="57" style="font-size:3.98pt;">&#45; contact_id </text>
<text text-anchor="start" x="671" y="61" style="font-size:3.98pt;">&#45; pub_id </text>
<text text-anchor="start" x="671" y="66" style="font-size:3.98pt;">&#45; dbxref_id </text>
<text text-anchor="start" x="671" y="70" style="font-size:3.98pt;">&#45; name </text>
<text text-anchor="start" x="671" y="75" style="font-size:3.98pt;">&#45; description </text>
<text text-anchor="middle" x="686" y="79" style="font-size:3.98pt;">}</text>
</g>
<!-- study&#45;&gt;study_assay -->
<g id="edge74" class="edge"><title>study&#45;&gt;study_assay</title>
<path style="fill:none;stroke:black;" d="M672,81C651,107 611,155 593,178"/>
<polygon style="fill:black;stroke:black;" points="593,178 591,180 592,177 593,178"/>
</g>
<!-- studydesign -->
<g id="node32" class="node"><title>studydesign</title>
<polygon style="fill:white;stroke:black;" points="554,368 608,368 608,347 554,347 554,368"/>
<text text-anchor="start" x="557" y="352" style="font-size:3.98pt;">{studydesign|&#45; studydesign_id </text>
<text text-anchor="start" x="557" y="357" style="font-size:3.98pt;">&#45; study_id </text>
<text text-anchor="start" x="557" y="361" style="font-size:3.98pt;">&#45; description </text>
<text text-anchor="middle" x="581" y="366" style="font-size:3.98pt;">}</text>
</g>
<!-- study&#45;&gt;studydesign -->
<g id="edge76" class="edge"><title>study&#45;&gt;studydesign</title>
<path style="fill:none;stroke:black;" d="M680,81C660,135 603,297 586,345"/>
<polygon style="fill:black;stroke:black;" points="587,345 585,347 585,344 587,345"/>
</g>
<!-- studydesignprop -->
<g id="node33" class="node"><title>studydesignprop</title>
<polygon style="fill:white;stroke:black;" points="655,285 724,285 724,256 655,256 655,285"/>
<text text-anchor="start" x="658" y="260" style="font-size:3.98pt;">{studydesignprop|&#45; studydesignprop_id </text>
<text text-anchor="start" x="658" y="265" style="font-size:3.98pt;">&#45; studydesign_id </text>
<text text-anchor="start" x="658" y="270" style="font-size:3.98pt;">&#45; type_id </text>
<text text-anchor="start" x="658" y="274" style="font-size:3.98pt;">&#45; value </text>
<text text-anchor="start" x="658" y="279" style="font-size:3.98pt;">&#45; rank </text>
<text text-anchor="middle" x="690" y="283" style="font-size:3.98pt;">}</text>
</g>
<!-- studydesign&#45;&gt;studydesignprop -->
<g id="edge78" class="edge"><title>studydesign&#45;&gt;studydesignprop</title>
<path style="fill:none;stroke:black;" d="M594,347C612,333 647,305 669,287"/>
<polygon style="fill:black;stroke:black;" points="668,286 671,285 669,288 668,286"/>
</g>
<!-- studyfactor -->
<g id="node34" class="node"><title>studyfactor</title>
<polygon style="fill:white;stroke:black;" points="655,488 707,488 707,458 655,458 655,488"/>
<text text-anchor="start" x="658" y="463" style="font-size:3.98pt;">{studyfactor|&#45; studyfactor_id </text>
<text text-anchor="start" x="658" y="468" style="font-size:3.98pt;">&#45; studydesign_id </text>
<text text-anchor="start" x="658" y="472" style="font-size:3.98pt;">&#45; type_id </text>
<text text-anchor="start" x="658" y="477" style="font-size:3.98pt;">&#45; name </text>
<text text-anchor="start" x="658" y="481" style="font-size:3.98pt;">&#45; description </text>
<text text-anchor="middle" x="681" y="486" style="font-size:3.98pt;">}</text>
</g>
<!-- studydesign&#45;&gt;studyfactor -->
<g id="edge80" class="edge"><title>studydesign&#45;&gt;studyfactor</title>
<path style="fill:none;stroke:black;" d="M590,368C607,388 645,432 666,456"/>
<polygon style="fill:black;stroke:black;" points="667,456 668,458 666,457 667,456"/>
</g>
<!-- studyfactor&#45;&gt;studyfactorvalue -->
<g id="edge82" class="edge"><title>studyfactor&#45;&gt;studyfactorvalue</title>
<path style="fill:none;stroke:black;" d="M668,458C638,424 563,340 529,302"/>
<polygon style="fill:black;stroke:black;" points="529,303 527,300 530,301 529,303"/>
</g>
</g>
</svg>
