<?xml version="1.0" encoding="UTF-8" standalone="no"?>
<!DOCTYPE svg PUBLIC "-//W3C//DTD SVG 1.0//EN"
 "http://www.w3.org/TR/2001/REC-SVG-20010904/DTD/svg10.dtd" [
 <!ATTLIST svg xmlns:xlink CDATA #FIXED "http://www.w3.org/1999/xlink">
]>
<!-- Generated by Graphviz version 2.12 (Tue Sep  4 16:56:48 UTC 2007)
     For user: (scott) Scott Cain,,, -->
<!-- Title: test Pages: 1 -->
<svg width="9.97in" height="7.99in"
 xmlns="http://www.w3.org/2000/svg" xmlns:xlink="http://www.w3.org/1999/xlink">
<g id="graph0" class="graph" transform="scale(0.762661 0.762661) rotate(0) translate(4 1003)">
<title>test</title>
<polygon style="fill:white;stroke:white;" points="-4,4 -4,-1003 1252,-1003 1252,4 -4,4"/>
<!-- feature -->
<g id="node1" class="node"><title>feature</title>
<polygon style="fill:white;stroke:black;" points="546,-362 546,-658 670,-658 670,-362 546,-362"/>
<text text-anchor="middle" x="608" y="-640" style="font-family:Nimbus Roman No9 L;font-weight:regular;font-size:11.34pt;">feature</text>
<polyline style="fill:none;stroke:black;" points="546,-630 670,-630 "/>
<text text-anchor="start" x="554" y="-612" style="font-family:Nimbus Roman No9 L;font-weight:regular;font-size:11.34pt;">&#45; feature_id </text>
<text text-anchor="start" x="554" y="-592" style="font-family:Nimbus Roman No9 L;font-weight:regular;font-size:11.34pt;">&#45; dbxref_id </text>
<text text-anchor="start" x="554" y="-572" style="font-family:Nimbus Roman No9 L;font-weight:regular;font-size:11.34pt;">&#45; organism_id </text>
<text text-anchor="start" x="554" y="-552" style="font-family:Nimbus Roman No9 L;font-weight:regular;font-size:11.34pt;">&#45; name </text>
<text text-anchor="start" x="554" y="-532" style="font-family:Nimbus Roman No9 L;font-weight:regular;font-size:11.34pt;">&#45; uniquename </text>
<text text-anchor="start" x="554" y="-512" style="font-family:Nimbus Roman No9 L;font-weight:regular;font-size:11.34pt;">&#45; residues </text>
<text text-anchor="start" x="554" y="-492" style="font-family:Nimbus Roman No9 L;font-weight:regular;font-size:11.34pt;">&#45; seqlen </text>
<text text-anchor="start" x="554" y="-472" style="font-family:Nimbus Roman No9 L;font-weight:regular;font-size:11.34pt;">&#45; md5checksum </text>
<text text-anchor="start" x="554" y="-452" style="font-family:Nimbus Roman No9 L;font-weight:regular;font-size:11.34pt;">&#45; type_id </text>
<text text-anchor="start" x="554" y="-432" style="font-family:Nimbus Roman No9 L;font-weight:regular;font-size:11.34pt;">&#45; is_analysis </text>
<text text-anchor="start" x="554" y="-412" style="font-family:Nimbus Roman No9 L;font-weight:regular;font-size:11.34pt;">&#45; is_obsolete </text>
<text text-anchor="start" x="554" y="-392" style="font-family:Nimbus Roman No9 L;font-weight:regular;font-size:11.34pt;">&#45; timeaccessioned </text>
<text text-anchor="start" x="554" y="-372" style="font-family:Nimbus Roman No9 L;font-weight:regular;font-size:11.34pt;">&#45; timelastmodified </text>
</g>
<!-- featureloc -->
<g id="node2" class="node"><title>featureloc</title>
<polygon style="fill:white;stroke:black;" points="572,-1 572,-277 689,-277 689,-1 572,-1"/>
<text text-anchor="middle" x="630" y="-259" style="font-family:Nimbus Roman No9 L;font-weight:regular;font-size:11.34pt;">featureloc</text>
<polyline style="fill:none;stroke:black;" points="572,-249 689,-249 "/>
<text text-anchor="start" x="580" y="-231" style="font-family:Nimbus Roman No9 L;font-weight:regular;font-size:11.34pt;">&#45; featureloc_id </text>
<text text-anchor="start" x="580" y="-211" style="font-family:Nimbus Roman No9 L;font-weight:regular;font-size:11.34pt;">&#45; feature_id </text>
<text text-anchor="start" x="580" y="-191" style="font-family:Nimbus Roman No9 L;font-weight:regular;font-size:11.34pt;">&#45; srcfeature_id </text>
<text text-anchor="start" x="580" y="-171" style="font-family:Nimbus Roman No9 L;font-weight:regular;font-size:11.34pt;">&#45; fmin </text>
<text text-anchor="start" x="580" y="-151" style="font-family:Nimbus Roman No9 L;font-weight:regular;font-size:11.34pt;">&#45; is_fmin_partial </text>
<text text-anchor="start" x="580" y="-131" style="font-family:Nimbus Roman No9 L;font-weight:regular;font-size:11.34pt;">&#45; fmax </text>
<text text-anchor="start" x="580" y="-111" style="font-family:Nimbus Roman No9 L;font-weight:regular;font-size:11.34pt;">&#45; is_fmax_partial </text>
<text text-anchor="start" x="580" y="-91" style="font-family:Nimbus Roman No9 L;font-weight:regular;font-size:11.34pt;">&#45; strand </text>
<text text-anchor="start" x="580" y="-71" style="font-family:Nimbus Roman No9 L;font-weight:regular;font-size:11.34pt;">&#45; phase </text>
<text text-anchor="start" x="580" y="-51" style="font-family:Nimbus Roman No9 L;font-weight:regular;font-size:11.34pt;">&#45; residue_info </text>
<text text-anchor="start" x="580" y="-31" style="font-family:Nimbus Roman No9 L;font-weight:regular;font-size:11.34pt;">&#45; locgroup </text>
<text text-anchor="start" x="580" y="-11" style="font-family:Nimbus Roman No9 L;font-weight:regular;font-size:11.34pt;">&#45; rank </text>
</g>
<!-- feature&#45;&gt;featureloc -->
<g id="edge12" class="edge"><title>feature&#45;&gt;featureloc</title>
<path style="fill:none;stroke:black;" d="M617,-362C619,-337 620,-312 621,-287"/>
<polygon style="fill:black;stroke:black;" points="624.488,-287.299 622,-277 617.522,-286.602 624.488,-287.299"/>
</g>
<!-- feature_pub -->
<g id="node4" class="node"><title>feature_pub</title>
<polygon style="fill:white;stroke:black;" points="561,-686 561,-782 675,-782 675,-686 561,-686"/>
<text text-anchor="middle" x="618" y="-764" style="font-family:Nimbus Roman No9 L;font-weight:regular;font-size:11.34pt;">feature_pub</text>
<polyline style="fill:none;stroke:black;" points="561,-754 675,-754 "/>
<text text-anchor="start" x="569" y="-736" style="font-family:Nimbus Roman No9 L;font-weight:regular;font-size:11.34pt;">&#45; feature_pub_id </text>
<text text-anchor="start" x="569" y="-716" style="font-family:Nimbus Roman No9 L;font-weight:regular;font-size:11.34pt;">&#45; feature_id </text>
<text text-anchor="start" x="569" y="-696" style="font-family:Nimbus Roman No9 L;font-weight:regular;font-size:11.34pt;">&#45; pub_id </text>
</g>
<!-- feature&#45;&gt;feature_pub -->
<g id="edge6" class="edge"><title>feature&#45;&gt;feature_pub</title>
<path style="fill:none;stroke:black;" d="M615,-658C615,-664 615,-670 616,-676"/>
<polygon style="fill:black;stroke:black;" points="612.5,-676 616,-686 619.5,-676 612.5,-676"/>
</g>
<!-- featureprop -->
<g id="node6" class="node"><title>featureprop</title>
<polygon style="fill:white;stroke:black;" points="308,-575 308,-711 420,-711 420,-575 308,-575"/>
<text text-anchor="middle" x="364" y="-693" style="font-family:Nimbus Roman No9 L;font-weight:regular;font-size:11.34pt;">featureprop</text>
<polyline style="fill:none;stroke:black;" points="308,-683 420,-683 "/>
<text text-anchor="start" x="316" y="-665" style="font-family:Nimbus Roman No9 L;font-weight:regular;font-size:11.34pt;">&#45; featureprop_id </text>
<text text-anchor="start" x="316" y="-645" style="font-family:Nimbus Roman No9 L;font-weight:regular;font-size:11.34pt;">&#45; feature_id </text>
<text text-anchor="start" x="316" y="-625" style="font-family:Nimbus Roman No9 L;font-weight:regular;font-size:11.34pt;">&#45; type_id </text>
<text text-anchor="start" x="316" y="-605" style="font-family:Nimbus Roman No9 L;font-weight:regular;font-size:11.34pt;">&#45; value </text>
<text text-anchor="start" x="316" y="-585" style="font-family:Nimbus Roman No9 L;font-weight:regular;font-size:11.34pt;">&#45; rank </text>
</g>
<!-- feature&#45;&gt;featureprop -->
<g id="edge14" class="edge"><title>feature&#45;&gt;featureprop</title>
<path style="fill:none;stroke:black;" d="M546,-544C510,-563 466,-588 429,-607"/>
<polygon style="fill:black;stroke:black;" points="427.042,-604.084 420,-612 430.441,-610.203 427.042,-604.084"/>
</g>
<!-- feature_dbxref -->
<g id="node8" class="node"><title>feature_dbxref</title>
<polygon style="fill:white;stroke:black;" points="725,-323 725,-439 855,-439 855,-323 725,-323"/>
<text text-anchor="middle" x="790" y="-421" style="font-family:Nimbus Roman No9 L;font-weight:regular;font-size:11.34pt;">feature_dbxref</text>
<polyline style="fill:none;stroke:black;" points="725,-411 855,-411 "/>
<text text-anchor="start" x="733" y="-393" style="font-family:Nimbus Roman No9 L;font-weight:regular;font-size:11.34pt;">&#45; feature_dbxref_id </text>
<text text-anchor="start" x="733" y="-373" style="font-family:Nimbus Roman No9 L;font-weight:regular;font-size:11.34pt;">&#45; feature_id </text>
<text text-anchor="start" x="733" y="-353" style="font-family:Nimbus Roman No9 L;font-weight:regular;font-size:11.34pt;">&#45; dbxref_id </text>
<text text-anchor="start" x="733" y="-333" style="font-family:Nimbus Roman No9 L;font-weight:regular;font-size:11.34pt;">&#45; is_current </text>
</g>
<!-- feature&#45;&gt;feature_dbxref -->
<g id="edge4" class="edge"><title>feature&#45;&gt;feature_dbxref</title>
<path style="fill:none;stroke:black;" d="M670,-466C685,-456 701,-444 716,-433"/>
<polygon style="fill:black;stroke:black;" points="718.621,-435.459 725,-427 714.738,-429.635 718.621,-435.459"/>
</g>
<!-- feature_relationship -->
<g id="node9" class="node"><title>feature_relationship</title>
<polygon style="fill:white;stroke:black;" points="331,-295 331,-451 490,-451 490,-295 331,-295"/>
<text text-anchor="middle" x="410" y="-433" style="font-family:Nimbus Roman No9 L;font-weight:regular;font-size:11.34pt;">feature_relationship</text>
<polyline style="fill:none;stroke:black;" points="331,-423 490,-423 "/>
<text text-anchor="start" x="339" y="-405" style="font-family:Nimbus Roman No9 L;font-weight:regular;font-size:11.34pt;">&#45; feature_relationship_id </text>
<text text-anchor="start" x="339" y="-385" style="font-family:Nimbus Roman No9 L;font-weight:regular;font-size:11.34pt;">&#45; subject_id </text>
<text text-anchor="start" x="339" y="-365" style="font-family:Nimbus Roman No9 L;font-weight:regular;font-size:11.34pt;">&#45; object_id </text>
<text text-anchor="start" x="339" y="-345" style="font-family:Nimbus Roman No9 L;font-weight:regular;font-size:11.34pt;">&#45; type_id </text>
<text text-anchor="start" x="339" y="-325" style="font-family:Nimbus Roman No9 L;font-weight:regular;font-size:11.34pt;">&#45; value </text>
<text text-anchor="start" x="339" y="-305" style="font-family:Nimbus Roman No9 L;font-weight:regular;font-size:11.34pt;">&#45; rank </text>
</g>
<!-- feature&#45;&gt;feature_relationship -->
<g id="edge8" class="edge"><title>feature&#45;&gt;feature_relationship</title>
<path style="fill:none;stroke:black;" d="M546,-467C531,-457 515,-445 498,-434"/>
<polygon style="fill:black;stroke:black;" points="500.1,-431.2 490,-428 495.9,-436.8 500.1,-431.2"/>
</g>
<!-- feature_cvterm -->
<g id="node13" class="node"><title>feature_cvterm</title>
<polygon style="fill:white;stroke:black;" points="804,-560 804,-716 936,-716 936,-560 804,-560"/>
<text text-anchor="middle" x="870" y="-698" style="font-family:Nimbus Roman No9 L;font-weight:regular;font-size:11.34pt;">feature_cvterm</text>
<polyline style="fill:none;stroke:black;" points="804,-688 936,-688 "/>
<text text-anchor="start" x="812" y="-670" style="font-family:Nimbus Roman No9 L;font-weight:regular;font-size:11.34pt;">&#45; feature_cvterm_id </text>
<text text-anchor="start" x="812" y="-650" style="font-family:Nimbus Roman No9 L;font-weight:regular;font-size:11.34pt;">&#45; feature_id </text>
<text text-anchor="start" x="812" y="-630" style="font-family:Nimbus Roman No9 L;font-weight:regular;font-size:11.34pt;">&#45; cvterm_id </text>
<text text-anchor="start" x="812" y="-610" style="font-family:Nimbus Roman No9 L;font-weight:regular;font-size:11.34pt;">&#45; pub_id </text>
<text text-anchor="start" x="812" y="-590" style="font-family:Nimbus Roman No9 L;font-weight:regular;font-size:11.34pt;">&#45; is_not </text>
<text text-anchor="start" x="812" y="-570" style="font-family:Nimbus Roman No9 L;font-weight:regular;font-size:11.34pt;">&#45; rank </text>
</g>
<!-- feature&#45;&gt;feature_cvterm -->
<g id="edge2" class="edge"><title>feature&#45;&gt;feature_cvterm</title>
<path style="fill:none;stroke:black;" d="M670,-540C708,-559 755,-581 795,-601"/>
<polygon style="fill:black;stroke:black;" points="793.559,-604.203 804,-606 796.958,-598.084 793.559,-604.203"/>
</g>
<!-- feature_synonym -->
<g id="node18" class="node"><title>feature_synonym</title>
<polygon style="fill:white;stroke:black;" points="1030,-314 1030,-470 1174,-470 1174,-314 1030,-314"/>
<text text-anchor="middle" x="1102" y="-452" style="font-family:Nimbus Roman No9 L;font-weight:regular;font-size:11.34pt;">feature_synonym</text>
<polyline style="fill:none;stroke:black;" points="1030,-442 1174,-442 "/>
<text text-anchor="start" x="1038" y="-424" style="font-family:Nimbus Roman No9 L;font-weight:regular;font-size:11.34pt;">&#45; feature_synonym_id </text>
<text text-anchor="start" x="1038" y="-404" style="font-family:Nimbus Roman No9 L;font-weight:regular;font-size:11.34pt;">&#45; synonym_id </text>
<text text-anchor="start" x="1038" y="-384" style="font-family:Nimbus Roman No9 L;font-weight:regular;font-size:11.34pt;">&#45; feature_id </text>
<text text-anchor="start" x="1038" y="-364" style="font-family:Nimbus Roman No9 L;font-weight:regular;font-size:11.34pt;">&#45; pub_id </text>
<text text-anchor="start" x="1038" y="-344" style="font-family:Nimbus Roman No9 L;font-weight:regular;font-size:11.34pt;">&#45; is_current </text>
<text text-anchor="start" x="1038" y="-324" style="font-family:Nimbus Roman No9 L;font-weight:regular;font-size:11.34pt;">&#45; is_internal </text>
</g>
<!-- feature&#45;&gt;feature_synonym -->
<g id="edge10" class="edge"><title>feature&#45;&gt;feature_synonym</title>
<path style="fill:none;stroke:black;" d="M670,-495C759,-474 922,-435 1020,-411"/>
<polygon style="fill:black;stroke:black;" points="1020.88,-414.393 1030,-409 1019.51,-407.529 1020.88,-414.393"/>
</g>
<!-- featureloc_pub -->
<g id="node3" class="node"><title>featureloc_pub</title>
<polygon style="fill:white;stroke:black;" points="806,-68 806,-164 937,-164 937,-68 806,-68"/>
<text text-anchor="middle" x="871" y="-146" style="font-family:Nimbus Roman No9 L;font-weight:regular;font-size:11.34pt;">featureloc_pub</text>
<polyline style="fill:none;stroke:black;" points="806,-136 937,-136 "/>
<text text-anchor="start" x="814" y="-118" style="font-family:Nimbus Roman No9 L;font-weight:regular;font-size:11.34pt;">&#45; featureloc_pub_id </text>
<text text-anchor="start" x="814" y="-98" style="font-family:Nimbus Roman No9 L;font-weight:regular;font-size:11.34pt;">&#45; featureloc_id </text>
<text text-anchor="start" x="814" y="-78" style="font-family:Nimbus Roman No9 L;font-weight:regular;font-size:11.34pt;">&#45; pub_id </text>
</g>
<!-- featureloc&#45;&gt;featureloc_pub -->
<g id="edge30" class="edge"><title>featureloc&#45;&gt;featureloc_pub</title>
<path style="fill:none;stroke:black;" d="M689,-133C722,-130 761,-127 796,-123"/>
<polygon style="fill:black;stroke:black;" points="796.398,-126.478 806,-122 795.701,-119.512 796.398,-126.478"/>
</g>
<!-- feature_pubprop -->
<g id="node5" class="node"><title>feature_pubprop</title>
<polygon style="fill:white;stroke:black;" points="374,-862 374,-998 514,-998 514,-862 374,-862"/>
<text text-anchor="middle" x="444" y="-980" style="font-family:Nimbus Roman No9 L;font-weight:regular;font-size:11.34pt;">feature_pubprop</text>
<polyline style="fill:none;stroke:black;" points="374,-970 514,-970 "/>
<text text-anchor="start" x="382" y="-952" style="font-family:Nimbus Roman No9 L;font-weight:regular;font-size:11.34pt;">&#45; feature_pubprop_id </text>
<text text-anchor="start" x="382" y="-932" style="font-family:Nimbus Roman No9 L;font-weight:regular;font-size:11.34pt;">&#45; feature_pub_id </text>
<text text-anchor="start" x="382" y="-912" style="font-family:Nimbus Roman No9 L;font-weight:regular;font-size:11.34pt;">&#45; type_id </text>
<text text-anchor="start" x="382" y="-892" style="font-family:Nimbus Roman No9 L;font-weight:regular;font-size:11.34pt;">&#45; value </text>
<text text-anchor="start" x="382" y="-872" style="font-family:Nimbus Roman No9 L;font-weight:regular;font-size:11.34pt;">&#45; rank </text>
</g>
<!-- feature_pub&#45;&gt;feature_pubprop -->
<g id="edge22" class="edge"><title>feature_pub&#45;&gt;feature_pubprop</title>
<path style="fill:none;stroke:black;" d="M575,-782C556,-804 533,-830 511,-855"/>
<polygon style="fill:black;stroke:black;" points="508.596,-852.454 504,-862 513.546,-857.404 508.596,-852.454"/>
</g>
<!-- featureprop_pub -->
<g id="node7" class="node"><title>featureprop_pub</title>
<polygon style="fill:white;stroke:black;" points="46,-823 46,-919 186,-919 186,-823 46,-823"/>
<text text-anchor="middle" x="116" y="-901" style="font-family:Nimbus Roman No9 L;font-weight:regular;font-size:11.34pt;">featureprop_pub</text>
<polyline style="fill:none;stroke:black;" points="46,-891 186,-891 "/>
<text text-anchor="start" x="54" y="-873" style="font-family:Nimbus Roman No9 L;font-weight:regular;font-size:11.34pt;">&#45; featureprop_pub_id </text>
<text text-anchor="start" x="54" y="-853" style="font-family:Nimbus Roman No9 L;font-weight:regular;font-size:11.34pt;">&#45; featureprop_id </text>
<text text-anchor="start" x="54" y="-833" style="font-family:Nimbus Roman No9 L;font-weight:regular;font-size:11.34pt;">&#45; pub_id </text>
</g>
<!-- featureprop&#45;&gt;featureprop_pub -->
<g id="edge32" class="edge"><title>featureprop&#45;&gt;featureprop_pub</title>
<path style="fill:none;stroke:black;" d="M308,-695C268,-731 216,-779 175,-816"/>
<polygon style="fill:black;stroke:black;" points="172.596,-813.454 168,-823 177.546,-818.404 172.596,-813.454"/>
</g>
<!-- feature_relationship_pub -->
<g id="node10" class="node"><title>feature_relationship_pub</title>
<polygon style="fill:white;stroke:black;" points="299,-53 299,-149 486,-149 486,-53 299,-53"/>
<text text-anchor="middle" x="392" y="-131" style="font-family:Nimbus Roman No9 L;font-weight:regular;font-size:11.34pt;">feature_relationship_pub</text>
<polyline style="fill:none;stroke:black;" points="299,-121 486,-121 "/>
<text text-anchor="start" x="307" y="-103" style="font-family:Nimbus Roman No9 L;font-weight:regular;font-size:11.34pt;">&#45; feature_relationship_pub_id </text>
<text text-anchor="start" x="307" y="-83" style="font-family:Nimbus Roman No9 L;font-weight:regular;font-size:11.34pt;">&#45; feature_relationship_id </text>
<text text-anchor="start" x="307" y="-63" style="font-family:Nimbus Roman No9 L;font-weight:regular;font-size:11.34pt;">&#45; pub_id </text>
</g>
<!-- feature_relationship&#45;&gt;feature_relationship_pub -->
<g id="edge24" class="edge"><title>feature_relationship&#45;&gt;feature_relationship_pub</title>
<path style="fill:none;stroke:black;" d="M405,-295C402,-252 399,-199 396,-159"/>
<polygon style="fill:black;stroke:black;" points="399.478,-158.602 395,-149 392.512,-159.299 399.478,-158.602"/>
</g>
<!-- feature_relationshipprop -->
<g id="node11" class="node"><title>feature_relationshipprop</title>
<polygon style="fill:white;stroke:black;" points="13,-437 13,-573 198,-573 198,-437 13,-437"/>
<text text-anchor="middle" x="105" y="-555" style="font-family:Nimbus Roman No9 L;font-weight:regular;font-size:11.34pt;">feature_relationshipprop</text>
<polyline style="fill:none;stroke:black;" points="13,-545 198,-545 "/>
<text text-anchor="start" x="21" y="-527" style="font-family:Nimbus Roman No9 L;font-weight:regular;font-size:11.34pt;">&#45; feature_relationshipprop_id </text>
<text text-anchor="start" x="21" y="-507" style="font-family:Nimbus Roman No9 L;font-weight:regular;font-size:11.34pt;">&#45; feature_relationship_id </text>
<text text-anchor="start" x="21" y="-487" style="font-family:Nimbus Roman No9 L;font-weight:regular;font-size:11.34pt;">&#45; type_id </text>
<text text-anchor="start" x="21" y="-467" style="font-family:Nimbus Roman No9 L;font-weight:regular;font-size:11.34pt;">&#45; value </text>
<text text-anchor="start" x="21" y="-447" style="font-family:Nimbus Roman No9 L;font-weight:regular;font-size:11.34pt;">&#45; rank </text>
</g>
<!-- feature_relationship&#45;&gt;feature_relationshipprop -->
<g id="edge26" class="edge"><title>feature_relationship&#45;&gt;feature_relationshipprop</title>
<path style="fill:none;stroke:black;" d="M331,-407C293,-423 248,-443 207,-460"/>
<polygon style="fill:black;stroke:black;" points="205.717,-456.74 198,-464 208.56,-463.137 205.717,-456.74"/>
</g>
<!-- feature_relationshipprop_pub -->
<g id="node12" class="node"><title>feature_relationshipprop_pub</title>
<polygon style="fill:white;stroke:black;" points="2,-109 2,-205 215,-205 215,-109 2,-109"/>
<text text-anchor="middle" x="108" y="-187" style="font-family:Nimbus Roman No9 L;font-weight:regular;font-size:11.34pt;">feature_relationshipprop_pub</text>
<polyline style="fill:none;stroke:black;" points="2,-177 215,-177 "/>
<text text-anchor="start" x="10" y="-159" style="font-family:Nimbus Roman No9 L;font-weight:regular;font-size:11.34pt;">&#45; feature_relationshipprop_pub_id </text>
<text text-anchor="start" x="10" y="-139" style="font-family:Nimbus Roman No9 L;font-weight:regular;font-size:11.34pt;">&#45; feature_relationshipprop_id </text>
<text text-anchor="start" x="10" y="-119" style="font-family:Nimbus Roman No9 L;font-weight:regular;font-size:11.34pt;">&#45; pub_id </text>
</g>
<!-- feature_relationshipprop&#45;&gt;feature_relationshipprop_pub -->
<g id="edge28" class="edge"><title>feature_relationshipprop&#45;&gt;feature_relationshipprop_pub</title>
<path style="fill:none;stroke:black;" d="M106,-437C106,-372 107,-276 107,-215"/>
<polygon style="fill:black;stroke:black;" points="110.5,-215 107,-205 103.5,-215 110.5,-215"/>
</g>
<!-- feature_cvtermprop -->
<g id="node14" class="node"><title>feature_cvtermprop</title>
<polygon style="fill:white;stroke:black;" points="1043,-840 1043,-976 1201,-976 1201,-840 1043,-840"/>
<text text-anchor="middle" x="1122" y="-958" style="font-family:Nimbus Roman No9 L;font-weight:regular;font-size:11.34pt;">feature_cvtermprop</text>
<polyline style="fill:none;stroke:black;" points="1043,-948 1201,-948 "/>
<text text-anchor="start" x="1051" y="-930" style="font-family:Nimbus Roman No9 L;font-weight:regular;font-size:11.34pt;">&#45; feature_cvtermprop_id </text>
<text text-anchor="start" x="1051" y="-910" style="font-family:Nimbus Roman No9 L;font-weight:regular;font-size:11.34pt;">&#45; feature_cvterm_id </text>
<text text-anchor="start" x="1051" y="-890" style="font-family:Nimbus Roman No9 L;font-weight:regular;font-size:11.34pt;">&#45; type_id </text>
<text text-anchor="start" x="1051" y="-870" style="font-family:Nimbus Roman No9 L;font-weight:regular;font-size:11.34pt;">&#45; value </text>
<text text-anchor="start" x="1051" y="-850" style="font-family:Nimbus Roman No9 L;font-weight:regular;font-size:11.34pt;">&#45; rank </text>
</g>
<!-- feature_cvterm&#45;&gt;feature_cvtermprop -->
<g id="edge20" class="edge"><title>feature_cvterm&#45;&gt;feature_cvtermprop</title>
<path style="fill:none;stroke:black;" d="M936,-709C972,-747 1015,-794 1051,-832"/>
<polygon style="fill:black;stroke:black;" points="1048.78,-834.779 1058,-840 1054.05,-830.169 1048.78,-834.779"/>
</g>
<!-- feature_cvterm_dbxref -->
<g id="node15" class="node"><title>feature_cvterm_dbxref</title>
<polygon style="fill:white;stroke:black;" points="697,-879 697,-975 873,-975 873,-879 697,-879"/>
<text text-anchor="middle" x="785" y="-957" style="font-family:Nimbus Roman No9 L;font-weight:regular;font-size:11.34pt;">feature_cvterm_dbxref</text>
<polyline style="fill:none;stroke:black;" points="697,-947 873,-947 "/>
<text text-anchor="start" x="705" y="-929" style="font-family:Nimbus Roman No9 L;font-weight:regular;font-size:11.34pt;">&#45; feature_cvterm_dbxref_id </text>
<text text-anchor="start" x="705" y="-909" style="font-family:Nimbus Roman No9 L;font-weight:regular;font-size:11.34pt;">&#45; feature_cvterm_id </text>
<text text-anchor="start" x="705" y="-889" style="font-family:Nimbus Roman No9 L;font-weight:regular;font-size:11.34pt;">&#45; dbxref_id </text>
</g>
<!-- feature_cvterm&#45;&gt;feature_cvterm_dbxref -->
<g id="edge16" class="edge"><title>feature_cvterm&#45;&gt;feature_cvterm_dbxref</title>
<path style="fill:none;stroke:black;" d="M847,-716C833,-764 815,-825 802,-869"/>
<polygon style="fill:black;stroke:black;" points="798.521,-868.416 799,-879 805.226,-870.427 798.521,-868.416"/>
</g>
<!-- feature_cvterm_pub -->
<g id="node16" class="node"><title>feature_cvterm_pub</title>
<polygon style="fill:white;stroke:black;" points="1087,-578 1087,-674 1247,-674 1247,-578 1087,-578"/>
<text text-anchor="middle" x="1167" y="-656" style="font-family:Nimbus Roman No9 L;font-weight:regular;font-size:11.34pt;">feature_cvterm_pub</text>
<polyline style="fill:none;stroke:black;" points="1087,-646 1247,-646 "/>
<text text-anchor="start" x="1095" y="-628" style="font-family:Nimbus Roman No9 L;font-weight:regular;font-size:11.34pt;">&#45; feature_cvterm_pub_id </text>
<text text-anchor="start" x="1095" y="-608" style="font-family:Nimbus Roman No9 L;font-weight:regular;font-size:11.34pt;">&#45; feature_cvterm_id </text>
<text text-anchor="start" x="1095" y="-588" style="font-family:Nimbus Roman No9 L;font-weight:regular;font-size:11.34pt;">&#45; pub_id </text>
</g>
<!-- feature_cvterm&#45;&gt;feature_cvterm_pub -->
<g id="edge18" class="edge"><title>feature_cvterm&#45;&gt;feature_cvterm_pub</title>
<path style="fill:none;stroke:black;" d="M936,-635C978,-633 1032,-631 1077,-629"/>
<polygon style="fill:black;stroke:black;" points="1077,-632.5 1087,-629 1077,-625.5 1077,-632.5"/>
</g>
<!-- synonym -->
<g id="node17" class="node"><title>synonym</title>
<polygon style="fill:white;stroke:black;" points="1102,-69 1102,-185 1216,-185 1216,-69 1102,-69"/>
<text text-anchor="middle" x="1159" y="-167" style="font-family:Nimbus Roman No9 L;font-weight:regular;font-size:11.34pt;">synonym</text>
<polyline style="fill:none;stroke:black;" points="1102,-157 1216,-157 "/>
<text text-anchor="start" x="1110" y="-139" style="font-family:Nimbus Roman No9 L;font-weight:regular;font-size:11.34pt;">&#45; synonym_id </text>
<text text-anchor="start" x="1110" y="-119" style="font-family:Nimbus Roman No9 L;font-weight:regular;font-size:11.34pt;">&#45; name </text>
<text text-anchor="start" x="1110" y="-99" style="font-family:Nimbus Roman No9 L;font-weight:regular;font-size:11.34pt;">&#45; type_id </text>
<text text-anchor="start" x="1110" y="-79" style="font-family:Nimbus Roman No9 L;font-weight:regular;font-size:11.34pt;">&#45; synonym_sgml </text>
</g>
<!-- synonym&#45;&gt;feature_synonym -->
<g id="edge34" class="edge"><title>synonym&#45;&gt;feature_synonym</title>
<path style="fill:none;stroke:black;" d="M1146,-185C1139,-220 1130,-265 1121,-304"/>
<polygon style="fill:black;stroke:black;" points="1117.53,-303.508 1119,-314 1124.39,-304.881 1117.53,-303.508"/>
</g>
</g>
</svg>
