<?xml version="1.0" encoding="UTF-8" standalone="no"?>
<!DOCTYPE svg PUBLIC "-//W3C//DTD SVG 1.0//EN"
 "http://www.w3.org/TR/2001/REC-SVG-20010904/DTD/svg10.dtd">
<!-- Generated by neato version 2.2.1 (Wed Apr 13 22:41:22 UTC 2005)
     For user: (allenday) Allen Day            Title: test    Pages: 1 -->
<svg width="732pt" height="587pt"
 viewBox = "-1 -1 731 586"
 xmlns="http://www.w3.org/2000/svg">
<g id="graph0" class="graph" transform = "scale(0.475561)"
 style="font-family:Times-Roman;font-size:14.00;">
<title>test</title>
<g id="node1" class="node"><title>feature</title>
<polygon style="fill:white;stroke:black;" points="681,595 813,595 813,363 681,363 681,595"/>
<text text-anchor="start" x="689" y="380">{feature|&#45; feature_id </text>
<text text-anchor="start" x="689" y="396">&#45; dbxref_id </text>
<text text-anchor="start" x="689" y="412">&#45; organism_id </text>
<text text-anchor="start" x="689" y="428">&#45; name </text>
<text text-anchor="start" x="689" y="444">&#45; uniquename </text>
<text text-anchor="start" x="689" y="460">&#45; residues </text>
<text text-anchor="start" x="689" y="476">&#45; seqlen </text>
<text text-anchor="start" x="689" y="492">&#45; md5checksum </text>
<text text-anchor="start" x="689" y="508">&#45; type_id </text>
<text text-anchor="start" x="689" y="524">&#45; is_analysis </text>
<text text-anchor="start" x="689" y="540">&#45; is_obsolete </text>
<text text-anchor="start" x="689" y="556">&#45; timeaccessioned </text>
<text text-anchor="start" x="689" y="572">&#45; timelastmodified </text>
<text text-anchor="middle" x="747" y="588">}</text>
</g>
<g id="node2" class="node"><title>featureloc</title>
<polygon style="fill:white;stroke:black;" points="968,574 1134,574 1134,358 968,358 968,574"/>
<text text-anchor="start" x="976" y="375">{featureloc|&#45; featureloc_id </text>
<text text-anchor="start" x="976" y="391">&#45; feature_id </text>
<text text-anchor="start" x="976" y="407">&#45; srcfeature_id </text>
<text text-anchor="start" x="976" y="423">&#45; fmin </text>
<text text-anchor="start" x="976" y="439">&#45; is_fmin_partial </text>
<text text-anchor="start" x="976" y="455">&#45; fmax </text>
<text text-anchor="start" x="976" y="471">&#45; is_fmax_partial </text>
<text text-anchor="start" x="976" y="487">&#45; strand </text>
<text text-anchor="start" x="976" y="503">&#45; phase </text>
<text text-anchor="start" x="976" y="519">&#45; residue_info </text>
<text text-anchor="start" x="976" y="535">&#45; locgroup </text>
<text text-anchor="start" x="976" y="551">&#45; rank </text>
<text text-anchor="middle" x="1051" y="567">}</text>
</g>
<g id="edge12" class="edge"><title>feature&#45;&gt;featureloc</title>
<path style="fill:none;stroke:black;" d="M813,476C856,474 911,471 958,469"/>
<polygon style="fill:black;stroke:black;" points="958,465 968,469 958,472 958,465"/>
</g>
<g id="node3" class="node"><title>feature_pub</title>
<polygon style="fill:white;stroke:black;" points="439,822 627,822 627,750 439,750 439,822"/>
<text text-anchor="start" x="447" y="767">{feature_pub|&#45; feature_pub_id </text>
<text text-anchor="start" x="447" y="783">&#45; feature_id </text>
<text text-anchor="start" x="447" y="799">&#45; pub_id </text>
<text text-anchor="middle" x="533" y="815">}</text>
</g>
<g id="edge6" class="edge"><title>feature&#45;&gt;feature_pub</title>
<path style="fill:none;stroke:black;" d="M681,574C642,629 594,698 564,742"/>
<polygon style="fill:black;stroke:black;" points="567,744 558,750 561,740 567,744"/>
</g>
<g id="node4" class="node"><title>featureprop</title>
<polygon style="fill:white;stroke:black;" points="489,134 672,134 672,30 489,30 489,134"/>
<text text-anchor="start" x="497" y="47">{featureprop|&#45; featureprop_id </text>
<text text-anchor="start" x="497" y="63">&#45; feature_id </text>
<text text-anchor="start" x="497" y="79">&#45; type_id </text>
<text text-anchor="start" x="497" y="95">&#45; value </text>
<text text-anchor="start" x="497" y="111">&#45; rank </text>
<text text-anchor="middle" x="580" y="127">}</text>
</g>
<g id="edge14" class="edge"><title>feature&#45;&gt;featureprop</title>
<path style="fill:none;stroke:black;" d="M698,363C668,291 630,202 606,143"/>
<polygon style="fill:black;stroke:black;" points="603,145 602,134 609,142 603,145"/>
</g>
<g id="node6" class="node"><title>feature_dbxref</title>
<polygon style="fill:white;stroke:black;" points="337,479 555,479 555,391 337,391 337,479"/>
<text text-anchor="start" x="345" y="408">{feature_dbxref|&#45; feature_dbxref_id </text>
<text text-anchor="start" x="345" y="424">&#45; feature_id </text>
<text text-anchor="start" x="345" y="440">&#45; dbxref_id </text>
<text text-anchor="start" x="345" y="456">&#45; is_current </text>
<text text-anchor="middle" x="446" y="472">}</text>
</g>
<g id="edge4" class="edge"><title>feature&#45;&gt;feature_dbxref</title>
<path style="fill:none;stroke:black;" d="M681,469C647,464 604,458 565,452"/>
<polygon style="fill:black;stroke:black;" points="565,455 555,451 565,449 565,455"/>
</g>
<g id="node7" class="node"><title>feature_relationship</title>
<polygon style="fill:white;stroke:black;" points="787,862 1065,862 1065,742 787,742 787,862"/>
<text text-anchor="start" x="795" y="759">{feature_relationship|&#45; feature_relationship_id </text>
<text text-anchor="start" x="795" y="775">&#45; subject_id </text>
<text text-anchor="start" x="795" y="791">&#45; object_id </text>
<text text-anchor="start" x="795" y="807">&#45; type_id </text>
<text text-anchor="start" x="795" y="823">&#45; value </text>
<text text-anchor="start" x="795" y="839">&#45; rank </text>
<text text-anchor="middle" x="926" y="855">}</text>
</g>
<g id="edge8" class="edge"><title>feature&#45;&gt;feature_relationship</title>
<path style="fill:none;stroke:black;" d="M811,595C837,641 866,693 888,733"/>
<polygon style="fill:black;stroke:black;" points="891,732 893,742 885,735 891,732"/>
</g>
<g id="node11" class="node"><title>feature_cvterm</title>
<polygon style="fill:white;stroke:black;" points="470,1191 694,1191 694,1103 470,1103 470,1191"/>
<text text-anchor="start" x="478" y="1120">{feature_cvterm|&#45; feature_cvterm_id </text>
<text text-anchor="start" x="478" y="1136">&#45; feature_id </text>
<text text-anchor="start" x="478" y="1152">&#45; cvterm_id </text>
<text text-anchor="start" x="478" y="1168">&#45; pub_id </text>
<text text-anchor="middle" x="582" y="1184">}</text>
</g>
<g id="edge2" class="edge"><title>feature&#45;&gt;feature_cvterm</title>
<path style="fill:none;stroke:black;" d="M718,595C682,741 622,985 595,1093"/>
<polygon style="fill:black;stroke:black;" points="598,1094 593,1103 592,1093 598,1094"/>
</g>
<g id="node15" class="node"><title>feature_synonym</title>
<polygon style="fill:white;stroke:black;" points="812,149 1059,149 1059,29 812,29 812,149"/>
<text text-anchor="start" x="820" y="46">{feature_synonym|&#45; feature_synonym_id </text>
<text text-anchor="start" x="820" y="62">&#45; synonym_id </text>
<text text-anchor="start" x="820" y="78">&#45; feature_id </text>
<text text-anchor="start" x="820" y="94">&#45; pub_id </text>
<text text-anchor="start" x="820" y="110">&#45; is_current </text>
<text text-anchor="start" x="820" y="126">&#45; is_internal </text>
<text text-anchor="middle" x="935" y="142">}</text>
</g>
<g id="edge10" class="edge"><title>feature&#45;&gt;feature_synonym</title>
<path style="fill:none;stroke:black;" d="M803,363C835,297 874,215 901,158"/>
<polygon style="fill:black;stroke:black;" points="898,156 906,149 904,159 898,156"/>
</g>
<g id="node5" class="node"><title>featureprop_pub</title>
<polygon style="fill:white;stroke:black;" points="49,168 288,168 288,96 49,96 49,168"/>
<text text-anchor="start" x="57" y="113">{featureprop_pub|&#45; featureprop_pub_id </text>
<text text-anchor="start" x="57" y="129">&#45; featureprop_id </text>
<text text-anchor="start" x="57" y="145">&#45; pub_id </text>
<text text-anchor="middle" x="168" y="161">}</text>
</g>
<g id="edge26" class="edge"><title>featureprop&#45;&gt;featureprop_pub</title>
<path style="fill:none;stroke:black;" d="M489,93C433,100 360,109 298,116"/>
<polygon style="fill:black;stroke:black;" points="298,119 288,117 298,113 298,119"/>
</g>
<g id="node8" class="node"><title>feature_relationship_pub</title>
<polygon style="fill:white;stroke:black;" points="1186,680 1519,680 1519,608 1186,608 1186,680"/>
<text text-anchor="start" x="1194" y="625">{feature_relationship_pub|&#45; feature_relationship_pub_id </text>
<text text-anchor="start" x="1194" y="641">&#45; feature_relationship_id </text>
<text text-anchor="start" x="1194" y="657">&#45; pub_id </text>
<text text-anchor="middle" x="1352" y="673">}</text>
</g>
<g id="edge20" class="edge"><title>feature_relationship&#45;&gt;feature_relationship_pub</title>
<path style="fill:none;stroke:black;" d="M1065,750C1123,728 1190,704 1244,684"/>
<polygon style="fill:black;stroke:black;" points="1243,680 1254,680 1246,687 1243,680"/>
</g>
<g id="node9" class="node"><title>feature_relationshipprop</title>
<polygon style="fill:white;stroke:black;" points="768,1210 1096,1210 1096,1106 768,1106 768,1210"/>
<text text-anchor="start" x="776" y="1123">{feature_relationshipprop|&#45; feature_relationshipprop_id </text>
<text text-anchor="start" x="776" y="1139">&#45; feature_relationship_id </text>
<text text-anchor="start" x="776" y="1155">&#45; type_id </text>
<text text-anchor="start" x="776" y="1171">&#45; value </text>
<text text-anchor="start" x="776" y="1187">&#45; rank </text>
<text text-anchor="middle" x="932" y="1203">}</text>
</g>
<g id="edge22" class="edge"><title>feature_relationship&#45;&gt;feature_relationshipprop</title>
<path style="fill:none;stroke:black;" d="M927,862C928,927 930,1030 931,1096"/>
<polygon style="fill:black;stroke:black;" points="935,1096 931,1106 928,1096 935,1096"/>
</g>
<g id="node10" class="node"><title>feature_relationshipprop_pub</title>
<polygon style="fill:white;stroke:black;" points="1128,1139 1512,1139 1512,1067 1128,1067 1128,1139"/>
<text text-anchor="start" x="1136" y="1084">{feature_relationshipprop_pub|&#45; feature_relationshipprop_pub_id </text>
<text text-anchor="start" x="1136" y="1100">&#45; feature_relationshipprop_id </text>
<text text-anchor="start" x="1136" y="1116">&#45; pub_id </text>
<text text-anchor="middle" x="1320" y="1132">}</text>
</g>
<g id="edge24" class="edge"><title>feature_relationshipprop&#45;&gt;feature_relationshipprop_pub</title>
<path style="fill:none;stroke:black;" d="M1096,1135C1104,1134 1111,1133 1118,1132"/>
<polygon style="fill:black;stroke:black;" points="1118,1129 1128,1130 1119,1135 1118,1129"/>
</g>
<g id="node12" class="node"><title>feature_cvtermprop</title>
<polygon style="fill:white;stroke:black;" points="6,686 280,686 280,582 6,582 6,686"/>
<text text-anchor="start" x="14" y="599">{feature_cvtermprop|&#45; feature_cvtermprop_id </text>
<text text-anchor="start" x="14" y="615">&#45; feature_cvterm_id </text>
<text text-anchor="start" x="14" y="631">&#45; type_id </text>
<text text-anchor="start" x="14" y="647">&#45; value </text>
<text text-anchor="start" x="14" y="663">&#45; rank </text>
<text text-anchor="middle" x="143" y="679">}</text>
</g>
<g id="edge18" class="edge"><title>feature_cvterm&#45;&gt;feature_cvtermprop</title>
<path style="fill:none;stroke:black;" d="M544,1103C466,1010 284,798 195,694"/>
<polygon style="fill:black;stroke:black;" points="192,696 188,686 197,691 192,696"/>
</g>
<g id="node13" class="node"><title>feature_cvterm_dbxref</title>
<polygon style="fill:white;stroke:black;" points="25,1141 335,1141 335,1069 25,1069 25,1141"/>
<text text-anchor="start" x="33" y="1086">{feature_cvterm_dbxref|&#45; feature_cvterm_dbxref_id </text>
<text text-anchor="start" x="33" y="1102">&#45; feature_cvterm_id </text>
<text text-anchor="start" x="33" y="1118">&#45; dbxref_id </text>
<text text-anchor="middle" x="180" y="1134">}</text>
</g>
<g id="edge16" class="edge"><title>feature_cvterm&#45;&gt;feature_cvterm_dbxref</title>
<path style="fill:none;stroke:black;" d="M470,1135C431,1131 387,1127 345,1122"/>
<polygon style="fill:black;stroke:black;" points="345,1125 335,1121 345,1119 345,1125"/>
</g>
<g id="node14" class="node"><title>synonym</title>
<polygon style="fill:white;stroke:black;" points="1256,183 1413,183 1413,95 1256,95 1256,183"/>
<text text-anchor="start" x="1264" y="112">{synonym|&#45; synonym_id </text>
<text text-anchor="start" x="1264" y="128">&#45; name </text>
<text text-anchor="start" x="1264" y="144">&#45; type_id </text>
<text text-anchor="start" x="1264" y="160">&#45; synonym_sgml </text>
<text text-anchor="middle" x="1334" y="176">}</text>
</g>
<g id="edge28" class="edge"><title>synonym&#45;&gt;feature_synonym</title>
<path style="fill:none;stroke:black;" d="M1256,129C1203,122 1131,114 1069,106"/>
<polygon style="fill:black;stroke:black;" points="1069,109 1059,105 1069,103 1069,109"/>
</g>
</g>
</svg>
