<?xml version="1.0" encoding="UTF-8" standalone="no"?>
<!DOCTYPE svg PUBLIC "-//W3C//DTD SVG 1.1//EN"
 "http://www.w3.org/Graphics/SVG/1.1/DTD/svg11.dtd">
<!-- Generated by graphviz version 2.24.0 (20090616.2323)
 -->
<!-- Title: test Pages: 1 -->
<svg width="959pt" height="937pt"
 viewBox="0.00 0.00 958.50 937.00" xmlns="http://www.w3.org/2000/svg" xmlns:xlink="http://www.w3.org/1999/xlink">
<g id="graph1" class="graph" transform="scale(1 1) rotate(0) translate(4 933)">
<title>test</title>
<polygon fill="lightgoldenrodyellow" stroke="lightgoldenrodyellow" points="-4,5 -4,-933 955.5,-933 955.5,5 -4,5"/>
<!-- node1 -->
<g id="node1" class="node"><title>node1</title>
<polygon fill="white" stroke="black" points="505.5,-715.5 505.5,-927.5 630.5,-927.5 630.5,-715.5 505.5,-715.5"/>
<text text-anchor="middle" x="568" y="-910.9" font-family="Times,serif" font-size="14.00">feature</text>
<polyline fill="none" stroke="black" points="505.5,-905.5 630.5,-905.5 "/>
<text text-anchor="start" x="513.5" y="-888.9" font-family="Times,serif" font-size="14.00">&#45; feature_id</text>
<text text-anchor="start" x="513.5" y="-874.9" font-family="Times,serif" font-size="14.00">&#45; dbxref_id</text>
<text text-anchor="start" x="513.5" y="-860.9" font-family="Times,serif" font-size="14.00">&#45; organism_id</text>
<text text-anchor="start" x="513.5" y="-846.9" font-family="Times,serif" font-size="14.00">&#45; name</text>
<text text-anchor="start" x="513.5" y="-832.9" font-family="Times,serif" font-size="14.00">&#45; uniquename</text>
<text text-anchor="start" x="513.5" y="-818.9" font-family="Times,serif" font-size="14.00">&#45; residues</text>
<text text-anchor="start" x="513.5" y="-804.9" font-family="Times,serif" font-size="14.00">&#45; seqlen</text>
<text text-anchor="start" x="513.5" y="-790.9" font-family="Times,serif" font-size="14.00">&#45; md5checksum</text>
<text text-anchor="start" x="513.5" y="-776.9" font-family="Times,serif" font-size="14.00">&#45; type_id</text>
<text text-anchor="start" x="513.5" y="-762.9" font-family="Times,serif" font-size="14.00">&#45; is_analysis</text>
<text text-anchor="start" x="513.5" y="-748.9" font-family="Times,serif" font-size="14.00">&#45; is_obsolete</text>
<text text-anchor="start" x="513.5" y="-734.9" font-family="Times,serif" font-size="14.00">&#45; timeaccessioned</text>
<text text-anchor="start" x="513.5" y="-720.9" font-family="Times,serif" font-size="14.00">&#45; timelastmodified</text>
</g>
<!-- node2 -->
<g id="node2" class="node"><title>node2</title>
<polygon fill="white" stroke="black" points="673.5,-694.5 673.5,-892.5 786.5,-892.5 786.5,-694.5 673.5,-694.5"/>
<text text-anchor="middle" x="730" y="-875.9" font-family="Times,serif" font-size="14.00">featureloc</text>
<polyline fill="none" stroke="black" points="673.5,-870.5 786.5,-870.5 "/>
<text text-anchor="start" x="681.5" y="-853.9" font-family="Times,serif" font-size="14.00">&#45; featureloc_id</text>
<text text-anchor="start" x="681.5" y="-839.9" font-family="Times,serif" font-size="14.00">&#45; feature_id</text>
<text text-anchor="start" x="681.5" y="-825.9" font-family="Times,serif" font-size="14.00">&#45; srcfeature_id</text>
<text text-anchor="start" x="681.5" y="-811.9" font-family="Times,serif" font-size="14.00">&#45; fmin</text>
<text text-anchor="start" x="681.5" y="-797.9" font-family="Times,serif" font-size="14.00">&#45; is_fmin_partial</text>
<text text-anchor="start" x="681.5" y="-783.9" font-family="Times,serif" font-size="14.00">&#45; fmax</text>
<text text-anchor="start" x="681.5" y="-769.9" font-family="Times,serif" font-size="14.00">&#45; is_fmax_partial</text>
<text text-anchor="start" x="681.5" y="-755.9" font-family="Times,serif" font-size="14.00">&#45; strand</text>
<text text-anchor="start" x="681.5" y="-741.9" font-family="Times,serif" font-size="14.00">&#45; phase</text>
<text text-anchor="start" x="681.5" y="-727.9" font-family="Times,serif" font-size="14.00">&#45; residue_info</text>
<text text-anchor="start" x="681.5" y="-713.9" font-family="Times,serif" font-size="14.00">&#45; locgroup</text>
<text text-anchor="start" x="681.5" y="-699.9" font-family="Times,serif" font-size="14.00">&#45; rank</text>
</g>
<!-- node3 -->
<g id="node3" class="node"><title>node3</title>
<polygon fill="white" stroke="black" points="820.5,-841.5 820.5,-913.5 949.5,-913.5 949.5,-841.5 820.5,-841.5"/>
<text text-anchor="middle" x="885" y="-896.9" font-family="Times,serif" font-size="14.00">featureloc_pub</text>
<polyline fill="none" stroke="black" points="820.5,-891.5 949.5,-891.5 "/>
<text text-anchor="start" x="828.5" y="-874.9" font-family="Times,serif" font-size="14.00">&#45; featureloc_pub_id</text>
<text text-anchor="start" x="828.5" y="-860.9" font-family="Times,serif" font-size="14.00">&#45; featureloc_id</text>
<text text-anchor="start" x="828.5" y="-846.9" font-family="Times,serif" font-size="14.00">&#45; pub_id</text>
</g>
<!-- node4 -->
<g id="node4" class="node"><title>node4</title>
<polygon fill="white" stroke="black" points="1,-358.5 1,-430.5 111,-430.5 111,-358.5 1,-358.5"/>
<text text-anchor="middle" x="56" y="-413.9" font-family="Times,serif" font-size="14.00">feature_pub</text>
<polyline fill="none" stroke="black" points="1,-408.5 111,-408.5 "/>
<text text-anchor="start" x="9" y="-391.9" font-family="Times,serif" font-size="14.00">&#45; feature_pub_id</text>
<text text-anchor="start" x="9" y="-377.9" font-family="Times,serif" font-size="14.00">&#45; feature_id</text>
<text text-anchor="start" x="9" y="-363.9" font-family="Times,serif" font-size="14.00">&#45; pub_id</text>
</g>
<!-- node5 -->
<g id="node5" class="node"><title>node5</title>
<polygon fill="white" stroke="black" points="85.5,-673.5 85.5,-773.5 220.5,-773.5 220.5,-673.5 85.5,-673.5"/>
<text text-anchor="middle" x="153" y="-756.9" font-family="Times,serif" font-size="14.00">feature_pubprop</text>
<polyline fill="none" stroke="black" points="85.5,-751.5 220.5,-751.5 "/>
<text text-anchor="start" x="93.5" y="-734.9" font-family="Times,serif" font-size="14.00">&#45; feature_pubprop_id</text>
<text text-anchor="start" x="93.5" y="-720.9" font-family="Times,serif" font-size="14.00">&#45; feature_pub_id</text>
<text text-anchor="start" x="93.5" y="-706.9" font-family="Times,serif" font-size="14.00">&#45; type_id</text>
<text text-anchor="start" x="93.5" y="-692.9" font-family="Times,serif" font-size="14.00">&#45; value</text>
<text text-anchor="start" x="93.5" y="-678.9" font-family="Times,serif" font-size="14.00">&#45; rank</text>
</g>
<!-- node6 -->
<g id="node6" class="node"><title>node6</title>
<polygon fill="white" stroke="black" points="295,-85.5 295,-185.5 403,-185.5 403,-85.5 295,-85.5"/>
<text text-anchor="middle" x="349" y="-168.9" font-family="Times,serif" font-size="14.00">featureprop</text>
<polyline fill="none" stroke="black" points="295,-163.5 403,-163.5 "/>
<text text-anchor="start" x="303" y="-146.9" font-family="Times,serif" font-size="14.00">&#45; featureprop_id</text>
<text text-anchor="start" x="303" y="-132.9" font-family="Times,serif" font-size="14.00">&#45; feature_id</text>
<text text-anchor="start" x="303" y="-118.9" font-family="Times,serif" font-size="14.00">&#45; type_id</text>
<text text-anchor="start" x="303" y="-104.9" font-family="Times,serif" font-size="14.00">&#45; value</text>
<text text-anchor="start" x="303" y="-90.9" font-family="Times,serif" font-size="14.00">&#45; rank</text>
</g>
<!-- node7 -->
<g id="node7" class="node"><title>node7</title>
<polygon fill="white" stroke="black" points="106.5,-463.5 106.5,-535.5 241.5,-535.5 241.5,-463.5 106.5,-463.5"/>
<text text-anchor="middle" x="174" y="-518.9" font-family="Times,serif" font-size="14.00">featureprop_pub</text>
<polyline fill="none" stroke="black" points="106.5,-513.5 241.5,-513.5 "/>
<text text-anchor="start" x="114.5" y="-496.9" font-family="Times,serif" font-size="14.00">&#45; featureprop_pub_id</text>
<text text-anchor="start" x="114.5" y="-482.9" font-family="Times,serif" font-size="14.00">&#45; featureprop_id</text>
<text text-anchor="start" x="114.5" y="-468.9" font-family="Times,serif" font-size="14.00">&#45; pub_id</text>
</g>
<!-- node8 -->
<g id="node8" class="node"><title>node8</title>
<polygon fill="white" stroke="black" points="631,-1.5 631,-87.5 757,-87.5 757,-1.5 631,-1.5"/>
<text text-anchor="middle" x="694" y="-70.9" font-family="Times,serif" font-size="14.00">feature_dbxref</text>
<polyline fill="none" stroke="black" points="631,-65.5 757,-65.5 "/>
<text text-anchor="start" x="639" y="-48.9" font-family="Times,serif" font-size="14.00">&#45; feature_dbxref_id</text>
<text text-anchor="start" x="639" y="-34.9" font-family="Times,serif" font-size="14.00">&#45; feature_id</text>
<text text-anchor="start" x="639" y="-20.9" font-family="Times,serif" font-size="14.00">&#45; dbxref_id</text>
<text text-anchor="start" x="639" y="-6.9" font-family="Times,serif" font-size="14.00">&#45; is_current</text>
</g>
<!-- node9 -->
<g id="node9" class="node"><title>node9</title>
<polygon fill="white" stroke="black" points="715.5,-127.5 715.5,-241.5 872.5,-241.5 872.5,-127.5 715.5,-127.5"/>
<text text-anchor="middle" x="794" y="-224.9" font-family="Times,serif" font-size="14.00">feature_relationship</text>
<polyline fill="none" stroke="black" points="715.5,-219.5 872.5,-219.5 "/>
<text text-anchor="start" x="723.5" y="-202.9" font-family="Times,serif" font-size="14.00">&#45; feature_relationship_id</text>
<text text-anchor="start" x="723.5" y="-188.9" font-family="Times,serif" font-size="14.00">&#45; subject_id</text>
<text text-anchor="start" x="723.5" y="-174.9" font-family="Times,serif" font-size="14.00">&#45; object_id</text>
<text text-anchor="start" x="723.5" y="-160.9" font-family="Times,serif" font-size="14.00">&#45; type_id</text>
<text text-anchor="start" x="723.5" y="-146.9" font-family="Times,serif" font-size="14.00">&#45; value</text>
<text text-anchor="start" x="723.5" y="-132.9" font-family="Times,serif" font-size="14.00">&#45; rank</text>
</g>
<!-- node10 -->
<g id="node10" class="node"><title>node10</title>
<polygon fill="white" stroke="black" points="736,-526.5 736,-598.5 920,-598.5 920,-526.5 736,-526.5"/>
<text text-anchor="middle" x="828" y="-581.9" font-family="Times,serif" font-size="14.00">feature_relationship_pub</text>
<polyline fill="none" stroke="black" points="736,-576.5 920,-576.5 "/>
<text text-anchor="start" x="744" y="-559.9" font-family="Times,serif" font-size="14.00">&#45; feature_relationship_pub_id</text>
<text text-anchor="start" x="744" y="-545.9" font-family="Times,serif" font-size="14.00">&#45; feature_relationship_id</text>
<text text-anchor="start" x="744" y="-531.9" font-family="Times,serif" font-size="14.00">&#45; pub_id</text>
</g>
<!-- node11 -->
<g id="node11" class="node"><title>node11</title>
<polygon fill="white" stroke="black" points="274.5,-820.5 274.5,-920.5 457.5,-920.5 457.5,-820.5 274.5,-820.5"/>
<text text-anchor="middle" x="366" y="-903.9" font-family="Times,serif" font-size="14.00">feature_relationshipprop</text>
<polyline fill="none" stroke="black" points="274.5,-898.5 457.5,-898.5 "/>
<text text-anchor="start" x="282.5" y="-881.9" font-family="Times,serif" font-size="14.00">&#45; feature_relationshipprop_id</text>
<text text-anchor="start" x="282.5" y="-867.9" font-family="Times,serif" font-size="14.00">&#45; feature_relationship_id</text>
<text text-anchor="start" x="282.5" y="-853.9" font-family="Times,serif" font-size="14.00">&#45; type_id</text>
<text text-anchor="start" x="282.5" y="-839.9" font-family="Times,serif" font-size="14.00">&#45; value</text>
<text text-anchor="start" x="282.5" y="-825.9" font-family="Times,serif" font-size="14.00">&#45; rank</text>
</g>
<!-- node12 -->
<g id="node12" class="node"><title>node12</title>
<polygon fill="white" stroke="black" points="253,-715.5 253,-787.5 463,-787.5 463,-715.5 253,-715.5"/>
<text text-anchor="middle" x="358" y="-770.9" font-family="Times,serif" font-size="14.00">feature_relationshipprop_pub</text>
<polyline fill="none" stroke="black" points="253,-765.5 463,-765.5 "/>
<text text-anchor="start" x="261" y="-748.9" font-family="Times,serif" font-size="14.00">&#45; feature_relationshipprop_pub_id</text>
<text text-anchor="start" x="261" y="-734.9" font-family="Times,serif" font-size="14.00">&#45; feature_relationshipprop_id</text>
<text text-anchor="start" x="261" y="-720.9" font-family="Times,serif" font-size="14.00">&#45; pub_id</text>
</g>
<!-- node13 -->
<g id="node13" class="node"><title>node13</title>
<polygon fill="white" stroke="black" points="820.5,-694.5 820.5,-808.5 949.5,-808.5 949.5,-694.5 820.5,-694.5"/>
<text text-anchor="middle" x="885" y="-791.9" font-family="Times,serif" font-size="14.00">feature_cvterm</text>
<polyline fill="none" stroke="black" points="820.5,-786.5 949.5,-786.5 "/>
<text text-anchor="start" x="828.5" y="-769.9" font-family="Times,serif" font-size="14.00">&#45; feature_cvterm_id</text>
<text text-anchor="start" x="828.5" y="-755.9" font-family="Times,serif" font-size="14.00">&#45; feature_id</text>
<text text-anchor="start" x="828.5" y="-741.9" font-family="Times,serif" font-size="14.00">&#45; cvterm_id</text>
<text text-anchor="start" x="828.5" y="-727.9" font-family="Times,serif" font-size="14.00">&#45; pub_id</text>
<text text-anchor="start" x="828.5" y="-713.9" font-family="Times,serif" font-size="14.00">&#45; is_not</text>
<text text-anchor="start" x="828.5" y="-699.9" font-family="Times,serif" font-size="14.00">&#45; rank</text>
</g>
<!-- node14 -->
<g id="node14" class="node"><title>node14</title>
<polygon fill="white" stroke="black" points="85.5,-820.5 85.5,-920.5 240.5,-920.5 240.5,-820.5 85.5,-820.5"/>
<text text-anchor="middle" x="163" y="-903.9" font-family="Times,serif" font-size="14.00">feature_cvtermprop</text>
<polyline fill="none" stroke="black" points="85.5,-898.5 240.5,-898.5 "/>
<text text-anchor="start" x="93.5" y="-881.9" font-family="Times,serif" font-size="14.00">&#45; feature_cvtermprop_id</text>
<text text-anchor="start" x="93.5" y="-867.9" font-family="Times,serif" font-size="14.00">&#45; feature_cvterm_id</text>
<text text-anchor="start" x="93.5" y="-853.9" font-family="Times,serif" font-size="14.00">&#45; type_id</text>
<text text-anchor="start" x="93.5" y="-839.9" font-family="Times,serif" font-size="14.00">&#45; value</text>
<text text-anchor="start" x="93.5" y="-825.9" font-family="Times,serif" font-size="14.00">&#45; rank</text>
</g>
<!-- node15 -->
<g id="node15" class="node"><title>node15</title>
<polygon fill="white" stroke="black" points="757.5,-337.5 757.5,-409.5 930.5,-409.5 930.5,-337.5 757.5,-337.5"/>
<text text-anchor="middle" x="844" y="-392.9" font-family="Times,serif" font-size="14.00">feature_cvterm_dbxref</text>
<polyline fill="none" stroke="black" points="757.5,-387.5 930.5,-387.5 "/>
<text text-anchor="start" x="765.5" y="-370.9" font-family="Times,serif" font-size="14.00">&#45; feature_cvterm_dbxref_id</text>
<text text-anchor="start" x="765.5" y="-356.9" font-family="Times,serif" font-size="14.00">&#45; feature_cvterm_id</text>
<text text-anchor="start" x="765.5" y="-342.9" font-family="Times,serif" font-size="14.00">&#45; dbxref_id</text>
</g>
<!-- node16 -->
<g id="node16" class="node"><title>node16</title>
<polygon fill="white" stroke="black" points="106,-127.5 106,-199.5 262,-199.5 262,-127.5 106,-127.5"/>
<text text-anchor="middle" x="184" y="-182.9" font-family="Times,serif" font-size="14.00">feature_cvterm_pub</text>
<polyline fill="none" stroke="black" points="106,-177.5 262,-177.5 "/>
<text text-anchor="start" x="114" y="-160.9" font-family="Times,serif" font-size="14.00">&#45; feature_cvterm_pub_id</text>
<text text-anchor="start" x="114" y="-146.9" font-family="Times,serif" font-size="14.00">&#45; feature_cvterm_id</text>
<text text-anchor="start" x="114" y="-132.9" font-family="Times,serif" font-size="14.00">&#45; pub_id</text>
</g>
<!-- node17 -->
<g id="node17" class="node"><title>node17</title>
<polygon fill="white" stroke="black" points="799.5,-1.5 799.5,-87.5 912.5,-87.5 912.5,-1.5 799.5,-1.5"/>
<text text-anchor="middle" x="856" y="-70.9" font-family="Times,serif" font-size="14.00">synonym</text>
<polyline fill="none" stroke="black" points="799.5,-65.5 912.5,-65.5 "/>
<text text-anchor="start" x="807.5" y="-48.9" font-family="Times,serif" font-size="14.00">&#45; synonym_id</text>
<text text-anchor="start" x="807.5" y="-34.9" font-family="Times,serif" font-size="14.00">&#45; name</text>
<text text-anchor="start" x="807.5" y="-20.9" font-family="Times,serif" font-size="14.00">&#45; type_id</text>
<text text-anchor="start" x="807.5" y="-6.9" font-family="Times,serif" font-size="14.00">&#45; synonym_sgml</text>
</g>
<!-- node18 -->
<g id="node18" class="node"><title>node18</title>
<polygon fill="white" stroke="black" points="442,-85.5 442,-199.5 584,-199.5 584,-85.5 442,-85.5"/>
<text text-anchor="middle" x="513" y="-182.9" font-family="Times,serif" font-size="14.00">feature_synonym</text>
<polyline fill="none" stroke="black" points="442,-177.5 584,-177.5 "/>
<text text-anchor="start" x="450" y="-160.9" font-family="Times,serif" font-size="14.00">&#45; feature_synonym_id</text>
<text text-anchor="start" x="450" y="-146.9" font-family="Times,serif" font-size="14.00">&#45; synonym_id</text>
<text text-anchor="start" x="450" y="-132.9" font-family="Times,serif" font-size="14.00">&#45; feature_id</text>
<text text-anchor="start" x="450" y="-118.9" font-family="Times,serif" font-size="14.00">&#45; pub_id</text>
<text text-anchor="start" x="450" y="-104.9" font-family="Times,serif" font-size="14.00">&#45; is_current</text>
<text text-anchor="start" x="450" y="-90.9" font-family="Times,serif" font-size="14.00">&#45; is_internal</text>
</g>
<!-- feature -->
<g id="node19" class="node"><title>feature</title>
<polygon fill="white" stroke="black" points="437.617,-465.571 437.617,-501.571 492.617,-501.571 492.617,-465.571 437.617,-465.571"/>
<text text-anchor="middle" x="465.117" y="-477.971" font-family="Times,serif" font-size="14.00">feature</text>
</g>
<!-- featureloc -->
<g id="node20" class="node"><title>featureloc</title>
<polygon fill="white" stroke="black" points="437.65,-233.331 437.65,-269.331 511.65,-269.331 511.65,-233.331 437.65,-233.331"/>
<text text-anchor="middle" x="474.65" y="-245.731" font-family="Times,serif" font-size="14.00">featureloc</text>
</g>
<!-- feature&#45;&gt;featureloc -->
<g id="edge12" class="edge"><title>feature&#45;&gt;featureloc</title>
<path fill="none" stroke="black" d="M465.865,-465.348C467.522,-424.986 471.51,-327.821 473.492,-279.54"/>
<polygon fill="black" stroke="black" points="476.992,-279.605 473.905,-269.47 469.998,-279.318 476.992,-279.605"/>
</g>
<!-- feature_pub -->
<g id="node22" class="node"><title>feature_pub</title>
<polygon fill="white" stroke="black" points="395.808,-594.547 395.808,-630.547 477.808,-630.547 477.808,-594.547 395.808,-594.547"/>
<text text-anchor="middle" x="436.808" y="-606.947" font-family="Times,serif" font-size="14.00">feature_pub</text>
</g>
<!-- feature&#45;&gt;feature_pub -->
<g id="edge6" class="edge"><title>feature&#45;&gt;feature_pub</title>
<path fill="none" stroke="black" d="M461.121,-501.777C456.4,-523.285 448.493,-559.311 442.983,-584.417"/>
<polygon fill="black" stroke="black" points="439.509,-583.916 440.784,-594.434 446.347,-585.417 439.509,-583.916"/>
</g>
<!-- featureprop -->
<g id="node24" class="node"><title>featureprop</title>
<polygon fill="white" stroke="black" points="280.636,-489.899 280.636,-525.899 361.636,-525.899 361.636,-489.899 280.636,-489.899"/>
<text text-anchor="middle" x="321.136" y="-502.299" font-family="Times,serif" font-size="14.00">featureprop</text>
</g>
<!-- feature&#45;&gt;featureprop -->
<g id="edge14" class="edge"><title>feature&#45;&gt;featureprop</title>
<path fill="none" stroke="black" d="M437.356,-488.262C418.79,-491.399 393.815,-495.618 371.776,-499.342"/>
<polygon fill="black" stroke="black" points="371.167,-495.895 361.89,-501.013 372.334,-502.798 371.167,-495.895"/>
</g>
<!-- feature_dbxref -->
<g id="node26" class="node"><title>feature_dbxref</title>
<polygon fill="white" stroke="black" points="485.245,-366.078 485.245,-402.078 584.245,-402.078 584.245,-366.078 485.245,-366.078"/>
<text text-anchor="middle" x="534.745" y="-378.478" font-family="Times,serif" font-size="14.00">feature_dbxref</text>
</g>
<!-- feature&#45;&gt;feature_dbxref -->
<g id="edge4" class="edge"><title>feature&#45;&gt;feature_dbxref</title>
<path fill="none" stroke="black" d="M477.888,-465.323C488.586,-450.036 504.002,-428.007 516.083,-410.743"/>
<polygon fill="black" stroke="black" points="519.189,-412.411 522.055,-402.211 513.453,-408.397 519.189,-412.411"/>
</g>
<!-- feature_relationship -->
<g id="node27" class="node"><title>feature_relationship</title>
<polygon fill="white" stroke="black" points="329.83,-355.702 329.83,-391.702 458.83,-391.702 458.83,-355.702 329.83,-355.702"/>
<text text-anchor="middle" x="394.33" y="-368.102" font-family="Times,serif" font-size="14.00">feature_relationship</text>
</g>
<!-- feature&#45;&gt;feature_relationship -->
<g id="edge8" class="edge"><title>feature&#45;&gt;feature_relationship</title>
<path fill="none" stroke="black" d="M453.428,-465.428C442.003,-447.696 424.479,-420.497 411.477,-400.316"/>
<polygon fill="black" stroke="black" points="414.395,-398.382 406.037,-391.872 408.511,-402.174 414.395,-398.382"/>
</g>
<!-- feature_cvterm -->
<g id="node31" class="node"><title>feature_cvterm</title>
<polygon fill="white" stroke="black" points="549.857,-510.768 549.857,-546.768 651.857,-546.768 651.857,-510.768 549.857,-510.768"/>
<text text-anchor="middle" x="600.857" y="-523.168" font-family="Times,serif" font-size="14.00">feature_cvterm</text>
</g>
<!-- feature&#45;&gt;feature_cvterm -->
<g id="edge2" class="edge"><title>feature&#45;&gt;feature_cvterm</title>
<path fill="none" stroke="black" d="M492.913,-492.826C506.594,-497.382 523.66,-503.064 540.154,-508.556"/>
<polygon fill="black" stroke="black" points="539.176,-511.919 549.77,-511.758 541.388,-505.278 539.176,-511.919"/>
</g>
<!-- feature_synonym -->
<g id="node36" class="node"><title>feature_synonym</title>
<polygon fill="white" stroke="black" points="597.975,-378.448 597.975,-414.448 711.975,-414.448 711.975,-378.448 597.975,-378.448"/>
<text text-anchor="middle" x="654.975" y="-390.848" font-family="Times,serif" font-size="14.00">feature_synonym</text>
</g>
<!-- feature&#45;&gt;feature_synonym -->
<g id="edge10" class="edge"><title>feature&#45;&gt;feature_synonym</title>
<path fill="none" stroke="black" d="M492.724,-470.903C522.368,-457.299 570.058,-435.415 606.08,-418.885"/>
<polygon fill="black" stroke="black" points="607.807,-421.943 615.436,-414.591 604.888,-415.581 607.807,-421.943"/>
</g>
<!-- featureloc_pub -->
<g id="node21" class="node"><title>featureloc_pub</title>
<polygon fill="white" stroke="black" points="565.632,-232.378 565.632,-268.378 666.632,-268.378 666.632,-232.378 565.632,-232.378"/>
<text text-anchor="middle" x="616.132" y="-244.778" font-family="Times,serif" font-size="14.00">featureloc_pub</text>
</g>
<!-- featureloc&#45;&gt;featureloc_pub -->
<g id="edge30" class="edge"><title>featureloc&#45;&gt;featureloc_pub</title>
<path fill="none" stroke="black" d="M511.823,-251.081C525.127,-250.991 540.493,-250.888 555.273,-250.788"/>
<polygon fill="black" stroke="black" points="555.402,-254.288 565.378,-250.72 555.355,-247.288 555.402,-254.288"/>
</g>
<!-- feature_pubprop -->
<g id="node23" class="node"><title>feature_pubprop</title>
<polygon fill="white" stroke="black" points="245.294,-630.56 245.294,-666.56 353.294,-666.56 353.294,-630.56 245.294,-630.56"/>
<text text-anchor="middle" x="299.294" y="-642.96" font-family="Times,serif" font-size="14.00">feature_pubprop</text>
</g>
<!-- feature_pub&#45;&gt;feature_pubprop -->
<g id="edge22" class="edge"><title>feature_pub&#45;&gt;feature_pubprop</title>
<path fill="none" stroke="black" d="M395.549,-623.352C385.434,-626.001 374.368,-628.899 363.457,-631.756"/>
<polygon fill="black" stroke="black" points="362.299,-628.441 353.512,-634.361 364.073,-635.213 362.299,-628.441"/>
</g>
<!-- featureprop_pub -->
<g id="node25" class="node"><title>featureprop_pub</title>
<polygon fill="white" stroke="black" points="81.9859,-565.11 81.9859,-601.11 189.986,-601.11 189.986,-565.11 81.9859,-565.11"/>
<text text-anchor="middle" x="135.986" y="-577.51" font-family="Times,serif" font-size="14.00">featureprop_pub</text>
</g>
<!-- featureprop&#45;&gt;featureprop_pub -->
<g id="edge32" class="edge"><title>featureprop&#45;&gt;featureprop_pub</title>
<path fill="none" stroke="black" d="M280.504,-524.404C253.917,-535.204 218.878,-549.438 189.961,-561.185"/>
<polygon fill="black" stroke="black" points="188.357,-558.058 180.409,-565.065 190.991,-564.544 188.357,-558.058"/>
</g>
<!-- feature_relationship_pub -->
<g id="node28" class="node"><title>feature_relationship_pub</title>
<polygon fill="white" stroke="black" points="234.952,-232.157 234.952,-268.157 390.952,-268.157 390.952,-232.157 234.952,-232.157"/>
<text text-anchor="middle" x="312.952" y="-244.557" font-family="Times,serif" font-size="14.00">feature_relationship_pub</text>
</g>
<!-- feature_relationship&#45;&gt;feature_relationship_pub -->
<g id="edge24" class="edge"><title>feature_relationship&#45;&gt;feature_relationship_pub</title>
<path fill="none" stroke="black" d="M382.323,-355.473C368.68,-334.76 346.284,-300.76 330.641,-277.012"/>
<polygon fill="black" stroke="black" points="333.433,-274.887 325.009,-268.461 327.587,-278.738 333.433,-274.887"/>
</g>
<!-- feature_relationshipprop -->
<g id="node29" class="node"><title>feature_relationshipprop</title>
<polygon fill="white" stroke="black" points="151.172,-393.816 151.172,-429.816 306.172,-429.816 306.172,-393.816 151.172,-393.816"/>
<text text-anchor="middle" x="228.672" y="-406.216" font-family="Times,serif" font-size="14.00">feature_relationshipprop</text>
</g>
<!-- feature_relationship&#45;&gt;feature_relationshipprop -->
<g id="edge26" class="edge"><title>feature_relationship&#45;&gt;feature_relationshipprop</title>
<path fill="none" stroke="black" d="M329.808,-388.547C325.344,-389.574 320.805,-390.618 316.246,-391.667"/>
<polygon fill="black" stroke="black" points="315.219,-388.312 306.258,-393.965 316.789,-395.134 315.219,-388.312"/>
</g>
<!-- feature_relationshipprop_pub -->
<g id="node30" class="node"><title>feature_relationshipprop_pub</title>
<polygon fill="white" stroke="black" points="42.5533,-275.867 42.5533,-311.867 224.553,-311.867 224.553,-275.867 42.5533,-275.867"/>
<text text-anchor="middle" x="133.553" y="-288.267" font-family="Times,serif" font-size="14.00">feature_relationshipprop_pub</text>
</g>
<!-- feature_relationshipprop&#45;&gt;feature_relationshipprop_pub -->
<g id="edge28" class="edge"><title>feature_relationshipprop&#45;&gt;feature_relationshipprop_pub</title>
<path fill="none" stroke="black" d="M214.018,-393.645C198.214,-374.048 172.903,-342.662 154.891,-320.326"/>
<polygon fill="black" stroke="black" points="157.382,-317.84 148.38,-312.253 151.933,-322.234 157.382,-317.84"/>
</g>
<!-- feature_cvtermprop -->
<g id="node32" class="node"><title>feature_cvtermprop</title>
<polygon fill="white" stroke="black" points="675.009,-617.612 675.009,-653.612 802.009,-653.612 802.009,-617.612 675.009,-617.612"/>
<text text-anchor="middle" x="738.509" y="-630.012" font-family="Times,serif" font-size="14.00">feature_cvtermprop</text>
</g>
<!-- feature_cvterm&#45;&gt;feature_cvtermprop -->
<g id="edge20" class="edge"><title>feature_cvterm&#45;&gt;feature_cvtermprop</title>
<path fill="none" stroke="black" d="M624.208,-546.893C646.95,-564.545 681.681,-591.503 706.891,-611.07"/>
<polygon fill="black" stroke="black" points="704.998,-614.032 715.044,-617.399 709.29,-608.502 704.998,-614.032"/>
</g>
<!-- feature_cvterm_dbxref -->
<g id="node33" class="node"><title>feature_cvterm_dbxref</title>
<polygon fill="white" stroke="black" points="485.883,-635.837 485.883,-671.837 630.883,-671.837 630.883,-635.837 485.883,-635.837"/>
<text text-anchor="middle" x="558.383" y="-648.237" font-family="Times,serif" font-size="14.00">feature_cvterm_dbxref</text>
</g>
<!-- feature_cvterm&#45;&gt;feature_cvterm_dbxref -->
<g id="edge16" class="edge"><title>feature_cvterm&#45;&gt;feature_cvterm_dbxref</title>
<path fill="none" stroke="black" d="M594.681,-546.954C587.635,-567.702 576.031,-601.87 567.843,-625.98"/>
<polygon fill="black" stroke="black" points="564.468,-625.035 564.566,-635.629 571.096,-627.286 564.468,-625.035"/>
</g>
<!-- feature_cvterm_pub -->
<g id="node34" class="node"><title>feature_cvterm_pub</title>
<polygon fill="white" stroke="black" points="700.838,-456.973 700.838,-492.973 829.838,-492.973 829.838,-456.973 700.838,-456.973"/>
<text text-anchor="middle" x="765.338" y="-469.373" font-family="Times,serif" font-size="14.00">feature_cvterm_pub</text>
</g>
<!-- feature_cvterm&#45;&gt;feature_cvterm_pub -->
<g id="edge18" class="edge"><title>feature_cvterm&#45;&gt;feature_cvterm_pub</title>
<path fill="none" stroke="black" d="M651.998,-512.042C667.305,-507.036 684.297,-501.478 700.368,-496.222"/>
<polygon fill="black" stroke="black" points="701.816,-499.431 710.232,-492.996 699.64,-492.778 701.816,-499.431"/>
</g>
<!-- synonym -->
<g id="node35" class="node"><title>synonym</title>
<polygon fill="white" stroke="black" points="728.464,-259.91 728.464,-295.91 797.464,-295.91 797.464,-259.91 728.464,-259.91"/>
<text text-anchor="middle" x="762.964" y="-272.31" font-family="Times,serif" font-size="14.00">synonym</text>
</g>
<!-- synonym&#45;&gt;feature_synonym -->
<g id="edge34" class="edge"><title>synonym&#45;&gt;feature_synonym</title>
<path fill="none" stroke="black" d="M746.563,-295.913C728.406,-315.843 698.991,-348.131 678.409,-370.724"/>
<polygon fill="black" stroke="black" points="675.678,-368.525 671.53,-378.275 680.852,-373.24 675.678,-368.525"/>
</g>
</g>
</svg>
