<?xml version="1.0" encoding="UTF-8" standalone="no"?>
<!DOCTYPE svg PUBLIC "-//W3C//DTD SVG 1.1//EN"
 "http://www.w3.org/Graphics/SVG/1.1/DTD/svg11.dtd">
<!-- Generated by graphviz version 2.27.20091228.0545 (20091228.0545)
 -->
<!-- Title: test Pages: 1 -->
<svg width="993pt" height="984pt"
 viewBox="0.00 0.00 993.00 984.00" xmlns="http://www.w3.org/2000/svg" xmlns:xlink="http://www.w3.org/1999/xlink">
<g id="graph1" class="graph" transform="scale(1 1) rotate(0) translate(4 980)">
<title>test</title>
<polygon fill="lightgoldenrodyellow" stroke="lightgoldenrodyellow" points="-4,5 -4,-980 990,-980 990,5 -4,5"/>
<!-- node1 -->
<g id="node1" class="node"><title>node1</title>
<polygon fill="white" stroke="black" points="673,-715.5 673,-941.5 798,-941.5 798,-715.5 673,-715.5"/>
<text text-anchor="middle" x="735.5" y="-924.9" font-family="Times,serif" font-size="14.00">feature</text>
<polyline fill="none" stroke="black" points="673,-918.5 798,-918.5 "/>
<text text-anchor="start" x="681" y="-901.9" font-family="Times,serif" font-size="14.00">&#45; feature_id</text>
<text text-anchor="start" x="681" y="-886.9" font-family="Times,serif" font-size="14.00">&#45; dbxref_id</text>
<text text-anchor="start" x="681" y="-871.9" font-family="Times,serif" font-size="14.00">&#45; organism_id</text>
<text text-anchor="start" x="681" y="-856.9" font-family="Times,serif" font-size="14.00">&#45; name</text>
<text text-anchor="start" x="681" y="-841.9" font-family="Times,serif" font-size="14.00">&#45; uniquename</text>
<text text-anchor="start" x="681" y="-826.9" font-family="Times,serif" font-size="14.00">&#45; residues</text>
<text text-anchor="start" x="681" y="-811.9" font-family="Times,serif" font-size="14.00">&#45; seqlen</text>
<text text-anchor="start" x="681" y="-796.9" font-family="Times,serif" font-size="14.00">&#45; md5checksum</text>
<text text-anchor="start" x="681" y="-781.9" font-family="Times,serif" font-size="14.00">&#45; type_id</text>
<text text-anchor="start" x="681" y="-766.9" font-family="Times,serif" font-size="14.00">&#45; is_analysis</text>
<text text-anchor="start" x="681" y="-751.9" font-family="Times,serif" font-size="14.00">&#45; is_obsolete</text>
<text text-anchor="start" x="681" y="-736.9" font-family="Times,serif" font-size="14.00">&#45; timeaccessioned</text>
<text text-anchor="start" x="681" y="-721.9" font-family="Times,serif" font-size="14.00">&#45; timelastmodified</text>
</g>
<!-- node2 -->
<g id="node2" class="node"><title>node2</title>
<polygon fill="white" stroke="black" points="526,-736.5 526,-947.5 639,-947.5 639,-736.5 526,-736.5"/>
<text text-anchor="middle" x="582.5" y="-930.9" font-family="Times,serif" font-size="14.00">featureloc</text>
<polyline fill="none" stroke="black" points="526,-924.5 639,-924.5 "/>
<text text-anchor="start" x="534" y="-907.9" font-family="Times,serif" font-size="14.00">&#45; featureloc_id</text>
<text text-anchor="start" x="534" y="-892.9" font-family="Times,serif" font-size="14.00">&#45; feature_id</text>
<text text-anchor="start" x="534" y="-877.9" font-family="Times,serif" font-size="14.00">&#45; srcfeature_id</text>
<text text-anchor="start" x="534" y="-862.9" font-family="Times,serif" font-size="14.00">&#45; fmin</text>
<text text-anchor="start" x="534" y="-847.9" font-family="Times,serif" font-size="14.00">&#45; is_fmin_partial</text>
<text text-anchor="start" x="534" y="-832.9" font-family="Times,serif" font-size="14.00">&#45; fmax</text>
<text text-anchor="start" x="534" y="-817.9" font-family="Times,serif" font-size="14.00">&#45; is_fmax_partial</text>
<text text-anchor="start" x="534" y="-802.9" font-family="Times,serif" font-size="14.00">&#45; strand</text>
<text text-anchor="start" x="534" y="-787.9" font-family="Times,serif" font-size="14.00">&#45; phase</text>
<text text-anchor="start" x="534" y="-772.9" font-family="Times,serif" font-size="14.00">&#45; residue_info</text>
<text text-anchor="start" x="534" y="-757.9" font-family="Times,serif" font-size="14.00">&#45; locgroup</text>
<text text-anchor="start" x="534" y="-742.9" font-family="Times,serif" font-size="14.00">&#45; rank</text>
</g>
<!-- node3 -->
<g id="node3" class="node"><title>node3</title>
<polygon fill="white" stroke="black" points="442,-1.5 442,-77.5 571,-77.5 571,-1.5 442,-1.5"/>
<text text-anchor="middle" x="506.5" y="-60.9" font-family="Times,serif" font-size="14.00">featureloc_pub</text>
<polyline fill="none" stroke="black" points="442,-54.5 571,-54.5 "/>
<text text-anchor="start" x="450" y="-37.9" font-family="Times,serif" font-size="14.00">&#45; featureloc_pub_id</text>
<text text-anchor="start" x="450" y="-22.9" font-family="Times,serif" font-size="14.00">&#45; featureloc_id</text>
<text text-anchor="start" x="450" y="-7.9" font-family="Times,serif" font-size="14.00">&#45; pub_id</text>
</g>
<!-- node4 -->
<g id="node4" class="node"><title>node4</title>
<polygon fill="white" stroke="black" points="1,-463.5 1,-539.5 111,-539.5 111,-463.5 1,-463.5"/>
<text text-anchor="middle" x="56" y="-522.9" font-family="Times,serif" font-size="14.00">feature_pub</text>
<polyline fill="none" stroke="black" points="1,-516.5 111,-516.5 "/>
<text text-anchor="start" x="9" y="-499.9" font-family="Times,serif" font-size="14.00">&#45; feature_pub_id</text>
<text text-anchor="start" x="9" y="-484.9" font-family="Times,serif" font-size="14.00">&#45; feature_id</text>
<text text-anchor="start" x="9" y="-469.9" font-family="Times,serif" font-size="14.00">&#45; pub_id</text>
</g>
<!-- node5 -->
<g id="node5" class="node"><title>node5</title>
<polygon fill="white" stroke="black" points="841,-715.5 841,-821.5 977,-821.5 977,-715.5 841,-715.5"/>
<text text-anchor="middle" x="909" y="-804.9" font-family="Times,serif" font-size="14.00">feature_pubprop</text>
<polyline fill="none" stroke="black" points="841,-798.5 977,-798.5 "/>
<text text-anchor="start" x="849" y="-781.9" font-family="Times,serif" font-size="14.00">&#45; feature_pubprop_id</text>
<text text-anchor="start" x="849" y="-766.9" font-family="Times,serif" font-size="14.00">&#45; feature_pub_id</text>
<text text-anchor="start" x="849" y="-751.9" font-family="Times,serif" font-size="14.00">&#45; type_id</text>
<text text-anchor="start" x="849" y="-736.9" font-family="Times,serif" font-size="14.00">&#45; value</text>
<text text-anchor="start" x="849" y="-721.9" font-family="Times,serif" font-size="14.00">&#45; rank</text>
</g>
<!-- node6 -->
<g id="node6" class="node"><title>node6</title>
<polygon fill="white" stroke="black" points="841,-862.5 841,-968.5 950,-968.5 950,-862.5 841,-862.5"/>
<text text-anchor="middle" x="895.5" y="-951.9" font-family="Times,serif" font-size="14.00">featureprop</text>
<polyline fill="none" stroke="black" points="841,-945.5 950,-945.5 "/>
<text text-anchor="start" x="849" y="-928.9" font-family="Times,serif" font-size="14.00">&#45; featureprop_id</text>
<text text-anchor="start" x="849" y="-913.9" font-family="Times,serif" font-size="14.00">&#45; feature_id</text>
<text text-anchor="start" x="849" y="-898.9" font-family="Times,serif" font-size="14.00">&#45; type_id</text>
<text text-anchor="start" x="849" y="-883.9" font-family="Times,serif" font-size="14.00">&#45; value</text>
<text text-anchor="start" x="849" y="-868.9" font-family="Times,serif" font-size="14.00">&#45; rank</text>
</g>
<!-- node7 -->
<g id="node7" class="node"><title>node7</title>
<polygon fill="white" stroke="black" points="799,-43.5 799,-119.5 935,-119.5 935,-43.5 799,-43.5"/>
<text text-anchor="middle" x="867" y="-102.9" font-family="Times,serif" font-size="14.00">featureprop_pub</text>
<polyline fill="none" stroke="black" points="799,-96.5 935,-96.5 "/>
<text text-anchor="start" x="807" y="-79.9" font-family="Times,serif" font-size="14.00">&#45; featureprop_pub_id</text>
<text text-anchor="start" x="807" y="-64.9" font-family="Times,serif" font-size="14.00">&#45; featureprop_id</text>
<text text-anchor="start" x="807" y="-49.9" font-family="Times,serif" font-size="14.00">&#45; pub_id</text>
</g>
<!-- node8 -->
<g id="node8" class="node"><title>node8</title>
<polygon fill="white" stroke="black" points="358,-883.5 358,-974.5 485,-974.5 485,-883.5 358,-883.5"/>
<text text-anchor="middle" x="421.5" y="-957.9" font-family="Times,serif" font-size="14.00">feature_dbxref</text>
<polyline fill="none" stroke="black" points="358,-951.5 485,-951.5 "/>
<text text-anchor="start" x="366" y="-934.9" font-family="Times,serif" font-size="14.00">&#45; feature_dbxref_id</text>
<text text-anchor="start" x="366" y="-919.9" font-family="Times,serif" font-size="14.00">&#45; feature_id</text>
<text text-anchor="start" x="366" y="-904.9" font-family="Times,serif" font-size="14.00">&#45; dbxref_id</text>
<text text-anchor="start" x="366" y="-889.9" font-family="Times,serif" font-size="14.00">&#45; is_current</text>
</g>
<!-- node9 -->
<g id="node9" class="node"><title>node9</title>
<polygon fill="white" stroke="black" points="106,-820.5 106,-941.5 264,-941.5 264,-820.5 106,-820.5"/>
<text text-anchor="middle" x="185" y="-924.9" font-family="Times,serif" font-size="14.00">feature_relationship</text>
<polyline fill="none" stroke="black" points="106,-918.5 264,-918.5 "/>
<text text-anchor="start" x="114" y="-901.9" font-family="Times,serif" font-size="14.00">&#45; feature_relationship_id</text>
<text text-anchor="start" x="114" y="-886.9" font-family="Times,serif" font-size="14.00">&#45; subject_id</text>
<text text-anchor="start" x="114" y="-871.9" font-family="Times,serif" font-size="14.00">&#45; object_id</text>
<text text-anchor="start" x="114" y="-856.9" font-family="Times,serif" font-size="14.00">&#45; type_id</text>
<text text-anchor="start" x="114" y="-841.9" font-family="Times,serif" font-size="14.00">&#45; value</text>
<text text-anchor="start" x="114" y="-826.9" font-family="Times,serif" font-size="14.00">&#45; rank</text>
</g>
<!-- node10 -->
<g id="node10" class="node"><title>node10</title>
<polygon fill="white" stroke="black" points="778,-358.5 778,-434.5 963,-434.5 963,-358.5 778,-358.5"/>
<text text-anchor="middle" x="870.5" y="-417.9" font-family="Times,serif" font-size="14.00">feature_relationship_pub</text>
<polyline fill="none" stroke="black" points="778,-411.5 963,-411.5 "/>
<text text-anchor="start" x="786" y="-394.9" font-family="Times,serif" font-size="14.00">&#45; feature_relationship_pub_id</text>
<text text-anchor="start" x="786" y="-379.9" font-family="Times,serif" font-size="14.00">&#45; feature_relationship_id</text>
<text text-anchor="start" x="786" y="-364.9" font-family="Times,serif" font-size="14.00">&#45; pub_id</text>
</g>
<!-- node11 -->
<g id="node11" class="node"><title>node11</title>
<polygon fill="white" stroke="black" points="295,-736.5 295,-842.5 478,-842.5 478,-736.5 295,-736.5"/>
<text text-anchor="middle" x="386.5" y="-825.9" font-family="Times,serif" font-size="14.00">feature_relationshipprop</text>
<polyline fill="none" stroke="black" points="295,-819.5 478,-819.5 "/>
<text text-anchor="start" x="303" y="-802.9" font-family="Times,serif" font-size="14.00">&#45; feature_relationshipprop_id</text>
<text text-anchor="start" x="303" y="-787.9" font-family="Times,serif" font-size="14.00">&#45; feature_relationship_id</text>
<text text-anchor="start" x="303" y="-772.9" font-family="Times,serif" font-size="14.00">&#45; type_id</text>
<text text-anchor="start" x="303" y="-757.9" font-family="Times,serif" font-size="14.00">&#45; value</text>
<text text-anchor="start" x="303" y="-742.9" font-family="Times,serif" font-size="14.00">&#45; rank</text>
</g>
<!-- node12 -->
<g id="node12" class="node"><title>node12</title>
<polygon fill="white" stroke="black" points="715,-169.5 715,-245.5 925,-245.5 925,-169.5 715,-169.5"/>
<text text-anchor="middle" x="820" y="-228.9" font-family="Times,serif" font-size="14.00">feature_relationshipprop_pub</text>
<polyline fill="none" stroke="black" points="715,-222.5 925,-222.5 "/>
<text text-anchor="start" x="723" y="-205.9" font-family="Times,serif" font-size="14.00">&#45; feature_relationshipprop_pub_id</text>
<text text-anchor="start" x="723" y="-190.9" font-family="Times,serif" font-size="14.00">&#45; feature_relationshipprop_id</text>
<text text-anchor="start" x="723" y="-175.9" font-family="Times,serif" font-size="14.00">&#45; pub_id</text>
</g>
<!-- node13 -->
<g id="node13" class="node"><title>node13</title>
<polygon fill="white" stroke="black" points="64,-127.5 64,-248.5 194,-248.5 194,-127.5 64,-127.5"/>
<text text-anchor="middle" x="129" y="-231.9" font-family="Times,serif" font-size="14.00">feature_cvterm</text>
<polyline fill="none" stroke="black" points="64,-225.5 194,-225.5 "/>
<text text-anchor="start" x="72" y="-208.9" font-family="Times,serif" font-size="14.00">&#45; feature_cvterm_id</text>
<text text-anchor="start" x="72" y="-193.9" font-family="Times,serif" font-size="14.00">&#45; feature_id</text>
<text text-anchor="start" x="72" y="-178.9" font-family="Times,serif" font-size="14.00">&#45; cvterm_id</text>
<text text-anchor="start" x="72" y="-163.9" font-family="Times,serif" font-size="14.00">&#45; pub_id</text>
<text text-anchor="start" x="72" y="-148.9" font-family="Times,serif" font-size="14.00">&#45; is_not</text>
<text text-anchor="start" x="72" y="-133.9" font-family="Times,serif" font-size="14.00">&#45; rank</text>
</g>
<!-- node14 -->
<g id="node14" class="node"><title>node14</title>
<polygon fill="white" stroke="black" points="64,-673.5 64,-779.5 219,-779.5 219,-673.5 64,-673.5"/>
<text text-anchor="middle" x="141.5" y="-762.9" font-family="Times,serif" font-size="14.00">feature_cvtermprop</text>
<polyline fill="none" stroke="black" points="64,-756.5 219,-756.5 "/>
<text text-anchor="start" x="72" y="-739.9" font-family="Times,serif" font-size="14.00">&#45; feature_cvtermprop_id</text>
<text text-anchor="start" x="72" y="-724.9" font-family="Times,serif" font-size="14.00">&#45; feature_cvterm_id</text>
<text text-anchor="start" x="72" y="-709.9" font-family="Times,serif" font-size="14.00">&#45; type_id</text>
<text text-anchor="start" x="72" y="-694.9" font-family="Times,serif" font-size="14.00">&#45; value</text>
<text text-anchor="start" x="72" y="-679.9" font-family="Times,serif" font-size="14.00">&#45; rank</text>
</g>
<!-- node15 -->
<g id="node15" class="node"><title>node15</title>
<polygon fill="white" stroke="black" points="442,-127.5 442,-203.5 615,-203.5 615,-127.5 442,-127.5"/>
<text text-anchor="middle" x="528.5" y="-186.9" font-family="Times,serif" font-size="14.00">feature_cvterm_dbxref</text>
<polyline fill="none" stroke="black" points="442,-180.5 615,-180.5 "/>
<text text-anchor="start" x="450" y="-163.9" font-family="Times,serif" font-size="14.00">&#45; feature_cvterm_dbxref_id</text>
<text text-anchor="start" x="450" y="-148.9" font-family="Times,serif" font-size="14.00">&#45; feature_cvterm_id</text>
<text text-anchor="start" x="450" y="-133.9" font-family="Times,serif" font-size="14.00">&#45; dbxref_id</text>
</g>
<!-- node16 -->
<g id="node16" class="node"><title>node16</title>
<polygon fill="white" stroke="black" points="232,-127.5 232,-203.5 389,-203.5 389,-127.5 232,-127.5"/>
<text text-anchor="middle" x="310.5" y="-186.9" font-family="Times,serif" font-size="14.00">feature_cvterm_pub</text>
<polyline fill="none" stroke="black" points="232,-180.5 389,-180.5 "/>
<text text-anchor="start" x="240" y="-163.9" font-family="Times,serif" font-size="14.00">&#45; feature_cvterm_pub_id</text>
<text text-anchor="start" x="240" y="-148.9" font-family="Times,serif" font-size="14.00">&#45; feature_cvterm_id</text>
<text text-anchor="start" x="240" y="-133.9" font-family="Times,serif" font-size="14.00">&#45; pub_id</text>
</g>
<!-- node17 -->
<g id="node17" class="node"><title>node17</title>
<polygon fill="white" stroke="black" points="652,-43.5 652,-134.5 765,-134.5 765,-43.5 652,-43.5"/>
<text text-anchor="middle" x="708.5" y="-117.9" font-family="Times,serif" font-size="14.00">synonym</text>
<polyline fill="none" stroke="black" points="652,-111.5 765,-111.5 "/>
<text text-anchor="start" x="660" y="-94.9" font-family="Times,serif" font-size="14.00">&#45; synonym_id</text>
<text text-anchor="start" x="660" y="-79.9" font-family="Times,serif" font-size="14.00">&#45; name</text>
<text text-anchor="start" x="660" y="-64.9" font-family="Times,serif" font-size="14.00">&#45; type_id</text>
<text text-anchor="start" x="660" y="-49.9" font-family="Times,serif" font-size="14.00">&#45; synonym_sgml</text>
</g>
<!-- node18 -->
<g id="node18" class="node"><title>node18</title>
<polygon fill="white" stroke="black" points="841,-547.5 841,-668.5 984,-668.5 984,-547.5 841,-547.5"/>
<text text-anchor="middle" x="912.5" y="-651.9" font-family="Times,serif" font-size="14.00">feature_synonym</text>
<polyline fill="none" stroke="black" points="841,-645.5 984,-645.5 "/>
<text text-anchor="start" x="849" y="-628.9" font-family="Times,serif" font-size="14.00">&#45; feature_synonym_id</text>
<text text-anchor="start" x="849" y="-613.9" font-family="Times,serif" font-size="14.00">&#45; synonym_id</text>
<text text-anchor="start" x="849" y="-598.9" font-family="Times,serif" font-size="14.00">&#45; feature_id</text>
<text text-anchor="start" x="849" y="-583.9" font-family="Times,serif" font-size="14.00">&#45; pub_id</text>
<text text-anchor="start" x="849" y="-568.9" font-family="Times,serif" font-size="14.00">&#45; is_current</text>
<text text-anchor="start" x="849" y="-553.9" font-family="Times,serif" font-size="14.00">&#45; is_internal</text>
</g>
<!-- feature -->
<g id="node19" class="node"><title>feature</title>
<polygon fill="white" stroke="black" points="439.273,-485.634 439.273,-521.634 495.273,-521.634 495.273,-485.634 439.273,-485.634"/>
<text text-anchor="middle" x="467.273" y="-498.534" font-family="Times,serif" font-size="14.00">feature</text>
</g>
<!-- featureloc -->
<g id="node20" class="node"><title>featureloc</title>
<polygon fill="white" stroke="black" points="439.398,-254.314 439.398,-290.314 513.398,-290.314 513.398,-254.314 439.398,-254.314"/>
<text text-anchor="middle" x="476.398" y="-267.214" font-family="Times,serif" font-size="14.00">featureloc</text>
</g>
<!-- feature&#45;&gt;featureloc -->
<g id="edge12" class="edge"><title>feature&#45;&gt;featureloc</title>
<path fill="none" stroke="black" d="M467.989,-485.483C469.575,-445.281 473.393,-348.5 475.29,-300.411"/>
<polygon fill="black" stroke="black" points="478.789,-300.511 475.686,-290.381 471.794,-300.235 478.789,-300.511"/>
</g>
<!-- feature_pub -->
<g id="node22" class="node"><title>feature_pub</title>
<polygon fill="white" stroke="black" points="397.336,-612.4 397.336,-648.4 480.336,-648.4 480.336,-612.4 397.336,-612.4"/>
<text text-anchor="middle" x="438.836" y="-625.3" font-family="Times,serif" font-size="14.00">feature_pub</text>
</g>
<!-- feature&#45;&gt;feature_pub -->
<g id="edge6" class="edge"><title>feature&#45;&gt;feature_pub</title>
<path fill="none" stroke="black" d="M463.199,-521.796C458.469,-542.882 450.613,-577.9 445.104,-602.458"/>
<polygon fill="black" stroke="black" points="441.677,-601.747 442.903,-612.271 448.507,-603.28 441.677,-601.747"/>
</g>
<!-- featureprop -->
<g id="node24" class="node"><title>featureprop</title>
<polygon fill="white" stroke="black" points="279.221,-512.666 279.221,-548.666 360.221,-548.666 360.221,-512.666 279.221,-512.666"/>
<text text-anchor="middle" x="319.721" y="-525.566" font-family="Times,serif" font-size="14.00">featureprop</text>
</g>
<!-- feature&#45;&gt;featureprop -->
<g id="edge14" class="edge"><title>feature&#45;&gt;featureprop</title>
<path fill="none" stroke="black" d="M439.173,-508.782C419.725,-512.345 393.297,-517.187 370.243,-521.41"/>
<polygon fill="black" stroke="black" points="369.469,-517.994 360.264,-523.239 370.731,-524.879 369.469,-517.994"/>
</g>
<!-- feature_dbxref -->
<g id="node26" class="node"><title>feature_dbxref</title>
<polygon fill="white" stroke="black" points="488.139,-386.843 488.139,-422.843 587.139,-422.843 587.139,-386.843 488.139,-386.843"/>
<text text-anchor="middle" x="537.639" y="-399.743" font-family="Times,serif" font-size="14.00">feature_dbxref</text>
</g>
<!-- feature&#45;&gt;feature_dbxref -->
<g id="edge4" class="edge"><title>feature&#45;&gt;feature_dbxref</title>
<path fill="none" stroke="black" d="M480.18,-485.514C490.991,-470.335 506.571,-448.462 518.78,-431.32"/>
<polygon fill="black" stroke="black" points="521.864,-433.023 524.815,-422.848 516.162,-428.962 521.864,-433.023"/>
</g>
<!-- feature_relationship -->
<g id="node27" class="node"><title>feature_relationship</title>
<polygon fill="white" stroke="black" points="329.773,-376.509 329.773,-412.509 459.773,-412.509 459.773,-376.509 329.773,-376.509"/>
<text text-anchor="middle" x="394.773" y="-389.409" font-family="Times,serif" font-size="14.00">feature_relationship</text>
</g>
<!-- feature&#45;&gt;feature_relationship -->
<g id="edge8" class="edge"><title>feature&#45;&gt;feature_relationship</title>
<path fill="none" stroke="black" d="M455.302,-485.614C443.6,-468.002 425.652,-440.987 412.335,-420.943"/>
<polygon fill="black" stroke="black" points="415.212,-418.948 406.763,-412.556 409.382,-422.822 415.212,-418.948"/>
</g>
<!-- feature_cvterm -->
<g id="node31" class="node"><title>feature_cvterm</title>
<polygon fill="white" stroke="black" points="553.808,-534.473 553.808,-570.473 655.808,-570.473 655.808,-534.473 553.808,-534.473"/>
<text text-anchor="middle" x="604.808" y="-547.373" font-family="Times,serif" font-size="14.00">feature_cvterm</text>
</g>
<!-- feature&#45;&gt;feature_cvterm -->
<g id="edge2" class="edge"><title>feature&#45;&gt;feature_cvterm</title>
<path fill="none" stroke="black" d="M495.438,-513.635C509.496,-518.627 527.083,-524.872 544.015,-530.885"/>
<polygon fill="black" stroke="black" points="543.283,-534.339 553.878,-534.388 545.626,-527.743 543.283,-534.339"/>
</g>
<!-- feature_synonym -->
<g id="node36" class="node"><title>feature_synonym</title>
<polygon fill="white" stroke="black" points="601.255,-399.857 601.255,-435.857 716.255,-435.857 716.255,-399.857 601.255,-399.857"/>
<text text-anchor="middle" x="658.755" y="-412.757" font-family="Times,serif" font-size="14.00">feature_synonym</text>
</g>
<!-- feature&#45;&gt;feature_synonym -->
<g id="edge10" class="edge"><title>feature&#45;&gt;feature_synonym</title>
<path fill="none" stroke="black" d="M495.527,-490.977C525.322,-477.63 572.86,-456.335 608.966,-440.16"/>
<polygon fill="black" stroke="black" points="610.656,-443.238 618.351,-435.956 607.794,-436.85 610.656,-443.238"/>
</g>
<!-- featureloc_pub -->
<g id="node21" class="node"><title>featureloc_pub</title>
<polygon fill="white" stroke="black" points="569.239,-253.772 569.239,-289.772 670.239,-289.772 670.239,-253.772 569.239,-253.772"/>
<text text-anchor="middle" x="619.739" y="-266.672" font-family="Times,serif" font-size="14.00">featureloc_pub</text>
</g>
<!-- featureloc&#45;&gt;featureloc_pub -->
<g id="edge30" class="edge"><title>featureloc&#45;&gt;featureloc_pub</title>
<path fill="none" stroke="black" d="M513.685,-272.173C527.567,-272.121 543.703,-272.06 559.138,-272.001"/>
<polygon fill="black" stroke="black" points="559.162,-275.501 569.149,-271.964 559.136,-268.501 559.162,-275.501"/>
</g>
<!-- feature_pubprop -->
<g id="node23" class="node"><title>feature_pubprop</title>
<polygon fill="white" stroke="black" points="248.103,-653.736 248.103,-689.736 356.103,-689.736 356.103,-653.736 248.103,-653.736"/>
<text text-anchor="middle" x="302.103" y="-666.636" font-family="Times,serif" font-size="14.00">feature_pubprop</text>
</g>
<!-- feature_pub&#45;&gt;feature_pubprop -->
<g id="edge22" class="edge"><title>feature_pub&#45;&gt;feature_pubprop</title>
<path fill="none" stroke="black" d="M397.068,-643.027C387.207,-646.008 376.471,-649.254 365.883,-652.455"/>
<polygon fill="black" stroke="black" points="364.788,-649.129 356.229,-655.373 366.814,-655.829 364.788,-649.129"/>
</g>
<!-- featureprop_pub -->
<g id="node25" class="node"><title>featureprop_pub</title>
<polygon fill="white" stroke="black" points="83.2524,-587.723 83.2524,-623.723 191.252,-623.723 191.252,-587.723 83.2524,-587.723"/>
<text text-anchor="middle" x="137.252" y="-600.623" font-family="Times,serif" font-size="14.00">featureprop_pub</text>
</g>
<!-- featureprop&#45;&gt;featureprop_pub -->
<g id="edge32" class="edge"><title>featureprop&#45;&gt;featureprop_pub</title>
<path fill="none" stroke="black" d="M278.772,-547.511C252.717,-558.228 218.704,-572.219 190.554,-583.798"/>
<polygon fill="black" stroke="black" points="189.169,-580.583 181.252,-587.624 191.832,-587.057 189.169,-580.583"/>
</g>
<!-- feature_relationship_pub -->
<g id="node28" class="node"><title>feature_relationship_pub</title>
<polygon fill="white" stroke="black" points="233.919,-253.5 233.919,-289.5 390.919,-289.5 390.919,-253.5 233.919,-253.5"/>
<text text-anchor="middle" x="312.419" y="-266.4" font-family="Times,serif" font-size="14.00">feature_relationship_pub</text>
</g>
<!-- feature_relationship&#45;&gt;feature_relationship_pub -->
<g id="edge24" class="edge"><title>feature_relationship&#45;&gt;feature_relationship_pub</title>
<path fill="none" stroke="black" d="M382.622,-376.359C368.815,-355.737 346.15,-321.883 330.32,-298.238"/>
<polygon fill="black" stroke="black" points="333.092,-296.087 324.62,-289.725 327.275,-299.982 333.092,-296.087"/>
</g>
<!-- feature_relationshipprop -->
<g id="node29" class="node"><title>feature_relationshipprop</title>
<polygon fill="white" stroke="black" points="150.41,-414.916 150.41,-450.916 305.41,-450.916 305.41,-414.916 150.41,-414.916"/>
<text text-anchor="middle" x="227.91" y="-427.816" font-family="Times,serif" font-size="14.00">feature_relationshipprop</text>
</g>
<!-- feature_relationship&#45;&gt;feature_relationshipprop -->
<g id="edge26" class="edge"><title>feature_relationship&#45;&gt;feature_relationshipprop</title>
<path fill="none" stroke="black" d="M329.303,-409.578C324.817,-410.611 320.257,-411.66 315.68,-412.714"/>
<polygon fill="black" stroke="black" points="314.614,-409.368 305.654,-415.022 316.184,-416.189 314.614,-409.368"/>
</g>
<!-- feature_relationshipprop_pub -->
<g id="node30" class="node"><title>feature_relationshipprop_pub</title>
<polygon fill="white" stroke="black" points="43,-297.322 43,-333.322 225,-333.322 225,-297.322 43,-297.322"/>
<text text-anchor="middle" x="134" y="-310.222" font-family="Times,serif" font-size="14.00">feature_relationshipprop_pub</text>
</g>
<!-- feature_relationshipprop&#45;&gt;feature_relationshipprop_pub -->
<g id="edge28" class="edge"><title>feature_relationshipprop&#45;&gt;feature_relationshipprop_pub</title>
<path fill="none" stroke="black" d="M213.442,-414.799C197.839,-395.262 172.85,-363.97 155.067,-341.701"/>
<polygon fill="black" stroke="black" points="157.614,-339.282 148.639,-333.652 152.144,-343.65 157.614,-339.282"/>
</g>
<!-- feature_cvtermprop -->
<g id="node32" class="node"><title>feature_cvtermprop</title>
<polygon fill="white" stroke="black" points="676.851,-640.023 676.851,-676.023 804.851,-676.023 804.851,-640.023 676.851,-640.023"/>
<text text-anchor="middle" x="740.851" y="-652.923" font-family="Times,serif" font-size="14.00">feature_cvtermprop</text>
</g>
<!-- feature_cvterm&#45;&gt;feature_cvtermprop -->
<g id="edge20" class="edge"><title>feature_cvterm&#45;&gt;feature_cvtermprop</title>
<path fill="none" stroke="black" d="M628.195,-570.618C650.582,-587.987 684.519,-614.317 709.293,-633.539"/>
<polygon fill="black" stroke="black" points="707.268,-636.397 717.314,-639.762 711.559,-630.866 707.268,-636.397"/>
</g>
<!-- feature_cvterm_dbxref -->
<g id="node33" class="node"><title>feature_cvterm_dbxref</title>
<polygon fill="white" stroke="black" points="484.96,-659.277 484.96,-695.277 630.96,-695.277 630.96,-659.277 484.96,-659.277"/>
<text text-anchor="middle" x="557.96" y="-672.177" font-family="Times,serif" font-size="14.00">feature_cvterm_dbxref</text>
</g>
<!-- feature_cvterm&#45;&gt;feature_cvterm_dbxref -->
<g id="edge16" class="edge"><title>feature_cvterm&#45;&gt;feature_cvterm_dbxref</title>
<path fill="none" stroke="black" d="M597.996,-570.621C590.224,-591.325 577.426,-625.42 568.395,-649.479"/>
<polygon fill="black" stroke="black" points="565.018,-648.515 564.781,-659.107 571.572,-650.975 565.018,-648.515"/>
</g>
<!-- feature_cvterm_pub -->
<g id="node34" class="node"><title>feature_cvterm_pub</title>
<polygon fill="white" stroke="black" points="703.555,-478.927 703.555,-514.927 832.555,-514.927 832.555,-478.927 703.555,-478.927"/>
<text text-anchor="middle" x="768.055" y="-491.827" font-family="Times,serif" font-size="14.00">feature_cvterm_pub</text>
</g>
<!-- feature_cvterm&#45;&gt;feature_cvterm_pub -->
<g id="edge18" class="edge"><title>feature_cvterm&#45;&gt;feature_cvterm_pub</title>
<path fill="none" stroke="black" d="M656.013,-535.051C671.724,-529.705 689.189,-523.762 705.566,-518.19"/>
<polygon fill="black" stroke="black" points="706.722,-521.494 715.061,-514.959 704.467,-514.867 706.722,-521.494"/>
</g>
<!-- synonym -->
<g id="node35" class="node"><title>synonym</title>
<polygon fill="white" stroke="black" points="731.33,-281.383 731.33,-317.383 800.33,-317.383 800.33,-281.383 731.33,-281.383"/>
<text text-anchor="middle" x="765.83" y="-294.283" font-family="Times,serif" font-size="14.00">synonym</text>
</g>
<!-- synonym&#45;&gt;feature_synonym -->
<g id="edge34" class="edge"><title>synonym&#45;&gt;feature_synonym</title>
<path fill="none" stroke="black" d="M749.334,-317.635C731.283,-337.608 702.211,-369.775 681.886,-392.263"/>
<polygon fill="black" stroke="black" points="679.202,-390.013 675.094,-399.778 684.396,-394.706 679.202,-390.013"/>
</g>
</g>
</svg>
