<?xml version="1.0" encoding="UTF-8" standalone="no"?>
<!DOCTYPE svg PUBLIC "-//W3C//DTD SVG 1.1//EN"
 "http://www.w3.org/Graphics/SVG/1.1/DTD/svg11.dtd">
<!-- Generated by graphviz version 2.27.20091228.0545 (20091228.0545)
 -->
<!-- Title: test Pages: 1 -->
<svg width="904pt" height="843pt"
 viewBox="0.00 0.00 904.00 843.00" xmlns="http://www.w3.org/2000/svg" xmlns:xlink="http://www.w3.org/1999/xlink">
<g id="graph1" class="graph" transform="scale(1 1) rotate(0) translate(4 839)">
<title>test</title>
<polygon fill="lightgoldenrodyellow" stroke="lightgoldenrodyellow" points="-4,5 -4,-839 901,-839 901,5 -4,5"/>
<!-- node1 -->
<g id="node1" class="node"><title>node1</title>
<polygon fill="white" stroke="black" points="397,-727.5 397,-833.5 496,-833.5 496,-727.5 397,-727.5"/>
<text text-anchor="middle" x="446.5" y="-816.9" font-family="Times,serif" font-size="14.00">wwwuser</text>
<polyline fill="none" stroke="black" points="397,-810.5 496,-810.5 "/>
<text text-anchor="start" x="405" y="-793.9" font-family="Times,serif" font-size="14.00">&#45; wwwuser_id</text>
<text text-anchor="start" x="405" y="-778.9" font-family="Times,serif" font-size="14.00">&#45; username</text>
<text text-anchor="start" x="405" y="-763.9" font-family="Times,serif" font-size="14.00">&#45; password</text>
<text text-anchor="start" x="405" y="-748.9" font-family="Times,serif" font-size="14.00">&#45; email</text>
<text text-anchor="start" x="405" y="-733.9" font-family="Times,serif" font-size="14.00">&#45; profile</text>
</g>
<!-- node2 -->
<g id="node2" class="node"><title>node2</title>
<polygon fill="white" stroke="black" points="23,-1.5 23,-92.5 169,-92.5 169,-1.5 23,-1.5"/>
<text text-anchor="middle" x="96" y="-75.9" font-family="Times,serif" font-size="14.00">wwwuser_project</text>
<polyline fill="none" stroke="black" points="23,-69.5 169,-69.5 "/>
<text text-anchor="start" x="31" y="-52.9" font-family="Times,serif" font-size="14.00">&#45; wwwuser_project_id</text>
<text text-anchor="start" x="31" y="-37.9" font-family="Times,serif" font-size="14.00">&#45; wwwuser_id</text>
<text text-anchor="start" x="31" y="-22.9" font-family="Times,serif" font-size="14.00">&#45; project_id</text>
<text text-anchor="start" x="31" y="-7.9" font-family="Times,serif" font-size="14.00">&#45; world_read</text>
</g>
<!-- node3 -->
<g id="node3" class="node"><title>node3</title>
<polygon fill="white" stroke="black" points="221,-1.5 221,-92.5 362,-92.5 362,-1.5 221,-1.5"/>
<text text-anchor="middle" x="291.5" y="-75.9" font-family="Times,serif" font-size="14.00">wwwuser_author</text>
<polyline fill="none" stroke="black" points="221,-69.5 362,-69.5 "/>
<text text-anchor="start" x="229" y="-52.9" font-family="Times,serif" font-size="14.00">&#45; wwwuser_author_id</text>
<text text-anchor="start" x="229" y="-37.9" font-family="Times,serif" font-size="14.00">&#45; wwwuser_id</text>
<text text-anchor="start" x="229" y="-22.9" font-family="Times,serif" font-size="14.00">&#45; author_id</text>
<text text-anchor="start" x="229" y="-7.9" font-family="Times,serif" font-size="14.00">&#45; world_read</text>
</g>
<!-- node4 -->
<g id="node4" class="node"><title>node4</title>
<polygon fill="white" stroke="black" points="749,-221.5 749,-312.5 895,-312.5 895,-221.5 749,-221.5"/>
<text text-anchor="middle" x="822" y="-295.9" font-family="Times,serif" font-size="14.00">wwwuser_cvterm</text>
<polyline fill="none" stroke="black" points="749,-289.5 895,-289.5 "/>
<text text-anchor="start" x="757" y="-272.9" font-family="Times,serif" font-size="14.00">&#45; wwwuser_cvterm_id</text>
<text text-anchor="start" x="757" y="-257.9" font-family="Times,serif" font-size="14.00">&#45; wwwuser_id</text>
<text text-anchor="start" x="757" y="-242.9" font-family="Times,serif" font-size="14.00">&#45; cvterm_id</text>
<text text-anchor="start" x="757" y="-227.9" font-family="Times,serif" font-size="14.00">&#45; world_read</text>
</g>
<!-- node5 -->
<g id="node5" class="node"><title>node5</title>
<polygon fill="white" stroke="black" points="353,-595.5 353,-686.5 520,-686.5 520,-595.5 353,-595.5"/>
<text text-anchor="middle" x="436.5" y="-669.9" font-family="Times,serif" font-size="14.00">wwwuser_expression</text>
<polyline fill="none" stroke="black" points="353,-663.5 520,-663.5 "/>
<text text-anchor="start" x="361" y="-646.9" font-family="Times,serif" font-size="14.00">&#45; wwwuser_expression_id</text>
<text text-anchor="start" x="361" y="-631.9" font-family="Times,serif" font-size="14.00">&#45; wwwuser_id</text>
<text text-anchor="start" x="361" y="-616.9" font-family="Times,serif" font-size="14.00">&#45; expression_id</text>
<text text-anchor="start" x="361" y="-601.9" font-family="Times,serif" font-size="14.00">&#45; world_read</text>
</g>
<!-- node6 -->
<g id="node6" class="node"><title>node6</title>
<polygon fill="white" stroke="black" points="749,-353.5 749,-444.5 894,-444.5 894,-353.5 749,-353.5"/>
<text text-anchor="middle" x="821.5" y="-427.9" font-family="Times,serif" font-size="14.00">wwwuser_feature</text>
<polyline fill="none" stroke="black" points="749,-421.5 894,-421.5 "/>
<text text-anchor="start" x="757" y="-404.9" font-family="Times,serif" font-size="14.00">&#45; wwwuser_feature_id</text>
<text text-anchor="start" x="757" y="-389.9" font-family="Times,serif" font-size="14.00">&#45; wwwuser_id</text>
<text text-anchor="start" x="757" y="-374.9" font-family="Times,serif" font-size="14.00">&#45; feature_id</text>
<text text-anchor="start" x="757" y="-359.9" font-family="Times,serif" font-size="14.00">&#45; world_read</text>
</g>
<!-- node7 -->
<g id="node7" class="node"><title>node7</title>
<polygon fill="white" stroke="black" points="573,-551.5 573,-642.5 732,-642.5 732,-551.5 573,-551.5"/>
<text text-anchor="middle" x="652.5" y="-625.9" font-family="Times,serif" font-size="14.00">wwwuser_genotype</text>
<polyline fill="none" stroke="black" points="573,-619.5 732,-619.5 "/>
<text text-anchor="start" x="581" y="-602.9" font-family="Times,serif" font-size="14.00">&#45; wwwuser_genotype_id</text>
<text text-anchor="start" x="581" y="-587.9" font-family="Times,serif" font-size="14.00">&#45; wwwuser_id</text>
<text text-anchor="start" x="581" y="-572.9" font-family="Times,serif" font-size="14.00">&#45; genotype_id</text>
<text text-anchor="start" x="581" y="-557.9" font-family="Times,serif" font-size="14.00">&#45; world_read</text>
</g>
<!-- node8 -->
<g id="node8" class="node"><title>node8</title>
<polygon fill="white" stroke="black" points="133,-595.5 133,-686.5 300,-686.5 300,-595.5 133,-595.5"/>
<text text-anchor="middle" x="216.5" y="-669.9" font-family="Times,serif" font-size="14.00">wwwuser_interaction</text>
<polyline fill="none" stroke="black" points="133,-663.5 300,-663.5 "/>
<text text-anchor="start" x="141" y="-646.9" font-family="Times,serif" font-size="14.00">&#45; wwwuser_interaction_id</text>
<text text-anchor="start" x="141" y="-631.9" font-family="Times,serif" font-size="14.00">&#45; wwwuser_id</text>
<text text-anchor="start" x="141" y="-616.9" font-family="Times,serif" font-size="14.00">&#45; interaction_id</text>
<text text-anchor="start" x="141" y="-601.9" font-family="Times,serif" font-size="14.00">&#45; world_read</text>
</g>
<!-- node9 -->
<g id="node9" class="node"><title>node9</title>
<polygon fill="white" stroke="black" points="397,-23.5 397,-114.5 556,-114.5 556,-23.5 397,-23.5"/>
<text text-anchor="middle" x="476.5" y="-97.9" font-family="Times,serif" font-size="14.00">wwwuser_organism</text>
<polyline fill="none" stroke="black" points="397,-91.5 556,-91.5 "/>
<text text-anchor="start" x="405" y="-74.9" font-family="Times,serif" font-size="14.00">&#45; wwwuser_organism_id</text>
<text text-anchor="start" x="405" y="-59.9" font-family="Times,serif" font-size="14.00">&#45; wwwuser_id</text>
<text text-anchor="start" x="405" y="-44.9" font-family="Times,serif" font-size="14.00">&#45; organism_id</text>
<text text-anchor="start" x="405" y="-29.9" font-family="Times,serif" font-size="14.00">&#45; world_read</text>
</g>
<!-- node10 -->
<g id="node10" class="node"><title>node10</title>
<polygon fill="white" stroke="black" points="705,-683.5 705,-774.5 870,-774.5 870,-683.5 705,-683.5"/>
<text text-anchor="middle" x="787.5" y="-757.9" font-family="Times,serif" font-size="14.00">wwwuser_phenotype</text>
<polyline fill="none" stroke="black" points="705,-751.5 870,-751.5 "/>
<text text-anchor="start" x="713" y="-734.9" font-family="Times,serif" font-size="14.00">&#45; wwwuser_phenotype_id</text>
<text text-anchor="start" x="713" y="-719.9" font-family="Times,serif" font-size="14.00">&#45; wwwuser_id</text>
<text text-anchor="start" x="713" y="-704.9" font-family="Times,serif" font-size="14.00">&#45; phenotype_id</text>
<text text-anchor="start" x="713" y="-689.9" font-family="Times,serif" font-size="14.00">&#45; world_read</text>
</g>
<!-- node11 -->
<g id="node11" class="node"><title>node11</title>
<polygon fill="white" stroke="black" points="529,-727.5 529,-818.5 655,-818.5 655,-727.5 529,-727.5"/>
<text text-anchor="middle" x="592" y="-801.9" font-family="Times,serif" font-size="14.00">wwwuser_pub</text>
<polyline fill="none" stroke="black" points="529,-795.5 655,-795.5 "/>
<text text-anchor="start" x="537" y="-778.9" font-family="Times,serif" font-size="14.00">&#45; wwwuser_pub_id</text>
<text text-anchor="start" x="537" y="-763.9" font-family="Times,serif" font-size="14.00">&#45; wwwuser_id</text>
<text text-anchor="start" x="537" y="-748.9" font-family="Times,serif" font-size="14.00">&#45; pub_id</text>
<text text-anchor="start" x="537" y="-733.9" font-family="Times,serif" font-size="14.00">&#45; world_read</text>
</g>
<!-- node12 -->
<g id="node12" class="node"><title>node12</title>
<polygon fill="white" stroke="black" points="595,-1.5 595,-92.5 762,-92.5 762,-1.5 595,-1.5"/>
<text text-anchor="middle" x="678.5" y="-75.9" font-family="Times,serif" font-size="14.00">wwwuserrelationship</text>
<polyline fill="none" stroke="black" points="595,-69.5 762,-69.5 "/>
<text text-anchor="start" x="603" y="-52.9" font-family="Times,serif" font-size="14.00">&#45; wwwuserrelationship_id</text>
<text text-anchor="start" x="603" y="-37.9" font-family="Times,serif" font-size="14.00">&#45; objwwwuser_id</text>
<text text-anchor="start" x="603" y="-22.9" font-family="Times,serif" font-size="14.00">&#45; subjwwwuser_id</text>
<text text-anchor="start" x="603" y="-7.9" font-family="Times,serif" font-size="14.00">&#45; world_read</text>
</g>
<!-- wwwuser -->
<g id="node13" class="node"><title>wwwuser</title>
<polygon fill="white" stroke="black" points="340.366,-308.76 340.366,-344.76 411.366,-344.76 411.366,-308.76 340.366,-308.76"/>
<text text-anchor="middle" x="375.866" y="-321.66" font-family="Times,serif" font-size="14.00">wwwuser</text>
</g>
<!-- wwwuser_project -->
<g id="node14" class="node"><title>wwwuser_project</title>
<polygon fill="white" stroke="black" points="628.672,-483.05 628.672,-519.05 746.672,-519.05 746.672,-483.05 628.672,-483.05"/>
<text text-anchor="middle" x="687.672" y="-495.95" font-family="Times,serif" font-size="14.00">wwwuser_project</text>
</g>
<!-- wwwuser&#45;&gt;wwwuser_project -->
<g id="edge18" class="edge"><title>wwwuser&#45;&gt;wwwuser_project</title>
<path fill="none" stroke="black" d="M408.352,-344.919C465.44,-376.829 583.643,-442.901 646.413,-477.988"/>
<polygon fill="black" stroke="black" points="644.822,-481.108 655.258,-482.932 648.237,-474.998 644.822,-481.108"/>
</g>
<!-- wwwuser_author -->
<g id="node15" class="node"><title>wwwuser_author</title>
<polygon fill="white" stroke="black" points="235.709,-136.443 235.709,-172.443 348.709,-172.443 348.709,-136.443 235.709,-136.443"/>
<text text-anchor="middle" x="292.209" y="-149.343" font-family="Times,serif" font-size="14.00">wwwuser_author</text>
</g>
<!-- wwwuser&#45;&gt;wwwuser_author -->
<g id="edge2" class="edge"><title>wwwuser&#45;&gt;wwwuser_author</title>
<path fill="none" stroke="black" d="M367.071,-308.644C352.385,-278.394 322.782,-217.417 305.528,-181.877"/>
<polygon fill="black" stroke="black" points="308.527,-180.041 301.012,-172.574 302.23,-183.098 308.527,-180.041"/>
</g>
<!-- wwwuser_cvterm -->
<g id="node16" class="node"><title>wwwuser_cvterm</title>
<polygon fill="white" stroke="black" points="186.464,-463.768 186.464,-499.768 304.464,-499.768 304.464,-463.768 186.464,-463.768"/>
<text text-anchor="middle" x="245.464" y="-476.668" font-family="Times,serif" font-size="14.00">wwwuser_cvterm</text>
</g>
<!-- wwwuser&#45;&gt;wwwuser_cvterm -->
<g id="edge4" class="edge"><title>wwwuser&#45;&gt;wwwuser_cvterm</title>
<path fill="none" stroke="black" d="M360.652,-344.845C337.709,-372.116 294.13,-423.918 267.648,-455.398"/>
<polygon fill="black" stroke="black" points="264.744,-453.413 260.985,-463.318 270.101,-457.919 264.744,-453.413"/>
</g>
<!-- wwwuser_expression -->
<g id="node17" class="node"><title>wwwuser_expression</title>
<polygon fill="white" stroke="black" points="438.831,-460.198 438.831,-496.198 577.831,-496.198 577.831,-460.198 438.831,-460.198"/>
<text text-anchor="middle" x="508.331" y="-473.098" font-family="Times,serif" font-size="14.00">wwwuser_expression</text>
</g>
<!-- wwwuser&#45;&gt;wwwuser_expression -->
<g id="edge6" class="edge"><title>wwwuser&#45;&gt;wwwuser_expression</title>
<path fill="none" stroke="black" d="M391.844,-345.027C415.216,-371.746 458.841,-421.62 485.564,-452.17"/>
<polygon fill="black" stroke="black" points="483.078,-454.644 492.296,-459.867 488.347,-450.035 483.078,-454.644"/>
</g>
<!-- wwwuser_feature -->
<g id="node18" class="node"><title>wwwuser_feature</title>
<polygon fill="white" stroke="black" points="318.76,-507.002 318.76,-543.002 435.76,-543.002 435.76,-507.002 318.76,-507.002"/>
<text text-anchor="middle" x="377.26" y="-519.902" font-family="Times,serif" font-size="14.00">wwwuser_feature</text>
</g>
<!-- wwwuser&#45;&gt;wwwuser_feature -->
<g id="edge8" class="edge"><title>wwwuser&#45;&gt;wwwuser_feature</title>
<path fill="none" stroke="black" d="M375.994,-345.055C376.238,-379.723 376.769,-455.207 377.059,-496.542"/>
<polygon fill="black" stroke="black" points="373.561,-496.776 377.131,-506.751 380.561,-496.727 373.561,-496.776"/>
</g>
<!-- wwwuser_genotype -->
<g id="node19" class="node"><title>wwwuser_genotype</title>
<polygon fill="white" stroke="black" points="56.7639,-301.165 56.7639,-337.165 187.764,-337.165 187.764,-301.165 56.7639,-301.165"/>
<text text-anchor="middle" x="122.264" y="-314.065" font-family="Times,serif" font-size="14.00">wwwuser_genotype</text>
</g>
<!-- wwwuser&#45;&gt;wwwuser_genotype -->
<g id="edge10" class="edge"><title>wwwuser&#45;&gt;wwwuser_genotype</title>
<path fill="none" stroke="black" d="M340.336,-325.696C303.634,-324.596 245.227,-322.847 198.094,-321.436"/>
<polygon fill="black" stroke="black" points="198.014,-317.932 187.913,-321.131 197.804,-324.929 198.014,-317.932"/>
</g>
<!-- wwwuser_interaction -->
<g id="node20" class="node"><title>wwwuser_interaction</title>
<polygon fill="white" stroke="black" points="570.577,-304.77 570.577,-340.77 710.577,-340.77 710.577,-304.77 570.577,-304.77"/>
<text text-anchor="middle" x="640.577" y="-317.67" font-family="Times,serif" font-size="14.00">wwwuser_interaction</text>
</g>
<!-- wwwuser&#45;&gt;wwwuser_interaction -->
<g id="edge12" class="edge"><title>wwwuser&#45;&gt;wwwuser_interaction</title>
<path fill="none" stroke="black" d="M411.566,-326.222C449.523,-325.65 510.801,-324.726 560.422,-323.978"/>
<polygon fill="black" stroke="black" points="560.555,-327.476 570.501,-323.826 560.449,-320.477 560.555,-327.476"/>
</g>
<!-- wwwuser_organism -->
<g id="node21" class="node"><title>wwwuser_organism</title>
<polygon fill="white" stroke="black" points="17.6144,-133.5 17.6144,-169.5 148.614,-169.5 148.614,-133.5 17.6144,-133.5"/>
<text text-anchor="middle" x="83.1144" y="-146.4" font-family="Times,serif" font-size="14.00">wwwuser_organism</text>
</g>
<!-- wwwuser&#45;&gt;wwwuser_organism -->
<g id="edge14" class="edge"><title>wwwuser&#45;&gt;wwwuser_organism</title>
<path fill="none" stroke="black" d="M345.639,-308.664C292.28,-276.72 181.45,-210.37 122.301,-174.96"/>
<polygon fill="black" stroke="black" points="123.993,-171.893 113.615,-169.76 120.398,-177.899 123.993,-171.893"/>
</g>
<!-- wwwuser_phenotype -->
<g id="node22" class="node"><title>wwwuser_phenotype</title>
<polygon fill="white" stroke="black" points="405.873,-141.017 405.873,-177.017 542.873,-177.017 542.873,-141.017 405.873,-141.017"/>
<text text-anchor="middle" x="474.373" y="-153.917" font-family="Times,serif" font-size="14.00">wwwuser_phenotype</text>
</g>
<!-- wwwuser&#45;&gt;wwwuser_phenotype -->
<g id="edge16" class="edge"><title>wwwuser&#45;&gt;wwwuser_phenotype</title>
<path fill="none" stroke="black" d="M386.595,-308.489C403.915,-278.995 438.134,-220.727 458.351,-186.3"/>
<polygon fill="black" stroke="black" points="461.611,-187.661 463.656,-177.265 455.574,-184.116 461.611,-187.661"/>
</g>
<!-- wwwuser_pub -->
<g id="node23" class="node"><title>wwwuser_pub</title>
<polygon fill="white" stroke="black" points="631.378,-134.878 631.378,-170.878 729.378,-170.878 729.378,-134.878 631.378,-134.878"/>
<text text-anchor="middle" x="680.378" y="-147.778" font-family="Times,serif" font-size="14.00">wwwuser_pub</text>
</g>
<!-- wwwuser&#45;&gt;wwwuser_pub -->
<g id="edge20" class="edge"><title>wwwuser&#45;&gt;wwwuser_pub</title>
<path fill="none" stroke="black" d="M407.592,-308.643C463.231,-276.873 578.31,-211.161 639.707,-176.102"/>
<polygon fill="black" stroke="black" points="641.775,-178.952 648.723,-170.954 638.304,-172.873 641.775,-178.952"/>
</g>
<!-- wwwuserrelationship -->
<g id="node24" class="node"><title>wwwuserrelationship</title>
<polygon fill="white" stroke="black" points="1,-480.075 1,-516.075 140,-516.075 140,-480.075 1,-480.075"/>
<text text-anchor="middle" x="70.5" y="-492.975" font-family="Times,serif" font-size="14.00">wwwuserrelationship</text>
</g>
<!-- wwwuser&#45;&gt;wwwuserrelationship -->
<g id="edge22" class="edge"><title>wwwuser&#45;&gt;wwwuserrelationship</title>
<path fill="none" stroke="black" d="M343.763,-344.77C287.979,-376.066 173.235,-440.439 111.675,-474.975"/>
<polygon fill="black" stroke="black" points="109.639,-472.104 102.63,-480.049 113.064,-478.209 109.639,-472.104"/>
</g>
</g>
</svg>
