<?xml version="1.0" encoding="UTF-8" standalone="no"?>
<!DOCTYPE svg PUBLIC "-//W3C//DTD SVG 1.0//EN"
 "http://www.w3.org/TR/2001/REC-SVG-20010904/DTD/svg10.dtd">
<!-- Generated by neato version 2.2.1 (Wed Apr 13 22:41:22 UTC 2005)
     For user: (allenday) Allen Day            Title: test    Pages: 1 -->
<svg width="732pt" height="587pt"
 viewBox = "-1 -1 731 586"
 xmlns="http://www.w3.org/2000/svg">
<g id="graph0" class="graph" transform = "scale(0.477454)"
 style="font-family:Times-Roman;font-size:14.00;">
<title>test</title>
<g id="node1" class="node"><title>wwwuser</title>
<polygon style="fill:white;stroke:black;" points="683,668 846,668 846,564 683,564 683,668"/>
<text text-anchor="start" x="691" y="581">{wwwuser|&#45; wwwuser_id </text>
<text text-anchor="start" x="691" y="597">&#45; username </text>
<text text-anchor="start" x="691" y="613">&#45; password </text>
<text text-anchor="start" x="691" y="629">&#45; email </text>
<text text-anchor="start" x="691" y="645">&#45; profile </text>
<text text-anchor="middle" x="764" y="661">}</text>
</g>
<g id="node2" class="node"><title>wwwuser_project</title>
<polygon style="fill:white;stroke:black;" points="1258,161 1512,161 1512,73 1258,73 1258,161"/>
<text text-anchor="start" x="1266" y="90">{wwwuser_project|&#45; wwwuser_project_id </text>
<text text-anchor="start" x="1266" y="106">&#45; wwwuser_id </text>
<text text-anchor="start" x="1266" y="122">&#45; project_id </text>
<text text-anchor="start" x="1266" y="138">&#45; world_read </text>
<text text-anchor="middle" x="1385" y="154">}</text>
</g>
<g id="edge18" class="edge"><title>wwwuser&#45;&gt;wwwuser_project</title>
<path style="fill:none;stroke:black;" d="M829,564C949,467 1203,262 1322,167"/>
<polygon style="fill:black;stroke:black;" points="1320,164 1330,161 1324,170 1320,164"/>
</g>
<g id="node3" class="node"><title>wwwuser_author</title>
<polygon style="fill:white;stroke:black;" points="623,1187 871,1187 871,1099 623,1099 623,1187"/>
<text text-anchor="start" x="631" y="1116">{wwwuser_author|&#45; wwwuser_author_id </text>
<text text-anchor="start" x="631" y="1132">&#45; wwwuser_id </text>
<text text-anchor="start" x="631" y="1148">&#45; author_id </text>
<text text-anchor="start" x="631" y="1164">&#45; world_read </text>
<text text-anchor="middle" x="747" y="1180">}</text>
</g>
<g id="edge2" class="edge"><title>wwwuser&#45;&gt;wwwuser_author</title>
<path style="fill:none;stroke:black;" d="M762,668C759,769 752,987 748,1089"/>
<polygon style="fill:black;stroke:black;" points="752,1089 748,1099 745,1089 752,1089"/>
</g>
<g id="node4" class="node"><title>wwwuser_cvterm</title>
<polygon style="fill:white;stroke:black;" points="343,279 597,279 597,191 343,191 343,279"/>
<text text-anchor="start" x="351" y="208">{wwwuser_cvterm|&#45; wwwuser_cvterm_id </text>
<text text-anchor="start" x="351" y="224">&#45; wwwuser_id </text>
<text text-anchor="start" x="351" y="240">&#45; cvterm_id </text>
<text text-anchor="start" x="351" y="256">&#45; world_read </text>
<text text-anchor="middle" x="470" y="272">}</text>
</g>
<g id="edge4" class="edge"><title>wwwuser&#45;&gt;wwwuser_cvterm</title>
<path style="fill:none;stroke:black;" d="M724,564C667,491 567,360 510,287"/>
<polygon style="fill:black;stroke:black;" points="507,289 504,279 513,285 507,289"/>
</g>
<g id="node5" class="node"><title>wwwuser_expression</title>
<polygon style="fill:white;stroke:black;" points="900,281 1195,281 1195,193 900,193 900,281"/>
<text text-anchor="start" x="908" y="210">{wwwuser_expression|&#45; wwwuser_expression_id </text>
<text text-anchor="start" x="908" y="226">&#45; wwwuser_id </text>
<text text-anchor="start" x="908" y="242">&#45; expression_id </text>
<text text-anchor="start" x="908" y="258">&#45; world_read </text>
<text text-anchor="middle" x="1047" y="274">}</text>
</g>
<g id="edge6" class="edge"><title>wwwuser&#45;&gt;wwwuser_expression</title>
<path style="fill:none;stroke:black;" d="M803,564C857,492 954,362 1008,289"/>
<polygon style="fill:black;stroke:black;" points="1005,287 1014,281 1011,291 1005,287"/>
</g>
<g id="node6" class="node"><title>wwwuser_feature</title>
<polygon style="fill:white;stroke:black;" points="634,134 887,134 887,46 634,46 634,134"/>
<text text-anchor="start" x="642" y="63">{wwwuser_feature|&#45; wwwuser_feature_id </text>
<text text-anchor="start" x="642" y="79">&#45; wwwuser_id </text>
<text text-anchor="start" x="642" y="95">&#45; feature_id </text>
<text text-anchor="start" x="642" y="111">&#45; world_read </text>
<text text-anchor="middle" x="760" y="127">}</text>
</g>
<g id="edge8" class="edge"><title>wwwuser&#45;&gt;wwwuser_feature</title>
<path style="fill:none;stroke:black;" d="M764,564C763,463 761,246 760,144"/>
<polygon style="fill:black;stroke:black;" points="757,144 760,134 764,144 757,144"/>
</g>
<g id="node7" class="node"><title>wwwuser_genotype</title>
<polygon style="fill:white;stroke:black;" points="13,1045 291,1045 291,957 13,957 13,1045"/>
<text text-anchor="start" x="21" y="974">{wwwuser_genotype|&#45; wwwuser_genotype_id </text>
<text text-anchor="start" x="21" y="990">&#45; wwwuser_id </text>
<text text-anchor="start" x="21" y="1006">&#45; genotype_id </text>
<text text-anchor="start" x="21" y="1022">&#45; world_read </text>
<text text-anchor="middle" x="152" y="1038">}</text>
</g>
<g id="edge10" class="edge"><title>wwwuser&#45;&gt;wwwuser_genotype</title>
<path style="fill:none;stroke:black;" d="M683,667C565,741 347,878 231,952"/>
<polygon style="fill:black;stroke:black;" points="232,955 222,957 229,949 232,955"/>
</g>
<g id="node8" class="node"><title>wwwuser_interaction</title>
<polygon style="fill:white;stroke:black;" points="1212,662 1508,662 1508,574 1212,574 1212,662"/>
<text text-anchor="start" x="1220" y="591">{wwwuser_interaction|&#45; wwwuser_interaction_id </text>
<text text-anchor="start" x="1220" y="607">&#45; wwwuser_id </text>
<text text-anchor="start" x="1220" y="623">&#45; interaction_id </text>
<text text-anchor="start" x="1220" y="639">&#45; world_read </text>
<text text-anchor="middle" x="1360" y="655">}</text>
</g>
<g id="edge12" class="edge"><title>wwwuser&#45;&gt;wwwuser_interaction</title>
<path style="fill:none;stroke:black;" d="M846,616C937,617 1087,617 1202,618"/>
<polygon style="fill:black;stroke:black;" points="1202,614 1212,618 1202,621 1202,614"/>
</g>
<g id="node9" class="node"><title>wwwuser_organism</title>
<polygon style="fill:white;stroke:black;" points="325,1020 604,1020 604,932 325,932 325,1020"/>
<text text-anchor="start" x="333" y="949">{wwwuser_organism|&#45; wwwuser_organism_id </text>
<text text-anchor="start" x="333" y="965">&#45; wwwuser_id </text>
<text text-anchor="start" x="333" y="981">&#45; organism_id </text>
<text text-anchor="start" x="333" y="997">&#45; world_read </text>
<text text-anchor="middle" x="464" y="1013">}</text>
</g>
<g id="edge14" class="edge"><title>wwwuser&#45;&gt;wwwuser_organism</title>
<path style="fill:none;stroke:black;" d="M720,668C663,736 564,855 508,924"/>
<polygon style="fill:black;stroke:black;" points="510,927 501,932 505,922 510,927"/>
</g>
<g id="node10" class="node"><title>wwwuser_phenotype</title>
<polygon style="fill:white;stroke:black;" points="897,1045 1189,1045 1189,957 897,957 897,1045"/>
<text text-anchor="start" x="905" y="974">{wwwuser_phenotype|&#45; wwwuser_phenotype_id </text>
<text text-anchor="start" x="905" y="990">&#45; wwwuser_id </text>
<text text-anchor="start" x="905" y="1006">&#45; phenotype_id </text>
<text text-anchor="start" x="905" y="1022">&#45; world_read </text>
<text text-anchor="middle" x="1043" y="1038">}</text>
</g>
<g id="edge16" class="edge"><title>wwwuser&#45;&gt;wwwuser_phenotype</title>
<path style="fill:none;stroke:black;" d="M802,668C855,742 951,876 1005,949"/>
<polygon style="fill:black;stroke:black;" points="1008,947 1011,957 1002,951 1008,947"/>
</g>
<g id="node11" class="node"><title>wwwuser_pub</title>
<polygon style="fill:white;stroke:black;" points="1275,1160 1493,1160 1493,1072 1275,1072 1275,1160"/>
<text text-anchor="start" x="1283" y="1089">{wwwuser_pub|&#45; wwwuser_pub_id </text>
<text text-anchor="start" x="1283" y="1105">&#45; wwwuser_id </text>
<text text-anchor="start" x="1283" y="1121">&#45; pub_id </text>
<text text-anchor="start" x="1283" y="1137">&#45; world_read </text>
<text text-anchor="middle" x="1384" y="1153">}</text>
</g>
<g id="edge20" class="edge"><title>wwwuser&#45;&gt;wwwuser_pub</title>
<path style="fill:none;stroke:black;" d="M829,668C948,765 1203,970 1321,1066"/>
<polygon style="fill:black;stroke:black;" points="1323,1063 1329,1072 1319,1069 1323,1063"/>
</g>
<g id="node12" class="node"><title>wwwuserrelationship</title>
<polygon style="fill:white;stroke:black;" points="6,283 301,283 301,195 6,195 6,283"/>
<text text-anchor="start" x="14" y="212">{wwwuserrelationship|&#45; wwwuserrelationship_id </text>
<text text-anchor="start" x="14" y="228">&#45; objwwwuser_id </text>
<text text-anchor="start" x="14" y="244">&#45; subjwwwuser_id </text>
<text text-anchor="start" x="14" y="260">&#45; world_read </text>
<text text-anchor="middle" x="153" y="276">}</text>
</g>
<g id="edge22" class="edge"><title>wwwuser&#45;&gt;wwwuserrelationship</title>
<path style="fill:none;stroke:black;" d="M683,566C566,493 350,361 234,288"/>
<polygon style="fill:black;stroke:black;" points="232,291 225,283 235,285 232,291"/>
</g>
</g>
</svg>
